[
  {
    "action": "execute_pt",
    "unit": "001",
    "bar_index": 1,
    "pt_name": "alto_flute_tacet_b1_1761601189331_ff27",
    "N": 1,
    "seeds": {
      "time": 11,
      "duration": 1,
      "pitch": 67,
      "velocity": 0,
      "numerator": 3,
      "denominator": 4
    },
    "sample_counts": {
      "time": 1,
      "duration": 1,
      "pitch": 1,
      "velocity": 1,
      "numerator": 1,
      "denominator": 1
    }
  },
  {
    "action": "execute_pt",
    "unit": "001",
    "bar_index": 1,
    "pt_name": "violin_upper_voices_b1_1761601189331_ba28",
    "N": 1,
    "seeds": {
      "time": 0,
      "duration": 12,
      "pitch": 64,
      "velocity": 42,
      "numerator": 3,
      "denominator": 4
    },
    "sample_counts": {
      "time": 1,
      "duration": 1,
      "pitch": 1,
      "velocity": 1,
      "numerator": 1,
      "denominator": 1
    }
  },
  {
    "action": "execute_pt",
    "unit": "001",
    "bar_index": 1,
    "pt_name": "bass_clarinet_tacet_b1_1761601189331_f634",
    "N": 1,
    "seeds": {
      "time": 11,
      "duration": 1,
      "pitch": 58,
      "velocity": 0,
      "numerator": 3,
      "denominator": 4
    },
    "sample_counts": {
      "time": 1,
      "duration": 1,
      "pitch": 1,
      "velocity": 1,
      "numerator": 1,
      "denominator": 1
    }
  },
  {
    "action": "execute_pt",
    "unit": "001",
    "bar_index": 1,
    "pt_name": "trumpet_tacet_b1_1761601189331_54db",
    "N": 1,
    "seeds": {
      "time": 11,
      "duration": 1,
      "pitch": 72,
      "velocity": 0,
      "numerator": 3,
      "denominator": 4
    },
    "sample_counts": {
      "time": 1,
      "duration": 1,
      "pitch": 1,
      "velocity": 1,
      "numerator": 1,
      "denominator": 1
    }
  },
  {
    "action": "execute_pt",
    "unit": "001",
    "bar_index": 1,
    "pt_name": "cello_inner_voice_b1_1761601189331_77bd",
    "N": 1,
    "seeds": {
      "time": 0,
      "duration": 12,
      "pitch": 48,
      "velocity": 41,
      "numerator": 3,
      "denominator": 4
    },
    "sample_counts": {
      "time": 1,
      "duration": 1,
      "pitch": 1,
      "velocity": 1,
      "numerator": 1,
      "denominator": 1
    }
  },
  {
    "action": "execute_pt",
    "unit": "001",
    "bar_index": 1,
    "pt_name": "double_bass_roots_b1_1761601189331_1d7d",
    "N": 1,
    "seeds": {
      "time": 0,
      "duration": 12,
      "pitch": 31,
      "velocity": 39,
      "numerator": 3,
      "denominator": 4
    },
    "sample_counts": {
      "time": 1,
      "duration": 1,
      "pitch": 1,
      "velocity": 1,
      "numerator": 1,
      "denominator": 1
    }
  },
  {
    "action": "execute_pt",
    "unit": "001",
    "bar_index": 2,
    "pt_name": "alto_flute_tacet_b2_1761601197554_ba29",
    "N": 1,
    "seeds": {
      "time": 11,
      "duration": 1,
      "pitch": 67,
      "velocity": 0,
      "numerator": 3,
      "denominator": 4
    },
    "sample_counts": {
      "time": 1,
      "duration": 1,
      "pitch": 1,
      "velocity": 1,
      "numerator": 1,
      "denominator": 1
    }
  },
  {
    "action": "execute_pt",
    "unit": "001",
    "bar_index": 2,
    "pt_name": "violin_upper_voices_b2_1761601197554_099f",
    "N": 2,
    "seeds": {
      "time": 0,
      "duration": 8,
      "pitch": 65,
      "velocity": 43,
      "numerator": 3,
      "denominator": 4
    },
    "sample_counts": {
      "time": 2,
      "duration": 2,
      "pitch": 2,
      "velocity": 2,
      "numerator": 2,
      "denominator": 2
    }
  },
  {
    "action": "execute_pt",
    "unit": "001",
    "bar_index": 2,
    "pt_name": "bass_clarinet_tacet_b2_1761601197554_e6ff",
    "N": 1,
    "seeds": {
      "time": 11,
      "duration": 1,
      "pitch": 58,
      "velocity": 0,
      "numerator": 3,
      "denominator": 4
    },
    "sample_counts": {
      "time": 1,
      "duration": 1,
      "pitch": 1,
      "velocity": 1,
      "numerator": 1,
      "denominator": 1
    }
  },
  {
    "action": "execute_pt",
    "unit": "001",
    "bar_index": 2,
    "pt_name": "trumpet_tacet_b2_1761601197554_a055",
    "N": 1,
    "seeds": {
      "time": 11,
      "duration": 1,
      "pitch": 72,
      "velocity": 0,
      "numerator": 3,
      "denominator": 4
    },
    "sample_counts": {
      "time": 1,
      "duration": 1,
      "pitch": 1,
      "velocity": 1,
      "numerator": 1,
      "denominator": 1
    }
  },
  {
    "action": "execute_pt",
    "unit": "001",
    "bar_index": 2,
    "pt_name": "cello_inner_voice_b2_1761601197554_7ccd",
    "N": 2,
    "seeds": {
      "time": 0,
      "duration": 8,
      "pitch": 49,
      "velocity": 42,
      "numerator": 3,
      "denominator": 4
    },
    "sample_counts": {
      "time": 2,
      "duration": 2,
      "pitch": 2,
      "velocity": 2,
      "numerator": 2,
      "denominator": 2
    }
  },
  {
    "action": "execute_pt",
    "unit": "001",
    "bar_index": 2,
    "pt_name": "double_bass_roots_b2_1761601197554_aab6",
    "N": 2,
    "seeds": {
      "time": 0,
      "duration": 8,
      "pitch": 32,
      "velocity": 40,
      "numerator": 3,
      "denominator": 4
    },
    "sample_counts": {
      "time": 2,
      "duration": 2,
      "pitch": 2,
      "velocity": 2,
      "numerator": 2,
      "denominator": 2
    }
  },
  {
    "action": "execute_pt",
    "unit": "001",
    "bar_index": 3,
    "pt_name": "alto_flute_tacet_b3_1761601205582_cb58",
    "N": 1,
    "seeds": {
      "time": 11,
      "duration": 1,
      "pitch": 67,
      "velocity": 0,
      "numerator": 3,
      "denominator": 4
    },
    "sample_counts": {
      "time": 1,
      "duration": 1,
      "pitch": 1,
      "velocity": 1,
      "numerator": 1,
      "denominator": 1
    }
  },
  {
    "action": "execute_pt",
    "unit": "001",
    "bar_index": 3,
    "pt_name": "violin_upper_voices_b3_1761601205582_fc11",
    "N": 1,
    "seeds": {
      "time": 0,
      "duration": 8,
      "pitch": 66,
      "velocity": 44,
      "numerator": 3,
      "denominator": 4
    },
    "sample_counts": {
      "time": 1,
      "duration": 1,
      "pitch": 1,
      "velocity": 1,
      "numerator": 1,
      "denominator": 1
    }
  },
  {
    "action": "execute_pt",
    "unit": "001",
    "bar_index": 3,
    "pt_name": "bass_clarinet_tacet_b3_1761601205582_3ceb",
    "N": 1,
    "seeds": {
      "time": 11,
      "duration": 1,
      "pitch": 58,
      "velocity": 0,
      "numerator": 3,
      "denominator": 4
    },
    "sample_counts": {
      "time": 1,
      "duration": 1,
      "pitch": 1,
      "velocity": 1,
      "numerator": 1,
      "denominator": 1
    }
  },
  {
    "action": "execute_pt",
    "unit": "001",
    "bar_index": 3,
    "pt_name": "trumpet_tacet_b3_1761601205582_8eb3",
    "N": 1,
    "seeds": {
      "time": 11,
      "duration": 1,
      "pitch": 72,
      "velocity": 0,
      "numerator": 3,
      "denominator": 4
    },
    "sample_counts": {
      "time": 1,
      "duration": 1,
      "pitch": 1,
      "velocity": 1,
      "numerator": 1,
      "denominator": 1
    }
  },
  {
    "action": "execute_pt",
    "unit": "001",
    "bar_index": 3,
    "pt_name": "cello_inner_voice_b3_1761601205583_1257",
    "N": 1,
    "seeds": {
      "time": 0,
      "duration": 8,
      "pitch": 50,
      "velocity": 43,
      "numerator": 3,
      "denominator": 4
    },
    "sample_counts": {
      "time": 1,
      "duration": 1,
      "pitch": 1,
      "velocity": 1,
      "numerator": 1,
      "denominator": 1
    }
  },
  {
    "action": "execute_pt",
    "unit": "001",
    "bar_index": 3,
    "pt_name": "double_bass_roots_b3_1761601205583_d6d7",
    "N": 1,
    "seeds": {
      "time": 0,
      "duration": 8,
      "pitch": 33,
      "velocity": 40,
      "numerator": 3,
      "denominator": 4
    },
    "sample_counts": {
      "time": 1,
      "duration": 1,
      "pitch": 1,
      "velocity": 1,
      "numerator": 1,
      "denominator": 1
    }
  },
  {
    "action": "execute_pt",
    "unit": "001",
    "bar_index": 4,
    "pt_name": "alto_flute_tacet_b4_1761601213538_dbcd",
    "N": 1,
    "seeds": {
      "time": 11,
      "duration": 1,
      "pitch": 67,
      "velocity": 0,
      "numerator": 3,
      "denominator": 4
    },
    "sample_counts": {
      "time": 1,
      "duration": 1,
      "pitch": 1,
      "velocity": 1,
      "numerator": 1,
      "denominator": 1
    }
  },
  {
    "action": "execute_pt",
    "unit": "001",
    "bar_index": 4,
    "pt_name": "violin_upper_voices_b4_1761601213538_9551",
    "N": 2,
    "seeds": {
      "time": 0,
      "duration": 4,
      "pitch": 67,
      "velocity": 45,
      "numerator": 3,
      "denominator": 4
    },
    "sample_counts": {
      "time": 2,
      "duration": 2,
      "pitch": 2,
      "velocity": 2,
      "numerator": 2,
      "denominator": 2
    }
  },
  {
    "action": "execute_pt",
    "unit": "001",
    "bar_index": 4,
    "pt_name": "bass_clarinet_tacet_b4_1761601213538_1a80",
    "N": 1,
    "seeds": {
      "time": 11,
      "duration": 1,
      "pitch": 58,
      "velocity": 0,
      "numerator": 3,
      "denominator": 4
    },
    "sample_counts": {
      "time": 1,
      "duration": 1,
      "pitch": 1,
      "velocity": 1,
      "numerator": 1,
      "denominator": 1
    }
  },
  {
    "action": "execute_pt",
    "unit": "001",
    "bar_index": 4,
    "pt_name": "trumpet_tacet_b4_1761601213538_fe84",
    "N": 1,
    "seeds": {
      "time": 11,
      "duration": 1,
      "pitch": 72,
      "velocity": 0,
      "numerator": 3,
      "denominator": 4
    },
    "sample_counts": {
      "time": 1,
      "duration": 1,
      "pitch": 1,
      "velocity": 1,
      "numerator": 1,
      "denominator": 1
    }
  },
  {
    "action": "execute_pt",
    "unit": "001",
    "bar_index": 4,
    "pt_name": "cello_inner_voice_b4_1761601213538_0f3b",
    "N": 2,
    "seeds": {
      "time": 0,
      "duration": 4,
      "pitch": 51,
      "velocity": 44,
      "numerator": 3,
      "denominator": 4
    },
    "sample_counts": {
      "time": 2,
      "duration": 2,
      "pitch": 2,
      "velocity": 2,
      "numerator": 2,
      "denominator": 2
    }
  },
  {
    "action": "execute_pt",
    "unit": "001",
    "bar_index": 4,
    "pt_name": "double_bass_roots_b4_1761601213538_04b4",
    "N": 2,
    "seeds": {
      "time": 0,
      "duration": 4,
      "pitch": 34,
      "velocity": 41,
      "numerator": 3,
      "denominator": 4
    },
    "sample_counts": {
      "time": 2,
      "duration": 2,
      "pitch": 2,
      "velocity": 2,
      "numerator": 2,
      "denominator": 2
    }
  },
  {
    "action": "execute_pt",
    "unit": "001",
    "bar_index": 5,
    "pt_name": "alto_flute_tacet_b5_1761601221391_e968",
    "N": 1,
    "seeds": {
      "time": 11,
      "duration": 1,
      "pitch": 67,
      "velocity": 0,
      "numerator": 3,
      "denominator": 4
    },
    "sample_counts": {
      "time": 1,
      "duration": 1,
      "pitch": 1,
      "velocity": 1,
      "numerator": 1,
      "denominator": 1
    }
  },
  {
    "action": "execute_pt",
    "unit": "001",
    "bar_index": 5,
    "pt_name": "violin_upper_voices_b5_1761601221391_be35",
    "N": 1,
    "seeds": {
      "time": 4,
      "duration": 8,
      "pitch": 69,
      "velocity": 46,
      "numerator": 3,
      "denominator": 4
    },
    "sample_counts": {
      "time": 1,
      "duration": 1,
      "pitch": 1,
      "velocity": 1,
      "numerator": 1,
      "denominator": 1
    }
  },
  {
    "action": "execute_pt",
    "unit": "001",
    "bar_index": 5,
    "pt_name": "bass_clarinet_tacet_b5_1761601221391_c614",
    "N": 1,
    "seeds": {
      "time": 11,
      "duration": 1,
      "pitch": 58,
      "velocity": 0,
      "numerator": 3,
      "denominator": 4
    },
    "sample_counts": {
      "time": 1,
      "duration": 1,
      "pitch": 1,
      "velocity": 1,
      "numerator": 1,
      "denominator": 1
    }
  },
  {
    "action": "execute_pt",
    "unit": "001",
    "bar_index": 5,
    "pt_name": "trumpet_tacet_b5_1761601221391_c3fd",
    "N": 1,
    "seeds": {
      "time": 11,
      "duration": 1,
      "pitch": 72,
      "velocity": 0,
      "numerator": 3,
      "denominator": 4
    },
    "sample_counts": {
      "time": 1,
      "duration": 1,
      "pitch": 1,
      "velocity": 1,
      "numerator": 1,
      "denominator": 1
    }
  },
  {
    "action": "execute_pt",
    "unit": "001",
    "bar_index": 5,
    "pt_name": "cello_inner_voice_b5_1761601221391_711b",
    "N": 1,
    "seeds": {
      "time": 4,
      "duration": 8,
      "pitch": 52,
      "velocity": 45,
      "numerator": 3,
      "denominator": 4
    },
    "sample_counts": {
      "time": 1,
      "duration": 1,
      "pitch": 1,
      "velocity": 1,
      "numerator": 1,
      "denominator": 1
    }
  },
  {
    "action": "execute_pt",
    "unit": "001",
    "bar_index": 5,
    "pt_name": "double_bass_roots_b5_1761601221391_9b01",
    "N": 1,
    "seeds": {
      "time": 4,
      "duration": 8,
      "pitch": 35,
      "velocity": 42,
      "numerator": 3,
      "denominator": 4
    },
    "sample_counts": {
      "time": 1,
      "duration": 1,
      "pitch": 1,
      "velocity": 1,
      "numerator": 1,
      "denominator": 1
    }
  },
  {
    "action": "execute_pt",
    "unit": "001",
    "bar_index": 6,
    "pt_name": "alto_flute_tacet_b6_1761601228564_935a",
    "N": 1,
    "seeds": {
      "time": 11,
      "duration": 1,
      "pitch": 67,
      "velocity": 0,
      "numerator": 3,
      "denominator": 4
    },
    "sample_counts": {
      "time": 1,
      "duration": 1,
      "pitch": 1,
      "velocity": 1,
      "numerator": 1,
      "denominator": 1
    }
  },
  {
    "action": "execute_pt",
    "unit": "001",
    "bar_index": 6,
    "pt_name": "violin_upper_voices_b6_1761601228564_a2ba",
    "N": 1,
    "seeds": {
      "time": 0,
      "duration": 12,
      "pitch": 62,
      "velocity": 47,
      "numerator": 3,
      "denominator": 4
    },
    "sample_counts": {
      "time": 1,
      "duration": 1,
      "pitch": 1,
      "velocity": 1,
      "numerator": 1,
      "denominator": 1
    }
  },
  {
    "action": "execute_pt",
    "unit": "001",
    "bar_index": 6,
    "pt_name": "bass_clarinet_tacet_b6_1761601228564_f179",
    "N": 1,
    "seeds": {
      "time": 11,
      "duration": 1,
      "pitch": 58,
      "velocity": 0,
      "numerator": 3,
      "denominator": 4
    },
    "sample_counts": {
      "time": 1,
      "duration": 1,
      "pitch": 1,
      "velocity": 1,
      "numerator": 1,
      "denominator": 1
    }
  },
  {
    "action": "execute_pt",
    "unit": "001",
    "bar_index": 6,
    "pt_name": "trumpet_tacet_b6_1761601228564_6ecd",
    "N": 1,
    "seeds": {
      "time": 11,
      "duration": 1,
      "pitch": 72,
      "velocity": 0,
      "numerator": 3,
      "denominator": 4
    },
    "sample_counts": {
      "time": 1,
      "duration": 1,
      "pitch": 1,
      "velocity": 1,
      "numerator": 1,
      "denominator": 1
    }
  },
  {
    "action": "execute_pt",
    "unit": "001",
    "bar_index": 6,
    "pt_name": "cello_inner_voice_b6_1761601228564_954f",
    "N": 1,
    "seeds": {
      "time": 0,
      "duration": 12,
      "pitch": 53,
      "velocity": 46,
      "numerator": 3,
      "denominator": 4
    },
    "sample_counts": {
      "time": 1,
      "duration": 1,
      "pitch": 1,
      "velocity": 1,
      "numerator": 1,
      "denominator": 1
    }
  },
  {
    "action": "execute_pt",
    "unit": "001",
    "bar_index": 6,
    "pt_name": "double_bass_roots_b6_1761601228564_2b86",
    "N": 1,
    "seeds": {
      "time": 0,
      "duration": 12,
      "pitch": 36,
      "velocity": 44,
      "numerator": 3,
      "denominator": 4
    },
    "sample_counts": {
      "time": 1,
      "duration": 1,
      "pitch": 1,
      "velocity": 1,
      "numerator": 1,
      "denominator": 1
    }
  },
  {
    "action": "execute_pt",
    "unit": "001",
    "bar_index": 7,
    "pt_name": "alto_flute_tacet_b7_1761601236288_51f9",
    "N": 1,
    "seeds": {
      "time": 11,
      "duration": 1,
      "pitch": 67,
      "velocity": 0,
      "numerator": 3,
      "denominator": 4
    },
    "sample_counts": {
      "time": 1,
      "duration": 1,
      "pitch": 1,
      "velocity": 1,
      "numerator": 1,
      "denominator": 1
    }
  },
  {
    "action": "execute_pt",
    "unit": "001",
    "bar_index": 7,
    "pt_name": "violin_upper_voices_b7_1761601236288_a993",
    "N": 2,
    "seeds": {
      "time": 0,
      "duration": 8,
      "pitch": 71,
      "velocity": 48,
      "numerator": 3,
      "denominator": 4
    },
    "sample_counts": {
      "time": 2,
      "duration": 2,
      "pitch": 2,
      "velocity": 2,
      "numerator": 2,
      "denominator": 2
    }
  },
  {
    "action": "execute_pt",
    "unit": "001",
    "bar_index": 7,
    "pt_name": "bass_clarinet_tacet_b7_1761601236288_84ea",
    "N": 1,
    "seeds": {
      "time": 11,
      "duration": 1,
      "pitch": 58,
      "velocity": 0,
      "numerator": 3,
      "denominator": 4
    },
    "sample_counts": {
      "time": 1,
      "duration": 1,
      "pitch": 1,
      "velocity": 1,
      "numerator": 1,
      "denominator": 1
    }
  },
  {
    "action": "execute_pt",
    "unit": "001",
    "bar_index": 7,
    "pt_name": "trumpet_tacet_b7_1761601236288_4454",
    "N": 1,
    "seeds": {
      "time": 11,
      "duration": 1,
      "pitch": 72,
      "velocity": 0,
      "numerator": 3,
      "denominator": 4
    },
    "sample_counts": {
      "time": 1,
      "duration": 1,
      "pitch": 1,
      "velocity": 1,
      "numerator": 1,
      "denominator": 1
    }
  },
  {
    "action": "execute_pt",
    "unit": "001",
    "bar_index": 7,
    "pt_name": "cello_inner_voice_b7_1761601236288_3d48",
    "N": 2,
    "seeds": {
      "time": 0,
      "duration": 8,
      "pitch": 55,
      "velocity": 47,
      "numerator": 3,
      "denominator": 4
    },
    "sample_counts": {
      "time": 2,
      "duration": 2,
      "pitch": 2,
      "velocity": 2,
      "numerator": 2,
      "denominator": 2
    }
  },
  {
    "action": "execute_pt",
    "unit": "001",
    "bar_index": 7,
    "pt_name": "double_bass_roots_b7_1761601236288_0a1c",
    "N": 2,
    "seeds": {
      "time": 0,
      "duration": 8,
      "pitch": 37,
      "velocity": 45,
      "numerator": 3,
      "denominator": 4
    },
    "sample_counts": {
      "time": 2,
      "duration": 2,
      "pitch": 2,
      "velocity": 2,
      "numerator": 2,
      "denominator": 2
    }
  },
  {
    "action": "execute_pt",
    "unit": "001",
    "bar_index": 8,
    "pt_name": "alto_flute_tacet_b8_1761601243573_8aac",
    "N": 1,
    "seeds": {
      "time": 11,
      "duration": 1,
      "pitch": 67,
      "velocity": 0,
      "numerator": 3,
      "denominator": 4
    },
    "sample_counts": {
      "time": 1,
      "duration": 1,
      "pitch": 1,
      "velocity": 1,
      "numerator": 1,
      "denominator": 1
    }
  },
  {
    "action": "execute_pt",
    "unit": "001",
    "bar_index": 8,
    "pt_name": "violin_upper_voices_b8_1761601243573_b4b9",
    "N": 1,
    "seeds": {
      "time": 0,
      "duration": 8,
      "pitch": 71,
      "velocity": 49,
      "numerator": 3,
      "denominator": 4
    },
    "sample_counts": {
      "time": 1,
      "duration": 1,
      "pitch": 1,
      "velocity": 1,
      "numerator": 1,
      "denominator": 1
    }
  },
  {
    "action": "execute_pt",
    "unit": "001",
    "bar_index": 8,
    "pt_name": "bass_clarinet_tacet_b8_1761601243573_c889",
    "N": 1,
    "seeds": {
      "time": 11,
      "duration": 1,
      "pitch": 58,
      "velocity": 0,
      "numerator": 3,
      "denominator": 4
    },
    "sample_counts": {
      "time": 1,
      "duration": 1,
      "pitch": 1,
      "velocity": 1,
      "numerator": 1,
      "denominator": 1
    }
  },
  {
    "action": "execute_pt",
    "unit": "001",
    "bar_index": 8,
    "pt_name": "trumpet_tacet_b8_1761601243573_4c2f",
    "N": 1,
    "seeds": {
      "time": 11,
      "duration": 1,
      "pitch": 72,
      "velocity": 0,
      "numerator": 3,
      "denominator": 4
    },
    "sample_counts": {
      "time": 1,
      "duration": 1,
      "pitch": 1,
      "velocity": 1,
      "numerator": 1,
      "denominator": 1
    }
  },
  {
    "action": "execute_pt",
    "unit": "001",
    "bar_index": 8,
    "pt_name": "cello_inner_voice_b8_1761601243573_b41b",
    "N": 1,
    "seeds": {
      "time": 0,
      "duration": 8,
      "pitch": 55,
      "velocity": 48,
      "numerator": 3,
      "denominator": 4
    },
    "sample_counts": {
      "time": 1,
      "duration": 1,
      "pitch": 1,
      "velocity": 1,
      "numerator": 1,
      "denominator": 1
    }
  },
  {
    "action": "execute_pt",
    "unit": "001",
    "bar_index": 8,
    "pt_name": "double_bass_roots_b8_1761601243573_5c6a",
    "N": 1,
    "seeds": {
      "time": 0,
      "duration": 8,
      "pitch": 38,
      "velocity": 46,
      "numerator": 3,
      "denominator": 4
    },
    "sample_counts": {
      "time": 1,
      "duration": 1,
      "pitch": 1,
      "velocity": 1,
      "numerator": 1,
      "denominator": 1
    }
  },
  {
    "action": "execute_pt",
    "unit": "001",
    "bar_index": 9,
    "pt_name": "alto_flute_tacet_b9_1761601251254_0d1b",
    "N": 1,
    "seeds": {
      "time": 11,
      "duration": 1,
      "pitch": 67,
      "velocity": 0,
      "numerator": 3,
      "denominator": 4
    },
    "sample_counts": {
      "time": 1,
      "duration": 1,
      "pitch": 1,
      "velocity": 1,
      "numerator": 1,
      "denominator": 1
    }
  },
  {
    "action": "execute_pt",
    "unit": "001",
    "bar_index": 9,
    "pt_name": "violin_upper_voices_b9_1761601251254_c49b",
    "N": 2,
    "seeds": {
      "time": 0,
      "duration": 4,
      "pitch": 72,
      "velocity": 48,
      "numerator": 3,
      "denominator": 4
    },
    "sample_counts": {
      "time": 2,
      "duration": 2,
      "pitch": 2,
      "velocity": 2,
      "numerator": 2,
      "denominator": 2
    }
  },
  {
    "action": "execute_pt",
    "unit": "001",
    "bar_index": 9,
    "pt_name": "bass_clarinet_tacet_b9_1761601251254_5e2e",
    "N": 1,
    "seeds": {
      "time": 11,
      "duration": 1,
      "pitch": 58,
      "velocity": 0,
      "numerator": 3,
      "denominator": 4
    },
    "sample_counts": {
      "time": 1,
      "duration": 1,
      "pitch": 1,
      "velocity": 1,
      "numerator": 1,
      "denominator": 1
    }
  },
  {
    "action": "execute_pt",
    "unit": "001",
    "bar_index": 9,
    "pt_name": "trumpet_tacet_b9_1761601251254_fc82",
    "N": 1,
    "seeds": {
      "time": 11,
      "duration": 1,
      "pitch": 72,
      "velocity": 0,
      "numerator": 3,
      "denominator": 4
    },
    "sample_counts": {
      "time": 1,
      "duration": 1,
      "pitch": 1,
      "velocity": 1,
      "numerator": 1,
      "denominator": 1
    }
  },
  {
    "action": "execute_pt",
    "unit": "001",
    "bar_index": 9,
    "pt_name": "cello_inner_voice_b9_1761601251254_a2a1",
    "N": 2,
    "seeds": {
      "time": 0,
      "duration": 4,
      "pitch": 56,
      "velocity": 47,
      "numerator": 3,
      "denominator": 4
    },
    "sample_counts": {
      "time": 2,
      "duration": 2,
      "pitch": 2,
      "velocity": 2,
      "numerator": 2,
      "denominator": 2
    }
  },
  {
    "action": "execute_pt",
    "unit": "001",
    "bar_index": 9,
    "pt_name": "double_bass_roots_b9_1761601251254_5203",
    "N": 2,
    "seeds": {
      "time": 0,
      "duration": 4,
      "pitch": 39,
      "velocity": 45,
      "numerator": 3,
      "denominator": 4
    },
    "sample_counts": {
      "time": 2,
      "duration": 2,
      "pitch": 2,
      "velocity": 2,
      "numerator": 2,
      "denominator": 2
    }
  },
  {
    "action": "execute_pt",
    "unit": "001",
    "bar_index": 10,
    "pt_name": "alto_flute_tacet_b10_1761601258544_4e4f",
    "N": 1,
    "seeds": {
      "time": 11,
      "duration": 1,
      "pitch": 67,
      "velocity": 0,
      "numerator": 3,
      "denominator": 4
    },
    "sample_counts": {
      "time": 1,
      "duration": 1,
      "pitch": 1,
      "velocity": 1,
      "numerator": 1,
      "denominator": 1
    }
  },
  {
    "action": "execute_pt",
    "unit": "001",
    "bar_index": 10,
    "pt_name": "violin_upper_voices_b10_1761601258544_ef8d",
    "N": 1,
    "seeds": {
      "time": 4,
      "duration": 8,
      "pitch": 73,
      "velocity": 47,
      "numerator": 3,
      "denominator": 4
    },
    "sample_counts": {
      "time": 1,
      "duration": 1,
      "pitch": 1,
      "velocity": 1,
      "numerator": 1,
      "denominator": 1
    }
  },
  {
    "action": "execute_pt",
    "unit": "001",
    "bar_index": 10,
    "pt_name": "bass_clarinet_tacet_b10_1761601258544_9f19",
    "N": 1,
    "seeds": {
      "time": 11,
      "duration": 1,
      "pitch": 58,
      "velocity": 0,
      "numerator": 3,
      "denominator": 4
    },
    "sample_counts": {
      "time": 1,
      "duration": 1,
      "pitch": 1,
      "velocity": 1,
      "numerator": 1,
      "denominator": 1
    }
  },
  {
    "action": "execute_pt",
    "unit": "001",
    "bar_index": 10,
    "pt_name": "trumpet_tacet_b10_1761601258544_b243",
    "N": 1,
    "seeds": {
      "time": 11,
      "duration": 1,
      "pitch": 72,
      "velocity": 0,
      "numerator": 3,
      "denominator": 4
    },
    "sample_counts": {
      "time": 1,
      "duration": 1,
      "pitch": 1,
      "velocity": 1,
      "numerator": 1,
      "denominator": 1
    }
  },
  {
    "action": "execute_pt",
    "unit": "001",
    "bar_index": 10,
    "pt_name": "cello_inner_voice_b10_1761601258544_859b",
    "N": 1,
    "seeds": {
      "time": 4,
      "duration": 8,
      "pitch": 57,
      "velocity": 46,
      "numerator": 3,
      "denominator": 4
    },
    "sample_counts": {
      "time": 1,
      "duration": 1,
      "pitch": 1,
      "velocity": 1,
      "numerator": 1,
      "denominator": 1
    }
  },
  {
    "action": "execute_pt",
    "unit": "001",
    "bar_index": 10,
    "pt_name": "double_bass_roots_b10_1761601258544_ce0e",
    "N": 1,
    "seeds": {
      "time": 4,
      "duration": 8,
      "pitch": 40,
      "velocity": 44,
      "numerator": 3,
      "denominator": 4
    },
    "sample_counts": {
      "time": 1,
      "duration": 1,
      "pitch": 1,
      "velocity": 1,
      "numerator": 1,
      "denominator": 1
    }
  },
  {
    "action": "execute_pt",
    "unit": "001",
    "bar_index": 11,
    "pt_name": "alto_flute_tacet_b11_1761601266476_cfbb",
    "N": 1,
    "seeds": {
      "time": 11,
      "duration": 1,
      "pitch": 67,
      "velocity": 0,
      "numerator": 3,
      "denominator": 4
    },
    "sample_counts": {
      "time": 1,
      "duration": 1,
      "pitch": 1,
      "velocity": 1,
      "numerator": 1,
      "denominator": 1
    }
  },
  {
    "action": "execute_pt",
    "unit": "001",
    "bar_index": 11,
    "pt_name": "violin_upper_voices_b11_1761601266476_8ac9",
    "N": 2,
    "seeds": {
      "time": 0,
      "duration": 8,
      "pitch": 74,
      "velocity": 46,
      "numerator": 3,
      "denominator": 4
    },
    "sample_counts": {
      "time": 2,
      "duration": 2,
      "pitch": 2,
      "velocity": 2,
      "numerator": 2,
      "denominator": 2
    }
  },
  {
    "action": "execute_pt",
    "unit": "001",
    "bar_index": 11,
    "pt_name": "bass_clarinet_tacet_b11_1761601266476_5c5b",
    "N": 1,
    "seeds": {
      "time": 11,
      "duration": 1,
      "pitch": 58,
      "velocity": 0,
      "numerator": 3,
      "denominator": 4
    },
    "sample_counts": {
      "time": 1,
      "duration": 1,
      "pitch": 1,
      "velocity": 1,
      "numerator": 1,
      "denominator": 1
    }
  },
  {
    "action": "execute_pt",
    "unit": "001",
    "bar_index": 11,
    "pt_name": "trumpet_tacet_b11_1761601266476_c551",
    "N": 1,
    "seeds": {
      "time": 11,
      "duration": 1,
      "pitch": 72,
      "velocity": 0,
      "numerator": 3,
      "denominator": 4
    },
    "sample_counts": {
      "time": 1,
      "duration": 1,
      "pitch": 1,
      "velocity": 1,
      "numerator": 1,
      "denominator": 1
    }
  },
  {
    "action": "execute_pt",
    "unit": "001",
    "bar_index": 11,
    "pt_name": "cello_inner_voice_b11_1761601266476_5f8f",
    "N": 2,
    "seeds": {
      "time": 0,
      "duration": 8,
      "pitch": 58,
      "velocity": 45,
      "numerator": 3,
      "denominator": 4
    },
    "sample_counts": {
      "time": 2,
      "duration": 2,
      "pitch": 2,
      "velocity": 2,
      "numerator": 2,
      "denominator": 2
    }
  },
  {
    "action": "execute_pt",
    "unit": "001",
    "bar_index": 11,
    "pt_name": "double_bass_roots_b11_1761601266476_a6a6",
    "N": 2,
    "seeds": {
      "time": 0,
      "duration": 8,
      "pitch": 41,
      "velocity": 43,
      "numerator": 3,
      "denominator": 4
    },
    "sample_counts": {
      "time": 2,
      "duration": 2,
      "pitch": 2,
      "velocity": 2,
      "numerator": 2,
      "denominator": 2
    }
  },
  {
    "action": "execute_pt",
    "unit": "001",
    "bar_index": 12,
    "pt_name": "alto_flute_tacet_b12_1761601273522_a278",
    "N": 1,
    "seeds": {
      "time": 11,
      "duration": 1,
      "pitch": 67,
      "velocity": 0,
      "numerator": 3,
      "denominator": 4
    },
    "sample_counts": {
      "time": 1,
      "duration": 1,
      "pitch": 1,
      "velocity": 1,
      "numerator": 1,
      "denominator": 1
    }
  },
  {
    "action": "execute_pt",
    "unit": "001",
    "bar_index": 12,
    "pt_name": "violin_upper_voices_b12_1761601273522_7cb2",
    "N": 1,
    "seeds": {
      "time": 0,
      "duration": 12,
      "pitch": 75,
      "velocity": 44,
      "numerator": 3,
      "denominator": 4
    },
    "sample_counts": {
      "time": 1,
      "duration": 1,
      "pitch": 1,
      "velocity": 1,
      "numerator": 1,
      "denominator": 1
    }
  },
  {
    "action": "execute_pt",
    "unit": "001",
    "bar_index": 12,
    "pt_name": "bass_clarinet_tacet_b12_1761601273522_7556",
    "N": 1,
    "seeds": {
      "time": 11,
      "duration": 1,
      "pitch": 58,
      "velocity": 0,
      "numerator": 3,
      "denominator": 4
    },
    "sample_counts": {
      "time": 1,
      "duration": 1,
      "pitch": 1,
      "velocity": 1,
      "numerator": 1,
      "denominator": 1
    }
  },
  {
    "action": "execute_pt",
    "unit": "001",
    "bar_index": 12,
    "pt_name": "trumpet_tacet_b12_1761601273522_62e1",
    "N": 1,
    "seeds": {
      "time": 11,
      "duration": 1,
      "pitch": 72,
      "velocity": 0,
      "numerator": 3,
      "denominator": 4
    },
    "sample_counts": {
      "time": 1,
      "duration": 1,
      "pitch": 1,
      "velocity": 1,
      "numerator": 1,
      "denominator": 1
    }
  },
  {
    "action": "execute_pt",
    "unit": "001",
    "bar_index": 12,
    "pt_name": "cello_inner_voice_b12_1761601273522_e39c",
    "N": 1,
    "seeds": {
      "time": 0,
      "duration": 12,
      "pitch": 59,
      "velocity": 43,
      "numerator": 3,
      "denominator": 4
    },
    "sample_counts": {
      "time": 1,
      "duration": 1,
      "pitch": 1,
      "velocity": 1,
      "numerator": 1,
      "denominator": 1
    }
  },
  {
    "action": "execute_pt",
    "unit": "001",
    "bar_index": 12,
    "pt_name": "double_bass_roots_b12_1761601273522_2249",
    "N": 1,
    "seeds": {
      "time": 0,
      "duration": 12,
      "pitch": 42,
      "velocity": 41,
      "numerator": 3,
      "denominator": 4
    },
    "sample_counts": {
      "time": 1,
      "duration": 1,
      "pitch": 1,
      "velocity": 1,
      "numerator": 1,
      "denominator": 1
    }
  },
  {
    "action": "execute_pt",
    "unit": "001",
    "bar_index": 13,
    "pt_name": "alto_flute_tacet_b1_1761601280498_3714",
    "N": 1,
    "seeds": {
      "time": 11,
      "duration": 1,
      "pitch": 67,
      "velocity": 0,
      "numerator": 3,
      "denominator": 4
    },
    "sample_counts": {
      "time": 1,
      "duration": 1,
      "pitch": 1,
      "velocity": 1,
      "numerator": 1,
      "denominator": 1
    }
  },
  {
    "action": "execute_pt",
    "unit": "001",
    "bar_index": 13,
    "pt_name": "violin_upper_voices_b2_1761601280498_5412",
    "N": 2,
    "seeds": {
      "time": 0,
      "duration": 8,
      "pitch": 65,
      "velocity": 43,
      "numerator": 3,
      "denominator": 4
    },
    "sample_counts": {
      "time": 2,
      "duration": 2,
      "pitch": 2,
      "velocity": 2,
      "numerator": 2,
      "denominator": 2
    }
  },
  {
    "action": "execute_pt",
    "unit": "001",
    "bar_index": 13,
    "pt_name": "bass_clarinet_tacet_b2_1761601280498_3676",
    "N": 1,
    "seeds": {
      "time": 11,
      "duration": 1,
      "pitch": 58,
      "velocity": 0,
      "numerator": 3,
      "denominator": 4
    },
    "sample_counts": {
      "time": 1,
      "duration": 1,
      "pitch": 1,
      "velocity": 1,
      "numerator": 1,
      "denominator": 1
    }
  },
  {
    "action": "execute_pt",
    "unit": "001",
    "bar_index": 13,
    "pt_name": "trumpet_tacet_b2_1761601280498_6733",
    "N": 1,
    "seeds": {
      "time": 11,
      "duration": 1,
      "pitch": 72,
      "velocity": 0,
      "numerator": 3,
      "denominator": 4
    },
    "sample_counts": {
      "time": 1,
      "duration": 1,
      "pitch": 1,
      "velocity": 1,
      "numerator": 1,
      "denominator": 1
    }
  },
  {
    "action": "execute_pt",
    "unit": "001",
    "bar_index": 13,
    "pt_name": "cello_inner_voice_b2_1761601280498_f868",
    "N": 2,
    "seeds": {
      "time": 0,
      "duration": 8,
      "pitch": 49,
      "velocity": 42,
      "numerator": 3,
      "denominator": 4
    },
    "sample_counts": {
      "time": 2,
      "duration": 2,
      "pitch": 2,
      "velocity": 2,
      "numerator": 2,
      "denominator": 2
    }
  },
  {
    "action": "execute_pt",
    "unit": "001",
    "bar_index": 13,
    "pt_name": "double_bass_roots_b2_1761601280498_5119",
    "N": 2,
    "seeds": {
      "time": 0,
      "duration": 8,
      "pitch": 32,
      "velocity": 40,
      "numerator": 3,
      "denominator": 4
    },
    "sample_counts": {
      "time": 2,
      "duration": 2,
      "pitch": 2,
      "velocity": 2,
      "numerator": 2,
      "denominator": 2
    }
  },
  {
    "action": "execute_pt",
    "unit": "001",
    "bar_index": 14,
    "pt_name": "alto_flute_tacet_b1_1761601287640_8266",
    "N": 1,
    "seeds": {
      "time": 11,
      "duration": 1,
      "pitch": 67,
      "velocity": 0,
      "numerator": 3,
      "denominator": 4
    },
    "sample_counts": {
      "time": 1,
      "duration": 1,
      "pitch": 1,
      "velocity": 1,
      "numerator": 1,
      "denominator": 1
    }
  },
  {
    "action": "execute_pt",
    "unit": "001",
    "bar_index": 14,
    "pt_name": "violin_upper_voices_b1_1761601287640_6822",
    "N": 1,
    "seeds": {
      "time": 0,
      "duration": 12,
      "pitch": 64,
      "velocity": 46,
      "numerator": 3,
      "denominator": 4
    },
    "sample_counts": {
      "time": 1,
      "duration": 1,
      "pitch": 1,
      "velocity": 1,
      "numerator": 1,
      "denominator": 1
    }
  },
  {
    "action": "execute_pt",
    "unit": "001",
    "bar_index": 14,
    "pt_name": "bass_clarinet_tacet_b1_1761601287640_cde1",
    "N": 1,
    "seeds": {
      "time": 11,
      "duration": 1,
      "pitch": 58,
      "velocity": 0,
      "numerator": 3,
      "denominator": 4
    },
    "sample_counts": {
      "time": 1,
      "duration": 1,
      "pitch": 1,
      "velocity": 1,
      "numerator": 1,
      "denominator": 1
    }
  },
  {
    "action": "execute_pt",
    "unit": "001",
    "bar_index": 14,
    "pt_name": "trumpet_tacet_b1_1761601287640_157d",
    "N": 1,
    "seeds": {
      "time": 11,
      "duration": 1,
      "pitch": 72,
      "velocity": 0,
      "numerator": 3,
      "denominator": 4
    },
    "sample_counts": {
      "time": 1,
      "duration": 1,
      "pitch": 1,
      "velocity": 1,
      "numerator": 1,
      "denominator": 1
    }
  },
  {
    "action": "execute_pt",
    "unit": "001",
    "bar_index": 14,
    "pt_name": "cello_inner_voice_b1_1761601287640_5690",
    "N": 1,
    "seeds": {
      "time": 0,
      "duration": 12,
      "pitch": 48,
      "velocity": 45,
      "numerator": 3,
      "denominator": 4
    },
    "sample_counts": {
      "time": 1,
      "duration": 1,
      "pitch": 1,
      "velocity": 1,
      "numerator": 1,
      "denominator": 1
    }
  },
  {
    "action": "execute_pt",
    "unit": "001",
    "bar_index": 14,
    "pt_name": "double_bass_roots_b1_1761601287640_48ed",
    "N": 1,
    "seeds": {
      "time": 0,
      "duration": 12,
      "pitch": 31,
      "velocity": 43,
      "numerator": 3,
      "denominator": 4
    },
    "sample_counts": {
      "time": 1,
      "duration": 1,
      "pitch": 1,
      "velocity": 1,
      "numerator": 1,
      "denominator": 1
    }
  },
  {
    "action": "execute_pt",
    "unit": "001",
    "bar_index": 15,
    "pt_name": "alto_flute_tacet_b3_1761601295425_f20d",
    "N": 1,
    "seeds": {
      "time": 11,
      "duration": 1,
      "pitch": 67,
      "velocity": 0,
      "numerator": 3,
      "denominator": 4
    },
    "sample_counts": {
      "time": 1,
      "duration": 1,
      "pitch": 1,
      "velocity": 1,
      "numerator": 1,
      "denominator": 1
    }
  },
  {
    "action": "execute_pt",
    "unit": "001",
    "bar_index": 15,
    "pt_name": "violin_upper_voices_b3_1761601295425_4433",
    "N": 2,
    "seeds": {
      "time": 0,
      "duration": 4,
      "pitch": 66,
      "velocity": 44,
      "numerator": 3,
      "denominator": 4
    },
    "sample_counts": {
      "time": 2,
      "duration": 2,
      "pitch": 2,
      "velocity": 2,
      "numerator": 2,
      "denominator": 2
    }
  },
  {
    "action": "execute_pt",
    "unit": "001",
    "bar_index": 15,
    "pt_name": "bass_clarinet_tacet_b3_1761601295425_7bc9",
    "N": 1,
    "seeds": {
      "time": 11,
      "duration": 1,
      "pitch": 58,
      "velocity": 0,
      "numerator": 3,
      "denominator": 4
    },
    "sample_counts": {
      "time": 1,
      "duration": 1,
      "pitch": 1,
      "velocity": 1,
      "numerator": 1,
      "denominator": 1
    }
  },
  {
    "action": "execute_pt",
    "unit": "001",
    "bar_index": 15,
    "pt_name": "trumpet_tacet_b3_1761601295425_4b49",
    "N": 1,
    "seeds": {
      "time": 11,
      "duration": 1,
      "pitch": 72,
      "velocity": 0,
      "numerator": 3,
      "denominator": 4
    },
    "sample_counts": {
      "time": 1,
      "duration": 1,
      "pitch": 1,
      "velocity": 1,
      "numerator": 1,
      "denominator": 1
    }
  },
  {
    "action": "execute_pt",
    "unit": "001",
    "bar_index": 15,
    "pt_name": "cello_inner_voice_b3_1761601295425_6b7c",
    "N": 2,
    "seeds": {
      "time": 0,
      "duration": 4,
      "pitch": 50,
      "velocity": 43,
      "numerator": 3,
      "denominator": 4
    },
    "sample_counts": {
      "time": 2,
      "duration": 2,
      "pitch": 2,
      "velocity": 2,
      "numerator": 2,
      "denominator": 2
    }
  },
  {
    "action": "execute_pt",
    "unit": "001",
    "bar_index": 15,
    "pt_name": "double_bass_roots_b3_1761601295425_d8da",
    "N": 2,
    "seeds": {
      "time": 0,
      "duration": 4,
      "pitch": 33,
      "velocity": 40,
      "numerator": 3,
      "denominator": 4
    },
    "sample_counts": {
      "time": 2,
      "duration": 2,
      "pitch": 2,
      "velocity": 2,
      "numerator": 2,
      "denominator": 2
    }
  },
  {
    "action": "execute_pt",
    "unit": "001",
    "bar_index": 16,
    "pt_name": "alto_flute_tacet_b4_1761601302561_2418",
    "N": 1,
    "seeds": {
      "time": 11,
      "duration": 1,
      "pitch": 67,
      "velocity": 0,
      "numerator": 3,
      "denominator": 4
    },
    "sample_counts": {
      "time": 1,
      "duration": 1,
      "pitch": 1,
      "velocity": 1,
      "numerator": 1,
      "denominator": 1
    }
  },
  {
    "action": "execute_pt",
    "unit": "001",
    "bar_index": 16,
    "pt_name": "violin_upper_voices_b4_1761601302561_cad0",
    "N": 1,
    "seeds": {
      "time": 0,
      "duration": 8,
      "pitch": 65,
      "velocity": 46,
      "numerator": 3,
      "denominator": 4
    },
    "sample_counts": {
      "time": 1,
      "duration": 1,
      "pitch": 1,
      "velocity": 1,
      "numerator": 1,
      "denominator": 1
    }
  },
  {
    "action": "execute_pt",
    "unit": "001",
    "bar_index": 16,
    "pt_name": "bass_clarinet_tacet_b4_1761601302561_b087",
    "N": 1,
    "seeds": {
      "time": 11,
      "duration": 1,
      "pitch": 58,
      "velocity": 0,
      "numerator": 3,
      "denominator": 4
    },
    "sample_counts": {
      "time": 1,
      "duration": 1,
      "pitch": 1,
      "velocity": 1,
      "numerator": 1,
      "denominator": 1
    }
  },
  {
    "action": "execute_pt",
    "unit": "001",
    "bar_index": 16,
    "pt_name": "trumpet_tacet_b4_1761601302561_b7bd",
    "N": 1,
    "seeds": {
      "time": 11,
      "duration": 1,
      "pitch": 72,
      "velocity": 0,
      "numerator": 3,
      "denominator": 4
    },
    "sample_counts": {
      "time": 1,
      "duration": 1,
      "pitch": 1,
      "velocity": 1,
      "numerator": 1,
      "denominator": 1
    }
  },
  {
    "action": "execute_pt",
    "unit": "001",
    "bar_index": 16,
    "pt_name": "cello_inner_voice_b4_1761601302561_0d3c",
    "N": 1,
    "seeds": {
      "time": 0,
      "duration": 8,
      "pitch": 50,
      "velocity": 45,
      "numerator": 3,
      "denominator": 4
    },
    "sample_counts": {
      "time": 1,
      "duration": 1,
      "pitch": 1,
      "velocity": 1,
      "numerator": 1,
      "denominator": 1
    }
  },
  {
    "action": "execute_pt",
    "unit": "001",
    "bar_index": 16,
    "pt_name": "double_bass_roots_b4_1761601302561_ef47",
    "N": 1,
    "seeds": {
      "time": 0,
      "duration": 8,
      "pitch": 34,
      "velocity": 43,
      "numerator": 3,
      "denominator": 4
    },
    "sample_counts": {
      "time": 1,
      "duration": 1,
      "pitch": 1,
      "velocity": 1,
      "numerator": 1,
      "denominator": 1
    }
  },
  {
    "action": "execute_pt",
    "unit": "001",
    "bar_index": 17,
    "pt_name": "alto_flute_tacet_b2_1761601309616_7fee",
    "N": 1,
    "seeds": {
      "time": 11,
      "duration": 1,
      "pitch": 67,
      "velocity": 0,
      "numerator": 3,
      "denominator": 4
    },
    "sample_counts": {
      "time": 1,
      "duration": 1,
      "pitch": 1,
      "velocity": 1,
      "numerator": 1,
      "denominator": 1
    }
  },
  {
    "action": "execute_pt",
    "unit": "001",
    "bar_index": 17,
    "pt_name": "violin_upper_voices_b2_1761601309616_c8a7",
    "N": 1,
    "seeds": {
      "time": 0,
      "duration": 12,
      "pitch": 65,
      "velocity": 46,
      "numerator": 3,
      "denominator": 4
    },
    "sample_counts": {
      "time": 1,
      "duration": 1,
      "pitch": 1,
      "velocity": 1,
      "numerator": 1,
      "denominator": 1
    }
  },
  {
    "action": "execute_pt",
    "unit": "001",
    "bar_index": 17,
    "pt_name": "bass_clarinet_tacet_b2_1761601309616_f9e9",
    "N": 1,
    "seeds": {
      "time": 11,
      "duration": 1,
      "pitch": 58,
      "velocity": 0,
      "numerator": 3,
      "denominator": 4
    },
    "sample_counts": {
      "time": 1,
      "duration": 1,
      "pitch": 1,
      "velocity": 1,
      "numerator": 1,
      "denominator": 1
    }
  },
  {
    "action": "execute_pt",
    "unit": "001",
    "bar_index": 17,
    "pt_name": "trumpet_tacet_b2_1761601309616_ad85",
    "N": 1,
    "seeds": {
      "time": 11,
      "duration": 1,
      "pitch": 72,
      "velocity": 0,
      "numerator": 3,
      "denominator": 4
    },
    "sample_counts": {
      "time": 1,
      "duration": 1,
      "pitch": 1,
      "velocity": 1,
      "numerator": 1,
      "denominator": 1
    }
  },
  {
    "action": "execute_pt",
    "unit": "001",
    "bar_index": 17,
    "pt_name": "cello_inner_voice_b2_1761601309616_2a1b",
    "N": 1,
    "seeds": {
      "time": 0,
      "duration": 12,
      "pitch": 49,
      "velocity": 45,
      "numerator": 3,
      "denominator": 4
    },
    "sample_counts": {
      "time": 1,
      "duration": 1,
      "pitch": 1,
      "velocity": 1,
      "numerator": 1,
      "denominator": 1
    }
  },
  {
    "action": "execute_pt",
    "unit": "001",
    "bar_index": 17,
    "pt_name": "double_bass_roots_b2_1761601309616_7a61",
    "N": 1,
    "seeds": {
      "time": 0,
      "duration": 12,
      "pitch": 32,
      "velocity": 43,
      "numerator": 3,
      "denominator": 4
    },
    "sample_counts": {
      "time": 1,
      "duration": 1,
      "pitch": 1,
      "velocity": 1,
      "numerator": 1,
      "denominator": 1
    }
  },
  {
    "action": "execute_pt",
    "unit": "001",
    "bar_index": 18,
    "pt_name": "alto_flute_tacet_b1_1761601316687_df3b",
    "N": 1,
    "seeds": {
      "time": 11,
      "duration": 1,
      "pitch": 67,
      "velocity": 0,
      "numerator": 3,
      "denominator": 4
    },
    "sample_counts": {
      "time": 1,
      "duration": 1,
      "pitch": 1,
      "velocity": 1,
      "numerator": 1,
      "denominator": 1
    }
  },
  {
    "action": "execute_pt",
    "unit": "001",
    "bar_index": 18,
    "pt_name": "violin_upper_voices_b1_1761601316687_d799",
    "N": 1,
    "seeds": {
      "time": 0,
      "duration": 12,
      "pitch": 64,
      "velocity": 44,
      "numerator": 3,
      "denominator": 4
    },
    "sample_counts": {
      "time": 1,
      "duration": 1,
      "pitch": 1,
      "velocity": 1,
      "numerator": 1,
      "denominator": 1
    }
  },
  {
    "action": "execute_pt",
    "unit": "001",
    "bar_index": 18,
    "pt_name": "bass_clarinet_tacet_b1_1761601316687_c7f1",
    "N": 1,
    "seeds": {
      "time": 11,
      "duration": 1,
      "pitch": 58,
      "velocity": 0,
      "numerator": 3,
      "denominator": 4
    },
    "sample_counts": {
      "time": 1,
      "duration": 1,
      "pitch": 1,
      "velocity": 1,
      "numerator": 1,
      "denominator": 1
    }
  },
  {
    "action": "execute_pt",
    "unit": "001",
    "bar_index": 18,
    "pt_name": "trumpet_tacet_b1_1761601316687_3bcc",
    "N": 1,
    "seeds": {
      "time": 11,
      "duration": 1,
      "pitch": 72,
      "velocity": 0,
      "numerator": 3,
      "denominator": 4
    },
    "sample_counts": {
      "time": 1,
      "duration": 1,
      "pitch": 1,
      "velocity": 1,
      "numerator": 1,
      "denominator": 1
    }
  },
  {
    "action": "execute_pt",
    "unit": "001",
    "bar_index": 18,
    "pt_name": "cello_inner_voice_b1_1761601316687_0b8d",
    "N": 1,
    "seeds": {
      "time": 0,
      "duration": 12,
      "pitch": 48,
      "velocity": 43,
      "numerator": 3,
      "denominator": 4
    },
    "sample_counts": {
      "time": 1,
      "duration": 1,
      "pitch": 1,
      "velocity": 1,
      "numerator": 1,
      "denominator": 1
    }
  },
  {
    "action": "execute_pt",
    "unit": "001",
    "bar_index": 18,
    "pt_name": "double_bass_roots_b1_1761601316687_68da",
    "N": 1,
    "seeds": {
      "time": 0,
      "duration": 12,
      "pitch": 31,
      "velocity": 41,
      "numerator": 3,
      "denominator": 4
    },
    "sample_counts": {
      "time": 1,
      "duration": 1,
      "pitch": 1,
      "velocity": 1,
      "numerator": 1,
      "denominator": 1
    }
  },
  {
    "action": "execute_pt",
    "unit": "002",
    "bar_index": 1,
    "pt_name": "alto_flute_winds_harmony_b13_1761601641534_2ec5",
    "N": 2,
    "seeds": {
      "time": 0,
      "duration": 4,
      "pitch": 76,
      "velocity": 56,
      "numerator": 3,
      "denominator": 4
    },
    "sample_counts": {
      "time": 2,
      "duration": 2,
      "pitch": 2,
      "velocity": 2,
      "numerator": 2,
      "denominator": 2
    }
  },
  {
    "action": "execute_pt",
    "unit": "002",
    "bar_index": 1,
    "pt_name": "bass_clarinet_winds_harmony_b13_1761601641534_fdc1",
    "N": 2,
    "seeds": {
      "time": 0,
      "duration": 4,
      "pitch": 55,
      "velocity": 48,
      "numerator": 3,
      "denominator": 4
    },
    "sample_counts": {
      "time": 2,
      "duration": 2,
      "pitch": 2,
      "velocity": 2,
      "numerator": 2,
      "denominator": 2
    }
  },
  {
    "action": "execute_pt",
    "unit": "002",
    "bar_index": 1,
    "pt_name": "trumpet_winds_harmony_b13_1761601641534_8c15",
    "N": 2,
    "seeds": {
      "time": 0,
      "duration": 4,
      "pitch": 71,
      "velocity": 58,
      "numerator": 3,
      "denominator": 4
    },
    "sample_counts": {
      "time": 2,
      "duration": 2,
      "pitch": 2,
      "velocity": 2,
      "numerator": 2,
      "denominator": 2
    }
  },
  {
    "action": "execute_pt",
    "unit": "002",
    "bar_index": 1,
    "pt_name": "violin_strings_repeat_b13_1761601641534_8f1a",
    "N": 1,
    "seeds": {
      "time": 0,
      "duration": 12,
      "pitch": 64,
      "velocity": 42,
      "numerator": 3,
      "denominator": 4
    },
    "sample_counts": {
      "time": 1,
      "duration": 1,
      "pitch": 1,
      "velocity": 1,
      "numerator": 1,
      "denominator": 1
    }
  },
  {
    "action": "execute_pt",
    "unit": "002",
    "bar_index": 1,
    "pt_name": "cello_strings_repeat_b13_1761601641534_893f",
    "N": 1,
    "seeds": {
      "time": 0,
      "duration": 12,
      "pitch": 48,
      "velocity": 41,
      "numerator": 3,
      "denominator": 4
    },
    "sample_counts": {
      "time": 1,
      "duration": 1,
      "pitch": 1,
      "velocity": 1,
      "numerator": 1,
      "denominator": 1
    }
  },
  {
    "action": "execute_pt",
    "unit": "002",
    "bar_index": 1,
    "pt_name": "double_bass_strings_repeat_b13_1761601641534_43e3",
    "N": 1,
    "seeds": {
      "time": 0,
      "duration": 12,
      "pitch": 31,
      "velocity": 39,
      "numerator": 3,
      "denominator": 4
    },
    "sample_counts": {
      "time": 1,
      "duration": 1,
      "pitch": 1,
      "velocity": 1,
      "numerator": 1,
      "denominator": 1
    }
  },
  {
    "action": "execute_pt",
    "unit": "002",
    "bar_index": 2,
    "pt_name": "alto_flute_winds_harmony_b14_1761601649161_478c",
    "N": 2,
    "seeds": {
      "time": 0,
      "duration": 8,
      "pitch": 77,
      "velocity": 57,
      "numerator": 3,
      "denominator": 4
    },
    "sample_counts": {
      "time": 2,
      "duration": 2,
      "pitch": 2,
      "velocity": 2,
      "numerator": 2,
      "denominator": 2
    }
  },
  {
    "action": "execute_pt",
    "unit": "002",
    "bar_index": 2,
    "pt_name": "bass_clarinet_winds_harmony_b14_1761601649161_51b0",
    "N": 2,
    "seeds": {
      "time": 0,
      "duration": 8,
      "pitch": 57,
      "velocity": 49,
      "numerator": 3,
      "denominator": 4
    },
    "sample_counts": {
      "time": 2,
      "duration": 2,
      "pitch": 2,
      "velocity": 2,
      "numerator": 2,
      "denominator": 2
    }
  },
  {
    "action": "execute_pt",
    "unit": "002",
    "bar_index": 2,
    "pt_name": "trumpet_winds_harmony_b14_1761601649161_8d23",
    "N": 2,
    "seeds": {
      "time": 0,
      "duration": 8,
      "pitch": 72,
      "velocity": 59,
      "numerator": 3,
      "denominator": 4
    },
    "sample_counts": {
      "time": 2,
      "duration": 2,
      "pitch": 2,
      "velocity": 2,
      "numerator": 2,
      "denominator": 2
    }
  },
  {
    "action": "execute_pt",
    "unit": "002",
    "bar_index": 2,
    "pt_name": "violin_strings_repeat_b14_1761601649161_e20a",
    "N": 2,
    "seeds": {
      "time": 0,
      "duration": 8,
      "pitch": 65,
      "velocity": 43,
      "numerator": 3,
      "denominator": 4
    },
    "sample_counts": {
      "time": 2,
      "duration": 2,
      "pitch": 2,
      "velocity": 2,
      "numerator": 2,
      "denominator": 2
    }
  },
  {
    "action": "execute_pt",
    "unit": "002",
    "bar_index": 2,
    "pt_name": "cello_strings_repeat_b14_1761601649161_9fdb",
    "N": 2,
    "seeds": {
      "time": 0,
      "duration": 8,
      "pitch": 49,
      "velocity": 42,
      "numerator": 3,
      "denominator": 4
    },
    "sample_counts": {
      "time": 2,
      "duration": 2,
      "pitch": 2,
      "velocity": 2,
      "numerator": 2,
      "denominator": 2
    }
  },
  {
    "action": "execute_pt",
    "unit": "002",
    "bar_index": 2,
    "pt_name": "double_bass_strings_repeat_b14_1761601649161_6aa6",
    "N": 2,
    "seeds": {
      "time": 0,
      "duration": 8,
      "pitch": 32,
      "velocity": 40,
      "numerator": 3,
      "denominator": 4
    },
    "sample_counts": {
      "time": 2,
      "duration": 2,
      "pitch": 2,
      "velocity": 2,
      "numerator": 2,
      "denominator": 2
    }
  },
  {
    "action": "execute_pt",
    "unit": "002",
    "bar_index": 3,
    "pt_name": "alto_flute_winds_harmony_b15_1761601661398_0053",
    "N": 1,
    "seeds": {
      "time": 0,
      "duration": 12,
      "pitch": 79,
      "velocity": 58,
      "numerator": 3,
      "denominator": 4
    },
    "sample_counts": {
      "time": 1,
      "duration": 1,
      "pitch": 1,
      "velocity": 1,
      "numerator": 1,
      "denominator": 1
    }
  },
  {
    "action": "execute_pt",
    "unit": "002",
    "bar_index": 3,
    "pt_name": "bass_clarinet_winds_harmony_b15_1761601661398_5941",
    "N": 1,
    "seeds": {
      "time": 0,
      "duration": 12,
      "pitch": 58,
      "velocity": 50,
      "numerator": 3,
      "denominator": 4
    },
    "sample_counts": {
      "time": 1,
      "duration": 1,
      "pitch": 1,
      "velocity": 1,
      "numerator": 1,
      "denominator": 1
    }
  },
  {
    "action": "execute_pt",
    "unit": "002",
    "bar_index": 3,
    "pt_name": "trumpet_winds_harmony_b15_1761601661398_763b",
    "N": 1,
    "seeds": {
      "time": 0,
      "duration": 12,
      "pitch": 74,
      "velocity": 60,
      "numerator": 3,
      "denominator": 4
    },
    "sample_counts": {
      "time": 1,
      "duration": 1,
      "pitch": 1,
      "velocity": 1,
      "numerator": 1,
      "denominator": 1
    }
  },
  {
    "action": "execute_pt",
    "unit": "002",
    "bar_index": 3,
    "pt_name": "violin_strings_repeat_b15_1761601661398_83b6",
    "N": 1,
    "seeds": {
      "time": 0,
      "duration": 8,
      "pitch": 66,
      "velocity": 44,
      "numerator": 3,
      "denominator": 4
    },
    "sample_counts": {
      "time": 1,
      "duration": 1,
      "pitch": 1,
      "velocity": 1,
      "numerator": 1,
      "denominator": 1
    }
  },
  {
    "action": "execute_pt",
    "unit": "002",
    "bar_index": 3,
    "pt_name": "cello_strings_repeat_b15_1761601661398_7a95",
    "N": 1,
    "seeds": {
      "time": 0,
      "duration": 8,
      "pitch": 50,
      "velocity": 43,
      "numerator": 3,
      "denominator": 4
    },
    "sample_counts": {
      "time": 1,
      "duration": 1,
      "pitch": 1,
      "velocity": 1,
      "numerator": 1,
      "denominator": 1
    }
  },
  {
    "action": "execute_pt",
    "unit": "002",
    "bar_index": 3,
    "pt_name": "double_bass_strings_repeat_b15_1761601661398_3c05",
    "N": 1,
    "seeds": {
      "time": 0,
      "duration": 8,
      "pitch": 33,
      "velocity": 40,
      "numerator": 3,
      "denominator": 4
    },
    "sample_counts": {
      "time": 1,
      "duration": 1,
      "pitch": 1,
      "velocity": 1,
      "numerator": 1,
      "denominator": 1
    }
  },
  {
    "action": "execute_pt",
    "unit": "002",
    "bar_index": 4,
    "pt_name": "alto_flute_winds_harmony_b16_1761601669028_17c8",
    "N": 1,
    "seeds": {
      "time": 0,
      "duration": 8,
      "pitch": 76,
      "velocity": 57,
      "numerator": 3,
      "denominator": 4
    },
    "sample_counts": {
      "time": 1,
      "duration": 1,
      "pitch": 1,
      "velocity": 1,
      "numerator": 1,
      "denominator": 1
    }
  },
  {
    "action": "execute_pt",
    "unit": "002",
    "bar_index": 4,
    "pt_name": "bass_clarinet_winds_harmony_b16_1761601669028_3fb7",
    "N": 1,
    "seeds": {
      "time": 0,
      "duration": 8,
      "pitch": 59,
      "velocity": 49,
      "numerator": 3,
      "denominator": 4
    },
    "sample_counts": {
      "time": 1,
      "duration": 1,
      "pitch": 1,
      "velocity": 1,
      "numerator": 1,
      "denominator": 1
    }
  },
  {
    "action": "execute_pt",
    "unit": "002",
    "bar_index": 4,
    "pt_name": "trumpet_winds_harmony_b16_1761601669028_5afc",
    "N": 1,
    "seeds": {
      "time": 0,
      "duration": 8,
      "pitch": 72,
      "velocity": 59,
      "numerator": 3,
      "denominator": 4
    },
    "sample_counts": {
      "time": 1,
      "duration": 1,
      "pitch": 1,
      "velocity": 1,
      "numerator": 1,
      "denominator": 1
    }
  },
  {
    "action": "execute_pt",
    "unit": "002",
    "bar_index": 4,
    "pt_name": "violin_strings_repeat_b16_1761601669028_936f",
    "N": 2,
    "seeds": {
      "time": 0,
      "duration": 4,
      "pitch": 67,
      "velocity": 45,
      "numerator": 3,
      "denominator": 4
    },
    "sample_counts": {
      "time": 2,
      "duration": 2,
      "pitch": 2,
      "velocity": 2,
      "numerator": 2,
      "denominator": 2
    }
  },
  {
    "action": "execute_pt",
    "unit": "002",
    "bar_index": 4,
    "pt_name": "cello_strings_repeat_b16_1761601669028_a68b",
    "N": 2,
    "seeds": {
      "time": 0,
      "duration": 4,
      "pitch": 51,
      "velocity": 44,
      "numerator": 3,
      "denominator": 4
    },
    "sample_counts": {
      "time": 2,
      "duration": 2,
      "pitch": 2,
      "velocity": 2,
      "numerator": 2,
      "denominator": 2
    }
  },
  {
    "action": "execute_pt",
    "unit": "002",
    "bar_index": 4,
    "pt_name": "double_bass_strings_repeat_b16_1761601669028_027a",
    "N": 2,
    "seeds": {
      "time": 0,
      "duration": 4,
      "pitch": 34,
      "velocity": 41,
      "numerator": 3,
      "denominator": 4
    },
    "sample_counts": {
      "time": 2,
      "duration": 2,
      "pitch": 2,
      "velocity": 2,
      "numerator": 2,
      "denominator": 2
    }
  },
  {
    "action": "execute_pt",
    "unit": "002",
    "bar_index": 5,
    "pt_name": "alto_flute_winds_harmony_b17_1761601676153_a1d5",
    "N": 1,
    "seeds": {
      "time": 4,
      "duration": 8,
      "pitch": 74,
      "velocity": 56,
      "numerator": 3,
      "denominator": 4
    },
    "sample_counts": {
      "time": 1,
      "duration": 1,
      "pitch": 1,
      "velocity": 1,
      "numerator": 1,
      "denominator": 1
    }
  },
  {
    "action": "execute_pt",
    "unit": "002",
    "bar_index": 5,
    "pt_name": "bass_clarinet_winds_harmony_b17_1761601676153_c391",
    "N": 1,
    "seeds": {
      "time": 4,
      "duration": 8,
      "pitch": 57,
      "velocity": 48,
      "numerator": 3,
      "denominator": 4
    },
    "sample_counts": {
      "time": 1,
      "duration": 1,
      "pitch": 1,
      "velocity": 1,
      "numerator": 1,
      "denominator": 1
    }
  },
  {
    "action": "execute_pt",
    "unit": "002",
    "bar_index": 5,
    "pt_name": "trumpet_winds_harmony_b17_1761601676153_261b",
    "N": 1,
    "seeds": {
      "time": 4,
      "duration": 8,
      "pitch": 71,
      "velocity": 58,
      "numerator": 3,
      "denominator": 4
    },
    "sample_counts": {
      "time": 1,
      "duration": 1,
      "pitch": 1,
      "velocity": 1,
      "numerator": 1,
      "denominator": 1
    }
  },
  {
    "action": "execute_pt",
    "unit": "002",
    "bar_index": 5,
    "pt_name": "violin_strings_repeat_b17_1761601676153_afd8",
    "N": 1,
    "seeds": {
      "time": 4,
      "duration": 8,
      "pitch": 69,
      "velocity": 46,
      "numerator": 3,
      "denominator": 4
    },
    "sample_counts": {
      "time": 1,
      "duration": 1,
      "pitch": 1,
      "velocity": 1,
      "numerator": 1,
      "denominator": 1
    }
  },
  {
    "action": "execute_pt",
    "unit": "002",
    "bar_index": 5,
    "pt_name": "cello_strings_repeat_b17_1761601676153_25f8",
    "N": 1,
    "seeds": {
      "time": 4,
      "duration": 8,
      "pitch": 52,
      "velocity": 45,
      "numerator": 3,
      "denominator": 4
    },
    "sample_counts": {
      "time": 1,
      "duration": 1,
      "pitch": 1,
      "velocity": 1,
      "numerator": 1,
      "denominator": 1
    }
  },
  {
    "action": "execute_pt",
    "unit": "002",
    "bar_index": 5,
    "pt_name": "double_bass_strings_repeat_b17_1761601676153_f774",
    "N": 1,
    "seeds": {
      "time": 4,
      "duration": 8,
      "pitch": 35,
      "velocity": 42,
      "numerator": 3,
      "denominator": 4
    },
    "sample_counts": {
      "time": 1,
      "duration": 1,
      "pitch": 1,
      "velocity": 1,
      "numerator": 1,
      "denominator": 1
    }
  },
  {
    "action": "execute_pt",
    "unit": "002",
    "bar_index": 6,
    "pt_name": "alto_flute_winds_harmony_b18_1761601683158_a620",
    "N": 2,
    "seeds": {
      "time": 0,
      "duration": 4,
      "pitch": 74,
      "velocity": 55,
      "numerator": 3,
      "denominator": 4
    },
    "sample_counts": {
      "time": 2,
      "duration": 2,
      "pitch": 2,
      "velocity": 2,
      "numerator": 2,
      "denominator": 2
    }
  },
  {
    "action": "execute_pt",
    "unit": "002",
    "bar_index": 6,
    "pt_name": "bass_clarinet_winds_harmony_b18_1761601683158_fe21",
    "N": 2,
    "seeds": {
      "time": 0,
      "duration": 4,
      "pitch": 60,
      "velocity": 50,
      "numerator": 3,
      "denominator": 4
    },
    "sample_counts": {
      "time": 2,
      "duration": 2,
      "pitch": 2,
      "velocity": 2,
      "numerator": 2,
      "denominator": 2
    }
  },
  {
    "action": "execute_pt",
    "unit": "002",
    "bar_index": 6,
    "pt_name": "trumpet_winds_harmony_b18_1761601683158_d424",
    "N": 2,
    "seeds": {
      "time": 0,
      "duration": 4,
      "pitch": 67,
      "velocity": 61,
      "numerator": 3,
      "denominator": 4
    },
    "sample_counts": {
      "time": 2,
      "duration": 2,
      "pitch": 2,
      "velocity": 2,
      "numerator": 2,
      "denominator": 2
    }
  },
  {
    "action": "execute_pt",
    "unit": "002",
    "bar_index": 6,
    "pt_name": "violin_strings_repeat_b18_1761601683158_f8c8",
    "N": 1,
    "seeds": {
      "time": 0,
      "duration": 12,
      "pitch": 62,
      "velocity": 47,
      "numerator": 3,
      "denominator": 4
    },
    "sample_counts": {
      "time": 1,
      "duration": 1,
      "pitch": 1,
      "velocity": 1,
      "numerator": 1,
      "denominator": 1
    }
  },
  {
    "action": "execute_pt",
    "unit": "002",
    "bar_index": 6,
    "pt_name": "cello_strings_repeat_b18_1761601683158_f62a",
    "N": 1,
    "seeds": {
      "time": 0,
      "duration": 12,
      "pitch": 53,
      "velocity": 46,
      "numerator": 3,
      "denominator": 4
    },
    "sample_counts": {
      "time": 1,
      "duration": 1,
      "pitch": 1,
      "velocity": 1,
      "numerator": 1,
      "denominator": 1
    }
  },
  {
    "action": "execute_pt",
    "unit": "002",
    "bar_index": 6,
    "pt_name": "double_bass_strings_repeat_b18_1761601683158_5252",
    "N": 1,
    "seeds": {
      "time": 0,
      "duration": 12,
      "pitch": 36,
      "velocity": 44,
      "numerator": 3,
      "denominator": 4
    },
    "sample_counts": {
      "time": 1,
      "duration": 1,
      "pitch": 1,
      "velocity": 1,
      "numerator": 1,
      "denominator": 1
    }
  },
  {
    "action": "execute_pt",
    "unit": "002",
    "bar_index": 7,
    "pt_name": "alto_flute_winds_harmony_b19_1761601691184_86e9",
    "N": 2,
    "seeds": {
      "time": 0,
      "duration": 8,
      "pitch": 76,
      "velocity": 56,
      "numerator": 3,
      "denominator": 4
    },
    "sample_counts": {
      "time": 2,
      "duration": 2,
      "pitch": 2,
      "velocity": 2,
      "numerator": 2,
      "denominator": 2
    }
  },
  {
    "action": "execute_pt",
    "unit": "002",
    "bar_index": 7,
    "pt_name": "bass_clarinet_winds_harmony_b19_1761601691184_bf86",
    "N": 2,
    "seeds": {
      "time": 0,
      "duration": 8,
      "pitch": 62,
      "velocity": 51,
      "numerator": 3,
      "denominator": 4
    },
    "sample_counts": {
      "time": 2,
      "duration": 2,
      "pitch": 2,
      "velocity": 2,
      "numerator": 2,
      "denominator": 2
    }
  },
  {
    "action": "execute_pt",
    "unit": "002",
    "bar_index": 7,
    "pt_name": "trumpet_winds_harmony_b19_1761601691184_39dc",
    "N": 2,
    "seeds": {
      "time": 0,
      "duration": 8,
      "pitch": 72,
      "velocity": 60,
      "numerator": 3,
      "denominator": 4
    },
    "sample_counts": {
      "time": 2,
      "duration": 2,
      "pitch": 2,
      "velocity": 2,
      "numerator": 2,
      "denominator": 2
    }
  },
  {
    "action": "execute_pt",
    "unit": "002",
    "bar_index": 7,
    "pt_name": "violin_strings_repeat_b19_1761601691184_f916",
    "N": 2,
    "seeds": {
      "time": 0,
      "duration": 8,
      "pitch": 71,
      "velocity": 48,
      "numerator": 3,
      "denominator": 4
    },
    "sample_counts": {
      "time": 2,
      "duration": 2,
      "pitch": 2,
      "velocity": 2,
      "numerator": 2,
      "denominator": 2
    }
  },
  {
    "action": "execute_pt",
    "unit": "002",
    "bar_index": 7,
    "pt_name": "cello_strings_repeat_b19_1761601691184_c8ef",
    "N": 2,
    "seeds": {
      "time": 0,
      "duration": 8,
      "pitch": 55,
      "velocity": 47,
      "numerator": 3,
      "denominator": 4
    },
    "sample_counts": {
      "time": 2,
      "duration": 2,
      "pitch": 2,
      "velocity": 2,
      "numerator": 2,
      "denominator": 2
    }
  },
  {
    "action": "execute_pt",
    "unit": "002",
    "bar_index": 7,
    "pt_name": "double_bass_strings_repeat_b19_1761601691184_d2d3",
    "N": 2,
    "seeds": {
      "time": 0,
      "duration": 8,
      "pitch": 37,
      "velocity": 45,
      "numerator": 3,
      "denominator": 4
    },
    "sample_counts": {
      "time": 2,
      "duration": 2,
      "pitch": 2,
      "velocity": 2,
      "numerator": 2,
      "denominator": 2
    }
  },
  {
    "action": "execute_pt",
    "unit": "002",
    "bar_index": 8,
    "pt_name": "alto_flute_winds_harmony_b20_1761601699023_6e16",
    "N": 1,
    "seeds": {
      "time": 0,
      "duration": 12,
      "pitch": 78,
      "velocity": 57,
      "numerator": 3,
      "denominator": 4
    },
    "sample_counts": {
      "time": 1,
      "duration": 1,
      "pitch": 1,
      "velocity": 1,
      "numerator": 1,
      "denominator": 1
    }
  },
  {
    "action": "execute_pt",
    "unit": "002",
    "bar_index": 8,
    "pt_name": "bass_clarinet_winds_harmony_b20_1761601699023_8e9d",
    "N": 1,
    "seeds": {
      "time": 0,
      "duration": 12,
      "pitch": 61,
      "velocity": 52,
      "numerator": 3,
      "denominator": 4
    },
    "sample_counts": {
      "time": 1,
      "duration": 1,
      "pitch": 1,
      "velocity": 1,
      "numerator": 1,
      "denominator": 1
    }
  },
  {
    "action": "execute_pt",
    "unit": "002",
    "bar_index": 8,
    "pt_name": "trumpet_winds_harmony_b20_1761601699023_0c0c",
    "N": 1,
    "seeds": {
      "time": 0,
      "duration": 12,
      "pitch": 73,
      "velocity": 61,
      "numerator": 3,
      "denominator": 4
    },
    "sample_counts": {
      "time": 1,
      "duration": 1,
      "pitch": 1,
      "velocity": 1,
      "numerator": 1,
      "denominator": 1
    }
  },
  {
    "action": "execute_pt",
    "unit": "002",
    "bar_index": 8,
    "pt_name": "violin_strings_repeat_b20_1761601699023_5bf2",
    "N": 1,
    "seeds": {
      "time": 0,
      "duration": 8,
      "pitch": 71,
      "velocity": 49,
      "numerator": 3,
      "denominator": 4
    },
    "sample_counts": {
      "time": 1,
      "duration": 1,
      "pitch": 1,
      "velocity": 1,
      "numerator": 1,
      "denominator": 1
    }
  },
  {
    "action": "execute_pt",
    "unit": "002",
    "bar_index": 8,
    "pt_name": "cello_strings_repeat_b20_1761601699023_d93a",
    "N": 1,
    "seeds": {
      "time": 0,
      "duration": 8,
      "pitch": 55,
      "velocity": 48,
      "numerator": 3,
      "denominator": 4
    },
    "sample_counts": {
      "time": 1,
      "duration": 1,
      "pitch": 1,
      "velocity": 1,
      "numerator": 1,
      "denominator": 1
    }
  },
  {
    "action": "execute_pt",
    "unit": "002",
    "bar_index": 8,
    "pt_name": "double_bass_strings_repeat_b20_1761601699023_d77b",
    "N": 1,
    "seeds": {
      "time": 0,
      "duration": 8,
      "pitch": 38,
      "velocity": 46,
      "numerator": 3,
      "denominator": 4
    },
    "sample_counts": {
      "time": 1,
      "duration": 1,
      "pitch": 1,
      "velocity": 1,
      "numerator": 1,
      "denominator": 1
    }
  },
  {
    "action": "execute_pt",
    "unit": "002",
    "bar_index": 9,
    "pt_name": "alto_flute_winds_harmony_b21_1761601706236_6cea",
    "N": 1,
    "seeds": {
      "time": 0,
      "duration": 8,
      "pitch": 76,
      "velocity": 56,
      "numerator": 3,
      "denominator": 4
    },
    "sample_counts": {
      "time": 1,
      "duration": 1,
      "pitch": 1,
      "velocity": 1,
      "numerator": 1,
      "denominator": 1
    }
  },
  {
    "action": "execute_pt",
    "unit": "002",
    "bar_index": 9,
    "pt_name": "bass_clarinet_winds_harmony_b21_1761601706236_ff20",
    "N": 1,
    "seeds": {
      "time": 0,
      "duration": 8,
      "pitch": 59,
      "velocity": 51,
      "numerator": 3,
      "denominator": 4
    },
    "sample_counts": {
      "time": 1,
      "duration": 1,
      "pitch": 1,
      "velocity": 1,
      "numerator": 1,
      "denominator": 1
    }
  },
  {
    "action": "execute_pt",
    "unit": "002",
    "bar_index": 9,
    "pt_name": "trumpet_winds_harmony_b21_1761601706236_db6c",
    "N": 1,
    "seeds": {
      "time": 0,
      "duration": 8,
      "pitch": 70,
      "velocity": 60,
      "numerator": 3,
      "denominator": 4
    },
    "sample_counts": {
      "time": 1,
      "duration": 1,
      "pitch": 1,
      "velocity": 1,
      "numerator": 1,
      "denominator": 1
    }
  },
  {
    "action": "execute_pt",
    "unit": "002",
    "bar_index": 9,
    "pt_name": "violin_strings_repeat_b21_1761601706236_c93a",
    "N": 2,
    "seeds": {
      "time": 0,
      "duration": 4,
      "pitch": 72,
      "velocity": 48,
      "numerator": 3,
      "denominator": 4
    },
    "sample_counts": {
      "time": 2,
      "duration": 2,
      "pitch": 2,
      "velocity": 2,
      "numerator": 2,
      "denominator": 2
    }
  },
  {
    "action": "execute_pt",
    "unit": "002",
    "bar_index": 9,
    "pt_name": "cello_strings_repeat_b21_1761601706236_d3ba",
    "N": 2,
    "seeds": {
      "time": 0,
      "duration": 4,
      "pitch": 56,
      "velocity": 47,
      "numerator": 3,
      "denominator": 4
    },
    "sample_counts": {
      "time": 2,
      "duration": 2,
      "pitch": 2,
      "velocity": 2,
      "numerator": 2,
      "denominator": 2
    }
  },
  {
    "action": "execute_pt",
    "unit": "002",
    "bar_index": 9,
    "pt_name": "double_bass_strings_repeat_b21_1761601706236_914d",
    "N": 2,
    "seeds": {
      "time": 0,
      "duration": 4,
      "pitch": 39,
      "velocity": 45,
      "numerator": 3,
      "denominator": 4
    },
    "sample_counts": {
      "time": 2,
      "duration": 2,
      "pitch": 2,
      "velocity": 2,
      "numerator": 2,
      "denominator": 2
    }
  },
  {
    "action": "execute_pt",
    "unit": "002",
    "bar_index": 10,
    "pt_name": "alto_flute_winds_harmony_b22_1761601713172_0a48",
    "N": 1,
    "seeds": {
      "time": 4,
      "duration": 8,
      "pitch": 74,
      "velocity": 55,
      "numerator": 3,
      "denominator": 4
    },
    "sample_counts": {
      "time": 1,
      "duration": 1,
      "pitch": 1,
      "velocity": 1,
      "numerator": 1,
      "denominator": 1
    }
  },
  {
    "action": "execute_pt",
    "unit": "002",
    "bar_index": 10,
    "pt_name": "bass_clarinet_winds_harmony_b22_1761601713172_d16e",
    "N": 1,
    "seeds": {
      "time": 4,
      "duration": 8,
      "pitch": 60,
      "velocity": 50,
      "numerator": 3,
      "denominator": 4
    },
    "sample_counts": {
      "time": 1,
      "duration": 1,
      "pitch": 1,
      "velocity": 1,
      "numerator": 1,
      "denominator": 1
    }
  },
  {
    "action": "execute_pt",
    "unit": "002",
    "bar_index": 10,
    "pt_name": "trumpet_winds_harmony_b22_1761601713172_7b44",
    "N": 1,
    "seeds": {
      "time": 4,
      "duration": 8,
      "pitch": 69,
      "velocity": 59,
      "numerator": 3,
      "denominator": 4
    },
    "sample_counts": {
      "time": 1,
      "duration": 1,
      "pitch": 1,
      "velocity": 1,
      "numerator": 1,
      "denominator": 1
    }
  },
  {
    "action": "execute_pt",
    "unit": "002",
    "bar_index": 10,
    "pt_name": "violin_strings_repeat_b22_1761601713172_7ab7",
    "N": 1,
    "seeds": {
      "time": 4,
      "duration": 8,
      "pitch": 73,
      "velocity": 47,
      "numerator": 3,
      "denominator": 4
    },
    "sample_counts": {
      "time": 1,
      "duration": 1,
      "pitch": 1,
      "velocity": 1,
      "numerator": 1,
      "denominator": 1
    }
  },
  {
    "action": "execute_pt",
    "unit": "002",
    "bar_index": 10,
    "pt_name": "cello_strings_repeat_b22_1761601713173_c4c7",
    "N": 1,
    "seeds": {
      "time": 4,
      "duration": 8,
      "pitch": 57,
      "velocity": 46,
      "numerator": 3,
      "denominator": 4
    },
    "sample_counts": {
      "time": 1,
      "duration": 1,
      "pitch": 1,
      "velocity": 1,
      "numerator": 1,
      "denominator": 1
    }
  },
  {
    "action": "execute_pt",
    "unit": "002",
    "bar_index": 10,
    "pt_name": "double_bass_strings_repeat_b22_1761601713173_444f",
    "N": 1,
    "seeds": {
      "time": 4,
      "duration": 8,
      "pitch": 40,
      "velocity": 44,
      "numerator": 3,
      "denominator": 4
    },
    "sample_counts": {
      "time": 1,
      "duration": 1,
      "pitch": 1,
      "velocity": 1,
      "numerator": 1,
      "denominator": 1
    }
  },
  {
    "action": "execute_pt",
    "unit": "002",
    "bar_index": 11,
    "pt_name": "alto_flute_winds_harmony_b23_1761601724361_8593",
    "N": 2,
    "seeds": {
      "time": 0,
      "duration": 4,
      "pitch": 77,
      "velocity": 56,
      "numerator": 3,
      "denominator": 4
    },
    "sample_counts": {
      "time": 2,
      "duration": 2,
      "pitch": 2,
      "velocity": 2,
      "numerator": 2,
      "denominator": 2
    }
  },
  {
    "action": "execute_pt",
    "unit": "002",
    "bar_index": 11,
    "pt_name": "bass_clarinet_winds_harmony_b23_1761601724361_5210",
    "N": 2,
    "seeds": {
      "time": 0,
      "duration": 4,
      "pitch": 62,
      "velocity": 51,
      "numerator": 3,
      "denominator": 4
    },
    "sample_counts": {
      "time": 2,
      "duration": 2,
      "pitch": 2,
      "velocity": 2,
      "numerator": 2,
      "denominator": 2
    }
  },
  {
    "action": "execute_pt",
    "unit": "002",
    "bar_index": 11,
    "pt_name": "trumpet_winds_harmony_b23_1761601724361_3941",
    "N": 2,
    "seeds": {
      "time": 0,
      "duration": 4,
      "pitch": 71,
      "velocity": 60,
      "numerator": 3,
      "denominator": 4
    },
    "sample_counts": {
      "time": 2,
      "duration": 2,
      "pitch": 2,
      "velocity": 2,
      "numerator": 2,
      "denominator": 2
    }
  },
  {
    "action": "execute_pt",
    "unit": "002",
    "bar_index": 11,
    "pt_name": "violin_strings_repeat_b23_1761601724361_4c37",
    "N": 2,
    "seeds": {
      "time": 0,
      "duration": 8,
      "pitch": 74,
      "velocity": 46,
      "numerator": 3,
      "denominator": 4
    },
    "sample_counts": {
      "time": 2,
      "duration": 2,
      "pitch": 2,
      "velocity": 2,
      "numerator": 2,
      "denominator": 2
    }
  },
  {
    "action": "execute_pt",
    "unit": "002",
    "bar_index": 11,
    "pt_name": "cello_strings_repeat_b23_1761601724361_7e18",
    "N": 2,
    "seeds": {
      "time": 0,
      "duration": 8,
      "pitch": 58,
      "velocity": 45,
      "numerator": 3,
      "denominator": 4
    },
    "sample_counts": {
      "time": 2,
      "duration": 2,
      "pitch": 2,
      "velocity": 2,
      "numerator": 2,
      "denominator": 2
    }
  },
  {
    "action": "execute_pt",
    "unit": "002",
    "bar_index": 11,
    "pt_name": "double_bass_strings_repeat_b23_1761601724361_e753",
    "N": 2,
    "seeds": {
      "time": 0,
      "duration": 8,
      "pitch": 41,
      "velocity": 43,
      "numerator": 3,
      "denominator": 4
    },
    "sample_counts": {
      "time": 2,
      "duration": 2,
      "pitch": 2,
      "velocity": 2,
      "numerator": 2,
      "denominator": 2
    }
  },
  {
    "action": "execute_pt",
    "unit": "002",
    "bar_index": 12,
    "pt_name": "alto_flute_winds_harmony_b24_1761601732227_93f3",
    "N": 2,
    "seeds": {
      "time": 0,
      "duration": 8,
      "pitch": 76,
      "velocity": 57,
      "numerator": 3,
      "denominator": 4
    },
    "sample_counts": {
      "time": 2,
      "duration": 2,
      "pitch": 2,
      "velocity": 2,
      "numerator": 2,
      "denominator": 2
    }
  },
  {
    "action": "execute_pt",
    "unit": "002",
    "bar_index": 12,
    "pt_name": "bass_clarinet_winds_harmony_b24_1761601732227_6848",
    "N": 2,
    "seeds": {
      "time": 0,
      "duration": 8,
      "pitch": 64,
      "velocity": 52,
      "numerator": 3,
      "denominator": 4
    },
    "sample_counts": {
      "time": 2,
      "duration": 2,
      "pitch": 2,
      "velocity": 2,
      "numerator": 2,
      "denominator": 2
    }
  },
  {
    "action": "execute_pt",
    "unit": "002",
    "bar_index": 12,
    "pt_name": "trumpet_winds_harmony_b24_1761601732227_5c04",
    "N": 2,
    "seeds": {
      "time": 0,
      "duration": 8,
      "pitch": 72,
      "velocity": 61,
      "numerator": 3,
      "denominator": 4
    },
    "sample_counts": {
      "time": 2,
      "duration": 2,
      "pitch": 2,
      "velocity": 2,
      "numerator": 2,
      "denominator": 2
    }
  },
  {
    "action": "execute_pt",
    "unit": "002",
    "bar_index": 12,
    "pt_name": "violin_strings_repeat_b24_1761601732227_4278",
    "N": 1,
    "seeds": {
      "time": 0,
      "duration": 12,
      "pitch": 75,
      "velocity": 44,
      "numerator": 3,
      "denominator": 4
    },
    "sample_counts": {
      "time": 1,
      "duration": 1,
      "pitch": 1,
      "velocity": 1,
      "numerator": 1,
      "denominator": 1
    }
  },
  {
    "action": "execute_pt",
    "unit": "002",
    "bar_index": 12,
    "pt_name": "cello_strings_repeat_b24_1761601732227_4af8",
    "N": 1,
    "seeds": {
      "time": 0,
      "duration": 12,
      "pitch": 59,
      "velocity": 43,
      "numerator": 3,
      "denominator": 4
    },
    "sample_counts": {
      "time": 1,
      "duration": 1,
      "pitch": 1,
      "velocity": 1,
      "numerator": 1,
      "denominator": 1
    }
  },
  {
    "action": "execute_pt",
    "unit": "002",
    "bar_index": 12,
    "pt_name": "double_bass_strings_repeat_b24_1761601732227_dcf4",
    "N": 1,
    "seeds": {
      "time": 0,
      "duration": 12,
      "pitch": 42,
      "velocity": 41,
      "numerator": 3,
      "denominator": 4
    },
    "sample_counts": {
      "time": 1,
      "duration": 1,
      "pitch": 1,
      "velocity": 1,
      "numerator": 1,
      "denominator": 1
    }
  },
  {
    "action": "execute_pt",
    "unit": "002",
    "bar_index": 13,
    "pt_name": "alto_flute_winds_harmony_b12_1761601739245_ac7d",
    "N": 2,
    "seeds": {
      "time": 0,
      "duration": 4,
      "pitch": 76,
      "velocity": 56,
      "numerator": 3,
      "denominator": 4
    },
    "sample_counts": {
      "time": 2,
      "duration": 2,
      "pitch": 2,
      "velocity": 2,
      "numerator": 2,
      "denominator": 2
    }
  },
  {
    "action": "execute_pt",
    "unit": "002",
    "bar_index": 13,
    "pt_name": "bass_clarinet_winds_harmony_b12_1761601739245_4bc1",
    "N": 2,
    "seeds": {
      "time": 0,
      "duration": 4,
      "pitch": 55,
      "velocity": 48,
      "numerator": 3,
      "denominator": 4
    },
    "sample_counts": {
      "time": 2,
      "duration": 2,
      "pitch": 2,
      "velocity": 2,
      "numerator": 2,
      "denominator": 2
    }
  },
  {
    "action": "execute_pt",
    "unit": "002",
    "bar_index": 13,
    "pt_name": "trumpet_winds_harmony_b12_1761601739245_439a",
    "N": 2,
    "seeds": {
      "time": 0,
      "duration": 4,
      "pitch": 71,
      "velocity": 58,
      "numerator": 3,
      "denominator": 4
    },
    "sample_counts": {
      "time": 2,
      "duration": 2,
      "pitch": 2,
      "velocity": 2,
      "numerator": 2,
      "denominator": 2
    }
  },
  {
    "action": "execute_pt",
    "unit": "002",
    "bar_index": 13,
    "pt_name": "violin_strings_repeat_b12_1761601739245_b109",
    "N": 1,
    "seeds": {
      "time": 0,
      "duration": 12,
      "pitch": 64,
      "velocity": 42,
      "numerator": 3,
      "denominator": 4
    },
    "sample_counts": {
      "time": 1,
      "duration": 1,
      "pitch": 1,
      "velocity": 1,
      "numerator": 1,
      "denominator": 1
    }
  },
  {
    "action": "execute_pt",
    "unit": "002",
    "bar_index": 13,
    "pt_name": "cello_strings_repeat_b12_1761601739245_e4d2",
    "N": 1,
    "seeds": {
      "time": 0,
      "duration": 12,
      "pitch": 48,
      "velocity": 41,
      "numerator": 3,
      "denominator": 4
    },
    "sample_counts": {
      "time": 1,
      "duration": 1,
      "pitch": 1,
      "velocity": 1,
      "numerator": 1,
      "denominator": 1
    }
  },
  {
    "action": "execute_pt",
    "unit": "002",
    "bar_index": 13,
    "pt_name": "double_bass_strings_repeat_b12_1761601739245_e28d",
    "N": 1,
    "seeds": {
      "time": 0,
      "duration": 12,
      "pitch": 31,
      "velocity": 39,
      "numerator": 3,
      "denominator": 4
    },
    "sample_counts": {
      "time": 1,
      "duration": 1,
      "pitch": 1,
      "velocity": 1,
      "numerator": 1,
      "denominator": 1
    }
  },
  {
    "action": "execute_pt",
    "unit": "002",
    "bar_index": 14,
    "pt_name": "alto_flute_winds_harmony_b18_1761601746272_fc8b",
    "N": 1,
    "seeds": {
      "time": 0,
      "duration": 12,
      "pitch": 78,
      "velocity": 57,
      "numerator": 3,
      "denominator": 4
    },
    "sample_counts": {
      "time": 1,
      "duration": 1,
      "pitch": 1,
      "velocity": 1,
      "numerator": 1,
      "denominator": 1
    }
  },
  {
    "action": "execute_pt",
    "unit": "002",
    "bar_index": 14,
    "pt_name": "bass_clarinet_winds_harmony_b18_1761601746272_985b",
    "N": 1,
    "seeds": {
      "time": 0,
      "duration": 12,
      "pitch": 61,
      "velocity": 52,
      "numerator": 3,
      "denominator": 4
    },
    "sample_counts": {
      "time": 1,
      "duration": 1,
      "pitch": 1,
      "velocity": 1,
      "numerator": 1,
      "denominator": 1
    }
  },
  {
    "action": "execute_pt",
    "unit": "002",
    "bar_index": 14,
    "pt_name": "trumpet_winds_harmony_b18_1761601746272_3cb9",
    "N": 1,
    "seeds": {
      "time": 0,
      "duration": 12,
      "pitch": 73,
      "velocity": 61,
      "numerator": 3,
      "denominator": 4
    },
    "sample_counts": {
      "time": 1,
      "duration": 1,
      "pitch": 1,
      "velocity": 1,
      "numerator": 1,
      "denominator": 1
    }
  },
  {
    "action": "execute_pt",
    "unit": "002",
    "bar_index": 14,
    "pt_name": "violin_strings_repeat_b18_1761601746272_8498",
    "N": 1,
    "seeds": {
      "time": 0,
      "duration": 12,
      "pitch": 62,
      "velocity": 47,
      "numerator": 3,
      "denominator": 4
    },
    "sample_counts": {
      "time": 1,
      "duration": 1,
      "pitch": 1,
      "velocity": 1,
      "numerator": 1,
      "denominator": 1
    }
  },
  {
    "action": "execute_pt",
    "unit": "002",
    "bar_index": 14,
    "pt_name": "cello_strings_repeat_b18_1761601746272_53ca",
    "N": 1,
    "seeds": {
      "time": 0,
      "duration": 12,
      "pitch": 53,
      "velocity": 46,
      "numerator": 3,
      "denominator": 4
    },
    "sample_counts": {
      "time": 1,
      "duration": 1,
      "pitch": 1,
      "velocity": 1,
      "numerator": 1,
      "denominator": 1
    }
  },
  {
    "action": "execute_pt",
    "unit": "002",
    "bar_index": 14,
    "pt_name": "double_bass_strings_repeat_b18_1761601746272_34fe",
    "N": 1,
    "seeds": {
      "time": 0,
      "duration": 12,
      "pitch": 36,
      "velocity": 44,
      "numerator": 3,
      "denominator": 4
    },
    "sample_counts": {
      "time": 1,
      "duration": 1,
      "pitch": 1,
      "velocity": 1,
      "numerator": 1,
      "denominator": 1
    }
  },
  {
    "action": "execute_pt",
    "unit": "002",
    "bar_index": 15,
    "pt_name": "alto_flute_winds_harmony_b19_1761601753160_48fb",
    "N": 1,
    "seeds": {
      "time": 0,
      "duration": 12,
      "pitch": 79,
      "velocity": 58,
      "numerator": 3,
      "denominator": 4
    },
    "sample_counts": {
      "time": 1,
      "duration": 1,
      "pitch": 1,
      "velocity": 1,
      "numerator": 1,
      "denominator": 1
    }
  },
  {
    "action": "execute_pt",
    "unit": "002",
    "bar_index": 15,
    "pt_name": "bass_clarinet_winds_harmony_b19_1761601753160_6e49",
    "N": 1,
    "seeds": {
      "time": 0,
      "duration": 12,
      "pitch": 58,
      "velocity": 50,
      "numerator": 3,
      "denominator": 4
    },
    "sample_counts": {
      "time": 1,
      "duration": 1,
      "pitch": 1,
      "velocity": 1,
      "numerator": 1,
      "denominator": 1
    }
  },
  {
    "action": "execute_pt",
    "unit": "002",
    "bar_index": 15,
    "pt_name": "trumpet_winds_harmony_b19_1761601753160_fda6",
    "N": 1,
    "seeds": {
      "time": 0,
      "duration": 12,
      "pitch": 74,
      "velocity": 60,
      "numerator": 3,
      "denominator": 4
    },
    "sample_counts": {
      "time": 1,
      "duration": 1,
      "pitch": 1,
      "velocity": 1,
      "numerator": 1,
      "denominator": 1
    }
  },
  {
    "action": "execute_pt",
    "unit": "002",
    "bar_index": 15,
    "pt_name": "violin_strings_repeat_b19_1761601753160_8f17",
    "N": 2,
    "seeds": {
      "time": 0,
      "duration": 8,
      "pitch": 71,
      "velocity": 48,
      "numerator": 3,
      "denominator": 4
    },
    "sample_counts": {
      "time": 2,
      "duration": 2,
      "pitch": 2,
      "velocity": 2,
      "numerator": 2,
      "denominator": 2
    }
  },
  {
    "action": "execute_pt",
    "unit": "002",
    "bar_index": 15,
    "pt_name": "cello_strings_repeat_b19_1761601753160_6b52",
    "N": 2,
    "seeds": {
      "time": 0,
      "duration": 8,
      "pitch": 55,
      "velocity": 47,
      "numerator": 3,
      "denominator": 4
    },
    "sample_counts": {
      "time": 2,
      "duration": 2,
      "pitch": 2,
      "velocity": 2,
      "numerator": 2,
      "denominator": 2
    }
  },
  {
    "action": "execute_pt",
    "unit": "002",
    "bar_index": 15,
    "pt_name": "double_bass_strings_repeat_b19_1761601753160_60d9",
    "N": 2,
    "seeds": {
      "time": 0,
      "duration": 8,
      "pitch": 37,
      "velocity": 45,
      "numerator": 3,
      "denominator": 4
    },
    "sample_counts": {
      "time": 2,
      "duration": 2,
      "pitch": 2,
      "velocity": 2,
      "numerator": 2,
      "denominator": 2
    }
  },
  {
    "action": "execute_pt",
    "unit": "002",
    "bar_index": 16,
    "pt_name": "alto_flute_winds_harmony_b20_1761601760304_45a1",
    "N": 1,
    "seeds": {
      "time": 0,
      "duration": 8,
      "pitch": 76,
      "velocity": 56,
      "numerator": 3,
      "denominator": 4
    },
    "sample_counts": {
      "time": 1,
      "duration": 1,
      "pitch": 1,
      "velocity": 1,
      "numerator": 1,
      "denominator": 1
    }
  },
  {
    "action": "execute_pt",
    "unit": "002",
    "bar_index": 16,
    "pt_name": "bass_clarinet_winds_harmony_b20_1761601760304_1b82",
    "N": 1,
    "seeds": {
      "time": 0,
      "duration": 8,
      "pitch": 59,
      "velocity": 51,
      "numerator": 3,
      "denominator": 4
    },
    "sample_counts": {
      "time": 1,
      "duration": 1,
      "pitch": 1,
      "velocity": 1,
      "numerator": 1,
      "denominator": 1
    }
  },
  {
    "action": "execute_pt",
    "unit": "002",
    "bar_index": 16,
    "pt_name": "trumpet_winds_harmony_b20_1761601760304_f7e4",
    "N": 1,
    "seeds": {
      "time": 0,
      "duration": 8,
      "pitch": 70,
      "velocity": 60,
      "numerator": 3,
      "denominator": 4
    },
    "sample_counts": {
      "time": 1,
      "duration": 1,
      "pitch": 1,
      "velocity": 1,
      "numerator": 1,
      "denominator": 1
    }
  },
  {
    "action": "execute_pt",
    "unit": "002",
    "bar_index": 16,
    "pt_name": "violin_strings_repeat_b20_1761601760304_b103",
    "N": 1,
    "seeds": {
      "time": 0,
      "duration": 8,
      "pitch": 71,
      "velocity": 49,
      "numerator": 3,
      "denominator": 4
    },
    "sample_counts": {
      "time": 1,
      "duration": 1,
      "pitch": 1,
      "velocity": 1,
      "numerator": 1,
      "denominator": 1
    }
  },
  {
    "action": "execute_pt",
    "unit": "002",
    "bar_index": 16,
    "pt_name": "cello_strings_repeat_b20_1761601760304_b275",
    "N": 1,
    "seeds": {
      "time": 0,
      "duration": 8,
      "pitch": 55,
      "velocity": 48,
      "numerator": 3,
      "denominator": 4
    },
    "sample_counts": {
      "time": 1,
      "duration": 1,
      "pitch": 1,
      "velocity": 1,
      "numerator": 1,
      "denominator": 1
    }
  },
  {
    "action": "execute_pt",
    "unit": "002",
    "bar_index": 16,
    "pt_name": "double_bass_strings_repeat_b20_1761601760304_57c1",
    "N": 1,
    "seeds": {
      "time": 0,
      "duration": 8,
      "pitch": 38,
      "velocity": 46,
      "numerator": 3,
      "denominator": 4
    },
    "sample_counts": {
      "time": 1,
      "duration": 1,
      "pitch": 1,
      "velocity": 1,
      "numerator": 1,
      "denominator": 1
    }
  },
  {
    "action": "execute_pt",
    "unit": "002",
    "bar_index": 17,
    "pt_name": "alto_flute_winds_harmony_b21_1761601767287_fa5c",
    "N": 1,
    "seeds": {
      "time": 4,
      "duration": 8,
      "pitch": 74,
      "velocity": 55,
      "numerator": 3,
      "denominator": 4
    },
    "sample_counts": {
      "time": 1,
      "duration": 1,
      "pitch": 1,
      "velocity": 1,
      "numerator": 1,
      "denominator": 1
    }
  },
  {
    "action": "execute_pt",
    "unit": "002",
    "bar_index": 17,
    "pt_name": "bass_clarinet_winds_harmony_b21_1761601767287_7295",
    "N": 1,
    "seeds": {
      "time": 4,
      "duration": 8,
      "pitch": 60,
      "velocity": 50,
      "numerator": 3,
      "denominator": 4
    },
    "sample_counts": {
      "time": 1,
      "duration": 1,
      "pitch": 1,
      "velocity": 1,
      "numerator": 1,
      "denominator": 1
    }
  },
  {
    "action": "execute_pt",
    "unit": "002",
    "bar_index": 17,
    "pt_name": "trumpet_winds_harmony_b21_1761601767287_d806",
    "N": 1,
    "seeds": {
      "time": 4,
      "duration": 8,
      "pitch": 69,
      "velocity": 59,
      "numerator": 3,
      "denominator": 4
    },
    "sample_counts": {
      "time": 1,
      "duration": 1,
      "pitch": 1,
      "velocity": 1,
      "numerator": 1,
      "denominator": 1
    }
  },
  {
    "action": "execute_pt",
    "unit": "002",
    "bar_index": 17,
    "pt_name": "violin_strings_repeat_b21_1761601767287_b2b6",
    "N": 2,
    "seeds": {
      "time": 0,
      "duration": 8,
      "pitch": 72,
      "velocity": 48,
      "numerator": 3,
      "denominator": 4
    },
    "sample_counts": {
      "time": 2,
      "duration": 2,
      "pitch": 2,
      "velocity": 2,
      "numerator": 2,
      "denominator": 2
    }
  },
  {
    "action": "execute_pt",
    "unit": "002",
    "bar_index": 17,
    "pt_name": "cello_strings_repeat_b21_1761601767287_ddb3",
    "N": 2,
    "seeds": {
      "time": 0,
      "duration": 8,
      "pitch": 56,
      "velocity": 47,
      "numerator": 3,
      "denominator": 4
    },
    "sample_counts": {
      "time": 2,
      "duration": 2,
      "pitch": 2,
      "velocity": 2,
      "numerator": 2,
      "denominator": 2
    }
  },
  {
    "action": "execute_pt",
    "unit": "002",
    "bar_index": 17,
    "pt_name": "double_bass_strings_repeat_b21_1761601767287_fbdc",
    "N": 2,
    "seeds": {
      "time": 0,
      "duration": 8,
      "pitch": 39,
      "velocity": 45,
      "numerator": 3,
      "denominator": 4
    },
    "sample_counts": {
      "time": 2,
      "duration": 2,
      "pitch": 2,
      "velocity": 2,
      "numerator": 2,
      "denominator": 2
    }
  },
  {
    "action": "execute_pt",
    "unit": "002",
    "bar_index": 18,
    "pt_name": "alto_flute_winds_harmony_b22_1761601774279_0aa0",
    "N": 2,
    "seeds": {
      "time": 0,
      "duration": 4,
      "pitch": 77,
      "velocity": 57,
      "numerator": 3,
      "denominator": 4
    },
    "sample_counts": {
      "time": 2,
      "duration": 2,
      "pitch": 2,
      "velocity": 2,
      "numerator": 2,
      "denominator": 2
    }
  },
  {
    "action": "execute_pt",
    "unit": "002",
    "bar_index": 18,
    "pt_name": "bass_clarinet_winds_harmony_b22_1761601774279_3f66",
    "N": 2,
    "seeds": {
      "time": 0,
      "duration": 4,
      "pitch": 62,
      "velocity": 51,
      "numerator": 3,
      "denominator": 4
    },
    "sample_counts": {
      "time": 2,
      "duration": 2,
      "pitch": 2,
      "velocity": 2,
      "numerator": 2,
      "denominator": 2
    }
  },
  {
    "action": "execute_pt",
    "unit": "002",
    "bar_index": 18,
    "pt_name": "trumpet_winds_harmony_b22_1761601774279_f533",
    "N": 2,
    "seeds": {
      "time": 0,
      "duration": 4,
      "pitch": 71,
      "velocity": 60,
      "numerator": 3,
      "denominator": 4
    },
    "sample_counts": {
      "time": 2,
      "duration": 2,
      "pitch": 2,
      "velocity": 2,
      "numerator": 2,
      "denominator": 2
    }
  },
  {
    "action": "execute_pt",
    "unit": "002",
    "bar_index": 18,
    "pt_name": "violin_strings_repeat_b22_1761601774280_7bcd",
    "N": 1,
    "seeds": {
      "time": 0,
      "duration": 8,
      "pitch": 73,
      "velocity": 47,
      "numerator": 3,
      "denominator": 4
    },
    "sample_counts": {
      "time": 1,
      "duration": 1,
      "pitch": 1,
      "velocity": 1,
      "numerator": 1,
      "denominator": 1
    }
  },
  {
    "action": "execute_pt",
    "unit": "002",
    "bar_index": 18,
    "pt_name": "cello_strings_repeat_b22_1761601774280_b1ea",
    "N": 1,
    "seeds": {
      "time": 0,
      "duration": 8,
      "pitch": 57,
      "velocity": 46,
      "numerator": 3,
      "denominator": 4
    },
    "sample_counts": {
      "time": 1,
      "duration": 1,
      "pitch": 1,
      "velocity": 1,
      "numerator": 1,
      "denominator": 1
    }
  },
  {
    "action": "execute_pt",
    "unit": "002",
    "bar_index": 18,
    "pt_name": "double_bass_strings_repeat_b22_1761601774280_06f8",
    "N": 1,
    "seeds": {
      "time": 0,
      "duration": 8,
      "pitch": 40,
      "velocity": 44,
      "numerator": 3,
      "denominator": 4
    },
    "sample_counts": {
      "time": 1,
      "duration": 1,
      "pitch": 1,
      "velocity": 1,
      "numerator": 1,
      "denominator": 1
    }
  },
  {
    "action": "execute_pt",
    "unit": "002",
    "bar_index": 19,
    "pt_name": "alto_flute_winds_harmony_b23_1761601781279_4c11",
    "N": 2,
    "seeds": {
      "time": 0,
      "duration": 8,
      "pitch": 76,
      "velocity": 57,
      "numerator": 3,
      "denominator": 4
    },
    "sample_counts": {
      "time": 2,
      "duration": 2,
      "pitch": 2,
      "velocity": 2,
      "numerator": 2,
      "denominator": 2
    }
  },
  {
    "action": "execute_pt",
    "unit": "002",
    "bar_index": 19,
    "pt_name": "bass_clarinet_winds_harmony_b23_1761601781279_b473",
    "N": 2,
    "seeds": {
      "time": 0,
      "duration": 8,
      "pitch": 64,
      "velocity": 52,
      "numerator": 3,
      "denominator": 4
    },
    "sample_counts": {
      "time": 2,
      "duration": 2,
      "pitch": 2,
      "velocity": 2,
      "numerator": 2,
      "denominator": 2
    }
  },
  {
    "action": "execute_pt",
    "unit": "002",
    "bar_index": 19,
    "pt_name": "trumpet_winds_harmony_b23_1761601781279_bde2",
    "N": 2,
    "seeds": {
      "time": 0,
      "duration": 8,
      "pitch": 72,
      "velocity": 61,
      "numerator": 3,
      "denominator": 4
    },
    "sample_counts": {
      "time": 2,
      "duration": 2,
      "pitch": 2,
      "velocity": 2,
      "numerator": 2,
      "denominator": 2
    }
  },
  {
    "action": "execute_pt",
    "unit": "002",
    "bar_index": 19,
    "pt_name": "violin_strings_repeat_b23_1761601781279_8262",
    "N": 1,
    "seeds": {
      "time": 0,
      "duration": 8,
      "pitch": 71,
      "velocity": 49,
      "numerator": 3,
      "denominator": 4
    },
    "sample_counts": {
      "time": 1,
      "duration": 1,
      "pitch": 1,
      "velocity": 1,
      "numerator": 1,
      "denominator": 1
    }
  },
  {
    "action": "execute_pt",
    "unit": "002",
    "bar_index": 19,
    "pt_name": "cello_strings_repeat_b23_1761601781279_38bb",
    "N": 1,
    "seeds": {
      "time": 0,
      "duration": 8,
      "pitch": 55,
      "velocity": 48,
      "numerator": 3,
      "denominator": 4
    },
    "sample_counts": {
      "time": 1,
      "duration": 1,
      "pitch": 1,
      "velocity": 1,
      "numerator": 1,
      "denominator": 1
    }
  },
  {
    "action": "execute_pt",
    "unit": "002",
    "bar_index": 19,
    "pt_name": "double_bass_strings_repeat_b23_1761601781279_7db4",
    "N": 1,
    "seeds": {
      "time": 0,
      "duration": 8,
      "pitch": 38,
      "velocity": 46,
      "numerator": 3,
      "denominator": 4
    },
    "sample_counts": {
      "time": 1,
      "duration": 1,
      "pitch": 1,
      "velocity": 1,
      "numerator": 1,
      "denominator": 1
    }
  },
  {
    "action": "execute_pt",
    "unit": "002",
    "bar_index": 20,
    "pt_name": "alto_flute_winds_harmony_b24_1761601788221_db8d",
    "N": 2,
    "seeds": {
      "time": 0,
      "duration": 4,
      "pitch": 77,
      "velocity": 56,
      "numerator": 3,
      "denominator": 4
    },
    "sample_counts": {
      "time": 2,
      "duration": 2,
      "pitch": 2,
      "velocity": 2,
      "numerator": 2,
      "denominator": 2
    }
  },
  {
    "action": "execute_pt",
    "unit": "002",
    "bar_index": 20,
    "pt_name": "bass_clarinet_winds_harmony_b24_1761601788221_cea6",
    "N": 2,
    "seeds": {
      "time": 0,
      "duration": 4,
      "pitch": 62,
      "velocity": 51,
      "numerator": 3,
      "denominator": 4
    },
    "sample_counts": {
      "time": 2,
      "duration": 2,
      "pitch": 2,
      "velocity": 2,
      "numerator": 2,
      "denominator": 2
    }
  },
  {
    "action": "execute_pt",
    "unit": "002",
    "bar_index": 20,
    "pt_name": "trumpet_winds_harmony_b24_1761601788221_5c19",
    "N": 2,
    "seeds": {
      "time": 0,
      "duration": 4,
      "pitch": 71,
      "velocity": 60,
      "numerator": 3,
      "denominator": 4
    },
    "sample_counts": {
      "time": 2,
      "duration": 2,
      "pitch": 2,
      "velocity": 2,
      "numerator": 2,
      "denominator": 2
    }
  },
  {
    "action": "execute_pt",
    "unit": "002",
    "bar_index": 20,
    "pt_name": "violin_strings_repeat_b24_1761601788221_a985",
    "N": 1,
    "seeds": {
      "time": 0,
      "duration": 12,
      "pitch": 75,
      "velocity": 44,
      "numerator": 3,
      "denominator": 4
    },
    "sample_counts": {
      "time": 1,
      "duration": 1,
      "pitch": 1,
      "velocity": 1,
      "numerator": 1,
      "denominator": 1
    }
  },
  {
    "action": "execute_pt",
    "unit": "002",
    "bar_index": 20,
    "pt_name": "cello_strings_repeat_b24_1761601788221_6e1e",
    "N": 1,
    "seeds": {
      "time": 0,
      "duration": 12,
      "pitch": 59,
      "velocity": 43,
      "numerator": 3,
      "denominator": 4
    },
    "sample_counts": {
      "time": 1,
      "duration": 1,
      "pitch": 1,
      "velocity": 1,
      "numerator": 1,
      "denominator": 1
    }
  },
  {
    "action": "execute_pt",
    "unit": "002",
    "bar_index": 20,
    "pt_name": "double_bass_strings_repeat_b24_1761601788221_0b62",
    "N": 1,
    "seeds": {
      "time": 0,
      "duration": 12,
      "pitch": 42,
      "velocity": 41,
      "numerator": 3,
      "denominator": 4
    },
    "sample_counts": {
      "time": 1,
      "duration": 1,
      "pitch": 1,
      "velocity": 1,
      "numerator": 1,
      "denominator": 1
    }
  },
  {
    "action": "execute_pt",
    "unit": "003",
    "bar_index": 1,
    "pt_name": "alto_flute_winds_repeat_b25_1761602074026_01c2",
    "N": 2,
    "seeds": {
      "time": 0,
      "duration": 4,
      "pitch": 76,
      "velocity": 56,
      "numerator": 3,
      "denominator": 4
    },
    "sample_counts": {
      "time": 2,
      "duration": 2,
      "pitch": 2,
      "velocity": 2,
      "numerator": 2,
      "denominator": 2
    }
  },
  {
    "action": "execute_pt",
    "unit": "003",
    "bar_index": 1,
    "pt_name": "bass_clarinet_winds_repeat_b25_1761602074026_d9d9",
    "N": 2,
    "seeds": {
      "time": 0,
      "duration": 4,
      "pitch": 55,
      "velocity": 48,
      "numerator": 3,
      "denominator": 4
    },
    "sample_counts": {
      "time": 2,
      "duration": 2,
      "pitch": 2,
      "velocity": 2,
      "numerator": 2,
      "denominator": 2
    }
  },
  {
    "action": "execute_pt",
    "unit": "003",
    "bar_index": 1,
    "pt_name": "trumpet_winds_repeat_b25_1761602074026_09e6",
    "N": 2,
    "seeds": {
      "time": 0,
      "duration": 4,
      "pitch": 71,
      "velocity": 58,
      "numerator": 3,
      "denominator": 4
    },
    "sample_counts": {
      "time": 2,
      "duration": 2,
      "pitch": 2,
      "velocity": 2,
      "numerator": 2,
      "denominator": 2
    }
  },
  {
    "action": "execute_pt",
    "unit": "003",
    "bar_index": 1,
    "pt_name": "violin_strings_new_color_b25_1761602074026_7b06",
    "N": 2,
    "seeds": {
      "time": 0,
      "duration": 4,
      "pitch": 76,
      "velocity": 52,
      "numerator": 3,
      "denominator": 4
    },
    "sample_counts": {
      "time": 2,
      "duration": 2,
      "pitch": 2,
      "velocity": 2,
      "numerator": 2,
      "denominator": 2
    }
  },
  {
    "action": "execute_pt",
    "unit": "003",
    "bar_index": 1,
    "pt_name": "cello_strings_new_color_b25_1761602074026_df13",
    "N": 2,
    "seeds": {
      "time": 0,
      "duration": 4,
      "pitch": 55,
      "velocity": 46,
      "numerator": 3,
      "denominator": 4
    },
    "sample_counts": {
      "time": 2,
      "duration": 2,
      "pitch": 2,
      "velocity": 2,
      "numerator": 2,
      "denominator": 2
    }
  },
  {
    "action": "execute_pt",
    "unit": "003",
    "bar_index": 1,
    "pt_name": "double_bass_strings_new_color_b25_1761602074026_6ec4",
    "N": 2,
    "seeds": {
      "time": 0,
      "duration": 4,
      "pitch": 38,
      "velocity": 42,
      "numerator": 3,
      "denominator": 4
    },
    "sample_counts": {
      "time": 2,
      "duration": 2,
      "pitch": 2,
      "velocity": 2,
      "numerator": 2,
      "denominator": 2
    }
  },
  {
    "action": "execute_pt",
    "unit": "003",
    "bar_index": 2,
    "pt_name": "alto_flute_winds_repeat_b26_1761602081741_1fcd",
    "N": 2,
    "seeds": {
      "time": 0,
      "duration": 8,
      "pitch": 77,
      "velocity": 57,
      "numerator": 3,
      "denominator": 4
    },
    "sample_counts": {
      "time": 2,
      "duration": 2,
      "pitch": 2,
      "velocity": 2,
      "numerator": 2,
      "denominator": 2
    }
  },
  {
    "action": "execute_pt",
    "unit": "003",
    "bar_index": 2,
    "pt_name": "bass_clarinet_winds_repeat_b26_1761602081741_3fa5",
    "N": 2,
    "seeds": {
      "time": 0,
      "duration": 8,
      "pitch": 57,
      "velocity": 49,
      "numerator": 3,
      "denominator": 4
    },
    "sample_counts": {
      "time": 2,
      "duration": 2,
      "pitch": 2,
      "velocity": 2,
      "numerator": 2,
      "denominator": 2
    }
  },
  {
    "action": "execute_pt",
    "unit": "003",
    "bar_index": 2,
    "pt_name": "trumpet_winds_repeat_b26_1761602081741_4db1",
    "N": 2,
    "seeds": {
      "time": 0,
      "duration": 8,
      "pitch": 72,
      "velocity": 59,
      "numerator": 3,
      "denominator": 4
    },
    "sample_counts": {
      "time": 2,
      "duration": 2,
      "pitch": 2,
      "velocity": 2,
      "numerator": 2,
      "denominator": 2
    }
  },
  {
    "action": "execute_pt",
    "unit": "003",
    "bar_index": 2,
    "pt_name": "violin_strings_new_color_b26_1761602081741_e2c9",
    "N": 2,
    "seeds": {
      "time": 0,
      "duration": 8,
      "pitch": 78,
      "velocity": 54,
      "numerator": 3,
      "denominator": 4
    },
    "sample_counts": {
      "time": 2,
      "duration": 2,
      "pitch": 2,
      "velocity": 2,
      "numerator": 2,
      "denominator": 2
    }
  },
  {
    "action": "execute_pt",
    "unit": "003",
    "bar_index": 2,
    "pt_name": "cello_strings_new_color_b26_1761602081741_62ec",
    "N": 2,
    "seeds": {
      "time": 0,
      "duration": 8,
      "pitch": 59,
      "velocity": 48,
      "numerator": 3,
      "denominator": 4
    },
    "sample_counts": {
      "time": 2,
      "duration": 2,
      "pitch": 2,
      "velocity": 2,
      "numerator": 2,
      "denominator": 2
    }
  },
  {
    "action": "execute_pt",
    "unit": "003",
    "bar_index": 2,
    "pt_name": "double_bass_strings_new_color_b26_1761602081741_f756",
    "N": 2,
    "seeds": {
      "time": 0,
      "duration": 8,
      "pitch": 40,
      "velocity": 44,
      "numerator": 3,
      "denominator": 4
    },
    "sample_counts": {
      "time": 2,
      "duration": 2,
      "pitch": 2,
      "velocity": 2,
      "numerator": 2,
      "denominator": 2
    }
  },
  {
    "action": "execute_pt",
    "unit": "003",
    "bar_index": 3,
    "pt_name": "alto_flute_winds_repeat_b27_1761602089660_810e",
    "N": 1,
    "seeds": {
      "time": 0,
      "duration": 12,
      "pitch": 79,
      "velocity": 58,
      "numerator": 3,
      "denominator": 4
    },
    "sample_counts": {
      "time": 1,
      "duration": 1,
      "pitch": 1,
      "velocity": 1,
      "numerator": 1,
      "denominator": 1
    }
  },
  {
    "action": "execute_pt",
    "unit": "003",
    "bar_index": 3,
    "pt_name": "bass_clarinet_winds_repeat_b27_1761602089660_d50b",
    "N": 1,
    "seeds": {
      "time": 0,
      "duration": 12,
      "pitch": 58,
      "velocity": 50,
      "numerator": 3,
      "denominator": 4
    },
    "sample_counts": {
      "time": 1,
      "duration": 1,
      "pitch": 1,
      "velocity": 1,
      "numerator": 1,
      "denominator": 1
    }
  },
  {
    "action": "execute_pt",
    "unit": "003",
    "bar_index": 3,
    "pt_name": "trumpet_winds_repeat_b27_1761602089660_627f",
    "N": 1,
    "seeds": {
      "time": 0,
      "duration": 12,
      "pitch": 74,
      "velocity": 60,
      "numerator": 3,
      "denominator": 4
    },
    "sample_counts": {
      "time": 1,
      "duration": 1,
      "pitch": 1,
      "velocity": 1,
      "numerator": 1,
      "denominator": 1
    }
  },
  {
    "action": "execute_pt",
    "unit": "003",
    "bar_index": 3,
    "pt_name": "violin_strings_new_color_b27_1761602089660_da42",
    "N": 1,
    "seeds": {
      "time": 0,
      "duration": 12,
      "pitch": 77,
      "velocity": 53,
      "numerator": 3,
      "denominator": 4
    },
    "sample_counts": {
      "time": 1,
      "duration": 1,
      "pitch": 1,
      "velocity": 1,
      "numerator": 1,
      "denominator": 1
    }
  },
  {
    "action": "execute_pt",
    "unit": "003",
    "bar_index": 3,
    "pt_name": "cello_strings_new_color_b27_1761602089660_d8da",
    "N": 1,
    "seeds": {
      "time": 0,
      "duration": 12,
      "pitch": 60,
      "velocity": 47,
      "numerator": 3,
      "denominator": 4
    },
    "sample_counts": {
      "time": 1,
      "duration": 1,
      "pitch": 1,
      "velocity": 1,
      "numerator": 1,
      "denominator": 1
    }
  },
  {
    "action": "execute_pt",
    "unit": "003",
    "bar_index": 3,
    "pt_name": "double_bass_strings_new_color_b27_1761602089660_f71f",
    "N": 1,
    "seeds": {
      "time": 0,
      "duration": 12,
      "pitch": 43,
      "velocity": 43,
      "numerator": 3,
      "denominator": 4
    },
    "sample_counts": {
      "time": 1,
      "duration": 1,
      "pitch": 1,
      "velocity": 1,
      "numerator": 1,
      "denominator": 1
    }
  },
  {
    "action": "execute_pt",
    "unit": "003",
    "bar_index": 4,
    "pt_name": "alto_flute_winds_repeat_b28_1761602097251_f33d",
    "N": 1,
    "seeds": {
      "time": 0,
      "duration": 8,
      "pitch": 76,
      "velocity": 57,
      "numerator": 3,
      "denominator": 4
    },
    "sample_counts": {
      "time": 1,
      "duration": 1,
      "pitch": 1,
      "velocity": 1,
      "numerator": 1,
      "denominator": 1
    }
  },
  {
    "action": "execute_pt",
    "unit": "003",
    "bar_index": 4,
    "pt_name": "bass_clarinet_winds_repeat_b28_1761602097251_d88d",
    "N": 1,
    "seeds": {
      "time": 0,
      "duration": 8,
      "pitch": 59,
      "velocity": 49,
      "numerator": 3,
      "denominator": 4
    },
    "sample_counts": {
      "time": 1,
      "duration": 1,
      "pitch": 1,
      "velocity": 1,
      "numerator": 1,
      "denominator": 1
    }
  },
  {
    "action": "execute_pt",
    "unit": "003",
    "bar_index": 4,
    "pt_name": "trumpet_winds_repeat_b28_1761602097251_549f",
    "N": 1,
    "seeds": {
      "time": 0,
      "duration": 8,
      "pitch": 72,
      "velocity": 59,
      "numerator": 3,
      "denominator": 4
    },
    "sample_counts": {
      "time": 1,
      "duration": 1,
      "pitch": 1,
      "velocity": 1,
      "numerator": 1,
      "denominator": 1
    }
  },
  {
    "action": "execute_pt",
    "unit": "003",
    "bar_index": 4,
    "pt_name": "violin_strings_new_color_b28_1761602097251_18c7",
    "N": 1,
    "seeds": {
      "time": 0,
      "duration": 8,
      "pitch": 69,
      "velocity": 52,
      "numerator": 3,
      "denominator": 4
    },
    "sample_counts": {
      "time": 1,
      "duration": 1,
      "pitch": 1,
      "velocity": 1,
      "numerator": 1,
      "denominator": 1
    }
  },
  {
    "action": "execute_pt",
    "unit": "003",
    "bar_index": 4,
    "pt_name": "cello_strings_new_color_b28_1761602097251_7258",
    "N": 1,
    "seeds": {
      "time": 0,
      "duration": 8,
      "pitch": 53,
      "velocity": 46,
      "numerator": 3,
      "denominator": 4
    },
    "sample_counts": {
      "time": 1,
      "duration": 1,
      "pitch": 1,
      "velocity": 1,
      "numerator": 1,
      "denominator": 1
    }
  },
  {
    "action": "execute_pt",
    "unit": "003",
    "bar_index": 4,
    "pt_name": "double_bass_strings_new_color_b28_1761602097251_4a32",
    "N": 1,
    "seeds": {
      "time": 0,
      "duration": 8,
      "pitch": 36,
      "velocity": 42,
      "numerator": 3,
      "denominator": 4
    },
    "sample_counts": {
      "time": 1,
      "duration": 1,
      "pitch": 1,
      "velocity": 1,
      "numerator": 1,
      "denominator": 1
    }
  },
  {
    "action": "execute_pt",
    "unit": "003",
    "bar_index": 5,
    "pt_name": "alto_flute_winds_repeat_b29_1761602104737_c99f",
    "N": 1,
    "seeds": {
      "time": 4,
      "duration": 8,
      "pitch": 74,
      "velocity": 56,
      "numerator": 3,
      "denominator": 4
    },
    "sample_counts": {
      "time": 1,
      "duration": 1,
      "pitch": 1,
      "velocity": 1,
      "numerator": 1,
      "denominator": 1
    }
  },
  {
    "action": "execute_pt",
    "unit": "003",
    "bar_index": 5,
    "pt_name": "bass_clarinet_winds_repeat_b29_1761602104737_01c5",
    "N": 1,
    "seeds": {
      "time": 4,
      "duration": 8,
      "pitch": 57,
      "velocity": 48,
      "numerator": 3,
      "denominator": 4
    },
    "sample_counts": {
      "time": 1,
      "duration": 1,
      "pitch": 1,
      "velocity": 1,
      "numerator": 1,
      "denominator": 1
    }
  },
  {
    "action": "execute_pt",
    "unit": "003",
    "bar_index": 5,
    "pt_name": "trumpet_winds_repeat_b29_1761602104737_6096",
    "N": 1,
    "seeds": {
      "time": 4,
      "duration": 8,
      "pitch": 71,
      "velocity": 58,
      "numerator": 3,
      "denominator": 4
    },
    "sample_counts": {
      "time": 1,
      "duration": 1,
      "pitch": 1,
      "velocity": 1,
      "numerator": 1,
      "denominator": 1
    }
  },
  {
    "action": "execute_pt",
    "unit": "003",
    "bar_index": 5,
    "pt_name": "violin_strings_new_color_b29_1761602104737_4b1c",
    "N": 1,
    "seeds": {
      "time": 4,
      "duration": 8,
      "pitch": 74,
      "velocity": 52,
      "numerator": 3,
      "denominator": 4
    },
    "sample_counts": {
      "time": 1,
      "duration": 1,
      "pitch": 1,
      "velocity": 1,
      "numerator": 1,
      "denominator": 1
    }
  },
  {
    "action": "execute_pt",
    "unit": "003",
    "bar_index": 5,
    "pt_name": "cello_strings_new_color_b29_1761602104737_98a1",
    "N": 1,
    "seeds": {
      "time": 4,
      "duration": 8,
      "pitch": 58,
      "velocity": 46,
      "numerator": 3,
      "denominator": 4
    },
    "sample_counts": {
      "time": 1,
      "duration": 1,
      "pitch": 1,
      "velocity": 1,
      "numerator": 1,
      "denominator": 1
    }
  },
  {
    "action": "execute_pt",
    "unit": "003",
    "bar_index": 5,
    "pt_name": "double_bass_strings_new_color_b29_1761602104737_4ddb",
    "N": 1,
    "seeds": {
      "time": 4,
      "duration": 8,
      "pitch": 34,
      "velocity": 42,
      "numerator": 3,
      "denominator": 4
    },
    "sample_counts": {
      "time": 1,
      "duration": 1,
      "pitch": 1,
      "velocity": 1,
      "numerator": 1,
      "denominator": 1
    }
  },
  {
    "action": "execute_pt",
    "unit": "003",
    "bar_index": 6,
    "pt_name": "alto_flute_winds_repeat_b30_1761602112509_ffe9",
    "N": 2,
    "seeds": {
      "time": 0,
      "duration": 4,
      "pitch": 74,
      "velocity": 55,
      "numerator": 3,
      "denominator": 4
    },
    "sample_counts": {
      "time": 2,
      "duration": 2,
      "pitch": 2,
      "velocity": 2,
      "numerator": 2,
      "denominator": 2
    }
  },
  {
    "action": "execute_pt",
    "unit": "003",
    "bar_index": 6,
    "pt_name": "bass_clarinet_winds_repeat_b30_1761602112509_f219",
    "N": 2,
    "seeds": {
      "time": 0,
      "duration": 4,
      "pitch": 60,
      "velocity": 50,
      "numerator": 3,
      "denominator": 4
    },
    "sample_counts": {
      "time": 2,
      "duration": 2,
      "pitch": 2,
      "velocity": 2,
      "numerator": 2,
      "denominator": 2
    }
  },
  {
    "action": "execute_pt",
    "unit": "003",
    "bar_index": 6,
    "pt_name": "trumpet_winds_repeat_b30_1761602112509_1064",
    "N": 2,
    "seeds": {
      "time": 0,
      "duration": 4,
      "pitch": 67,
      "velocity": 61,
      "numerator": 3,
      "denominator": 4
    },
    "sample_counts": {
      "time": 2,
      "duration": 2,
      "pitch": 2,
      "velocity": 2,
      "numerator": 2,
      "denominator": 2
    }
  },
  {
    "action": "execute_pt",
    "unit": "003",
    "bar_index": 6,
    "pt_name": "violin_strings_new_color_b30_1761602112509_0e35",
    "N": 2,
    "seeds": {
      "time": 0,
      "duration": 8,
      "pitch": 79,
      "velocity": 52,
      "numerator": 3,
      "denominator": 4
    },
    "sample_counts": {
      "time": 2,
      "duration": 2,
      "pitch": 2,
      "velocity": 2,
      "numerator": 2,
      "denominator": 2
    }
  },
  {
    "action": "execute_pt",
    "unit": "003",
    "bar_index": 6,
    "pt_name": "cello_strings_new_color_b30_1761602112509_55ed",
    "N": 2,
    "seeds": {
      "time": 0,
      "duration": 8,
      "pitch": 65,
      "velocity": 46,
      "numerator": 3,
      "denominator": 4
    },
    "sample_counts": {
      "time": 2,
      "duration": 2,
      "pitch": 2,
      "velocity": 2,
      "numerator": 2,
      "denominator": 2
    }
  },
  {
    "action": "execute_pt",
    "unit": "003",
    "bar_index": 6,
    "pt_name": "double_bass_strings_new_color_b30_1761602112509_8500",
    "N": 2,
    "seeds": {
      "time": 0,
      "duration": 8,
      "pitch": 41,
      "velocity": 42,
      "numerator": 3,
      "denominator": 4
    },
    "sample_counts": {
      "time": 2,
      "duration": 2,
      "pitch": 2,
      "velocity": 2,
      "numerator": 2,
      "denominator": 2
    }
  },
  {
    "action": "execute_pt",
    "unit": "003",
    "bar_index": 7,
    "pt_name": "alto_flute_winds_repeat_b31_1761602119696_44a9",
    "N": 2,
    "seeds": {
      "time": 0,
      "duration": 8,
      "pitch": 76,
      "velocity": 56,
      "numerator": 3,
      "denominator": 4
    },
    "sample_counts": {
      "time": 2,
      "duration": 2,
      "pitch": 2,
      "velocity": 2,
      "numerator": 2,
      "denominator": 2
    }
  },
  {
    "action": "execute_pt",
    "unit": "003",
    "bar_index": 7,
    "pt_name": "bass_clarinet_winds_repeat_b31_1761602119696_3c92",
    "N": 2,
    "seeds": {
      "time": 0,
      "duration": 8,
      "pitch": 62,
      "velocity": 51,
      "numerator": 3,
      "denominator": 4
    },
    "sample_counts": {
      "time": 2,
      "duration": 2,
      "pitch": 2,
      "velocity": 2,
      "numerator": 2,
      "denominator": 2
    }
  },
  {
    "action": "execute_pt",
    "unit": "003",
    "bar_index": 7,
    "pt_name": "trumpet_winds_repeat_b31_1761602119696_3814",
    "N": 2,
    "seeds": {
      "time": 0,
      "duration": 8,
      "pitch": 72,
      "velocity": 60,
      "numerator": 3,
      "denominator": 4
    },
    "sample_counts": {
      "time": 2,
      "duration": 2,
      "pitch": 2,
      "velocity": 2,
      "numerator": 2,
      "denominator": 2
    }
  },
  {
    "action": "execute_pt",
    "unit": "003",
    "bar_index": 7,
    "pt_name": "violin_strings_new_color_b31_1761602119696_4cbb",
    "N": 2,
    "seeds": {
      "time": 0,
      "duration": 4,
      "pitch": 74,
      "velocity": 52,
      "numerator": 3,
      "denominator": 4
    },
    "sample_counts": {
      "time": 2,
      "duration": 2,
      "pitch": 2,
      "velocity": 2,
      "numerator": 2,
      "denominator": 2
    }
  },
  {
    "action": "execute_pt",
    "unit": "003",
    "bar_index": 7,
    "pt_name": "cello_strings_new_color_b31_1761602119696_40e3",
    "N": 2,
    "seeds": {
      "time": 0,
      "duration": 4,
      "pitch": 55,
      "velocity": 46,
      "numerator": 3,
      "denominator": 4
    },
    "sample_counts": {
      "time": 2,
      "duration": 2,
      "pitch": 2,
      "velocity": 2,
      "numerator": 2,
      "denominator": 2
    }
  },
  {
    "action": "execute_pt",
    "unit": "003",
    "bar_index": 7,
    "pt_name": "double_bass_strings_new_color_b31_1761602119696_2a61",
    "N": 2,
    "seeds": {
      "time": 0,
      "duration": 4,
      "pitch": 39,
      "velocity": 42,
      "numerator": 3,
      "denominator": 4
    },
    "sample_counts": {
      "time": 2,
      "duration": 2,
      "pitch": 2,
      "velocity": 2,
      "numerator": 2,
      "denominator": 2
    }
  },
  {
    "action": "execute_pt",
    "unit": "003",
    "bar_index": 8,
    "pt_name": "alto_flute_winds_repeat_b32_1761602126676_1977",
    "N": 1,
    "seeds": {
      "time": 0,
      "duration": 12,
      "pitch": 78,
      "velocity": 57,
      "numerator": 3,
      "denominator": 4
    },
    "sample_counts": {
      "time": 1,
      "duration": 1,
      "pitch": 1,
      "velocity": 1,
      "numerator": 1,
      "denominator": 1
    }
  },
  {
    "action": "execute_pt",
    "unit": "003",
    "bar_index": 8,
    "pt_name": "bass_clarinet_winds_repeat_b32_1761602126676_bbc4",
    "N": 1,
    "seeds": {
      "time": 0,
      "duration": 12,
      "pitch": 61,
      "velocity": 52,
      "numerator": 3,
      "denominator": 4
    },
    "sample_counts": {
      "time": 1,
      "duration": 1,
      "pitch": 1,
      "velocity": 1,
      "numerator": 1,
      "denominator": 1
    }
  },
  {
    "action": "execute_pt",
    "unit": "003",
    "bar_index": 8,
    "pt_name": "trumpet_winds_repeat_b32_1761602126676_e267",
    "N": 1,
    "seeds": {
      "time": 0,
      "duration": 12,
      "pitch": 73,
      "velocity": 61,
      "numerator": 3,
      "denominator": 4
    },
    "sample_counts": {
      "time": 1,
      "duration": 1,
      "pitch": 1,
      "velocity": 1,
      "numerator": 1,
      "denominator": 1
    }
  },
  {
    "action": "execute_pt",
    "unit": "003",
    "bar_index": 8,
    "pt_name": "violin_strings_new_color_b32_1761602126676_f4c4",
    "N": 1,
    "seeds": {
      "time": 0,
      "duration": 12,
      "pitch": 73,
      "velocity": 53,
      "numerator": 3,
      "denominator": 4
    },
    "sample_counts": {
      "time": 1,
      "duration": 1,
      "pitch": 1,
      "velocity": 1,
      "numerator": 1,
      "denominator": 1
    }
  },
  {
    "action": "execute_pt",
    "unit": "003",
    "bar_index": 8,
    "pt_name": "cello_strings_new_color_b32_1761602126676_d8c6",
    "N": 1,
    "seeds": {
      "time": 0,
      "duration": 12,
      "pitch": 64,
      "velocity": 47,
      "numerator": 3,
      "denominator": 4
    },
    "sample_counts": {
      "time": 1,
      "duration": 1,
      "pitch": 1,
      "velocity": 1,
      "numerator": 1,
      "denominator": 1
    }
  },
  {
    "action": "execute_pt",
    "unit": "003",
    "bar_index": 8,
    "pt_name": "double_bass_strings_new_color_b32_1761602126676_8b17",
    "N": 1,
    "seeds": {
      "time": 0,
      "duration": 12,
      "pitch": 45,
      "velocity": 43,
      "numerator": 3,
      "denominator": 4
    },
    "sample_counts": {
      "time": 1,
      "duration": 1,
      "pitch": 1,
      "velocity": 1,
      "numerator": 1,
      "denominator": 1
    }
  },
  {
    "action": "execute_pt",
    "unit": "003",
    "bar_index": 9,
    "pt_name": "alto_flute_winds_repeat_b33_1761602133691_65e3",
    "N": 1,
    "seeds": {
      "time": 0,
      "duration": 8,
      "pitch": 76,
      "velocity": 56,
      "numerator": 3,
      "denominator": 4
    },
    "sample_counts": {
      "time": 1,
      "duration": 1,
      "pitch": 1,
      "velocity": 1,
      "numerator": 1,
      "denominator": 1
    }
  },
  {
    "action": "execute_pt",
    "unit": "003",
    "bar_index": 9,
    "pt_name": "bass_clarinet_winds_repeat_b33_1761602133691_7738",
    "N": 1,
    "seeds": {
      "time": 0,
      "duration": 8,
      "pitch": 59,
      "velocity": 51,
      "numerator": 3,
      "denominator": 4
    },
    "sample_counts": {
      "time": 1,
      "duration": 1,
      "pitch": 1,
      "velocity": 1,
      "numerator": 1,
      "denominator": 1
    }
  },
  {
    "action": "execute_pt",
    "unit": "003",
    "bar_index": 9,
    "pt_name": "trumpet_winds_repeat_b33_1761602133691_aa2b",
    "N": 1,
    "seeds": {
      "time": 0,
      "duration": 8,
      "pitch": 70,
      "velocity": 60,
      "numerator": 3,
      "denominator": 4
    },
    "sample_counts": {
      "time": 1,
      "duration": 1,
      "pitch": 1,
      "velocity": 1,
      "numerator": 1,
      "denominator": 1
    }
  },
  {
    "action": "execute_pt",
    "unit": "003",
    "bar_index": 9,
    "pt_name": "violin_strings_new_color_b33_1761602133691_8ea6",
    "N": 2,
    "seeds": {
      "time": 0,
      "duration": 4,
      "pitch": 69,
      "velocity": 52,
      "numerator": 3,
      "denominator": 4
    },
    "sample_counts": {
      "time": 2,
      "duration": 2,
      "pitch": 2,
      "velocity": 2,
      "numerator": 2,
      "denominator": 2
    }
  },
  {
    "action": "execute_pt",
    "unit": "003",
    "bar_index": 9,
    "pt_name": "cello_strings_new_color_b33_1761602133691_9ed1",
    "N": 2,
    "seeds": {
      "time": 0,
      "duration": 4,
      "pitch": 62,
      "velocity": 46,
      "numerator": 3,
      "denominator": 4
    },
    "sample_counts": {
      "time": 2,
      "duration": 2,
      "pitch": 2,
      "velocity": 2,
      "numerator": 2,
      "denominator": 2
    }
  },
  {
    "action": "execute_pt",
    "unit": "003",
    "bar_index": 9,
    "pt_name": "double_bass_strings_new_color_b33_1761602133691_5801",
    "N": 2,
    "seeds": {
      "time": 0,
      "duration": 4,
      "pitch": 47,
      "velocity": 42,
      "numerator": 3,
      "denominator": 4
    },
    "sample_counts": {
      "time": 2,
      "duration": 2,
      "pitch": 2,
      "velocity": 2,
      "numerator": 2,
      "denominator": 2
    }
  },
  {
    "action": "execute_pt",
    "unit": "003",
    "bar_index": 10,
    "pt_name": "alto_flute_winds_repeat_b34_1761602140730_304b",
    "N": 1,
    "seeds": {
      "time": 4,
      "duration": 8,
      "pitch": 74,
      "velocity": 55,
      "numerator": 3,
      "denominator": 4
    },
    "sample_counts": {
      "time": 1,
      "duration": 1,
      "pitch": 1,
      "velocity": 1,
      "numerator": 1,
      "denominator": 1
    }
  },
  {
    "action": "execute_pt",
    "unit": "003",
    "bar_index": 10,
    "pt_name": "bass_clarinet_winds_repeat_b34_1761602140730_7519",
    "N": 1,
    "seeds": {
      "time": 4,
      "duration": 8,
      "pitch": 60,
      "velocity": 50,
      "numerator": 3,
      "denominator": 4
    },
    "sample_counts": {
      "time": 1,
      "duration": 1,
      "pitch": 1,
      "velocity": 1,
      "numerator": 1,
      "denominator": 1
    }
  },
  {
    "action": "execute_pt",
    "unit": "003",
    "bar_index": 10,
    "pt_name": "trumpet_winds_repeat_b34_1761602140730_a114",
    "N": 1,
    "seeds": {
      "time": 4,
      "duration": 8,
      "pitch": 69,
      "velocity": 59,
      "numerator": 3,
      "denominator": 4
    },
    "sample_counts": {
      "time": 1,
      "duration": 1,
      "pitch": 1,
      "velocity": 1,
      "numerator": 1,
      "denominator": 1
    }
  },
  {
    "action": "execute_pt",
    "unit": "003",
    "bar_index": 10,
    "pt_name": "violin_strings_new_color_b34_1761602140730_3b16",
    "N": 2,
    "seeds": {
      "time": 0,
      "duration": 8,
      "pitch": 71,
      "velocity": 51,
      "numerator": 3,
      "denominator": 4
    },
    "sample_counts": {
      "time": 2,
      "duration": 2,
      "pitch": 2,
      "velocity": 2,
      "numerator": 2,
      "denominator": 2
    }
  },
  {
    "action": "execute_pt",
    "unit": "003",
    "bar_index": 10,
    "pt_name": "cello_strings_new_color_b34_1761602140730_795d",
    "N": 2,
    "seeds": {
      "time": 0,
      "duration": 8,
      "pitch": 52,
      "velocity": 47,
      "numerator": 3,
      "denominator": 4
    },
    "sample_counts": {
      "time": 2,
      "duration": 2,
      "pitch": 2,
      "velocity": 2,
      "numerator": 2,
      "denominator": 2
    }
  },
  {
    "action": "execute_pt",
    "unit": "003",
    "bar_index": 10,
    "pt_name": "double_bass_strings_new_color_b34_1761602140730_81e3",
    "N": 2,
    "seeds": {
      "time": 0,
      "duration": 8,
      "pitch": 48,
      "velocity": 43,
      "numerator": 3,
      "denominator": 4
    },
    "sample_counts": {
      "time": 2,
      "duration": 2,
      "pitch": 2,
      "velocity": 2,
      "numerator": 2,
      "denominator": 2
    }
  },
  {
    "action": "execute_pt",
    "unit": "003",
    "bar_index": 11,
    "pt_name": "alto_flute_winds_repeat_b35_1761602147780_4253",
    "N": 2,
    "seeds": {
      "time": 0,
      "duration": 4,
      "pitch": 77,
      "velocity": 56,
      "numerator": 3,
      "denominator": 4
    },
    "sample_counts": {
      "time": 2,
      "duration": 2,
      "pitch": 2,
      "velocity": 2,
      "numerator": 2,
      "denominator": 2
    }
  },
  {
    "action": "execute_pt",
    "unit": "003",
    "bar_index": 11,
    "pt_name": "bass_clarinet_winds_repeat_b35_1761602147780_5db1",
    "N": 2,
    "seeds": {
      "time": 0,
      "duration": 4,
      "pitch": 62,
      "velocity": 51,
      "numerator": 3,
      "denominator": 4
    },
    "sample_counts": {
      "time": 2,
      "duration": 2,
      "pitch": 2,
      "velocity": 2,
      "numerator": 2,
      "denominator": 2
    }
  },
  {
    "action": "execute_pt",
    "unit": "003",
    "bar_index": 11,
    "pt_name": "trumpet_winds_repeat_b35_1761602147780_3d8f",
    "N": 2,
    "seeds": {
      "time": 0,
      "duration": 4,
      "pitch": 71,
      "velocity": 60,
      "numerator": 3,
      "denominator": 4
    },
    "sample_counts": {
      "time": 2,
      "duration": 2,
      "pitch": 2,
      "velocity": 2,
      "numerator": 2,
      "denominator": 2
    }
  },
  {
    "action": "execute_pt",
    "unit": "003",
    "bar_index": 11,
    "pt_name": "violin_strings_new_color_b35_1761602147780_4108",
    "N": 1,
    "seeds": {
      "time": 0,
      "duration": 12,
      "pitch": 74,
      "velocity": 52,
      "numerator": 3,
      "denominator": 4
    },
    "sample_counts": {
      "time": 1,
      "duration": 1,
      "pitch": 1,
      "velocity": 1,
      "numerator": 1,
      "denominator": 1
    }
  },
  {
    "action": "execute_pt",
    "unit": "003",
    "bar_index": 11,
    "pt_name": "cello_strings_new_color_b35_1761602147780_24ab",
    "N": 1,
    "seeds": {
      "time": 0,
      "duration": 12,
      "pitch": 57,
      "velocity": 46,
      "numerator": 3,
      "denominator": 4
    },
    "sample_counts": {
      "time": 1,
      "duration": 1,
      "pitch": 1,
      "velocity": 1,
      "numerator": 1,
      "denominator": 1
    }
  },
  {
    "action": "execute_pt",
    "unit": "003",
    "bar_index": 11,
    "pt_name": "double_bass_strings_new_color_b35_1761602147780_9327",
    "N": 1,
    "seeds": {
      "time": 0,
      "duration": 12,
      "pitch": 40,
      "velocity": 42,
      "numerator": 3,
      "denominator": 4
    },
    "sample_counts": {
      "time": 1,
      "duration": 1,
      "pitch": 1,
      "velocity": 1,
      "numerator": 1,
      "denominator": 1
    }
  },
  {
    "action": "execute_pt",
    "unit": "003",
    "bar_index": 12,
    "pt_name": "alto_flute_winds_repeat_b36_1761602155731_6014",
    "N": 2,
    "seeds": {
      "time": 0,
      "duration": 8,
      "pitch": 76,
      "velocity": 57,
      "numerator": 3,
      "denominator": 4
    },
    "sample_counts": {
      "time": 2,
      "duration": 2,
      "pitch": 2,
      "velocity": 2,
      "numerator": 2,
      "denominator": 2
    }
  },
  {
    "action": "execute_pt",
    "unit": "003",
    "bar_index": 12,
    "pt_name": "bass_clarinet_winds_repeat_b36_1761602155731_d2e8",
    "N": 2,
    "seeds": {
      "time": 0,
      "duration": 8,
      "pitch": 64,
      "velocity": 52,
      "numerator": 3,
      "denominator": 4
    },
    "sample_counts": {
      "time": 2,
      "duration": 2,
      "pitch": 2,
      "velocity": 2,
      "numerator": 2,
      "denominator": 2
    }
  },
  {
    "action": "execute_pt",
    "unit": "003",
    "bar_index": 12,
    "pt_name": "trumpet_winds_repeat_b36_1761602155731_220d",
    "N": 2,
    "seeds": {
      "time": 0,
      "duration": 8,
      "pitch": 72,
      "velocity": 61,
      "numerator": 3,
      "denominator": 4
    },
    "sample_counts": {
      "time": 2,
      "duration": 2,
      "pitch": 2,
      "velocity": 2,
      "numerator": 2,
      "denominator": 2
    }
  },
  {
    "action": "execute_pt",
    "unit": "003",
    "bar_index": 12,
    "pt_name": "violin_strings_new_color_b36_1761602155731_a017",
    "N": 1,
    "seeds": {
      "time": 0,
      "duration": 8,
      "pitch": 77,
      "velocity": 52,
      "numerator": 3,
      "denominator": 4
    },
    "sample_counts": {
      "time": 1,
      "duration": 1,
      "pitch": 1,
      "velocity": 1,
      "numerator": 1,
      "denominator": 1
    }
  },
  {
    "action": "execute_pt",
    "unit": "003",
    "bar_index": 12,
    "pt_name": "cello_strings_new_color_b36_1761602155731_c00e",
    "N": 1,
    "seeds": {
      "time": 0,
      "duration": 8,
      "pitch": 56,
      "velocity": 46,
      "numerator": 3,
      "denominator": 4
    },
    "sample_counts": {
      "time": 1,
      "duration": 1,
      "pitch": 1,
      "velocity": 1,
      "numerator": 1,
      "denominator": 1
    }
  },
  {
    "action": "execute_pt",
    "unit": "003",
    "bar_index": 12,
    "pt_name": "double_bass_strings_new_color_b36_1761602155731_affc",
    "N": 1,
    "seeds": {
      "time": 0,
      "duration": 8,
      "pitch": 44,
      "velocity": 42,
      "numerator": 3,
      "denominator": 4
    },
    "sample_counts": {
      "time": 1,
      "duration": 1,
      "pitch": 1,
      "velocity": 1,
      "numerator": 1,
      "denominator": 1
    }
  },
  {
    "action": "execute_pt",
    "unit": "003",
    "bar_index": 13,
    "pt_name": "alto_flute_winds_repeat_b30_1761602162810_6a28",
    "N": 2,
    "seeds": {
      "time": 0,
      "duration": 4,
      "pitch": 74,
      "velocity": 55,
      "numerator": 3,
      "denominator": 4
    },
    "sample_counts": {
      "time": 2,
      "duration": 2,
      "pitch": 2,
      "velocity": 2,
      "numerator": 2,
      "denominator": 2
    }
  },
  {
    "action": "execute_pt",
    "unit": "003",
    "bar_index": 13,
    "pt_name": "bass_clarinet_winds_repeat_b30_1761602162810_beaf",
    "N": 2,
    "seeds": {
      "time": 0,
      "duration": 4,
      "pitch": 60,
      "velocity": 50,
      "numerator": 3,
      "denominator": 4
    },
    "sample_counts": {
      "time": 2,
      "duration": 2,
      "pitch": 2,
      "velocity": 2,
      "numerator": 2,
      "denominator": 2
    }
  },
  {
    "action": "execute_pt",
    "unit": "003",
    "bar_index": 13,
    "pt_name": "trumpet_winds_repeat_b30_1761602162810_ef90",
    "N": 2,
    "seeds": {
      "time": 0,
      "duration": 4,
      "pitch": 67,
      "velocity": 61,
      "numerator": 3,
      "denominator": 4
    },
    "sample_counts": {
      "time": 2,
      "duration": 2,
      "pitch": 2,
      "velocity": 2,
      "numerator": 2,
      "denominator": 2
    }
  },
  {
    "action": "execute_pt",
    "unit": "003",
    "bar_index": 13,
    "pt_name": "violin_strings_new_color_b27_1761602162810_d340",
    "N": 2,
    "seeds": {
      "time": 0,
      "duration": 8,
      "pitch": 79,
      "velocity": 52,
      "numerator": 3,
      "denominator": 4
    },
    "sample_counts": {
      "time": 2,
      "duration": 2,
      "pitch": 2,
      "velocity": 2,
      "numerator": 2,
      "denominator": 2
    }
  },
  {
    "action": "execute_pt",
    "unit": "003",
    "bar_index": 13,
    "pt_name": "cello_strings_new_color_b27_1761602162810_1ccc",
    "N": 2,
    "seeds": {
      "time": 0,
      "duration": 8,
      "pitch": 65,
      "velocity": 46,
      "numerator": 3,
      "denominator": 4
    },
    "sample_counts": {
      "time": 2,
      "duration": 2,
      "pitch": 2,
      "velocity": 2,
      "numerator": 2,
      "denominator": 2
    }
  },
  {
    "action": "execute_pt",
    "unit": "003",
    "bar_index": 13,
    "pt_name": "double_bass_strings_new_color_b27_1761602162810_e8e4",
    "N": 2,
    "seeds": {
      "time": 0,
      "duration": 8,
      "pitch": 41,
      "velocity": 42,
      "numerator": 3,
      "denominator": 4
    },
    "sample_counts": {
      "time": 2,
      "duration": 2,
      "pitch": 2,
      "velocity": 2,
      "numerator": 2,
      "denominator": 2
    }
  },
  {
    "action": "execute_pt",
    "unit": "003",
    "bar_index": 14,
    "pt_name": "alto_flute_winds_repeat_b31_1761602170550_a88a",
    "N": 2,
    "seeds": {
      "time": 0,
      "duration": 8,
      "pitch": 76,
      "velocity": 56,
      "numerator": 3,
      "denominator": 4
    },
    "sample_counts": {
      "time": 2,
      "duration": 2,
      "pitch": 2,
      "velocity": 2,
      "numerator": 2,
      "denominator": 2
    }
  },
  {
    "action": "execute_pt",
    "unit": "003",
    "bar_index": 14,
    "pt_name": "bass_clarinet_winds_repeat_b31_1761602170550_de6d",
    "N": 2,
    "seeds": {
      "time": 0,
      "duration": 8,
      "pitch": 62,
      "velocity": 51,
      "numerator": 3,
      "denominator": 4
    },
    "sample_counts": {
      "time": 2,
      "duration": 2,
      "pitch": 2,
      "velocity": 2,
      "numerator": 2,
      "denominator": 2
    }
  },
  {
    "action": "execute_pt",
    "unit": "003",
    "bar_index": 14,
    "pt_name": "trumpet_winds_repeat_b31_1761602170550_322c",
    "N": 2,
    "seeds": {
      "time": 0,
      "duration": 8,
      "pitch": 72,
      "velocity": 60,
      "numerator": 3,
      "denominator": 4
    },
    "sample_counts": {
      "time": 2,
      "duration": 2,
      "pitch": 2,
      "velocity": 2,
      "numerator": 2,
      "denominator": 2
    }
  },
  {
    "action": "execute_pt",
    "unit": "003",
    "bar_index": 14,
    "pt_name": "violin_strings_new_color_b28_1761602170550_2f19",
    "N": 2,
    "seeds": {
      "time": 0,
      "duration": 4,
      "pitch": 74,
      "velocity": 52,
      "numerator": 3,
      "denominator": 4
    },
    "sample_counts": {
      "time": 2,
      "duration": 2,
      "pitch": 2,
      "velocity": 2,
      "numerator": 2,
      "denominator": 2
    }
  },
  {
    "action": "execute_pt",
    "unit": "003",
    "bar_index": 14,
    "pt_name": "cello_strings_new_color_b28_1761602170550_ba42",
    "N": 2,
    "seeds": {
      "time": 0,
      "duration": 4,
      "pitch": 55,
      "velocity": 46,
      "numerator": 3,
      "denominator": 4
    },
    "sample_counts": {
      "time": 2,
      "duration": 2,
      "pitch": 2,
      "velocity": 2,
      "numerator": 2,
      "denominator": 2
    }
  },
  {
    "action": "execute_pt",
    "unit": "003",
    "bar_index": 14,
    "pt_name": "double_bass_strings_new_color_b28_1761602170550_7750",
    "N": 2,
    "seeds": {
      "time": 0,
      "duration": 4,
      "pitch": 39,
      "velocity": 42,
      "numerator": 3,
      "denominator": 4
    },
    "sample_counts": {
      "time": 2,
      "duration": 2,
      "pitch": 2,
      "velocity": 2,
      "numerator": 2,
      "denominator": 2
    }
  },
  {
    "action": "execute_pt",
    "unit": "003",
    "bar_index": 15,
    "pt_name": "alto_flute_winds_repeat_b33_1761602177706_f44b",
    "N": 1,
    "seeds": {
      "time": 0,
      "duration": 8,
      "pitch": 76,
      "velocity": 56,
      "numerator": 3,
      "denominator": 4
    },
    "sample_counts": {
      "time": 1,
      "duration": 1,
      "pitch": 1,
      "velocity": 1,
      "numerator": 1,
      "denominator": 1
    }
  },
  {
    "action": "execute_pt",
    "unit": "003",
    "bar_index": 15,
    "pt_name": "bass_clarinet_winds_repeat_b33_1761602177706_868c",
    "N": 1,
    "seeds": {
      "time": 0,
      "duration": 8,
      "pitch": 59,
      "velocity": 51,
      "numerator": 3,
      "denominator": 4
    },
    "sample_counts": {
      "time": 1,
      "duration": 1,
      "pitch": 1,
      "velocity": 1,
      "numerator": 1,
      "denominator": 1
    }
  },
  {
    "action": "execute_pt",
    "unit": "003",
    "bar_index": 15,
    "pt_name": "trumpet_winds_repeat_b33_1761602177706_e8bc",
    "N": 1,
    "seeds": {
      "time": 0,
      "duration": 8,
      "pitch": 70,
      "velocity": 60,
      "numerator": 3,
      "denominator": 4
    },
    "sample_counts": {
      "time": 1,
      "duration": 1,
      "pitch": 1,
      "velocity": 1,
      "numerator": 1,
      "denominator": 1
    }
  },
  {
    "action": "execute_pt",
    "unit": "003",
    "bar_index": 15,
    "pt_name": "violin_strings_new_color_b32_1761602177706_2e02",
    "N": 1,
    "seeds": {
      "time": 0,
      "duration": 12,
      "pitch": 73,
      "velocity": 53,
      "numerator": 3,
      "denominator": 4
    },
    "sample_counts": {
      "time": 1,
      "duration": 1,
      "pitch": 1,
      "velocity": 1,
      "numerator": 1,
      "denominator": 1
    }
  },
  {
    "action": "execute_pt",
    "unit": "003",
    "bar_index": 15,
    "pt_name": "cello_strings_new_color_b32_1761602177706_f2d0",
    "N": 1,
    "seeds": {
      "time": 0,
      "duration": 12,
      "pitch": 64,
      "velocity": 47,
      "numerator": 3,
      "denominator": 4
    },
    "sample_counts": {
      "time": 1,
      "duration": 1,
      "pitch": 1,
      "velocity": 1,
      "numerator": 1,
      "denominator": 1
    }
  },
  {
    "action": "execute_pt",
    "unit": "003",
    "bar_index": 15,
    "pt_name": "double_bass_strings_new_color_b32_1761602177706_fb71",
    "N": 1,
    "seeds": {
      "time": 0,
      "duration": 12,
      "pitch": 45,
      "velocity": 43,
      "numerator": 3,
      "denominator": 4
    },
    "sample_counts": {
      "time": 1,
      "duration": 1,
      "pitch": 1,
      "velocity": 1,
      "numerator": 1,
      "denominator": 1
    }
  },
  {
    "action": "execute_pt",
    "unit": "003",
    "bar_index": 16,
    "pt_name": "alto_flute_winds_repeat_b34_1761602185018_35d9",
    "N": 1,
    "seeds": {
      "time": 4,
      "duration": 8,
      "pitch": 74,
      "velocity": 55,
      "numerator": 3,
      "denominator": 4
    },
    "sample_counts": {
      "time": 1,
      "duration": 1,
      "pitch": 1,
      "velocity": 1,
      "numerator": 1,
      "denominator": 1
    }
  },
  {
    "action": "execute_pt",
    "unit": "003",
    "bar_index": 16,
    "pt_name": "bass_clarinet_winds_repeat_b34_1761602185018_d771",
    "N": 1,
    "seeds": {
      "time": 4,
      "duration": 8,
      "pitch": 60,
      "velocity": 50,
      "numerator": 3,
      "denominator": 4
    },
    "sample_counts": {
      "time": 1,
      "duration": 1,
      "pitch": 1,
      "velocity": 1,
      "numerator": 1,
      "denominator": 1
    }
  },
  {
    "action": "execute_pt",
    "unit": "003",
    "bar_index": 16,
    "pt_name": "trumpet_winds_repeat_b34_1761602185018_177c",
    "N": 1,
    "seeds": {
      "time": 4,
      "duration": 8,
      "pitch": 69,
      "velocity": 59,
      "numerator": 3,
      "denominator": 4
    },
    "sample_counts": {
      "time": 1,
      "duration": 1,
      "pitch": 1,
      "velocity": 1,
      "numerator": 1,
      "denominator": 1
    }
  },
  {
    "action": "execute_pt",
    "unit": "003",
    "bar_index": 16,
    "pt_name": "violin_strings_new_color_b33_1761602185018_60c9",
    "N": 2,
    "seeds": {
      "time": 0,
      "duration": 4,
      "pitch": 69,
      "velocity": 52,
      "numerator": 3,
      "denominator": 4
    },
    "sample_counts": {
      "time": 2,
      "duration": 2,
      "pitch": 2,
      "velocity": 2,
      "numerator": 2,
      "denominator": 2
    }
  },
  {
    "action": "execute_pt",
    "unit": "003",
    "bar_index": 16,
    "pt_name": "cello_strings_new_color_b33_1761602185018_efbf",
    "N": 2,
    "seeds": {
      "time": 0,
      "duration": 4,
      "pitch": 62,
      "velocity": 46,
      "numerator": 3,
      "denominator": 4
    },
    "sample_counts": {
      "time": 2,
      "duration": 2,
      "pitch": 2,
      "velocity": 2,
      "numerator": 2,
      "denominator": 2
    }
  },
  {
    "action": "execute_pt",
    "unit": "003",
    "bar_index": 16,
    "pt_name": "double_bass_strings_new_color_b33_1761602185018_289e",
    "N": 2,
    "seeds": {
      "time": 0,
      "duration": 4,
      "pitch": 47,
      "velocity": 42,
      "numerator": 3,
      "denominator": 4
    },
    "sample_counts": {
      "time": 2,
      "duration": 2,
      "pitch": 2,
      "velocity": 2,
      "numerator": 2,
      "denominator": 2
    }
  },
  {
    "action": "execute_pt",
    "unit": "003",
    "bar_index": 17,
    "pt_name": "alto_flute_winds_repeat_b32_1761602192830_4345",
    "N": 1,
    "seeds": {
      "time": 0,
      "duration": 12,
      "pitch": 78,
      "velocity": 57,
      "numerator": 3,
      "denominator": 4
    },
    "sample_counts": {
      "time": 1,
      "duration": 1,
      "pitch": 1,
      "velocity": 1,
      "numerator": 1,
      "denominator": 1
    }
  },
  {
    "action": "execute_pt",
    "unit": "003",
    "bar_index": 17,
    "pt_name": "bass_clarinet_winds_repeat_b32_1761602192831_76ff",
    "N": 1,
    "seeds": {
      "time": 0,
      "duration": 12,
      "pitch": 61,
      "velocity": 52,
      "numerator": 3,
      "denominator": 4
    },
    "sample_counts": {
      "time": 1,
      "duration": 1,
      "pitch": 1,
      "velocity": 1,
      "numerator": 1,
      "denominator": 1
    }
  },
  {
    "action": "execute_pt",
    "unit": "003",
    "bar_index": 17,
    "pt_name": "trumpet_winds_repeat_b32_1761602192831_b465",
    "N": 1,
    "seeds": {
      "time": 0,
      "duration": 12,
      "pitch": 73,
      "velocity": 61,
      "numerator": 3,
      "denominator": 4
    },
    "sample_counts": {
      "time": 1,
      "duration": 1,
      "pitch": 1,
      "velocity": 1,
      "numerator": 1,
      "denominator": 1
    }
  },
  {
    "action": "execute_pt",
    "unit": "003",
    "bar_index": 17,
    "pt_name": "violin_strings_new_color_b25_1761602192831_c8d1",
    "N": 1,
    "seeds": {
      "time": 0,
      "duration": 8,
      "pitch": 73,
      "velocity": 53,
      "numerator": 3,
      "denominator": 4
    },
    "sample_counts": {
      "time": 1,
      "duration": 1,
      "pitch": 1,
      "velocity": 1,
      "numerator": 1,
      "denominator": 1
    }
  },
  {
    "action": "execute_pt",
    "unit": "003",
    "bar_index": 17,
    "pt_name": "cello_strings_new_color_b25_1761602192831_05aa",
    "N": 1,
    "seeds": {
      "time": 0,
      "duration": 8,
      "pitch": 64,
      "velocity": 47,
      "numerator": 3,
      "denominator": 4
    },
    "sample_counts": {
      "time": 1,
      "duration": 1,
      "pitch": 1,
      "velocity": 1,
      "numerator": 1,
      "denominator": 1
    }
  },
  {
    "action": "execute_pt",
    "unit": "003",
    "bar_index": 17,
    "pt_name": "double_bass_strings_new_color_b25_1761602192831_54a7",
    "N": 1,
    "seeds": {
      "time": 0,
      "duration": 8,
      "pitch": 45,
      "velocity": 43,
      "numerator": 3,
      "denominator": 4
    },
    "sample_counts": {
      "time": 1,
      "duration": 1,
      "pitch": 1,
      "velocity": 1,
      "numerator": 1,
      "denominator": 1
    }
  },
  {
    "action": "execute_pt",
    "unit": "003",
    "bar_index": 18,
    "pt_name": "alto_flute_winds_repeat_b35_1761602199788_92b4",
    "N": 2,
    "seeds": {
      "time": 0,
      "duration": 4,
      "pitch": 77,
      "velocity": 56,
      "numerator": 3,
      "denominator": 4
    },
    "sample_counts": {
      "time": 2,
      "duration": 2,
      "pitch": 2,
      "velocity": 2,
      "numerator": 2,
      "denominator": 2
    }
  },
  {
    "action": "execute_pt",
    "unit": "003",
    "bar_index": 18,
    "pt_name": "bass_clarinet_winds_repeat_b35_1761602199788_84ab",
    "N": 2,
    "seeds": {
      "time": 0,
      "duration": 4,
      "pitch": 62,
      "velocity": 51,
      "numerator": 3,
      "denominator": 4
    },
    "sample_counts": {
      "time": 2,
      "duration": 2,
      "pitch": 2,
      "velocity": 2,
      "numerator": 2,
      "denominator": 2
    }
  },
  {
    "action": "execute_pt",
    "unit": "003",
    "bar_index": 18,
    "pt_name": "trumpet_winds_repeat_b35_1761602199788_cb6b",
    "N": 2,
    "seeds": {
      "time": 0,
      "duration": 4,
      "pitch": 71,
      "velocity": 60,
      "numerator": 3,
      "denominator": 4
    },
    "sample_counts": {
      "time": 2,
      "duration": 2,
      "pitch": 2,
      "velocity": 2,
      "numerator": 2,
      "denominator": 2
    }
  },
  {
    "action": "execute_pt",
    "unit": "003",
    "bar_index": 18,
    "pt_name": "violin_strings_new_color_b26_1761602199788_ecaa",
    "N": 1,
    "seeds": {
      "time": 0,
      "duration": 12,
      "pitch": 74,
      "velocity": 52,
      "numerator": 3,
      "denominator": 4
    },
    "sample_counts": {
      "time": 1,
      "duration": 1,
      "pitch": 1,
      "velocity": 1,
      "numerator": 1,
      "denominator": 1
    }
  },
  {
    "action": "execute_pt",
    "unit": "003",
    "bar_index": 18,
    "pt_name": "cello_strings_new_color_b26_1761602199788_81e4",
    "N": 1,
    "seeds": {
      "time": 0,
      "duration": 12,
      "pitch": 57,
      "velocity": 46,
      "numerator": 3,
      "denominator": 4
    },
    "sample_counts": {
      "time": 1,
      "duration": 1,
      "pitch": 1,
      "velocity": 1,
      "numerator": 1,
      "denominator": 1
    }
  },
  {
    "action": "execute_pt",
    "unit": "003",
    "bar_index": 18,
    "pt_name": "double_bass_strings_new_color_b26_1761602199788_4fdf",
    "N": 1,
    "seeds": {
      "time": 0,
      "duration": 12,
      "pitch": 40,
      "velocity": 42,
      "numerator": 3,
      "denominator": 4
    },
    "sample_counts": {
      "time": 1,
      "duration": 1,
      "pitch": 1,
      "velocity": 1,
      "numerator": 1,
      "denominator": 1
    }
  },
  {
    "action": "execute_pt",
    "unit": "004",
    "bar_index": 1,
    "pt_name": "alto_flute_winds_color_b37_1761602454846_a606",
    "N": 2,
    "seeds": {
      "time": 0,
      "duration": 4,
      "pitch": 76,
      "velocity": 56,
      "numerator": 3,
      "denominator": 4
    },
    "sample_counts": {
      "time": 2,
      "duration": 2,
      "pitch": 2,
      "velocity": 2,
      "numerator": 2,
      "denominator": 2
    }
  },
  {
    "action": "execute_pt",
    "unit": "004",
    "bar_index": 1,
    "pt_name": "bass_clarinet_winds_color_b37_1761602454846_ce69",
    "N": 2,
    "seeds": {
      "time": 0,
      "duration": 4,
      "pitch": 55,
      "velocity": 49,
      "numerator": 3,
      "denominator": 4
    },
    "sample_counts": {
      "time": 2,
      "duration": 2,
      "pitch": 2,
      "velocity": 2,
      "numerator": 2,
      "denominator": 2
    }
  },
  {
    "action": "execute_pt",
    "unit": "004",
    "bar_index": 1,
    "pt_name": "trumpet_winds_color_b37_1761602454846_9e0e",
    "N": 2,
    "seeds": {
      "time": 0,
      "duration": 4,
      "pitch": 67,
      "velocity": 59,
      "numerator": 3,
      "denominator": 4
    },
    "sample_counts": {
      "time": 2,
      "duration": 2,
      "pitch": 2,
      "velocity": 2,
      "numerator": 2,
      "denominator": 2
    }
  },
  {
    "action": "execute_pt",
    "unit": "004",
    "bar_index": 1,
    "pt_name": "violin_strings_repeat_b37_1761602454846_9def",
    "N": 2,
    "seeds": {
      "time": 0,
      "duration": 4,
      "pitch": 76,
      "velocity": 52,
      "numerator": 3,
      "denominator": 4
    },
    "sample_counts": {
      "time": 2,
      "duration": 2,
      "pitch": 2,
      "velocity": 2,
      "numerator": 2,
      "denominator": 2
    }
  },
  {
    "action": "execute_pt",
    "unit": "004",
    "bar_index": 1,
    "pt_name": "cello_strings_repeat_b37_1761602454846_7967",
    "N": 2,
    "seeds": {
      "time": 0,
      "duration": 4,
      "pitch": 55,
      "velocity": 46,
      "numerator": 3,
      "denominator": 4
    },
    "sample_counts": {
      "time": 2,
      "duration": 2,
      "pitch": 2,
      "velocity": 2,
      "numerator": 2,
      "denominator": 2
    }
  },
  {
    "action": "execute_pt",
    "unit": "004",
    "bar_index": 1,
    "pt_name": "double_bass_strings_repeat_b37_1761602454847_5150",
    "N": 2,
    "seeds": {
      "time": 0,
      "duration": 4,
      "pitch": 38,
      "velocity": 42,
      "numerator": 3,
      "denominator": 4
    },
    "sample_counts": {
      "time": 2,
      "duration": 2,
      "pitch": 2,
      "velocity": 2,
      "numerator": 2,
      "denominator": 2
    }
  },
  {
    "action": "execute_pt",
    "unit": "004",
    "bar_index": 2,
    "pt_name": "alto_flute_winds_color_b38_1761602462185_fcc2",
    "N": 2,
    "seeds": {
      "time": 0,
      "duration": 8,
      "pitch": 79,
      "velocity": 57,
      "numerator": 3,
      "denominator": 4
    },
    "sample_counts": {
      "time": 2,
      "duration": 2,
      "pitch": 2,
      "velocity": 2,
      "numerator": 2,
      "denominator": 2
    }
  },
  {
    "action": "execute_pt",
    "unit": "004",
    "bar_index": 2,
    "pt_name": "bass_clarinet_winds_color_b38_1761602462185_503d",
    "N": 2,
    "seeds": {
      "time": 0,
      "duration": 8,
      "pitch": 58,
      "velocity": 50,
      "numerator": 3,
      "denominator": 4
    },
    "sample_counts": {
      "time": 2,
      "duration": 2,
      "pitch": 2,
      "velocity": 2,
      "numerator": 2,
      "denominator": 2
    }
  },
  {
    "action": "execute_pt",
    "unit": "004",
    "bar_index": 2,
    "pt_name": "trumpet_winds_color_b38_1761602462185_71b5",
    "N": 2,
    "seeds": {
      "time": 0,
      "duration": 8,
      "pitch": 71,
      "velocity": 60,
      "numerator": 3,
      "denominator": 4
    },
    "sample_counts": {
      "time": 2,
      "duration": 2,
      "pitch": 2,
      "velocity": 2,
      "numerator": 2,
      "denominator": 2
    }
  },
  {
    "action": "execute_pt",
    "unit": "004",
    "bar_index": 2,
    "pt_name": "violin_strings_repeat_b38_1761602462185_878c",
    "N": 2,
    "seeds": {
      "time": 0,
      "duration": 8,
      "pitch": 78,
      "velocity": 54,
      "numerator": 3,
      "denominator": 4
    },
    "sample_counts": {
      "time": 2,
      "duration": 2,
      "pitch": 2,
      "velocity": 2,
      "numerator": 2,
      "denominator": 2
    }
  },
  {
    "action": "execute_pt",
    "unit": "004",
    "bar_index": 2,
    "pt_name": "cello_strings_repeat_b38_1761602462185_a6b5",
    "N": 2,
    "seeds": {
      "time": 0,
      "duration": 8,
      "pitch": 59,
      "velocity": 48,
      "numerator": 3,
      "denominator": 4
    },
    "sample_counts": {
      "time": 2,
      "duration": 2,
      "pitch": 2,
      "velocity": 2,
      "numerator": 2,
      "denominator": 2
    }
  },
  {
    "action": "execute_pt",
    "unit": "004",
    "bar_index": 2,
    "pt_name": "double_bass_strings_repeat_b38_1761602462185_bfc9",
    "N": 2,
    "seeds": {
      "time": 0,
      "duration": 8,
      "pitch": 40,
      "velocity": 44,
      "numerator": 3,
      "denominator": 4
    },
    "sample_counts": {
      "time": 2,
      "duration": 2,
      "pitch": 2,
      "velocity": 2,
      "numerator": 2,
      "denominator": 2
    }
  },
  {
    "action": "execute_pt",
    "unit": "004",
    "bar_index": 3,
    "pt_name": "alto_flute_winds_color_b39_1761602470251_21de",
    "N": 1,
    "seeds": {
      "time": 0,
      "duration": 12,
      "pitch": 77,
      "velocity": 56,
      "numerator": 3,
      "denominator": 4
    },
    "sample_counts": {
      "time": 1,
      "duration": 1,
      "pitch": 1,
      "velocity": 1,
      "numerator": 1,
      "denominator": 1
    }
  },
  {
    "action": "execute_pt",
    "unit": "004",
    "bar_index": 3,
    "pt_name": "bass_clarinet_winds_color_b39_1761602470251_d27a",
    "N": 1,
    "seeds": {
      "time": 0,
      "duration": 12,
      "pitch": 53,
      "velocity": 49,
      "numerator": 3,
      "denominator": 4
    },
    "sample_counts": {
      "time": 1,
      "duration": 1,
      "pitch": 1,
      "velocity": 1,
      "numerator": 1,
      "denominator": 1
    }
  },
  {
    "action": "execute_pt",
    "unit": "004",
    "bar_index": 3,
    "pt_name": "trumpet_winds_color_b39_1761602470251_38a4",
    "N": 1,
    "seeds": {
      "time": 0,
      "duration": 12,
      "pitch": 69,
      "velocity": 59,
      "numerator": 3,
      "denominator": 4
    },
    "sample_counts": {
      "time": 1,
      "duration": 1,
      "pitch": 1,
      "velocity": 1,
      "numerator": 1,
      "denominator": 1
    }
  },
  {
    "action": "execute_pt",
    "unit": "004",
    "bar_index": 3,
    "pt_name": "violin_strings_repeat_b39_1761602470251_41e5",
    "N": 1,
    "seeds": {
      "time": 0,
      "duration": 12,
      "pitch": 77,
      "velocity": 53,
      "numerator": 3,
      "denominator": 4
    },
    "sample_counts": {
      "time": 1,
      "duration": 1,
      "pitch": 1,
      "velocity": 1,
      "numerator": 1,
      "denominator": 1
    }
  },
  {
    "action": "execute_pt",
    "unit": "004",
    "bar_index": 3,
    "pt_name": "cello_strings_repeat_b39_1761602470251_8a7b",
    "N": 1,
    "seeds": {
      "time": 0,
      "duration": 12,
      "pitch": 60,
      "velocity": 47,
      "numerator": 3,
      "denominator": 4
    },
    "sample_counts": {
      "time": 1,
      "duration": 1,
      "pitch": 1,
      "velocity": 1,
      "numerator": 1,
      "denominator": 1
    }
  },
  {
    "action": "execute_pt",
    "unit": "004",
    "bar_index": 3,
    "pt_name": "double_bass_strings_repeat_b39_1761602470251_ac9e",
    "N": 1,
    "seeds": {
      "time": 0,
      "duration": 12,
      "pitch": 43,
      "velocity": 43,
      "numerator": 3,
      "denominator": 4
    },
    "sample_counts": {
      "time": 1,
      "duration": 1,
      "pitch": 1,
      "velocity": 1,
      "numerator": 1,
      "denominator": 1
    }
  },
  {
    "action": "execute_pt",
    "unit": "004",
    "bar_index": 4,
    "pt_name": "alto_flute_winds_color_b40_1761602478306_bf49",
    "N": 1,
    "seeds": {
      "time": 4,
      "duration": 8,
      "pitch": 80,
      "velocity": 56,
      "numerator": 3,
      "denominator": 4
    },
    "sample_counts": {
      "time": 1,
      "duration": 1,
      "pitch": 1,
      "velocity": 1,
      "numerator": 1,
      "denominator": 1
    }
  },
  {
    "action": "execute_pt",
    "unit": "004",
    "bar_index": 4,
    "pt_name": "bass_clarinet_winds_color_b40_1761602478306_89b0",
    "N": 1,
    "seeds": {
      "time": 4,
      "duration": 8,
      "pitch": 60,
      "velocity": 50,
      "numerator": 3,
      "denominator": 4
    },
    "sample_counts": {
      "time": 1,
      "duration": 1,
      "pitch": 1,
      "velocity": 1,
      "numerator": 1,
      "denominator": 1
    }
  },
  {
    "action": "execute_pt",
    "unit": "004",
    "bar_index": 4,
    "pt_name": "trumpet_winds_color_b40_1761602478306_ccf3",
    "N": 1,
    "seeds": {
      "time": 4,
      "duration": 8,
      "pitch": 74,
      "velocity": 60,
      "numerator": 3,
      "denominator": 4
    },
    "sample_counts": {
      "time": 1,
      "duration": 1,
      "pitch": 1,
      "velocity": 1,
      "numerator": 1,
      "denominator": 1
    }
  },
  {
    "action": "execute_pt",
    "unit": "004",
    "bar_index": 4,
    "pt_name": "violin_strings_repeat_b40_1761602478306_4d88",
    "N": 1,
    "seeds": {
      "time": 0,
      "duration": 8,
      "pitch": 69,
      "velocity": 52,
      "numerator": 3,
      "denominator": 4
    },
    "sample_counts": {
      "time": 1,
      "duration": 1,
      "pitch": 1,
      "velocity": 1,
      "numerator": 1,
      "denominator": 1
    }
  },
  {
    "action": "execute_pt",
    "unit": "004",
    "bar_index": 4,
    "pt_name": "cello_strings_repeat_b40_1761602478306_8bfd",
    "N": 1,
    "seeds": {
      "time": 0,
      "duration": 8,
      "pitch": 53,
      "velocity": 46,
      "numerator": 3,
      "denominator": 4
    },
    "sample_counts": {
      "time": 1,
      "duration": 1,
      "pitch": 1,
      "velocity": 1,
      "numerator": 1,
      "denominator": 1
    }
  },
  {
    "action": "execute_pt",
    "unit": "004",
    "bar_index": 4,
    "pt_name": "double_bass_strings_repeat_b40_1761602478306_9343",
    "N": 1,
    "seeds": {
      "time": 0,
      "duration": 8,
      "pitch": 36,
      "velocity": 42,
      "numerator": 3,
      "denominator": 4
    },
    "sample_counts": {
      "time": 1,
      "duration": 1,
      "pitch": 1,
      "velocity": 1,
      "numerator": 1,
      "denominator": 1
    }
  },
  {
    "action": "execute_pt",
    "unit": "004",
    "bar_index": 5,
    "pt_name": "alto_flute_winds_color_b41_1761602486372_3b3c",
    "N": 2,
    "seeds": {
      "time": 0,
      "duration": 4,
      "pitch": 79,
      "velocity": 56,
      "numerator": 3,
      "denominator": 4
    },
    "sample_counts": {
      "time": 2,
      "duration": 2,
      "pitch": 2,
      "velocity": 2,
      "numerator": 2,
      "denominator": 2
    }
  },
  {
    "action": "execute_pt",
    "unit": "004",
    "bar_index": 5,
    "pt_name": "bass_clarinet_winds_color_b41_1761602486372_bb48",
    "N": 2,
    "seeds": {
      "time": 0,
      "duration": 4,
      "pitch": 57,
      "velocity": 49,
      "numerator": 3,
      "denominator": 4
    },
    "sample_counts": {
      "time": 2,
      "duration": 2,
      "pitch": 2,
      "velocity": 2,
      "numerator": 2,
      "denominator": 2
    }
  },
  {
    "action": "execute_pt",
    "unit": "004",
    "bar_index": 5,
    "pt_name": "trumpet_winds_color_b41_1761602486372_b187",
    "N": 2,
    "seeds": {
      "time": 0,
      "duration": 4,
      "pitch": 72,
      "velocity": 59,
      "numerator": 3,
      "denominator": 4
    },
    "sample_counts": {
      "time": 2,
      "duration": 2,
      "pitch": 2,
      "velocity": 2,
      "numerator": 2,
      "denominator": 2
    }
  },
  {
    "action": "execute_pt",
    "unit": "004",
    "bar_index": 5,
    "pt_name": "violin_strings_repeat_b41_1761602486372_75de",
    "N": 1,
    "seeds": {
      "time": 4,
      "duration": 8,
      "pitch": 74,
      "velocity": 52,
      "numerator": 3,
      "denominator": 4
    },
    "sample_counts": {
      "time": 1,
      "duration": 1,
      "pitch": 1,
      "velocity": 1,
      "numerator": 1,
      "denominator": 1
    }
  },
  {
    "action": "execute_pt",
    "unit": "004",
    "bar_index": 5,
    "pt_name": "cello_strings_repeat_b41_1761602486372_82b1",
    "N": 1,
    "seeds": {
      "time": 4,
      "duration": 8,
      "pitch": 58,
      "velocity": 46,
      "numerator": 3,
      "denominator": 4
    },
    "sample_counts": {
      "time": 1,
      "duration": 1,
      "pitch": 1,
      "velocity": 1,
      "numerator": 1,
      "denominator": 1
    }
  },
  {
    "action": "execute_pt",
    "unit": "004",
    "bar_index": 5,
    "pt_name": "double_bass_strings_repeat_b41_1761602486372_43b3",
    "N": 1,
    "seeds": {
      "time": 4,
      "duration": 8,
      "pitch": 34,
      "velocity": 42,
      "numerator": 3,
      "denominator": 4
    },
    "sample_counts": {
      "time": 1,
      "duration": 1,
      "pitch": 1,
      "velocity": 1,
      "numerator": 1,
      "denominator": 1
    }
  },
  {
    "action": "execute_pt",
    "unit": "004",
    "bar_index": 6,
    "pt_name": "alto_flute_winds_color_b42_1761602494232_f950",
    "N": 2,
    "seeds": {
      "time": 0,
      "duration": 8,
      "pitch": 76,
      "velocity": 56,
      "numerator": 3,
      "denominator": 4
    },
    "sample_counts": {
      "time": 2,
      "duration": 2,
      "pitch": 2,
      "velocity": 2,
      "numerator": 2,
      "denominator": 2
    }
  },
  {
    "action": "execute_pt",
    "unit": "004",
    "bar_index": 6,
    "pt_name": "bass_clarinet_winds_color_b42_1761602494232_f494",
    "N": 2,
    "seeds": {
      "time": 0,
      "duration": 8,
      "pitch": 55,
      "velocity": 49,
      "numerator": 3,
      "denominator": 4
    },
    "sample_counts": {
      "time": 2,
      "duration": 2,
      "pitch": 2,
      "velocity": 2,
      "numerator": 2,
      "denominator": 2
    }
  },
  {
    "action": "execute_pt",
    "unit": "004",
    "bar_index": 6,
    "pt_name": "trumpet_winds_color_b42_1761602494232_edc2",
    "N": 2,
    "seeds": {
      "time": 0,
      "duration": 8,
      "pitch": 69,
      "velocity": 59,
      "numerator": 3,
      "denominator": 4
    },
    "sample_counts": {
      "time": 2,
      "duration": 2,
      "pitch": 2,
      "velocity": 2,
      "numerator": 2,
      "denominator": 2
    }
  },
  {
    "action": "execute_pt",
    "unit": "004",
    "bar_index": 6,
    "pt_name": "violin_strings_repeat_b42_1761602494232_2a49",
    "N": 2,
    "seeds": {
      "time": 0,
      "duration": 8,
      "pitch": 79,
      "velocity": 52,
      "numerator": 3,
      "denominator": 4
    },
    "sample_counts": {
      "time": 2,
      "duration": 2,
      "pitch": 2,
      "velocity": 2,
      "numerator": 2,
      "denominator": 2
    }
  },
  {
    "action": "execute_pt",
    "unit": "004",
    "bar_index": 6,
    "pt_name": "cello_strings_repeat_b42_1761602494232_161e",
    "N": 2,
    "seeds": {
      "time": 0,
      "duration": 8,
      "pitch": 65,
      "velocity": 46,
      "numerator": 3,
      "denominator": 4
    },
    "sample_counts": {
      "time": 2,
      "duration": 2,
      "pitch": 2,
      "velocity": 2,
      "numerator": 2,
      "denominator": 2
    }
  },
  {
    "action": "execute_pt",
    "unit": "004",
    "bar_index": 6,
    "pt_name": "double_bass_strings_repeat_b42_1761602494232_31c5",
    "N": 2,
    "seeds": {
      "time": 0,
      "duration": 8,
      "pitch": 41,
      "velocity": 42,
      "numerator": 3,
      "denominator": 4
    },
    "sample_counts": {
      "time": 2,
      "duration": 2,
      "pitch": 2,
      "velocity": 2,
      "numerator": 2,
      "denominator": 2
    }
  },
  {
    "action": "execute_pt",
    "unit": "004",
    "bar_index": 7,
    "pt_name": "alto_flute_winds_color_b43_1761602502213_cf01",
    "N": 1,
    "seeds": {
      "time": 0,
      "duration": 12,
      "pitch": 75,
      "velocity": 56,
      "numerator": 3,
      "denominator": 4
    },
    "sample_counts": {
      "time": 1,
      "duration": 1,
      "pitch": 1,
      "velocity": 1,
      "numerator": 1,
      "denominator": 1
    }
  },
  {
    "action": "execute_pt",
    "unit": "004",
    "bar_index": 7,
    "pt_name": "bass_clarinet_winds_color_b43_1761602502213_abfc",
    "N": 1,
    "seeds": {
      "time": 0,
      "duration": 12,
      "pitch": 50,
      "velocity": 49,
      "numerator": 3,
      "denominator": 4
    },
    "sample_counts": {
      "time": 1,
      "duration": 1,
      "pitch": 1,
      "velocity": 1,
      "numerator": 1,
      "denominator": 1
    }
  },
  {
    "action": "execute_pt",
    "unit": "004",
    "bar_index": 7,
    "pt_name": "trumpet_winds_color_b43_1761602502213_0ce5",
    "N": 1,
    "seeds": {
      "time": 0,
      "duration": 12,
      "pitch": 69,
      "velocity": 59,
      "numerator": 3,
      "denominator": 4
    },
    "sample_counts": {
      "time": 1,
      "duration": 1,
      "pitch": 1,
      "velocity": 1,
      "numerator": 1,
      "denominator": 1
    }
  },
  {
    "action": "execute_pt",
    "unit": "004",
    "bar_index": 7,
    "pt_name": "violin_strings_repeat_b43_1761602502213_120b",
    "N": 2,
    "seeds": {
      "time": 0,
      "duration": 8,
      "pitch": 76,
      "velocity": 56,
      "numerator": 3,
      "denominator": 4
    },
    "sample_counts": {
      "time": 2,
      "duration": 2,
      "pitch": 2,
      "velocity": 2,
      "numerator": 2,
      "denominator": 2
    }
  },
  {
    "action": "execute_pt",
    "unit": "004",
    "bar_index": 7,
    "pt_name": "cello_strings_repeat_b43_1761602502213_0f9b",
    "N": 2,
    "seeds": {
      "time": 0,
      "duration": 8,
      "pitch": 62,
      "velocity": 51,
      "numerator": 3,
      "denominator": 4
    },
    "sample_counts": {
      "time": 2,
      "duration": 2,
      "pitch": 2,
      "velocity": 2,
      "numerator": 2,
      "denominator": 2
    }
  },
  {
    "action": "execute_pt",
    "unit": "004",
    "bar_index": 7,
    "pt_name": "double_bass_strings_repeat_b43_1761602502213_6ee4",
    "N": 2,
    "seeds": {
      "time": 0,
      "duration": 8,
      "pitch": 72,
      "velocity": 61,
      "numerator": 3,
      "denominator": 4
    },
    "sample_counts": {
      "time": 2,
      "duration": 2,
      "pitch": 2,
      "velocity": 2,
      "numerator": 2,
      "denominator": 2
    }
  },
  {
    "action": "execute_pt",
    "unit": "004",
    "bar_index": 8,
    "pt_name": "alto_flute_winds_color_b44_1761602509989_a8de",
    "N": 1,
    "seeds": {
      "time": 0,
      "duration": 8,
      "pitch": 78,
      "velocity": 56,
      "numerator": 3,
      "denominator": 4
    },
    "sample_counts": {
      "time": 1,
      "duration": 1,
      "pitch": 1,
      "velocity": 1,
      "numerator": 1,
      "denominator": 1
    }
  },
  {
    "action": "execute_pt",
    "unit": "004",
    "bar_index": 8,
    "pt_name": "bass_clarinet_winds_color_b44_1761602509989_25d2",
    "N": 1,
    "seeds": {
      "time": 0,
      "duration": 8,
      "pitch": 62,
      "velocity": 50,
      "numerator": 3,
      "denominator": 4
    },
    "sample_counts": {
      "time": 1,
      "duration": 1,
      "pitch": 1,
      "velocity": 1,
      "numerator": 1,
      "denominator": 1
    }
  },
  {
    "action": "execute_pt",
    "unit": "004",
    "bar_index": 8,
    "pt_name": "trumpet_winds_color_b44_1761602509989_0eda",
    "N": 1,
    "seeds": {
      "time": 0,
      "duration": 8,
      "pitch": 71,
      "velocity": 60,
      "numerator": 3,
      "denominator": 4
    },
    "sample_counts": {
      "time": 1,
      "duration": 1,
      "pitch": 1,
      "velocity": 1,
      "numerator": 1,
      "denominator": 1
    }
  },
  {
    "action": "execute_pt",
    "unit": "004",
    "bar_index": 8,
    "pt_name": "violin_strings_repeat_b44_1761602509989_ea85",
    "N": 1,
    "seeds": {
      "time": 0,
      "duration": 12,
      "pitch": 73,
      "velocity": 53,
      "numerator": 3,
      "denominator": 4
    },
    "sample_counts": {
      "time": 1,
      "duration": 1,
      "pitch": 1,
      "velocity": 1,
      "numerator": 1,
      "denominator": 1
    }
  },
  {
    "action": "execute_pt",
    "unit": "004",
    "bar_index": 8,
    "pt_name": "cello_strings_repeat_b44_1761602509989_1a61",
    "N": 1,
    "seeds": {
      "time": 0,
      "duration": 12,
      "pitch": 64,
      "velocity": 47,
      "numerator": 3,
      "denominator": 4
    },
    "sample_counts": {
      "time": 1,
      "duration": 1,
      "pitch": 1,
      "velocity": 1,
      "numerator": 1,
      "denominator": 1
    }
  },
  {
    "action": "execute_pt",
    "unit": "004",
    "bar_index": 8,
    "pt_name": "double_bass_strings_repeat_b44_1761602509989_b600",
    "N": 1,
    "seeds": {
      "time": 0,
      "duration": 12,
      "pitch": 45,
      "velocity": 43,
      "numerator": 3,
      "denominator": 4
    },
    "sample_counts": {
      "time": 1,
      "duration": 1,
      "pitch": 1,
      "velocity": 1,
      "numerator": 1,
      "denominator": 1
    }
  },
  {
    "action": "execute_pt",
    "unit": "004",
    "bar_index": 9,
    "pt_name": "alto_flute_winds_color_b45_1761602517939_cf4c",
    "N": 2,
    "seeds": {
      "time": 0,
      "duration": 4,
      "pitch": 77,
      "velocity": 56,
      "numerator": 3,
      "denominator": 4
    },
    "sample_counts": {
      "time": 2,
      "duration": 2,
      "pitch": 2,
      "velocity": 2,
      "numerator": 2,
      "denominator": 2
    }
  },
  {
    "action": "execute_pt",
    "unit": "004",
    "bar_index": 9,
    "pt_name": "bass_clarinet_winds_color_b45_1761602517939_31a3",
    "N": 2,
    "seeds": {
      "time": 0,
      "duration": 4,
      "pitch": 59,
      "velocity": 50,
      "numerator": 3,
      "denominator": 4
    },
    "sample_counts": {
      "time": 2,
      "duration": 2,
      "pitch": 2,
      "velocity": 2,
      "numerator": 2,
      "denominator": 2
    }
  },
  {
    "action": "execute_pt",
    "unit": "004",
    "bar_index": 9,
    "pt_name": "trumpet_winds_color_b45_1761602517939_651e",
    "N": 2,
    "seeds": {
      "time": 0,
      "duration": 4,
      "pitch": 74,
      "velocity": 60,
      "numerator": 3,
      "denominator": 4
    },
    "sample_counts": {
      "time": 2,
      "duration": 2,
      "pitch": 2,
      "velocity": 2,
      "numerator": 2,
      "denominator": 2
    }
  },
  {
    "action": "execute_pt",
    "unit": "004",
    "bar_index": 9,
    "pt_name": "violin_strings_repeat_b45_1761602517939_ac5b",
    "N": 2,
    "seeds": {
      "time": 0,
      "duration": 4,
      "pitch": 69,
      "velocity": 52,
      "numerator": 3,
      "denominator": 4
    },
    "sample_counts": {
      "time": 2,
      "duration": 2,
      "pitch": 2,
      "velocity": 2,
      "numerator": 2,
      "denominator": 2
    }
  },
  {
    "action": "execute_pt",
    "unit": "004",
    "bar_index": 9,
    "pt_name": "cello_strings_repeat_b45_1761602517939_78bb",
    "N": 2,
    "seeds": {
      "time": 0,
      "duration": 4,
      "pitch": 62,
      "velocity": 46,
      "numerator": 3,
      "denominator": 4
    },
    "sample_counts": {
      "time": 2,
      "duration": 2,
      "pitch": 2,
      "velocity": 2,
      "numerator": 2,
      "denominator": 2
    }
  },
  {
    "action": "execute_pt",
    "unit": "004",
    "bar_index": 9,
    "pt_name": "double_bass_strings_repeat_b45_1761602517939_b288",
    "N": 2,
    "seeds": {
      "time": 0,
      "duration": 4,
      "pitch": 47,
      "velocity": 42,
      "numerator": 3,
      "denominator": 4
    },
    "sample_counts": {
      "time": 2,
      "duration": 2,
      "pitch": 2,
      "velocity": 2,
      "numerator": 2,
      "denominator": 2
    }
  },
  {
    "action": "execute_pt",
    "unit": "004",
    "bar_index": 10,
    "pt_name": "alto_flute_winds_color_b46_1761602526292_2b74",
    "N": 2,
    "seeds": {
      "time": 0,
      "duration": 8,
      "pitch": 74,
      "velocity": 56,
      "numerator": 3,
      "denominator": 4
    },
    "sample_counts": {
      "time": 2,
      "duration": 2,
      "pitch": 2,
      "velocity": 2,
      "numerator": 2,
      "denominator": 2
    }
  },
  {
    "action": "execute_pt",
    "unit": "004",
    "bar_index": 10,
    "pt_name": "bass_clarinet_winds_color_b46_1761602526292_75c1",
    "N": 2,
    "seeds": {
      "time": 0,
      "duration": 8,
      "pitch": 61,
      "velocity": 51,
      "numerator": 3,
      "denominator": 4
    },
    "sample_counts": {
      "time": 2,
      "duration": 2,
      "pitch": 2,
      "velocity": 2,
      "numerator": 2,
      "denominator": 2
    }
  },
  {
    "action": "execute_pt",
    "unit": "004",
    "bar_index": 10,
    "pt_name": "trumpet_winds_color_b46_1761602526292_8bdd",
    "N": 2,
    "seeds": {
      "time": 0,
      "duration": 8,
      "pitch": 73,
      "velocity": 60,
      "numerator": 3,
      "denominator": 4
    },
    "sample_counts": {
      "time": 2,
      "duration": 2,
      "pitch": 2,
      "velocity": 2,
      "numerator": 2,
      "denominator": 2
    }
  },
  {
    "action": "execute_pt",
    "unit": "004",
    "bar_index": 10,
    "pt_name": "violin_strings_repeat_b46_1761602526292_9115",
    "N": 2,
    "seeds": {
      "time": 0,
      "duration": 8,
      "pitch": 71,
      "velocity": 51,
      "numerator": 3,
      "denominator": 4
    },
    "sample_counts": {
      "time": 2,
      "duration": 2,
      "pitch": 2,
      "velocity": 2,
      "numerator": 2,
      "denominator": 2
    }
  },
  {
    "action": "execute_pt",
    "unit": "004",
    "bar_index": 10,
    "pt_name": "cello_strings_repeat_b46_1761602526292_8eca",
    "N": 2,
    "seeds": {
      "time": 0,
      "duration": 8,
      "pitch": 52,
      "velocity": 47,
      "numerator": 3,
      "denominator": 4
    },
    "sample_counts": {
      "time": 2,
      "duration": 2,
      "pitch": 2,
      "velocity": 2,
      "numerator": 2,
      "denominator": 2
    }
  },
  {
    "action": "execute_pt",
    "unit": "004",
    "bar_index": 10,
    "pt_name": "double_bass_strings_repeat_b46_1761602526292_273b",
    "N": 2,
    "seeds": {
      "time": 0,
      "duration": 8,
      "pitch": 48,
      "velocity": 43,
      "numerator": 3,
      "denominator": 4
    },
    "sample_counts": {
      "time": 2,
      "duration": 2,
      "pitch": 2,
      "velocity": 2,
      "numerator": 2,
      "denominator": 2
    }
  },
  {
    "action": "execute_pt",
    "unit": "004",
    "bar_index": 11,
    "pt_name": "alto_flute_winds_color_b47_1761602535618_bb8a",
    "N": 1,
    "seeds": {
      "time": 4,
      "duration": 8,
      "pitch": 76,
      "velocity": 56,
      "numerator": 3,
      "denominator": 4
    },
    "sample_counts": {
      "time": 1,
      "duration": 1,
      "pitch": 1,
      "velocity": 1,
      "numerator": 1,
      "denominator": 1
    }
  },
  {
    "action": "execute_pt",
    "unit": "004",
    "bar_index": 11,
    "pt_name": "bass_clarinet_winds_color_b47_1761602535618_cb2c",
    "N": 1,
    "seeds": {
      "time": 4,
      "duration": 8,
      "pitch": 64,
      "velocity": 51,
      "numerator": 3,
      "denominator": 4
    },
    "sample_counts": {
      "time": 1,
      "duration": 1,
      "pitch": 1,
      "velocity": 1,
      "numerator": 1,
      "denominator": 1
    }
  },
  {
    "action": "execute_pt",
    "unit": "004",
    "bar_index": 11,
    "pt_name": "trumpet_winds_color_b47_1761602535618_918d",
    "N": 1,
    "seeds": {
      "time": 4,
      "duration": 8,
      "pitch": 80,
      "velocity": 60,
      "numerator": 3,
      "denominator": 4
    },
    "sample_counts": {
      "time": 1,
      "duration": 1,
      "pitch": 1,
      "velocity": 1,
      "numerator": 1,
      "denominator": 1
    }
  },
  {
    "action": "execute_pt",
    "unit": "004",
    "bar_index": 11,
    "pt_name": "violin_strings_repeat_b47_1761602535618_bec3",
    "N": 1,
    "seeds": {
      "time": 0,
      "duration": 12,
      "pitch": 74,
      "velocity": 52,
      "numerator": 3,
      "denominator": 4
    },
    "sample_counts": {
      "time": 1,
      "duration": 1,
      "pitch": 1,
      "velocity": 1,
      "numerator": 1,
      "denominator": 1
    }
  },
  {
    "action": "execute_pt",
    "unit": "004",
    "bar_index": 11,
    "pt_name": "cello_strings_repeat_b47_1761602535618_e4fd",
    "N": 1,
    "seeds": {
      "time": 0,
      "duration": 12,
      "pitch": 57,
      "velocity": 46,
      "numerator": 3,
      "denominator": 4
    },
    "sample_counts": {
      "time": 1,
      "duration": 1,
      "pitch": 1,
      "velocity": 1,
      "numerator": 1,
      "denominator": 1
    }
  },
  {
    "action": "execute_pt",
    "unit": "004",
    "bar_index": 11,
    "pt_name": "double_bass_strings_repeat_b47_1761602535618_73b1",
    "N": 1,
    "seeds": {
      "time": 0,
      "duration": 12,
      "pitch": 40,
      "velocity": 42,
      "numerator": 3,
      "denominator": 4
    },
    "sample_counts": {
      "time": 1,
      "duration": 1,
      "pitch": 1,
      "velocity": 1,
      "numerator": 1,
      "denominator": 1
    }
  },
  {
    "action": "execute_pt",
    "unit": "004",
    "bar_index": 12,
    "pt_name": "alto_flute_winds_color_b48_1761602543383_fa2e",
    "N": 1,
    "seeds": {
      "time": 0,
      "duration": 12,
      "pitch": 73,
      "velocity": 56,
      "numerator": 3,
      "denominator": 4
    },
    "sample_counts": {
      "time": 1,
      "duration": 1,
      "pitch": 1,
      "velocity": 1,
      "numerator": 1,
      "denominator": 1
    }
  },
  {
    "action": "execute_pt",
    "unit": "004",
    "bar_index": 12,
    "pt_name": "bass_clarinet_winds_color_b48_1761602543383_e52e",
    "N": 1,
    "seeds": {
      "time": 0,
      "duration": 12,
      "pitch": 57,
      "velocity": 50,
      "numerator": 3,
      "denominator": 4
    },
    "sample_counts": {
      "time": 1,
      "duration": 1,
      "pitch": 1,
      "velocity": 1,
      "numerator": 1,
      "denominator": 1
    }
  },
  {
    "action": "execute_pt",
    "unit": "004",
    "bar_index": 12,
    "pt_name": "trumpet_winds_color_b48_1761602543383_2e31",
    "N": 1,
    "seeds": {
      "time": 0,
      "duration": 12,
      "pitch": 69,
      "velocity": 60,
      "numerator": 3,
      "denominator": 4
    },
    "sample_counts": {
      "time": 1,
      "duration": 1,
      "pitch": 1,
      "velocity": 1,
      "numerator": 1,
      "denominator": 1
    }
  },
  {
    "action": "execute_pt",
    "unit": "004",
    "bar_index": 12,
    "pt_name": "violin_strings_repeat_b48_1761602543383_856e",
    "N": 1,
    "seeds": {
      "time": 0,
      "duration": 8,
      "pitch": 77,
      "velocity": 52,
      "numerator": 3,
      "denominator": 4
    },
    "sample_counts": {
      "time": 1,
      "duration": 1,
      "pitch": 1,
      "velocity": 1,
      "numerator": 1,
      "denominator": 1
    }
  },
  {
    "action": "execute_pt",
    "unit": "004",
    "bar_index": 12,
    "pt_name": "cello_strings_repeat_b48_1761602543383_4d9e",
    "N": 1,
    "seeds": {
      "time": 0,
      "duration": 8,
      "pitch": 56,
      "velocity": 46,
      "numerator": 3,
      "denominator": 4
    },
    "sample_counts": {
      "time": 1,
      "duration": 1,
      "pitch": 1,
      "velocity": 1,
      "numerator": 1,
      "denominator": 1
    }
  },
  {
    "action": "execute_pt",
    "unit": "004",
    "bar_index": 12,
    "pt_name": "double_bass_strings_repeat_b48_1761602543383_ea6d",
    "N": 1,
    "seeds": {
      "time": 0,
      "duration": 8,
      "pitch": 44,
      "velocity": 42,
      "numerator": 3,
      "denominator": 4
    },
    "sample_counts": {
      "time": 1,
      "duration": 1,
      "pitch": 1,
      "velocity": 1,
      "numerator": 1,
      "denominator": 1
    }
  },
  {
    "action": "execute_pt",
    "unit": "004",
    "bar_index": 13,
    "pt_name": "alto_flute_winds_color_b43_1761602551286_7361",
    "N": 1,
    "seeds": {
      "time": 0,
      "duration": 12,
      "pitch": 75,
      "velocity": 56,
      "numerator": 3,
      "denominator": 4
    },
    "sample_counts": {
      "time": 1,
      "duration": 1,
      "pitch": 1,
      "velocity": 1,
      "numerator": 1,
      "denominator": 1
    }
  },
  {
    "action": "execute_pt",
    "unit": "004",
    "bar_index": 13,
    "pt_name": "bass_clarinet_winds_color_b43_1761602551286_5d01",
    "N": 1,
    "seeds": {
      "time": 0,
      "duration": 12,
      "pitch": 50,
      "velocity": 49,
      "numerator": 3,
      "denominator": 4
    },
    "sample_counts": {
      "time": 1,
      "duration": 1,
      "pitch": 1,
      "velocity": 1,
      "numerator": 1,
      "denominator": 1
    }
  },
  {
    "action": "execute_pt",
    "unit": "004",
    "bar_index": 13,
    "pt_name": "trumpet_winds_color_b43_1761602551286_bfcb",
    "N": 1,
    "seeds": {
      "time": 0,
      "duration": 12,
      "pitch": 69,
      "velocity": 59,
      "numerator": 3,
      "denominator": 4
    },
    "sample_counts": {
      "time": 1,
      "duration": 1,
      "pitch": 1,
      "velocity": 1,
      "numerator": 1,
      "denominator": 1
    }
  },
  {
    "action": "execute_pt",
    "unit": "004",
    "bar_index": 13,
    "pt_name": "violin_strings_repeat_b43_1761602551286_321e",
    "N": 2,
    "seeds": {
      "time": 0,
      "duration": 4,
      "pitch": 74,
      "velocity": 52,
      "numerator": 3,
      "denominator": 4
    },
    "sample_counts": {
      "time": 2,
      "duration": 2,
      "pitch": 2,
      "velocity": 2,
      "numerator": 2,
      "denominator": 2
    }
  },
  {
    "action": "execute_pt",
    "unit": "004",
    "bar_index": 13,
    "pt_name": "cello_strings_repeat_b43_1761602551286_6763",
    "N": 2,
    "seeds": {
      "time": 0,
      "duration": 4,
      "pitch": 55,
      "velocity": 46,
      "numerator": 3,
      "denominator": 4
    },
    "sample_counts": {
      "time": 2,
      "duration": 2,
      "pitch": 2,
      "velocity": 2,
      "numerator": 2,
      "denominator": 2
    }
  },
  {
    "action": "execute_pt",
    "unit": "004",
    "bar_index": 13,
    "pt_name": "double_bass_strings_repeat_b43_1761602551286_c4d4",
    "N": 2,
    "seeds": {
      "time": 0,
      "duration": 4,
      "pitch": 39,
      "velocity": 42,
      "numerator": 3,
      "denominator": 4
    },
    "sample_counts": {
      "time": 2,
      "duration": 2,
      "pitch": 2,
      "velocity": 2,
      "numerator": 2,
      "denominator": 2
    }
  },
  {
    "action": "execute_pt",
    "unit": "004",
    "bar_index": 14,
    "pt_name": "alto_flute_winds_color_b37_1761602559347_bd89",
    "N": 2,
    "seeds": {
      "time": 0,
      "duration": 8,
      "pitch": 79,
      "velocity": 57,
      "numerator": 3,
      "denominator": 4
    },
    "sample_counts": {
      "time": 2,
      "duration": 2,
      "pitch": 2,
      "velocity": 2,
      "numerator": 2,
      "denominator": 2
    }
  },
  {
    "action": "execute_pt",
    "unit": "004",
    "bar_index": 14,
    "pt_name": "bass_clarinet_winds_color_b37_1761602559347_52c1",
    "N": 2,
    "seeds": {
      "time": 0,
      "duration": 8,
      "pitch": 58,
      "velocity": 50,
      "numerator": 3,
      "denominator": 4
    },
    "sample_counts": {
      "time": 2,
      "duration": 2,
      "pitch": 2,
      "velocity": 2,
      "numerator": 2,
      "denominator": 2
    }
  },
  {
    "action": "execute_pt",
    "unit": "004",
    "bar_index": 14,
    "pt_name": "trumpet_winds_color_b37_1761602559347_7ccf",
    "N": 2,
    "seeds": {
      "time": 0,
      "duration": 8,
      "pitch": 71,
      "velocity": 60,
      "numerator": 3,
      "denominator": 4
    },
    "sample_counts": {
      "time": 2,
      "duration": 2,
      "pitch": 2,
      "velocity": 2,
      "numerator": 2,
      "denominator": 2
    }
  },
  {
    "action": "execute_pt",
    "unit": "004",
    "bar_index": 14,
    "pt_name": "violin_strings_repeat_b37_1761602559347_a611",
    "N": 1,
    "seeds": {
      "time": 0,
      "duration": 12,
      "pitch": 78,
      "velocity": 57,
      "numerator": 3,
      "denominator": 4
    },
    "sample_counts": {
      "time": 1,
      "duration": 1,
      "pitch": 1,
      "velocity": 1,
      "numerator": 1,
      "denominator": 1
    }
  },
  {
    "action": "execute_pt",
    "unit": "004",
    "bar_index": 14,
    "pt_name": "cello_strings_repeat_b37_1761602559347_202b",
    "N": 1,
    "seeds": {
      "time": 0,
      "duration": 12,
      "pitch": 61,
      "velocity": 52,
      "numerator": 3,
      "denominator": 4
    },
    "sample_counts": {
      "time": 1,
      "duration": 1,
      "pitch": 1,
      "velocity": 1,
      "numerator": 1,
      "denominator": 1
    }
  },
  {
    "action": "execute_pt",
    "unit": "004",
    "bar_index": 14,
    "pt_name": "double_bass_strings_repeat_b37_1761602559347_2ae8",
    "N": 1,
    "seeds": {
      "time": 0,
      "duration": 12,
      "pitch": 73,
      "velocity": 61,
      "numerator": 3,
      "denominator": 4
    },
    "sample_counts": {
      "time": 1,
      "duration": 1,
      "pitch": 1,
      "velocity": 1,
      "numerator": 1,
      "denominator": 1
    }
  },
  {
    "action": "execute_pt",
    "unit": "004",
    "bar_index": 15,
    "pt_name": "alto_flute_winds_color_b38_1761602567337_1ec4",
    "N": 2,
    "seeds": {
      "time": 0,
      "duration": 4,
      "pitch": 74,
      "velocity": 55,
      "numerator": 3,
      "denominator": 4
    },
    "sample_counts": {
      "time": 2,
      "duration": 2,
      "pitch": 2,
      "velocity": 2,
      "numerator": 2,
      "denominator": 2
    }
  },
  {
    "action": "execute_pt",
    "unit": "004",
    "bar_index": 15,
    "pt_name": "bass_clarinet_winds_color_b38_1761602567337_b257",
    "N": 2,
    "seeds": {
      "time": 0,
      "duration": 4,
      "pitch": 62,
      "velocity": 51,
      "numerator": 3,
      "denominator": 4
    },
    "sample_counts": {
      "time": 2,
      "duration": 2,
      "pitch": 2,
      "velocity": 2,
      "numerator": 2,
      "denominator": 2
    }
  },
  {
    "action": "execute_pt",
    "unit": "004",
    "bar_index": 15,
    "pt_name": "trumpet_winds_color_b38_1761602567337_75d1",
    "N": 2,
    "seeds": {
      "time": 0,
      "duration": 4,
      "pitch": 71,
      "velocity": 60,
      "numerator": 3,
      "denominator": 4
    },
    "sample_counts": {
      "time": 2,
      "duration": 2,
      "pitch": 2,
      "velocity": 2,
      "numerator": 2,
      "denominator": 2
    }
  },
  {
    "action": "execute_pt",
    "unit": "004",
    "bar_index": 15,
    "pt_name": "violin_strings_repeat_b38_1761602567337_e89a",
    "N": 2,
    "seeds": {
      "time": 0,
      "duration": 4,
      "pitch": 74,
      "velocity": 52,
      "numerator": 3,
      "denominator": 4
    },
    "sample_counts": {
      "time": 2,
      "duration": 2,
      "pitch": 2,
      "velocity": 2,
      "numerator": 2,
      "denominator": 2
    }
  },
  {
    "action": "execute_pt",
    "unit": "004",
    "bar_index": 15,
    "pt_name": "cello_strings_repeat_b38_1761602567337_22c2",
    "N": 2,
    "seeds": {
      "time": 0,
      "duration": 4,
      "pitch": 55,
      "velocity": 46,
      "numerator": 3,
      "denominator": 4
    },
    "sample_counts": {
      "time": 2,
      "duration": 2,
      "pitch": 2,
      "velocity": 2,
      "numerator": 2,
      "denominator": 2
    }
  },
  {
    "action": "execute_pt",
    "unit": "004",
    "bar_index": 15,
    "pt_name": "double_bass_strings_repeat_b38_1761602567337_cac5",
    "N": 2,
    "seeds": {
      "time": 0,
      "duration": 4,
      "pitch": 39,
      "velocity": 42,
      "numerator": 3,
      "denominator": 4
    },
    "sample_counts": {
      "time": 2,
      "duration": 2,
      "pitch": 2,
      "velocity": 2,
      "numerator": 2,
      "denominator": 2
    }
  },
  {
    "action": "execute_pt",
    "unit": "004",
    "bar_index": 16,
    "pt_name": "alto_flute_winds_color_b39_1761602575161_f08a",
    "N": 2,
    "seeds": {
      "time": 0,
      "duration": 8,
      "pitch": 76,
      "velocity": 56,
      "numerator": 3,
      "denominator": 4
    },
    "sample_counts": {
      "time": 2,
      "duration": 2,
      "pitch": 2,
      "velocity": 2,
      "numerator": 2,
      "denominator": 2
    }
  },
  {
    "action": "execute_pt",
    "unit": "004",
    "bar_index": 16,
    "pt_name": "bass_clarinet_winds_color_b39_1761602575161_b26f",
    "N": 2,
    "seeds": {
      "time": 0,
      "duration": 8,
      "pitch": 55,
      "velocity": 49,
      "numerator": 3,
      "denominator": 4
    },
    "sample_counts": {
      "time": 2,
      "duration": 2,
      "pitch": 2,
      "velocity": 2,
      "numerator": 2,
      "denominator": 2
    }
  },
  {
    "action": "execute_pt",
    "unit": "004",
    "bar_index": 16,
    "pt_name": "trumpet_winds_color_b39_1761602575161_157c",
    "N": 2,
    "seeds": {
      "time": 0,
      "duration": 8,
      "pitch": 69,
      "velocity": 59,
      "numerator": 3,
      "denominator": 4
    },
    "sample_counts": {
      "time": 2,
      "duration": 2,
      "pitch": 2,
      "velocity": 2,
      "numerator": 2,
      "denominator": 2
    }
  },
  {
    "action": "execute_pt",
    "unit": "004",
    "bar_index": 16,
    "pt_name": "violin_strings_repeat_b39_1761602575161_585c",
    "N": 2,
    "seeds": {
      "time": 0,
      "duration": 8,
      "pitch": 79,
      "velocity": 52,
      "numerator": 3,
      "denominator": 4
    },
    "sample_counts": {
      "time": 2,
      "duration": 2,
      "pitch": 2,
      "velocity": 2,
      "numerator": 2,
      "denominator": 2
    }
  },
  {
    "action": "execute_pt",
    "unit": "004",
    "bar_index": 16,
    "pt_name": "cello_strings_repeat_b39_1761602575161_b7a8",
    "N": 2,
    "seeds": {
      "time": 0,
      "duration": 8,
      "pitch": 65,
      "velocity": 46,
      "numerator": 3,
      "denominator": 4
    },
    "sample_counts": {
      "time": 2,
      "duration": 2,
      "pitch": 2,
      "velocity": 2,
      "numerator": 2,
      "denominator": 2
    }
  },
  {
    "action": "execute_pt",
    "unit": "004",
    "bar_index": 16,
    "pt_name": "double_bass_strings_repeat_b39_1761602575161_f8d5",
    "N": 2,
    "seeds": {
      "time": 0,
      "duration": 8,
      "pitch": 41,
      "velocity": 42,
      "numerator": 3,
      "denominator": 4
    },
    "sample_counts": {
      "time": 2,
      "duration": 2,
      "pitch": 2,
      "velocity": 2,
      "numerator": 2,
      "denominator": 2
    }
  },
  {
    "action": "execute_pt",
    "unit": "005",
    "bar_index": 1,
    "pt_name": "alto_flute_homophony_b49_1761602878155_cae8",
    "N": 2,
    "seeds": {
      "time": 0,
      "duration": 4,
      "pitch": 61,
      "velocity": 56,
      "numerator": 3,
      "denominator": 4
    },
    "sample_counts": {
      "time": 2,
      "duration": 2,
      "pitch": 2,
      "velocity": 2,
      "numerator": 2,
      "denominator": 2
    }
  },
  {
    "action": "execute_pt",
    "unit": "005",
    "bar_index": 1,
    "pt_name": "bass_clarinet_homophony_b49_1761602878155_538f",
    "N": 2,
    "seeds": {
      "time": 0,
      "duration": 4,
      "pitch": 54,
      "velocity": 50,
      "numerator": 3,
      "denominator": 4
    },
    "sample_counts": {
      "time": 2,
      "duration": 2,
      "pitch": 2,
      "velocity": 2,
      "numerator": 2,
      "denominator": 2
    }
  },
  {
    "action": "execute_pt",
    "unit": "005",
    "bar_index": 1,
    "pt_name": "trumpet_homophony_b49_1761602878155_85a0",
    "N": 2,
    "seeds": {
      "time": 0,
      "duration": 4,
      "pitch": 74,
      "velocity": 60,
      "numerator": 3,
      "denominator": 4
    },
    "sample_counts": {
      "time": 2,
      "duration": 2,
      "pitch": 2,
      "velocity": 2,
      "numerator": 2,
      "denominator": 2
    }
  },
  {
    "action": "execute_pt",
    "unit": "005",
    "bar_index": 1,
    "pt_name": "violin_homophony_b49_1761602878155_5101",
    "N": 2,
    "seeds": {
      "time": 0,
      "duration": 4,
      "pitch": 64,
      "velocity": 52,
      "numerator": 3,
      "denominator": 4
    },
    "sample_counts": {
      "time": 2,
      "duration": 2,
      "pitch": 2,
      "velocity": 2,
      "numerator": 2,
      "denominator": 2
    }
  },
  {
    "action": "execute_pt",
    "unit": "005",
    "bar_index": 1,
    "pt_name": "cello_homophony_b49_1761602878155_dd75",
    "N": 2,
    "seeds": {
      "time": 0,
      "duration": 4,
      "pitch": 52,
      "velocity": 50,
      "numerator": 3,
      "denominator": 4
    },
    "sample_counts": {
      "time": 2,
      "duration": 2,
      "pitch": 2,
      "velocity": 2,
      "numerator": 2,
      "denominator": 2
    }
  },
  {
    "action": "execute_pt",
    "unit": "005",
    "bar_index": 1,
    "pt_name": "double_bass_homophony_b49_1761602878155_e90a",
    "N": 2,
    "seeds": {
      "time": 0,
      "duration": 4,
      "pitch": 40,
      "velocity": 48,
      "numerator": 3,
      "denominator": 4
    },
    "sample_counts": {
      "time": 2,
      "duration": 2,
      "pitch": 2,
      "velocity": 2,
      "numerator": 2,
      "denominator": 2
    }
  },
  {
    "action": "execute_pt",
    "unit": "005",
    "bar_index": 2,
    "pt_name": "alto_flute_homophony_b50_1761602886062_bb06",
    "N": 2,
    "seeds": {
      "time": 0,
      "duration": 8,
      "pitch": 60,
      "velocity": 58,
      "numerator": 3,
      "denominator": 4
    },
    "sample_counts": {
      "time": 2,
      "duration": 2,
      "pitch": 2,
      "velocity": 2,
      "numerator": 2,
      "denominator": 2
    }
  },
  {
    "action": "execute_pt",
    "unit": "005",
    "bar_index": 2,
    "pt_name": "bass_clarinet_homophony_b50_1761602886063_64e0",
    "N": 2,
    "seeds": {
      "time": 0,
      "duration": 8,
      "pitch": 57,
      "velocity": 52,
      "numerator": 3,
      "denominator": 4
    },
    "sample_counts": {
      "time": 2,
      "duration": 2,
      "pitch": 2,
      "velocity": 2,
      "numerator": 2,
      "denominator": 2
    }
  },
  {
    "action": "execute_pt",
    "unit": "005",
    "bar_index": 2,
    "pt_name": "trumpet_homophony_b50_1761602886063_9929",
    "N": 2,
    "seeds": {
      "time": 0,
      "duration": 8,
      "pitch": 74,
      "velocity": 62,
      "numerator": 3,
      "denominator": 4
    },
    "sample_counts": {
      "time": 2,
      "duration": 2,
      "pitch": 2,
      "velocity": 2,
      "numerator": 2,
      "denominator": 2
    }
  },
  {
    "action": "execute_pt",
    "unit": "005",
    "bar_index": 2,
    "pt_name": "violin_homophony_b50_1761602886063_906d",
    "N": 2,
    "seeds": {
      "time": 0,
      "duration": 8,
      "pitch": 69,
      "velocity": 54,
      "numerator": 3,
      "denominator": 4
    },
    "sample_counts": {
      "time": 2,
      "duration": 2,
      "pitch": 2,
      "velocity": 2,
      "numerator": 2,
      "denominator": 2
    }
  },
  {
    "action": "execute_pt",
    "unit": "005",
    "bar_index": 2,
    "pt_name": "cello_homophony_b50_1761602886063_47c7",
    "N": 2,
    "seeds": {
      "time": 0,
      "duration": 8,
      "pitch": 50,
      "velocity": 52,
      "numerator": 3,
      "denominator": 4
    },
    "sample_counts": {
      "time": 2,
      "duration": 2,
      "pitch": 2,
      "velocity": 2,
      "numerator": 2,
      "denominator": 2
    }
  },
  {
    "action": "execute_pt",
    "unit": "005",
    "bar_index": 2,
    "pt_name": "double_bass_homophony_b50_1761602886063_076f",
    "N": 2,
    "seeds": {
      "time": 0,
      "duration": 8,
      "pitch": 43,
      "velocity": 50,
      "numerator": 3,
      "denominator": 4
    },
    "sample_counts": {
      "time": 2,
      "duration": 2,
      "pitch": 2,
      "velocity": 2,
      "numerator": 2,
      "denominator": 2
    }
  },
  {
    "action": "execute_pt",
    "unit": "005",
    "bar_index": 3,
    "pt_name": "alto_flute_homophony_b51_1761602894189_5297",
    "N": 1,
    "seeds": {
      "time": 0,
      "duration": 8,
      "pitch": 67,
      "velocity": 57,
      "numerator": 3,
      "denominator": 4
    },
    "sample_counts": {
      "time": 1,
      "duration": 1,
      "pitch": 1,
      "velocity": 1,
      "numerator": 1,
      "denominator": 1
    }
  },
  {
    "action": "execute_pt",
    "unit": "005",
    "bar_index": 3,
    "pt_name": "bass_clarinet_homophony_b51_1761602894189_ae0e",
    "N": 1,
    "seeds": {
      "time": 0,
      "duration": 8,
      "pitch": 52,
      "velocity": 51,
      "numerator": 3,
      "denominator": 4
    },
    "sample_counts": {
      "time": 1,
      "duration": 1,
      "pitch": 1,
      "velocity": 1,
      "numerator": 1,
      "denominator": 1
    }
  },
  {
    "action": "execute_pt",
    "unit": "005",
    "bar_index": 3,
    "pt_name": "trumpet_homophony_b51_1761602894189_279f",
    "N": 1,
    "seeds": {
      "time": 0,
      "duration": 8,
      "pitch": 74,
      "velocity": 61,
      "numerator": 3,
      "denominator": 4
    },
    "sample_counts": {
      "time": 1,
      "duration": 1,
      "pitch": 1,
      "velocity": 1,
      "numerator": 1,
      "denominator": 1
    }
  },
  {
    "action": "execute_pt",
    "unit": "005",
    "bar_index": 3,
    "pt_name": "violin_homophony_b51_1761602894189_293e",
    "N": 1,
    "seeds": {
      "time": 0,
      "duration": 8,
      "pitch": 71,
      "velocity": 53,
      "numerator": 3,
      "denominator": 4
    },
    "sample_counts": {
      "time": 1,
      "duration": 1,
      "pitch": 1,
      "velocity": 1,
      "numerator": 1,
      "denominator": 1
    }
  },
  {
    "action": "execute_pt",
    "unit": "005",
    "bar_index": 3,
    "pt_name": "cello_homophony_b51_1761602894189_9d36",
    "N": 1,
    "seeds": {
      "time": 0,
      "duration": 8,
      "pitch": 50,
      "velocity": 51,
      "numerator": 3,
      "denominator": 4
    },
    "sample_counts": {
      "time": 1,
      "duration": 1,
      "pitch": 1,
      "velocity": 1,
      "numerator": 1,
      "denominator": 1
    }
  },
  {
    "action": "execute_pt",
    "unit": "005",
    "bar_index": 3,
    "pt_name": "double_bass_homophony_b51_1761602894189_3057",
    "N": 1,
    "seeds": {
      "time": 0,
      "duration": 8,
      "pitch": 38,
      "velocity": 49,
      "numerator": 3,
      "denominator": 4
    },
    "sample_counts": {
      "time": 1,
      "duration": 1,
      "pitch": 1,
      "velocity": 1,
      "numerator": 1,
      "denominator": 1
    }
  },
  {
    "action": "execute_pt",
    "unit": "005",
    "bar_index": 4,
    "pt_name": "alto_flute_homophony_b52_1761602901776_fb47",
    "N": 1,
    "seeds": {
      "time": 0,
      "duration": 12,
      "pitch": 58,
      "velocity": 59,
      "numerator": 3,
      "denominator": 4
    },
    "sample_counts": {
      "time": 1,
      "duration": 1,
      "pitch": 1,
      "velocity": 1,
      "numerator": 1,
      "denominator": 1
    }
  },
  {
    "action": "execute_pt",
    "unit": "005",
    "bar_index": 4,
    "pt_name": "bass_clarinet_homophony_b52_1761602901776_b3df",
    "N": 1,
    "seeds": {
      "time": 0,
      "duration": 12,
      "pitch": 50,
      "velocity": 53,
      "numerator": 3,
      "denominator": 4
    },
    "sample_counts": {
      "time": 1,
      "duration": 1,
      "pitch": 1,
      "velocity": 1,
      "numerator": 1,
      "denominator": 1
    }
  },
  {
    "action": "execute_pt",
    "unit": "005",
    "bar_index": 4,
    "pt_name": "trumpet_homophony_b52_1761602901776_c94a",
    "N": 1,
    "seeds": {
      "time": 0,
      "duration": 12,
      "pitch": 67,
      "velocity": 63,
      "numerator": 3,
      "denominator": 4
    },
    "sample_counts": {
      "time": 1,
      "duration": 1,
      "pitch": 1,
      "velocity": 1,
      "numerator": 1,
      "denominator": 1
    }
  },
  {
    "action": "execute_pt",
    "unit": "005",
    "bar_index": 4,
    "pt_name": "violin_homophony_b52_1761602901776_1bdf",
    "N": 1,
    "seeds": {
      "time": 0,
      "duration": 12,
      "pitch": 65,
      "velocity": 55,
      "numerator": 3,
      "denominator": 4
    },
    "sample_counts": {
      "time": 1,
      "duration": 1,
      "pitch": 1,
      "velocity": 1,
      "numerator": 1,
      "denominator": 1
    }
  },
  {
    "action": "execute_pt",
    "unit": "005",
    "bar_index": 4,
    "pt_name": "cello_homophony_b52_1761602901776_9d01",
    "N": 1,
    "seeds": {
      "time": 0,
      "duration": 12,
      "pitch": 48,
      "velocity": 53,
      "numerator": 3,
      "denominator": 4
    },
    "sample_counts": {
      "time": 1,
      "duration": 1,
      "pitch": 1,
      "velocity": 1,
      "numerator": 1,
      "denominator": 1
    }
  },
  {
    "action": "execute_pt",
    "unit": "005",
    "bar_index": 4,
    "pt_name": "double_bass_homophony_b52_1761602901776_6770",
    "N": 1,
    "seeds": {
      "time": 0,
      "duration": 12,
      "pitch": 41,
      "velocity": 51,
      "numerator": 3,
      "denominator": 4
    },
    "sample_counts": {
      "time": 1,
      "duration": 1,
      "pitch": 1,
      "velocity": 1,
      "numerator": 1,
      "denominator": 1
    }
  },
  {
    "action": "execute_pt",
    "unit": "005",
    "bar_index": 5,
    "pt_name": "alto_flute_homophony_b53_1761602908911_c381",
    "N": 1,
    "seeds": {
      "time": 4,
      "duration": 8,
      "pitch": 60,
      "velocity": 60,
      "numerator": 3,
      "denominator": 4
    },
    "sample_counts": {
      "time": 1,
      "duration": 1,
      "pitch": 1,
      "velocity": 1,
      "numerator": 1,
      "denominator": 1
    }
  },
  {
    "action": "execute_pt",
    "unit": "005",
    "bar_index": 5,
    "pt_name": "bass_clarinet_homophony_b53_1761602908911_b24a",
    "N": 1,
    "seeds": {
      "time": 4,
      "duration": 8,
      "pitch": 61,
      "velocity": 54,
      "numerator": 3,
      "denominator": 4
    },
    "sample_counts": {
      "time": 1,
      "duration": 1,
      "pitch": 1,
      "velocity": 1,
      "numerator": 1,
      "denominator": 1
    }
  },
  {
    "action": "execute_pt",
    "unit": "005",
    "bar_index": 5,
    "pt_name": "trumpet_homophony_b53_1761602908911_8a03",
    "N": 1,
    "seeds": {
      "time": 4,
      "duration": 8,
      "pitch": 73,
      "velocity": 64,
      "numerator": 3,
      "denominator": 4
    },
    "sample_counts": {
      "time": 1,
      "duration": 1,
      "pitch": 1,
      "velocity": 1,
      "numerator": 1,
      "denominator": 1
    }
  },
  {
    "action": "execute_pt",
    "unit": "005",
    "bar_index": 5,
    "pt_name": "violin_homophony_b53_1761602908911_c0b2",
    "N": 1,
    "seeds": {
      "time": 4,
      "duration": 8,
      "pitch": 76,
      "velocity": 56,
      "numerator": 3,
      "denominator": 4
    },
    "sample_counts": {
      "time": 1,
      "duration": 1,
      "pitch": 1,
      "velocity": 1,
      "numerator": 1,
      "denominator": 1
    }
  },
  {
    "action": "execute_pt",
    "unit": "005",
    "bar_index": 5,
    "pt_name": "cello_homophony_b53_1761602908911_008b",
    "N": 1,
    "seeds": {
      "time": 4,
      "duration": 8,
      "pitch": 54,
      "velocity": 54,
      "numerator": 3,
      "denominator": 4
    },
    "sample_counts": {
      "time": 1,
      "duration": 1,
      "pitch": 1,
      "velocity": 1,
      "numerator": 1,
      "denominator": 1
    }
  },
  {
    "action": "execute_pt",
    "unit": "005",
    "bar_index": 5,
    "pt_name": "double_bass_homophony_b53_1761602908911_ba24",
    "N": 1,
    "seeds": {
      "time": 4,
      "duration": 8,
      "pitch": 35,
      "velocity": 52,
      "numerator": 3,
      "denominator": 4
    },
    "sample_counts": {
      "time": 1,
      "duration": 1,
      "pitch": 1,
      "velocity": 1,
      "numerator": 1,
      "denominator": 1
    }
  },
  {
    "action": "execute_pt",
    "unit": "005",
    "bar_index": 6,
    "pt_name": "alto_flute_homophony_b54_1761602916702_2997",
    "N": 2,
    "seeds": {
      "time": 0,
      "duration": 4,
      "pitch": 64,
      "velocity": 62,
      "numerator": 3,
      "denominator": 4
    },
    "sample_counts": {
      "time": 2,
      "duration": 2,
      "pitch": 2,
      "velocity": 2,
      "numerator": 2,
      "denominator": 2
    }
  },
  {
    "action": "execute_pt",
    "unit": "005",
    "bar_index": 6,
    "pt_name": "bass_clarinet_homophony_b54_1761602916703_b302",
    "N": 2,
    "seeds": {
      "time": 0,
      "duration": 4,
      "pitch": 57,
      "velocity": 56,
      "numerator": 3,
      "denominator": 4
    },
    "sample_counts": {
      "time": 2,
      "duration": 2,
      "pitch": 2,
      "velocity": 2,
      "numerator": 2,
      "denominator": 2
    }
  },
  {
    "action": "execute_pt",
    "unit": "005",
    "bar_index": 6,
    "pt_name": "trumpet_homophony_b54_1761602916703_e0d8",
    "N": 2,
    "seeds": {
      "time": 0,
      "duration": 4,
      "pitch": 74,
      "velocity": 66,
      "numerator": 3,
      "denominator": 4
    },
    "sample_counts": {
      "time": 2,
      "duration": 2,
      "pitch": 2,
      "velocity": 2,
      "numerator": 2,
      "denominator": 2
    }
  },
  {
    "action": "execute_pt",
    "unit": "005",
    "bar_index": 6,
    "pt_name": "violin_homophony_b54_1761602916703_1b13",
    "N": 2,
    "seeds": {
      "time": 0,
      "duration": 4,
      "pitch": 69,
      "velocity": 58,
      "numerator": 3,
      "denominator": 4
    },
    "sample_counts": {
      "time": 2,
      "duration": 2,
      "pitch": 2,
      "velocity": 2,
      "numerator": 2,
      "denominator": 2
    }
  },
  {
    "action": "execute_pt",
    "unit": "005",
    "bar_index": 6,
    "pt_name": "cello_homophony_b54_1761602916703_9492",
    "N": 2,
    "seeds": {
      "time": 0,
      "duration": 4,
      "pitch": 50,
      "velocity": 56,
      "numerator": 3,
      "denominator": 4
    },
    "sample_counts": {
      "time": 2,
      "duration": 2,
      "pitch": 2,
      "velocity": 2,
      "numerator": 2,
      "denominator": 2
    }
  },
  {
    "action": "execute_pt",
    "unit": "005",
    "bar_index": 6,
    "pt_name": "double_bass_homophony_b54_1761602916703_ec40",
    "N": 2,
    "seeds": {
      "time": 0,
      "duration": 4,
      "pitch": 38,
      "velocity": 54,
      "numerator": 3,
      "denominator": 4
    },
    "sample_counts": {
      "time": 2,
      "duration": 2,
      "pitch": 2,
      "velocity": 2,
      "numerator": 2,
      "denominator": 2
    }
  },
  {
    "action": "execute_pt",
    "unit": "005",
    "bar_index": 7,
    "pt_name": "alto_flute_homophony_b55_1761602924166_5f3b",
    "N": 2,
    "seeds": {
      "time": 0,
      "duration": 8,
      "pitch": 57,
      "velocity": 61,
      "numerator": 3,
      "denominator": 4
    },
    "sample_counts": {
      "time": 2,
      "duration": 2,
      "pitch": 2,
      "velocity": 2,
      "numerator": 2,
      "denominator": 2
    }
  },
  {
    "action": "execute_pt",
    "unit": "005",
    "bar_index": 7,
    "pt_name": "bass_clarinet_homophony_b55_1761602924166_1291",
    "N": 2,
    "seeds": {
      "time": 0,
      "duration": 8,
      "pitch": 62,
      "velocity": 55,
      "numerator": 3,
      "denominator": 4
    },
    "sample_counts": {
      "time": 2,
      "duration": 2,
      "pitch": 2,
      "velocity": 2,
      "numerator": 2,
      "denominator": 2
    }
  },
  {
    "action": "execute_pt",
    "unit": "005",
    "bar_index": 7,
    "pt_name": "trumpet_homophony_b55_1761602924166_3f93",
    "N": 2,
    "seeds": {
      "time": 0,
      "duration": 8,
      "pitch": 76,
      "velocity": 65,
      "numerator": 3,
      "denominator": 4
    },
    "sample_counts": {
      "time": 2,
      "duration": 2,
      "pitch": 2,
      "velocity": 2,
      "numerator": 2,
      "denominator": 2
    }
  },
  {
    "action": "execute_pt",
    "unit": "005",
    "bar_index": 7,
    "pt_name": "violin_homophony_b55_1761602924166_7a87",
    "N": 2,
    "seeds": {
      "time": 0,
      "duration": 8,
      "pitch": 71,
      "velocity": 57,
      "numerator": 3,
      "denominator": 4
    },
    "sample_counts": {
      "time": 2,
      "duration": 2,
      "pitch": 2,
      "velocity": 2,
      "numerator": 2,
      "denominator": 2
    }
  },
  {
    "action": "execute_pt",
    "unit": "005",
    "bar_index": 7,
    "pt_name": "cello_homophony_b55_1761602924166_c872",
    "N": 2,
    "seeds": {
      "time": 0,
      "duration": 8,
      "pitch": 52,
      "velocity": 55,
      "numerator": 3,
      "denominator": 4
    },
    "sample_counts": {
      "time": 2,
      "duration": 2,
      "pitch": 2,
      "velocity": 2,
      "numerator": 2,
      "denominator": 2
    }
  },
  {
    "action": "execute_pt",
    "unit": "005",
    "bar_index": 7,
    "pt_name": "double_bass_homophony_b55_1761602924166_8d53",
    "N": 2,
    "seeds": {
      "time": 0,
      "duration": 8,
      "pitch": 45,
      "velocity": 53,
      "numerator": 3,
      "denominator": 4
    },
    "sample_counts": {
      "time": 2,
      "duration": 2,
      "pitch": 2,
      "velocity": 2,
      "numerator": 2,
      "denominator": 2
    }
  },
  {
    "action": "execute_pt",
    "unit": "005",
    "bar_index": 8,
    "pt_name": "alto_flute_homophony_b56_1761602932112_6169",
    "N": 1,
    "seeds": {
      "time": 0,
      "duration": 12,
      "pitch": 60,
      "velocity": 58,
      "numerator": 3,
      "denominator": 4
    },
    "sample_counts": {
      "time": 1,
      "duration": 1,
      "pitch": 1,
      "velocity": 1,
      "numerator": 1,
      "denominator": 1
    }
  },
  {
    "action": "execute_pt",
    "unit": "005",
    "bar_index": 8,
    "pt_name": "bass_clarinet_homophony_b56_1761602932112_bf39",
    "N": 1,
    "seeds": {
      "time": 0,
      "duration": 12,
      "pitch": 53,
      "velocity": 53,
      "numerator": 3,
      "denominator": 4
    },
    "sample_counts": {
      "time": 1,
      "duration": 1,
      "pitch": 1,
      "velocity": 1,
      "numerator": 1,
      "denominator": 1
    }
  },
  {
    "action": "execute_pt",
    "unit": "005",
    "bar_index": 8,
    "pt_name": "trumpet_homophony_b56_1761602932112_7d74",
    "N": 1,
    "seeds": {
      "time": 0,
      "duration": 12,
      "pitch": 72,
      "velocity": 63,
      "numerator": 3,
      "denominator": 4
    },
    "sample_counts": {
      "time": 1,
      "duration": 1,
      "pitch": 1,
      "velocity": 1,
      "numerator": 1,
      "denominator": 1
    }
  },
  {
    "action": "execute_pt",
    "unit": "005",
    "bar_index": 8,
    "pt_name": "violin_homophony_b56_1761602932112_dfd8",
    "N": 1,
    "seeds": {
      "time": 0,
      "duration": 12,
      "pitch": 67,
      "velocity": 55,
      "numerator": 3,
      "denominator": 4
    },
    "sample_counts": {
      "time": 1,
      "duration": 1,
      "pitch": 1,
      "velocity": 1,
      "numerator": 1,
      "denominator": 1
    }
  },
  {
    "action": "execute_pt",
    "unit": "005",
    "bar_index": 8,
    "pt_name": "cello_homophony_b56_1761602932112_7eba",
    "N": 1,
    "seeds": {
      "time": 0,
      "duration": 12,
      "pitch": 55,
      "velocity": 53,
      "numerator": 3,
      "denominator": 4
    },
    "sample_counts": {
      "time": 1,
      "duration": 1,
      "pitch": 1,
      "velocity": 1,
      "numerator": 1,
      "denominator": 1
    }
  },
  {
    "action": "execute_pt",
    "unit": "005",
    "bar_index": 8,
    "pt_name": "double_bass_homophony_b56_1761602932112_24ec",
    "N": 1,
    "seeds": {
      "time": 0,
      "duration": 12,
      "pitch": 36,
      "velocity": 51,
      "numerator": 3,
      "denominator": 4
    },
    "sample_counts": {
      "time": 1,
      "duration": 1,
      "pitch": 1,
      "velocity": 1,
      "numerator": 1,
      "denominator": 1
    }
  },
  {
    "action": "execute_pt",
    "unit": "005",
    "bar_index": 9,
    "pt_name": "alto_flute_homophony_b57_1761602939632_3578",
    "N": 1,
    "seeds": {
      "time": 0,
      "duration": 8,
      "pitch": 62,
      "velocity": 54,
      "numerator": 3,
      "denominator": 4
    },
    "sample_counts": {
      "time": 1,
      "duration": 1,
      "pitch": 1,
      "velocity": 1,
      "numerator": 1,
      "denominator": 1
    }
  },
  {
    "action": "execute_pt",
    "unit": "005",
    "bar_index": 9,
    "pt_name": "bass_clarinet_homophony_b57_1761602939632_cb92",
    "N": 1,
    "seeds": {
      "time": 0,
      "duration": 8,
      "pitch": 57,
      "velocity": 50,
      "numerator": 3,
      "denominator": 4
    },
    "sample_counts": {
      "time": 1,
      "duration": 1,
      "pitch": 1,
      "velocity": 1,
      "numerator": 1,
      "denominator": 1
    }
  },
  {
    "action": "execute_pt",
    "unit": "005",
    "bar_index": 9,
    "pt_name": "trumpet_homophony_b57_1761602939632_d0b5",
    "N": 1,
    "seeds": {
      "time": 0,
      "duration": 8,
      "pitch": 74,
      "velocity": 60,
      "numerator": 3,
      "denominator": 4
    },
    "sample_counts": {
      "time": 1,
      "duration": 1,
      "pitch": 1,
      "velocity": 1,
      "numerator": 1,
      "denominator": 1
    }
  },
  {
    "action": "execute_pt",
    "unit": "005",
    "bar_index": 9,
    "pt_name": "violin_homophony_b57_1761602939632_0389",
    "N": 1,
    "seeds": {
      "time": 0,
      "duration": 8,
      "pitch": 67,
      "velocity": 52,
      "numerator": 3,
      "denominator": 4
    },
    "sample_counts": {
      "time": 1,
      "duration": 1,
      "pitch": 1,
      "velocity": 1,
      "numerator": 1,
      "denominator": 1
    }
  },
  {
    "action": "execute_pt",
    "unit": "005",
    "bar_index": 9,
    "pt_name": "cello_homophony_b57_1761602939632_c01d",
    "N": 1,
    "seeds": {
      "time": 0,
      "duration": 8,
      "pitch": 50,
      "velocity": 50,
      "numerator": 3,
      "denominator": 4
    },
    "sample_counts": {
      "time": 1,
      "duration": 1,
      "pitch": 1,
      "velocity": 1,
      "numerator": 1,
      "denominator": 1
    }
  },
  {
    "action": "execute_pt",
    "unit": "005",
    "bar_index": 9,
    "pt_name": "double_bass_homophony_b57_1761602939632_f12f",
    "N": 1,
    "seeds": {
      "time": 0,
      "duration": 8,
      "pitch": 43,
      "velocity": 48,
      "numerator": 3,
      "denominator": 4
    },
    "sample_counts": {
      "time": 1,
      "duration": 1,
      "pitch": 1,
      "velocity": 1,
      "numerator": 1,
      "denominator": 1
    }
  },
  {
    "action": "execute_pt",
    "unit": "005",
    "bar_index": 10,
    "pt_name": "alto_flute_homophony_b58_1761602946863_fdfa",
    "N": 2,
    "seeds": {
      "time": 0,
      "duration": 4,
      "pitch": 61,
      "velocity": 51,
      "numerator": 3,
      "denominator": 4
    },
    "sample_counts": {
      "time": 2,
      "duration": 2,
      "pitch": 2,
      "velocity": 2,
      "numerator": 2,
      "denominator": 2
    }
  },
  {
    "action": "execute_pt",
    "unit": "005",
    "bar_index": 10,
    "pt_name": "bass_clarinet_homophony_b58_1761602946863_179d",
    "N": 2,
    "seeds": {
      "time": 0,
      "duration": 4,
      "pitch": 59,
      "velocity": 48,
      "numerator": 3,
      "denominator": 4
    },
    "sample_counts": {
      "time": 2,
      "duration": 2,
      "pitch": 2,
      "velocity": 2,
      "numerator": 2,
      "denominator": 2
    }
  },
  {
    "action": "execute_pt",
    "unit": "005",
    "bar_index": 10,
    "pt_name": "trumpet_homophony_b58_1761602946863_055c",
    "N": 2,
    "seeds": {
      "time": 0,
      "duration": 4,
      "pitch": 73,
      "velocity": 57,
      "numerator": 3,
      "denominator": 4
    },
    "sample_counts": {
      "time": 2,
      "duration": 2,
      "pitch": 2,
      "velocity": 2,
      "numerator": 2,
      "denominator": 2
    }
  },
  {
    "action": "execute_pt",
    "unit": "005",
    "bar_index": 10,
    "pt_name": "violin_homophony_b58_1761602946863_5e90",
    "N": 2,
    "seeds": {
      "time": 0,
      "duration": 4,
      "pitch": 68,
      "velocity": 49,
      "numerator": 3,
      "denominator": 4
    },
    "sample_counts": {
      "time": 2,
      "duration": 2,
      "pitch": 2,
      "velocity": 2,
      "numerator": 2,
      "denominator": 2
    }
  },
  {
    "action": "execute_pt",
    "unit": "005",
    "bar_index": 10,
    "pt_name": "cello_homophony_b58_1761602946863_d8d8",
    "N": 2,
    "seeds": {
      "time": 0,
      "duration": 4,
      "pitch": 49,
      "velocity": 47,
      "numerator": 3,
      "denominator": 4
    },
    "sample_counts": {
      "time": 2,
      "duration": 2,
      "pitch": 2,
      "velocity": 2,
      "numerator": 2,
      "denominator": 2
    }
  },
  {
    "action": "execute_pt",
    "unit": "005",
    "bar_index": 10,
    "pt_name": "double_bass_homophony_b58_1761602946863_7005",
    "N": 2,
    "seeds": {
      "time": 0,
      "duration": 4,
      "pitch": 42,
      "velocity": 45,
      "numerator": 3,
      "denominator": 4
    },
    "sample_counts": {
      "time": 2,
      "duration": 2,
      "pitch": 2,
      "velocity": 2,
      "numerator": 2,
      "denominator": 2
    }
  },
  {
    "action": "execute_pt",
    "unit": "005",
    "bar_index": 11,
    "pt_name": "alto_flute_homophony_b59_1761602953945_c6d0",
    "N": 2,
    "seeds": {
      "time": 0,
      "duration": 8,
      "pitch": 66,
      "velocity": 49,
      "numerator": 3,
      "denominator": 4
    },
    "sample_counts": {
      "time": 2,
      "duration": 2,
      "pitch": 2,
      "velocity": 2,
      "numerator": 2,
      "denominator": 2
    }
  },
  {
    "action": "execute_pt",
    "unit": "005",
    "bar_index": 11,
    "pt_name": "bass_clarinet_homophony_b59_1761602953945_b821",
    "N": 2,
    "seeds": {
      "time": 0,
      "duration": 8,
      "pitch": 61,
      "velocity": 46,
      "numerator": 3,
      "denominator": 4
    },
    "sample_counts": {
      "time": 2,
      "duration": 2,
      "pitch": 2,
      "velocity": 2,
      "numerator": 2,
      "denominator": 2
    }
  },
  {
    "action": "execute_pt",
    "unit": "005",
    "bar_index": 11,
    "pt_name": "trumpet_homophony_b59_1761602953945_96c7",
    "N": 2,
    "seeds": {
      "time": 0,
      "duration": 8,
      "pitch": 78,
      "velocity": 55,
      "numerator": 3,
      "denominator": 4
    },
    "sample_counts": {
      "time": 2,
      "duration": 2,
      "pitch": 2,
      "velocity": 2,
      "numerator": 2,
      "denominator": 2
    }
  },
  {
    "action": "execute_pt",
    "unit": "005",
    "bar_index": 11,
    "pt_name": "violin_homophony_b59_1761602953945_a5a7",
    "N": 2,
    "seeds": {
      "time": 0,
      "duration": 8,
      "pitch": 73,
      "velocity": 47,
      "numerator": 3,
      "denominator": 4
    },
    "sample_counts": {
      "time": 2,
      "duration": 2,
      "pitch": 2,
      "velocity": 2,
      "numerator": 2,
      "denominator": 2
    }
  },
  {
    "action": "execute_pt",
    "unit": "005",
    "bar_index": 11,
    "pt_name": "cello_homophony_b59_1761602953945_fc8c",
    "N": 2,
    "seeds": {
      "time": 0,
      "duration": 8,
      "pitch": 54,
      "velocity": 45,
      "numerator": 3,
      "denominator": 4
    },
    "sample_counts": {
      "time": 2,
      "duration": 2,
      "pitch": 2,
      "velocity": 2,
      "numerator": 2,
      "denominator": 2
    }
  },
  {
    "action": "execute_pt",
    "unit": "005",
    "bar_index": 11,
    "pt_name": "double_bass_homophony_b59_1761602953945_88c6",
    "N": 2,
    "seeds": {
      "time": 0,
      "duration": 8,
      "pitch": 47,
      "velocity": 43,
      "numerator": 3,
      "denominator": 4
    },
    "sample_counts": {
      "time": 2,
      "duration": 2,
      "pitch": 2,
      "velocity": 2,
      "numerator": 2,
      "denominator": 2
    }
  },
  {
    "action": "execute_pt",
    "unit": "005",
    "bar_index": 12,
    "pt_name": "alto_flute_homophony_b60_1761602961811_dd46",
    "N": 1,
    "seeds": {
      "time": 0,
      "duration": 12,
      "pitch": 67,
      "velocity": 46,
      "numerator": 3,
      "denominator": 4
    },
    "sample_counts": {
      "time": 1,
      "duration": 1,
      "pitch": 1,
      "velocity": 1,
      "numerator": 1,
      "denominator": 1
    }
  },
  {
    "action": "execute_pt",
    "unit": "005",
    "bar_index": 12,
    "pt_name": "bass_clarinet_homophony_b60_1761602961811_8a33",
    "N": 1,
    "seeds": {
      "time": 0,
      "duration": 12,
      "pitch": 52,
      "velocity": 44,
      "numerator": 3,
      "denominator": 4
    },
    "sample_counts": {
      "time": 1,
      "duration": 1,
      "pitch": 1,
      "velocity": 1,
      "numerator": 1,
      "denominator": 1
    }
  },
  {
    "action": "execute_pt",
    "unit": "005",
    "bar_index": 12,
    "pt_name": "trumpet_homophony_b60_1761602961811_b2b5",
    "N": 1,
    "seeds": {
      "time": 0,
      "duration": 12,
      "pitch": 74,
      "velocity": 46,
      "numerator": 3,
      "denominator": 4
    },
    "sample_counts": {
      "time": 1,
      "duration": 1,
      "pitch": 1,
      "velocity": 1,
      "numerator": 1,
      "denominator": 1
    }
  },
  {
    "action": "execute_pt",
    "unit": "005",
    "bar_index": 12,
    "pt_name": "violin_homophony_b60_1761602961811_9b2a",
    "N": 1,
    "seeds": {
      "time": 0,
      "duration": 12,
      "pitch": 69,
      "velocity": 43,
      "numerator": 3,
      "denominator": 4
    },
    "sample_counts": {
      "time": 1,
      "duration": 1,
      "pitch": 1,
      "velocity": 1,
      "numerator": 1,
      "denominator": 1
    }
  },
  {
    "action": "execute_pt",
    "unit": "005",
    "bar_index": 12,
    "pt_name": "cello_homophony_b60_1761602961811_3888",
    "N": 1,
    "seeds": {
      "time": 0,
      "duration": 12,
      "pitch": 57,
      "velocity": 42,
      "numerator": 3,
      "denominator": 4
    },
    "sample_counts": {
      "time": 1,
      "duration": 1,
      "pitch": 1,
      "velocity": 1,
      "numerator": 1,
      "denominator": 1
    }
  },
  {
    "action": "execute_pt",
    "unit": "005",
    "bar_index": 12,
    "pt_name": "double_bass_homophony_b60_1761602961811_41dd",
    "N": 1,
    "seeds": {
      "time": 0,
      "duration": 12,
      "pitch": 38,
      "velocity": 40,
      "numerator": 3,
      "denominator": 4
    },
    "sample_counts": {
      "time": 1,
      "duration": 1,
      "pitch": 1,
      "velocity": 1,
      "numerator": 1,
      "denominator": 1
    }
  },
  {
    "action": "execute_pt",
    "unit": "005",
    "bar_index": 13,
    "pt_name": "alto_flute_homophony_b48_1761602968903_9ddd",
    "N": 2,
    "seeds": {
      "time": 0,
      "duration": 4,
      "pitch": 63,
      "velocity": 58,
      "numerator": 3,
      "denominator": 4
    },
    "sample_counts": {
      "time": 2,
      "duration": 2,
      "pitch": 2,
      "velocity": 2,
      "numerator": 2,
      "denominator": 2
    }
  },
  {
    "action": "execute_pt",
    "unit": "005",
    "bar_index": 13,
    "pt_name": "bass_clarinet_homophony_b48_1761602968903_220e",
    "N": 2,
    "seeds": {
      "time": 0,
      "duration": 4,
      "pitch": 56,
      "velocity": 52,
      "numerator": 3,
      "denominator": 4
    },
    "sample_counts": {
      "time": 2,
      "duration": 2,
      "pitch": 2,
      "velocity": 2,
      "numerator": 2,
      "denominator": 2
    }
  },
  {
    "action": "execute_pt",
    "unit": "005",
    "bar_index": 13,
    "pt_name": "trumpet_homophony_b48_1761602968903_f232",
    "N": 2,
    "seeds": {
      "time": 0,
      "duration": 4,
      "pitch": 72,
      "velocity": 62,
      "numerator": 3,
      "denominator": 4
    },
    "sample_counts": {
      "time": 2,
      "duration": 2,
      "pitch": 2,
      "velocity": 2,
      "numerator": 2,
      "denominator": 2
    }
  },
  {
    "action": "execute_pt",
    "unit": "005",
    "bar_index": 13,
    "pt_name": "violin_homophony_b48_1761602968903_9664",
    "N": 2,
    "seeds": {
      "time": 0,
      "duration": 4,
      "pitch": 66,
      "velocity": 54,
      "numerator": 3,
      "denominator": 4
    },
    "sample_counts": {
      "time": 2,
      "duration": 2,
      "pitch": 2,
      "velocity": 2,
      "numerator": 2,
      "denominator": 2
    }
  },
  {
    "action": "execute_pt",
    "unit": "005",
    "bar_index": 13,
    "pt_name": "cello_homophony_b48_1761602968903_f0ff",
    "N": 2,
    "seeds": {
      "time": 0,
      "duration": 4,
      "pitch": 51,
      "velocity": 52,
      "numerator": 3,
      "denominator": 4
    },
    "sample_counts": {
      "time": 2,
      "duration": 2,
      "pitch": 2,
      "velocity": 2,
      "numerator": 2,
      "denominator": 2
    }
  },
  {
    "action": "execute_pt",
    "unit": "005",
    "bar_index": 13,
    "pt_name": "double_bass_homophony_b48_1761602968903_46be",
    "N": 2,
    "seeds": {
      "time": 0,
      "duration": 4,
      "pitch": 39,
      "velocity": 50,
      "numerator": 3,
      "denominator": 4
    },
    "sample_counts": {
      "time": 2,
      "duration": 2,
      "pitch": 2,
      "velocity": 2,
      "numerator": 2,
      "denominator": 2
    }
  },
  {
    "action": "execute_pt",
    "unit": "005",
    "bar_index": 14,
    "pt_name": "alto_flute_homophony_b49_1761602976559_c86a",
    "N": 2,
    "seeds": {
      "time": 0,
      "duration": 8,
      "pitch": 65,
      "velocity": 57,
      "numerator": 3,
      "denominator": 4
    },
    "sample_counts": {
      "time": 2,
      "duration": 2,
      "pitch": 2,
      "velocity": 2,
      "numerator": 2,
      "denominator": 2
    }
  },
  {
    "action": "execute_pt",
    "unit": "005",
    "bar_index": 14,
    "pt_name": "bass_clarinet_homophony_b49_1761602976559_4d8a",
    "N": 2,
    "seeds": {
      "time": 0,
      "duration": 8,
      "pitch": 60,
      "velocity": 51,
      "numerator": 3,
      "denominator": 4
    },
    "sample_counts": {
      "time": 2,
      "duration": 2,
      "pitch": 2,
      "velocity": 2,
      "numerator": 2,
      "denominator": 2
    }
  },
  {
    "action": "execute_pt",
    "unit": "005",
    "bar_index": 14,
    "pt_name": "trumpet_homophony_b49_1761602976559_56a1",
    "N": 2,
    "seeds": {
      "time": 0,
      "duration": 8,
      "pitch": 71,
      "velocity": 61,
      "numerator": 3,
      "denominator": 4
    },
    "sample_counts": {
      "time": 2,
      "duration": 2,
      "pitch": 2,
      "velocity": 2,
      "numerator": 2,
      "denominator": 2
    }
  },
  {
    "action": "execute_pt",
    "unit": "005",
    "bar_index": 14,
    "pt_name": "violin_homophony_b49_1761602976559_c4c7",
    "N": 2,
    "seeds": {
      "time": 0,
      "duration": 8,
      "pitch": 70,
      "velocity": 53,
      "numerator": 3,
      "denominator": 4
    },
    "sample_counts": {
      "time": 2,
      "duration": 2,
      "pitch": 2,
      "velocity": 2,
      "numerator": 2,
      "denominator": 2
    }
  },
  {
    "action": "execute_pt",
    "unit": "005",
    "bar_index": 14,
    "pt_name": "cello_homophony_b49_1761602976559_f122",
    "N": 2,
    "seeds": {
      "time": 0,
      "duration": 8,
      "pitch": 52,
      "velocity": 51,
      "numerator": 3,
      "denominator": 4
    },
    "sample_counts": {
      "time": 2,
      "duration": 2,
      "pitch": 2,
      "velocity": 2,
      "numerator": 2,
      "denominator": 2
    }
  },
  {
    "action": "execute_pt",
    "unit": "005",
    "bar_index": 14,
    "pt_name": "double_bass_homophony_b49_1761602976559_700b",
    "N": 2,
    "seeds": {
      "time": 0,
      "duration": 8,
      "pitch": 44,
      "velocity": 49,
      "numerator": 3,
      "denominator": 4
    },
    "sample_counts": {
      "time": 2,
      "duration": 2,
      "pitch": 2,
      "velocity": 2,
      "numerator": 2,
      "denominator": 2
    }
  },
  {
    "action": "execute_pt",
    "unit": "005",
    "bar_index": 15,
    "pt_name": "alto_flute_homophony_b50_1761602983920_0e66",
    "N": 2,
    "seeds": {
      "time": 0,
      "duration": 4,
      "pitch": 63,
      "velocity": 59,
      "numerator": 3,
      "denominator": 4
    },
    "sample_counts": {
      "time": 2,
      "duration": 2,
      "pitch": 2,
      "velocity": 2,
      "numerator": 2,
      "denominator": 2
    }
  },
  {
    "action": "execute_pt",
    "unit": "005",
    "bar_index": 15,
    "pt_name": "bass_clarinet_homophony_b50_1761602983920_3aeb",
    "N": 2,
    "seeds": {
      "time": 0,
      "duration": 4,
      "pitch": 56,
      "velocity": 53,
      "numerator": 3,
      "denominator": 4
    },
    "sample_counts": {
      "time": 2,
      "duration": 2,
      "pitch": 2,
      "velocity": 2,
      "numerator": 2,
      "denominator": 2
    }
  },
  {
    "action": "execute_pt",
    "unit": "005",
    "bar_index": 15,
    "pt_name": "trumpet_homophony_b50_1761602983920_b6ea",
    "N": 2,
    "seeds": {
      "time": 0,
      "duration": 4,
      "pitch": 70,
      "velocity": 63,
      "numerator": 3,
      "denominator": 4
    },
    "sample_counts": {
      "time": 2,
      "duration": 2,
      "pitch": 2,
      "velocity": 2,
      "numerator": 2,
      "denominator": 2
    }
  },
  {
    "action": "execute_pt",
    "unit": "005",
    "bar_index": 15,
    "pt_name": "violin_homophony_b50_1761602983920_5bb2",
    "N": 2,
    "seeds": {
      "time": 0,
      "duration": 4,
      "pitch": 68,
      "velocity": 55,
      "numerator": 3,
      "denominator": 4
    },
    "sample_counts": {
      "time": 2,
      "duration": 2,
      "pitch": 2,
      "velocity": 2,
      "numerator": 2,
      "denominator": 2
    }
  },
  {
    "action": "execute_pt",
    "unit": "005",
    "bar_index": 15,
    "pt_name": "cello_homophony_b50_1761602983920_e90c",
    "N": 2,
    "seeds": {
      "time": 0,
      "duration": 4,
      "pitch": 50,
      "velocity": 53,
      "numerator": 3,
      "denominator": 4
    },
    "sample_counts": {
      "time": 2,
      "duration": 2,
      "pitch": 2,
      "velocity": 2,
      "numerator": 2,
      "denominator": 2
    }
  },
  {
    "action": "execute_pt",
    "unit": "005",
    "bar_index": 15,
    "pt_name": "double_bass_homophony_b50_1761602983920_4c15",
    "N": 2,
    "seeds": {
      "time": 0,
      "duration": 4,
      "pitch": 39,
      "velocity": 51,
      "numerator": 3,
      "denominator": 4
    },
    "sample_counts": {
      "time": 2,
      "duration": 2,
      "pitch": 2,
      "velocity": 2,
      "numerator": 2,
      "denominator": 2
    }
  },
  {
    "action": "execute_pt",
    "unit": "005",
    "bar_index": 16,
    "pt_name": "alto_flute_homophony_b59_1761602995528_0d31",
    "N": 1,
    "seeds": {
      "time": 0,
      "duration": 12,
      "pitch": 66,
      "velocity": 49,
      "numerator": 3,
      "denominator": 4
    },
    "sample_counts": {
      "time": 1,
      "duration": 1,
      "pitch": 1,
      "velocity": 1,
      "numerator": 1,
      "denominator": 1
    }
  },
  {
    "action": "execute_pt",
    "unit": "005",
    "bar_index": 16,
    "pt_name": "bass_clarinet_homophony_b59_1761602995528_ad69",
    "N": 1,
    "seeds": {
      "time": 0,
      "duration": 12,
      "pitch": 61,
      "velocity": 46,
      "numerator": 3,
      "denominator": 4
    },
    "sample_counts": {
      "time": 1,
      "duration": 1,
      "pitch": 1,
      "velocity": 1,
      "numerator": 1,
      "denominator": 1
    }
  },
  {
    "action": "execute_pt",
    "unit": "005",
    "bar_index": 16,
    "pt_name": "trumpet_homophony_b59_1761602995528_8fd5",
    "N": 1,
    "seeds": {
      "time": 0,
      "duration": 12,
      "pitch": 78,
      "velocity": 55,
      "numerator": 3,
      "denominator": 4
    },
    "sample_counts": {
      "time": 1,
      "duration": 1,
      "pitch": 1,
      "velocity": 1,
      "numerator": 1,
      "denominator": 1
    }
  },
  {
    "action": "execute_pt",
    "unit": "005",
    "bar_index": 16,
    "pt_name": "violin_homophony_b59_1761602995528_614f",
    "N": 1,
    "seeds": {
      "time": 0,
      "duration": 12,
      "pitch": 73,
      "velocity": 47,
      "numerator": 3,
      "denominator": 4
    },
    "sample_counts": {
      "time": 1,
      "duration": 1,
      "pitch": 1,
      "velocity": 1,
      "numerator": 1,
      "denominator": 1
    }
  },
  {
    "action": "execute_pt",
    "unit": "005",
    "bar_index": 16,
    "pt_name": "cello_homophony_b59_1761602995528_9216",
    "N": 1,
    "seeds": {
      "time": 0,
      "duration": 12,
      "pitch": 54,
      "velocity": 45,
      "numerator": 3,
      "denominator": 4
    },
    "sample_counts": {
      "time": 1,
      "duration": 1,
      "pitch": 1,
      "velocity": 1,
      "numerator": 1,
      "denominator": 1
    }
  },
  {
    "action": "execute_pt",
    "unit": "005",
    "bar_index": 16,
    "pt_name": "double_bass_homophony_b59_1761602995528_6b69",
    "N": 1,
    "seeds": {
      "time": 0,
      "duration": 12,
      "pitch": 47,
      "velocity": 43,
      "numerator": 3,
      "denominator": 4
    },
    "sample_counts": {
      "time": 1,
      "duration": 1,
      "pitch": 1,
      "velocity": 1,
      "numerator": 1,
      "denominator": 1
    }
  },
  {
    "action": "execute_pt",
    "unit": "005",
    "bar_index": 17,
    "pt_name": "alto_flute_homophony_b60_1761603002967_7d67",
    "N": 1,
    "seeds": {
      "time": 0,
      "duration": 8,
      "pitch": 67,
      "velocity": 46,
      "numerator": 3,
      "denominator": 4
    },
    "sample_counts": {
      "time": 1,
      "duration": 1,
      "pitch": 1,
      "velocity": 1,
      "numerator": 1,
      "denominator": 1
    }
  },
  {
    "action": "execute_pt",
    "unit": "005",
    "bar_index": 17,
    "pt_name": "bass_clarinet_homophony_b60_1761603002967_84e7",
    "N": 1,
    "seeds": {
      "time": 0,
      "duration": 8,
      "pitch": 52,
      "velocity": 44,
      "numerator": 3,
      "denominator": 4
    },
    "sample_counts": {
      "time": 1,
      "duration": 1,
      "pitch": 1,
      "velocity": 1,
      "numerator": 1,
      "denominator": 1
    }
  },
  {
    "action": "execute_pt",
    "unit": "005",
    "bar_index": 17,
    "pt_name": "trumpet_homophony_b60_1761603002967_f777",
    "N": 1,
    "seeds": {
      "time": 0,
      "duration": 8,
      "pitch": 74,
      "velocity": 46,
      "numerator": 3,
      "denominator": 4
    },
    "sample_counts": {
      "time": 1,
      "duration": 1,
      "pitch": 1,
      "velocity": 1,
      "numerator": 1,
      "denominator": 1
    }
  },
  {
    "action": "execute_pt",
    "unit": "005",
    "bar_index": 17,
    "pt_name": "violin_homophony_b60_1761603002967_13de",
    "N": 1,
    "seeds": {
      "time": 0,
      "duration": 8,
      "pitch": 69,
      "velocity": 43,
      "numerator": 3,
      "denominator": 4
    },
    "sample_counts": {
      "time": 1,
      "duration": 1,
      "pitch": 1,
      "velocity": 1,
      "numerator": 1,
      "denominator": 1
    }
  },
  {
    "action": "execute_pt",
    "unit": "005",
    "bar_index": 17,
    "pt_name": "cello_homophony_b60_1761603002967_1ac7",
    "N": 1,
    "seeds": {
      "time": 0,
      "duration": 8,
      "pitch": 57,
      "velocity": 42,
      "numerator": 3,
      "denominator": 4
    },
    "sample_counts": {
      "time": 1,
      "duration": 1,
      "pitch": 1,
      "velocity": 1,
      "numerator": 1,
      "denominator": 1
    }
  },
  {
    "action": "execute_pt",
    "unit": "005",
    "bar_index": 17,
    "pt_name": "double_bass_homophony_b60_1761603002968_7dae",
    "N": 1,
    "seeds": {
      "time": 0,
      "duration": 8,
      "pitch": 38,
      "velocity": 40,
      "numerator": 3,
      "denominator": 4
    },
    "sample_counts": {
      "time": 1,
      "duration": 1,
      "pitch": 1,
      "velocity": 1,
      "numerator": 1,
      "denominator": 1
    }
  }
]