[
  {
    "action": "execute_pt",
    "unit": "001",
    "bar_index": 1,
    "pt_name": "alto_flute_line_b1_1761606651942_40d8",
    "N": 3,
    "seeds": {
      "time": 0,
      "duration": 2,
      "pitch": 69,
      "velocity": 30,
      "numerator": 3,
      "denominator": 4
    },
    "sample_counts": {
      "time": 3,
      "duration": 3,
      "pitch": 3,
      "velocity": 3,
      "numerator": 3,
      "denominator": 3
    }
  },
  {
    "action": "execute_pt",
    "unit": "001",
    "bar_index": 1,
    "pt_name": "bass_clarinet_line_b1_1761606651942_1ac3",
    "N": 2,
    "seeds": {
      "time": 0,
      "duration": 3,
      "pitch": 59,
      "velocity": 29,
      "numerator": 3,
      "denominator": 4
    },
    "sample_counts": {
      "time": 2,
      "duration": 2,
      "pitch": 2,
      "velocity": 2,
      "numerator": 2,
      "denominator": 2
    }
  },
  {
    "action": "execute_pt",
    "unit": "001",
    "bar_index": 1,
    "pt_name": "trumpet_sustain_b1_1761606651942_4048",
    "N": 1,
    "seeds": {
      "time": 0,
      "duration": 4,
      "pitch": 71,
      "velocity": 30,
      "numerator": 3,
      "denominator": 4
    },
    "sample_counts": {
      "time": 1,
      "duration": 1,
      "pitch": 1,
      "velocity": 1,
      "numerator": 1,
      "denominator": 1
    }
  },
  {
    "action": "execute_pt",
    "unit": "001",
    "bar_index": 1,
    "pt_name": "violin_line_b1_1761606651942_6efe",
    "N": 3,
    "seeds": {
      "time": 0,
      "duration": 1,
      "pitch": 67,
      "velocity": 31,
      "numerator": 3,
      "denominator": 4
    },
    "sample_counts": {
      "time": 3,
      "duration": 3,
      "pitch": 3,
      "velocity": 3,
      "numerator": 3,
      "denominator": 3
    }
  },
  {
    "action": "execute_pt",
    "unit": "001",
    "bar_index": 1,
    "pt_name": "cello_line_b1_1761606651942_329c",
    "N": 2,
    "seeds": {
      "time": 0,
      "duration": 3,
      "pitch": 60,
      "velocity": 30,
      "numerator": 3,
      "denominator": 4
    },
    "sample_counts": {
      "time": 2,
      "duration": 2,
      "pitch": 2,
      "velocity": 2,
      "numerator": 2,
      "denominator": 2
    }
  },
  {
    "action": "execute_pt",
    "unit": "001",
    "bar_index": 1,
    "pt_name": "double_bass_pedal_b1_1761606651942_3bf2",
    "N": 1,
    "seeds": {
      "time": 0,
      "duration": 3,
      "pitch": 40,
      "velocity": 29,
      "numerator": 3,
      "denominator": 4
    },
    "sample_counts": {
      "time": 1,
      "duration": 1,
      "pitch": 1,
      "velocity": 1,
      "numerator": 1,
      "denominator": 1
    }
  },
  {
    "action": "execute_pt",
    "unit": "001",
    "bar_index": 2,
    "pt_name": "alto_flute_line_b2_1761606659818_6431",
    "N": 2,
    "seeds": {
      "time": 0,
      "duration": 2,
      "pitch": 69,
      "velocity": 29,
      "numerator": 3,
      "denominator": 4
    },
    "sample_counts": {
      "time": 2,
      "duration": 2,
      "pitch": 2,
      "velocity": 2,
      "numerator": 2,
      "denominator": 2
    }
  },
  {
    "action": "execute_pt",
    "unit": "001",
    "bar_index": 2,
    "pt_name": "bass_clarinet_line_b2_1761606659818_0025",
    "N": 3,
    "seeds": {
      "time": 0,
      "duration": 2,
      "pitch": 55,
      "velocity": 30,
      "numerator": 3,
      "denominator": 4
    },
    "sample_counts": {
      "time": 3,
      "duration": 3,
      "pitch": 3,
      "velocity": 3,
      "numerator": 3,
      "denominator": 3
    }
  },
  {
    "action": "execute_pt",
    "unit": "001",
    "bar_index": 2,
    "pt_name": "trumpet_sustain_b2_1761606659818_0856",
    "N": 2,
    "seeds": {
      "time": 0,
      "duration": 3,
      "pitch": 72,
      "velocity": 30,
      "numerator": 3,
      "denominator": 4
    },
    "sample_counts": {
      "time": 2,
      "duration": 2,
      "pitch": 2,
      "velocity": 2,
      "numerator": 2,
      "denominator": 2
    }
  },
  {
    "action": "execute_pt",
    "unit": "001",
    "bar_index": 2,
    "pt_name": "violin_line_b2_1761606659818_b214",
    "N": 3,
    "seeds": {
      "time": 0,
      "duration": 1,
      "pitch": 66,
      "velocity": 31,
      "numerator": 3,
      "denominator": 4
    },
    "sample_counts": {
      "time": 3,
      "duration": 3,
      "pitch": 3,
      "velocity": 3,
      "numerator": 3,
      "denominator": 3
    }
  },
  {
    "action": "execute_pt",
    "unit": "001",
    "bar_index": 2,
    "pt_name": "cello_line_b2_1761606659818_0a18",
    "N": 3,
    "seeds": {
      "time": 0,
      "duration": 2,
      "pitch": 57,
      "velocity": 30,
      "numerator": 3,
      "denominator": 4
    },
    "sample_counts": {
      "time": 3,
      "duration": 3,
      "pitch": 3,
      "velocity": 3,
      "numerator": 3,
      "denominator": 3
    }
  },
  {
    "action": "execute_pt",
    "unit": "001",
    "bar_index": 2,
    "pt_name": "double_bass_pedal_b2_1761606659818_9e9b",
    "N": 2,
    "seeds": {
      "time": 0,
      "duration": 2,
      "pitch": 38,
      "velocity": 29,
      "numerator": 3,
      "denominator": 4
    },
    "sample_counts": {
      "time": 2,
      "duration": 2,
      "pitch": 2,
      "velocity": 2,
      "numerator": 2,
      "denominator": 2
    }
  },
  {
    "action": "execute_pt",
    "unit": "001",
    "bar_index": 3,
    "pt_name": "alto_flute_line_b3_1761606667810_0116",
    "N": 4,
    "seeds": {
      "time": 0,
      "duration": 1,
      "pitch": 69,
      "velocity": 29,
      "numerator": 3,
      "denominator": 4
    },
    "sample_counts": {
      "time": 4,
      "duration": 4,
      "pitch": 4,
      "velocity": 4,
      "numerator": 4,
      "denominator": 4
    }
  },
  {
    "action": "execute_pt",
    "unit": "001",
    "bar_index": 3,
    "pt_name": "bass_clarinet_line_b3_1761606667810_4227",
    "N": 2,
    "seeds": {
      "time": 0,
      "duration": 3,
      "pitch": 51,
      "velocity": 30,
      "numerator": 3,
      "denominator": 4
    },
    "sample_counts": {
      "time": 2,
      "duration": 2,
      "pitch": 2,
      "velocity": 2,
      "numerator": 2,
      "denominator": 2
    }
  },
  {
    "action": "execute_pt",
    "unit": "001",
    "bar_index": 3,
    "pt_name": "trumpet_sustain_b3_1761606667810_fd15",
    "N": 2,
    "seeds": {
      "time": 0,
      "duration": 3,
      "pitch": 74,
      "velocity": 30,
      "numerator": 3,
      "denominator": 4
    },
    "sample_counts": {
      "time": 2,
      "duration": 2,
      "pitch": 2,
      "velocity": 2,
      "numerator": 2,
      "denominator": 2
    }
  },
  {
    "action": "execute_pt",
    "unit": "001",
    "bar_index": 3,
    "pt_name": "violin_line_b3_1761606667810_51c1",
    "N": 2,
    "seeds": {
      "time": 0,
      "duration": 2,
      "pitch": 66,
      "velocity": 30,
      "numerator": 3,
      "denominator": 4
    },
    "sample_counts": {
      "time": 2,
      "duration": 2,
      "pitch": 2,
      "velocity": 2,
      "numerator": 2,
      "denominator": 2
    }
  },
  {
    "action": "execute_pt",
    "unit": "001",
    "bar_index": 3,
    "pt_name": "cello_line_b3_1761606667810_c0e9",
    "N": 3,
    "seeds": {
      "time": 0,
      "duration": 2,
      "pitch": 60,
      "velocity": 31,
      "numerator": 3,
      "denominator": 4
    },
    "sample_counts": {
      "time": 3,
      "duration": 3,
      "pitch": 3,
      "velocity": 3,
      "numerator": 3,
      "denominator": 3
    }
  },
  {
    "action": "execute_pt",
    "unit": "001",
    "bar_index": 3,
    "pt_name": "double_bass_pedal_b3_1761606667811_583a",
    "N": 1,
    "seeds": {
      "time": 0,
      "duration": 3,
      "pitch": 36,
      "velocity": 29,
      "numerator": 3,
      "denominator": 4
    },
    "sample_counts": {
      "time": 1,
      "duration": 1,
      "pitch": 1,
      "velocity": 1,
      "numerator": 1,
      "denominator": 1
    }
  },
  {
    "action": "execute_pt",
    "unit": "001",
    "bar_index": 4,
    "pt_name": "alto_flute_line_b4_1761606675423_f8c5",
    "N": 2,
    "seeds": {
      "time": 0,
      "duration": 3,
      "pitch": 68,
      "velocity": 30,
      "numerator": 3,
      "denominator": 4
    },
    "sample_counts": {
      "time": 2,
      "duration": 2,
      "pitch": 2,
      "velocity": 2,
      "numerator": 2,
      "denominator": 2
    }
  },
  {
    "action": "execute_pt",
    "unit": "001",
    "bar_index": 4,
    "pt_name": "bass_clarinet_line_b4_1761606675423_7b4b",
    "N": 3,
    "seeds": {
      "time": 0,
      "duration": 2,
      "pitch": 57,
      "velocity": 29,
      "numerator": 3,
      "denominator": 4
    },
    "sample_counts": {
      "time": 3,
      "duration": 3,
      "pitch": 3,
      "velocity": 3,
      "numerator": 3,
      "denominator": 3
    }
  },
  {
    "action": "execute_pt",
    "unit": "001",
    "bar_index": 4,
    "pt_name": "trumpet_sustain_b4_1761606675423_25b7",
    "N": 1,
    "seeds": {
      "time": 0,
      "duration": 4,
      "pitch": 69,
      "velocity": 29,
      "numerator": 3,
      "denominator": 4
    },
    "sample_counts": {
      "time": 1,
      "duration": 1,
      "pitch": 1,
      "velocity": 1,
      "numerator": 1,
      "denominator": 1
    }
  },
  {
    "action": "execute_pt",
    "unit": "001",
    "bar_index": 4,
    "pt_name": "violin_line_b4_1761606675423_0f95",
    "N": 4,
    "seeds": {
      "time": 0,
      "duration": 1,
      "pitch": 65,
      "velocity": 30,
      "numerator": 3,
      "denominator": 4
    },
    "sample_counts": {
      "time": 4,
      "duration": 4,
      "pitch": 4,
      "velocity": 4,
      "numerator": 4,
      "denominator": 4
    }
  },
  {
    "action": "execute_pt",
    "unit": "001",
    "bar_index": 4,
    "pt_name": "cello_line_b4_1761606675423_2f27",
    "N": 2,
    "seeds": {
      "time": 0,
      "duration": 3,
      "pitch": 57,
      "velocity": 30,
      "numerator": 3,
      "denominator": 4
    },
    "sample_counts": {
      "time": 2,
      "duration": 2,
      "pitch": 2,
      "velocity": 2,
      "numerator": 2,
      "denominator": 2
    }
  },
  {
    "action": "execute_pt",
    "unit": "001",
    "bar_index": 4,
    "pt_name": "double_bass_pedal_b4_1761606675423_5105",
    "N": 2,
    "seeds": {
      "time": 0,
      "duration": 2,
      "pitch": 38,
      "velocity": 29,
      "numerator": 3,
      "denominator": 4
    },
    "sample_counts": {
      "time": 2,
      "duration": 2,
      "pitch": 2,
      "velocity": 2,
      "numerator": 2,
      "denominator": 2
    }
  },
  {
    "action": "execute_pt",
    "unit": "002",
    "bar_index": 1,
    "pt_name": "alto_flute_bed_b5_1761606859180_5cfb",
    "N": 4,
    "seeds": {
      "time": 0,
      "duration": 2,
      "pitch": 66,
      "velocity": 21,
      "numerator": 3,
      "denominator": 4
    },
    "sample_counts": {
      "time": 4,
      "duration": 4,
      "pitch": 4,
      "velocity": 4,
      "numerator": 4,
      "denominator": 4
    }
  },
  {
    "action": "execute_pt",
    "unit": "002",
    "bar_index": 1,
    "pt_name": "bass_clarinet_bed_b5_1761606859180_712f",
    "N": 4,
    "seeds": {
      "time": 0,
      "duration": 2,
      "pitch": 55,
      "velocity": 22,
      "numerator": 3,
      "denominator": 4
    },
    "sample_counts": {
      "time": 4,
      "duration": 4,
      "pitch": 4,
      "velocity": 4,
      "numerator": 4,
      "denominator": 4
    }
  },
  {
    "action": "execute_pt",
    "unit": "002",
    "bar_index": 1,
    "pt_name": "trumpet_melody_b5_1761606859180_9d82",
    "N": 6,
    "seeds": {
      "time": 0,
      "duration": 1,
      "pitch": 74,
      "velocity": 110,
      "numerator": 3,
      "denominator": 4
    },
    "sample_counts": {
      "time": 6,
      "duration": 6,
      "pitch": 6,
      "velocity": 6,
      "numerator": 6,
      "denominator": 6
    }
  },
  {
    "action": "execute_pt",
    "unit": "002",
    "bar_index": 1,
    "pt_name": "violin_bed_b5_1761606859180_76a1",
    "N": 5,
    "seeds": {
      "time": 0,
      "duration": 1,
      "pitch": 74,
      "velocity": 22,
      "numerator": 3,
      "denominator": 4
    },
    "sample_counts": {
      "time": 5,
      "duration": 5,
      "pitch": 5,
      "velocity": 5,
      "numerator": 5,
      "denominator": 5
    }
  },
  {
    "action": "execute_pt",
    "unit": "002",
    "bar_index": 1,
    "pt_name": "cello_bed_b5_1761606859180_c87b",
    "N": 4,
    "seeds": {
      "time": 0,
      "duration": 2,
      "pitch": 60,
      "velocity": 22,
      "numerator": 3,
      "denominator": 4
    },
    "sample_counts": {
      "time": 4,
      "duration": 4,
      "pitch": 4,
      "velocity": 4,
      "numerator": 4,
      "denominator": 4
    }
  },
  {
    "action": "execute_pt",
    "unit": "002",
    "bar_index": 1,
    "pt_name": "double_bass_bed_b5_1761606859180_d2a0",
    "N": 3,
    "seeds": {
      "time": 0,
      "duration": 3,
      "pitch": 43,
      "velocity": 22,
      "numerator": 3,
      "denominator": 4
    },
    "sample_counts": {
      "time": 3,
      "duration": 3,
      "pitch": 3,
      "velocity": 3,
      "numerator": 3,
      "denominator": 3
    }
  },
  {
    "action": "execute_pt",
    "unit": "002",
    "bar_index": 2,
    "pt_name": "alto_flute_bed_b6_1761606866899_27bb",
    "N": 5,
    "seeds": {
      "time": 0,
      "duration": 1,
      "pitch": 67,
      "velocity": 22,
      "numerator": 3,
      "denominator": 4
    },
    "sample_counts": {
      "time": 5,
      "duration": 5,
      "pitch": 5,
      "velocity": 5,
      "numerator": 5,
      "denominator": 5
    }
  },
  {
    "action": "execute_pt",
    "unit": "002",
    "bar_index": 2,
    "pt_name": "bass_clarinet_bed_b6_1761606866899_b4aa",
    "N": 5,
    "seeds": {
      "time": 0,
      "duration": 1,
      "pitch": 58,
      "velocity": 22,
      "numerator": 3,
      "denominator": 4
    },
    "sample_counts": {
      "time": 5,
      "duration": 5,
      "pitch": 5,
      "velocity": 5,
      "numerator": 5,
      "denominator": 5
    }
  },
  {
    "action": "execute_pt",
    "unit": "002",
    "bar_index": 2,
    "pt_name": "trumpet_melody_b6_1761606866899_7c8c",
    "N": 7,
    "seeds": {
      "time": 0,
      "duration": 1,
      "pitch": 76,
      "velocity": 110,
      "numerator": 3,
      "denominator": 4
    },
    "sample_counts": {
      "time": 7,
      "duration": 7,
      "pitch": 7,
      "velocity": 7,
      "numerator": 7,
      "denominator": 7
    }
  },
  {
    "action": "execute_pt",
    "unit": "002",
    "bar_index": 2,
    "pt_name": "violin_bed_b6_1761606866899_6904",
    "N": 4,
    "seeds": {
      "time": 0,
      "duration": 1,
      "pitch": 72,
      "velocity": 21,
      "numerator": 3,
      "denominator": 4
    },
    "sample_counts": {
      "time": 4,
      "duration": 4,
      "pitch": 4,
      "velocity": 4,
      "numerator": 4,
      "denominator": 4
    }
  },
  {
    "action": "execute_pt",
    "unit": "002",
    "bar_index": 2,
    "pt_name": "cello_bed_b6_1761606866899_694e",
    "N": 5,
    "seeds": {
      "time": 0,
      "duration": 1,
      "pitch": 62,
      "velocity": 22,
      "numerator": 3,
      "denominator": 4
    },
    "sample_counts": {
      "time": 5,
      "duration": 5,
      "pitch": 5,
      "velocity": 5,
      "numerator": 5,
      "denominator": 5
    }
  },
  {
    "action": "execute_pt",
    "unit": "002",
    "bar_index": 2,
    "pt_name": "double_bass_bed_b6_1761606866899_e95c",
    "N": 4,
    "seeds": {
      "time": 0,
      "duration": 2,
      "pitch": 45,
      "velocity": 22,
      "numerator": 3,
      "denominator": 4
    },
    "sample_counts": {
      "time": 4,
      "duration": 4,
      "pitch": 4,
      "velocity": 4,
      "numerator": 4,
      "denominator": 4
    }
  },
  {
    "action": "execute_pt",
    "unit": "002",
    "bar_index": 3,
    "pt_name": "alto_flute_bed_b7_1761606874826_a81d",
    "N": 3,
    "seeds": {
      "time": 0,
      "duration": 2,
      "pitch": 71,
      "velocity": 21,
      "numerator": 3,
      "denominator": 4
    },
    "sample_counts": {
      "time": 3,
      "duration": 3,
      "pitch": 3,
      "velocity": 3,
      "numerator": 3,
      "denominator": 3
    }
  },
  {
    "action": "execute_pt",
    "unit": "002",
    "bar_index": 3,
    "pt_name": "bass_clarinet_bed_b7_1761606874826_32b7",
    "N": 3,
    "seeds": {
      "time": 0,
      "duration": 2,
      "pitch": 60,
      "velocity": 22,
      "numerator": 3,
      "denominator": 4
    },
    "sample_counts": {
      "time": 3,
      "duration": 3,
      "pitch": 3,
      "velocity": 3,
      "numerator": 3,
      "denominator": 3
    }
  },
  {
    "action": "execute_pt",
    "unit": "002",
    "bar_index": 3,
    "pt_name": "trumpet_melody_b7_1761606874826_54dc",
    "N": 8,
    "seeds": {
      "time": 0,
      "duration": 1,
      "pitch": 75,
      "velocity": 112,
      "numerator": 3,
      "denominator": 4
    },
    "sample_counts": {
      "time": 8,
      "duration": 8,
      "pitch": 8,
      "velocity": 8,
      "numerator": 8,
      "denominator": 8
    }
  },
  {
    "action": "execute_pt",
    "unit": "002",
    "bar_index": 3,
    "pt_name": "violin_bed_b7_1761606874826_ac14",
    "N": 6,
    "seeds": {
      "time": 0,
      "duration": 1,
      "pitch": 76,
      "velocity": 22,
      "numerator": 3,
      "denominator": 4
    },
    "sample_counts": {
      "time": 6,
      "duration": 6,
      "pitch": 6,
      "velocity": 6,
      "numerator": 6,
      "denominator": 6
    }
  },
  {
    "action": "execute_pt",
    "unit": "002",
    "bar_index": 3,
    "pt_name": "cello_bed_b7_1761606874826_b7aa",
    "N": 3,
    "seeds": {
      "time": 0,
      "duration": 2,
      "pitch": 57,
      "velocity": 22,
      "numerator": 3,
      "denominator": 4
    },
    "sample_counts": {
      "time": 3,
      "duration": 3,
      "pitch": 3,
      "velocity": 3,
      "numerator": 3,
      "denominator": 3
    }
  },
  {
    "action": "execute_pt",
    "unit": "002",
    "bar_index": 3,
    "pt_name": "double_bass_bed_b7_1761606874826_5ada",
    "N": 5,
    "seeds": {
      "time": 0,
      "duration": 1,
      "pitch": 47,
      "velocity": 22,
      "numerator": 3,
      "denominator": 4
    },
    "sample_counts": {
      "time": 5,
      "duration": 5,
      "pitch": 5,
      "velocity": 5,
      "numerator": 5,
      "denominator": 5
    }
  },
  {
    "action": "execute_pt",
    "unit": "002",
    "bar_index": 4,
    "pt_name": "alto_flute_bed_b8_1761606882064_a235",
    "N": 5,
    "seeds": {
      "time": 0,
      "duration": 1,
      "pitch": 68,
      "velocity": 22,
      "numerator": 3,
      "denominator": 4
    },
    "sample_counts": {
      "time": 5,
      "duration": 5,
      "pitch": 5,
      "velocity": 5,
      "numerator": 5,
      "denominator": 5
    }
  },
  {
    "action": "execute_pt",
    "unit": "002",
    "bar_index": 4,
    "pt_name": "bass_clarinet_bed_b8_1761606882064_bb75",
    "N": 4,
    "seeds": {
      "time": 0,
      "duration": 2,
      "pitch": 57,
      "velocity": 22,
      "numerator": 3,
      "denominator": 4
    },
    "sample_counts": {
      "time": 4,
      "duration": 4,
      "pitch": 4,
      "velocity": 4,
      "numerator": 4,
      "denominator": 4
    }
  },
  {
    "action": "execute_pt",
    "unit": "002",
    "bar_index": 4,
    "pt_name": "trumpet_melody_b8_1761606882064_4819",
    "N": 5,
    "seeds": {
      "time": 0,
      "duration": 1,
      "pitch": 77,
      "velocity": 110,
      "numerator": 3,
      "denominator": 4
    },
    "sample_counts": {
      "time": 5,
      "duration": 5,
      "pitch": 5,
      "velocity": 5,
      "numerator": 5,
      "denominator": 5
    }
  },
  {
    "action": "execute_pt",
    "unit": "002",
    "bar_index": 4,
    "pt_name": "violin_bed_b8_1761606882064_5be7",
    "N": 3,
    "seeds": {
      "time": 0,
      "duration": 2,
      "pitch": 71,
      "velocity": 22,
      "numerator": 3,
      "denominator": 4
    },
    "sample_counts": {
      "time": 3,
      "duration": 3,
      "pitch": 3,
      "velocity": 3,
      "numerator": 3,
      "denominator": 3
    }
  },
  {
    "action": "execute_pt",
    "unit": "002",
    "bar_index": 4,
    "pt_name": "cello_bed_b8_1761606882064_600d",
    "N": 4,
    "seeds": {
      "time": 0,
      "duration": 2,
      "pitch": 62,
      "velocity": 22,
      "numerator": 3,
      "denominator": 4
    },
    "sample_counts": {
      "time": 4,
      "duration": 4,
      "pitch": 4,
      "velocity": 4,
      "numerator": 4,
      "denominator": 4
    }
  },
  {
    "action": "execute_pt",
    "unit": "002",
    "bar_index": 4,
    "pt_name": "double_bass_bed_b8_1761606882064_dff1",
    "N": 3,
    "seeds": {
      "time": 0,
      "duration": 2,
      "pitch": 40,
      "velocity": 21,
      "numerator": 3,
      "denominator": 4
    },
    "sample_counts": {
      "time": 3,
      "duration": 3,
      "pitch": 3,
      "velocity": 3,
      "numerator": 3,
      "denominator": 3
    }
  },
  {
    "action": "execute_pt",
    "unit": "003",
    "bar_index": 1,
    "pt_name": "alto_flute_tutti_hit_b9_1761606947344_3fa0",
    "N": 1,
    "seeds": {
      "time": 0,
      "duration": 8,
      "pitch": 76,
      "velocity": 112,
      "numerator": 2,
      "denominator": 4
    },
    "sample_counts": {
      "time": 1,
      "duration": 1,
      "pitch": 1,
      "velocity": 1,
      "numerator": 1,
      "denominator": 1
    }
  },
  {
    "action": "execute_pt",
    "unit": "003",
    "bar_index": 1,
    "pt_name": "bass_clarinet_tutti_hit_b9_1761606947344_7baa",
    "N": 1,
    "seeds": {
      "time": 0,
      "duration": 8,
      "pitch": 50,
      "velocity": 112,
      "numerator": 2,
      "denominator": 4
    },
    "sample_counts": {
      "time": 1,
      "duration": 1,
      "pitch": 1,
      "velocity": 1,
      "numerator": 1,
      "denominator": 1
    }
  },
  {
    "action": "execute_pt",
    "unit": "003",
    "bar_index": 1,
    "pt_name": "trumpet_tutti_hit_b9_1761606947344_05d9",
    "N": 1,
    "seeds": {
      "time": 0,
      "duration": 8,
      "pitch": 71,
      "velocity": 112,
      "numerator": 2,
      "denominator": 4
    },
    "sample_counts": {
      "time": 1,
      "duration": 1,
      "pitch": 1,
      "velocity": 1,
      "numerator": 1,
      "denominator": 1
    }
  },
  {
    "action": "execute_pt",
    "unit": "003",
    "bar_index": 1,
    "pt_name": "violin_tutti_hit_b9_1761606947344_8b38",
    "N": 1,
    "seeds": {
      "time": 0,
      "duration": 8,
      "pitch": 67,
      "velocity": 112,
      "numerator": 2,
      "denominator": 4
    },
    "sample_counts": {
      "time": 1,
      "duration": 1,
      "pitch": 1,
      "velocity": 1,
      "numerator": 1,
      "denominator": 1
    }
  },
  {
    "action": "execute_pt",
    "unit": "003",
    "bar_index": 1,
    "pt_name": "cello_tutti_hit_b9_1761606947344_29c6",
    "N": 1,
    "seeds": {
      "time": 0,
      "duration": 8,
      "pitch": 55,
      "velocity": 112,
      "numerator": 2,
      "denominator": 4
    },
    "sample_counts": {
      "time": 1,
      "duration": 1,
      "pitch": 1,
      "velocity": 1,
      "numerator": 1,
      "denominator": 1
    }
  },
  {
    "action": "execute_pt",
    "unit": "003",
    "bar_index": 1,
    "pt_name": "double_bass_tutti_hit_b9_1761606947344_c65d",
    "N": 1,
    "seeds": {
      "time": 0,
      "duration": 8,
      "pitch": 43,
      "velocity": 112,
      "numerator": 2,
      "denominator": 4
    },
    "sample_counts": {
      "time": 1,
      "duration": 1,
      "pitch": 1,
      "velocity": 1,
      "numerator": 1,
      "denominator": 1
    }
  },
  {
    "action": "execute_pt",
    "unit": "003",
    "bar_index": 2,
    "pt_name": "alto_flute_tutti_hit_b10_1761606958218_8759",
    "N": 1,
    "seeds": {
      "time": 0,
      "duration": 8,
      "pitch": 77,
      "velocity": 112,
      "numerator": 2,
      "denominator": 4
    },
    "sample_counts": {
      "time": 1,
      "duration": 1,
      "pitch": 1,
      "velocity": 1,
      "numerator": 1,
      "denominator": 1
    }
  },
  {
    "action": "execute_pt",
    "unit": "003",
    "bar_index": 2,
    "pt_name": "bass_clarinet_tutti_hit_b10_1761606958218_6532",
    "N": 1,
    "seeds": {
      "time": 0,
      "duration": 8,
      "pitch": 52,
      "velocity": 112,
      "numerator": 2,
      "denominator": 4
    },
    "sample_counts": {
      "time": 1,
      "duration": 1,
      "pitch": 1,
      "velocity": 1,
      "numerator": 1,
      "denominator": 1
    }
  },
  {
    "action": "execute_pt",
    "unit": "003",
    "bar_index": 2,
    "pt_name": "trumpet_tutti_hit_b10_1761606958218_fce3",
    "N": 1,
    "seeds": {
      "time": 0,
      "duration": 8,
      "pitch": 73,
      "velocity": 112,
      "numerator": 2,
      "denominator": 4
    },
    "sample_counts": {
      "time": 1,
      "duration": 1,
      "pitch": 1,
      "velocity": 1,
      "numerator": 1,
      "denominator": 1
    }
  },
  {
    "action": "execute_pt",
    "unit": "003",
    "bar_index": 2,
    "pt_name": "violin_tutti_hit_b10_1761606958218_7ddd",
    "N": 1,
    "seeds": {
      "time": 0,
      "duration": 8,
      "pitch": 69,
      "velocity": 112,
      "numerator": 2,
      "denominator": 4
    },
    "sample_counts": {
      "time": 1,
      "duration": 1,
      "pitch": 1,
      "velocity": 1,
      "numerator": 1,
      "denominator": 1
    }
  },
  {
    "action": "execute_pt",
    "unit": "003",
    "bar_index": 2,
    "pt_name": "cello_tutti_hit_b10_1761606958218_01c1",
    "N": 1,
    "seeds": {
      "time": 0,
      "duration": 8,
      "pitch": 57,
      "velocity": 112,
      "numerator": 2,
      "denominator": 4
    },
    "sample_counts": {
      "time": 1,
      "duration": 1,
      "pitch": 1,
      "velocity": 1,
      "numerator": 1,
      "denominator": 1
    }
  },
  {
    "action": "execute_pt",
    "unit": "003",
    "bar_index": 2,
    "pt_name": "double_bass_tutti_hit_b10_1761606958218_e4e8",
    "N": 1,
    "seeds": {
      "time": 0,
      "duration": 8,
      "pitch": 45,
      "velocity": 112,
      "numerator": 2,
      "denominator": 4
    },
    "sample_counts": {
      "time": 1,
      "duration": 1,
      "pitch": 1,
      "velocity": 1,
      "numerator": 1,
      "denominator": 1
    }
  },
  {
    "action": "execute_pt",
    "unit": "004",
    "bar_index": 1,
    "pt_name": "alto_flute_line_b10_1761607279642_37a0",
    "N": 3,
    "seeds": {
      "time": 0,
      "duration": 1,
      "pitch": 70,
      "velocity": 22,
      "numerator": 3,
      "denominator": 4
    },
    "sample_counts": {
      "time": 3,
      "duration": 3,
      "pitch": 3,
      "velocity": 3,
      "numerator": 3,
      "denominator": 3
    }
  },
  {
    "action": "execute_pt",
    "unit": "004",
    "bar_index": 1,
    "pt_name": "bass_clarinet_line_b10_1761607279642_588f",
    "N": 3,
    "seeds": {
      "time": 0,
      "duration": 2,
      "pitch": 56,
      "velocity": 21,
      "numerator": 3,
      "denominator": 4
    },
    "sample_counts": {
      "time": 3,
      "duration": 3,
      "pitch": 3,
      "velocity": 3,
      "numerator": 3,
      "denominator": 3
    }
  },
  {
    "action": "execute_pt",
    "unit": "004",
    "bar_index": 1,
    "pt_name": "trumpet_sustain_b10_1761607279642_5187",
    "N": 1,
    "seeds": {
      "time": 0,
      "duration": 6,
      "pitch": 71,
      "velocity": 24,
      "numerator": 3,
      "denominator": 4
    },
    "sample_counts": {
      "time": 1,
      "duration": 1,
      "pitch": 1,
      "velocity": 1,
      "numerator": 1,
      "denominator": 1
    }
  },
  {
    "action": "execute_pt",
    "unit": "004",
    "bar_index": 1,
    "pt_name": "violin_line_b10_1761607279642_1dad",
    "N": 4,
    "seeds": {
      "time": 0,
      "duration": 1,
      "pitch": 71,
      "velocity": 22,
      "numerator": 3,
      "denominator": 4
    },
    "sample_counts": {
      "time": 4,
      "duration": 4,
      "pitch": 4,
      "velocity": 4,
      "numerator": 4,
      "denominator": 4
    }
  },
  {
    "action": "execute_pt",
    "unit": "004",
    "bar_index": 1,
    "pt_name": "cello_line_b10_1761607279642_32ea",
    "N": 3,
    "seeds": {
      "time": 0,
      "duration": 2,
      "pitch": 61,
      "velocity": 21,
      "numerator": 3,
      "denominator": 4
    },
    "sample_counts": {
      "time": 3,
      "duration": 3,
      "pitch": 3,
      "velocity": 3,
      "numerator": 3,
      "denominator": 3
    }
  },
  {
    "action": "execute_pt",
    "unit": "004",
    "bar_index": 1,
    "pt_name": "double_bass_pedal_b10_1761607279642_018c",
    "N": 2,
    "seeds": {
      "time": 0,
      "duration": 3,
      "pitch": 44,
      "velocity": 20,
      "numerator": 3,
      "denominator": 4
    },
    "sample_counts": {
      "time": 2,
      "duration": 2,
      "pitch": 2,
      "velocity": 2,
      "numerator": 2,
      "denominator": 2
    }
  },
  {
    "action": "execute_pt",
    "unit": "004",
    "bar_index": 2,
    "pt_name": "alto_flute_line_b11_1761607287569_e501",
    "N": 2,
    "seeds": {
      "time": 0,
      "duration": 3,
      "pitch": 69,
      "velocity": 21,
      "numerator": 3,
      "denominator": 4
    },
    "sample_counts": {
      "time": 2,
      "duration": 2,
      "pitch": 2,
      "velocity": 2,
      "numerator": 2,
      "denominator": 2
    }
  },
  {
    "action": "execute_pt",
    "unit": "004",
    "bar_index": 2,
    "pt_name": "bass_clarinet_line_b11_1761607287569_baf8",
    "N": 3,
    "seeds": {
      "time": 0,
      "duration": 2,
      "pitch": 57,
      "velocity": 22,
      "numerator": 3,
      "denominator": 4
    },
    "sample_counts": {
      "time": 3,
      "duration": 3,
      "pitch": 3,
      "velocity": 3,
      "numerator": 3,
      "denominator": 3
    }
  },
  {
    "action": "execute_pt",
    "unit": "004",
    "bar_index": 2,
    "pt_name": "trumpet_sustain_b11_1761607287569_31ad",
    "N": 2,
    "seeds": {
      "time": 0,
      "duration": 4,
      "pitch": 72,
      "velocity": 26,
      "numerator": 3,
      "denominator": 4
    },
    "sample_counts": {
      "time": 2,
      "duration": 2,
      "pitch": 2,
      "velocity": 2,
      "numerator": 2,
      "denominator": 2
    }
  },
  {
    "action": "execute_pt",
    "unit": "004",
    "bar_index": 2,
    "pt_name": "violin_line_b11_1761607287569_cb28",
    "N": 3,
    "seeds": {
      "time": 0,
      "duration": 1,
      "pitch": 73,
      "velocity": 22,
      "numerator": 3,
      "denominator": 4
    },
    "sample_counts": {
      "time": 3,
      "duration": 3,
      "pitch": 3,
      "velocity": 3,
      "numerator": 3,
      "denominator": 3
    }
  },
  {
    "action": "execute_pt",
    "unit": "004",
    "bar_index": 2,
    "pt_name": "cello_line_b11_1761607287569_626b",
    "N": 2,
    "seeds": {
      "time": 0,
      "duration": 2,
      "pitch": 60,
      "velocity": 21,
      "numerator": 3,
      "denominator": 4
    },
    "sample_counts": {
      "time": 2,
      "duration": 2,
      "pitch": 2,
      "velocity": 2,
      "numerator": 2,
      "denominator": 2
    }
  },
  {
    "action": "execute_pt",
    "unit": "004",
    "bar_index": 2,
    "pt_name": "double_bass_pedal_b11_1761607287569_d9b3",
    "N": 3,
    "seeds": {
      "time": 0,
      "duration": 2,
      "pitch": 44,
      "velocity": 20,
      "numerator": 3,
      "denominator": 4
    },
    "sample_counts": {
      "time": 3,
      "duration": 3,
      "pitch": 3,
      "velocity": 3,
      "numerator": 3,
      "denominator": 3
    }
  },
  {
    "action": "execute_pt",
    "unit": "004",
    "bar_index": 3,
    "pt_name": "alto_flute_line_b12_1761607295650_4dde",
    "N": 4,
    "seeds": {
      "time": 0,
      "duration": 1,
      "pitch": 69,
      "velocity": 22,
      "numerator": 3,
      "denominator": 4
    },
    "sample_counts": {
      "time": 4,
      "duration": 4,
      "pitch": 4,
      "velocity": 4,
      "numerator": 4,
      "denominator": 4
    }
  },
  {
    "action": "execute_pt",
    "unit": "004",
    "bar_index": 3,
    "pt_name": "bass_clarinet_line_b12_1761607295650_e325",
    "N": 2,
    "seeds": {
      "time": 0,
      "duration": 3,
      "pitch": 56,
      "velocity": 21,
      "numerator": 3,
      "denominator": 4
    },
    "sample_counts": {
      "time": 2,
      "duration": 2,
      "pitch": 2,
      "velocity": 2,
      "numerator": 2,
      "denominator": 2
    }
  },
  {
    "action": "execute_pt",
    "unit": "004",
    "bar_index": 3,
    "pt_name": "trumpet_line_b12_1761607295650_59fd",
    "N": 3,
    "seeds": {
      "time": 0,
      "duration": 1,
      "pitch": 70,
      "velocity": 24,
      "numerator": 3,
      "denominator": 4
    },
    "sample_counts": {
      "time": 3,
      "duration": 3,
      "pitch": 3,
      "velocity": 3,
      "numerator": 3,
      "denominator": 3
    }
  },
  {
    "action": "execute_pt",
    "unit": "004",
    "bar_index": 3,
    "pt_name": "violin_line_b12_1761607295650_638f",
    "N": 2,
    "seeds": {
      "time": 0,
      "duration": 2,
      "pitch": 72,
      "velocity": 22,
      "numerator": 3,
      "denominator": 4
    },
    "sample_counts": {
      "time": 2,
      "duration": 2,
      "pitch": 2,
      "velocity": 2,
      "numerator": 2,
      "denominator": 2
    }
  },
  {
    "action": "execute_pt",
    "unit": "004",
    "bar_index": 3,
    "pt_name": "cello_line_b12_1761607295650_dc38",
    "N": 3,
    "seeds": {
      "time": 0,
      "duration": 1,
      "pitch": 61,
      "velocity": 22,
      "numerator": 3,
      "denominator": 4
    },
    "sample_counts": {
      "time": 3,
      "duration": 3,
      "pitch": 3,
      "velocity": 3,
      "numerator": 3,
      "denominator": 3
    }
  },
  {
    "action": "execute_pt",
    "unit": "004",
    "bar_index": 3,
    "pt_name": "double_bass_pedal_b12_1761607295650_fae9",
    "N": 2,
    "seeds": {
      "time": 0,
      "duration": 3,
      "pitch": 42,
      "velocity": 20,
      "numerator": 3,
      "denominator": 4
    },
    "sample_counts": {
      "time": 2,
      "duration": 2,
      "pitch": 2,
      "velocity": 2,
      "numerator": 2,
      "denominator": 2
    }
  },
  {
    "action": "execute_pt",
    "unit": "004",
    "bar_index": 4,
    "pt_name": "alto_flute_line_b13_1761607304048_89c3",
    "N": 2,
    "seeds": {
      "time": 0,
      "duration": 2,
      "pitch": 71,
      "velocity": 23,
      "numerator": 3,
      "denominator": 4
    },
    "sample_counts": {
      "time": 2,
      "duration": 2,
      "pitch": 2,
      "velocity": 2,
      "numerator": 2,
      "denominator": 2
    }
  },
  {
    "action": "execute_pt",
    "unit": "004",
    "bar_index": 4,
    "pt_name": "bass_clarinet_line_b13_1761607304048_0d6d",
    "N": 3,
    "seeds": {
      "time": 0,
      "duration": 2,
      "pitch": 58,
      "velocity": 22,
      "numerator": 3,
      "denominator": 4
    },
    "sample_counts": {
      "time": 3,
      "duration": 3,
      "pitch": 3,
      "velocity": 3,
      "numerator": 3,
      "denominator": 3
    }
  },
  {
    "action": "execute_pt",
    "unit": "004",
    "bar_index": 4,
    "pt_name": "trumpet_sustain_b13_1761607304048_0b61",
    "N": 1,
    "seeds": {
      "time": 0,
      "duration": 6,
      "pitch": 73,
      "velocity": 25,
      "numerator": 3,
      "denominator": 4
    },
    "sample_counts": {
      "time": 1,
      "duration": 1,
      "pitch": 1,
      "velocity": 1,
      "numerator": 1,
      "denominator": 1
    }
  },
  {
    "action": "execute_pt",
    "unit": "004",
    "bar_index": 4,
    "pt_name": "violin_line_b13_1761607304048_6745",
    "N": 4,
    "seeds": {
      "time": 0,
      "duration": 1,
      "pitch": 70,
      "velocity": 22,
      "numerator": 3,
      "denominator": 4
    },
    "sample_counts": {
      "time": 4,
      "duration": 4,
      "pitch": 4,
      "velocity": 4,
      "numerator": 4,
      "denominator": 4
    }
  },
  {
    "action": "execute_pt",
    "unit": "004",
    "bar_index": 4,
    "pt_name": "cello_line_b13_1761607304048_8328",
    "N": 2,
    "seeds": {
      "time": 0,
      "duration": 2,
      "pitch": 60,
      "velocity": 21,
      "numerator": 3,
      "denominator": 4
    },
    "sample_counts": {
      "time": 2,
      "duration": 2,
      "pitch": 2,
      "velocity": 2,
      "numerator": 2,
      "denominator": 2
    }
  },
  {
    "action": "execute_pt",
    "unit": "004",
    "bar_index": 4,
    "pt_name": "double_bass_pedal_b13_1761607304048_a6f3",
    "N": 3,
    "seeds": {
      "time": 0,
      "duration": 2,
      "pitch": 45,
      "velocity": 20,
      "numerator": 3,
      "denominator": 4
    },
    "sample_counts": {
      "time": 3,
      "duration": 3,
      "pitch": 3,
      "velocity": 3,
      "numerator": 3,
      "denominator": 3
    }
  },
  {
    "action": "execute_pt",
    "unit": "005",
    "bar_index": 1,
    "pt_name": "alto_flute_bed_b14_1761607481180_01ba",
    "N": 4,
    "seeds": {
      "time": 0,
      "duration": 1,
      "pitch": 58,
      "velocity": 20,
      "numerator": 3,
      "denominator": 4
    },
    "sample_counts": {
      "time": 4,
      "duration": 4,
      "pitch": 4,
      "velocity": 4,
      "numerator": 4,
      "denominator": 4
    }
  },
  {
    "action": "execute_pt",
    "unit": "005",
    "bar_index": 1,
    "pt_name": "bass_clarinet_bed_b14_1761607481180_7d2e",
    "N": 4,
    "seeds": {
      "time": 0,
      "duration": 1,
      "pitch": 66,
      "velocity": 21,
      "numerator": 3,
      "denominator": 4
    },
    "sample_counts": {
      "time": 4,
      "duration": 4,
      "pitch": 4,
      "velocity": 4,
      "numerator": 4,
      "denominator": 4
    }
  },
  {
    "action": "execute_pt",
    "unit": "005",
    "bar_index": 1,
    "pt_name": "trumpet_melody_b14_1761607481180_0508",
    "N": 7,
    "seeds": {
      "time": 0,
      "duration": 1,
      "pitch": 74,
      "velocity": 108,
      "numerator": 3,
      "denominator": 4
    },
    "sample_counts": {
      "time": 7,
      "duration": 7,
      "pitch": 7,
      "velocity": 7,
      "numerator": 7,
      "denominator": 7
    }
  },
  {
    "action": "execute_pt",
    "unit": "005",
    "bar_index": 1,
    "pt_name": "violin_bed_b14_1761607481180_5950",
    "N": 5,
    "seeds": {
      "time": 0,
      "duration": 1,
      "pitch": 60,
      "velocity": 20,
      "numerator": 3,
      "denominator": 4
    },
    "sample_counts": {
      "time": 5,
      "duration": 5,
      "pitch": 5,
      "velocity": 5,
      "numerator": 5,
      "denominator": 5
    }
  },
  {
    "action": "execute_pt",
    "unit": "005",
    "bar_index": 1,
    "pt_name": "cello_bed_b14_1761607481180_4bf2",
    "N": 3,
    "seeds": {
      "time": 0,
      "duration": 2,
      "pitch": 69,
      "velocity": 22,
      "numerator": 3,
      "denominator": 4
    },
    "sample_counts": {
      "time": 3,
      "duration": 3,
      "pitch": 3,
      "velocity": 3,
      "numerator": 3,
      "denominator": 3
    }
  },
  {
    "action": "execute_pt",
    "unit": "005",
    "bar_index": 1,
    "pt_name": "double_bass_bed_b14_1761607481180_ef44",
    "N": 4,
    "seeds": {
      "time": 0,
      "duration": 2,
      "pitch": 45,
      "velocity": 20,
      "numerator": 3,
      "denominator": 4
    },
    "sample_counts": {
      "time": 4,
      "duration": 4,
      "pitch": 4,
      "velocity": 4,
      "numerator": 4,
      "denominator": 4
    }
  },
  {
    "action": "execute_pt",
    "unit": "005",
    "bar_index": 2,
    "pt_name": "alto_flute_bed_b15_1761607489561_0e44",
    "N": 5,
    "seeds": {
      "time": 0,
      "duration": 1,
      "pitch": 57,
      "velocity": 20,
      "numerator": 3,
      "denominator": 4
    },
    "sample_counts": {
      "time": 5,
      "duration": 5,
      "pitch": 5,
      "velocity": 5,
      "numerator": 5,
      "denominator": 5
    }
  },
  {
    "action": "execute_pt",
    "unit": "005",
    "bar_index": 2,
    "pt_name": "bass_clarinet_bed_b15_1761607489561_c6bd",
    "N": 3,
    "seeds": {
      "time": 0,
      "duration": 1,
      "pitch": 70,
      "velocity": 22,
      "numerator": 3,
      "denominator": 4
    },
    "sample_counts": {
      "time": 3,
      "duration": 3,
      "pitch": 3,
      "velocity": 3,
      "numerator": 3,
      "denominator": 3
    }
  },
  {
    "action": "execute_pt",
    "unit": "005",
    "bar_index": 2,
    "pt_name": "trumpet_melody_b15_1761607489561_af70",
    "N": 8,
    "seeds": {
      "time": 0,
      "duration": 1,
      "pitch": 76,
      "velocity": 110,
      "numerator": 3,
      "denominator": 4
    },
    "sample_counts": {
      "time": 8,
      "duration": 8,
      "pitch": 8,
      "velocity": 8,
      "numerator": 8,
      "denominator": 8
    }
  },
  {
    "action": "execute_pt",
    "unit": "005",
    "bar_index": 2,
    "pt_name": "violin_bed_b15_1761607489561_3991",
    "N": 4,
    "seeds": {
      "time": 0,
      "duration": 1,
      "pitch": 58,
      "velocity": 21,
      "numerator": 3,
      "denominator": 4
    },
    "sample_counts": {
      "time": 4,
      "duration": 4,
      "pitch": 4,
      "velocity": 4,
      "numerator": 4,
      "denominator": 4
    }
  },
  {
    "action": "execute_pt",
    "unit": "005",
    "bar_index": 2,
    "pt_name": "cello_bed_b15_1761607489561_11ad",
    "N": 4,
    "seeds": {
      "time": 0,
      "duration": 2,
      "pitch": 64,
      "velocity": 22,
      "numerator": 3,
      "denominator": 4
    },
    "sample_counts": {
      "time": 4,
      "duration": 4,
      "pitch": 4,
      "velocity": 4,
      "numerator": 4,
      "denominator": 4
    }
  },
  {
    "action": "execute_pt",
    "unit": "005",
    "bar_index": 2,
    "pt_name": "double_bass_bed_b15_1761607489561_961e",
    "N": 3,
    "seeds": {
      "time": 0,
      "duration": 2,
      "pitch": 52,
      "velocity": 20,
      "numerator": 3,
      "denominator": 4
    },
    "sample_counts": {
      "time": 3,
      "duration": 3,
      "pitch": 3,
      "velocity": 3,
      "numerator": 3,
      "denominator": 3
    }
  },
  {
    "action": "execute_pt",
    "unit": "005",
    "bar_index": 3,
    "pt_name": "alto_flute_bed_b16_1761607498041_a6af",
    "N": 4,
    "seeds": {
      "time": 0,
      "duration": 1,
      "pitch": 59,
      "velocity": 21,
      "numerator": 3,
      "denominator": 4
    },
    "sample_counts": {
      "time": 4,
      "duration": 4,
      "pitch": 4,
      "velocity": 4,
      "numerator": 4,
      "denominator": 4
    }
  },
  {
    "action": "execute_pt",
    "unit": "005",
    "bar_index": 3,
    "pt_name": "bass_clarinet_bed_b16_1761607498041_8a73",
    "N": 5,
    "seeds": {
      "time": 0,
      "duration": 1,
      "pitch": 62,
      "velocity": 21,
      "numerator": 3,
      "denominator": 4
    },
    "sample_counts": {
      "time": 5,
      "duration": 5,
      "pitch": 5,
      "velocity": 5,
      "numerator": 5,
      "denominator": 5
    }
  },
  {
    "action": "execute_pt",
    "unit": "005",
    "bar_index": 3,
    "pt_name": "trumpet_melody_b16_1761607498041_2eee",
    "N": 7,
    "seeds": {
      "time": 0,
      "duration": 1,
      "pitch": 78,
      "velocity": 112,
      "numerator": 3,
      "denominator": 4
    },
    "sample_counts": {
      "time": 7,
      "duration": 7,
      "pitch": 7,
      "velocity": 7,
      "numerator": 7,
      "denominator": 7
    }
  },
  {
    "action": "execute_pt",
    "unit": "005",
    "bar_index": 3,
    "pt_name": "violin_bed_b16_1761607498041_b077",
    "N": 3,
    "seeds": {
      "time": 0,
      "duration": 1,
      "pitch": 61,
      "velocity": 20,
      "numerator": 3,
      "denominator": 4
    },
    "sample_counts": {
      "time": 3,
      "duration": 3,
      "pitch": 3,
      "velocity": 3,
      "numerator": 3,
      "denominator": 3
    }
  },
  {
    "action": "execute_pt",
    "unit": "005",
    "bar_index": 3,
    "pt_name": "cello_bed_b16_1761607498041_d56b",
    "N": 5,
    "seeds": {
      "time": 0,
      "duration": 1,
      "pitch": 67,
      "velocity": 22,
      "numerator": 3,
      "denominator": 4
    },
    "sample_counts": {
      "time": 5,
      "duration": 5,
      "pitch": 5,
      "velocity": 5,
      "numerator": 5,
      "denominator": 5
    }
  },
  {
    "action": "execute_pt",
    "unit": "005",
    "bar_index": 3,
    "pt_name": "double_bass_bed_b16_1761607498041_2f42",
    "N": 4,
    "seeds": {
      "time": 0,
      "duration": 2,
      "pitch": 42,
      "velocity": 20,
      "numerator": 3,
      "denominator": 4
    },
    "sample_counts": {
      "time": 4,
      "duration": 4,
      "pitch": 4,
      "velocity": 4,
      "numerator": 4,
      "denominator": 4
    }
  },
  {
    "action": "execute_pt",
    "unit": "005",
    "bar_index": 4,
    "pt_name": "alto_flute_bed_b17_1761607505641_1f47",
    "N": 3,
    "seeds": {
      "time": 0,
      "duration": 2,
      "pitch": 60,
      "velocity": 21,
      "numerator": 3,
      "denominator": 4
    },
    "sample_counts": {
      "time": 3,
      "duration": 3,
      "pitch": 3,
      "velocity": 3,
      "numerator": 3,
      "denominator": 3
    }
  },
  {
    "action": "execute_pt",
    "unit": "005",
    "bar_index": 4,
    "pt_name": "bass_clarinet_bed_b17_1761607505641_e124",
    "N": 4,
    "seeds": {
      "time": 0,
      "duration": 1,
      "pitch": 59,
      "velocity": 22,
      "numerator": 3,
      "denominator": 4
    },
    "sample_counts": {
      "time": 4,
      "duration": 4,
      "pitch": 4,
      "velocity": 4,
      "numerator": 4,
      "denominator": 4
    }
  },
  {
    "action": "execute_pt",
    "unit": "005",
    "bar_index": 4,
    "pt_name": "trumpet_melody_b17_1761607505641_4644",
    "N": 8,
    "seeds": {
      "time": 0,
      "duration": 1,
      "pitch": 79,
      "velocity": 110,
      "numerator": 3,
      "denominator": 4
    },
    "sample_counts": {
      "time": 8,
      "duration": 8,
      "pitch": 8,
      "velocity": 8,
      "numerator": 8,
      "denominator": 8
    }
  },
  {
    "action": "execute_pt",
    "unit": "005",
    "bar_index": 4,
    "pt_name": "violin_bed_b17_1761607505641_4118",
    "N": 5,
    "seeds": {
      "time": 0,
      "duration": 1,
      "pitch": 62,
      "velocity": 20,
      "numerator": 3,
      "denominator": 4
    },
    "sample_counts": {
      "time": 5,
      "duration": 5,
      "pitch": 5,
      "velocity": 5,
      "numerator": 5,
      "denominator": 5
    }
  },
  {
    "action": "execute_pt",
    "unit": "005",
    "bar_index": 4,
    "pt_name": "cello_bed_b17_1761607505641_3592",
    "N": 4,
    "seeds": {
      "time": 0,
      "duration": 2,
      "pitch": 62,
      "velocity": 22,
      "numerator": 3,
      "denominator": 4
    },
    "sample_counts": {
      "time": 4,
      "duration": 4,
      "pitch": 4,
      "velocity": 4,
      "numerator": 4,
      "denominator": 4
    }
  },
  {
    "action": "execute_pt",
    "unit": "005",
    "bar_index": 4,
    "pt_name": "double_bass_bed_b17_1761607505641_d215",
    "N": 2,
    "seeds": {
      "time": 0,
      "duration": 3,
      "pitch": 36,
      "velocity": 20,
      "numerator": 3,
      "denominator": 4
    },
    "sample_counts": {
      "time": 2,
      "duration": 2,
      "pitch": 2,
      "velocity": 2,
      "numerator": 2,
      "denominator": 2
    }
  },
  {
    "action": "execute_pt",
    "unit": "006",
    "bar_index": 1,
    "pt_name": "alto_flute_tutti_hit_b18_1761607584624_fe03",
    "N": 2,
    "seeds": {
      "time": 0,
      "duration": 8,
      "pitch": 72,
      "velocity": 112,
      "numerator": 4,
      "denominator": 4
    },
    "sample_counts": {
      "time": 2,
      "duration": 2,
      "pitch": 2,
      "velocity": 2,
      "numerator": 2,
      "denominator": 2
    }
  },
  {
    "action": "execute_pt",
    "unit": "006",
    "bar_index": 1,
    "pt_name": "bass_clarinet_tutti_hit_b18_1761607584624_6ee7",
    "N": 2,
    "seeds": {
      "time": 0,
      "duration": 8,
      "pitch": 58,
      "velocity": 112,
      "numerator": 4,
      "denominator": 4
    },
    "sample_counts": {
      "time": 2,
      "duration": 2,
      "pitch": 2,
      "velocity": 2,
      "numerator": 2,
      "denominator": 2
    }
  },
  {
    "action": "execute_pt",
    "unit": "006",
    "bar_index": 1,
    "pt_name": "trumpet_tutti_hit_b18_1761607584624_41e6",
    "N": 2,
    "seeds": {
      "time": 0,
      "duration": 8,
      "pitch": 74,
      "velocity": 112,
      "numerator": 4,
      "denominator": 4
    },
    "sample_counts": {
      "time": 2,
      "duration": 2,
      "pitch": 2,
      "velocity": 2,
      "numerator": 2,
      "denominator": 2
    }
  },
  {
    "action": "execute_pt",
    "unit": "006",
    "bar_index": 1,
    "pt_name": "violin_tutti_hit_b18_1761607584624_0092",
    "N": 2,
    "seeds": {
      "time": 0,
      "duration": 8,
      "pitch": 69,
      "velocity": 112,
      "numerator": 4,
      "denominator": 4
    },
    "sample_counts": {
      "time": 2,
      "duration": 2,
      "pitch": 2,
      "velocity": 2,
      "numerator": 2,
      "denominator": 2
    }
  },
  {
    "action": "execute_pt",
    "unit": "006",
    "bar_index": 1,
    "pt_name": "cello_tutti_hit_b18_1761607584624_96ee",
    "N": 2,
    "seeds": {
      "time": 0,
      "duration": 8,
      "pitch": 60,
      "velocity": 112,
      "numerator": 4,
      "denominator": 4
    },
    "sample_counts": {
      "time": 2,
      "duration": 2,
      "pitch": 2,
      "velocity": 2,
      "numerator": 2,
      "denominator": 2
    }
  },
  {
    "action": "execute_pt",
    "unit": "006",
    "bar_index": 1,
    "pt_name": "double_bass_tutti_hit_b18_1761607584624_526d",
    "N": 2,
    "seeds": {
      "time": 0,
      "duration": 8,
      "pitch": 43,
      "velocity": 112,
      "numerator": 4,
      "denominator": 4
    },
    "sample_counts": {
      "time": 2,
      "duration": 2,
      "pitch": 2,
      "velocity": 2,
      "numerator": 2,
      "denominator": 2
    }
  },
  {
    "action": "execute_pt",
    "unit": "007",
    "bar_index": 1,
    "pt_name": "alto_flute_line_b19_1761607777223_8c1c",
    "N": 4,
    "seeds": {
      "time": 0,
      "duration": 2,
      "pitch": 68,
      "velocity": 30,
      "numerator": 3,
      "denominator": 4
    },
    "sample_counts": {
      "time": 4,
      "duration": 4,
      "pitch": 4,
      "velocity": 4,
      "numerator": 4,
      "denominator": 4
    }
  },
  {
    "action": "execute_pt",
    "unit": "007",
    "bar_index": 1,
    "pt_name": "bass_clarinet_line_b19_1761607777223_3952",
    "N": 3,
    "seeds": {
      "time": 0,
      "duration": 3,
      "pitch": 56,
      "velocity": 29,
      "numerator": 3,
      "denominator": 4
    },
    "sample_counts": {
      "time": 3,
      "duration": 3,
      "pitch": 3,
      "velocity": 3,
      "numerator": 3,
      "denominator": 3
    }
  },
  {
    "action": "execute_pt",
    "unit": "007",
    "bar_index": 1,
    "pt_name": "trumpet_line_b19_1761607777223_8b9d",
    "N": 6,
    "seeds": {
      "time": 0,
      "duration": 1,
      "pitch": 71,
      "velocity": 29,
      "numerator": 3,
      "denominator": 4
    },
    "sample_counts": {
      "time": 6,
      "duration": 6,
      "pitch": 6,
      "velocity": 6,
      "numerator": 6,
      "denominator": 6
    }
  },
  {
    "action": "execute_pt",
    "unit": "007",
    "bar_index": 1,
    "pt_name": "violin_line_b19_1761607777223_25a6",
    "N": 4,
    "seeds": {
      "time": 0,
      "duration": 2,
      "pitch": 67,
      "velocity": 29,
      "numerator": 3,
      "denominator": 4
    },
    "sample_counts": {
      "time": 4,
      "duration": 4,
      "pitch": 4,
      "velocity": 4,
      "numerator": 4,
      "denominator": 4
    }
  },
  {
    "action": "execute_pt",
    "unit": "007",
    "bar_index": 1,
    "pt_name": "cello_line_b19_1761607777223_7102",
    "N": 2,
    "seeds": {
      "time": 0,
      "duration": 5,
      "pitch": 60,
      "velocity": 28,
      "numerator": 3,
      "denominator": 4
    },
    "sample_counts": {
      "time": 2,
      "duration": 2,
      "pitch": 2,
      "velocity": 2,
      "numerator": 2,
      "denominator": 2
    }
  },
  {
    "action": "execute_pt",
    "unit": "007",
    "bar_index": 1,
    "pt_name": "double_bass_pedal_b19_1761607777223_2e9a",
    "N": 3,
    "seeds": {
      "time": 0,
      "duration": 3,
      "pitch": 43,
      "velocity": 27,
      "numerator": 3,
      "denominator": 4
    },
    "sample_counts": {
      "time": 3,
      "duration": 3,
      "pitch": 3,
      "velocity": 3,
      "numerator": 3,
      "denominator": 3
    }
  },
  {
    "action": "execute_pt",
    "unit": "007",
    "bar_index": 2,
    "pt_name": "alto_flute_line_b20_1761607785127_5c6c",
    "N": 4,
    "seeds": {
      "time": 0,
      "duration": 1,
      "pitch": 66,
      "velocity": 28,
      "numerator": 3,
      "denominator": 4
    },
    "sample_counts": {
      "time": 4,
      "duration": 4,
      "pitch": 4,
      "velocity": 4,
      "numerator": 4,
      "denominator": 4
    }
  },
  {
    "action": "execute_pt",
    "unit": "007",
    "bar_index": 2,
    "pt_name": "bass_clarinet_line_b20_1761607785127_d099",
    "N": 4,
    "seeds": {
      "time": 0,
      "duration": 2,
      "pitch": 59,
      "velocity": 27,
      "numerator": 3,
      "denominator": 4
    },
    "sample_counts": {
      "time": 4,
      "duration": 4,
      "pitch": 4,
      "velocity": 4,
      "numerator": 4,
      "denominator": 4
    }
  },
  {
    "action": "execute_pt",
    "unit": "007",
    "bar_index": 2,
    "pt_name": "trumpet_line_b20_1761607785127_da5d",
    "N": 4,
    "seeds": {
      "time": 0,
      "duration": 1,
      "pitch": 70,
      "velocity": 27,
      "numerator": 3,
      "denominator": 4
    },
    "sample_counts": {
      "time": 4,
      "duration": 4,
      "pitch": 4,
      "velocity": 4,
      "numerator": 4,
      "denominator": 4
    }
  },
  {
    "action": "execute_pt",
    "unit": "007",
    "bar_index": 2,
    "pt_name": "violin_flutter_b20_1761607785127_d668",
    "N": 7,
    "seeds": {
      "time": 0,
      "duration": 1,
      "pitch": 71,
      "velocity": 26,
      "numerator": 3,
      "denominator": 4
    },
    "sample_counts": {
      "time": 7,
      "duration": 7,
      "pitch": 7,
      "velocity": 7,
      "numerator": 7,
      "denominator": 7
    }
  },
  {
    "action": "execute_pt",
    "unit": "007",
    "bar_index": 2,
    "pt_name": "cello_line_b20_1761607785127_64f1",
    "N": 2,
    "seeds": {
      "time": 0,
      "duration": 5,
      "pitch": 62,
      "velocity": 26,
      "numerator": 3,
      "denominator": 4
    },
    "sample_counts": {
      "time": 2,
      "duration": 2,
      "pitch": 2,
      "velocity": 2,
      "numerator": 2,
      "denominator": 2
    }
  },
  {
    "action": "execute_pt",
    "unit": "007",
    "bar_index": 2,
    "pt_name": "double_bass_pedal_b20_1761607785127_1fe1",
    "N": 2,
    "seeds": {
      "time": 0,
      "duration": 5,
      "pitch": 41,
      "velocity": 25,
      "numerator": 3,
      "denominator": 4
    },
    "sample_counts": {
      "time": 2,
      "duration": 2,
      "pitch": 2,
      "velocity": 2,
      "numerator": 2,
      "denominator": 2
    }
  },
  {
    "action": "execute_pt",
    "unit": "007",
    "bar_index": 3,
    "pt_name": "alto_flute_line_b21_1761607792975_f80c",
    "N": 3,
    "seeds": {
      "time": 0,
      "duration": 3,
      "pitch": 67,
      "velocity": 25,
      "numerator": 3,
      "denominator": 4
    },
    "sample_counts": {
      "time": 3,
      "duration": 3,
      "pitch": 3,
      "velocity": 3,
      "numerator": 3,
      "denominator": 3
    }
  },
  {
    "action": "execute_pt",
    "unit": "007",
    "bar_index": 3,
    "pt_name": "bass_clarinet_line_b21_1761607792975_f458",
    "N": 3,
    "seeds": {
      "time": 0,
      "duration": 2,
      "pitch": 55,
      "velocity": 24,
      "numerator": 3,
      "denominator": 4
    },
    "sample_counts": {
      "time": 3,
      "duration": 3,
      "pitch": 3,
      "velocity": 3,
      "numerator": 3,
      "denominator": 3
    }
  },
  {
    "action": "execute_pt",
    "unit": "007",
    "bar_index": 3,
    "pt_name": "trumpet_line_b21_1761607792975_4c68",
    "N": 4,
    "seeds": {
      "time": 0,
      "duration": 1,
      "pitch": 69,
      "velocity": 25,
      "numerator": 3,
      "denominator": 4
    },
    "sample_counts": {
      "time": 4,
      "duration": 4,
      "pitch": 4,
      "velocity": 4,
      "numerator": 4,
      "denominator": 4
    }
  },
  {
    "action": "execute_pt",
    "unit": "007",
    "bar_index": 3,
    "pt_name": "violin_line_b21_1761607792975_2b16",
    "N": 4,
    "seeds": {
      "time": 0,
      "duration": 2,
      "pitch": 66,
      "velocity": 24,
      "numerator": 3,
      "denominator": 4
    },
    "sample_counts": {
      "time": 4,
      "duration": 4,
      "pitch": 4,
      "velocity": 4,
      "numerator": 4,
      "denominator": 4
    }
  },
  {
    "action": "execute_pt",
    "unit": "007",
    "bar_index": 3,
    "pt_name": "cello_line_b21_1761607792975_e7e2",
    "N": 3,
    "seeds": {
      "time": 0,
      "duration": 3,
      "pitch": 59,
      "velocity": 24,
      "numerator": 3,
      "denominator": 4
    },
    "sample_counts": {
      "time": 3,
      "duration": 3,
      "pitch": 3,
      "velocity": 3,
      "numerator": 3,
      "denominator": 3
    }
  },
  {
    "action": "execute_pt",
    "unit": "007",
    "bar_index": 3,
    "pt_name": "double_bass_pedal_b21_1761607792975_2e89",
    "N": 4,
    "seeds": {
      "time": 0,
      "duration": 2,
      "pitch": 42,
      "velocity": 23,
      "numerator": 3,
      "denominator": 4
    },
    "sample_counts": {
      "time": 4,
      "duration": 4,
      "pitch": 4,
      "velocity": 4,
      "numerator": 4,
      "denominator": 4
    }
  },
  {
    "action": "execute_pt",
    "unit": "007",
    "bar_index": 4,
    "pt_name": "alto_flute_line_b22_1761607800744_e47f",
    "N": 2,
    "seeds": {
      "time": 0,
      "duration": 5,
      "pitch": 66,
      "velocity": 22,
      "numerator": 3,
      "denominator": 4
    },
    "sample_counts": {
      "time": 2,
      "duration": 2,
      "pitch": 2,
      "velocity": 2,
      "numerator": 2,
      "denominator": 2
    }
  },
  {
    "action": "execute_pt",
    "unit": "007",
    "bar_index": 4,
    "pt_name": "bass_clarinet_line_b22_1761607800744_c4ed",
    "N": 4,
    "seeds": {
      "time": 0,
      "duration": 2,
      "pitch": 53,
      "velocity": 22,
      "numerator": 3,
      "denominator": 4
    },
    "sample_counts": {
      "time": 4,
      "duration": 4,
      "pitch": 4,
      "velocity": 4,
      "numerator": 4,
      "denominator": 4
    }
  },
  {
    "action": "execute_pt",
    "unit": "007",
    "bar_index": 4,
    "pt_name": "trumpet_line_b22_1761607800744_d301",
    "N": 3,
    "seeds": {
      "time": 0,
      "duration": 2,
      "pitch": 68,
      "velocity": 22,
      "numerator": 3,
      "denominator": 4
    },
    "sample_counts": {
      "time": 3,
      "duration": 3,
      "pitch": 3,
      "velocity": 3,
      "numerator": 3,
      "denominator": 3
    }
  },
  {
    "action": "execute_pt",
    "unit": "007",
    "bar_index": 4,
    "pt_name": "violin_line_b22_1761607800744_0c4b",
    "N": 6,
    "seeds": {
      "time": 0,
      "duration": 1,
      "pitch": 64,
      "velocity": 22,
      "numerator": 3,
      "denominator": 4
    },
    "sample_counts": {
      "time": 6,
      "duration": 6,
      "pitch": 6,
      "velocity": 6,
      "numerator": 6,
      "denominator": 6
    }
  },
  {
    "action": "execute_pt",
    "unit": "007",
    "bar_index": 4,
    "pt_name": "cello_line_b22_1761607800744_25b8",
    "N": 2,
    "seeds": {
      "time": 0,
      "duration": 5,
      "pitch": 58,
      "velocity": 22,
      "numerator": 3,
      "denominator": 4
    },
    "sample_counts": {
      "time": 2,
      "duration": 2,
      "pitch": 2,
      "velocity": 2,
      "numerator": 2,
      "denominator": 2
    }
  },
  {
    "action": "execute_pt",
    "unit": "007",
    "bar_index": 4,
    "pt_name": "double_bass_pedal_b22_1761607800744_793c",
    "N": 3,
    "seeds": {
      "time": 0,
      "duration": 3,
      "pitch": 40,
      "velocity": 21,
      "numerator": 3,
      "denominator": 4
    },
    "sample_counts": {
      "time": 3,
      "duration": 3,
      "pitch": 3,
      "velocity": 3,
      "numerator": 3,
      "denominator": 3
    }
  },
  {
    "action": "execute_pt",
    "unit": "008",
    "bar_index": 1,
    "pt_name": "alto_flute_tutti_hit_b23_1761607904155_51a5",
    "N": 2,
    "seeds": {
      "time": 0,
      "duration": 8,
      "pitch": 74,
      "velocity": 112,
      "numerator": 4,
      "denominator": 4
    },
    "sample_counts": {
      "time": 2,
      "duration": 2,
      "pitch": 2,
      "velocity": 2,
      "numerator": 2,
      "denominator": 2
    }
  },
  {
    "action": "execute_pt",
    "unit": "008",
    "bar_index": 1,
    "pt_name": "bass_clarinet_tutti_hit_b23_1761607904155_2f2d",
    "N": 2,
    "seeds": {
      "time": 0,
      "duration": 8,
      "pitch": 50,
      "velocity": 112,
      "numerator": 4,
      "denominator": 4
    },
    "sample_counts": {
      "time": 2,
      "duration": 2,
      "pitch": 2,
      "velocity": 2,
      "numerator": 2,
      "denominator": 2
    }
  },
  {
    "action": "execute_pt",
    "unit": "008",
    "bar_index": 1,
    "pt_name": "trumpet_tutti_hit_b23_1761607904155_f155",
    "N": 2,
    "seeds": {
      "time": 0,
      "duration": 8,
      "pitch": 71,
      "velocity": 112,
      "numerator": 4,
      "denominator": 4
    },
    "sample_counts": {
      "time": 2,
      "duration": 2,
      "pitch": 2,
      "velocity": 2,
      "numerator": 2,
      "denominator": 2
    }
  },
  {
    "action": "execute_pt",
    "unit": "008",
    "bar_index": 1,
    "pt_name": "violin_tutti_hit_b23_1761607904155_4273",
    "N": 2,
    "seeds": {
      "time": 0,
      "duration": 8,
      "pitch": 67,
      "velocity": 112,
      "numerator": 4,
      "denominator": 4
    },
    "sample_counts": {
      "time": 2,
      "duration": 2,
      "pitch": 2,
      "velocity": 2,
      "numerator": 2,
      "denominator": 2
    }
  },
  {
    "action": "execute_pt",
    "unit": "008",
    "bar_index": 1,
    "pt_name": "cello_tutti_hit_b23_1761607904155_1c83",
    "N": 2,
    "seeds": {
      "time": 0,
      "duration": 8,
      "pitch": 55,
      "velocity": 112,
      "numerator": 4,
      "denominator": 4
    },
    "sample_counts": {
      "time": 2,
      "duration": 2,
      "pitch": 2,
      "velocity": 2,
      "numerator": 2,
      "denominator": 2
    }
  },
  {
    "action": "execute_pt",
    "unit": "008",
    "bar_index": 1,
    "pt_name": "double_bass_tutti_hit_b23_1761607904155_6a65",
    "N": 2,
    "seeds": {
      "time": 0,
      "duration": 8,
      "pitch": 43,
      "velocity": 112,
      "numerator": 4,
      "denominator": 4
    },
    "sample_counts": {
      "time": 2,
      "duration": 2,
      "pitch": 2,
      "velocity": 2,
      "numerator": 2,
      "denominator": 2
    }
  },
  {
    "action": "execute_pt",
    "unit": "008",
    "bar_index": 2,
    "pt_name": "alto_flute_sustain_b24_1761607911889_f801",
    "N": 1,
    "seeds": {
      "time": 0,
      "duration": 16,
      "pitch": 76,
      "velocity": 52,
      "numerator": 4,
      "denominator": 4
    },
    "sample_counts": {
      "time": 1,
      "duration": 1,
      "pitch": 1,
      "velocity": 1,
      "numerator": 1,
      "denominator": 1
    }
  },
  {
    "action": "execute_pt",
    "unit": "008",
    "bar_index": 2,
    "pt_name": "bass_clarinet_sustain_b24_1761607911889_98a0",
    "N": 1,
    "seeds": {
      "time": 0,
      "duration": 16,
      "pitch": 50,
      "velocity": 52,
      "numerator": 4,
      "denominator": 4
    },
    "sample_counts": {
      "time": 1,
      "duration": 1,
      "pitch": 1,
      "velocity": 1,
      "numerator": 1,
      "denominator": 1
    }
  },
  {
    "action": "execute_pt",
    "unit": "008",
    "bar_index": 2,
    "pt_name": "trumpet_sustain_b24_1761607911889_0495",
    "N": 1,
    "seeds": {
      "time": 0,
      "duration": 16,
      "pitch": 74,
      "velocity": 52,
      "numerator": 4,
      "denominator": 4
    },
    "sample_counts": {
      "time": 1,
      "duration": 1,
      "pitch": 1,
      "velocity": 1,
      "numerator": 1,
      "denominator": 1
    }
  },
  {
    "action": "execute_pt",
    "unit": "008",
    "bar_index": 2,
    "pt_name": "violin_sustain_b24_1761607911889_c1e4",
    "N": 1,
    "seeds": {
      "time": 0,
      "duration": 16,
      "pitch": 69,
      "velocity": 52,
      "numerator": 4,
      "denominator": 4
    },
    "sample_counts": {
      "time": 1,
      "duration": 1,
      "pitch": 1,
      "velocity": 1,
      "numerator": 1,
      "denominator": 1
    }
  },
  {
    "action": "execute_pt",
    "unit": "008",
    "bar_index": 2,
    "pt_name": "cello_sustain_b24_1761607911889_13af",
    "N": 1,
    "seeds": {
      "time": 0,
      "duration": 16,
      "pitch": 52,
      "velocity": 52,
      "numerator": 4,
      "denominator": 4
    },
    "sample_counts": {
      "time": 1,
      "duration": 1,
      "pitch": 1,
      "velocity": 1,
      "numerator": 1,
      "denominator": 1
    }
  },
  {
    "action": "execute_pt",
    "unit": "008",
    "bar_index": 2,
    "pt_name": "double_bass_sustain_b24_1761607911889_e25f",
    "N": 1,
    "seeds": {
      "time": 0,
      "duration": 16,
      "pitch": 40,
      "velocity": 52,
      "numerator": 4,
      "denominator": 4
    },
    "sample_counts": {
      "time": 1,
      "duration": 1,
      "pitch": 1,
      "velocity": 1,
      "numerator": 1,
      "denominator": 1
    }
  }
]