[
  {
    "action": "execute_pt",
    "unit": "005",
    "bar_index": 1,
    "pt_name": "alto_flute_response_loop_B_b14_1761567042414_cb85",
    "N": 4,
    "seeds": {
      "time": 0,
      "duration": 1,
      "pitch": 60,
      "velocity": 22,
      "numerator": 3,
      "denominator": 4
    },
    "sample_counts": {
      "time": 4,
      "duration": 4,
      "pitch": 4,
      "velocity": 4,
      "numerator": 4,
      "denominator": 4
    }
  },
  {
    "action": "execute_pt",
    "unit": "005",
    "bar_index": 1,
    "pt_name": "bass_clarinet_response_loop_B_b14_1761567042414_dbf4",
    "N": 4,
    "seeds": {
      "time": 0,
      "duration": 1,
      "pitch": 64,
      "velocity": 23,
      "numerator": 3,
      "denominator": 4
    },
    "sample_counts": {
      "time": 4,
      "duration": 4,
      "pitch": 4,
      "velocity": 4,
      "numerator": 4,
      "denominator": 4
    }
  },
  {
    "action": "execute_pt",
    "unit": "005",
    "bar_index": 1,
    "pt_name": "trumpet_triumphant_melody_b14_1761567042414_9e03",
    "N": 7,
    "seeds": {
      "time": 0,
      "duration": 1,
      "pitch": 79,
      "velocity": 112,
      "numerator": 3,
      "denominator": 4
    },
    "sample_counts": {
      "time": 7,
      "duration": 7,
      "pitch": 7,
      "velocity": 7,
      "numerator": 7,
      "denominator": 7
    }
  },
  {
    "action": "execute_pt",
    "unit": "005",
    "bar_index": 1,
    "pt_name": "violin_response_loop_B_b14_1761567042414_f34c",
    "N": 4,
    "seeds": {
      "time": 0,
      "duration": 1,
      "pitch": 63,
      "velocity": 22,
      "numerator": 3,
      "denominator": 4
    },
    "sample_counts": {
      "time": 4,
      "duration": 4,
      "pitch": 4,
      "velocity": 4,
      "numerator": 4,
      "denominator": 4
    }
  },
  {
    "action": "execute_pt",
    "unit": "005",
    "bar_index": 1,
    "pt_name": "cello_response_loop_B_b14_1761567042414_9f91",
    "N": 4,
    "seeds": {
      "time": 0,
      "duration": 1,
      "pitch": 67,
      "velocity": 24,
      "numerator": 3,
      "denominator": 4
    },
    "sample_counts": {
      "time": 4,
      "duration": 4,
      "pitch": 4,
      "velocity": 4,
      "numerator": 4,
      "denominator": 4
    }
  },
  {
    "action": "execute_pt",
    "unit": "005",
    "bar_index": 1,
    "pt_name": "double_bass_response_loop_B_b14_1761567042414_2685",
    "N": 4,
    "seeds": {
      "time": 0,
      "duration": 1,
      "pitch": 50,
      "velocity": 22,
      "numerator": 3,
      "denominator": 4
    },
    "sample_counts": {
      "time": 4,
      "duration": 4,
      "pitch": 4,
      "velocity": 4,
      "numerator": 4,
      "denominator": 4
    }
  },
  {
    "action": "execute_pt",
    "unit": "005",
    "bar_index": 2,
    "pt_name": "alto_flute_response_loop_B_b15_1761567049894_6fd0",
    "N": 5,
    "seeds": {
      "time": 0,
      "duration": 1,
      "pitch": 61,
      "velocity": 23,
      "numerator": 3,
      "denominator": 4
    },
    "sample_counts": {
      "time": 5,
      "duration": 5,
      "pitch": 5,
      "velocity": 5,
      "numerator": 5,
      "denominator": 5
    }
  },
  {
    "action": "execute_pt",
    "unit": "005",
    "bar_index": 2,
    "pt_name": "bass_clarinet_response_loop_B_b15_1761567049894_7c1e",
    "N": 4,
    "seeds": {
      "time": 0,
      "duration": 1,
      "pitch": 65,
      "velocity": 24,
      "numerator": 3,
      "denominator": 4
    },
    "sample_counts": {
      "time": 4,
      "duration": 4,
      "pitch": 4,
      "velocity": 4,
      "numerator": 4,
      "denominator": 4
    }
  },
  {
    "action": "execute_pt",
    "unit": "005",
    "bar_index": 2,
    "pt_name": "trumpet_triumphant_melody_b15_1761567049894_5b78",
    "N": 6,
    "seeds": {
      "time": 0,
      "duration": 1,
      "pitch": 78,
      "velocity": 112,
      "numerator": 3,
      "denominator": 4
    },
    "sample_counts": {
      "time": 6,
      "duration": 6,
      "pitch": 6,
      "velocity": 6,
      "numerator": 6,
      "denominator": 6
    }
  },
  {
    "action": "execute_pt",
    "unit": "005",
    "bar_index": 2,
    "pt_name": "violin_response_loop_B_b15_1761567049894_396d",
    "N": 5,
    "seeds": {
      "time": 0,
      "duration": 1,
      "pitch": 64,
      "velocity": 23,
      "numerator": 3,
      "denominator": 4
    },
    "sample_counts": {
      "time": 5,
      "duration": 5,
      "pitch": 5,
      "velocity": 5,
      "numerator": 5,
      "denominator": 5
    }
  },
  {
    "action": "execute_pt",
    "unit": "005",
    "bar_index": 2,
    "pt_name": "cello_response_loop_B_b15_1761567049894_1af2",
    "N": 4,
    "seeds": {
      "time": 0,
      "duration": 1,
      "pitch": 68,
      "velocity": 25,
      "numerator": 3,
      "denominator": 4
    },
    "sample_counts": {
      "time": 4,
      "duration": 4,
      "pitch": 4,
      "velocity": 4,
      "numerator": 4,
      "denominator": 4
    }
  },
  {
    "action": "execute_pt",
    "unit": "005",
    "bar_index": 2,
    "pt_name": "double_bass_response_loop_B_b15_1761567049894_9751",
    "N": 4,
    "seeds": {
      "time": 0,
      "duration": 1,
      "pitch": 52,
      "velocity": 23,
      "numerator": 3,
      "denominator": 4
    },
    "sample_counts": {
      "time": 4,
      "duration": 4,
      "pitch": 4,
      "velocity": 4,
      "numerator": 4,
      "denominator": 4
    }
  },
  {
    "action": "execute_pt",
    "unit": "005",
    "bar_index": 3,
    "pt_name": "alto_flute_response_loop_B_b16_1761567057500_19dd",
    "N": 5,
    "seeds": {
      "time": 0,
      "duration": 1,
      "pitch": 62,
      "velocity": 24,
      "numerator": 3,
      "denominator": 4
    },
    "sample_counts": {
      "time": 5,
      "duration": 5,
      "pitch": 5,
      "velocity": 5,
      "numerator": 5,
      "denominator": 5
    }
  },
  {
    "action": "execute_pt",
    "unit": "005",
    "bar_index": 3,
    "pt_name": "bass_clarinet_response_loop_B_b16_1761567057500_1a6e",
    "N": 5,
    "seeds": {
      "time": 0,
      "duration": 1,
      "pitch": 66,
      "velocity": 25,
      "numerator": 3,
      "denominator": 4
    },
    "sample_counts": {
      "time": 5,
      "duration": 5,
      "pitch": 5,
      "velocity": 5,
      "numerator": 5,
      "denominator": 5
    }
  },
  {
    "action": "execute_pt",
    "unit": "005",
    "bar_index": 3,
    "pt_name": "trumpet_triumphant_melody_b16_1761567057500_ff2c",
    "N": 6,
    "seeds": {
      "time": 0,
      "duration": 1,
      "pitch": 80,
      "velocity": 112,
      "numerator": 3,
      "denominator": 4
    },
    "sample_counts": {
      "time": 6,
      "duration": 6,
      "pitch": 6,
      "velocity": 6,
      "numerator": 6,
      "denominator": 6
    }
  },
  {
    "action": "execute_pt",
    "unit": "005",
    "bar_index": 3,
    "pt_name": "violin_response_loop_B_b16_1761567057500_33a5",
    "N": 4,
    "seeds": {
      "time": 0,
      "duration": 1,
      "pitch": 62,
      "velocity": 23,
      "numerator": 3,
      "denominator": 4
    },
    "sample_counts": {
      "time": 4,
      "duration": 4,
      "pitch": 4,
      "velocity": 4,
      "numerator": 4,
      "denominator": 4
    }
  },
  {
    "action": "execute_pt",
    "unit": "005",
    "bar_index": 3,
    "pt_name": "cello_response_loop_B_b16_1761567057500_ed54",
    "N": 5,
    "seeds": {
      "time": 0,
      "duration": 1,
      "pitch": 69,
      "velocity": 26,
      "numerator": 3,
      "denominator": 4
    },
    "sample_counts": {
      "time": 5,
      "duration": 5,
      "pitch": 5,
      "velocity": 5,
      "numerator": 5,
      "denominator": 5
    }
  },
  {
    "action": "execute_pt",
    "unit": "005",
    "bar_index": 3,
    "pt_name": "double_bass_response_loop_B_b16_1761567057500_7a27",
    "N": 4,
    "seeds": {
      "time": 0,
      "duration": 1,
      "pitch": 51,
      "velocity": 24,
      "numerator": 3,
      "denominator": 4
    },
    "sample_counts": {
      "time": 4,
      "duration": 4,
      "pitch": 4,
      "velocity": 4,
      "numerator": 4,
      "denominator": 4
    }
  },
  {
    "action": "execute_pt",
    "unit": "005",
    "bar_index": 4,
    "pt_name": "alto_flute_response_loop_B_b17_1761567064856_efcd",
    "N": 5,
    "seeds": {
      "time": 0,
      "duration": 1,
      "pitch": 63,
      "velocity": 24,
      "numerator": 3,
      "denominator": 4
    },
    "sample_counts": {
      "time": 5,
      "duration": 5,
      "pitch": 5,
      "velocity": 5,
      "numerator": 5,
      "denominator": 5
    }
  },
  {
    "action": "execute_pt",
    "unit": "005",
    "bar_index": 4,
    "pt_name": "bass_clarinet_response_loop_B_b17_1761567064856_b93e",
    "N": 5,
    "seeds": {
      "time": 0,
      "duration": 1,
      "pitch": 67,
      "velocity": 25,
      "numerator": 3,
      "denominator": 4
    },
    "sample_counts": {
      "time": 5,
      "duration": 5,
      "pitch": 5,
      "velocity": 5,
      "numerator": 5,
      "denominator": 5
    }
  },
  {
    "action": "execute_pt",
    "unit": "005",
    "bar_index": 4,
    "pt_name": "trumpet_triumphant_melody_b17_1761567064856_5ab0",
    "N": 7,
    "seeds": {
      "time": 0,
      "duration": 1,
      "pitch": 79,
      "velocity": 112,
      "numerator": 3,
      "denominator": 4
    },
    "sample_counts": {
      "time": 7,
      "duration": 7,
      "pitch": 7,
      "velocity": 7,
      "numerator": 7,
      "denominator": 7
    }
  },
  {
    "action": "execute_pt",
    "unit": "005",
    "bar_index": 4,
    "pt_name": "violin_response_loop_B_b17_1761567064856_4232",
    "N": 4,
    "seeds": {
      "time": 0,
      "duration": 1,
      "pitch": 65,
      "velocity": 23,
      "numerator": 3,
      "denominator": 4
    },
    "sample_counts": {
      "time": 4,
      "duration": 4,
      "pitch": 4,
      "velocity": 4,
      "numerator": 4,
      "denominator": 4
    }
  },
  {
    "action": "execute_pt",
    "unit": "005",
    "bar_index": 4,
    "pt_name": "cello_response_loop_B_b17_1761567064856_7441",
    "N": 4,
    "seeds": {
      "time": 0,
      "duration": 1,
      "pitch": 68,
      "velocity": 26,
      "numerator": 3,
      "denominator": 4
    },
    "sample_counts": {
      "time": 4,
      "duration": 4,
      "pitch": 4,
      "velocity": 4,
      "numerator": 4,
      "denominator": 4
    }
  },
  {
    "action": "execute_pt",
    "unit": "005",
    "bar_index": 4,
    "pt_name": "double_bass_response_loop_B_b17_1761567064856_fc31",
    "N": 5,
    "seeds": {
      "time": 0,
      "duration": 1,
      "pitch": 53,
      "velocity": 24,
      "numerator": 3,
      "denominator": 4
    },
    "sample_counts": {
      "time": 5,
      "duration": 5,
      "pitch": 5,
      "velocity": 5,
      "numerator": 5,
      "denominator": 5
    }
  },
  {
    "action": "execute_pt",
    "unit": "006",
    "bar_index": 1,
    "pt_name": "alto_flute_cadence_B_b18_1761567132398_d324",
    "N": 2,
    "seeds": {
      "time": 0,
      "duration": 8,
      "pitch": 71,
      "velocity": 112,
      "numerator": 4,
      "denominator": 4
    },
    "sample_counts": {
      "time": 2,
      "duration": 2,
      "pitch": 2,
      "velocity": 2,
      "numerator": 2,
      "denominator": 2
    }
  },
  {
    "action": "execute_pt",
    "unit": "006",
    "bar_index": 1,
    "pt_name": "bass_clarinet_cadence_B_b18_1761567132398_a61f",
    "N": 2,
    "seeds": {
      "time": 0,
      "duration": 8,
      "pitch": 59,
      "velocity": 112,
      "numerator": 4,
      "denominator": 4
    },
    "sample_counts": {
      "time": 2,
      "duration": 2,
      "pitch": 2,
      "velocity": 2,
      "numerator": 2,
      "denominator": 2
    }
  },
  {
    "action": "execute_pt",
    "unit": "006",
    "bar_index": 1,
    "pt_name": "trumpet_cadence_B_b18_1761567132398_9659",
    "N": 2,
    "seeds": {
      "time": 0,
      "duration": 8,
      "pitch": 74,
      "velocity": 112,
      "numerator": 4,
      "denominator": 4
    },
    "sample_counts": {
      "time": 2,
      "duration": 2,
      "pitch": 2,
      "velocity": 2,
      "numerator": 2,
      "denominator": 2
    }
  },
  {
    "action": "execute_pt",
    "unit": "006",
    "bar_index": 1,
    "pt_name": "violin_cadence_B_b18_1761567132398_da9d",
    "N": 2,
    "seeds": {
      "time": 0,
      "duration": 8,
      "pitch": 67,
      "velocity": 112,
      "numerator": 4,
      "denominator": 4
    },
    "sample_counts": {
      "time": 2,
      "duration": 2,
      "pitch": 2,
      "velocity": 2,
      "numerator": 2,
      "denominator": 2
    }
  },
  {
    "action": "execute_pt",
    "unit": "006",
    "bar_index": 1,
    "pt_name": "cello_cadence_B_b18_1761567132398_5cd9",
    "N": 2,
    "seeds": {
      "time": 0,
      "duration": 8,
      "pitch": 55,
      "velocity": 112,
      "numerator": 4,
      "denominator": 4
    },
    "sample_counts": {
      "time": 2,
      "duration": 2,
      "pitch": 2,
      "velocity": 2,
      "numerator": 2,
      "denominator": 2
    }
  },
  {
    "action": "execute_pt",
    "unit": "006",
    "bar_index": 1,
    "pt_name": "double_bass_cadence_B_b18_1761567132398_4991",
    "N": 2,
    "seeds": {
      "time": 0,
      "duration": 8,
      "pitch": 43,
      "velocity": 112,
      "numerator": 4,
      "denominator": 4
    },
    "sample_counts": {
      "time": 2,
      "duration": 2,
      "pitch": 2,
      "velocity": 2,
      "numerator": 2,
      "denominator": 2
    }
  },
  {
    "action": "execute_pt",
    "unit": "007",
    "bar_index": 1,
    "pt_name": "alto_flute_cloud_loop_C_b19_1761567272901_67f2",
    "N": 3,
    "seeds": {
      "time": 0,
      "duration": 2,
      "pitch": 74,
      "velocity": 29,
      "numerator": 3,
      "denominator": 4
    },
    "sample_counts": {
      "time": 3,
      "duration": 3,
      "pitch": 3,
      "velocity": 3,
      "numerator": 3,
      "denominator": 3
    }
  },
  {
    "action": "execute_pt",
    "unit": "007",
    "bar_index": 1,
    "pt_name": "bass_clarinet_cloud_loop_C_b19_1761567272901_daaf",
    "N": 2,
    "seeds": {
      "time": 0,
      "duration": 3,
      "pitch": 59,
      "velocity": 28,
      "numerator": 3,
      "denominator": 4
    },
    "sample_counts": {
      "time": 2,
      "duration": 2,
      "pitch": 2,
      "velocity": 2,
      "numerator": 2,
      "denominator": 2
    }
  },
  {
    "action": "execute_pt",
    "unit": "007",
    "bar_index": 1,
    "pt_name": "trumpet_cloud_loop_C_b19_1761567272901_8815",
    "N": 2,
    "seeds": {
      "time": 0,
      "duration": 3,
      "pitch": 71,
      "velocity": 29,
      "numerator": 3,
      "denominator": 4
    },
    "sample_counts": {
      "time": 2,
      "duration": 2,
      "pitch": 2,
      "velocity": 2,
      "numerator": 2,
      "denominator": 2
    }
  },
  {
    "action": "execute_pt",
    "unit": "007",
    "bar_index": 1,
    "pt_name": "violin_cloud_loop_C_b19_1761567272901_ffa9",
    "N": 3,
    "seeds": {
      "time": 0,
      "duration": 2,
      "pitch": 76,
      "velocity": 29,
      "numerator": 3,
      "denominator": 4
    },
    "sample_counts": {
      "time": 3,
      "duration": 3,
      "pitch": 3,
      "velocity": 3,
      "numerator": 3,
      "denominator": 3
    }
  },
  {
    "action": "execute_pt",
    "unit": "007",
    "bar_index": 1,
    "pt_name": "cello_cloud_loop_C_b19_1761567272901_8d03",
    "N": 2,
    "seeds": {
      "time": 0,
      "duration": 3,
      "pitch": 60,
      "velocity": 28,
      "numerator": 3,
      "denominator": 4
    },
    "sample_counts": {
      "time": 2,
      "duration": 2,
      "pitch": 2,
      "velocity": 2,
      "numerator": 2,
      "denominator": 2
    }
  },
  {
    "action": "execute_pt",
    "unit": "007",
    "bar_index": 1,
    "pt_name": "double_bass_cloud_loop_C_b19_1761567272901_5b0f",
    "N": 2,
    "seeds": {
      "time": 0,
      "duration": 3,
      "pitch": 43,
      "velocity": 27,
      "numerator": 3,
      "denominator": 4
    },
    "sample_counts": {
      "time": 2,
      "duration": 2,
      "pitch": 2,
      "velocity": 2,
      "numerator": 2,
      "denominator": 2
    }
  },
  {
    "action": "execute_pt",
    "unit": "007",
    "bar_index": 2,
    "pt_name": "alto_flute_cloud_loop_C_b20_1761567279967_15c3",
    "N": 4,
    "seeds": {
      "time": 0,
      "duration": 1,
      "pitch": 73,
      "velocity": 27,
      "numerator": 3,
      "denominator": 4
    },
    "sample_counts": {
      "time": 4,
      "duration": 4,
      "pitch": 4,
      "velocity": 4,
      "numerator": 4,
      "denominator": 4
    }
  },
  {
    "action": "execute_pt",
    "unit": "007",
    "bar_index": 2,
    "pt_name": "bass_clarinet_cloud_loop_C_b20_1761567279967_0ea8",
    "N": 3,
    "seeds": {
      "time": 0,
      "duration": 2,
      "pitch": 57,
      "velocity": 26,
      "numerator": 3,
      "denominator": 4
    },
    "sample_counts": {
      "time": 3,
      "duration": 3,
      "pitch": 3,
      "velocity": 3,
      "numerator": 3,
      "denominator": 3
    }
  },
  {
    "action": "execute_pt",
    "unit": "007",
    "bar_index": 2,
    "pt_name": "trumpet_cloud_loop_C_b20_1761567279967_fc79",
    "N": 2,
    "seeds": {
      "time": 0,
      "duration": 3,
      "pitch": 69,
      "velocity": 27,
      "numerator": 3,
      "denominator": 4
    },
    "sample_counts": {
      "time": 2,
      "duration": 2,
      "pitch": 2,
      "velocity": 2,
      "numerator": 2,
      "denominator": 2
    }
  },
  {
    "action": "execute_pt",
    "unit": "007",
    "bar_index": 2,
    "pt_name": "violin_cloud_loop_C_b20_1761567279967_74e2",
    "N": 3,
    "seeds": {
      "time": 0,
      "duration": 2,
      "pitch": 74,
      "velocity": 26,
      "numerator": 3,
      "denominator": 4
    },
    "sample_counts": {
      "time": 3,
      "duration": 3,
      "pitch": 3,
      "velocity": 3,
      "numerator": 3,
      "denominator": 3
    }
  },
  {
    "action": "execute_pt",
    "unit": "007",
    "bar_index": 2,
    "pt_name": "cello_cloud_loop_C_b20_1761567279967_9fa4",
    "N": 2,
    "seeds": {
      "time": 0,
      "duration": 3,
      "pitch": 58,
      "velocity": 26,
      "numerator": 3,
      "denominator": 4
    },
    "sample_counts": {
      "time": 2,
      "duration": 2,
      "pitch": 2,
      "velocity": 2,
      "numerator": 2,
      "denominator": 2
    }
  },
  {
    "action": "execute_pt",
    "unit": "007",
    "bar_index": 2,
    "pt_name": "double_bass_cloud_loop_C_b20_1761567279967_759f",
    "N": 2,
    "seeds": {
      "time": 0,
      "duration": 3,
      "pitch": 45,
      "velocity": 26,
      "numerator": 3,
      "denominator": 4
    },
    "sample_counts": {
      "time": 2,
      "duration": 2,
      "pitch": 2,
      "velocity": 2,
      "numerator": 2,
      "denominator": 2
    }
  },
  {
    "action": "execute_pt",
    "unit": "007",
    "bar_index": 3,
    "pt_name": "alto_flute_cloud_loop_C_b21_1761567287054_a25a",
    "N": 2,
    "seeds": {
      "time": 0,
      "duration": 3,
      "pitch": 71,
      "velocity": 25,
      "numerator": 3,
      "denominator": 4
    },
    "sample_counts": {
      "time": 2,
      "duration": 2,
      "pitch": 2,
      "velocity": 2,
      "numerator": 2,
      "denominator": 2
    }
  },
  {
    "action": "execute_pt",
    "unit": "007",
    "bar_index": 3,
    "pt_name": "bass_clarinet_cloud_loop_C_b21_1761567287054_d4fe",
    "N": 3,
    "seeds": {
      "time": 0,
      "duration": 2,
      "pitch": 55,
      "velocity": 24,
      "numerator": 3,
      "denominator": 4
    },
    "sample_counts": {
      "time": 3,
      "duration": 3,
      "pitch": 3,
      "velocity": 3,
      "numerator": 3,
      "denominator": 3
    }
  },
  {
    "action": "execute_pt",
    "unit": "007",
    "bar_index": 3,
    "pt_name": "trumpet_cloud_loop_C_b21_1761567287054_aac8",
    "N": 3,
    "seeds": {
      "time": 0,
      "duration": 2,
      "pitch": 71,
      "velocity": 25,
      "numerator": 3,
      "denominator": 4
    },
    "sample_counts": {
      "time": 3,
      "duration": 3,
      "pitch": 3,
      "velocity": 3,
      "numerator": 3,
      "denominator": 3
    }
  },
  {
    "action": "execute_pt",
    "unit": "007",
    "bar_index": 3,
    "pt_name": "violin_cloud_loop_C_b21_1761567287054_2ac9",
    "N": 2,
    "seeds": {
      "time": 0,
      "duration": 4,
      "pitch": 76,
      "velocity": 24,
      "numerator": 3,
      "denominator": 4
    },
    "sample_counts": {
      "time": 2,
      "duration": 2,
      "pitch": 2,
      "velocity": 2,
      "numerator": 2,
      "denominator": 2
    }
  },
  {
    "action": "execute_pt",
    "unit": "007",
    "bar_index": 3,
    "pt_name": "cello_cloud_loop_C_b21_1761567287054_466a",
    "N": 3,
    "seeds": {
      "time": 0,
      "duration": 1,
      "pitch": 60,
      "velocity": 24,
      "numerator": 3,
      "denominator": 4
    },
    "sample_counts": {
      "time": 3,
      "duration": 3,
      "pitch": 3,
      "velocity": 3,
      "numerator": 3,
      "denominator": 3
    }
  },
  {
    "action": "execute_pt",
    "unit": "007",
    "bar_index": 3,
    "pt_name": "double_bass_cloud_loop_C_b21_1761567287054_9f72",
    "N": 2,
    "seeds": {
      "time": 0,
      "duration": 3,
      "pitch": 47,
      "velocity": 24,
      "numerator": 3,
      "denominator": 4
    },
    "sample_counts": {
      "time": 2,
      "duration": 2,
      "pitch": 2,
      "velocity": 2,
      "numerator": 2,
      "denominator": 2
    }
  },
  {
    "action": "execute_pt",
    "unit": "007",
    "bar_index": 4,
    "pt_name": "alto_flute_cloud_loop_C_b22_1761567294043_e38f",
    "N": 2,
    "seeds": {
      "time": 0,
      "duration": 3,
      "pitch": 70,
      "velocity": 22,
      "numerator": 3,
      "denominator": 4
    },
    "sample_counts": {
      "time": 2,
      "duration": 2,
      "pitch": 2,
      "velocity": 2,
      "numerator": 2,
      "denominator": 2
    }
  },
  {
    "action": "execute_pt",
    "unit": "007",
    "bar_index": 4,
    "pt_name": "bass_clarinet_cloud_loop_C_b22_1761567294043_55b8",
    "N": 2,
    "seeds": {
      "time": 0,
      "duration": 3,
      "pitch": 54,
      "velocity": 22,
      "numerator": 3,
      "denominator": 4
    },
    "sample_counts": {
      "time": 2,
      "duration": 2,
      "pitch": 2,
      "velocity": 2,
      "numerator": 2,
      "denominator": 2
    }
  },
  {
    "action": "execute_pt",
    "unit": "007",
    "bar_index": 4,
    "pt_name": "trumpet_cloud_loop_C_b22_1761567294043_1434",
    "N": 1,
    "seeds": {
      "time": 0,
      "duration": 9,
      "pitch": 67,
      "velocity": 22,
      "numerator": 3,
      "denominator": 4
    },
    "sample_counts": {
      "time": 1,
      "duration": 1,
      "pitch": 1,
      "velocity": 1,
      "numerator": 1,
      "denominator": 1
    }
  },
  {
    "action": "execute_pt",
    "unit": "007",
    "bar_index": 4,
    "pt_name": "violin_cloud_loop_C_b22_1761567294043_03a5",
    "N": 2,
    "seeds": {
      "time": 0,
      "duration": 2,
      "pitch": 72,
      "velocity": 22,
      "numerator": 3,
      "denominator": 4
    },
    "sample_counts": {
      "time": 2,
      "duration": 2,
      "pitch": 2,
      "velocity": 2,
      "numerator": 2,
      "denominator": 2
    }
  },
  {
    "action": "execute_pt",
    "unit": "007",
    "bar_index": 4,
    "pt_name": "cello_cloud_loop_C_b22_1761567294043_2b55",
    "N": 2,
    "seeds": {
      "time": 0,
      "duration": 3,
      "pitch": 57,
      "velocity": 22,
      "numerator": 3,
      "denominator": 4
    },
    "sample_counts": {
      "time": 2,
      "duration": 2,
      "pitch": 2,
      "velocity": 2,
      "numerator": 2,
      "denominator": 2
    }
  },
  {
    "action": "execute_pt",
    "unit": "007",
    "bar_index": 4,
    "pt_name": "double_bass_cloud_loop_C_b22_1761567294043_b31f",
    "N": 1,
    "seeds": {
      "time": 0,
      "duration": 9,
      "pitch": 42,
      "velocity": 22,
      "numerator": 3,
      "denominator": 4
    },
    "sample_counts": {
      "time": 1,
      "duration": 1,
      "pitch": 1,
      "velocity": 1,
      "numerator": 1,
      "denominator": 1
    }
  },
  {
    "action": "execute_pt",
    "unit": "008",
    "bar_index": 1,
    "pt_name": "alto_flute_decisive_cadence_b23_1761567369261_7343",
    "N": 2,
    "seeds": {
      "time": 0,
      "duration": 8,
      "pitch": 74,
      "velocity": 112,
      "numerator": 4,
      "denominator": 4
    },
    "sample_counts": {
      "time": 2,
      "duration": 2,
      "pitch": 2,
      "velocity": 2,
      "numerator": 2,
      "denominator": 2
    }
  },
  {
    "action": "execute_pt",
    "unit": "008",
    "bar_index": 1,
    "pt_name": "bass_clarinet_decisive_cadence_b23_1761567369261_00e8",
    "N": 2,
    "seeds": {
      "time": 0,
      "duration": 8,
      "pitch": 59,
      "velocity": 112,
      "numerator": 4,
      "denominator": 4
    },
    "sample_counts": {
      "time": 2,
      "duration": 2,
      "pitch": 2,
      "velocity": 2,
      "numerator": 2,
      "denominator": 2
    }
  },
  {
    "action": "execute_pt",
    "unit": "008",
    "bar_index": 1,
    "pt_name": "trumpet_decisive_cadence_b23_1761567369261_ca17",
    "N": 2,
    "seeds": {
      "time": 0,
      "duration": 8,
      "pitch": 78,
      "velocity": 112,
      "numerator": 4,
      "denominator": 4
    },
    "sample_counts": {
      "time": 2,
      "duration": 2,
      "pitch": 2,
      "velocity": 2,
      "numerator": 2,
      "denominator": 2
    }
  },
  {
    "action": "execute_pt",
    "unit": "008",
    "bar_index": 1,
    "pt_name": "violin_decisive_cadence_b23_1761567369261_1db6",
    "N": 2,
    "seeds": {
      "time": 0,
      "duration": 8,
      "pitch": 69,
      "velocity": 112,
      "numerator": 4,
      "denominator": 4
    },
    "sample_counts": {
      "time": 2,
      "duration": 2,
      "pitch": 2,
      "velocity": 2,
      "numerator": 2,
      "denominator": 2
    }
  },
  {
    "action": "execute_pt",
    "unit": "008",
    "bar_index": 1,
    "pt_name": "cello_decisive_cadence_b23_1761567369261_af23",
    "N": 2,
    "seeds": {
      "time": 0,
      "duration": 8,
      "pitch": 55,
      "velocity": 112,
      "numerator": 4,
      "denominator": 4
    },
    "sample_counts": {
      "time": 2,
      "duration": 2,
      "pitch": 2,
      "velocity": 2,
      "numerator": 2,
      "denominator": 2
    }
  },
  {
    "action": "execute_pt",
    "unit": "008",
    "bar_index": 1,
    "pt_name": "double_bass_decisive_cadence_b23_1761567369261_ddaf",
    "N": 2,
    "seeds": {
      "time": 0,
      "duration": 8,
      "pitch": 43,
      "velocity": 112,
      "numerator": 4,
      "denominator": 4
    },
    "sample_counts": {
      "time": 2,
      "duration": 2,
      "pitch": 2,
      "velocity": 2,
      "numerator": 2,
      "denominator": 2
    }
  },
  {
    "action": "execute_pt",
    "unit": "008",
    "bar_index": 2,
    "pt_name": "alto_flute_open_question_b24_1761567376852_7cf5",
    "N": 1,
    "seeds": {
      "time": 0,
      "duration": 16,
      "pitch": 79,
      "velocity": 52,
      "numerator": 4,
      "denominator": 4
    },
    "sample_counts": {
      "time": 1,
      "duration": 1,
      "pitch": 1,
      "velocity": 1,
      "numerator": 1,
      "denominator": 1
    }
  },
  {
    "action": "execute_pt",
    "unit": "008",
    "bar_index": 2,
    "pt_name": "bass_clarinet_open_question_b24_1761567376852_6f78",
    "N": 1,
    "seeds": {
      "time": 0,
      "duration": 16,
      "pitch": 64,
      "velocity": 50,
      "numerator": 4,
      "denominator": 4
    },
    "sample_counts": {
      "time": 1,
      "duration": 1,
      "pitch": 1,
      "velocity": 1,
      "numerator": 1,
      "denominator": 1
    }
  },
  {
    "action": "execute_pt",
    "unit": "008",
    "bar_index": 2,
    "pt_name": "trumpet_open_question_b24_1761567376852_ca5d",
    "N": 1,
    "seeds": {
      "time": 0,
      "duration": 16,
      "pitch": 76,
      "velocity": 54,
      "numerator": 4,
      "denominator": 4
    },
    "sample_counts": {
      "time": 1,
      "duration": 1,
      "pitch": 1,
      "velocity": 1,
      "numerator": 1,
      "denominator": 1
    }
  },
  {
    "action": "execute_pt",
    "unit": "008",
    "bar_index": 2,
    "pt_name": "violin_open_question_b24_1761567376852_cb49",
    "N": 1,
    "seeds": {
      "time": 0,
      "duration": 16,
      "pitch": 69,
      "velocity": 50,
      "numerator": 4,
      "denominator": 4
    },
    "sample_counts": {
      "time": 1,
      "duration": 1,
      "pitch": 1,
      "velocity": 1,
      "numerator": 1,
      "denominator": 1
    }
  },
  {
    "action": "execute_pt",
    "unit": "008",
    "bar_index": 2,
    "pt_name": "cello_open_question_b24_1761567376852_d252",
    "N": 1,
    "seeds": {
      "time": 0,
      "duration": 16,
      "pitch": 57,
      "velocity": 48,
      "numerator": 4,
      "denominator": 4
    },
    "sample_counts": {
      "time": 1,
      "duration": 1,
      "pitch": 1,
      "velocity": 1,
      "numerator": 1,
      "denominator": 1
    }
  },
  {
    "action": "execute_pt",
    "unit": "008",
    "bar_index": 2,
    "pt_name": "double_bass_open_question_b24_1761567376852_2535",
    "N": 1,
    "seeds": {
      "time": 0,
      "duration": 16,
      "pitch": 38,
      "velocity": 48,
      "numerator": 4,
      "denominator": 4
    },
    "sample_counts": {
      "time": 1,
      "duration": 1,
      "pitch": 1,
      "velocity": 1,
      "numerator": 1,
      "denominator": 1
    }
  }
]