[
  {
    "action": "execute_pt",
    "unit": "024",
    "bar_index": 1,
    "pt_name": "alto_flute_ppp_answer_texture_b46_1760994255603_608f",
    "N": 3,
    "seeds": {
      "time": 0,
      "duration": 2,
      "pitch": 79,
      "velocity": 22,
      "numerator": 3,
      "denominator": 4
    },
    "sample_counts": {
      "time": 3,
      "duration": 3,
      "pitch": 3,
      "velocity": 3,
      "numerator": 3,
      "denominator": 3
    }
  },
  {
    "action": "execute_pt",
    "unit": "024",
    "bar_index": 1,
    "pt_name": "violin_ppp_answer_texture_b46_1760994255603_84c3",
    "N": 3,
    "seeds": {
      "time": 0,
      "duration": 2,
      "pitch": 74,
      "velocity": 22,
      "numerator": 3,
      "denominator": 4
    },
    "sample_counts": {
      "time": 3,
      "duration": 3,
      "pitch": 3,
      "velocity": 3,
      "numerator": 3,
      "denominator": 3
    }
  },
  {
    "action": "execute_pt",
    "unit": "024",
    "bar_index": 1,
    "pt_name": "bass_clarinet_ppp_answer_texture_b46_1760994255603_8d90",
    "N": 3,
    "seeds": {
      "time": 0,
      "duration": 2,
      "pitch": 50,
      "velocity": 22,
      "numerator": 3,
      "denominator": 4
    },
    "sample_counts": {
      "time": 3,
      "duration": 3,
      "pitch": 3,
      "velocity": 3,
      "numerator": 3,
      "denominator": 3
    }
  },
  {
    "action": "execute_pt",
    "unit": "024",
    "bar_index": 1,
    "pt_name": "trumpet_triumphant_melody_b46_1760994255603_a702",
    "N": 6,
    "seeds": {
      "time": 0,
      "duration": 2,
      "pitch": 74,
      "velocity": 110,
      "numerator": 3,
      "denominator": 4
    },
    "sample_counts": {
      "time": 6,
      "duration": 6,
      "pitch": 6,
      "velocity": 6,
      "numerator": 6,
      "denominator": 6
    }
  },
  {
    "action": "execute_pt",
    "unit": "024",
    "bar_index": 1,
    "pt_name": "cello_ppp_answer_texture_b46_1760994255603_6460",
    "N": 3,
    "seeds": {
      "time": 0,
      "duration": 2,
      "pitch": 60,
      "velocity": 22,
      "numerator": 3,
      "denominator": 4
    },
    "sample_counts": {
      "time": 3,
      "duration": 3,
      "pitch": 3,
      "velocity": 3,
      "numerator": 3,
      "denominator": 3
    }
  },
  {
    "action": "execute_pt",
    "unit": "024",
    "bar_index": 1,
    "pt_name": "double_bass_ppp_answer_texture_b46_1760994255603_fc2a",
    "N": 3,
    "seeds": {
      "time": 0,
      "duration": 2,
      "pitch": 42,
      "velocity": 22,
      "numerator": 3,
      "denominator": 4
    },
    "sample_counts": {
      "time": 3,
      "duration": 3,
      "pitch": 3,
      "velocity": 3,
      "numerator": 3,
      "denominator": 3
    }
  },
  {
    "action": "execute_pt",
    "unit": "024",
    "bar_index": 2,
    "pt_name": "alto_flute_ppp_answer_texture_b47_1760994264084_3300",
    "N": 3,
    "seeds": {
      "time": 0,
      "duration": 2,
      "pitch": 78,
      "velocity": 22,
      "numerator": 3,
      "denominator": 4
    },
    "sample_counts": {
      "time": 3,
      "duration": 3,
      "pitch": 3,
      "velocity": 3,
      "numerator": 3,
      "denominator": 3
    }
  },
  {
    "action": "execute_pt",
    "unit": "024",
    "bar_index": 2,
    "pt_name": "violin_ppp_answer_texture_b47_1760994264084_2e5a",
    "N": 3,
    "seeds": {
      "time": 0,
      "duration": 2,
      "pitch": 75,
      "velocity": 22,
      "numerator": 3,
      "denominator": 4
    },
    "sample_counts": {
      "time": 3,
      "duration": 3,
      "pitch": 3,
      "velocity": 3,
      "numerator": 3,
      "denominator": 3
    }
  },
  {
    "action": "execute_pt",
    "unit": "024",
    "bar_index": 2,
    "pt_name": "bass_clarinet_ppp_answer_texture_b47_1760994264084_5d3e",
    "N": 3,
    "seeds": {
      "time": 0,
      "duration": 2,
      "pitch": 49,
      "velocity": 22,
      "numerator": 3,
      "denominator": 4
    },
    "sample_counts": {
      "time": 3,
      "duration": 3,
      "pitch": 3,
      "velocity": 3,
      "numerator": 3,
      "denominator": 3
    }
  },
  {
    "action": "execute_pt",
    "unit": "024",
    "bar_index": 2,
    "pt_name": "trumpet_triumphant_melody_b47_1760994264084_ebe8",
    "N": 6,
    "seeds": {
      "time": 0,
      "duration": 2,
      "pitch": 76,
      "velocity": 111,
      "numerator": 3,
      "denominator": 4
    },
    "sample_counts": {
      "time": 6,
      "duration": 6,
      "pitch": 6,
      "velocity": 6,
      "numerator": 6,
      "denominator": 6
    }
  },
  {
    "action": "execute_pt",
    "unit": "024",
    "bar_index": 2,
    "pt_name": "cello_ppp_answer_texture_b47_1760994264084_68d5",
    "N": 3,
    "seeds": {
      "time": 0,
      "duration": 2,
      "pitch": 61,
      "velocity": 22,
      "numerator": 3,
      "denominator": 4
    },
    "sample_counts": {
      "time": 3,
      "duration": 3,
      "pitch": 3,
      "velocity": 3,
      "numerator": 3,
      "denominator": 3
    }
  },
  {
    "action": "execute_pt",
    "unit": "024",
    "bar_index": 2,
    "pt_name": "double_bass_ppp_answer_texture_b47_1760994264084_7d24",
    "N": 3,
    "seeds": {
      "time": 0,
      "duration": 2,
      "pitch": 41,
      "velocity": 22,
      "numerator": 3,
      "denominator": 4
    },
    "sample_counts": {
      "time": 3,
      "duration": 3,
      "pitch": 3,
      "velocity": 3,
      "numerator": 3,
      "denominator": 3
    }
  },
  {
    "action": "execute_pt",
    "unit": "024",
    "bar_index": 3,
    "pt_name": "alto_flute_ppp_answer_texture_b48_1760994272970_41ba",
    "N": 3,
    "seeds": {
      "time": 0,
      "duration": 2,
      "pitch": 70,
      "velocity": 22,
      "numerator": 3,
      "denominator": 4
    },
    "sample_counts": {
      "time": 3,
      "duration": 3,
      "pitch": 3,
      "velocity": 3,
      "numerator": 3,
      "denominator": 3
    }
  },
  {
    "action": "execute_pt",
    "unit": "024",
    "bar_index": 3,
    "pt_name": "violin_ppp_answer_texture_b48_1760994272970_6a38",
    "N": 3,
    "seeds": {
      "time": 0,
      "duration": 2,
      "pitch": 77,
      "velocity": 22,
      "numerator": 3,
      "denominator": 4
    },
    "sample_counts": {
      "time": 3,
      "duration": 3,
      "pitch": 3,
      "velocity": 3,
      "numerator": 3,
      "denominator": 3
    }
  },
  {
    "action": "execute_pt",
    "unit": "024",
    "bar_index": 3,
    "pt_name": "bass_clarinet_ppp_answer_texture_b48_1760994272970_6966",
    "N": 3,
    "seeds": {
      "time": 0,
      "duration": 2,
      "pitch": 52,
      "velocity": 22,
      "numerator": 3,
      "denominator": 4
    },
    "sample_counts": {
      "time": 3,
      "duration": 3,
      "pitch": 3,
      "velocity": 3,
      "numerator": 3,
      "denominator": 3
    }
  },
  {
    "action": "execute_pt",
    "unit": "024",
    "bar_index": 3,
    "pt_name": "trumpet_triumphant_melody_b48_1760994272971_87f1",
    "N": 5,
    "seeds": {
      "time": 0,
      "duration": 2,
      "pitch": 77,
      "velocity": 112,
      "numerator": 3,
      "denominator": 4
    },
    "sample_counts": {
      "time": 5,
      "duration": 5,
      "pitch": 5,
      "velocity": 5,
      "numerator": 5,
      "denominator": 5
    }
  },
  {
    "action": "execute_pt",
    "unit": "024",
    "bar_index": 3,
    "pt_name": "cello_ppp_answer_texture_b48_1760994272971_6667",
    "N": 3,
    "seeds": {
      "time": 0,
      "duration": 2,
      "pitch": 60,
      "velocity": 22,
      "numerator": 3,
      "denominator": 4
    },
    "sample_counts": {
      "time": 3,
      "duration": 3,
      "pitch": 3,
      "velocity": 3,
      "numerator": 3,
      "denominator": 3
    }
  },
  {
    "action": "execute_pt",
    "unit": "024",
    "bar_index": 3,
    "pt_name": "double_bass_ppp_answer_texture_b48_1760994272971_f995",
    "N": 3,
    "seeds": {
      "time": 0,
      "duration": 2,
      "pitch": 38,
      "velocity": 22,
      "numerator": 3,
      "denominator": 4
    },
    "sample_counts": {
      "time": 3,
      "duration": 3,
      "pitch": 3,
      "velocity": 3,
      "numerator": 3,
      "denominator": 3
    }
  },
  {
    "action": "execute_pt",
    "unit": "024",
    "bar_index": 4,
    "pt_name": "alto_flute_ppp_answer_texture_b49_1760994281155_cc87",
    "N": 3,
    "seeds": {
      "time": 0,
      "duration": 2,
      "pitch": 69,
      "velocity": 22,
      "numerator": 3,
      "denominator": 4
    },
    "sample_counts": {
      "time": 3,
      "duration": 3,
      "pitch": 3,
      "velocity": 3,
      "numerator": 3,
      "denominator": 3
    }
  },
  {
    "action": "execute_pt",
    "unit": "024",
    "bar_index": 4,
    "pt_name": "violin_ppp_answer_texture_b49_1760994281155_f31c",
    "N": 3,
    "seeds": {
      "time": 0,
      "duration": 2,
      "pitch": 74,
      "velocity": 22,
      "numerator": 3,
      "denominator": 4
    },
    "sample_counts": {
      "time": 3,
      "duration": 3,
      "pitch": 3,
      "velocity": 3,
      "numerator": 3,
      "denominator": 3
    }
  },
  {
    "action": "execute_pt",
    "unit": "024",
    "bar_index": 4,
    "pt_name": "bass_clarinet_ppp_answer_texture_b49_1760994281155_0ff9",
    "N": 3,
    "seeds": {
      "time": 0,
      "duration": 2,
      "pitch": 53,
      "velocity": 22,
      "numerator": 3,
      "denominator": 4
    },
    "sample_counts": {
      "time": 3,
      "duration": 3,
      "pitch": 3,
      "velocity": 3,
      "numerator": 3,
      "denominator": 3
    }
  },
  {
    "action": "execute_pt",
    "unit": "024",
    "bar_index": 4,
    "pt_name": "trumpet_triumphant_melody_b49_1760994281155_06ac",
    "N": 6,
    "seeds": {
      "time": 0,
      "duration": 2,
      "pitch": 76,
      "velocity": 113,
      "numerator": 3,
      "denominator": 4
    },
    "sample_counts": {
      "time": 6,
      "duration": 6,
      "pitch": 6,
      "velocity": 6,
      "numerator": 6,
      "denominator": 6
    }
  },
  {
    "action": "execute_pt",
    "unit": "024",
    "bar_index": 4,
    "pt_name": "cello_ppp_answer_texture_b49_1760994281155_432d",
    "N": 3,
    "seeds": {
      "time": 0,
      "duration": 2,
      "pitch": 61,
      "velocity": 22,
      "numerator": 3,
      "denominator": 4
    },
    "sample_counts": {
      "time": 3,
      "duration": 3,
      "pitch": 3,
      "velocity": 3,
      "numerator": 3,
      "denominator": 3
    }
  },
  {
    "action": "execute_pt",
    "unit": "024",
    "bar_index": 4,
    "pt_name": "double_bass_ppp_answer_texture_b49_1760994281155_4d28",
    "N": 3,
    "seeds": {
      "time": 0,
      "duration": 2,
      "pitch": 42,
      "velocity": 22,
      "numerator": 3,
      "denominator": 4
    },
    "sample_counts": {
      "time": 3,
      "duration": 3,
      "pitch": 3,
      "velocity": 3,
      "numerator": 3,
      "denominator": 3
    }
  },
  {
    "action": "execute_pt",
    "unit": "025",
    "bar_index": 1,
    "pt_name": "alto_flute_cadence_top_b50_1760994337768_45f3",
    "N": 2,
    "seeds": {
      "time": 0,
      "duration": 8,
      "pitch": 73,
      "velocity": 112,
      "numerator": 4,
      "denominator": 4
    },
    "sample_counts": {
      "time": 2,
      "duration": 2,
      "pitch": 2,
      "velocity": 2,
      "numerator": 2,
      "denominator": 2
    }
  },
  {
    "action": "execute_pt",
    "unit": "025",
    "bar_index": 1,
    "pt_name": "violin_cadence_upper_mid_b50_1760994337768_553a",
    "N": 2,
    "seeds": {
      "time": 0,
      "duration": 8,
      "pitch": 61,
      "velocity": 112,
      "numerator": 4,
      "denominator": 4
    },
    "sample_counts": {
      "time": 2,
      "duration": 2,
      "pitch": 2,
      "velocity": 2,
      "numerator": 2,
      "denominator": 2
    }
  },
  {
    "action": "execute_pt",
    "unit": "025",
    "bar_index": 1,
    "pt_name": "bass_clarinet_cadence_low_mid_b50_1760994337768_172d",
    "N": 2,
    "seeds": {
      "time": 0,
      "duration": 8,
      "pitch": 53,
      "velocity": 112,
      "numerator": 4,
      "denominator": 4
    },
    "sample_counts": {
      "time": 2,
      "duration": 2,
      "pitch": 2,
      "velocity": 2,
      "numerator": 2,
      "denominator": 2
    }
  },
  {
    "action": "execute_pt",
    "unit": "025",
    "bar_index": 1,
    "pt_name": "trumpet_cadence_high_brass_b50_1760994337768_409b",
    "N": 2,
    "seeds": {
      "time": 0,
      "duration": 8,
      "pitch": 68,
      "velocity": 112,
      "numerator": 4,
      "denominator": 4
    },
    "sample_counts": {
      "time": 2,
      "duration": 2,
      "pitch": 2,
      "velocity": 2,
      "numerator": 2,
      "denominator": 2
    }
  },
  {
    "action": "execute_pt",
    "unit": "025",
    "bar_index": 1,
    "pt_name": "cello_cadence_low_voice_b50_1760994337768_a88d",
    "N": 2,
    "seeds": {
      "time": 0,
      "duration": 8,
      "pitch": 52,
      "velocity": 112,
      "numerator": 4,
      "denominator": 4
    },
    "sample_counts": {
      "time": 2,
      "duration": 2,
      "pitch": 2,
      "velocity": 2,
      "numerator": 2,
      "denominator": 2
    }
  },
  {
    "action": "execute_pt",
    "unit": "025",
    "bar_index": 1,
    "pt_name": "double_bass_cadence_anchor_b50_1760994337768_2415",
    "N": 2,
    "seeds": {
      "time": 0,
      "duration": 8,
      "pitch": 37,
      "velocity": 112,
      "numerator": 4,
      "denominator": 4
    },
    "sample_counts": {
      "time": 2,
      "duration": 2,
      "pitch": 2,
      "velocity": 2,
      "numerator": 2,
      "denominator": 2
    }
  }
]