[
  {
    "action": "execute_pt",
    "unit": "001",
    "bar_index": 1,
    "pt_name": "alto_flute_tacet_b1_1761514962607_225e",
    "N": 1,
    "seeds": {
      "time": 11,
      "duration": 1,
      "pitch": 60,
      "velocity": 0,
      "numerator": 3,
      "denominator": 4
    },
    "sample_counts": {
      "time": 1,
      "duration": 1,
      "pitch": 1,
      "velocity": 1,
      "numerator": 1,
      "denominator": 1
    }
  },
  {
    "action": "execute_pt",
    "unit": "001",
    "bar_index": 1,
    "pt_name": "violin_soprano_b1_1761514962607_75d6",
    "N": 1,
    "seeds": {
      "time": 0,
      "duration": 12,
      "pitch": 73,
      "velocity": 48,
      "numerator": 3,
      "denominator": 4
    },
    "sample_counts": {
      "time": 1,
      "duration": 1,
      "pitch": 1,
      "velocity": 1,
      "numerator": 1,
      "denominator": 1
    }
  },
  {
    "action": "execute_pt",
    "unit": "001",
    "bar_index": 1,
    "pt_name": "bass_clarinet_tacet_b1_1761514962607_78d5",
    "N": 1,
    "seeds": {
      "time": 11,
      "duration": 1,
      "pitch": 60,
      "velocity": 0,
      "numerator": 3,
      "denominator": 4
    },
    "sample_counts": {
      "time": 1,
      "duration": 1,
      "pitch": 1,
      "velocity": 1,
      "numerator": 1,
      "denominator": 1
    }
  },
  {
    "action": "execute_pt",
    "unit": "001",
    "bar_index": 1,
    "pt_name": "trumpet_tacet_b1_1761514962607_de6f",
    "N": 1,
    "seeds": {
      "time": 11,
      "duration": 1,
      "pitch": 64,
      "velocity": 0,
      "numerator": 3,
      "denominator": 4
    },
    "sample_counts": {
      "time": 1,
      "duration": 1,
      "pitch": 1,
      "velocity": 1,
      "numerator": 1,
      "denominator": 1
    }
  },
  {
    "action": "execute_pt",
    "unit": "001",
    "bar_index": 1,
    "pt_name": "cello_alto_b1_1761514962607_2280",
    "N": 1,
    "seeds": {
      "time": 0,
      "duration": 12,
      "pitch": 57,
      "velocity": 46,
      "numerator": 3,
      "denominator": 4
    },
    "sample_counts": {
      "time": 1,
      "duration": 1,
      "pitch": 1,
      "velocity": 1,
      "numerator": 1,
      "denominator": 1
    }
  },
  {
    "action": "execute_pt",
    "unit": "001",
    "bar_index": 1,
    "pt_name": "double_bass_bass_root_b1_1761514962607_c143",
    "N": 1,
    "seeds": {
      "time": 0,
      "duration": 12,
      "pitch": 42,
      "velocity": 44,
      "numerator": 3,
      "denominator": 4
    },
    "sample_counts": {
      "time": 1,
      "duration": 1,
      "pitch": 1,
      "velocity": 1,
      "numerator": 1,
      "denominator": 1
    }
  },
  {
    "action": "execute_pt",
    "unit": "001",
    "bar_index": 2,
    "pt_name": "alto_flute_tacet_b2_1761514970934_df68",
    "N": 1,
    "seeds": {
      "time": 11,
      "duration": 1,
      "pitch": 60,
      "velocity": 0,
      "numerator": 3,
      "denominator": 4
    },
    "sample_counts": {
      "time": 1,
      "duration": 1,
      "pitch": 1,
      "velocity": 1,
      "numerator": 1,
      "denominator": 1
    }
  },
  {
    "action": "execute_pt",
    "unit": "001",
    "bar_index": 2,
    "pt_name": "violin_soprano_b2_1761514970934_012d",
    "N": 2,
    "seeds": {
      "time": 0,
      "duration": 8,
      "pitch": 67,
      "velocity": 49,
      "numerator": 3,
      "denominator": 4
    },
    "sample_counts": {
      "time": 2,
      "duration": 2,
      "pitch": 2,
      "velocity": 2,
      "numerator": 2,
      "denominator": 2
    }
  },
  {
    "action": "execute_pt",
    "unit": "001",
    "bar_index": 2,
    "pt_name": "bass_clarinet_tacet_b2_1761514970934_e4d0",
    "N": 1,
    "seeds": {
      "time": 11,
      "duration": 1,
      "pitch": 60,
      "velocity": 0,
      "numerator": 3,
      "denominator": 4
    },
    "sample_counts": {
      "time": 1,
      "duration": 1,
      "pitch": 1,
      "velocity": 1,
      "numerator": 1,
      "denominator": 1
    }
  },
  {
    "action": "execute_pt",
    "unit": "001",
    "bar_index": 2,
    "pt_name": "trumpet_tacet_b2_1761514970934_b50d",
    "N": 1,
    "seeds": {
      "time": 11,
      "duration": 1,
      "pitch": 64,
      "velocity": 0,
      "numerator": 3,
      "denominator": 4
    },
    "sample_counts": {
      "time": 1,
      "duration": 1,
      "pitch": 1,
      "velocity": 1,
      "numerator": 1,
      "denominator": 1
    }
  },
  {
    "action": "execute_pt",
    "unit": "001",
    "bar_index": 2,
    "pt_name": "cello_alto_b2_1761514970934_9610",
    "N": 2,
    "seeds": {
      "time": 0,
      "duration": 8,
      "pitch": 60,
      "velocity": 47,
      "numerator": 3,
      "denominator": 4
    },
    "sample_counts": {
      "time": 2,
      "duration": 2,
      "pitch": 2,
      "velocity": 2,
      "numerator": 2,
      "denominator": 2
    }
  },
  {
    "action": "execute_pt",
    "unit": "001",
    "bar_index": 2,
    "pt_name": "double_bass_bass_root_b2_1761514970934_cdc6",
    "N": 2,
    "seeds": {
      "time": 0,
      "duration": 8,
      "pitch": 45,
      "velocity": 45,
      "numerator": 3,
      "denominator": 4
    },
    "sample_counts": {
      "time": 2,
      "duration": 2,
      "pitch": 2,
      "velocity": 2,
      "numerator": 2,
      "denominator": 2
    }
  },
  {
    "action": "execute_pt",
    "unit": "001",
    "bar_index": 3,
    "pt_name": "alto_flute_tacet_b3_1761514980324_a2e8",
    "N": 1,
    "seeds": {
      "time": 11,
      "duration": 1,
      "pitch": 60,
      "velocity": 0,
      "numerator": 3,
      "denominator": 4
    },
    "sample_counts": {
      "time": 1,
      "duration": 1,
      "pitch": 1,
      "velocity": 1,
      "numerator": 1,
      "denominator": 1
    }
  },
  {
    "action": "execute_pt",
    "unit": "001",
    "bar_index": 3,
    "pt_name": "violin_soprano_b3_1761514980324_b73a",
    "N": 1,
    "seeds": {
      "time": 4,
      "duration": 8,
      "pitch": 72,
      "velocity": 50,
      "numerator": 3,
      "denominator": 4
    },
    "sample_counts": {
      "time": 1,
      "duration": 1,
      "pitch": 1,
      "velocity": 1,
      "numerator": 1,
      "denominator": 1
    }
  },
  {
    "action": "execute_pt",
    "unit": "001",
    "bar_index": 3,
    "pt_name": "bass_clarinet_tacet_b3_1761514980324_cc9f",
    "N": 1,
    "seeds": {
      "time": 11,
      "duration": 1,
      "pitch": 60,
      "velocity": 0,
      "numerator": 3,
      "denominator": 4
    },
    "sample_counts": {
      "time": 1,
      "duration": 1,
      "pitch": 1,
      "velocity": 1,
      "numerator": 1,
      "denominator": 1
    }
  },
  {
    "action": "execute_pt",
    "unit": "001",
    "bar_index": 3,
    "pt_name": "trumpet_tacet_b3_1761514980324_e98b",
    "N": 1,
    "seeds": {
      "time": 11,
      "duration": 1,
      "pitch": 64,
      "velocity": 0,
      "numerator": 3,
      "denominator": 4
    },
    "sample_counts": {
      "time": 1,
      "duration": 1,
      "pitch": 1,
      "velocity": 1,
      "numerator": 1,
      "denominator": 1
    }
  },
  {
    "action": "execute_pt",
    "unit": "001",
    "bar_index": 3,
    "pt_name": "cello_alto_b3_1761514980324_bc2d",
    "N": 1,
    "seeds": {
      "time": 4,
      "duration": 8,
      "pitch": 55,
      "velocity": 48,
      "numerator": 3,
      "denominator": 4
    },
    "sample_counts": {
      "time": 1,
      "duration": 1,
      "pitch": 1,
      "velocity": 1,
      "numerator": 1,
      "denominator": 1
    }
  },
  {
    "action": "execute_pt",
    "unit": "001",
    "bar_index": 3,
    "pt_name": "double_bass_bass_root_b3_1761514980324_bc38",
    "N": 1,
    "seeds": {
      "time": 4,
      "duration": 8,
      "pitch": 39,
      "velocity": 44,
      "numerator": 3,
      "denominator": 4
    },
    "sample_counts": {
      "time": 1,
      "duration": 1,
      "pitch": 1,
      "velocity": 1,
      "numerator": 1,
      "denominator": 1
    }
  },
  {
    "action": "execute_pt",
    "unit": "001",
    "bar_index": 4,
    "pt_name": "alto_flute_tacet_b4_1761514989852_02ac",
    "N": 1,
    "seeds": {
      "time": 11,
      "duration": 1,
      "pitch": 60,
      "velocity": 0,
      "numerator": 3,
      "denominator": 4
    },
    "sample_counts": {
      "time": 1,
      "duration": 1,
      "pitch": 1,
      "velocity": 1,
      "numerator": 1,
      "denominator": 1
    }
  },
  {
    "action": "execute_pt",
    "unit": "001",
    "bar_index": 4,
    "pt_name": "violin_soprano_b4_1761514989852_b07d",
    "N": 2,
    "seeds": {
      "time": 0,
      "duration": 4,
      "pitch": 65,
      "velocity": 51,
      "numerator": 3,
      "denominator": 4
    },
    "sample_counts": {
      "time": 2,
      "duration": 2,
      "pitch": 2,
      "velocity": 2,
      "numerator": 2,
      "denominator": 2
    }
  },
  {
    "action": "execute_pt",
    "unit": "001",
    "bar_index": 4,
    "pt_name": "bass_clarinet_tacet_b4_1761514989852_17c1",
    "N": 1,
    "seeds": {
      "time": 11,
      "duration": 1,
      "pitch": 60,
      "velocity": 0,
      "numerator": 3,
      "denominator": 4
    },
    "sample_counts": {
      "time": 1,
      "duration": 1,
      "pitch": 1,
      "velocity": 1,
      "numerator": 1,
      "denominator": 1
    }
  },
  {
    "action": "execute_pt",
    "unit": "001",
    "bar_index": 4,
    "pt_name": "trumpet_tacet_b4_1761514989852_76f9",
    "N": 1,
    "seeds": {
      "time": 11,
      "duration": 1,
      "pitch": 64,
      "velocity": 0,
      "numerator": 3,
      "denominator": 4
    },
    "sample_counts": {
      "time": 1,
      "duration": 1,
      "pitch": 1,
      "velocity": 1,
      "numerator": 1,
      "denominator": 1
    }
  },
  {
    "action": "execute_pt",
    "unit": "001",
    "bar_index": 4,
    "pt_name": "cello_alto_b4_1761514989852_6cb5",
    "N": 2,
    "seeds": {
      "time": 0,
      "duration": 4,
      "pitch": 59,
      "velocity": 49,
      "numerator": 3,
      "denominator": 4
    },
    "sample_counts": {
      "time": 2,
      "duration": 2,
      "pitch": 2,
      "velocity": 2,
      "numerator": 2,
      "denominator": 2
    }
  },
  {
    "action": "execute_pt",
    "unit": "001",
    "bar_index": 4,
    "pt_name": "double_bass_bass_root_b4_1761514989852_56c1",
    "N": 2,
    "seeds": {
      "time": 0,
      "duration": 4,
      "pitch": 43,
      "velocity": 45,
      "numerator": 3,
      "denominator": 4
    },
    "sample_counts": {
      "time": 2,
      "duration": 2,
      "pitch": 2,
      "velocity": 2,
      "numerator": 2,
      "denominator": 2
    }
  },
  {
    "action": "execute_pt",
    "unit": "001",
    "bar_index": 5,
    "pt_name": "alto_flute_tacet_b5_1761514998134_f003",
    "N": 1,
    "seeds": {
      "time": 11,
      "duration": 1,
      "pitch": 60,
      "velocity": 0,
      "numerator": 3,
      "denominator": 4
    },
    "sample_counts": {
      "time": 1,
      "duration": 1,
      "pitch": 1,
      "velocity": 1,
      "numerator": 1,
      "denominator": 1
    }
  },
  {
    "action": "execute_pt",
    "unit": "001",
    "bar_index": 5,
    "pt_name": "violin_soprano_b5_1761514998134_a929",
    "N": 1,
    "seeds": {
      "time": 0,
      "duration": 8,
      "pitch": 69,
      "velocity": 52,
      "numerator": 3,
      "denominator": 4
    },
    "sample_counts": {
      "time": 1,
      "duration": 1,
      "pitch": 1,
      "velocity": 1,
      "numerator": 1,
      "denominator": 1
    }
  },
  {
    "action": "execute_pt",
    "unit": "001",
    "bar_index": 5,
    "pt_name": "bass_clarinet_tacet_b5_1761514998134_671c",
    "N": 1,
    "seeds": {
      "time": 11,
      "duration": 1,
      "pitch": 60,
      "velocity": 0,
      "numerator": 3,
      "denominator": 4
    },
    "sample_counts": {
      "time": 1,
      "duration": 1,
      "pitch": 1,
      "velocity": 1,
      "numerator": 1,
      "denominator": 1
    }
  },
  {
    "action": "execute_pt",
    "unit": "001",
    "bar_index": 5,
    "pt_name": "trumpet_tacet_b5_1761514998134_dcc6",
    "N": 1,
    "seeds": {
      "time": 11,
      "duration": 1,
      "pitch": 64,
      "velocity": 0,
      "numerator": 3,
      "denominator": 4
    },
    "sample_counts": {
      "time": 1,
      "duration": 1,
      "pitch": 1,
      "velocity": 1,
      "numerator": 1,
      "denominator": 1
    }
  },
  {
    "action": "execute_pt",
    "unit": "001",
    "bar_index": 5,
    "pt_name": "cello_alto_b5_1761514998134_e7e0",
    "N": 1,
    "seeds": {
      "time": 0,
      "duration": 8,
      "pitch": 63,
      "velocity": 50,
      "numerator": 3,
      "denominator": 4
    },
    "sample_counts": {
      "time": 1,
      "duration": 1,
      "pitch": 1,
      "velocity": 1,
      "numerator": 1,
      "denominator": 1
    }
  },
  {
    "action": "execute_pt",
    "unit": "001",
    "bar_index": 5,
    "pt_name": "double_bass_bass_root_b5_1761514998134_978c",
    "N": 1,
    "seeds": {
      "time": 0,
      "duration": 8,
      "pitch": 47,
      "velocity": 46,
      "numerator": 3,
      "denominator": 4
    },
    "sample_counts": {
      "time": 1,
      "duration": 1,
      "pitch": 1,
      "velocity": 1,
      "numerator": 1,
      "denominator": 1
    }
  },
  {
    "action": "execute_pt",
    "unit": "001",
    "bar_index": 6,
    "pt_name": "alto_flute_tacet_b6_1761515006024_2a62",
    "N": 1,
    "seeds": {
      "time": 11,
      "duration": 1,
      "pitch": 60,
      "velocity": 0,
      "numerator": 3,
      "denominator": 4
    },
    "sample_counts": {
      "time": 1,
      "duration": 1,
      "pitch": 1,
      "velocity": 1,
      "numerator": 1,
      "denominator": 1
    }
  },
  {
    "action": "execute_pt",
    "unit": "001",
    "bar_index": 6,
    "pt_name": "violin_soprano_b6_1761515006024_a534",
    "N": 2,
    "seeds": {
      "time": 0,
      "duration": 8,
      "pitch": 70,
      "velocity": 51,
      "numerator": 3,
      "denominator": 4
    },
    "sample_counts": {
      "time": 2,
      "duration": 2,
      "pitch": 2,
      "velocity": 2,
      "numerator": 2,
      "denominator": 2
    }
  },
  {
    "action": "execute_pt",
    "unit": "001",
    "bar_index": 6,
    "pt_name": "bass_clarinet_tacet_b6_1761515006024_6f03",
    "N": 1,
    "seeds": {
      "time": 11,
      "duration": 1,
      "pitch": 60,
      "velocity": 0,
      "numerator": 3,
      "denominator": 4
    },
    "sample_counts": {
      "time": 1,
      "duration": 1,
      "pitch": 1,
      "velocity": 1,
      "numerator": 1,
      "denominator": 1
    }
  },
  {
    "action": "execute_pt",
    "unit": "001",
    "bar_index": 6,
    "pt_name": "trumpet_tacet_b6_1761515006024_28bf",
    "N": 1,
    "seeds": {
      "time": 11,
      "duration": 1,
      "pitch": 64,
      "velocity": 0,
      "numerator": 3,
      "denominator": 4
    },
    "sample_counts": {
      "time": 1,
      "duration": 1,
      "pitch": 1,
      "velocity": 1,
      "numerator": 1,
      "denominator": 1
    }
  },
  {
    "action": "execute_pt",
    "unit": "001",
    "bar_index": 6,
    "pt_name": "cello_alto_b6_1761515006024_a30e",
    "N": 2,
    "seeds": {
      "time": 0,
      "duration": 8,
      "pitch": 64,
      "velocity": 49,
      "numerator": 3,
      "denominator": 4
    },
    "sample_counts": {
      "time": 2,
      "duration": 2,
      "pitch": 2,
      "velocity": 2,
      "numerator": 2,
      "denominator": 2
    }
  },
  {
    "action": "execute_pt",
    "unit": "001",
    "bar_index": 6,
    "pt_name": "double_bass_bass_root_b6_1761515006024_31c0",
    "N": 2,
    "seeds": {
      "time": 0,
      "duration": 8,
      "pitch": 48,
      "velocity": 45,
      "numerator": 3,
      "denominator": 4
    },
    "sample_counts": {
      "time": 2,
      "duration": 2,
      "pitch": 2,
      "velocity": 2,
      "numerator": 2,
      "denominator": 2
    }
  },
  {
    "action": "execute_pt",
    "unit": "001",
    "bar_index": 7,
    "pt_name": "alto_flute_tacet_b7_1761515014261_5d01",
    "N": 1,
    "seeds": {
      "time": 11,
      "duration": 1,
      "pitch": 60,
      "velocity": 0,
      "numerator": 3,
      "denominator": 4
    },
    "sample_counts": {
      "time": 1,
      "duration": 1,
      "pitch": 1,
      "velocity": 1,
      "numerator": 1,
      "denominator": 1
    }
  },
  {
    "action": "execute_pt",
    "unit": "001",
    "bar_index": 7,
    "pt_name": "violin_soprano_b7_1761515014261_6782",
    "N": 1,
    "seeds": {
      "time": 0,
      "duration": 12,
      "pitch": 72,
      "velocity": 50,
      "numerator": 3,
      "denominator": 4
    },
    "sample_counts": {
      "time": 1,
      "duration": 1,
      "pitch": 1,
      "velocity": 1,
      "numerator": 1,
      "denominator": 1
    }
  },
  {
    "action": "execute_pt",
    "unit": "001",
    "bar_index": 7,
    "pt_name": "bass_clarinet_tacet_b7_1761515014261_d157",
    "N": 1,
    "seeds": {
      "time": 11,
      "duration": 1,
      "pitch": 60,
      "velocity": 0,
      "numerator": 3,
      "denominator": 4
    },
    "sample_counts": {
      "time": 1,
      "duration": 1,
      "pitch": 1,
      "velocity": 1,
      "numerator": 1,
      "denominator": 1
    }
  },
  {
    "action": "execute_pt",
    "unit": "001",
    "bar_index": 7,
    "pt_name": "trumpet_tacet_b7_1761515014261_e172",
    "N": 1,
    "seeds": {
      "time": 11,
      "duration": 1,
      "pitch": 64,
      "velocity": 0,
      "numerator": 3,
      "denominator": 4
    },
    "sample_counts": {
      "time": 1,
      "duration": 1,
      "pitch": 1,
      "velocity": 1,
      "numerator": 1,
      "denominator": 1
    }
  },
  {
    "action": "execute_pt",
    "unit": "001",
    "bar_index": 7,
    "pt_name": "cello_alto_b7_1761515014261_0da9",
    "N": 1,
    "seeds": {
      "time": 0,
      "duration": 12,
      "pitch": 66,
      "velocity": 48,
      "numerator": 3,
      "denominator": 4
    },
    "sample_counts": {
      "time": 1,
      "duration": 1,
      "pitch": 1,
      "velocity": 1,
      "numerator": 1,
      "denominator": 1
    }
  },
  {
    "action": "execute_pt",
    "unit": "001",
    "bar_index": 7,
    "pt_name": "double_bass_bass_root_b7_1761515014261_a3e1",
    "N": 1,
    "seeds": {
      "time": 0,
      "duration": 12,
      "pitch": 50,
      "velocity": 44,
      "numerator": 3,
      "denominator": 4
    },
    "sample_counts": {
      "time": 1,
      "duration": 1,
      "pitch": 1,
      "velocity": 1,
      "numerator": 1,
      "denominator": 1
    }
  },
  {
    "action": "execute_pt",
    "unit": "001",
    "bar_index": 8,
    "pt_name": "alto_flute_tacet_b8_1761515022723_4fa6",
    "N": 1,
    "seeds": {
      "time": 11,
      "duration": 1,
      "pitch": 60,
      "velocity": 0,
      "numerator": 3,
      "denominator": 4
    },
    "sample_counts": {
      "time": 1,
      "duration": 1,
      "pitch": 1,
      "velocity": 1,
      "numerator": 1,
      "denominator": 1
    }
  },
  {
    "action": "execute_pt",
    "unit": "001",
    "bar_index": 8,
    "pt_name": "violin_soprano_b8_1761515022723_d334",
    "N": 2,
    "seeds": {
      "time": 0,
      "duration": 4,
      "pitch": 74,
      "velocity": 49,
      "numerator": 3,
      "denominator": 4
    },
    "sample_counts": {
      "time": 2,
      "duration": 2,
      "pitch": 2,
      "velocity": 2,
      "numerator": 2,
      "denominator": 2
    }
  },
  {
    "action": "execute_pt",
    "unit": "001",
    "bar_index": 8,
    "pt_name": "bass_clarinet_tacet_b8_1761515022723_78f4",
    "N": 1,
    "seeds": {
      "time": 11,
      "duration": 1,
      "pitch": 60,
      "velocity": 0,
      "numerator": 3,
      "denominator": 4
    },
    "sample_counts": {
      "time": 1,
      "duration": 1,
      "pitch": 1,
      "velocity": 1,
      "numerator": 1,
      "denominator": 1
    }
  },
  {
    "action": "execute_pt",
    "unit": "001",
    "bar_index": 8,
    "pt_name": "trumpet_tacet_b8_1761515022723_5f87",
    "N": 1,
    "seeds": {
      "time": 11,
      "duration": 1,
      "pitch": 64,
      "velocity": 0,
      "numerator": 3,
      "denominator": 4
    },
    "sample_counts": {
      "time": 1,
      "duration": 1,
      "pitch": 1,
      "velocity": 1,
      "numerator": 1,
      "denominator": 1
    }
  },
  {
    "action": "execute_pt",
    "unit": "001",
    "bar_index": 8,
    "pt_name": "cello_alto_b8_1761515022723_35af",
    "N": 2,
    "seeds": {
      "time": 0,
      "duration": 4,
      "pitch": 67,
      "velocity": 47,
      "numerator": 3,
      "denominator": 4
    },
    "sample_counts": {
      "time": 2,
      "duration": 2,
      "pitch": 2,
      "velocity": 2,
      "numerator": 2,
      "denominator": 2
    }
  },
  {
    "action": "execute_pt",
    "unit": "001",
    "bar_index": 8,
    "pt_name": "double_bass_bass_root_b8_1761515022723_3335",
    "N": 2,
    "seeds": {
      "time": 0,
      "duration": 4,
      "pitch": 52,
      "velocity": 43,
      "numerator": 3,
      "denominator": 4
    },
    "sample_counts": {
      "time": 2,
      "duration": 2,
      "pitch": 2,
      "velocity": 2,
      "numerator": 2,
      "denominator": 2
    }
  },
  {
    "action": "execute_pt",
    "unit": "001",
    "bar_index": 9,
    "pt_name": "alto_flute_tacet_b9_1761515031443_fa30",
    "N": 1,
    "seeds": {
      "time": 11,
      "duration": 1,
      "pitch": 60,
      "velocity": 0,
      "numerator": 3,
      "denominator": 4
    },
    "sample_counts": {
      "time": 1,
      "duration": 1,
      "pitch": 1,
      "velocity": 1,
      "numerator": 1,
      "denominator": 1
    }
  },
  {
    "action": "execute_pt",
    "unit": "001",
    "bar_index": 9,
    "pt_name": "violin_soprano_b9_1761515031443_801b",
    "N": 1,
    "seeds": {
      "time": 4,
      "duration": 8,
      "pitch": 69,
      "velocity": 48,
      "numerator": 3,
      "denominator": 4
    },
    "sample_counts": {
      "time": 1,
      "duration": 1,
      "pitch": 1,
      "velocity": 1,
      "numerator": 1,
      "denominator": 1
    }
  },
  {
    "action": "execute_pt",
    "unit": "001",
    "bar_index": 9,
    "pt_name": "bass_clarinet_tacet_b9_1761515031443_51b2",
    "N": 1,
    "seeds": {
      "time": 11,
      "duration": 1,
      "pitch": 60,
      "velocity": 0,
      "numerator": 3,
      "denominator": 4
    },
    "sample_counts": {
      "time": 1,
      "duration": 1,
      "pitch": 1,
      "velocity": 1,
      "numerator": 1,
      "denominator": 1
    }
  },
  {
    "action": "execute_pt",
    "unit": "001",
    "bar_index": 9,
    "pt_name": "trumpet_tacet_b9_1761515031443_cfc9",
    "N": 1,
    "seeds": {
      "time": 11,
      "duration": 1,
      "pitch": 64,
      "velocity": 0,
      "numerator": 3,
      "denominator": 4
    },
    "sample_counts": {
      "time": 1,
      "duration": 1,
      "pitch": 1,
      "velocity": 1,
      "numerator": 1,
      "denominator": 1
    }
  },
  {
    "action": "execute_pt",
    "unit": "001",
    "bar_index": 9,
    "pt_name": "cello_alto_b9_1761515031443_229f",
    "N": 1,
    "seeds": {
      "time": 4,
      "duration": 8,
      "pitch": 66,
      "velocity": 46,
      "numerator": 3,
      "denominator": 4
    },
    "sample_counts": {
      "time": 1,
      "duration": 1,
      "pitch": 1,
      "velocity": 1,
      "numerator": 1,
      "denominator": 1
    }
  },
  {
    "action": "execute_pt",
    "unit": "001",
    "bar_index": 9,
    "pt_name": "double_bass_bass_root_b9_1761515031443_b241",
    "N": 1,
    "seeds": {
      "time": 4,
      "duration": 8,
      "pitch": 49,
      "velocity": 42,
      "numerator": 3,
      "denominator": 4
    },
    "sample_counts": {
      "time": 1,
      "duration": 1,
      "pitch": 1,
      "velocity": 1,
      "numerator": 1,
      "denominator": 1
    }
  },
  {
    "action": "execute_pt",
    "unit": "001",
    "bar_index": 10,
    "pt_name": "alto_flute_tacet_b10_1761515039679_c45c",
    "N": 1,
    "seeds": {
      "time": 11,
      "duration": 1,
      "pitch": 60,
      "velocity": 0,
      "numerator": 3,
      "denominator": 4
    },
    "sample_counts": {
      "time": 1,
      "duration": 1,
      "pitch": 1,
      "velocity": 1,
      "numerator": 1,
      "denominator": 1
    }
  },
  {
    "action": "execute_pt",
    "unit": "001",
    "bar_index": 10,
    "pt_name": "violin_soprano_b10_1761515039679_49d2",
    "N": 2,
    "seeds": {
      "time": 0,
      "duration": 8,
      "pitch": 64,
      "velocity": 49,
      "numerator": 3,
      "denominator": 4
    },
    "sample_counts": {
      "time": 2,
      "duration": 2,
      "pitch": 2,
      "velocity": 2,
      "numerator": 2,
      "denominator": 2
    }
  },
  {
    "action": "execute_pt",
    "unit": "001",
    "bar_index": 10,
    "pt_name": "bass_clarinet_tacet_b10_1761515039679_cd7c",
    "N": 1,
    "seeds": {
      "time": 11,
      "duration": 1,
      "pitch": 60,
      "velocity": 0,
      "numerator": 3,
      "denominator": 4
    },
    "sample_counts": {
      "time": 1,
      "duration": 1,
      "pitch": 1,
      "velocity": 1,
      "numerator": 1,
      "denominator": 1
    }
  },
  {
    "action": "execute_pt",
    "unit": "001",
    "bar_index": 10,
    "pt_name": "trumpet_tacet_b10_1761515039679_c54e",
    "N": 1,
    "seeds": {
      "time": 11,
      "duration": 1,
      "pitch": 64,
      "velocity": 0,
      "numerator": 3,
      "denominator": 4
    },
    "sample_counts": {
      "time": 1,
      "duration": 1,
      "pitch": 1,
      "velocity": 1,
      "numerator": 1,
      "denominator": 1
    }
  },
  {
    "action": "execute_pt",
    "unit": "001",
    "bar_index": 10,
    "pt_name": "cello_alto_b10_1761515039679_34f1",
    "N": 2,
    "seeds": {
      "time": 0,
      "duration": 8,
      "pitch": 57,
      "velocity": 47,
      "numerator": 3,
      "denominator": 4
    },
    "sample_counts": {
      "time": 2,
      "duration": 2,
      "pitch": 2,
      "velocity": 2,
      "numerator": 2,
      "denominator": 2
    }
  },
  {
    "action": "execute_pt",
    "unit": "001",
    "bar_index": 10,
    "pt_name": "double_bass_bass_root_b10_1761515039679_9e0d",
    "N": 2,
    "seeds": {
      "time": 0,
      "duration": 8,
      "pitch": 41,
      "velocity": 43,
      "numerator": 3,
      "denominator": 4
    },
    "sample_counts": {
      "time": 2,
      "duration": 2,
      "pitch": 2,
      "velocity": 2,
      "numerator": 2,
      "denominator": 2
    }
  },
  {
    "action": "execute_pt",
    "unit": "001",
    "bar_index": 11,
    "pt_name": "alto_flute_tacet_b11_1761515048355_d919",
    "N": 1,
    "seeds": {
      "time": 11,
      "duration": 1,
      "pitch": 60,
      "velocity": 0,
      "numerator": 3,
      "denominator": 4
    },
    "sample_counts": {
      "time": 1,
      "duration": 1,
      "pitch": 1,
      "velocity": 1,
      "numerator": 1,
      "denominator": 1
    }
  },
  {
    "action": "execute_pt",
    "unit": "001",
    "bar_index": 11,
    "pt_name": "violin_soprano_b11_1761515048355_581c",
    "N": 1,
    "seeds": {
      "time": 0,
      "duration": 8,
      "pitch": 62,
      "velocity": 47,
      "numerator": 3,
      "denominator": 4
    },
    "sample_counts": {
      "time": 1,
      "duration": 1,
      "pitch": 1,
      "velocity": 1,
      "numerator": 1,
      "denominator": 1
    }
  },
  {
    "action": "execute_pt",
    "unit": "001",
    "bar_index": 11,
    "pt_name": "bass_clarinet_tacet_b11_1761515048355_d7e9",
    "N": 1,
    "seeds": {
      "time": 11,
      "duration": 1,
      "pitch": 60,
      "velocity": 0,
      "numerator": 3,
      "denominator": 4
    },
    "sample_counts": {
      "time": 1,
      "duration": 1,
      "pitch": 1,
      "velocity": 1,
      "numerator": 1,
      "denominator": 1
    }
  },
  {
    "action": "execute_pt",
    "unit": "001",
    "bar_index": 11,
    "pt_name": "trumpet_tacet_b11_1761515048355_03c0",
    "N": 1,
    "seeds": {
      "time": 11,
      "duration": 1,
      "pitch": 64,
      "velocity": 0,
      "numerator": 3,
      "denominator": 4
    },
    "sample_counts": {
      "time": 1,
      "duration": 1,
      "pitch": 1,
      "velocity": 1,
      "numerator": 1,
      "denominator": 1
    }
  },
  {
    "action": "execute_pt",
    "unit": "001",
    "bar_index": 11,
    "pt_name": "cello_alto_b11_1761515048355_84cb",
    "N": 1,
    "seeds": {
      "time": 0,
      "duration": 8,
      "pitch": 56,
      "velocity": 45,
      "numerator": 3,
      "denominator": 4
    },
    "sample_counts": {
      "time": 1,
      "duration": 1,
      "pitch": 1,
      "velocity": 1,
      "numerator": 1,
      "denominator": 1
    }
  },
  {
    "action": "execute_pt",
    "unit": "001",
    "bar_index": 11,
    "pt_name": "double_bass_bass_root_b11_1761515048355_14a7",
    "N": 1,
    "seeds": {
      "time": 0,
      "duration": 8,
      "pitch": 40,
      "velocity": 42,
      "numerator": 3,
      "denominator": 4
    },
    "sample_counts": {
      "time": 1,
      "duration": 1,
      "pitch": 1,
      "velocity": 1,
      "numerator": 1,
      "denominator": 1
    }
  },
  {
    "action": "execute_pt",
    "unit": "001",
    "bar_index": 12,
    "pt_name": "alto_flute_tacet_b12_1761515056925_3a0e",
    "N": 1,
    "seeds": {
      "time": 11,
      "duration": 1,
      "pitch": 60,
      "velocity": 0,
      "numerator": 3,
      "denominator": 4
    },
    "sample_counts": {
      "time": 1,
      "duration": 1,
      "pitch": 1,
      "velocity": 1,
      "numerator": 1,
      "denominator": 1
    }
  },
  {
    "action": "execute_pt",
    "unit": "001",
    "bar_index": 12,
    "pt_name": "violin_soprano_b12_1761515056925_243d",
    "N": 1,
    "seeds": {
      "time": 0,
      "duration": 12,
      "pitch": 64,
      "velocity": 46,
      "numerator": 3,
      "denominator": 4
    },
    "sample_counts": {
      "time": 1,
      "duration": 1,
      "pitch": 1,
      "velocity": 1,
      "numerator": 1,
      "denominator": 1
    }
  },
  {
    "action": "execute_pt",
    "unit": "001",
    "bar_index": 12,
    "pt_name": "bass_clarinet_tacet_b12_1761515056925_14b4",
    "N": 1,
    "seeds": {
      "time": 11,
      "duration": 1,
      "pitch": 60,
      "velocity": 0,
      "numerator": 3,
      "denominator": 4
    },
    "sample_counts": {
      "time": 1,
      "duration": 1,
      "pitch": 1,
      "velocity": 1,
      "numerator": 1,
      "denominator": 1
    }
  },
  {
    "action": "execute_pt",
    "unit": "001",
    "bar_index": 12,
    "pt_name": "trumpet_tacet_b12_1761515056925_1987",
    "N": 1,
    "seeds": {
      "time": 11,
      "duration": 1,
      "pitch": 64,
      "velocity": 0,
      "numerator": 3,
      "denominator": 4
    },
    "sample_counts": {
      "time": 1,
      "duration": 1,
      "pitch": 1,
      "velocity": 1,
      "numerator": 1,
      "denominator": 1
    }
  },
  {
    "action": "execute_pt",
    "unit": "001",
    "bar_index": 12,
    "pt_name": "cello_alto_b12_1761515056925_c8bd",
    "N": 1,
    "seeds": {
      "time": 0,
      "duration": 12,
      "pitch": 59,
      "velocity": 44,
      "numerator": 3,
      "denominator": 4
    },
    "sample_counts": {
      "time": 1,
      "duration": 1,
      "pitch": 1,
      "velocity": 1,
      "numerator": 1,
      "denominator": 1
    }
  },
  {
    "action": "execute_pt",
    "unit": "001",
    "bar_index": 12,
    "pt_name": "double_bass_bass_root_b12_1761515056925_73c6",
    "N": 1,
    "seeds": {
      "time": 0,
      "duration": 12,
      "pitch": 42,
      "velocity": 41,
      "numerator": 3,
      "denominator": 4
    },
    "sample_counts": {
      "time": 1,
      "duration": 1,
      "pitch": 1,
      "velocity": 1,
      "numerator": 1,
      "denominator": 1
    }
  },
  {
    "action": "execute_pt",
    "unit": "001",
    "bar_index": 13,
    "pt_name": "alto_flute_tacet_b2_1761515065096_75b6",
    "N": 1,
    "seeds": {
      "time": 11,
      "duration": 1,
      "pitch": 60,
      "velocity": 0,
      "numerator": 3,
      "denominator": 4
    },
    "sample_counts": {
      "time": 1,
      "duration": 1,
      "pitch": 1,
      "velocity": 1,
      "numerator": 1,
      "denominator": 1
    }
  },
  {
    "action": "execute_pt",
    "unit": "001",
    "bar_index": 13,
    "pt_name": "violin_soprano_b2_1761515065096_0cdb",
    "N": 2,
    "seeds": {
      "time": 0,
      "duration": 4,
      "pitch": 73,
      "velocity": 48,
      "numerator": 3,
      "denominator": 4
    },
    "sample_counts": {
      "time": 2,
      "duration": 2,
      "pitch": 2,
      "velocity": 2,
      "numerator": 2,
      "denominator": 2
    }
  },
  {
    "action": "execute_pt",
    "unit": "001",
    "bar_index": 13,
    "pt_name": "bass_clarinet_tacet_b2_1761515065096_4311",
    "N": 1,
    "seeds": {
      "time": 11,
      "duration": 1,
      "pitch": 60,
      "velocity": 0,
      "numerator": 3,
      "denominator": 4
    },
    "sample_counts": {
      "time": 1,
      "duration": 1,
      "pitch": 1,
      "velocity": 1,
      "numerator": 1,
      "denominator": 1
    }
  },
  {
    "action": "execute_pt",
    "unit": "001",
    "bar_index": 13,
    "pt_name": "trumpet_tacet_b2_1761515065096_ea8f",
    "N": 1,
    "seeds": {
      "time": 11,
      "duration": 1,
      "pitch": 64,
      "velocity": 0,
      "numerator": 3,
      "denominator": 4
    },
    "sample_counts": {
      "time": 1,
      "duration": 1,
      "pitch": 1,
      "velocity": 1,
      "numerator": 1,
      "denominator": 1
    }
  },
  {
    "action": "execute_pt",
    "unit": "001",
    "bar_index": 13,
    "pt_name": "cello_alto_b2_1761515065096_73ac",
    "N": 2,
    "seeds": {
      "time": 0,
      "duration": 4,
      "pitch": 57,
      "velocity": 46,
      "numerator": 3,
      "denominator": 4
    },
    "sample_counts": {
      "time": 2,
      "duration": 2,
      "pitch": 2,
      "velocity": 2,
      "numerator": 2,
      "denominator": 2
    }
  },
  {
    "action": "execute_pt",
    "unit": "001",
    "bar_index": 13,
    "pt_name": "double_bass_bass_root_b2_1761515065096_3b2d",
    "N": 2,
    "seeds": {
      "time": 0,
      "duration": 4,
      "pitch": 42,
      "velocity": 44,
      "numerator": 3,
      "denominator": 4
    },
    "sample_counts": {
      "time": 2,
      "duration": 2,
      "pitch": 2,
      "velocity": 2,
      "numerator": 2,
      "denominator": 2
    }
  },
  {
    "action": "execute_pt",
    "unit": "001",
    "bar_index": 14,
    "pt_name": "alto_flute_tacet_b3_1761515073127_5221",
    "N": 1,
    "seeds": {
      "time": 11,
      "duration": 1,
      "pitch": 60,
      "velocity": 0,
      "numerator": 3,
      "denominator": 4
    },
    "sample_counts": {
      "time": 1,
      "duration": 1,
      "pitch": 1,
      "velocity": 1,
      "numerator": 1,
      "denominator": 1
    }
  },
  {
    "action": "execute_pt",
    "unit": "001",
    "bar_index": 14,
    "pt_name": "violin_soprano_b3_1761515073127_d27d",
    "N": 2,
    "seeds": {
      "time": 0,
      "duration": 8,
      "pitch": 67,
      "velocity": 49,
      "numerator": 3,
      "denominator": 4
    },
    "sample_counts": {
      "time": 2,
      "duration": 2,
      "pitch": 2,
      "velocity": 2,
      "numerator": 2,
      "denominator": 2
    }
  },
  {
    "action": "execute_pt",
    "unit": "001",
    "bar_index": 14,
    "pt_name": "bass_clarinet_tacet_b3_1761515073127_2767",
    "N": 1,
    "seeds": {
      "time": 11,
      "duration": 1,
      "pitch": 60,
      "velocity": 0,
      "numerator": 3,
      "denominator": 4
    },
    "sample_counts": {
      "time": 1,
      "duration": 1,
      "pitch": 1,
      "velocity": 1,
      "numerator": 1,
      "denominator": 1
    }
  },
  {
    "action": "execute_pt",
    "unit": "001",
    "bar_index": 14,
    "pt_name": "trumpet_tacet_b3_1761515073127_a10e",
    "N": 1,
    "seeds": {
      "time": 11,
      "duration": 1,
      "pitch": 64,
      "velocity": 0,
      "numerator": 3,
      "denominator": 4
    },
    "sample_counts": {
      "time": 1,
      "duration": 1,
      "pitch": 1,
      "velocity": 1,
      "numerator": 1,
      "denominator": 1
    }
  },
  {
    "action": "execute_pt",
    "unit": "001",
    "bar_index": 14,
    "pt_name": "cello_alto_b3_1761515073127_ff58",
    "N": 2,
    "seeds": {
      "time": 0,
      "duration": 8,
      "pitch": 60,
      "velocity": 47,
      "numerator": 3,
      "denominator": 4
    },
    "sample_counts": {
      "time": 2,
      "duration": 2,
      "pitch": 2,
      "velocity": 2,
      "numerator": 2,
      "denominator": 2
    }
  },
  {
    "action": "execute_pt",
    "unit": "001",
    "bar_index": 14,
    "pt_name": "double_bass_bass_root_b3_1761515073127_d8c4",
    "N": 2,
    "seeds": {
      "time": 0,
      "duration": 8,
      "pitch": 45,
      "velocity": 45,
      "numerator": 3,
      "denominator": 4
    },
    "sample_counts": {
      "time": 2,
      "duration": 2,
      "pitch": 2,
      "velocity": 2,
      "numerator": 2,
      "denominator": 2
    }
  },
  {
    "action": "execute_pt",
    "unit": "001",
    "bar_index": 15,
    "pt_name": "alto_flute_tacet_b4_1761515081135_ac6e",
    "N": 1,
    "seeds": {
      "time": 11,
      "duration": 1,
      "pitch": 60,
      "velocity": 0,
      "numerator": 3,
      "denominator": 4
    },
    "sample_counts": {
      "time": 1,
      "duration": 1,
      "pitch": 1,
      "velocity": 1,
      "numerator": 1,
      "denominator": 1
    }
  },
  {
    "action": "execute_pt",
    "unit": "001",
    "bar_index": 15,
    "pt_name": "violin_soprano_b4_1761515081135_cc94",
    "N": 1,
    "seeds": {
      "time": 0,
      "duration": 8,
      "pitch": 69,
      "velocity": 52,
      "numerator": 3,
      "denominator": 4
    },
    "sample_counts": {
      "time": 1,
      "duration": 1,
      "pitch": 1,
      "velocity": 1,
      "numerator": 1,
      "denominator": 1
    }
  },
  {
    "action": "execute_pt",
    "unit": "001",
    "bar_index": 15,
    "pt_name": "bass_clarinet_tacet_b4_1761515081135_4ce5",
    "N": 1,
    "seeds": {
      "time": 11,
      "duration": 1,
      "pitch": 60,
      "velocity": 0,
      "numerator": 3,
      "denominator": 4
    },
    "sample_counts": {
      "time": 1,
      "duration": 1,
      "pitch": 1,
      "velocity": 1,
      "numerator": 1,
      "denominator": 1
    }
  },
  {
    "action": "execute_pt",
    "unit": "001",
    "bar_index": 15,
    "pt_name": "trumpet_tacet_b4_1761515081136_3580",
    "N": 1,
    "seeds": {
      "time": 11,
      "duration": 1,
      "pitch": 64,
      "velocity": 0,
      "numerator": 3,
      "denominator": 4
    },
    "sample_counts": {
      "time": 1,
      "duration": 1,
      "pitch": 1,
      "velocity": 1,
      "numerator": 1,
      "denominator": 1
    }
  },
  {
    "action": "execute_pt",
    "unit": "001",
    "bar_index": 15,
    "pt_name": "cello_alto_b4_1761515081136_e052",
    "N": 1,
    "seeds": {
      "time": 0,
      "duration": 8,
      "pitch": 63,
      "velocity": 50,
      "numerator": 3,
      "denominator": 4
    },
    "sample_counts": {
      "time": 1,
      "duration": 1,
      "pitch": 1,
      "velocity": 1,
      "numerator": 1,
      "denominator": 1
    }
  },
  {
    "action": "execute_pt",
    "unit": "001",
    "bar_index": 15,
    "pt_name": "double_bass_bass_root_b4_1761515081136_c619",
    "N": 1,
    "seeds": {
      "time": 0,
      "duration": 8,
      "pitch": 47,
      "velocity": 46,
      "numerator": 3,
      "denominator": 4
    },
    "sample_counts": {
      "time": 1,
      "duration": 1,
      "pitch": 1,
      "velocity": 1,
      "numerator": 1,
      "denominator": 1
    }
  },
  {
    "action": "execute_pt",
    "unit": "001",
    "bar_index": 16,
    "pt_name": "alto_flute_tacet_b6_1761515089574_4a50",
    "N": 1,
    "seeds": {
      "time": 11,
      "duration": 1,
      "pitch": 60,
      "velocity": 0,
      "numerator": 3,
      "denominator": 4
    },
    "sample_counts": {
      "time": 1,
      "duration": 1,
      "pitch": 1,
      "velocity": 1,
      "numerator": 1,
      "denominator": 1
    }
  },
  {
    "action": "execute_pt",
    "unit": "001",
    "bar_index": 16,
    "pt_name": "violin_soprano_b6_1761515089574_9ff6",
    "N": 2,
    "seeds": {
      "time": 0,
      "duration": 4,
      "pitch": 74,
      "velocity": 49,
      "numerator": 3,
      "denominator": 4
    },
    "sample_counts": {
      "time": 2,
      "duration": 2,
      "pitch": 2,
      "velocity": 2,
      "numerator": 2,
      "denominator": 2
    }
  },
  {
    "action": "execute_pt",
    "unit": "001",
    "bar_index": 16,
    "pt_name": "bass_clarinet_tacet_b6_1761515089574_8d9d",
    "N": 1,
    "seeds": {
      "time": 11,
      "duration": 1,
      "pitch": 60,
      "velocity": 0,
      "numerator": 3,
      "denominator": 4
    },
    "sample_counts": {
      "time": 1,
      "duration": 1,
      "pitch": 1,
      "velocity": 1,
      "numerator": 1,
      "denominator": 1
    }
  },
  {
    "action": "execute_pt",
    "unit": "001",
    "bar_index": 16,
    "pt_name": "trumpet_tacet_b6_1761515089574_af8c",
    "N": 1,
    "seeds": {
      "time": 11,
      "duration": 1,
      "pitch": 64,
      "velocity": 0,
      "numerator": 3,
      "denominator": 4
    },
    "sample_counts": {
      "time": 1,
      "duration": 1,
      "pitch": 1,
      "velocity": 1,
      "numerator": 1,
      "denominator": 1
    }
  },
  {
    "action": "execute_pt",
    "unit": "001",
    "bar_index": 16,
    "pt_name": "cello_alto_b6_1761515089574_9bc2",
    "N": 2,
    "seeds": {
      "time": 0,
      "duration": 4,
      "pitch": 67,
      "velocity": 47,
      "numerator": 3,
      "denominator": 4
    },
    "sample_counts": {
      "time": 2,
      "duration": 2,
      "pitch": 2,
      "velocity": 2,
      "numerator": 2,
      "denominator": 2
    }
  },
  {
    "action": "execute_pt",
    "unit": "001",
    "bar_index": 16,
    "pt_name": "double_bass_bass_root_b6_1761515089574_0221",
    "N": 2,
    "seeds": {
      "time": 0,
      "duration": 4,
      "pitch": 52,
      "velocity": 43,
      "numerator": 3,
      "denominator": 4
    },
    "sample_counts": {
      "time": 2,
      "duration": 2,
      "pitch": 2,
      "velocity": 2,
      "numerator": 2,
      "denominator": 2
    }
  },
  {
    "action": "execute_pt",
    "unit": "001",
    "bar_index": 17,
    "pt_name": "alto_flute_tacet_b10_1761515097334_17cd",
    "N": 1,
    "seeds": {
      "time": 11,
      "duration": 1,
      "pitch": 60,
      "velocity": 0,
      "numerator": 3,
      "denominator": 4
    },
    "sample_counts": {
      "time": 1,
      "duration": 1,
      "pitch": 1,
      "velocity": 1,
      "numerator": 1,
      "denominator": 1
    }
  },
  {
    "action": "execute_pt",
    "unit": "001",
    "bar_index": 17,
    "pt_name": "violin_soprano_b10_1761515097334_d10f",
    "N": 2,
    "seeds": {
      "time": 0,
      "duration": 4,
      "pitch": 64,
      "velocity": 49,
      "numerator": 3,
      "denominator": 4
    },
    "sample_counts": {
      "time": 2,
      "duration": 2,
      "pitch": 2,
      "velocity": 2,
      "numerator": 2,
      "denominator": 2
    }
  },
  {
    "action": "execute_pt",
    "unit": "001",
    "bar_index": 17,
    "pt_name": "bass_clarinet_tacet_b10_1761515097334_169f",
    "N": 1,
    "seeds": {
      "time": 11,
      "duration": 1,
      "pitch": 60,
      "velocity": 0,
      "numerator": 3,
      "denominator": 4
    },
    "sample_counts": {
      "time": 1,
      "duration": 1,
      "pitch": 1,
      "velocity": 1,
      "numerator": 1,
      "denominator": 1
    }
  },
  {
    "action": "execute_pt",
    "unit": "001",
    "bar_index": 17,
    "pt_name": "trumpet_tacet_b10_1761515097334_3ce6",
    "N": 1,
    "seeds": {
      "time": 11,
      "duration": 1,
      "pitch": 64,
      "velocity": 0,
      "numerator": 3,
      "denominator": 4
    },
    "sample_counts": {
      "time": 1,
      "duration": 1,
      "pitch": 1,
      "velocity": 1,
      "numerator": 1,
      "denominator": 1
    }
  },
  {
    "action": "execute_pt",
    "unit": "001",
    "bar_index": 17,
    "pt_name": "cello_alto_b10_1761515097334_82e3",
    "N": 2,
    "seeds": {
      "time": 0,
      "duration": 4,
      "pitch": 57,
      "velocity": 47,
      "numerator": 3,
      "denominator": 4
    },
    "sample_counts": {
      "time": 2,
      "duration": 2,
      "pitch": 2,
      "velocity": 2,
      "numerator": 2,
      "denominator": 2
    }
  },
  {
    "action": "execute_pt",
    "unit": "001",
    "bar_index": 17,
    "pt_name": "double_bass_bass_root_b10_1761515097334_a484",
    "N": 2,
    "seeds": {
      "time": 0,
      "duration": 4,
      "pitch": 41,
      "velocity": 43,
      "numerator": 3,
      "denominator": 4
    },
    "sample_counts": {
      "time": 2,
      "duration": 2,
      "pitch": 2,
      "velocity": 2,
      "numerator": 2,
      "denominator": 2
    }
  },
  {
    "action": "execute_pt",
    "unit": "001",
    "bar_index": 18,
    "pt_name": "alto_flute_tacet_b3_1761515105974_eb48",
    "N": 1,
    "seeds": {
      "time": 11,
      "duration": 1,
      "pitch": 60,
      "velocity": 0,
      "numerator": 3,
      "denominator": 4
    },
    "sample_counts": {
      "time": 1,
      "duration": 1,
      "pitch": 1,
      "velocity": 1,
      "numerator": 1,
      "denominator": 1
    }
  },
  {
    "action": "execute_pt",
    "unit": "001",
    "bar_index": 18,
    "pt_name": "violin_soprano_b3_1761515105974_806e",
    "N": 1,
    "seeds": {
      "time": 4,
      "duration": 8,
      "pitch": 69,
      "velocity": 48,
      "numerator": 3,
      "denominator": 4
    },
    "sample_counts": {
      "time": 1,
      "duration": 1,
      "pitch": 1,
      "velocity": 1,
      "numerator": 1,
      "denominator": 1
    }
  },
  {
    "action": "execute_pt",
    "unit": "001",
    "bar_index": 18,
    "pt_name": "bass_clarinet_tacet_b3_1761515105974_077b",
    "N": 1,
    "seeds": {
      "time": 11,
      "duration": 1,
      "pitch": 60,
      "velocity": 0,
      "numerator": 3,
      "denominator": 4
    },
    "sample_counts": {
      "time": 1,
      "duration": 1,
      "pitch": 1,
      "velocity": 1,
      "numerator": 1,
      "denominator": 1
    }
  },
  {
    "action": "execute_pt",
    "unit": "001",
    "bar_index": 18,
    "pt_name": "trumpet_tacet_b3_1761515105974_5d5e",
    "N": 1,
    "seeds": {
      "time": 11,
      "duration": 1,
      "pitch": 64,
      "velocity": 0,
      "numerator": 3,
      "denominator": 4
    },
    "sample_counts": {
      "time": 1,
      "duration": 1,
      "pitch": 1,
      "velocity": 1,
      "numerator": 1,
      "denominator": 1
    }
  },
  {
    "action": "execute_pt",
    "unit": "001",
    "bar_index": 18,
    "pt_name": "cello_alto_b3_1761515105974_9eb8",
    "N": 1,
    "seeds": {
      "time": 4,
      "duration": 8,
      "pitch": 66,
      "velocity": 46,
      "numerator": 3,
      "denominator": 4
    },
    "sample_counts": {
      "time": 1,
      "duration": 1,
      "pitch": 1,
      "velocity": 1,
      "numerator": 1,
      "denominator": 1
    }
  },
  {
    "action": "execute_pt",
    "unit": "001",
    "bar_index": 18,
    "pt_name": "double_bass_bass_root_b3_1761515105974_bb65",
    "N": 1,
    "seeds": {
      "time": 4,
      "duration": 8,
      "pitch": 49,
      "velocity": 42,
      "numerator": 3,
      "denominator": 4
    },
    "sample_counts": {
      "time": 1,
      "duration": 1,
      "pitch": 1,
      "velocity": 1,
      "numerator": 1,
      "denominator": 1
    }
  },
  {
    "action": "execute_pt",
    "unit": "001",
    "bar_index": 19,
    "pt_name": "alto_flute_tacet_b1_1761515115283_7d84",
    "N": 1,
    "seeds": {
      "time": 11,
      "duration": 1,
      "pitch": 60,
      "velocity": 0,
      "numerator": 3,
      "denominator": 4
    },
    "sample_counts": {
      "time": 1,
      "duration": 1,
      "pitch": 1,
      "velocity": 1,
      "numerator": 1,
      "denominator": 1
    }
  },
  {
    "action": "execute_pt",
    "unit": "001",
    "bar_index": 19,
    "pt_name": "violin_soprano_b1_1761515115283_47d8",
    "N": 1,
    "seeds": {
      "time": 0,
      "duration": 12,
      "pitch": 64,
      "velocity": 46,
      "numerator": 3,
      "denominator": 4
    },
    "sample_counts": {
      "time": 1,
      "duration": 1,
      "pitch": 1,
      "velocity": 1,
      "numerator": 1,
      "denominator": 1
    }
  },
  {
    "action": "execute_pt",
    "unit": "001",
    "bar_index": 19,
    "pt_name": "bass_clarinet_tacet_b1_1761515115283_6dbf",
    "N": 1,
    "seeds": {
      "time": 11,
      "duration": 1,
      "pitch": 60,
      "velocity": 0,
      "numerator": 3,
      "denominator": 4
    },
    "sample_counts": {
      "time": 1,
      "duration": 1,
      "pitch": 1,
      "velocity": 1,
      "numerator": 1,
      "denominator": 1
    }
  },
  {
    "action": "execute_pt",
    "unit": "001",
    "bar_index": 19,
    "pt_name": "trumpet_tacet_b1_1761515115283_3c20",
    "N": 1,
    "seeds": {
      "time": 11,
      "duration": 1,
      "pitch": 64,
      "velocity": 0,
      "numerator": 3,
      "denominator": 4
    },
    "sample_counts": {
      "time": 1,
      "duration": 1,
      "pitch": 1,
      "velocity": 1,
      "numerator": 1,
      "denominator": 1
    }
  },
  {
    "action": "execute_pt",
    "unit": "001",
    "bar_index": 19,
    "pt_name": "cello_alto_b1_1761515115283_81af",
    "N": 1,
    "seeds": {
      "time": 0,
      "duration": 12,
      "pitch": 59,
      "velocity": 44,
      "numerator": 3,
      "denominator": 4
    },
    "sample_counts": {
      "time": 1,
      "duration": 1,
      "pitch": 1,
      "velocity": 1,
      "numerator": 1,
      "denominator": 1
    }
  },
  {
    "action": "execute_pt",
    "unit": "001",
    "bar_index": 19,
    "pt_name": "double_bass_bass_root_b1_1761515115283_accf",
    "N": 1,
    "seeds": {
      "time": 0,
      "duration": 12,
      "pitch": 42,
      "velocity": 41,
      "numerator": 3,
      "denominator": 4
    },
    "sample_counts": {
      "time": 1,
      "duration": 1,
      "pitch": 1,
      "velocity": 1,
      "numerator": 1,
      "denominator": 1
    }
  },
  {
    "action": "execute_pt",
    "unit": "002",
    "bar_index": 1,
    "pt_name": "alto_flute_winds_b13_1761515643115_a9be",
    "N": 2,
    "seeds": {
      "time": 0,
      "duration": 4,
      "pitch": 74,
      "velocity": 56,
      "numerator": 3,
      "denominator": 4
    },
    "sample_counts": {
      "time": 2,
      "duration": 2,
      "pitch": 2,
      "velocity": 2,
      "numerator": 2,
      "denominator": 2
    }
  },
  {
    "action": "execute_pt",
    "unit": "002",
    "bar_index": 1,
    "pt_name": "bass_clarinet_winds_b13_1761515643115_5f44",
    "N": 2,
    "seeds": {
      "time": 0,
      "duration": 4,
      "pitch": 57,
      "velocity": 54,
      "numerator": 3,
      "denominator": 4
    },
    "sample_counts": {
      "time": 2,
      "duration": 2,
      "pitch": 2,
      "velocity": 2,
      "numerator": 2,
      "denominator": 2
    }
  },
  {
    "action": "execute_pt",
    "unit": "002",
    "bar_index": 1,
    "pt_name": "trumpet_winds_b13_1761515643115_d229",
    "N": 2,
    "seeds": {
      "time": 0,
      "duration": 4,
      "pitch": 79,
      "velocity": 58,
      "numerator": 3,
      "denominator": 4
    },
    "sample_counts": {
      "time": 2,
      "duration": 2,
      "pitch": 2,
      "velocity": 2,
      "numerator": 2,
      "denominator": 2
    }
  },
  {
    "action": "execute_pt",
    "unit": "002",
    "bar_index": 1,
    "pt_name": "violin_strings_b13_1761515643115_7d30",
    "N": 1,
    "seeds": {
      "time": 0,
      "duration": 12,
      "pitch": 73,
      "velocity": 48,
      "numerator": 3,
      "denominator": 4
    },
    "sample_counts": {
      "time": 1,
      "duration": 1,
      "pitch": 1,
      "velocity": 1,
      "numerator": 1,
      "denominator": 1
    }
  },
  {
    "action": "execute_pt",
    "unit": "002",
    "bar_index": 1,
    "pt_name": "cello_strings_b13_1761515643115_455a",
    "N": 1,
    "seeds": {
      "time": 0,
      "duration": 12,
      "pitch": 57,
      "velocity": 46,
      "numerator": 3,
      "denominator": 4
    },
    "sample_counts": {
      "time": 1,
      "duration": 1,
      "pitch": 1,
      "velocity": 1,
      "numerator": 1,
      "denominator": 1
    }
  },
  {
    "action": "execute_pt",
    "unit": "002",
    "bar_index": 1,
    "pt_name": "double_bass_strings_b13_1761515643115_a9d9",
    "N": 1,
    "seeds": {
      "time": 0,
      "duration": 12,
      "pitch": 42,
      "velocity": 44,
      "numerator": 3,
      "denominator": 4
    },
    "sample_counts": {
      "time": 1,
      "duration": 1,
      "pitch": 1,
      "velocity": 1,
      "numerator": 1,
      "denominator": 1
    }
  },
  {
    "action": "execute_pt",
    "unit": "002",
    "bar_index": 2,
    "pt_name": "alto_flute_winds_b14_1761515651697_c26f",
    "N": 1,
    "seeds": {
      "time": 0,
      "duration": 8,
      "pitch": 67,
      "velocity": 55,
      "numerator": 3,
      "denominator": 4
    },
    "sample_counts": {
      "time": 1,
      "duration": 1,
      "pitch": 1,
      "velocity": 1,
      "numerator": 1,
      "denominator": 1
    }
  },
  {
    "action": "execute_pt",
    "unit": "002",
    "bar_index": 2,
    "pt_name": "bass_clarinet_winds_b14_1761515651697_aca2",
    "N": 1,
    "seeds": {
      "time": 0,
      "duration": 8,
      "pitch": 55,
      "velocity": 53,
      "numerator": 3,
      "denominator": 4
    },
    "sample_counts": {
      "time": 1,
      "duration": 1,
      "pitch": 1,
      "velocity": 1,
      "numerator": 1,
      "denominator": 1
    }
  },
  {
    "action": "execute_pt",
    "unit": "002",
    "bar_index": 2,
    "pt_name": "trumpet_winds_b14_1761515651697_062b",
    "N": 1,
    "seeds": {
      "time": 0,
      "duration": 8,
      "pitch": 74,
      "velocity": 57,
      "numerator": 3,
      "denominator": 4
    },
    "sample_counts": {
      "time": 1,
      "duration": 1,
      "pitch": 1,
      "velocity": 1,
      "numerator": 1,
      "denominator": 1
    }
  },
  {
    "action": "execute_pt",
    "unit": "002",
    "bar_index": 2,
    "pt_name": "violin_strings_b14_1761515651697_4a97",
    "N": 2,
    "seeds": {
      "time": 0,
      "duration": 8,
      "pitch": 67,
      "velocity": 49,
      "numerator": 3,
      "denominator": 4
    },
    "sample_counts": {
      "time": 2,
      "duration": 2,
      "pitch": 2,
      "velocity": 2,
      "numerator": 2,
      "denominator": 2
    }
  },
  {
    "action": "execute_pt",
    "unit": "002",
    "bar_index": 2,
    "pt_name": "cello_strings_b14_1761515651697_b07e",
    "N": 2,
    "seeds": {
      "time": 0,
      "duration": 8,
      "pitch": 60,
      "velocity": 47,
      "numerator": 3,
      "denominator": 4
    },
    "sample_counts": {
      "time": 2,
      "duration": 2,
      "pitch": 2,
      "velocity": 2,
      "numerator": 2,
      "denominator": 2
    }
  },
  {
    "action": "execute_pt",
    "unit": "002",
    "bar_index": 2,
    "pt_name": "double_bass_strings_b14_1761515651697_9a58",
    "N": 2,
    "seeds": {
      "time": 0,
      "duration": 8,
      "pitch": 45,
      "velocity": 45,
      "numerator": 3,
      "denominator": 4
    },
    "sample_counts": {
      "time": 2,
      "duration": 2,
      "pitch": 2,
      "velocity": 2,
      "numerator": 2,
      "denominator": 2
    }
  },
  {
    "action": "execute_pt",
    "unit": "002",
    "bar_index": 3,
    "pt_name": "alto_flute_winds_b15_1761515660353_c7d5",
    "N": 1,
    "seeds": {
      "time": 4,
      "duration": 8,
      "pitch": 71,
      "velocity": 55,
      "numerator": 3,
      "denominator": 4
    },
    "sample_counts": {
      "time": 1,
      "duration": 1,
      "pitch": 1,
      "velocity": 1,
      "numerator": 1,
      "denominator": 1
    }
  },
  {
    "action": "execute_pt",
    "unit": "002",
    "bar_index": 3,
    "pt_name": "bass_clarinet_winds_b15_1761515660354_c5ac",
    "N": 1,
    "seeds": {
      "time": 4,
      "duration": 8,
      "pitch": 54,
      "velocity": 53,
      "numerator": 3,
      "denominator": 4
    },
    "sample_counts": {
      "time": 1,
      "duration": 1,
      "pitch": 1,
      "velocity": 1,
      "numerator": 1,
      "denominator": 1
    }
  },
  {
    "action": "execute_pt",
    "unit": "002",
    "bar_index": 3,
    "pt_name": "trumpet_winds_b15_1761515660354_fa20",
    "N": 1,
    "seeds": {
      "time": 4,
      "duration": 8,
      "pitch": 76,
      "velocity": 57,
      "numerator": 3,
      "denominator": 4
    },
    "sample_counts": {
      "time": 1,
      "duration": 1,
      "pitch": 1,
      "velocity": 1,
      "numerator": 1,
      "denominator": 1
    }
  },
  {
    "action": "execute_pt",
    "unit": "002",
    "bar_index": 3,
    "pt_name": "violin_strings_b15_1761515660354_bb27",
    "N": 1,
    "seeds": {
      "time": 4,
      "duration": 8,
      "pitch": 72,
      "velocity": 50,
      "numerator": 3,
      "denominator": 4
    },
    "sample_counts": {
      "time": 1,
      "duration": 1,
      "pitch": 1,
      "velocity": 1,
      "numerator": 1,
      "denominator": 1
    }
  },
  {
    "action": "execute_pt",
    "unit": "002",
    "bar_index": 3,
    "pt_name": "cello_strings_b15_1761515660354_37fc",
    "N": 1,
    "seeds": {
      "time": 4,
      "duration": 8,
      "pitch": 55,
      "velocity": 48,
      "numerator": 3,
      "denominator": 4
    },
    "sample_counts": {
      "time": 1,
      "duration": 1,
      "pitch": 1,
      "velocity": 1,
      "numerator": 1,
      "denominator": 1
    }
  },
  {
    "action": "execute_pt",
    "unit": "002",
    "bar_index": 3,
    "pt_name": "double_bass_strings_b15_1761515660354_75e7",
    "N": 1,
    "seeds": {
      "time": 4,
      "duration": 8,
      "pitch": 39,
      "velocity": 44,
      "numerator": 3,
      "denominator": 4
    },
    "sample_counts": {
      "time": 1,
      "duration": 1,
      "pitch": 1,
      "velocity": 1,
      "numerator": 1,
      "denominator": 1
    }
  },
  {
    "action": "execute_pt",
    "unit": "002",
    "bar_index": 4,
    "pt_name": "alto_flute_winds_b16_1761515667822_3771",
    "N": 2,
    "seeds": {
      "time": 0,
      "duration": 4,
      "pitch": 73,
      "velocity": 55,
      "numerator": 3,
      "denominator": 4
    },
    "sample_counts": {
      "time": 2,
      "duration": 2,
      "pitch": 2,
      "velocity": 2,
      "numerator": 2,
      "denominator": 2
    }
  },
  {
    "action": "execute_pt",
    "unit": "002",
    "bar_index": 4,
    "pt_name": "bass_clarinet_winds_b16_1761515667822_71d0",
    "N": 2,
    "seeds": {
      "time": 0,
      "duration": 4,
      "pitch": 56,
      "velocity": 53,
      "numerator": 3,
      "denominator": 4
    },
    "sample_counts": {
      "time": 2,
      "duration": 2,
      "pitch": 2,
      "velocity": 2,
      "numerator": 2,
      "denominator": 2
    }
  },
  {
    "action": "execute_pt",
    "unit": "002",
    "bar_index": 4,
    "pt_name": "trumpet_winds_b16_1761515667822_1aa5",
    "N": 2,
    "seeds": {
      "time": 0,
      "duration": 4,
      "pitch": 78,
      "velocity": 57,
      "numerator": 3,
      "denominator": 4
    },
    "sample_counts": {
      "time": 2,
      "duration": 2,
      "pitch": 2,
      "velocity": 2,
      "numerator": 2,
      "denominator": 2
    }
  },
  {
    "action": "execute_pt",
    "unit": "002",
    "bar_index": 4,
    "pt_name": "violin_strings_b16_1761515667822_cef7",
    "N": 2,
    "seeds": {
      "time": 0,
      "duration": 4,
      "pitch": 65,
      "velocity": 51,
      "numerator": 3,
      "denominator": 4
    },
    "sample_counts": {
      "time": 2,
      "duration": 2,
      "pitch": 2,
      "velocity": 2,
      "numerator": 2,
      "denominator": 2
    }
  },
  {
    "action": "execute_pt",
    "unit": "002",
    "bar_index": 4,
    "pt_name": "cello_strings_b16_1761515667822_bb58",
    "N": 2,
    "seeds": {
      "time": 0,
      "duration": 4,
      "pitch": 59,
      "velocity": 49,
      "numerator": 3,
      "denominator": 4
    },
    "sample_counts": {
      "time": 2,
      "duration": 2,
      "pitch": 2,
      "velocity": 2,
      "numerator": 2,
      "denominator": 2
    }
  },
  {
    "action": "execute_pt",
    "unit": "002",
    "bar_index": 4,
    "pt_name": "double_bass_strings_b16_1761515667822_83cd",
    "N": 2,
    "seeds": {
      "time": 0,
      "duration": 4,
      "pitch": 43,
      "velocity": 45,
      "numerator": 3,
      "denominator": 4
    },
    "sample_counts": {
      "time": 2,
      "duration": 2,
      "pitch": 2,
      "velocity": 2,
      "numerator": 2,
      "denominator": 2
    }
  },
  {
    "action": "execute_pt",
    "unit": "002",
    "bar_index": 5,
    "pt_name": "alto_flute_winds_b17_1761515675673_7f71",
    "N": 1,
    "seeds": {
      "time": 0,
      "duration": 12,
      "pitch": 71,
      "velocity": 54,
      "numerator": 3,
      "denominator": 4
    },
    "sample_counts": {
      "time": 1,
      "duration": 1,
      "pitch": 1,
      "velocity": 1,
      "numerator": 1,
      "denominator": 1
    }
  },
  {
    "action": "execute_pt",
    "unit": "002",
    "bar_index": 5,
    "pt_name": "bass_clarinet_winds_b17_1761515675673_a835",
    "N": 1,
    "seeds": {
      "time": 0,
      "duration": 12,
      "pitch": 59,
      "velocity": 52,
      "numerator": 3,
      "denominator": 4
    },
    "sample_counts": {
      "time": 1,
      "duration": 1,
      "pitch": 1,
      "velocity": 1,
      "numerator": 1,
      "denominator": 1
    }
  },
  {
    "action": "execute_pt",
    "unit": "002",
    "bar_index": 5,
    "pt_name": "trumpet_winds_b17_1761515675673_392c",
    "N": 1,
    "seeds": {
      "time": 0,
      "duration": 12,
      "pitch": 76,
      "velocity": 56,
      "numerator": 3,
      "denominator": 4
    },
    "sample_counts": {
      "time": 1,
      "duration": 1,
      "pitch": 1,
      "velocity": 1,
      "numerator": 1,
      "denominator": 1
    }
  },
  {
    "action": "execute_pt",
    "unit": "002",
    "bar_index": 5,
    "pt_name": "violin_strings_b17_1761515675673_361a",
    "N": 1,
    "seeds": {
      "time": 0,
      "duration": 8,
      "pitch": 69,
      "velocity": 52,
      "numerator": 3,
      "denominator": 4
    },
    "sample_counts": {
      "time": 1,
      "duration": 1,
      "pitch": 1,
      "velocity": 1,
      "numerator": 1,
      "denominator": 1
    }
  },
  {
    "action": "execute_pt",
    "unit": "002",
    "bar_index": 5,
    "pt_name": "cello_strings_b17_1761515675673_81d7",
    "N": 1,
    "seeds": {
      "time": 0,
      "duration": 12,
      "pitch": 66,
      "velocity": 48,
      "numerator": 3,
      "denominator": 4
    },
    "sample_counts": {
      "time": 1,
      "duration": 1,
      "pitch": 1,
      "velocity": 1,
      "numerator": 1,
      "denominator": 1
    }
  },
  {
    "action": "execute_pt",
    "unit": "002",
    "bar_index": 5,
    "pt_name": "double_bass_strings_b17_1761515675673_ced6",
    "N": 1,
    "seeds": {
      "time": 0,
      "duration": 12,
      "pitch": 47,
      "velocity": 46,
      "numerator": 3,
      "denominator": 4
    },
    "sample_counts": {
      "time": 1,
      "duration": 1,
      "pitch": 1,
      "velocity": 1,
      "numerator": 1,
      "denominator": 1
    }
  },
  {
    "action": "execute_pt",
    "unit": "002",
    "bar_index": 6,
    "pt_name": "alto_flute_winds_b18_1761515683711_672c",
    "N": 2,
    "seeds": {
      "time": 0,
      "duration": 8,
      "pitch": 70,
      "velocity": 55,
      "numerator": 3,
      "denominator": 4
    },
    "sample_counts": {
      "time": 2,
      "duration": 2,
      "pitch": 2,
      "velocity": 2,
      "numerator": 2,
      "denominator": 2
    }
  },
  {
    "action": "execute_pt",
    "unit": "002",
    "bar_index": 6,
    "pt_name": "bass_clarinet_winds_b18_1761515683711_9bef",
    "N": 2,
    "seeds": {
      "time": 0,
      "duration": 8,
      "pitch": 57,
      "velocity": 53,
      "numerator": 3,
      "denominator": 4
    },
    "sample_counts": {
      "time": 2,
      "duration": 2,
      "pitch": 2,
      "velocity": 2,
      "numerator": 2,
      "denominator": 2
    }
  },
  {
    "action": "execute_pt",
    "unit": "002",
    "bar_index": 6,
    "pt_name": "trumpet_winds_b18_1761515683711_bb17",
    "N": 2,
    "seeds": {
      "time": 0,
      "duration": 8,
      "pitch": 76,
      "velocity": 57,
      "numerator": 3,
      "denominator": 4
    },
    "sample_counts": {
      "time": 2,
      "duration": 2,
      "pitch": 2,
      "velocity": 2,
      "numerator": 2,
      "denominator": 2
    }
  },
  {
    "action": "execute_pt",
    "unit": "002",
    "bar_index": 6,
    "pt_name": "violin_strings_b18_1761515683711_0562",
    "N": 2,
    "seeds": {
      "time": 0,
      "duration": 8,
      "pitch": 70,
      "velocity": 51,
      "numerator": 3,
      "denominator": 4
    },
    "sample_counts": {
      "time": 2,
      "duration": 2,
      "pitch": 2,
      "velocity": 2,
      "numerator": 2,
      "denominator": 2
    }
  },
  {
    "action": "execute_pt",
    "unit": "002",
    "bar_index": 6,
    "pt_name": "cello_strings_b18_1761515683711_6446",
    "N": 2,
    "seeds": {
      "time": 0,
      "duration": 8,
      "pitch": 64,
      "velocity": 49,
      "numerator": 3,
      "denominator": 4
    },
    "sample_counts": {
      "time": 2,
      "duration": 2,
      "pitch": 2,
      "velocity": 2,
      "numerator": 2,
      "denominator": 2
    }
  },
  {
    "action": "execute_pt",
    "unit": "002",
    "bar_index": 6,
    "pt_name": "double_bass_strings_b18_1761515683711_403e",
    "N": 2,
    "seeds": {
      "time": 0,
      "duration": 8,
      "pitch": 48,
      "velocity": 45,
      "numerator": 3,
      "denominator": 4
    },
    "sample_counts": {
      "time": 2,
      "duration": 2,
      "pitch": 2,
      "velocity": 2,
      "numerator": 2,
      "denominator": 2
    }
  },
  {
    "action": "execute_pt",
    "unit": "002",
    "bar_index": 7,
    "pt_name": "alto_flute_winds_b19_1761515692618_1ee5",
    "N": 1,
    "seeds": {
      "time": 4,
      "duration": 8,
      "pitch": 72,
      "velocity": 55,
      "numerator": 3,
      "denominator": 4
    },
    "sample_counts": {
      "time": 1,
      "duration": 1,
      "pitch": 1,
      "velocity": 1,
      "numerator": 1,
      "denominator": 1
    }
  },
  {
    "action": "execute_pt",
    "unit": "002",
    "bar_index": 7,
    "pt_name": "bass_clarinet_winds_b19_1761515692618_3be0",
    "N": 1,
    "seeds": {
      "time": 4,
      "duration": 8,
      "pitch": 59,
      "velocity": 53,
      "numerator": 3,
      "denominator": 4
    },
    "sample_counts": {
      "time": 1,
      "duration": 1,
      "pitch": 1,
      "velocity": 1,
      "numerator": 1,
      "denominator": 1
    }
  },
  {
    "action": "execute_pt",
    "unit": "002",
    "bar_index": 7,
    "pt_name": "trumpet_winds_b19_1761515692618_d9cc",
    "N": 1,
    "seeds": {
      "time": 4,
      "duration": 8,
      "pitch": 79,
      "velocity": 57,
      "numerator": 3,
      "denominator": 4
    },
    "sample_counts": {
      "time": 1,
      "duration": 1,
      "pitch": 1,
      "velocity": 1,
      "numerator": 1,
      "denominator": 1
    }
  },
  {
    "action": "execute_pt",
    "unit": "002",
    "bar_index": 7,
    "pt_name": "violin_strings_b19_1761515692618_d9d1",
    "N": 1,
    "seeds": {
      "time": 0,
      "duration": 12,
      "pitch": 72,
      "velocity": 50,
      "numerator": 3,
      "denominator": 4
    },
    "sample_counts": {
      "time": 1,
      "duration": 1,
      "pitch": 1,
      "velocity": 1,
      "numerator": 1,
      "denominator": 1
    }
  },
  {
    "action": "execute_pt",
    "unit": "002",
    "bar_index": 7,
    "pt_name": "cello_strings_b19_1761515692618_b1be",
    "N": 1,
    "seeds": {
      "time": 0,
      "duration": 12,
      "pitch": 66,
      "velocity": 48,
      "numerator": 3,
      "denominator": 4
    },
    "sample_counts": {
      "time": 1,
      "duration": 1,
      "pitch": 1,
      "velocity": 1,
      "numerator": 1,
      "denominator": 1
    }
  },
  {
    "action": "execute_pt",
    "unit": "002",
    "bar_index": 7,
    "pt_name": "double_bass_strings_b19_1761515692618_ea08",
    "N": 1,
    "seeds": {
      "time": 0,
      "duration": 12,
      "pitch": 50,
      "velocity": 44,
      "numerator": 3,
      "denominator": 4
    },
    "sample_counts": {
      "time": 1,
      "duration": 1,
      "pitch": 1,
      "velocity": 1,
      "numerator": 1,
      "denominator": 1
    }
  },
  {
    "action": "execute_pt",
    "unit": "002",
    "bar_index": 8,
    "pt_name": "alto_flute_winds_b20_1761515701654_8780",
    "N": 2,
    "seeds": {
      "time": 0,
      "duration": 8,
      "pitch": 74,
      "velocity": 56,
      "numerator": 3,
      "denominator": 4
    },
    "sample_counts": {
      "time": 2,
      "duration": 2,
      "pitch": 2,
      "velocity": 2,
      "numerator": 2,
      "denominator": 2
    }
  },
  {
    "action": "execute_pt",
    "unit": "002",
    "bar_index": 8,
    "pt_name": "bass_clarinet_winds_b20_1761515701655_e860",
    "N": 2,
    "seeds": {
      "time": 0,
      "duration": 8,
      "pitch": 60,
      "velocity": 54,
      "numerator": 3,
      "denominator": 4
    },
    "sample_counts": {
      "time": 2,
      "duration": 2,
      "pitch": 2,
      "velocity": 2,
      "numerator": 2,
      "denominator": 2
    }
  },
  {
    "action": "execute_pt",
    "unit": "002",
    "bar_index": 8,
    "pt_name": "trumpet_winds_b20_1761515701655_f60d",
    "N": 2,
    "seeds": {
      "time": 0,
      "duration": 8,
      "pitch": 79,
      "velocity": 58,
      "numerator": 3,
      "denominator": 4
    },
    "sample_counts": {
      "time": 2,
      "duration": 2,
      "pitch": 2,
      "velocity": 2,
      "numerator": 2,
      "denominator": 2
    }
  },
  {
    "action": "execute_pt",
    "unit": "002",
    "bar_index": 8,
    "pt_name": "violin_strings_b20_1761515701655_104c",
    "N": 2,
    "seeds": {
      "time": 0,
      "duration": 4,
      "pitch": 74,
      "velocity": 49,
      "numerator": 3,
      "denominator": 4
    },
    "sample_counts": {
      "time": 2,
      "duration": 2,
      "pitch": 2,
      "velocity": 2,
      "numerator": 2,
      "denominator": 2
    }
  },
  {
    "action": "execute_pt",
    "unit": "002",
    "bar_index": 8,
    "pt_name": "cello_strings_b20_1761515701655_56d6",
    "N": 2,
    "seeds": {
      "time": 0,
      "duration": 4,
      "pitch": 67,
      "velocity": 47,
      "numerator": 3,
      "denominator": 4
    },
    "sample_counts": {
      "time": 2,
      "duration": 2,
      "pitch": 2,
      "velocity": 2,
      "numerator": 2,
      "denominator": 2
    }
  },
  {
    "action": "execute_pt",
    "unit": "002",
    "bar_index": 8,
    "pt_name": "double_bass_strings_b20_1761515701655_f40f",
    "N": 2,
    "seeds": {
      "time": 0,
      "duration": 4,
      "pitch": 52,
      "velocity": 43,
      "numerator": 3,
      "denominator": 4
    },
    "sample_counts": {
      "time": 2,
      "duration": 2,
      "pitch": 2,
      "velocity": 2,
      "numerator": 2,
      "denominator": 2
    }
  },
  {
    "action": "execute_pt",
    "unit": "002",
    "bar_index": 9,
    "pt_name": "alto_flute_winds_b21_1761515710960_3039",
    "N": 1,
    "seeds": {
      "time": 0,
      "duration": 12,
      "pitch": 71,
      "velocity": 53,
      "numerator": 3,
      "denominator": 4
    },
    "sample_counts": {
      "time": 1,
      "duration": 1,
      "pitch": 1,
      "velocity": 1,
      "numerator": 1,
      "denominator": 1
    }
  },
  {
    "action": "execute_pt",
    "unit": "002",
    "bar_index": 9,
    "pt_name": "bass_clarinet_winds_b21_1761515710960_616c",
    "N": 1,
    "seeds": {
      "time": 0,
      "duration": 12,
      "pitch": 55,
      "velocity": 51,
      "numerator": 3,
      "denominator": 4
    },
    "sample_counts": {
      "time": 1,
      "duration": 1,
      "pitch": 1,
      "velocity": 1,
      "numerator": 1,
      "denominator": 1
    }
  },
  {
    "action": "execute_pt",
    "unit": "002",
    "bar_index": 9,
    "pt_name": "trumpet_winds_b21_1761515710960_177e",
    "N": 1,
    "seeds": {
      "time": 0,
      "duration": 12,
      "pitch": 76,
      "velocity": 55,
      "numerator": 3,
      "denominator": 4
    },
    "sample_counts": {
      "time": 1,
      "duration": 1,
      "pitch": 1,
      "velocity": 1,
      "numerator": 1,
      "denominator": 1
    }
  },
  {
    "action": "execute_pt",
    "unit": "002",
    "bar_index": 9,
    "pt_name": "violin_strings_b21_1761515710960_75c4",
    "N": 1,
    "seeds": {
      "time": 4,
      "duration": 8,
      "pitch": 69,
      "velocity": 48,
      "numerator": 3,
      "denominator": 4
    },
    "sample_counts": {
      "time": 1,
      "duration": 1,
      "pitch": 1,
      "velocity": 1,
      "numerator": 1,
      "denominator": 1
    }
  },
  {
    "action": "execute_pt",
    "unit": "002",
    "bar_index": 9,
    "pt_name": "cello_strings_b21_1761515710960_2fd4",
    "N": 1,
    "seeds": {
      "time": 4,
      "duration": 8,
      "pitch": 66,
      "velocity": 46,
      "numerator": 3,
      "denominator": 4
    },
    "sample_counts": {
      "time": 1,
      "duration": 1,
      "pitch": 1,
      "velocity": 1,
      "numerator": 1,
      "denominator": 1
    }
  },
  {
    "action": "execute_pt",
    "unit": "002",
    "bar_index": 9,
    "pt_name": "double_bass_strings_b21_1761515710960_4899",
    "N": 1,
    "seeds": {
      "time": 4,
      "duration": 8,
      "pitch": 49,
      "velocity": 42,
      "numerator": 3,
      "denominator": 4
    },
    "sample_counts": {
      "time": 1,
      "duration": 1,
      "pitch": 1,
      "velocity": 1,
      "numerator": 1,
      "denominator": 1
    }
  },
  {
    "action": "execute_pt",
    "unit": "002",
    "bar_index": 10,
    "pt_name": "alto_flute_winds_b22_1761515719701_8020",
    "N": 2,
    "seeds": {
      "time": 0,
      "duration": 4,
      "pitch": 70,
      "velocity": 54,
      "numerator": 3,
      "denominator": 4
    },
    "sample_counts": {
      "time": 2,
      "duration": 2,
      "pitch": 2,
      "velocity": 2,
      "numerator": 2,
      "denominator": 2
    }
  },
  {
    "action": "execute_pt",
    "unit": "002",
    "bar_index": 10,
    "pt_name": "bass_clarinet_winds_b22_1761515719701_4ce4",
    "N": 2,
    "seeds": {
      "time": 0,
      "duration": 4,
      "pitch": 53,
      "velocity": 52,
      "numerator": 3,
      "denominator": 4
    },
    "sample_counts": {
      "time": 2,
      "duration": 2,
      "pitch": 2,
      "velocity": 2,
      "numerator": 2,
      "denominator": 2
    }
  },
  {
    "action": "execute_pt",
    "unit": "002",
    "bar_index": 10,
    "pt_name": "trumpet_winds_b22_1761515719701_b69c",
    "N": 2,
    "seeds": {
      "time": 0,
      "duration": 4,
      "pitch": 74,
      "velocity": 56,
      "numerator": 3,
      "denominator": 4
    },
    "sample_counts": {
      "time": 2,
      "duration": 2,
      "pitch": 2,
      "velocity": 2,
      "numerator": 2,
      "denominator": 2
    }
  },
  {
    "action": "execute_pt",
    "unit": "002",
    "bar_index": 10,
    "pt_name": "violin_strings_b22_1761515719701_ebfa",
    "N": 2,
    "seeds": {
      "time": 0,
      "duration": 8,
      "pitch": 64,
      "velocity": 49,
      "numerator": 3,
      "denominator": 4
    },
    "sample_counts": {
      "time": 2,
      "duration": 2,
      "pitch": 2,
      "velocity": 2,
      "numerator": 2,
      "denominator": 2
    }
  },
  {
    "action": "execute_pt",
    "unit": "002",
    "bar_index": 10,
    "pt_name": "cello_strings_b22_1761515719701_e368",
    "N": 2,
    "seeds": {
      "time": 0,
      "duration": 8,
      "pitch": 57,
      "velocity": 47,
      "numerator": 3,
      "denominator": 4
    },
    "sample_counts": {
      "time": 2,
      "duration": 2,
      "pitch": 2,
      "velocity": 2,
      "numerator": 2,
      "denominator": 2
    }
  },
  {
    "action": "execute_pt",
    "unit": "002",
    "bar_index": 10,
    "pt_name": "double_bass_strings_b22_1761515719701_1629",
    "N": 2,
    "seeds": {
      "time": 0,
      "duration": 8,
      "pitch": 41,
      "velocity": 43,
      "numerator": 3,
      "denominator": 4
    },
    "sample_counts": {
      "time": 2,
      "duration": 2,
      "pitch": 2,
      "velocity": 2,
      "numerator": 2,
      "denominator": 2
    }
  },
  {
    "action": "execute_pt",
    "unit": "002",
    "bar_index": 11,
    "pt_name": "alto_flute_winds_b23_1761515727804_6483",
    "N": 1,
    "seeds": {
      "time": 0,
      "duration": 8,
      "pitch": 69,
      "velocity": 53,
      "numerator": 3,
      "denominator": 4
    },
    "sample_counts": {
      "time": 1,
      "duration": 1,
      "pitch": 1,
      "velocity": 1,
      "numerator": 1,
      "denominator": 1
    }
  },
  {
    "action": "execute_pt",
    "unit": "002",
    "bar_index": 11,
    "pt_name": "bass_clarinet_winds_b23_1761515727804_fc18",
    "N": 1,
    "seeds": {
      "time": 0,
      "duration": 8,
      "pitch": 52,
      "velocity": 51,
      "numerator": 3,
      "denominator": 4
    },
    "sample_counts": {
      "time": 1,
      "duration": 1,
      "pitch": 1,
      "velocity": 1,
      "numerator": 1,
      "denominator": 1
    }
  },
  {
    "action": "execute_pt",
    "unit": "002",
    "bar_index": 11,
    "pt_name": "trumpet_winds_b23_1761515727804_8ee4",
    "N": 1,
    "seeds": {
      "time": 0,
      "duration": 8,
      "pitch": 74,
      "velocity": 55,
      "numerator": 3,
      "denominator": 4
    },
    "sample_counts": {
      "time": 1,
      "duration": 1,
      "pitch": 1,
      "velocity": 1,
      "numerator": 1,
      "denominator": 1
    }
  },
  {
    "action": "execute_pt",
    "unit": "002",
    "bar_index": 11,
    "pt_name": "violin_strings_b23_1761515727804_c9a6",
    "N": 1,
    "seeds": {
      "time": 0,
      "duration": 8,
      "pitch": 62,
      "velocity": 47,
      "numerator": 3,
      "denominator": 4
    },
    "sample_counts": {
      "time": 1,
      "duration": 1,
      "pitch": 1,
      "velocity": 1,
      "numerator": 1,
      "denominator": 1
    }
  },
  {
    "action": "execute_pt",
    "unit": "002",
    "bar_index": 11,
    "pt_name": "cello_strings_b23_1761515727804_269f",
    "N": 1,
    "seeds": {
      "time": 0,
      "duration": 8,
      "pitch": 56,
      "velocity": 45,
      "numerator": 3,
      "denominator": 4
    },
    "sample_counts": {
      "time": 1,
      "duration": 1,
      "pitch": 1,
      "velocity": 1,
      "numerator": 1,
      "denominator": 1
    }
  },
  {
    "action": "execute_pt",
    "unit": "002",
    "bar_index": 11,
    "pt_name": "double_bass_strings_b23_1761515727804_9832",
    "N": 1,
    "seeds": {
      "time": 0,
      "duration": 8,
      "pitch": 40,
      "velocity": 42,
      "numerator": 3,
      "denominator": 4
    },
    "sample_counts": {
      "time": 1,
      "duration": 1,
      "pitch": 1,
      "velocity": 1,
      "numerator": 1,
      "denominator": 1
    }
  },
  {
    "action": "execute_pt",
    "unit": "002",
    "bar_index": 12,
    "pt_name": "alto_flute_winds_b24_1761515735758_d2a7",
    "N": 1,
    "seeds": {
      "time": 0,
      "duration": 12,
      "pitch": 71,
      "velocity": 52,
      "numerator": 3,
      "denominator": 4
    },
    "sample_counts": {
      "time": 1,
      "duration": 1,
      "pitch": 1,
      "velocity": 1,
      "numerator": 1,
      "denominator": 1
    }
  },
  {
    "action": "execute_pt",
    "unit": "002",
    "bar_index": 12,
    "pt_name": "bass_clarinet_winds_b24_1761515735758_622c",
    "N": 1,
    "seeds": {
      "time": 0,
      "duration": 12,
      "pitch": 55,
      "velocity": 50,
      "numerator": 3,
      "denominator": 4
    },
    "sample_counts": {
      "time": 1,
      "duration": 1,
      "pitch": 1,
      "velocity": 1,
      "numerator": 1,
      "denominator": 1
    }
  },
  {
    "action": "execute_pt",
    "unit": "002",
    "bar_index": 12,
    "pt_name": "trumpet_winds_b24_1761515735758_258d",
    "N": 1,
    "seeds": {
      "time": 0,
      "duration": 12,
      "pitch": 76,
      "velocity": 54,
      "numerator": 3,
      "denominator": 4
    },
    "sample_counts": {
      "time": 1,
      "duration": 1,
      "pitch": 1,
      "velocity": 1,
      "numerator": 1,
      "denominator": 1
    }
  },
  {
    "action": "execute_pt",
    "unit": "002",
    "bar_index": 12,
    "pt_name": "violin_strings_b24_1761515735758_4fdb",
    "N": 1,
    "seeds": {
      "time": 0,
      "duration": 12,
      "pitch": 64,
      "velocity": 46,
      "numerator": 3,
      "denominator": 4
    },
    "sample_counts": {
      "time": 1,
      "duration": 1,
      "pitch": 1,
      "velocity": 1,
      "numerator": 1,
      "denominator": 1
    }
  },
  {
    "action": "execute_pt",
    "unit": "002",
    "bar_index": 12,
    "pt_name": "cello_strings_b24_1761515735758_35b5",
    "N": 1,
    "seeds": {
      "time": 0,
      "duration": 12,
      "pitch": 59,
      "velocity": 44,
      "numerator": 3,
      "denominator": 4
    },
    "sample_counts": {
      "time": 1,
      "duration": 1,
      "pitch": 1,
      "velocity": 1,
      "numerator": 1,
      "denominator": 1
    }
  },
  {
    "action": "execute_pt",
    "unit": "002",
    "bar_index": 12,
    "pt_name": "double_bass_strings_b24_1761515735758_c464",
    "N": 1,
    "seeds": {
      "time": 0,
      "duration": 12,
      "pitch": 42,
      "velocity": 41,
      "numerator": 3,
      "denominator": 4
    },
    "sample_counts": {
      "time": 1,
      "duration": 1,
      "pitch": 1,
      "velocity": 1,
      "numerator": 1,
      "denominator": 1
    }
  },
  {
    "action": "execute_pt",
    "unit": "002",
    "bar_index": 13,
    "pt_name": "alto_flute_winds_b18_1761515743733_69f3",
    "N": 1,
    "seeds": {
      "time": 11,
      "duration": 1,
      "pitch": 60,
      "velocity": 0,
      "numerator": 3,
      "denominator": 4
    },
    "sample_counts": {
      "time": 1,
      "duration": 1,
      "pitch": 1,
      "velocity": 1,
      "numerator": 1,
      "denominator": 1
    }
  },
  {
    "action": "execute_pt",
    "unit": "002",
    "bar_index": 13,
    "pt_name": "bass_clarinet_winds_b18_1761515743733_8c95",
    "N": 1,
    "seeds": {
      "time": 11,
      "duration": 1,
      "pitch": 60,
      "velocity": 0,
      "numerator": 3,
      "denominator": 4
    },
    "sample_counts": {
      "time": 1,
      "duration": 1,
      "pitch": 1,
      "velocity": 1,
      "numerator": 1,
      "denominator": 1
    }
  },
  {
    "action": "execute_pt",
    "unit": "002",
    "bar_index": 13,
    "pt_name": "trumpet_winds_b18_1761515743733_f4fc",
    "N": 1,
    "seeds": {
      "time": 11,
      "duration": 1,
      "pitch": 64,
      "velocity": 0,
      "numerator": 3,
      "denominator": 4
    },
    "sample_counts": {
      "time": 1,
      "duration": 1,
      "pitch": 1,
      "velocity": 1,
      "numerator": 1,
      "denominator": 1
    }
  },
  {
    "action": "execute_pt",
    "unit": "002",
    "bar_index": 13,
    "pt_name": "violin_strings_b18_1761515743733_7189",
    "N": 1,
    "seeds": {
      "time": 11,
      "duration": 1,
      "pitch": 60,
      "velocity": 0,
      "numerator": 3,
      "denominator": 4
    },
    "sample_counts": {
      "time": 1,
      "duration": 1,
      "pitch": 1,
      "velocity": 1,
      "numerator": 1,
      "denominator": 1
    }
  },
  {
    "action": "execute_pt",
    "unit": "002",
    "bar_index": 13,
    "pt_name": "cello_strings_b18_1761515743733_b3fe",
    "N": 1,
    "seeds": {
      "time": 11,
      "duration": 1,
      "pitch": 60,
      "velocity": 0,
      "numerator": 3,
      "denominator": 4
    },
    "sample_counts": {
      "time": 1,
      "duration": 1,
      "pitch": 1,
      "velocity": 1,
      "numerator": 1,
      "denominator": 1
    }
  },
  {
    "action": "execute_pt",
    "unit": "002",
    "bar_index": 13,
    "pt_name": "double_bass_strings_b18_1761515743733_92fe",
    "N": 1,
    "seeds": {
      "time": 11,
      "duration": 1,
      "pitch": 60,
      "velocity": 0,
      "numerator": 3,
      "denominator": 4
    },
    "sample_counts": {
      "time": 1,
      "duration": 1,
      "pitch": 1,
      "velocity": 1,
      "numerator": 1,
      "denominator": 1
    }
  },
  {
    "action": "execute_pt",
    "unit": "002",
    "bar_index": 14,
    "pt_name": "alto_flute_winds_b13_1761515751715_579d",
    "N": 1,
    "seeds": {
      "time": 11,
      "duration": 1,
      "pitch": 60,
      "velocity": 0,
      "numerator": 3,
      "denominator": 4
    },
    "sample_counts": {
      "time": 1,
      "duration": 1,
      "pitch": 1,
      "velocity": 1,
      "numerator": 1,
      "denominator": 1
    }
  },
  {
    "action": "execute_pt",
    "unit": "002",
    "bar_index": 14,
    "pt_name": "bass_clarinet_winds_b13_1761515751715_4405",
    "N": 1,
    "seeds": {
      "time": 11,
      "duration": 1,
      "pitch": 60,
      "velocity": 0,
      "numerator": 3,
      "denominator": 4
    },
    "sample_counts": {
      "time": 1,
      "duration": 1,
      "pitch": 1,
      "velocity": 1,
      "numerator": 1,
      "denominator": 1
    }
  },
  {
    "action": "execute_pt",
    "unit": "002",
    "bar_index": 14,
    "pt_name": "trumpet_winds_b13_1761515751715_c6d8",
    "N": 1,
    "seeds": {
      "time": 11,
      "duration": 1,
      "pitch": 64,
      "velocity": 0,
      "numerator": 3,
      "denominator": 4
    },
    "sample_counts": {
      "time": 1,
      "duration": 1,
      "pitch": 1,
      "velocity": 1,
      "numerator": 1,
      "denominator": 1
    }
  },
  {
    "action": "execute_pt",
    "unit": "002",
    "bar_index": 14,
    "pt_name": "violin_strings_b13_1761515751715_09ec",
    "N": 1,
    "seeds": {
      "time": 11,
      "duration": 1,
      "pitch": 60,
      "velocity": 0,
      "numerator": 3,
      "denominator": 4
    },
    "sample_counts": {
      "time": 1,
      "duration": 1,
      "pitch": 1,
      "velocity": 1,
      "numerator": 1,
      "denominator": 1
    }
  },
  {
    "action": "execute_pt",
    "unit": "002",
    "bar_index": 14,
    "pt_name": "cello_strings_b13_1761515751715_cc4b",
    "N": 1,
    "seeds": {
      "time": 11,
      "duration": 1,
      "pitch": 60,
      "velocity": 0,
      "numerator": 3,
      "denominator": 4
    },
    "sample_counts": {
      "time": 1,
      "duration": 1,
      "pitch": 1,
      "velocity": 1,
      "numerator": 1,
      "denominator": 1
    }
  },
  {
    "action": "execute_pt",
    "unit": "002",
    "bar_index": 14,
    "pt_name": "double_bass_strings_b13_1761515751715_0b8a",
    "N": 1,
    "seeds": {
      "time": 11,
      "duration": 1,
      "pitch": 60,
      "velocity": 0,
      "numerator": 3,
      "denominator": 4
    },
    "sample_counts": {
      "time": 1,
      "duration": 1,
      "pitch": 1,
      "velocity": 1,
      "numerator": 1,
      "denominator": 1
    }
  },
  {
    "action": "execute_pt",
    "unit": "002",
    "bar_index": 15,
    "pt_name": "alto_flute_winds_b14_1761515759704_f056",
    "N": 1,
    "seeds": {
      "time": 11,
      "duration": 1,
      "pitch": 60,
      "velocity": 0,
      "numerator": 3,
      "denominator": 4
    },
    "sample_counts": {
      "time": 1,
      "duration": 1,
      "pitch": 1,
      "velocity": 1,
      "numerator": 1,
      "denominator": 1
    }
  },
  {
    "action": "execute_pt",
    "unit": "002",
    "bar_index": 15,
    "pt_name": "bass_clarinet_winds_b14_1761515759704_adc7",
    "N": 1,
    "seeds": {
      "time": 11,
      "duration": 1,
      "pitch": 60,
      "velocity": 0,
      "numerator": 3,
      "denominator": 4
    },
    "sample_counts": {
      "time": 1,
      "duration": 1,
      "pitch": 1,
      "velocity": 1,
      "numerator": 1,
      "denominator": 1
    }
  },
  {
    "action": "execute_pt",
    "unit": "002",
    "bar_index": 15,
    "pt_name": "trumpet_winds_b14_1761515759704_e567",
    "N": 1,
    "seeds": {
      "time": 11,
      "duration": 1,
      "pitch": 64,
      "velocity": 0,
      "numerator": 3,
      "denominator": 4
    },
    "sample_counts": {
      "time": 1,
      "duration": 1,
      "pitch": 1,
      "velocity": 1,
      "numerator": 1,
      "denominator": 1
    }
  },
  {
    "action": "execute_pt",
    "unit": "002",
    "bar_index": 15,
    "pt_name": "violin_strings_b14_1761515759704_b6e9",
    "N": 1,
    "seeds": {
      "time": 11,
      "duration": 1,
      "pitch": 60,
      "velocity": 0,
      "numerator": 3,
      "denominator": 4
    },
    "sample_counts": {
      "time": 1,
      "duration": 1,
      "pitch": 1,
      "velocity": 1,
      "numerator": 1,
      "denominator": 1
    }
  },
  {
    "action": "execute_pt",
    "unit": "002",
    "bar_index": 15,
    "pt_name": "cello_strings_b14_1761515759704_e43d",
    "N": 1,
    "seeds": {
      "time": 11,
      "duration": 1,
      "pitch": 60,
      "velocity": 0,
      "numerator": 3,
      "denominator": 4
    },
    "sample_counts": {
      "time": 1,
      "duration": 1,
      "pitch": 1,
      "velocity": 1,
      "numerator": 1,
      "denominator": 1
    }
  },
  {
    "action": "execute_pt",
    "unit": "002",
    "bar_index": 15,
    "pt_name": "double_bass_strings_b14_1761515759704_17ca",
    "N": 1,
    "seeds": {
      "time": 11,
      "duration": 1,
      "pitch": 60,
      "velocity": 0,
      "numerator": 3,
      "denominator": 4
    },
    "sample_counts": {
      "time": 1,
      "duration": 1,
      "pitch": 1,
      "velocity": 1,
      "numerator": 1,
      "denominator": 1
    }
  },
  {
    "action": "execute_pt",
    "unit": "002",
    "bar_index": 16,
    "pt_name": "alto_flute_winds_b21_1761515767712_2233",
    "N": 1,
    "seeds": {
      "time": 11,
      "duration": 1,
      "pitch": 60,
      "velocity": 0,
      "numerator": 3,
      "denominator": 4
    },
    "sample_counts": {
      "time": 1,
      "duration": 1,
      "pitch": 1,
      "velocity": 1,
      "numerator": 1,
      "denominator": 1
    }
  },
  {
    "action": "execute_pt",
    "unit": "002",
    "bar_index": 16,
    "pt_name": "bass_clarinet_winds_b21_1761515767712_7e71",
    "N": 1,
    "seeds": {
      "time": 11,
      "duration": 1,
      "pitch": 60,
      "velocity": 0,
      "numerator": 3,
      "denominator": 4
    },
    "sample_counts": {
      "time": 1,
      "duration": 1,
      "pitch": 1,
      "velocity": 1,
      "numerator": 1,
      "denominator": 1
    }
  },
  {
    "action": "execute_pt",
    "unit": "002",
    "bar_index": 16,
    "pt_name": "trumpet_winds_b21_1761515767712_9e36",
    "N": 1,
    "seeds": {
      "time": 11,
      "duration": 1,
      "pitch": 64,
      "velocity": 0,
      "numerator": 3,
      "denominator": 4
    },
    "sample_counts": {
      "time": 1,
      "duration": 1,
      "pitch": 1,
      "velocity": 1,
      "numerator": 1,
      "denominator": 1
    }
  },
  {
    "action": "execute_pt",
    "unit": "002",
    "bar_index": 16,
    "pt_name": "violin_strings_b21_1761515767712_94d9",
    "N": 1,
    "seeds": {
      "time": 11,
      "duration": 1,
      "pitch": 60,
      "velocity": 0,
      "numerator": 3,
      "denominator": 4
    },
    "sample_counts": {
      "time": 1,
      "duration": 1,
      "pitch": 1,
      "velocity": 1,
      "numerator": 1,
      "denominator": 1
    }
  },
  {
    "action": "execute_pt",
    "unit": "002",
    "bar_index": 16,
    "pt_name": "cello_strings_b21_1761515767712_35d5",
    "N": 1,
    "seeds": {
      "time": 11,
      "duration": 1,
      "pitch": 60,
      "velocity": 0,
      "numerator": 3,
      "denominator": 4
    },
    "sample_counts": {
      "time": 1,
      "duration": 1,
      "pitch": 1,
      "velocity": 1,
      "numerator": 1,
      "denominator": 1
    }
  },
  {
    "action": "execute_pt",
    "unit": "002",
    "bar_index": 16,
    "pt_name": "double_bass_strings_b21_1761515767712_4d4b",
    "N": 1,
    "seeds": {
      "time": 11,
      "duration": 1,
      "pitch": 60,
      "velocity": 0,
      "numerator": 3,
      "denominator": 4
    },
    "sample_counts": {
      "time": 1,
      "duration": 1,
      "pitch": 1,
      "velocity": 1,
      "numerator": 1,
      "denominator": 1
    }
  },
  {
    "action": "execute_pt",
    "unit": "003",
    "bar_index": 1,
    "pt_name": "alto_flute_winds_b25_1761516197438_d435",
    "N": 2,
    "seeds": {
      "time": 0,
      "duration": 4,
      "pitch": 74,
      "velocity": 56,
      "numerator": 3,
      "denominator": 4
    },
    "sample_counts": {
      "time": 2,
      "duration": 2,
      "pitch": 2,
      "velocity": 2,
      "numerator": 2,
      "denominator": 2
    }
  },
  {
    "action": "execute_pt",
    "unit": "003",
    "bar_index": 1,
    "pt_name": "bass_clarinet_winds_b25_1761516197438_4817",
    "N": 2,
    "seeds": {
      "time": 0,
      "duration": 4,
      "pitch": 57,
      "velocity": 54,
      "numerator": 3,
      "denominator": 4
    },
    "sample_counts": {
      "time": 2,
      "duration": 2,
      "pitch": 2,
      "velocity": 2,
      "numerator": 2,
      "denominator": 2
    }
  },
  {
    "action": "execute_pt",
    "unit": "003",
    "bar_index": 1,
    "pt_name": "trumpet_winds_b25_1761516197438_c727",
    "N": 2,
    "seeds": {
      "time": 0,
      "duration": 4,
      "pitch": 79,
      "velocity": 58,
      "numerator": 3,
      "denominator": 4
    },
    "sample_counts": {
      "time": 2,
      "duration": 2,
      "pitch": 2,
      "velocity": 2,
      "numerator": 2,
      "denominator": 2
    }
  },
  {
    "action": "execute_pt",
    "unit": "003",
    "bar_index": 1,
    "pt_name": "violin_strings_b25_1761516197438_326a",
    "N": 2,
    "seeds": {
      "time": 0,
      "duration": 8,
      "pitch": 66,
      "velocity": 50,
      "numerator": 3,
      "denominator": 4
    },
    "sample_counts": {
      "time": 2,
      "duration": 2,
      "pitch": 2,
      "velocity": 2,
      "numerator": 2,
      "denominator": 2
    }
  },
  {
    "action": "execute_pt",
    "unit": "003",
    "bar_index": 1,
    "pt_name": "cello_strings_b25_1761516197438_3e26",
    "N": 2,
    "seeds": {
      "time": 0,
      "duration": 8,
      "pitch": 59,
      "velocity": 48,
      "numerator": 3,
      "denominator": 4
    },
    "sample_counts": {
      "time": 2,
      "duration": 2,
      "pitch": 2,
      "velocity": 2,
      "numerator": 2,
      "denominator": 2
    }
  },
  {
    "action": "execute_pt",
    "unit": "003",
    "bar_index": 1,
    "pt_name": "double_bass_strings_b25_1761516197438_dc77",
    "N": 2,
    "seeds": {
      "time": 0,
      "duration": 8,
      "pitch": 52,
      "velocity": 44,
      "numerator": 3,
      "denominator": 4
    },
    "sample_counts": {
      "time": 2,
      "duration": 2,
      "pitch": 2,
      "velocity": 2,
      "numerator": 2,
      "denominator": 2
    }
  },
  {
    "action": "execute_pt",
    "unit": "003",
    "bar_index": 2,
    "pt_name": "alto_flute_winds_b26_1761516205256_fd8e",
    "N": 1,
    "seeds": {
      "time": 0,
      "duration": 8,
      "pitch": 67,
      "velocity": 55,
      "numerator": 3,
      "denominator": 4
    },
    "sample_counts": {
      "time": 1,
      "duration": 1,
      "pitch": 1,
      "velocity": 1,
      "numerator": 1,
      "denominator": 1
    }
  },
  {
    "action": "execute_pt",
    "unit": "003",
    "bar_index": 2,
    "pt_name": "bass_clarinet_winds_b26_1761516205256_032c",
    "N": 1,
    "seeds": {
      "time": 0,
      "duration": 8,
      "pitch": 55,
      "velocity": 53,
      "numerator": 3,
      "denominator": 4
    },
    "sample_counts": {
      "time": 1,
      "duration": 1,
      "pitch": 1,
      "velocity": 1,
      "numerator": 1,
      "denominator": 1
    }
  },
  {
    "action": "execute_pt",
    "unit": "003",
    "bar_index": 2,
    "pt_name": "trumpet_winds_b26_1761516205257_658b",
    "N": 1,
    "seeds": {
      "time": 0,
      "duration": 8,
      "pitch": 74,
      "velocity": 57,
      "numerator": 3,
      "denominator": 4
    },
    "sample_counts": {
      "time": 1,
      "duration": 1,
      "pitch": 1,
      "velocity": 1,
      "numerator": 1,
      "denominator": 1
    }
  },
  {
    "action": "execute_pt",
    "unit": "003",
    "bar_index": 2,
    "pt_name": "violin_strings_b26_1761516205257_fed8",
    "N": 1,
    "seeds": {
      "time": 0,
      "duration": 12,
      "pitch": 69,
      "velocity": 49,
      "numerator": 3,
      "denominator": 4
    },
    "sample_counts": {
      "time": 1,
      "duration": 1,
      "pitch": 1,
      "velocity": 1,
      "numerator": 1,
      "denominator": 1
    }
  },
  {
    "action": "execute_pt",
    "unit": "003",
    "bar_index": 2,
    "pt_name": "cello_strings_b26_1761516205257_3eae",
    "N": 1,
    "seeds": {
      "time": 0,
      "duration": 12,
      "pitch": 57,
      "velocity": 47,
      "numerator": 3,
      "denominator": 4
    },
    "sample_counts": {
      "time": 1,
      "duration": 1,
      "pitch": 1,
      "velocity": 1,
      "numerator": 1,
      "denominator": 1
    }
  },
  {
    "action": "execute_pt",
    "unit": "003",
    "bar_index": 2,
    "pt_name": "double_bass_strings_b26_1761516205257_0128",
    "N": 1,
    "seeds": {
      "time": 0,
      "duration": 12,
      "pitch": 45,
      "velocity": 43,
      "numerator": 3,
      "denominator": 4
    },
    "sample_counts": {
      "time": 1,
      "duration": 1,
      "pitch": 1,
      "velocity": 1,
      "numerator": 1,
      "denominator": 1
    }
  },
  {
    "action": "execute_pt",
    "unit": "003",
    "bar_index": 3,
    "pt_name": "alto_flute_winds_b27_1761516213571_b0df",
    "N": 1,
    "seeds": {
      "time": 4,
      "duration": 8,
      "pitch": 71,
      "velocity": 55,
      "numerator": 3,
      "denominator": 4
    },
    "sample_counts": {
      "time": 1,
      "duration": 1,
      "pitch": 1,
      "velocity": 1,
      "numerator": 1,
      "denominator": 1
    }
  },
  {
    "action": "execute_pt",
    "unit": "003",
    "bar_index": 3,
    "pt_name": "bass_clarinet_winds_b27_1761516213571_fc8e",
    "N": 1,
    "seeds": {
      "time": 4,
      "duration": 8,
      "pitch": 54,
      "velocity": 53,
      "numerator": 3,
      "denominator": 4
    },
    "sample_counts": {
      "time": 1,
      "duration": 1,
      "pitch": 1,
      "velocity": 1,
      "numerator": 1,
      "denominator": 1
    }
  },
  {
    "action": "execute_pt",
    "unit": "003",
    "bar_index": 3,
    "pt_name": "trumpet_winds_b27_1761516213571_5f58",
    "N": 1,
    "seeds": {
      "time": 4,
      "duration": 8,
      "pitch": 76,
      "velocity": 57,
      "numerator": 3,
      "denominator": 4
    },
    "sample_counts": {
      "time": 1,
      "duration": 1,
      "pitch": 1,
      "velocity": 1,
      "numerator": 1,
      "denominator": 1
    }
  },
  {
    "action": "execute_pt",
    "unit": "003",
    "bar_index": 3,
    "pt_name": "violin_strings_b27_1761516213571_6e3a",
    "N": 2,
    "seeds": {
      "time": 0,
      "duration": 4,
      "pitch": 67,
      "velocity": 48,
      "numerator": 3,
      "denominator": 4
    },
    "sample_counts": {
      "time": 2,
      "duration": 2,
      "pitch": 2,
      "velocity": 2,
      "numerator": 2,
      "denominator": 2
    }
  },
  {
    "action": "execute_pt",
    "unit": "003",
    "bar_index": 3,
    "pt_name": "cello_strings_b27_1761516213571_c82b",
    "N": 2,
    "seeds": {
      "time": 0,
      "duration": 4,
      "pitch": 62,
      "velocity": 46,
      "numerator": 3,
      "denominator": 4
    },
    "sample_counts": {
      "time": 2,
      "duration": 2,
      "pitch": 2,
      "velocity": 2,
      "numerator": 2,
      "denominator": 2
    }
  },
  {
    "action": "execute_pt",
    "unit": "003",
    "bar_index": 3,
    "pt_name": "double_bass_strings_b27_1761516213571_2638",
    "N": 2,
    "seeds": {
      "time": 0,
      "duration": 4,
      "pitch": 46,
      "velocity": 42,
      "numerator": 3,
      "denominator": 4
    },
    "sample_counts": {
      "time": 2,
      "duration": 2,
      "pitch": 2,
      "velocity": 2,
      "numerator": 2,
      "denominator": 2
    }
  },
  {
    "action": "execute_pt",
    "unit": "003",
    "bar_index": 4,
    "pt_name": "alto_flute_winds_b28_1761516221210_51e4",
    "N": 2,
    "seeds": {
      "time": 0,
      "duration": 4,
      "pitch": 73,
      "velocity": 55,
      "numerator": 3,
      "denominator": 4
    },
    "sample_counts": {
      "time": 2,
      "duration": 2,
      "pitch": 2,
      "velocity": 2,
      "numerator": 2,
      "denominator": 2
    }
  },
  {
    "action": "execute_pt",
    "unit": "003",
    "bar_index": 4,
    "pt_name": "bass_clarinet_winds_b28_1761516221210_5607",
    "N": 2,
    "seeds": {
      "time": 0,
      "duration": 4,
      "pitch": 56,
      "velocity": 53,
      "numerator": 3,
      "denominator": 4
    },
    "sample_counts": {
      "time": 2,
      "duration": 2,
      "pitch": 2,
      "velocity": 2,
      "numerator": 2,
      "denominator": 2
    }
  },
  {
    "action": "execute_pt",
    "unit": "003",
    "bar_index": 4,
    "pt_name": "trumpet_winds_b28_1761516221210_c386",
    "N": 2,
    "seeds": {
      "time": 0,
      "duration": 4,
      "pitch": 78,
      "velocity": 57,
      "numerator": 3,
      "denominator": 4
    },
    "sample_counts": {
      "time": 2,
      "duration": 2,
      "pitch": 2,
      "velocity": 2,
      "numerator": 2,
      "denominator": 2
    }
  },
  {
    "action": "execute_pt",
    "unit": "003",
    "bar_index": 4,
    "pt_name": "violin_strings_b28_1761516221210_b7e6",
    "N": 1,
    "seeds": {
      "time": 0,
      "duration": 8,
      "pitch": 64,
      "velocity": 48,
      "numerator": 3,
      "denominator": 4
    },
    "sample_counts": {
      "time": 1,
      "duration": 1,
      "pitch": 1,
      "velocity": 1,
      "numerator": 1,
      "denominator": 1
    }
  },
  {
    "action": "execute_pt",
    "unit": "003",
    "bar_index": 4,
    "pt_name": "cello_strings_b28_1761516221210_a952",
    "N": 1,
    "seeds": {
      "time": 0,
      "duration": 8,
      "pitch": 57,
      "velocity": 46,
      "numerator": 3,
      "denominator": 4
    },
    "sample_counts": {
      "time": 1,
      "duration": 1,
      "pitch": 1,
      "velocity": 1,
      "numerator": 1,
      "denominator": 1
    }
  },
  {
    "action": "execute_pt",
    "unit": "003",
    "bar_index": 4,
    "pt_name": "double_bass_strings_b28_1761516221210_dbdd",
    "N": 1,
    "seeds": {
      "time": 0,
      "duration": 8,
      "pitch": 50,
      "velocity": 42,
      "numerator": 3,
      "denominator": 4
    },
    "sample_counts": {
      "time": 1,
      "duration": 1,
      "pitch": 1,
      "velocity": 1,
      "numerator": 1,
      "denominator": 1
    }
  },
  {
    "action": "execute_pt",
    "unit": "003",
    "bar_index": 5,
    "pt_name": "alto_flute_winds_b29_1761516230168_99a5",
    "N": 1,
    "seeds": {
      "time": 0,
      "duration": 12,
      "pitch": 71,
      "velocity": 54,
      "numerator": 3,
      "denominator": 4
    },
    "sample_counts": {
      "time": 1,
      "duration": 1,
      "pitch": 1,
      "velocity": 1,
      "numerator": 1,
      "denominator": 1
    }
  },
  {
    "action": "execute_pt",
    "unit": "003",
    "bar_index": 5,
    "pt_name": "bass_clarinet_winds_b29_1761516230168_e1c6",
    "N": 1,
    "seeds": {
      "time": 0,
      "duration": 12,
      "pitch": 59,
      "velocity": 52,
      "numerator": 3,
      "denominator": 4
    },
    "sample_counts": {
      "time": 1,
      "duration": 1,
      "pitch": 1,
      "velocity": 1,
      "numerator": 1,
      "denominator": 1
    }
  },
  {
    "action": "execute_pt",
    "unit": "003",
    "bar_index": 5,
    "pt_name": "trumpet_winds_b29_1761516230168_567b",
    "N": 1,
    "seeds": {
      "time": 0,
      "duration": 12,
      "pitch": 76,
      "velocity": 56,
      "numerator": 3,
      "denominator": 4
    },
    "sample_counts": {
      "time": 1,
      "duration": 1,
      "pitch": 1,
      "velocity": 1,
      "numerator": 1,
      "denominator": 1
    }
  },
  {
    "action": "execute_pt",
    "unit": "003",
    "bar_index": 5,
    "pt_name": "violin_strings_b29_1761516230168_bab0",
    "N": 2,
    "seeds": {
      "time": 0,
      "duration": 8,
      "pitch": 66,
      "velocity": 49,
      "numerator": 3,
      "denominator": 4
    },
    "sample_counts": {
      "time": 2,
      "duration": 2,
      "pitch": 2,
      "velocity": 2,
      "numerator": 2,
      "denominator": 2
    }
  },
  {
    "action": "execute_pt",
    "unit": "003",
    "bar_index": 5,
    "pt_name": "cello_strings_b29_1761516230168_df0c",
    "N": 2,
    "seeds": {
      "time": 0,
      "duration": 8,
      "pitch": 59,
      "velocity": 47,
      "numerator": 3,
      "denominator": 4
    },
    "sample_counts": {
      "time": 2,
      "duration": 2,
      "pitch": 2,
      "velocity": 2,
      "numerator": 2,
      "denominator": 2
    }
  },
  {
    "action": "execute_pt",
    "unit": "003",
    "bar_index": 5,
    "pt_name": "double_bass_strings_b29_1761516230168_c828",
    "N": 2,
    "seeds": {
      "time": 0,
      "duration": 8,
      "pitch": 52,
      "velocity": 43,
      "numerator": 3,
      "denominator": 4
    },
    "sample_counts": {
      "time": 2,
      "duration": 2,
      "pitch": 2,
      "velocity": 2,
      "numerator": 2,
      "denominator": 2
    }
  },
  {
    "action": "execute_pt",
    "unit": "003",
    "bar_index": 6,
    "pt_name": "alto_flute_winds_b30_1761516239153_8330",
    "N": 2,
    "seeds": {
      "time": 0,
      "duration": 8,
      "pitch": 70,
      "velocity": 55,
      "numerator": 3,
      "denominator": 4
    },
    "sample_counts": {
      "time": 2,
      "duration": 2,
      "pitch": 2,
      "velocity": 2,
      "numerator": 2,
      "denominator": 2
    }
  },
  {
    "action": "execute_pt",
    "unit": "003",
    "bar_index": 6,
    "pt_name": "bass_clarinet_winds_b30_1761516239153_b720",
    "N": 2,
    "seeds": {
      "time": 0,
      "duration": 8,
      "pitch": 57,
      "velocity": 53,
      "numerator": 3,
      "denominator": 4
    },
    "sample_counts": {
      "time": 2,
      "duration": 2,
      "pitch": 2,
      "velocity": 2,
      "numerator": 2,
      "denominator": 2
    }
  },
  {
    "action": "execute_pt",
    "unit": "003",
    "bar_index": 6,
    "pt_name": "trumpet_winds_b30_1761516239153_3bbf",
    "N": 2,
    "seeds": {
      "time": 0,
      "duration": 8,
      "pitch": 76,
      "velocity": 57,
      "numerator": 3,
      "denominator": 4
    },
    "sample_counts": {
      "time": 2,
      "duration": 2,
      "pitch": 2,
      "velocity": 2,
      "numerator": 2,
      "denominator": 2
    }
  },
  {
    "action": "execute_pt",
    "unit": "003",
    "bar_index": 6,
    "pt_name": "violin_strings_b30_1761516239153_52b7",
    "N": 1,
    "seeds": {
      "time": 4,
      "duration": 8,
      "pitch": 68,
      "velocity": 48,
      "numerator": 3,
      "denominator": 4
    },
    "sample_counts": {
      "time": 1,
      "duration": 1,
      "pitch": 1,
      "velocity": 1,
      "numerator": 1,
      "denominator": 1
    }
  },
  {
    "action": "execute_pt",
    "unit": "003",
    "bar_index": 6,
    "pt_name": "cello_strings_b30_1761516239153_7124",
    "N": 1,
    "seeds": {
      "time": 4,
      "duration": 8,
      "pitch": 60,
      "velocity": 46,
      "numerator": 3,
      "denominator": 4
    },
    "sample_counts": {
      "time": 1,
      "duration": 1,
      "pitch": 1,
      "velocity": 1,
      "numerator": 1,
      "denominator": 1
    }
  },
  {
    "action": "execute_pt",
    "unit": "003",
    "bar_index": 6,
    "pt_name": "double_bass_strings_b30_1761516239153_7fea",
    "N": 1,
    "seeds": {
      "time": 4,
      "duration": 8,
      "pitch": 44,
      "velocity": 42,
      "numerator": 3,
      "denominator": 4
    },
    "sample_counts": {
      "time": 1,
      "duration": 1,
      "pitch": 1,
      "velocity": 1,
      "numerator": 1,
      "denominator": 1
    }
  },
  {
    "action": "execute_pt",
    "unit": "003",
    "bar_index": 7,
    "pt_name": "alto_flute_winds_b31_1761516248178_976b",
    "N": 1,
    "seeds": {
      "time": 4,
      "duration": 8,
      "pitch": 72,
      "velocity": 55,
      "numerator": 3,
      "denominator": 4
    },
    "sample_counts": {
      "time": 1,
      "duration": 1,
      "pitch": 1,
      "velocity": 1,
      "numerator": 1,
      "denominator": 1
    }
  },
  {
    "action": "execute_pt",
    "unit": "003",
    "bar_index": 7,
    "pt_name": "bass_clarinet_winds_b31_1761516248178_2b06",
    "N": 1,
    "seeds": {
      "time": 4,
      "duration": 8,
      "pitch": 59,
      "velocity": 53,
      "numerator": 3,
      "denominator": 4
    },
    "sample_counts": {
      "time": 1,
      "duration": 1,
      "pitch": 1,
      "velocity": 1,
      "numerator": 1,
      "denominator": 1
    }
  },
  {
    "action": "execute_pt",
    "unit": "003",
    "bar_index": 7,
    "pt_name": "trumpet_winds_b31_1761516248178_cb01",
    "N": 1,
    "seeds": {
      "time": 4,
      "duration": 8,
      "pitch": 79,
      "velocity": 57,
      "numerator": 3,
      "denominator": 4
    },
    "sample_counts": {
      "time": 1,
      "duration": 1,
      "pitch": 1,
      "velocity": 1,
      "numerator": 1,
      "denominator": 1
    }
  },
  {
    "action": "execute_pt",
    "unit": "003",
    "bar_index": 7,
    "pt_name": "violin_strings_b31_1761516248178_1618",
    "N": 1,
    "seeds": {
      "time": 0,
      "duration": 12,
      "pitch": 69,
      "velocity": 48,
      "numerator": 3,
      "denominator": 4
    },
    "sample_counts": {
      "time": 1,
      "duration": 1,
      "pitch": 1,
      "velocity": 1,
      "numerator": 1,
      "denominator": 1
    }
  },
  {
    "action": "execute_pt",
    "unit": "003",
    "bar_index": 7,
    "pt_name": "cello_strings_b31_1761516248178_8727",
    "N": 1,
    "seeds": {
      "time": 0,
      "duration": 12,
      "pitch": 59,
      "velocity": 46,
      "numerator": 3,
      "denominator": 4
    },
    "sample_counts": {
      "time": 1,
      "duration": 1,
      "pitch": 1,
      "velocity": 1,
      "numerator": 1,
      "denominator": 1
    }
  },
  {
    "action": "execute_pt",
    "unit": "003",
    "bar_index": 7,
    "pt_name": "double_bass_strings_b31_1761516248178_bd66",
    "N": 1,
    "seeds": {
      "time": 0,
      "duration": 12,
      "pitch": 43,
      "velocity": 42,
      "numerator": 3,
      "denominator": 4
    },
    "sample_counts": {
      "time": 1,
      "duration": 1,
      "pitch": 1,
      "velocity": 1,
      "numerator": 1,
      "denominator": 1
    }
  },
  {
    "action": "execute_pt",
    "unit": "003",
    "bar_index": 8,
    "pt_name": "alto_flute_winds_b32_1761516266722_0d29",
    "N": 2,
    "seeds": {
      "time": 0,
      "duration": 8,
      "pitch": 74,
      "velocity": 56,
      "numerator": 3,
      "denominator": 4
    },
    "sample_counts": {
      "time": 2,
      "duration": 2,
      "pitch": 2,
      "velocity": 2,
      "numerator": 2,
      "denominator": 2
    }
  },
  {
    "action": "execute_pt",
    "unit": "003",
    "bar_index": 8,
    "pt_name": "bass_clarinet_winds_b32_1761516266722_1f1b",
    "N": 2,
    "seeds": {
      "time": 0,
      "duration": 8,
      "pitch": 60,
      "velocity": 54,
      "numerator": 3,
      "denominator": 4
    },
    "sample_counts": {
      "time": 2,
      "duration": 2,
      "pitch": 2,
      "velocity": 2,
      "numerator": 2,
      "denominator": 2
    }
  },
  {
    "action": "execute_pt",
    "unit": "003",
    "bar_index": 8,
    "pt_name": "trumpet_winds_b32_1761516266722_436c",
    "N": 2,
    "seeds": {
      "time": 0,
      "duration": 8,
      "pitch": 79,
      "velocity": 58,
      "numerator": 3,
      "denominator": 4
    },
    "sample_counts": {
      "time": 2,
      "duration": 2,
      "pitch": 2,
      "velocity": 2,
      "numerator": 2,
      "denominator": 2
    }
  },
  {
    "action": "execute_pt",
    "unit": "003",
    "bar_index": 8,
    "pt_name": "violin_strings_b32_1761516266722_7aad",
    "N": 2,
    "seeds": {
      "time": 0,
      "duration": 8,
      "pitch": 71,
      "velocity": 49,
      "numerator": 3,
      "denominator": 4
    },
    "sample_counts": {
      "time": 2,
      "duration": 2,
      "pitch": 2,
      "velocity": 2,
      "numerator": 2,
      "denominator": 2
    }
  },
  {
    "action": "execute_pt",
    "unit": "003",
    "bar_index": 8,
    "pt_name": "cello_strings_b32_1761516266722_98bc",
    "N": 2,
    "seeds": {
      "time": 0,
      "duration": 8,
      "pitch": 62,
      "velocity": 47,
      "numerator": 3,
      "denominator": 4
    },
    "sample_counts": {
      "time": 2,
      "duration": 2,
      "pitch": 2,
      "velocity": 2,
      "numerator": 2,
      "denominator": 2
    }
  },
  {
    "action": "execute_pt",
    "unit": "003",
    "bar_index": 8,
    "pt_name": "double_bass_strings_b32_1761516266722_4cac",
    "N": 2,
    "seeds": {
      "time": 0,
      "duration": 8,
      "pitch": 47,
      "velocity": 43,
      "numerator": 3,
      "denominator": 4
    },
    "sample_counts": {
      "time": 2,
      "duration": 2,
      "pitch": 2,
      "velocity": 2,
      "numerator": 2,
      "denominator": 2
    }
  },
  {
    "action": "execute_pt",
    "unit": "003",
    "bar_index": 9,
    "pt_name": "alto_flute_winds_b33_1761516275294_610a",
    "N": 1,
    "seeds": {
      "time": 0,
      "duration": 12,
      "pitch": 71,
      "velocity": 53,
      "numerator": 3,
      "denominator": 4
    },
    "sample_counts": {
      "time": 1,
      "duration": 1,
      "pitch": 1,
      "velocity": 1,
      "numerator": 1,
      "denominator": 1
    }
  },
  {
    "action": "execute_pt",
    "unit": "003",
    "bar_index": 9,
    "pt_name": "bass_clarinet_winds_b33_1761516275294_ccc4",
    "N": 1,
    "seeds": {
      "time": 0,
      "duration": 12,
      "pitch": 55,
      "velocity": 51,
      "numerator": 3,
      "denominator": 4
    },
    "sample_counts": {
      "time": 1,
      "duration": 1,
      "pitch": 1,
      "velocity": 1,
      "numerator": 1,
      "denominator": 1
    }
  },
  {
    "action": "execute_pt",
    "unit": "003",
    "bar_index": 9,
    "pt_name": "trumpet_winds_b33_1761516275294_7ae2",
    "N": 1,
    "seeds": {
      "time": 0,
      "duration": 12,
      "pitch": 76,
      "velocity": 55,
      "numerator": 3,
      "denominator": 4
    },
    "sample_counts": {
      "time": 1,
      "duration": 1,
      "pitch": 1,
      "velocity": 1,
      "numerator": 1,
      "denominator": 1
    }
  },
  {
    "action": "execute_pt",
    "unit": "003",
    "bar_index": 9,
    "pt_name": "violin_strings_b33_1761516275294_bf06",
    "N": 2,
    "seeds": {
      "time": 0,
      "duration": 4,
      "pitch": 67,
      "velocity": 48,
      "numerator": 3,
      "denominator": 4
    },
    "sample_counts": {
      "time": 2,
      "duration": 2,
      "pitch": 2,
      "velocity": 2,
      "numerator": 2,
      "denominator": 2
    }
  },
  {
    "action": "execute_pt",
    "unit": "003",
    "bar_index": 9,
    "pt_name": "cello_strings_b33_1761516275295_b933",
    "N": 2,
    "seeds": {
      "time": 0,
      "duration": 4,
      "pitch": 60,
      "velocity": 46,
      "numerator": 3,
      "denominator": 4
    },
    "sample_counts": {
      "time": 2,
      "duration": 2,
      "pitch": 2,
      "velocity": 2,
      "numerator": 2,
      "denominator": 2
    }
  },
  {
    "action": "execute_pt",
    "unit": "003",
    "bar_index": 9,
    "pt_name": "double_bass_strings_b33_1761516275295_a263",
    "N": 2,
    "seeds": {
      "time": 0,
      "duration": 4,
      "pitch": 48,
      "velocity": 42,
      "numerator": 3,
      "denominator": 4
    },
    "sample_counts": {
      "time": 2,
      "duration": 2,
      "pitch": 2,
      "velocity": 2,
      "numerator": 2,
      "denominator": 2
    }
  },
  {
    "action": "execute_pt",
    "unit": "003",
    "bar_index": 10,
    "pt_name": "alto_flute_winds_b34_1761516283398_3216",
    "N": 2,
    "seeds": {
      "time": 0,
      "duration": 4,
      "pitch": 70,
      "velocity": 54,
      "numerator": 3,
      "denominator": 4
    },
    "sample_counts": {
      "time": 2,
      "duration": 2,
      "pitch": 2,
      "velocity": 2,
      "numerator": 2,
      "denominator": 2
    }
  },
  {
    "action": "execute_pt",
    "unit": "003",
    "bar_index": 10,
    "pt_name": "bass_clarinet_winds_b34_1761516283398_90cc",
    "N": 2,
    "seeds": {
      "time": 0,
      "duration": 4,
      "pitch": 53,
      "velocity": 52,
      "numerator": 3,
      "denominator": 4
    },
    "sample_counts": {
      "time": 2,
      "duration": 2,
      "pitch": 2,
      "velocity": 2,
      "numerator": 2,
      "denominator": 2
    }
  },
  {
    "action": "execute_pt",
    "unit": "003",
    "bar_index": 10,
    "pt_name": "trumpet_winds_b34_1761516283398_2935",
    "N": 2,
    "seeds": {
      "time": 0,
      "duration": 4,
      "pitch": 74,
      "velocity": 56,
      "numerator": 3,
      "denominator": 4
    },
    "sample_counts": {
      "time": 2,
      "duration": 2,
      "pitch": 2,
      "velocity": 2,
      "numerator": 2,
      "denominator": 2
    }
  },
  {
    "action": "execute_pt",
    "unit": "003",
    "bar_index": 10,
    "pt_name": "violin_strings_b34_1761516283398_e229",
    "N": 1,
    "seeds": {
      "time": 0,
      "duration": 12,
      "pitch": 63,
      "velocity": 49,
      "numerator": 3,
      "denominator": 4
    },
    "sample_counts": {
      "time": 1,
      "duration": 1,
      "pitch": 1,
      "velocity": 1,
      "numerator": 1,
      "denominator": 1
    }
  },
  {
    "action": "execute_pt",
    "unit": "003",
    "bar_index": 10,
    "pt_name": "cello_strings_b34_1761516283398_ecae",
    "N": 1,
    "seeds": {
      "time": 0,
      "duration": 12,
      "pitch": 58,
      "velocity": 47,
      "numerator": 3,
      "denominator": 4
    },
    "sample_counts": {
      "time": 1,
      "duration": 1,
      "pitch": 1,
      "velocity": 1,
      "numerator": 1,
      "denominator": 1
    }
  },
  {
    "action": "execute_pt",
    "unit": "003",
    "bar_index": 10,
    "pt_name": "double_bass_strings_b34_1761516283398_639f",
    "N": 1,
    "seeds": {
      "time": 0,
      "duration": 12,
      "pitch": 41,
      "velocity": 43,
      "numerator": 3,
      "denominator": 4
    },
    "sample_counts": {
      "time": 1,
      "duration": 1,
      "pitch": 1,
      "velocity": 1,
      "numerator": 1,
      "denominator": 1
    }
  },
  {
    "action": "execute_pt",
    "unit": "003",
    "bar_index": 11,
    "pt_name": "alto_flute_winds_b35_1761516292222_b37a",
    "N": 1,
    "seeds": {
      "time": 0,
      "duration": 8,
      "pitch": 69,
      "velocity": 53,
      "numerator": 3,
      "denominator": 4
    },
    "sample_counts": {
      "time": 1,
      "duration": 1,
      "pitch": 1,
      "velocity": 1,
      "numerator": 1,
      "denominator": 1
    }
  },
  {
    "action": "execute_pt",
    "unit": "003",
    "bar_index": 11,
    "pt_name": "bass_clarinet_winds_b35_1761516292222_4b40",
    "N": 1,
    "seeds": {
      "time": 0,
      "duration": 8,
      "pitch": 52,
      "velocity": 51,
      "numerator": 3,
      "denominator": 4
    },
    "sample_counts": {
      "time": 1,
      "duration": 1,
      "pitch": 1,
      "velocity": 1,
      "numerator": 1,
      "denominator": 1
    }
  },
  {
    "action": "execute_pt",
    "unit": "003",
    "bar_index": 11,
    "pt_name": "trumpet_winds_b35_1761516292222_3e01",
    "N": 1,
    "seeds": {
      "time": 0,
      "duration": 8,
      "pitch": 74,
      "velocity": 55,
      "numerator": 3,
      "denominator": 4
    },
    "sample_counts": {
      "time": 1,
      "duration": 1,
      "pitch": 1,
      "velocity": 1,
      "numerator": 1,
      "denominator": 1
    }
  },
  {
    "action": "execute_pt",
    "unit": "003",
    "bar_index": 11,
    "pt_name": "violin_strings_b35_1761516292222_d9da",
    "N": 1,
    "seeds": {
      "time": 0,
      "duration": 8,
      "pitch": 72,
      "velocity": 48,
      "numerator": 3,
      "denominator": 4
    },
    "sample_counts": {
      "time": 1,
      "duration": 1,
      "pitch": 1,
      "velocity": 1,
      "numerator": 1,
      "denominator": 1
    }
  },
  {
    "action": "execute_pt",
    "unit": "003",
    "bar_index": 11,
    "pt_name": "cello_strings_b35_1761516292222_d20c",
    "N": 1,
    "seeds": {
      "time": 0,
      "duration": 8,
      "pitch": 65,
      "velocity": 46,
      "numerator": 3,
      "denominator": 4
    },
    "sample_counts": {
      "time": 1,
      "duration": 1,
      "pitch": 1,
      "velocity": 1,
      "numerator": 1,
      "denominator": 1
    }
  },
  {
    "action": "execute_pt",
    "unit": "003",
    "bar_index": 11,
    "pt_name": "double_bass_strings_b35_1761516292222_b472",
    "N": 1,
    "seeds": {
      "time": 0,
      "duration": 8,
      "pitch": 53,
      "velocity": 42,
      "numerator": 3,
      "denominator": 4
    },
    "sample_counts": {
      "time": 1,
      "duration": 1,
      "pitch": 1,
      "velocity": 1,
      "numerator": 1,
      "denominator": 1
    }
  },
  {
    "action": "execute_pt",
    "unit": "003",
    "bar_index": 12,
    "pt_name": "alto_flute_winds_b36_1761516300761_adb7",
    "N": 1,
    "seeds": {
      "time": 0,
      "duration": 12,
      "pitch": 71,
      "velocity": 52,
      "numerator": 3,
      "denominator": 4
    },
    "sample_counts": {
      "time": 1,
      "duration": 1,
      "pitch": 1,
      "velocity": 1,
      "numerator": 1,
      "denominator": 1
    }
  },
  {
    "action": "execute_pt",
    "unit": "003",
    "bar_index": 12,
    "pt_name": "bass_clarinet_winds_b36_1761516300761_3772",
    "N": 1,
    "seeds": {
      "time": 0,
      "duration": 12,
      "pitch": 55,
      "velocity": 50,
      "numerator": 3,
      "denominator": 4
    },
    "sample_counts": {
      "time": 1,
      "duration": 1,
      "pitch": 1,
      "velocity": 1,
      "numerator": 1,
      "denominator": 1
    }
  },
  {
    "action": "execute_pt",
    "unit": "003",
    "bar_index": 12,
    "pt_name": "trumpet_winds_b36_1761516300761_2960",
    "N": 1,
    "seeds": {
      "time": 0,
      "duration": 12,
      "pitch": 76,
      "velocity": 54,
      "numerator": 3,
      "denominator": 4
    },
    "sample_counts": {
      "time": 1,
      "duration": 1,
      "pitch": 1,
      "velocity": 1,
      "numerator": 1,
      "denominator": 1
    }
  },
  {
    "action": "execute_pt",
    "unit": "003",
    "bar_index": 12,
    "pt_name": "violin_strings_b36_1761516300761_ec8d",
    "N": 2,
    "seeds": {
      "time": 0,
      "duration": 4,
      "pitch": 62,
      "velocity": 48,
      "numerator": 3,
      "denominator": 4
    },
    "sample_counts": {
      "time": 2,
      "duration": 2,
      "pitch": 2,
      "velocity": 2,
      "numerator": 2,
      "denominator": 2
    }
  },
  {
    "action": "execute_pt",
    "unit": "003",
    "bar_index": 12,
    "pt_name": "cello_strings_b36_1761516300761_05be",
    "N": 2,
    "seeds": {
      "time": 0,
      "duration": 4,
      "pitch": 57,
      "velocity": 46,
      "numerator": 3,
      "denominator": 4
    },
    "sample_counts": {
      "time": 2,
      "duration": 2,
      "pitch": 2,
      "velocity": 2,
      "numerator": 2,
      "denominator": 2
    }
  },
  {
    "action": "execute_pt",
    "unit": "003",
    "bar_index": 12,
    "pt_name": "double_bass_strings_b36_1761516300761_2547",
    "N": 2,
    "seeds": {
      "time": 0,
      "duration": 4,
      "pitch": 50,
      "velocity": 42,
      "numerator": 3,
      "denominator": 4
    },
    "sample_counts": {
      "time": 2,
      "duration": 2,
      "pitch": 2,
      "velocity": 2,
      "numerator": 2,
      "denominator": 2
    }
  },
  {
    "action": "execute_pt",
    "unit": "003",
    "bar_index": 13,
    "pt_name": "alto_flute_winds_b30_1761516310098_cfc8",
    "N": 1,
    "seeds": {
      "time": 0,
      "duration": 1,
      "pitch": 60,
      "velocity": 1,
      "numerator": 3,
      "denominator": 4
    },
    "sample_counts": {
      "time": 1,
      "duration": 1,
      "pitch": 1,
      "velocity": 1,
      "numerator": 1,
      "denominator": 1
    }
  },
  {
    "action": "execute_pt",
    "unit": "003",
    "bar_index": 13,
    "pt_name": "bass_clarinet_winds_b30_1761516310098_bf8a",
    "N": 1,
    "seeds": {
      "time": 0,
      "duration": 1,
      "pitch": 60,
      "velocity": 1,
      "numerator": 3,
      "denominator": 4
    },
    "sample_counts": {
      "time": 1,
      "duration": 1,
      "pitch": 1,
      "velocity": 1,
      "numerator": 1,
      "denominator": 1
    }
  },
  {
    "action": "execute_pt",
    "unit": "003",
    "bar_index": 13,
    "pt_name": "trumpet_winds_b30_1761516310098_b07a",
    "N": 1,
    "seeds": {
      "time": 0,
      "duration": 1,
      "pitch": 60,
      "velocity": 1,
      "numerator": 3,
      "denominator": 4
    },
    "sample_counts": {
      "time": 1,
      "duration": 1,
      "pitch": 1,
      "velocity": 1,
      "numerator": 1,
      "denominator": 1
    }
  },
  {
    "action": "execute_pt",
    "unit": "003",
    "bar_index": 13,
    "pt_name": "violin_strings_b30_1761516310098_8943",
    "N": 1,
    "seeds": {
      "time": 0,
      "duration": 1,
      "pitch": 60,
      "velocity": 1,
      "numerator": 3,
      "denominator": 4
    },
    "sample_counts": {
      "time": 1,
      "duration": 1,
      "pitch": 1,
      "velocity": 1,
      "numerator": 1,
      "denominator": 1
    }
  },
  {
    "action": "execute_pt",
    "unit": "003",
    "bar_index": 13,
    "pt_name": "cello_strings_b30_1761516310098_d6b1",
    "N": 1,
    "seeds": {
      "time": 0,
      "duration": 1,
      "pitch": 60,
      "velocity": 1,
      "numerator": 3,
      "denominator": 4
    },
    "sample_counts": {
      "time": 1,
      "duration": 1,
      "pitch": 1,
      "velocity": 1,
      "numerator": 1,
      "denominator": 1
    }
  },
  {
    "action": "execute_pt",
    "unit": "003",
    "bar_index": 13,
    "pt_name": "double_bass_strings_b30_1761516310098_40ba",
    "N": 1,
    "seeds": {
      "time": 0,
      "duration": 1,
      "pitch": 60,
      "velocity": 1,
      "numerator": 3,
      "denominator": 4
    },
    "sample_counts": {
      "time": 1,
      "duration": 1,
      "pitch": 1,
      "velocity": 1,
      "numerator": 1,
      "denominator": 1
    }
  },
  {
    "action": "execute_pt",
    "unit": "004",
    "bar_index": 1,
    "pt_name": "alto_flute_winds_b37_1761516852638_3975",
    "N": 2,
    "seeds": {
      "time": 0,
      "duration": 8,
      "pitch": 69,
      "velocity": 56,
      "numerator": 3,
      "denominator": 4
    },
    "sample_counts": {
      "time": 2,
      "duration": 2,
      "pitch": 2,
      "velocity": 2,
      "numerator": 2,
      "denominator": 2
    }
  },
  {
    "action": "execute_pt",
    "unit": "004",
    "bar_index": 1,
    "pt_name": "bass_clarinet_winds_b37_1761516852638_0806",
    "N": 2,
    "seeds": {
      "time": 0,
      "duration": 8,
      "pitch": 52,
      "velocity": 54,
      "numerator": 3,
      "denominator": 4
    },
    "sample_counts": {
      "time": 2,
      "duration": 2,
      "pitch": 2,
      "velocity": 2,
      "numerator": 2,
      "denominator": 2
    }
  },
  {
    "action": "execute_pt",
    "unit": "004",
    "bar_index": 1,
    "pt_name": "trumpet_winds_b37_1761516852638_5d2c",
    "N": 2,
    "seeds": {
      "time": 0,
      "duration": 8,
      "pitch": 74,
      "velocity": 58,
      "numerator": 3,
      "denominator": 4
    },
    "sample_counts": {
      "time": 2,
      "duration": 2,
      "pitch": 2,
      "velocity": 2,
      "numerator": 2,
      "denominator": 2
    }
  },
  {
    "action": "execute_pt",
    "unit": "004",
    "bar_index": 1,
    "pt_name": "violin_strings_b37_1761516852638_4483",
    "N": 2,
    "seeds": {
      "time": 0,
      "duration": 8,
      "pitch": 66,
      "velocity": 50,
      "numerator": 3,
      "denominator": 4
    },
    "sample_counts": {
      "time": 2,
      "duration": 2,
      "pitch": 2,
      "velocity": 2,
      "numerator": 2,
      "denominator": 2
    }
  },
  {
    "action": "execute_pt",
    "unit": "004",
    "bar_index": 1,
    "pt_name": "cello_strings_b37_1761516852638_eeb2",
    "N": 2,
    "seeds": {
      "time": 0,
      "duration": 8,
      "pitch": 59,
      "velocity": 48,
      "numerator": 3,
      "denominator": 4
    },
    "sample_counts": {
      "time": 2,
      "duration": 2,
      "pitch": 2,
      "velocity": 2,
      "numerator": 2,
      "denominator": 2
    }
  },
  {
    "action": "execute_pt",
    "unit": "004",
    "bar_index": 1,
    "pt_name": "double_bass_strings_b37_1761516852638_eec9",
    "N": 2,
    "seeds": {
      "time": 0,
      "duration": 8,
      "pitch": 52,
      "velocity": 44,
      "numerator": 3,
      "denominator": 4
    },
    "sample_counts": {
      "time": 2,
      "duration": 2,
      "pitch": 2,
      "velocity": 2,
      "numerator": 2,
      "denominator": 2
    }
  },
  {
    "action": "execute_pt",
    "unit": "004",
    "bar_index": 2,
    "pt_name": "alto_flute_winds_b38_1761516861550_e213",
    "N": 1,
    "seeds": {
      "time": 0,
      "duration": 12,
      "pitch": 76,
      "velocity": 55,
      "numerator": 3,
      "denominator": 4
    },
    "sample_counts": {
      "time": 1,
      "duration": 1,
      "pitch": 1,
      "velocity": 1,
      "numerator": 1,
      "denominator": 1
    }
  },
  {
    "action": "execute_pt",
    "unit": "004",
    "bar_index": 2,
    "pt_name": "bass_clarinet_winds_b38_1761516861550_bf68",
    "N": 1,
    "seeds": {
      "time": 0,
      "duration": 12,
      "pitch": 55,
      "velocity": 53,
      "numerator": 3,
      "denominator": 4
    },
    "sample_counts": {
      "time": 1,
      "duration": 1,
      "pitch": 1,
      "velocity": 1,
      "numerator": 1,
      "denominator": 1
    }
  },
  {
    "action": "execute_pt",
    "unit": "004",
    "bar_index": 2,
    "pt_name": "trumpet_winds_b38_1761516861550_33af",
    "N": 1,
    "seeds": {
      "time": 0,
      "duration": 12,
      "pitch": 71,
      "velocity": 57,
      "numerator": 3,
      "denominator": 4
    },
    "sample_counts": {
      "time": 1,
      "duration": 1,
      "pitch": 1,
      "velocity": 1,
      "numerator": 1,
      "denominator": 1
    }
  },
  {
    "action": "execute_pt",
    "unit": "004",
    "bar_index": 2,
    "pt_name": "violin_strings_b38_1761516861550_f8f8",
    "N": 1,
    "seeds": {
      "time": 0,
      "duration": 12,
      "pitch": 69,
      "velocity": 49,
      "numerator": 3,
      "denominator": 4
    },
    "sample_counts": {
      "time": 1,
      "duration": 1,
      "pitch": 1,
      "velocity": 1,
      "numerator": 1,
      "denominator": 1
    }
  },
  {
    "action": "execute_pt",
    "unit": "004",
    "bar_index": 2,
    "pt_name": "cello_strings_b38_1761516861550_e71e",
    "N": 1,
    "seeds": {
      "time": 0,
      "duration": 12,
      "pitch": 57,
      "velocity": 47,
      "numerator": 3,
      "denominator": 4
    },
    "sample_counts": {
      "time": 1,
      "duration": 1,
      "pitch": 1,
      "velocity": 1,
      "numerator": 1,
      "denominator": 1
    }
  },
  {
    "action": "execute_pt",
    "unit": "004",
    "bar_index": 2,
    "pt_name": "double_bass_strings_b38_1761516861550_8531",
    "N": 1,
    "seeds": {
      "time": 0,
      "duration": 12,
      "pitch": 45,
      "velocity": 43,
      "numerator": 3,
      "denominator": 4
    },
    "sample_counts": {
      "time": 1,
      "duration": 1,
      "pitch": 1,
      "velocity": 1,
      "numerator": 1,
      "denominator": 1
    }
  },
  {
    "action": "execute_pt",
    "unit": "004",
    "bar_index": 3,
    "pt_name": "alto_flute_winds_b39_1761516869768_ee34",
    "N": 2,
    "seeds": {
      "time": 0,
      "duration": 4,
      "pitch": 67,
      "velocity": 56,
      "numerator": 3,
      "denominator": 4
    },
    "sample_counts": {
      "time": 2,
      "duration": 2,
      "pitch": 2,
      "velocity": 2,
      "numerator": 2,
      "denominator": 2
    }
  },
  {
    "action": "execute_pt",
    "unit": "004",
    "bar_index": 3,
    "pt_name": "bass_clarinet_winds_b39_1761516869768_93c8",
    "N": 2,
    "seeds": {
      "time": 0,
      "duration": 4,
      "pitch": 48,
      "velocity": 54,
      "numerator": 3,
      "denominator": 4
    },
    "sample_counts": {
      "time": 2,
      "duration": 2,
      "pitch": 2,
      "velocity": 2,
      "numerator": 2,
      "denominator": 2
    }
  },
  {
    "action": "execute_pt",
    "unit": "004",
    "bar_index": 3,
    "pt_name": "trumpet_winds_b39_1761516869768_51bf",
    "N": 2,
    "seeds": {
      "time": 0,
      "duration": 4,
      "pitch": 74,
      "velocity": 58,
      "numerator": 3,
      "denominator": 4
    },
    "sample_counts": {
      "time": 2,
      "duration": 2,
      "pitch": 2,
      "velocity": 2,
      "numerator": 2,
      "denominator": 2
    }
  },
  {
    "action": "execute_pt",
    "unit": "004",
    "bar_index": 3,
    "pt_name": "violin_strings_b39_1761516869768_9b46",
    "N": 2,
    "seeds": {
      "time": 0,
      "duration": 4,
      "pitch": 67,
      "velocity": 48,
      "numerator": 3,
      "denominator": 4
    },
    "sample_counts": {
      "time": 2,
      "duration": 2,
      "pitch": 2,
      "velocity": 2,
      "numerator": 2,
      "denominator": 2
    }
  },
  {
    "action": "execute_pt",
    "unit": "004",
    "bar_index": 3,
    "pt_name": "cello_strings_b39_1761516869768_b47d",
    "N": 2,
    "seeds": {
      "time": 0,
      "duration": 4,
      "pitch": 62,
      "velocity": 46,
      "numerator": 3,
      "denominator": 4
    },
    "sample_counts": {
      "time": 2,
      "duration": 2,
      "pitch": 2,
      "velocity": 2,
      "numerator": 2,
      "denominator": 2
    }
  },
  {
    "action": "execute_pt",
    "unit": "004",
    "bar_index": 3,
    "pt_name": "double_bass_strings_b39_1761516869768_a466",
    "N": 2,
    "seeds": {
      "time": 0,
      "duration": 4,
      "pitch": 46,
      "velocity": 42,
      "numerator": 3,
      "denominator": 4
    },
    "sample_counts": {
      "time": 2,
      "duration": 2,
      "pitch": 2,
      "velocity": 2,
      "numerator": 2,
      "denominator": 2
    }
  },
  {
    "action": "execute_pt",
    "unit": "004",
    "bar_index": 4,
    "pt_name": "alto_flute_winds_b40_1761516877996_8f8f",
    "N": 1,
    "seeds": {
      "time": 0,
      "duration": 8,
      "pitch": 78,
      "velocity": 55,
      "numerator": 3,
      "denominator": 4
    },
    "sample_counts": {
      "time": 1,
      "duration": 1,
      "pitch": 1,
      "velocity": 1,
      "numerator": 1,
      "denominator": 1
    }
  },
  {
    "action": "execute_pt",
    "unit": "004",
    "bar_index": 4,
    "pt_name": "bass_clarinet_winds_b40_1761516877996_9c89",
    "N": 1,
    "seeds": {
      "time": 0,
      "duration": 8,
      "pitch": 46,
      "velocity": 53,
      "numerator": 3,
      "denominator": 4
    },
    "sample_counts": {
      "time": 1,
      "duration": 1,
      "pitch": 1,
      "velocity": 1,
      "numerator": 1,
      "denominator": 1
    }
  },
  {
    "action": "execute_pt",
    "unit": "004",
    "bar_index": 4,
    "pt_name": "trumpet_winds_b40_1761516877996_37ec",
    "N": 1,
    "seeds": {
      "time": 0,
      "duration": 8,
      "pitch": 72,
      "velocity": 57,
      "numerator": 3,
      "denominator": 4
    },
    "sample_counts": {
      "time": 1,
      "duration": 1,
      "pitch": 1,
      "velocity": 1,
      "numerator": 1,
      "denominator": 1
    }
  },
  {
    "action": "execute_pt",
    "unit": "004",
    "bar_index": 4,
    "pt_name": "violin_strings_b40_1761516877996_8cb5",
    "N": 1,
    "seeds": {
      "time": 0,
      "duration": 8,
      "pitch": 64,
      "velocity": 48,
      "numerator": 3,
      "denominator": 4
    },
    "sample_counts": {
      "time": 1,
      "duration": 1,
      "pitch": 1,
      "velocity": 1,
      "numerator": 1,
      "denominator": 1
    }
  },
  {
    "action": "execute_pt",
    "unit": "004",
    "bar_index": 4,
    "pt_name": "cello_strings_b40_1761516877996_375f",
    "N": 1,
    "seeds": {
      "time": 0,
      "duration": 8,
      "pitch": 57,
      "velocity": 46,
      "numerator": 3,
      "denominator": 4
    },
    "sample_counts": {
      "time": 1,
      "duration": 1,
      "pitch": 1,
      "velocity": 1,
      "numerator": 1,
      "denominator": 1
    }
  },
  {
    "action": "execute_pt",
    "unit": "004",
    "bar_index": 4,
    "pt_name": "double_bass_strings_b40_1761516877996_885c",
    "N": 1,
    "seeds": {
      "time": 0,
      "duration": 8,
      "pitch": 50,
      "velocity": 42,
      "numerator": 3,
      "denominator": 4
    },
    "sample_counts": {
      "time": 1,
      "duration": 1,
      "pitch": 1,
      "velocity": 1,
      "numerator": 1,
      "denominator": 1
    }
  },
  {
    "action": "execute_pt",
    "unit": "004",
    "bar_index": 5,
    "pt_name": "alto_flute_winds_b41_1761516886303_6cc4",
    "N": 2,
    "seeds": {
      "time": 0,
      "duration": 8,
      "pitch": 73,
      "velocity": 56,
      "numerator": 3,
      "denominator": 4
    },
    "sample_counts": {
      "time": 2,
      "duration": 2,
      "pitch": 2,
      "velocity": 2,
      "numerator": 2,
      "denominator": 2
    }
  },
  {
    "action": "execute_pt",
    "unit": "004",
    "bar_index": 5,
    "pt_name": "bass_clarinet_winds_b41_1761516886303_23c7",
    "N": 2,
    "seeds": {
      "time": 0,
      "duration": 8,
      "pitch": 44,
      "velocity": 54,
      "numerator": 3,
      "denominator": 4
    },
    "sample_counts": {
      "time": 2,
      "duration": 2,
      "pitch": 2,
      "velocity": 2,
      "numerator": 2,
      "denominator": 2
    }
  },
  {
    "action": "execute_pt",
    "unit": "004",
    "bar_index": 5,
    "pt_name": "trumpet_winds_b41_1761516886303_e6ab",
    "N": 2,
    "seeds": {
      "time": 0,
      "duration": 8,
      "pitch": 78,
      "velocity": 58,
      "numerator": 3,
      "denominator": 4
    },
    "sample_counts": {
      "time": 2,
      "duration": 2,
      "pitch": 2,
      "velocity": 2,
      "numerator": 2,
      "denominator": 2
    }
  },
  {
    "action": "execute_pt",
    "unit": "004",
    "bar_index": 5,
    "pt_name": "violin_strings_b41_1761516886303_514c",
    "N": 2,
    "seeds": {
      "time": 0,
      "duration": 8,
      "pitch": 66,
      "velocity": 49,
      "numerator": 3,
      "denominator": 4
    },
    "sample_counts": {
      "time": 2,
      "duration": 2,
      "pitch": 2,
      "velocity": 2,
      "numerator": 2,
      "denominator": 2
    }
  },
  {
    "action": "execute_pt",
    "unit": "004",
    "bar_index": 5,
    "pt_name": "cello_strings_b41_1761516886303_62fe",
    "N": 2,
    "seeds": {
      "time": 0,
      "duration": 8,
      "pitch": 59,
      "velocity": 47,
      "numerator": 3,
      "denominator": 4
    },
    "sample_counts": {
      "time": 2,
      "duration": 2,
      "pitch": 2,
      "velocity": 2,
      "numerator": 2,
      "denominator": 2
    }
  },
  {
    "action": "execute_pt",
    "unit": "004",
    "bar_index": 5,
    "pt_name": "double_bass_strings_b41_1761516886303_b87b",
    "N": 2,
    "seeds": {
      "time": 0,
      "duration": 8,
      "pitch": 52,
      "velocity": 43,
      "numerator": 3,
      "denominator": 4
    },
    "sample_counts": {
      "time": 2,
      "duration": 2,
      "pitch": 2,
      "velocity": 2,
      "numerator": 2,
      "denominator": 2
    }
  },
  {
    "action": "execute_pt",
    "unit": "004",
    "bar_index": 6,
    "pt_name": "alto_flute_winds_b42_1761516894464_d7a3",
    "N": 1,
    "seeds": {
      "time": 4,
      "duration": 8,
      "pitch": 73,
      "velocity": 55,
      "numerator": 3,
      "denominator": 4
    },
    "sample_counts": {
      "time": 1,
      "duration": 1,
      "pitch": 1,
      "velocity": 1,
      "numerator": 1,
      "denominator": 1
    }
  },
  {
    "action": "execute_pt",
    "unit": "004",
    "bar_index": 6,
    "pt_name": "bass_clarinet_winds_b42_1761516894464_4acd",
    "N": 1,
    "seeds": {
      "time": 4,
      "duration": 8,
      "pitch": 52,
      "velocity": 53,
      "numerator": 3,
      "denominator": 4
    },
    "sample_counts": {
      "time": 1,
      "duration": 1,
      "pitch": 1,
      "velocity": 1,
      "numerator": 1,
      "denominator": 1
    }
  },
  {
    "action": "execute_pt",
    "unit": "004",
    "bar_index": 6,
    "pt_name": "trumpet_winds_b42_1761516894464_e65d",
    "N": 1,
    "seeds": {
      "time": 4,
      "duration": 8,
      "pitch": 67,
      "velocity": 57,
      "numerator": 3,
      "denominator": 4
    },
    "sample_counts": {
      "time": 1,
      "duration": 1,
      "pitch": 1,
      "velocity": 1,
      "numerator": 1,
      "denominator": 1
    }
  },
  {
    "action": "execute_pt",
    "unit": "004",
    "bar_index": 6,
    "pt_name": "violin_strings_b42_1761516894464_a5e2",
    "N": 1,
    "seeds": {
      "time": 4,
      "duration": 8,
      "pitch": 68,
      "velocity": 48,
      "numerator": 3,
      "denominator": 4
    },
    "sample_counts": {
      "time": 1,
      "duration": 1,
      "pitch": 1,
      "velocity": 1,
      "numerator": 1,
      "denominator": 1
    }
  },
  {
    "action": "execute_pt",
    "unit": "004",
    "bar_index": 6,
    "pt_name": "cello_strings_b42_1761516894464_ece7",
    "N": 1,
    "seeds": {
      "time": 4,
      "duration": 8,
      "pitch": 60,
      "velocity": 46,
      "numerator": 3,
      "denominator": 4
    },
    "sample_counts": {
      "time": 1,
      "duration": 1,
      "pitch": 1,
      "velocity": 1,
      "numerator": 1,
      "denominator": 1
    }
  },
  {
    "action": "execute_pt",
    "unit": "004",
    "bar_index": 6,
    "pt_name": "double_bass_strings_b42_1761516894464_c4f7",
    "N": 1,
    "seeds": {
      "time": 4,
      "duration": 8,
      "pitch": 44,
      "velocity": 42,
      "numerator": 3,
      "denominator": 4
    },
    "sample_counts": {
      "time": 1,
      "duration": 1,
      "pitch": 1,
      "velocity": 1,
      "numerator": 1,
      "denominator": 1
    }
  },
  {
    "action": "execute_pt",
    "unit": "004",
    "bar_index": 7,
    "pt_name": "alto_flute_winds_b43_1761516906790_ef15",
    "N": 1,
    "seeds": {
      "time": 0,
      "duration": 12,
      "pitch": 69,
      "velocity": 54,
      "numerator": 3,
      "denominator": 4
    },
    "sample_counts": {
      "time": 1,
      "duration": 1,
      "pitch": 1,
      "velocity": 1,
      "numerator": 1,
      "denominator": 1
    }
  },
  {
    "action": "execute_pt",
    "unit": "004",
    "bar_index": 7,
    "pt_name": "bass_clarinet_winds_b43_1761516906790_2707",
    "N": 1,
    "seeds": {
      "time": 0,
      "duration": 12,
      "pitch": 50,
      "velocity": 52,
      "numerator": 3,
      "denominator": 4
    },
    "sample_counts": {
      "time": 1,
      "duration": 1,
      "pitch": 1,
      "velocity": 1,
      "numerator": 1,
      "denominator": 1
    }
  },
  {
    "action": "execute_pt",
    "unit": "004",
    "bar_index": 7,
    "pt_name": "trumpet_winds_b43_1761516906790_0cd6",
    "N": 1,
    "seeds": {
      "time": 0,
      "duration": 12,
      "pitch": 76,
      "velocity": 56,
      "numerator": 3,
      "denominator": 4
    },
    "sample_counts": {
      "time": 1,
      "duration": 1,
      "pitch": 1,
      "velocity": 1,
      "numerator": 1,
      "denominator": 1
    }
  },
  {
    "action": "execute_pt",
    "unit": "004",
    "bar_index": 7,
    "pt_name": "violin_strings_b43_1761516906790_8951",
    "N": 1,
    "seeds": {
      "time": 0,
      "duration": 12,
      "pitch": 69,
      "velocity": 48,
      "numerator": 3,
      "denominator": 4
    },
    "sample_counts": {
      "time": 1,
      "duration": 1,
      "pitch": 1,
      "velocity": 1,
      "numerator": 1,
      "denominator": 1
    }
  },
  {
    "action": "execute_pt",
    "unit": "004",
    "bar_index": 7,
    "pt_name": "cello_strings_b43_1761516906790_2c21",
    "N": 1,
    "seeds": {
      "time": 0,
      "duration": 12,
      "pitch": 59,
      "velocity": 46,
      "numerator": 3,
      "denominator": 4
    },
    "sample_counts": {
      "time": 1,
      "duration": 1,
      "pitch": 1,
      "velocity": 1,
      "numerator": 1,
      "denominator": 1
    }
  },
  {
    "action": "execute_pt",
    "unit": "004",
    "bar_index": 7,
    "pt_name": "double_bass_strings_b43_1761516906790_9866",
    "N": 1,
    "seeds": {
      "time": 0,
      "duration": 12,
      "pitch": 43,
      "velocity": 42,
      "numerator": 3,
      "denominator": 4
    },
    "sample_counts": {
      "time": 1,
      "duration": 1,
      "pitch": 1,
      "velocity": 1,
      "numerator": 1,
      "denominator": 1
    }
  },
  {
    "action": "execute_pt",
    "unit": "004",
    "bar_index": 8,
    "pt_name": "alto_flute_winds_b44_1761516915702_fc62",
    "N": 2,
    "seeds": {
      "time": 0,
      "duration": 4,
      "pitch": 74,
      "velocity": 56,
      "numerator": 3,
      "denominator": 4
    },
    "sample_counts": {
      "time": 2,
      "duration": 2,
      "pitch": 2,
      "velocity": 2,
      "numerator": 2,
      "denominator": 2
    }
  },
  {
    "action": "execute_pt",
    "unit": "004",
    "bar_index": 8,
    "pt_name": "bass_clarinet_winds_b44_1761516915702_421b",
    "N": 2,
    "seeds": {
      "time": 0,
      "duration": 4,
      "pitch": 57,
      "velocity": 54,
      "numerator": 3,
      "denominator": 4
    },
    "sample_counts": {
      "time": 2,
      "duration": 2,
      "pitch": 2,
      "velocity": 2,
      "numerator": 2,
      "denominator": 2
    }
  },
  {
    "action": "execute_pt",
    "unit": "004",
    "bar_index": 8,
    "pt_name": "trumpet_winds_b44_1761516915702_f35b",
    "N": 2,
    "seeds": {
      "time": 0,
      "duration": 4,
      "pitch": 79,
      "velocity": 58,
      "numerator": 3,
      "denominator": 4
    },
    "sample_counts": {
      "time": 2,
      "duration": 2,
      "pitch": 2,
      "velocity": 2,
      "numerator": 2,
      "denominator": 2
    }
  },
  {
    "action": "execute_pt",
    "unit": "004",
    "bar_index": 8,
    "pt_name": "violin_strings_b44_1761516915702_ddb9",
    "N": 2,
    "seeds": {
      "time": 0,
      "duration": 8,
      "pitch": 71,
      "velocity": 49,
      "numerator": 3,
      "denominator": 4
    },
    "sample_counts": {
      "time": 2,
      "duration": 2,
      "pitch": 2,
      "velocity": 2,
      "numerator": 2,
      "denominator": 2
    }
  },
  {
    "action": "execute_pt",
    "unit": "004",
    "bar_index": 8,
    "pt_name": "cello_strings_b44_1761516915702_039f",
    "N": 2,
    "seeds": {
      "time": 0,
      "duration": 8,
      "pitch": 62,
      "velocity": 47,
      "numerator": 3,
      "denominator": 4
    },
    "sample_counts": {
      "time": 2,
      "duration": 2,
      "pitch": 2,
      "velocity": 2,
      "numerator": 2,
      "denominator": 2
    }
  },
  {
    "action": "execute_pt",
    "unit": "004",
    "bar_index": 8,
    "pt_name": "double_bass_strings_b44_1761516915702_fbca",
    "N": 2,
    "seeds": {
      "time": 0,
      "duration": 8,
      "pitch": 47,
      "velocity": 43,
      "numerator": 3,
      "denominator": 4
    },
    "sample_counts": {
      "time": 2,
      "duration": 2,
      "pitch": 2,
      "velocity": 2,
      "numerator": 2,
      "denominator": 2
    }
  },
  {
    "action": "execute_pt",
    "unit": "004",
    "bar_index": 9,
    "pt_name": "alto_flute_winds_b45_1761516923652_3ddf",
    "N": 1,
    "seeds": {
      "time": 0,
      "duration": 8,
      "pitch": 76,
      "velocity": 55,
      "numerator": 3,
      "denominator": 4
    },
    "sample_counts": {
      "time": 1,
      "duration": 1,
      "pitch": 1,
      "velocity": 1,
      "numerator": 1,
      "denominator": 1
    }
  },
  {
    "action": "execute_pt",
    "unit": "004",
    "bar_index": 9,
    "pt_name": "bass_clarinet_winds_b45_1761516923652_4f0e",
    "N": 1,
    "seeds": {
      "time": 0,
      "duration": 8,
      "pitch": 60,
      "velocity": 53,
      "numerator": 3,
      "denominator": 4
    },
    "sample_counts": {
      "time": 1,
      "duration": 1,
      "pitch": 1,
      "velocity": 1,
      "numerator": 1,
      "denominator": 1
    }
  },
  {
    "action": "execute_pt",
    "unit": "004",
    "bar_index": 9,
    "pt_name": "trumpet_winds_b45_1761516923652_ab3f",
    "N": 1,
    "seeds": {
      "time": 0,
      "duration": 8,
      "pitch": 71,
      "velocity": 57,
      "numerator": 3,
      "denominator": 4
    },
    "sample_counts": {
      "time": 1,
      "duration": 1,
      "pitch": 1,
      "velocity": 1,
      "numerator": 1,
      "denominator": 1
    }
  },
  {
    "action": "execute_pt",
    "unit": "004",
    "bar_index": 9,
    "pt_name": "violin_strings_b45_1761516923652_6882",
    "N": 2,
    "seeds": {
      "time": 0,
      "duration": 4,
      "pitch": 67,
      "velocity": 48,
      "numerator": 3,
      "denominator": 4
    },
    "sample_counts": {
      "time": 2,
      "duration": 2,
      "pitch": 2,
      "velocity": 2,
      "numerator": 2,
      "denominator": 2
    }
  },
  {
    "action": "execute_pt",
    "unit": "004",
    "bar_index": 9,
    "pt_name": "cello_strings_b45_1761516923652_fd82",
    "N": 2,
    "seeds": {
      "time": 0,
      "duration": 4,
      "pitch": 60,
      "velocity": 46,
      "numerator": 3,
      "denominator": 4
    },
    "sample_counts": {
      "time": 2,
      "duration": 2,
      "pitch": 2,
      "velocity": 2,
      "numerator": 2,
      "denominator": 2
    }
  },
  {
    "action": "execute_pt",
    "unit": "004",
    "bar_index": 9,
    "pt_name": "double_bass_strings_b45_1761516923652_045c",
    "N": 2,
    "seeds": {
      "time": 0,
      "duration": 4,
      "pitch": 48,
      "velocity": 42,
      "numerator": 3,
      "denominator": 4
    },
    "sample_counts": {
      "time": 2,
      "duration": 2,
      "pitch": 2,
      "velocity": 2,
      "numerator": 2,
      "denominator": 2
    }
  },
  {
    "action": "execute_pt",
    "unit": "004",
    "bar_index": 10,
    "pt_name": "alto_flute_winds_b46_1761516934467_56f3",
    "N": 2,
    "seeds": {
      "time": 0,
      "duration": 8,
      "pitch": 69,
      "velocity": 55,
      "numerator": 3,
      "denominator": 4
    },
    "sample_counts": {
      "time": 2,
      "duration": 2,
      "pitch": 2,
      "velocity": 2,
      "numerator": 2,
      "denominator": 2
    }
  },
  {
    "action": "execute_pt",
    "unit": "004",
    "bar_index": 10,
    "pt_name": "bass_clarinet_winds_b46_1761516934467_7e1d",
    "N": 2,
    "seeds": {
      "time": 0,
      "duration": 8,
      "pitch": 52,
      "velocity": 53,
      "numerator": 3,
      "denominator": 4
    },
    "sample_counts": {
      "time": 2,
      "duration": 2,
      "pitch": 2,
      "velocity": 2,
      "numerator": 2,
      "denominator": 2
    }
  },
  {
    "action": "execute_pt",
    "unit": "004",
    "bar_index": 10,
    "pt_name": "trumpet_winds_b46_1761516934467_d52d",
    "N": 2,
    "seeds": {
      "time": 0,
      "duration": 8,
      "pitch": 73,
      "velocity": 57,
      "numerator": 3,
      "denominator": 4
    },
    "sample_counts": {
      "time": 2,
      "duration": 2,
      "pitch": 2,
      "velocity": 2,
      "numerator": 2,
      "denominator": 2
    }
  },
  {
    "action": "execute_pt",
    "unit": "004",
    "bar_index": 10,
    "pt_name": "violin_strings_b46_1761516934467_d9e2",
    "N": 1,
    "seeds": {
      "time": 0,
      "duration": 12,
      "pitch": 63,
      "velocity": 49,
      "numerator": 3,
      "denominator": 4
    },
    "sample_counts": {
      "time": 1,
      "duration": 1,
      "pitch": 1,
      "velocity": 1,
      "numerator": 1,
      "denominator": 1
    }
  },
  {
    "action": "execute_pt",
    "unit": "004",
    "bar_index": 10,
    "pt_name": "cello_strings_b46_1761516934467_9c93",
    "N": 1,
    "seeds": {
      "time": 0,
      "duration": 12,
      "pitch": 58,
      "velocity": 47,
      "numerator": 3,
      "denominator": 4
    },
    "sample_counts": {
      "time": 1,
      "duration": 1,
      "pitch": 1,
      "velocity": 1,
      "numerator": 1,
      "denominator": 1
    }
  },
  {
    "action": "execute_pt",
    "unit": "004",
    "bar_index": 10,
    "pt_name": "double_bass_strings_b46_1761516934467_39a8",
    "N": 1,
    "seeds": {
      "time": 0,
      "duration": 12,
      "pitch": 41,
      "velocity": 43,
      "numerator": 3,
      "denominator": 4
    },
    "sample_counts": {
      "time": 1,
      "duration": 1,
      "pitch": 1,
      "velocity": 1,
      "numerator": 1,
      "denominator": 1
    }
  },
  {
    "action": "execute_pt",
    "unit": "004",
    "bar_index": 11,
    "pt_name": "alto_flute_winds_b47_1761516941813_66e0",
    "N": 1,
    "seeds": {
      "time": 0,
      "duration": 12,
      "pitch": 72,
      "velocity": 54,
      "numerator": 3,
      "denominator": 4
    },
    "sample_counts": {
      "time": 1,
      "duration": 1,
      "pitch": 1,
      "velocity": 1,
      "numerator": 1,
      "denominator": 1
    }
  },
  {
    "action": "execute_pt",
    "unit": "004",
    "bar_index": 11,
    "pt_name": "bass_clarinet_winds_b47_1761516941813_bc5d",
    "N": 1,
    "seeds": {
      "time": 0,
      "duration": 12,
      "pitch": 55,
      "velocity": 52,
      "numerator": 3,
      "denominator": 4
    },
    "sample_counts": {
      "time": 1,
      "duration": 1,
      "pitch": 1,
      "velocity": 1,
      "numerator": 1,
      "denominator": 1
    }
  },
  {
    "action": "execute_pt",
    "unit": "004",
    "bar_index": 11,
    "pt_name": "trumpet_winds_b47_1761516941813_c0d7",
    "N": 1,
    "seeds": {
      "time": 0,
      "duration": 12,
      "pitch": 79,
      "velocity": 56,
      "numerator": 3,
      "denominator": 4
    },
    "sample_counts": {
      "time": 1,
      "duration": 1,
      "pitch": 1,
      "velocity": 1,
      "numerator": 1,
      "denominator": 1
    }
  },
  {
    "action": "execute_pt",
    "unit": "004",
    "bar_index": 11,
    "pt_name": "violin_strings_b47_1761516941813_9bc8",
    "N": 1,
    "seeds": {
      "time": 0,
      "duration": 8,
      "pitch": 72,
      "velocity": 48,
      "numerator": 3,
      "denominator": 4
    },
    "sample_counts": {
      "time": 1,
      "duration": 1,
      "pitch": 1,
      "velocity": 1,
      "numerator": 1,
      "denominator": 1
    }
  },
  {
    "action": "execute_pt",
    "unit": "004",
    "bar_index": 11,
    "pt_name": "cello_strings_b47_1761516941813_2216",
    "N": 1,
    "seeds": {
      "time": 0,
      "duration": 8,
      "pitch": 65,
      "velocity": 46,
      "numerator": 3,
      "denominator": 4
    },
    "sample_counts": {
      "time": 1,
      "duration": 1,
      "pitch": 1,
      "velocity": 1,
      "numerator": 1,
      "denominator": 1
    }
  },
  {
    "action": "execute_pt",
    "unit": "004",
    "bar_index": 11,
    "pt_name": "double_bass_strings_b47_1761516941813_2484",
    "N": 1,
    "seeds": {
      "time": 0,
      "duration": 8,
      "pitch": 53,
      "velocity": 42,
      "numerator": 3,
      "denominator": 4
    },
    "sample_counts": {
      "time": 1,
      "duration": 1,
      "pitch": 1,
      "velocity": 1,
      "numerator": 1,
      "denominator": 1
    }
  },
  {
    "action": "execute_pt",
    "unit": "004",
    "bar_index": 12,
    "pt_name": "alto_flute_winds_b48_1761516950287_4fa1",
    "N": 2,
    "seeds": {
      "time": 0,
      "duration": 4,
      "pitch": 66,
      "velocity": 55,
      "numerator": 3,
      "denominator": 4
    },
    "sample_counts": {
      "time": 2,
      "duration": 2,
      "pitch": 2,
      "velocity": 2,
      "numerator": 2,
      "denominator": 2
    }
  },
  {
    "action": "execute_pt",
    "unit": "004",
    "bar_index": 12,
    "pt_name": "bass_clarinet_winds_b48_1761516950287_dba2",
    "N": 2,
    "seeds": {
      "time": 0,
      "duration": 4,
      "pitch": 59,
      "velocity": 53,
      "numerator": 3,
      "denominator": 4
    },
    "sample_counts": {
      "time": 2,
      "duration": 2,
      "pitch": 2,
      "velocity": 2,
      "numerator": 2,
      "denominator": 2
    }
  },
  {
    "action": "execute_pt",
    "unit": "004",
    "bar_index": 12,
    "pt_name": "trumpet_winds_b48_1761516950287_f1cc",
    "N": 2,
    "seeds": {
      "time": 0,
      "duration": 4,
      "pitch": 74,
      "velocity": 57,
      "numerator": 3,
      "denominator": 4
    },
    "sample_counts": {
      "time": 2,
      "duration": 2,
      "pitch": 2,
      "velocity": 2,
      "numerator": 2,
      "denominator": 2
    }
  },
  {
    "action": "execute_pt",
    "unit": "004",
    "bar_index": 12,
    "pt_name": "violin_strings_b48_1761516950287_ba81",
    "N": 2,
    "seeds": {
      "time": 0,
      "duration": 4,
      "pitch": 62,
      "velocity": 48,
      "numerator": 3,
      "denominator": 4
    },
    "sample_counts": {
      "time": 2,
      "duration": 2,
      "pitch": 2,
      "velocity": 2,
      "numerator": 2,
      "denominator": 2
    }
  },
  {
    "action": "execute_pt",
    "unit": "004",
    "bar_index": 12,
    "pt_name": "cello_strings_b48_1761516950287_0182",
    "N": 2,
    "seeds": {
      "time": 0,
      "duration": 4,
      "pitch": 57,
      "velocity": 46,
      "numerator": 3,
      "denominator": 4
    },
    "sample_counts": {
      "time": 2,
      "duration": 2,
      "pitch": 2,
      "velocity": 2,
      "numerator": 2,
      "denominator": 2
    }
  },
  {
    "action": "execute_pt",
    "unit": "004",
    "bar_index": 12,
    "pt_name": "double_bass_strings_b48_1761516950287_198c",
    "N": 2,
    "seeds": {
      "time": 0,
      "duration": 4,
      "pitch": 50,
      "velocity": 42,
      "numerator": 3,
      "denominator": 4
    },
    "sample_counts": {
      "time": 2,
      "duration": 2,
      "pitch": 2,
      "velocity": 2,
      "numerator": 2,
      "denominator": 2
    }
  },
  {
    "action": "execute_pt",
    "unit": "004",
    "bar_index": 13,
    "pt_name": "alto_flute_winds_b42_1761516958435_a102",
    "N": 1,
    "seeds": {
      "time": 0,
      "duration": 1,
      "pitch": 60,
      "velocity": 1,
      "numerator": 3,
      "denominator": 4
    },
    "sample_counts": {
      "time": 1,
      "duration": 1,
      "pitch": 1,
      "velocity": 1,
      "numerator": 1,
      "denominator": 1
    }
  },
  {
    "action": "execute_pt",
    "unit": "004",
    "bar_index": 13,
    "pt_name": "bass_clarinet_winds_b42_1761516958435_f4b1",
    "N": 1,
    "seeds": {
      "time": 0,
      "duration": 1,
      "pitch": 60,
      "velocity": 1,
      "numerator": 3,
      "denominator": 4
    },
    "sample_counts": {
      "time": 1,
      "duration": 1,
      "pitch": 1,
      "velocity": 1,
      "numerator": 1,
      "denominator": 1
    }
  },
  {
    "action": "execute_pt",
    "unit": "004",
    "bar_index": 13,
    "pt_name": "trumpet_winds_b42_1761516958435_5f79",
    "N": 1,
    "seeds": {
      "time": 0,
      "duration": 1,
      "pitch": 60,
      "velocity": 1,
      "numerator": 3,
      "denominator": 4
    },
    "sample_counts": {
      "time": 1,
      "duration": 1,
      "pitch": 1,
      "velocity": 1,
      "numerator": 1,
      "denominator": 1
    }
  },
  {
    "action": "execute_pt",
    "unit": "004",
    "bar_index": 13,
    "pt_name": "violin_strings_b42_1761516958435_5785",
    "N": 1,
    "seeds": {
      "time": 0,
      "duration": 1,
      "pitch": 60,
      "velocity": 1,
      "numerator": 3,
      "denominator": 4
    },
    "sample_counts": {
      "time": 1,
      "duration": 1,
      "pitch": 1,
      "velocity": 1,
      "numerator": 1,
      "denominator": 1
    }
  },
  {
    "action": "execute_pt",
    "unit": "004",
    "bar_index": 13,
    "pt_name": "cello_strings_b42_1761516958435_5818",
    "N": 1,
    "seeds": {
      "time": 0,
      "duration": 1,
      "pitch": 60,
      "velocity": 1,
      "numerator": 3,
      "denominator": 4
    },
    "sample_counts": {
      "time": 1,
      "duration": 1,
      "pitch": 1,
      "velocity": 1,
      "numerator": 1,
      "denominator": 1
    }
  },
  {
    "action": "execute_pt",
    "unit": "004",
    "bar_index": 13,
    "pt_name": "double_bass_strings_b42_1761516958435_4612",
    "N": 1,
    "seeds": {
      "time": 0,
      "duration": 1,
      "pitch": 60,
      "velocity": 1,
      "numerator": 3,
      "denominator": 4
    },
    "sample_counts": {
      "time": 1,
      "duration": 1,
      "pitch": 1,
      "velocity": 1,
      "numerator": 1,
      "denominator": 1
    }
  },
  {
    "action": "execute_pt",
    "unit": "004",
    "bar_index": 14,
    "pt_name": "alto_flute_winds_b43_1761516966734_37ef",
    "N": 1,
    "seeds": {
      "time": 0,
      "duration": 1,
      "pitch": 60,
      "velocity": 1,
      "numerator": 3,
      "denominator": 4
    },
    "sample_counts": {
      "time": 1,
      "duration": 1,
      "pitch": 1,
      "velocity": 1,
      "numerator": 1,
      "denominator": 1
    }
  },
  {
    "action": "execute_pt",
    "unit": "004",
    "bar_index": 14,
    "pt_name": "bass_clarinet_winds_b43_1761516966734_ec1b",
    "N": 1,
    "seeds": {
      "time": 0,
      "duration": 1,
      "pitch": 60,
      "velocity": 1,
      "numerator": 3,
      "denominator": 4
    },
    "sample_counts": {
      "time": 1,
      "duration": 1,
      "pitch": 1,
      "velocity": 1,
      "numerator": 1,
      "denominator": 1
    }
  },
  {
    "action": "execute_pt",
    "unit": "004",
    "bar_index": 14,
    "pt_name": "trumpet_winds_b43_1761516966734_c580",
    "N": 1,
    "seeds": {
      "time": 0,
      "duration": 1,
      "pitch": 60,
      "velocity": 1,
      "numerator": 3,
      "denominator": 4
    },
    "sample_counts": {
      "time": 1,
      "duration": 1,
      "pitch": 1,
      "velocity": 1,
      "numerator": 1,
      "denominator": 1
    }
  },
  {
    "action": "execute_pt",
    "unit": "004",
    "bar_index": 14,
    "pt_name": "violin_strings_b43_1761516966734_c69b",
    "N": 1,
    "seeds": {
      "time": 0,
      "duration": 1,
      "pitch": 60,
      "velocity": 1,
      "numerator": 3,
      "denominator": 4
    },
    "sample_counts": {
      "time": 1,
      "duration": 1,
      "pitch": 1,
      "velocity": 1,
      "numerator": 1,
      "denominator": 1
    }
  },
  {
    "action": "execute_pt",
    "unit": "004",
    "bar_index": 14,
    "pt_name": "cello_strings_b43_1761516966734_9d1c",
    "N": 1,
    "seeds": {
      "time": 0,
      "duration": 1,
      "pitch": 60,
      "velocity": 1,
      "numerator": 3,
      "denominator": 4
    },
    "sample_counts": {
      "time": 1,
      "duration": 1,
      "pitch": 1,
      "velocity": 1,
      "numerator": 1,
      "denominator": 1
    }
  },
  {
    "action": "execute_pt",
    "unit": "004",
    "bar_index": 14,
    "pt_name": "double_bass_strings_b43_1761516966734_a598",
    "N": 1,
    "seeds": {
      "time": 0,
      "duration": 1,
      "pitch": 60,
      "velocity": 1,
      "numerator": 3,
      "denominator": 4
    },
    "sample_counts": {
      "time": 1,
      "duration": 1,
      "pitch": 1,
      "velocity": 1,
      "numerator": 1,
      "denominator": 1
    }
  },
  {
    "action": "execute_pt",
    "unit": "004",
    "bar_index": 15,
    "pt_name": "alto_flute_winds_b44_1761516975036_c7e3",
    "N": 1,
    "seeds": {
      "time": 0,
      "duration": 1,
      "pitch": 60,
      "velocity": 1,
      "numerator": 3,
      "denominator": 4
    },
    "sample_counts": {
      "time": 1,
      "duration": 1,
      "pitch": 1,
      "velocity": 1,
      "numerator": 1,
      "denominator": 1
    }
  },
  {
    "action": "execute_pt",
    "unit": "004",
    "bar_index": 15,
    "pt_name": "bass_clarinet_winds_b44_1761516975036_2953",
    "N": 1,
    "seeds": {
      "time": 0,
      "duration": 1,
      "pitch": 60,
      "velocity": 1,
      "numerator": 3,
      "denominator": 4
    },
    "sample_counts": {
      "time": 1,
      "duration": 1,
      "pitch": 1,
      "velocity": 1,
      "numerator": 1,
      "denominator": 1
    }
  },
  {
    "action": "execute_pt",
    "unit": "004",
    "bar_index": 15,
    "pt_name": "trumpet_winds_b44_1761516975036_88a4",
    "N": 1,
    "seeds": {
      "time": 0,
      "duration": 1,
      "pitch": 60,
      "velocity": 1,
      "numerator": 3,
      "denominator": 4
    },
    "sample_counts": {
      "time": 1,
      "duration": 1,
      "pitch": 1,
      "velocity": 1,
      "numerator": 1,
      "denominator": 1
    }
  },
  {
    "action": "execute_pt",
    "unit": "004",
    "bar_index": 15,
    "pt_name": "violin_strings_b44_1761516975036_876b",
    "N": 1,
    "seeds": {
      "time": 0,
      "duration": 1,
      "pitch": 60,
      "velocity": 1,
      "numerator": 3,
      "denominator": 4
    },
    "sample_counts": {
      "time": 1,
      "duration": 1,
      "pitch": 1,
      "velocity": 1,
      "numerator": 1,
      "denominator": 1
    }
  },
  {
    "action": "execute_pt",
    "unit": "004",
    "bar_index": 15,
    "pt_name": "cello_strings_b44_1761516975036_6fdb",
    "N": 1,
    "seeds": {
      "time": 0,
      "duration": 1,
      "pitch": 60,
      "velocity": 1,
      "numerator": 3,
      "denominator": 4
    },
    "sample_counts": {
      "time": 1,
      "duration": 1,
      "pitch": 1,
      "velocity": 1,
      "numerator": 1,
      "denominator": 1
    }
  },
  {
    "action": "execute_pt",
    "unit": "004",
    "bar_index": 15,
    "pt_name": "double_bass_strings_b44_1761516975036_a49d",
    "N": 1,
    "seeds": {
      "time": 0,
      "duration": 1,
      "pitch": 60,
      "velocity": 1,
      "numerator": 3,
      "denominator": 4
    },
    "sample_counts": {
      "time": 1,
      "duration": 1,
      "pitch": 1,
      "velocity": 1,
      "numerator": 1,
      "denominator": 1
    }
  },
  {
    "action": "execute_pt",
    "unit": "004",
    "bar_index": 16,
    "pt_name": "alto_flute_winds_b45_1761516982915_bed3",
    "N": 1,
    "seeds": {
      "time": 0,
      "duration": 1,
      "pitch": 60,
      "velocity": 1,
      "numerator": 3,
      "denominator": 4
    },
    "sample_counts": {
      "time": 1,
      "duration": 1,
      "pitch": 1,
      "velocity": 1,
      "numerator": 1,
      "denominator": 1
    }
  },
  {
    "action": "execute_pt",
    "unit": "004",
    "bar_index": 16,
    "pt_name": "bass_clarinet_winds_b45_1761516982915_5599",
    "N": 1,
    "seeds": {
      "time": 0,
      "duration": 1,
      "pitch": 60,
      "velocity": 1,
      "numerator": 3,
      "denominator": 4
    },
    "sample_counts": {
      "time": 1,
      "duration": 1,
      "pitch": 1,
      "velocity": 1,
      "numerator": 1,
      "denominator": 1
    }
  },
  {
    "action": "execute_pt",
    "unit": "004",
    "bar_index": 16,
    "pt_name": "trumpet_winds_b45_1761516982915_2d49",
    "N": 1,
    "seeds": {
      "time": 0,
      "duration": 1,
      "pitch": 60,
      "velocity": 1,
      "numerator": 3,
      "denominator": 4
    },
    "sample_counts": {
      "time": 1,
      "duration": 1,
      "pitch": 1,
      "velocity": 1,
      "numerator": 1,
      "denominator": 1
    }
  },
  {
    "action": "execute_pt",
    "unit": "004",
    "bar_index": 16,
    "pt_name": "violin_strings_b45_1761516982915_52d0",
    "N": 1,
    "seeds": {
      "time": 0,
      "duration": 1,
      "pitch": 60,
      "velocity": 1,
      "numerator": 3,
      "denominator": 4
    },
    "sample_counts": {
      "time": 1,
      "duration": 1,
      "pitch": 1,
      "velocity": 1,
      "numerator": 1,
      "denominator": 1
    }
  },
  {
    "action": "execute_pt",
    "unit": "004",
    "bar_index": 16,
    "pt_name": "cello_strings_b45_1761516982915_6a84",
    "N": 1,
    "seeds": {
      "time": 0,
      "duration": 1,
      "pitch": 60,
      "velocity": 1,
      "numerator": 3,
      "denominator": 4
    },
    "sample_counts": {
      "time": 1,
      "duration": 1,
      "pitch": 1,
      "velocity": 1,
      "numerator": 1,
      "denominator": 1
    }
  },
  {
    "action": "execute_pt",
    "unit": "004",
    "bar_index": 16,
    "pt_name": "double_bass_strings_b45_1761516982915_2eee",
    "N": 1,
    "seeds": {
      "time": 0,
      "duration": 1,
      "pitch": 60,
      "velocity": 1,
      "numerator": 3,
      "denominator": 4
    },
    "sample_counts": {
      "time": 1,
      "duration": 1,
      "pitch": 1,
      "velocity": 1,
      "numerator": 1,
      "denominator": 1
    }
  },
  {
    "action": "execute_pt",
    "unit": "005",
    "bar_index": 1,
    "pt_name": "alto_flute_homophony_b49_1761517341334_17a1",
    "N": 2,
    "seeds": {
      "time": 0,
      "duration": 8,
      "pitch": 69,
      "velocity": 52,
      "numerator": 3,
      "denominator": 4
    },
    "sample_counts": {
      "time": 2,
      "duration": 2,
      "pitch": 2,
      "velocity": 2,
      "numerator": 2,
      "denominator": 2
    }
  },
  {
    "action": "execute_pt",
    "unit": "005",
    "bar_index": 1,
    "pt_name": "bass_clarinet_homophony_b49_1761517341334_01eb",
    "N": 2,
    "seeds": {
      "time": 0,
      "duration": 8,
      "pitch": 52,
      "velocity": 50,
      "numerator": 3,
      "denominator": 4
    },
    "sample_counts": {
      "time": 2,
      "duration": 2,
      "pitch": 2,
      "velocity": 2,
      "numerator": 2,
      "denominator": 2
    }
  },
  {
    "action": "execute_pt",
    "unit": "005",
    "bar_index": 1,
    "pt_name": "trumpet_homophony_b49_1761517341334_4bb1",
    "N": 2,
    "seeds": {
      "time": 0,
      "duration": 8,
      "pitch": 74,
      "velocity": 56,
      "numerator": 3,
      "denominator": 4
    },
    "sample_counts": {
      "time": 2,
      "duration": 2,
      "pitch": 2,
      "velocity": 2,
      "numerator": 2,
      "denominator": 2
    }
  },
  {
    "action": "execute_pt",
    "unit": "005",
    "bar_index": 1,
    "pt_name": "violin_homophony_b49_1761517341334_f1db",
    "N": 2,
    "seeds": {
      "time": 0,
      "duration": 8,
      "pitch": 62,
      "velocity": 48,
      "numerator": 3,
      "denominator": 4
    },
    "sample_counts": {
      "time": 2,
      "duration": 2,
      "pitch": 2,
      "velocity": 2,
      "numerator": 2,
      "denominator": 2
    }
  },
  {
    "action": "execute_pt",
    "unit": "005",
    "bar_index": 1,
    "pt_name": "cello_homophony_b49_1761517341334_09c5",
    "N": 2,
    "seeds": {
      "time": 0,
      "duration": 8,
      "pitch": 57,
      "velocity": 46,
      "numerator": 3,
      "denominator": 4
    },
    "sample_counts": {
      "time": 2,
      "duration": 2,
      "pitch": 2,
      "velocity": 2,
      "numerator": 2,
      "denominator": 2
    }
  },
  {
    "action": "execute_pt",
    "unit": "005",
    "bar_index": 1,
    "pt_name": "double_bass_homophony_b49_1761517341334_2e35",
    "N": 2,
    "seeds": {
      "time": 0,
      "duration": 8,
      "pitch": 45,
      "velocity": 44,
      "numerator": 3,
      "denominator": 4
    },
    "sample_counts": {
      "time": 2,
      "duration": 2,
      "pitch": 2,
      "velocity": 2,
      "numerator": 2,
      "denominator": 2
    }
  },
  {
    "action": "execute_pt",
    "unit": "005",
    "bar_index": 2,
    "pt_name": "alto_flute_homophony_b50_1761517349258_14be",
    "N": 2,
    "seeds": {
      "time": 0,
      "duration": 4,
      "pitch": 69,
      "velocity": 54,
      "numerator": 3,
      "denominator": 4
    },
    "sample_counts": {
      "time": 2,
      "duration": 2,
      "pitch": 2,
      "velocity": 2,
      "numerator": 2,
      "denominator": 2
    }
  },
  {
    "action": "execute_pt",
    "unit": "005",
    "bar_index": 2,
    "pt_name": "bass_clarinet_homophony_b50_1761517349258_fb42",
    "N": 2,
    "seeds": {
      "time": 0,
      "duration": 4,
      "pitch": 55,
      "velocity": 52,
      "numerator": 3,
      "denominator": 4
    },
    "sample_counts": {
      "time": 2,
      "duration": 2,
      "pitch": 2,
      "velocity": 2,
      "numerator": 2,
      "denominator": 2
    }
  },
  {
    "action": "execute_pt",
    "unit": "005",
    "bar_index": 2,
    "pt_name": "trumpet_homophony_b50_1761517349258_e24f",
    "N": 2,
    "seeds": {
      "time": 0,
      "duration": 4,
      "pitch": 74,
      "velocity": 58,
      "numerator": 3,
      "denominator": 4
    },
    "sample_counts": {
      "time": 2,
      "duration": 2,
      "pitch": 2,
      "velocity": 2,
      "numerator": 2,
      "denominator": 2
    }
  },
  {
    "action": "execute_pt",
    "unit": "005",
    "bar_index": 2,
    "pt_name": "violin_homophony_b50_1761517349258_35cf",
    "N": 2,
    "seeds": {
      "time": 0,
      "duration": 4,
      "pitch": 62,
      "velocity": 50,
      "numerator": 3,
      "denominator": 4
    },
    "sample_counts": {
      "time": 2,
      "duration": 2,
      "pitch": 2,
      "velocity": 2,
      "numerator": 2,
      "denominator": 2
    }
  },
  {
    "action": "execute_pt",
    "unit": "005",
    "bar_index": 2,
    "pt_name": "cello_homophony_b50_1761517349258_d0ec",
    "N": 2,
    "seeds": {
      "time": 0,
      "duration": 4,
      "pitch": 57,
      "velocity": 48,
      "numerator": 3,
      "denominator": 4
    },
    "sample_counts": {
      "time": 2,
      "duration": 2,
      "pitch": 2,
      "velocity": 2,
      "numerator": 2,
      "denominator": 2
    }
  },
  {
    "action": "execute_pt",
    "unit": "005",
    "bar_index": 2,
    "pt_name": "double_bass_homophony_b50_1761517349258_bd1c",
    "N": 2,
    "seeds": {
      "time": 0,
      "duration": 4,
      "pitch": 50,
      "velocity": 46,
      "numerator": 3,
      "denominator": 4
    },
    "sample_counts": {
      "time": 2,
      "duration": 2,
      "pitch": 2,
      "velocity": 2,
      "numerator": 2,
      "denominator": 2
    }
  },
  {
    "action": "execute_pt",
    "unit": "005",
    "bar_index": 3,
    "pt_name": "alto_flute_homophony_b51_1761517357062_f65e",
    "N": 1,
    "seeds": {
      "time": 0,
      "duration": 8,
      "pitch": 69,
      "velocity": 55,
      "numerator": 3,
      "denominator": 4
    },
    "sample_counts": {
      "time": 1,
      "duration": 1,
      "pitch": 1,
      "velocity": 1,
      "numerator": 1,
      "denominator": 1
    }
  },
  {
    "action": "execute_pt",
    "unit": "005",
    "bar_index": 3,
    "pt_name": "bass_clarinet_homophony_b51_1761517357062_2d18",
    "N": 1,
    "seeds": {
      "time": 0,
      "duration": 8,
      "pitch": 52,
      "velocity": 53,
      "numerator": 3,
      "denominator": 4
    },
    "sample_counts": {
      "time": 1,
      "duration": 1,
      "pitch": 1,
      "velocity": 1,
      "numerator": 1,
      "denominator": 1
    }
  },
  {
    "action": "execute_pt",
    "unit": "005",
    "bar_index": 3,
    "pt_name": "trumpet_homophony_b51_1761517357062_7e9f",
    "N": 1,
    "seeds": {
      "time": 0,
      "duration": 8,
      "pitch": 74,
      "velocity": 60,
      "numerator": 3,
      "denominator": 4
    },
    "sample_counts": {
      "time": 1,
      "duration": 1,
      "pitch": 1,
      "velocity": 1,
      "numerator": 1,
      "denominator": 1
    }
  },
  {
    "action": "execute_pt",
    "unit": "005",
    "bar_index": 3,
    "pt_name": "violin_homophony_b51_1761517357062_b7b5",
    "N": 1,
    "seeds": {
      "time": 0,
      "duration": 8,
      "pitch": 62,
      "velocity": 52,
      "numerator": 3,
      "denominator": 4
    },
    "sample_counts": {
      "time": 1,
      "duration": 1,
      "pitch": 1,
      "velocity": 1,
      "numerator": 1,
      "denominator": 1
    }
  },
  {
    "action": "execute_pt",
    "unit": "005",
    "bar_index": 3,
    "pt_name": "cello_homophony_b51_1761517357062_fc09",
    "N": 1,
    "seeds": {
      "time": 0,
      "duration": 8,
      "pitch": 55,
      "velocity": 50,
      "numerator": 3,
      "denominator": 4
    },
    "sample_counts": {
      "time": 1,
      "duration": 1,
      "pitch": 1,
      "velocity": 1,
      "numerator": 1,
      "denominator": 1
    }
  },
  {
    "action": "execute_pt",
    "unit": "005",
    "bar_index": 3,
    "pt_name": "double_bass_homophony_b51_1761517357062_441d",
    "N": 1,
    "seeds": {
      "time": 0,
      "duration": 8,
      "pitch": 48,
      "velocity": 48,
      "numerator": 3,
      "denominator": 4
    },
    "sample_counts": {
      "time": 1,
      "duration": 1,
      "pitch": 1,
      "velocity": 1,
      "numerator": 1,
      "denominator": 1
    }
  },
  {
    "action": "execute_pt",
    "unit": "005",
    "bar_index": 4,
    "pt_name": "alto_flute_homophony_b52_1761517364614_aa96",
    "N": 1,
    "seeds": {
      "time": 0,
      "duration": 12,
      "pitch": 67,
      "velocity": 56,
      "numerator": 3,
      "denominator": 4
    },
    "sample_counts": {
      "time": 1,
      "duration": 1,
      "pitch": 1,
      "velocity": 1,
      "numerator": 1,
      "denominator": 1
    }
  },
  {
    "action": "execute_pt",
    "unit": "005",
    "bar_index": 4,
    "pt_name": "bass_clarinet_homophony_b52_1761517364614_6d1c",
    "N": 1,
    "seeds": {
      "time": 0,
      "duration": 12,
      "pitch": 53,
      "velocity": 54,
      "numerator": 3,
      "denominator": 4
    },
    "sample_counts": {
      "time": 1,
      "duration": 1,
      "pitch": 1,
      "velocity": 1,
      "numerator": 1,
      "denominator": 1
    }
  },
  {
    "action": "execute_pt",
    "unit": "005",
    "bar_index": 4,
    "pt_name": "trumpet_homophony_b52_1761517364614_50aa",
    "N": 1,
    "seeds": {
      "time": 0,
      "duration": 12,
      "pitch": 70,
      "velocity": 61,
      "numerator": 3,
      "denominator": 4
    },
    "sample_counts": {
      "time": 1,
      "duration": 1,
      "pitch": 1,
      "velocity": 1,
      "numerator": 1,
      "denominator": 1
    }
  },
  {
    "action": "execute_pt",
    "unit": "005",
    "bar_index": 4,
    "pt_name": "violin_homophony_b52_1761517364614_fb8e",
    "N": 1,
    "seeds": {
      "time": 0,
      "duration": 12,
      "pitch": 65,
      "velocity": 53,
      "numerator": 3,
      "denominator": 4
    },
    "sample_counts": {
      "time": 1,
      "duration": 1,
      "pitch": 1,
      "velocity": 1,
      "numerator": 1,
      "denominator": 1
    }
  },
  {
    "action": "execute_pt",
    "unit": "005",
    "bar_index": 4,
    "pt_name": "cello_homophony_b52_1761517364614_2933",
    "N": 1,
    "seeds": {
      "time": 0,
      "duration": 12,
      "pitch": 58,
      "velocity": 51,
      "numerator": 3,
      "denominator": 4
    },
    "sample_counts": {
      "time": 1,
      "duration": 1,
      "pitch": 1,
      "velocity": 1,
      "numerator": 1,
      "denominator": 1
    }
  },
  {
    "action": "execute_pt",
    "unit": "005",
    "bar_index": 4,
    "pt_name": "double_bass_homophony_b52_1761517364614_6489",
    "N": 1,
    "seeds": {
      "time": 0,
      "duration": 12,
      "pitch": 46,
      "velocity": 49,
      "numerator": 3,
      "denominator": 4
    },
    "sample_counts": {
      "time": 1,
      "duration": 1,
      "pitch": 1,
      "velocity": 1,
      "numerator": 1,
      "denominator": 1
    }
  },
  {
    "action": "execute_pt",
    "unit": "005",
    "bar_index": 5,
    "pt_name": "alto_flute_homophony_b53_1761517372200_992e",
    "N": 2,
    "seeds": {
      "time": 0,
      "duration": 8,
      "pitch": 71,
      "velocity": 57,
      "numerator": 3,
      "denominator": 4
    },
    "sample_counts": {
      "time": 2,
      "duration": 2,
      "pitch": 2,
      "velocity": 2,
      "numerator": 2,
      "denominator": 2
    }
  },
  {
    "action": "execute_pt",
    "unit": "005",
    "bar_index": 5,
    "pt_name": "bass_clarinet_homophony_b53_1761517372200_33da",
    "N": 2,
    "seeds": {
      "time": 0,
      "duration": 8,
      "pitch": 57,
      "velocity": 55,
      "numerator": 3,
      "denominator": 4
    },
    "sample_counts": {
      "time": 2,
      "duration": 2,
      "pitch": 2,
      "velocity": 2,
      "numerator": 2,
      "denominator": 2
    }
  },
  {
    "action": "execute_pt",
    "unit": "005",
    "bar_index": 5,
    "pt_name": "trumpet_homophony_b53_1761517372200_9ddf",
    "N": 2,
    "seeds": {
      "time": 0,
      "duration": 8,
      "pitch": 76,
      "velocity": 62,
      "numerator": 3,
      "denominator": 4
    },
    "sample_counts": {
      "time": 2,
      "duration": 2,
      "pitch": 2,
      "velocity": 2,
      "numerator": 2,
      "denominator": 2
    }
  },
  {
    "action": "execute_pt",
    "unit": "005",
    "bar_index": 5,
    "pt_name": "violin_homophony_b53_1761517372200_e393",
    "N": 2,
    "seeds": {
      "time": 0,
      "duration": 8,
      "pitch": 64,
      "velocity": 54,
      "numerator": 3,
      "denominator": 4
    },
    "sample_counts": {
      "time": 2,
      "duration": 2,
      "pitch": 2,
      "velocity": 2,
      "numerator": 2,
      "denominator": 2
    }
  },
  {
    "action": "execute_pt",
    "unit": "005",
    "bar_index": 5,
    "pt_name": "cello_homophony_b53_1761517372200_4fd9",
    "N": 2,
    "seeds": {
      "time": 0,
      "duration": 8,
      "pitch": 59,
      "velocity": 52,
      "numerator": 3,
      "denominator": 4
    },
    "sample_counts": {
      "time": 2,
      "duration": 2,
      "pitch": 2,
      "velocity": 2,
      "numerator": 2,
      "denominator": 2
    }
  },
  {
    "action": "execute_pt",
    "unit": "005",
    "bar_index": 5,
    "pt_name": "double_bass_homophony_b53_1761517372200_34e9",
    "N": 2,
    "seeds": {
      "time": 0,
      "duration": 8,
      "pitch": 52,
      "velocity": 50,
      "numerator": 3,
      "denominator": 4
    },
    "sample_counts": {
      "time": 2,
      "duration": 2,
      "pitch": 2,
      "velocity": 2,
      "numerator": 2,
      "denominator": 2
    }
  },
  {
    "action": "execute_pt",
    "unit": "005",
    "bar_index": 6,
    "pt_name": "alto_flute_homophony_b54_1761517380107_a530",
    "N": 2,
    "seeds": {
      "time": 0,
      "duration": 4,
      "pitch": 69,
      "velocity": 58,
      "numerator": 3,
      "denominator": 4
    },
    "sample_counts": {
      "time": 2,
      "duration": 2,
      "pitch": 2,
      "velocity": 2,
      "numerator": 2,
      "denominator": 2
    }
  },
  {
    "action": "execute_pt",
    "unit": "005",
    "bar_index": 6,
    "pt_name": "bass_clarinet_homophony_b54_1761517380107_dfb8",
    "N": 2,
    "seeds": {
      "time": 0,
      "duration": 4,
      "pitch": 52,
      "velocity": 56,
      "numerator": 3,
      "denominator": 4
    },
    "sample_counts": {
      "time": 2,
      "duration": 2,
      "pitch": 2,
      "velocity": 2,
      "numerator": 2,
      "denominator": 2
    }
  },
  {
    "action": "execute_pt",
    "unit": "005",
    "bar_index": 6,
    "pt_name": "trumpet_homophony_b54_1761517380107_c3c9",
    "N": 2,
    "seeds": {
      "time": 0,
      "duration": 4,
      "pitch": 74,
      "velocity": 63,
      "numerator": 3,
      "denominator": 4
    },
    "sample_counts": {
      "time": 2,
      "duration": 2,
      "pitch": 2,
      "velocity": 2,
      "numerator": 2,
      "denominator": 2
    }
  },
  {
    "action": "execute_pt",
    "unit": "005",
    "bar_index": 6,
    "pt_name": "violin_homophony_b54_1761517380107_f0a2",
    "N": 2,
    "seeds": {
      "time": 0,
      "duration": 4,
      "pitch": 64,
      "velocity": 55,
      "numerator": 3,
      "denominator": 4
    },
    "sample_counts": {
      "time": 2,
      "duration": 2,
      "pitch": 2,
      "velocity": 2,
      "numerator": 2,
      "denominator": 2
    }
  },
  {
    "action": "execute_pt",
    "unit": "005",
    "bar_index": 6,
    "pt_name": "cello_homophony_b54_1761517380107_ea68",
    "N": 2,
    "seeds": {
      "time": 0,
      "duration": 4,
      "pitch": 57,
      "velocity": 53,
      "numerator": 3,
      "denominator": 4
    },
    "sample_counts": {
      "time": 2,
      "duration": 2,
      "pitch": 2,
      "velocity": 2,
      "numerator": 2,
      "denominator": 2
    }
  },
  {
    "action": "execute_pt",
    "unit": "005",
    "bar_index": 6,
    "pt_name": "double_bass_homophony_b54_1761517380107_236e",
    "N": 2,
    "seeds": {
      "time": 0,
      "duration": 4,
      "pitch": 45,
      "velocity": 51,
      "numerator": 3,
      "denominator": 4
    },
    "sample_counts": {
      "time": 2,
      "duration": 2,
      "pitch": 2,
      "velocity": 2,
      "numerator": 2,
      "denominator": 2
    }
  },
  {
    "action": "execute_pt",
    "unit": "005",
    "bar_index": 7,
    "pt_name": "alto_flute_homophony_b55_1761517388373_d6ca",
    "N": 1,
    "seeds": {
      "time": 0,
      "duration": 12,
      "pitch": 71,
      "velocity": 56,
      "numerator": 3,
      "denominator": 4
    },
    "sample_counts": {
      "time": 1,
      "duration": 1,
      "pitch": 1,
      "velocity": 1,
      "numerator": 1,
      "denominator": 1
    }
  },
  {
    "action": "execute_pt",
    "unit": "005",
    "bar_index": 7,
    "pt_name": "bass_clarinet_homophony_b55_1761517388373_5976",
    "N": 1,
    "seeds": {
      "time": 0,
      "duration": 12,
      "pitch": 57,
      "velocity": 54,
      "numerator": 3,
      "denominator": 4
    },
    "sample_counts": {
      "time": 1,
      "duration": 1,
      "pitch": 1,
      "velocity": 1,
      "numerator": 1,
      "denominator": 1
    }
  },
  {
    "action": "execute_pt",
    "unit": "005",
    "bar_index": 7,
    "pt_name": "trumpet_homophony_b55_1761517388373_9e8c",
    "N": 1,
    "seeds": {
      "time": 0,
      "duration": 12,
      "pitch": 74,
      "velocity": 60,
      "numerator": 3,
      "denominator": 4
    },
    "sample_counts": {
      "time": 1,
      "duration": 1,
      "pitch": 1,
      "velocity": 1,
      "numerator": 1,
      "denominator": 1
    }
  },
  {
    "action": "execute_pt",
    "unit": "005",
    "bar_index": 7,
    "pt_name": "violin_homophony_b55_1761517388373_63d3",
    "N": 1,
    "seeds": {
      "time": 0,
      "duration": 12,
      "pitch": 69,
      "velocity": 53,
      "numerator": 3,
      "denominator": 4
    },
    "sample_counts": {
      "time": 1,
      "duration": 1,
      "pitch": 1,
      "velocity": 1,
      "numerator": 1,
      "denominator": 1
    }
  },
  {
    "action": "execute_pt",
    "unit": "005",
    "bar_index": 7,
    "pt_name": "cello_homophony_b55_1761517388373_1e8f",
    "N": 1,
    "seeds": {
      "time": 0,
      "duration": 12,
      "pitch": 62,
      "velocity": 51,
      "numerator": 3,
      "denominator": 4
    },
    "sample_counts": {
      "time": 1,
      "duration": 1,
      "pitch": 1,
      "velocity": 1,
      "numerator": 1,
      "denominator": 1
    }
  },
  {
    "action": "execute_pt",
    "unit": "005",
    "bar_index": 7,
    "pt_name": "double_bass_homophony_b55_1761517388373_57d0",
    "N": 1,
    "seeds": {
      "time": 0,
      "duration": 12,
      "pitch": 50,
      "velocity": 49,
      "numerator": 3,
      "denominator": 4
    },
    "sample_counts": {
      "time": 1,
      "duration": 1,
      "pitch": 1,
      "velocity": 1,
      "numerator": 1,
      "denominator": 1
    }
  },
  {
    "action": "execute_pt",
    "unit": "005",
    "bar_index": 8,
    "pt_name": "alto_flute_homophony_b56_1761517396877_2185",
    "N": 1,
    "seeds": {
      "time": 4,
      "duration": 8,
      "pitch": 66,
      "velocity": 52,
      "numerator": 3,
      "denominator": 4
    },
    "sample_counts": {
      "time": 1,
      "duration": 1,
      "pitch": 1,
      "velocity": 1,
      "numerator": 1,
      "denominator": 1
    }
  },
  {
    "action": "execute_pt",
    "unit": "005",
    "bar_index": 8,
    "pt_name": "bass_clarinet_homophony_b56_1761517396877_79b0",
    "N": 1,
    "seeds": {
      "time": 4,
      "duration": 8,
      "pitch": 50,
      "velocity": 50,
      "numerator": 3,
      "denominator": 4
    },
    "sample_counts": {
      "time": 1,
      "duration": 1,
      "pitch": 1,
      "velocity": 1,
      "numerator": 1,
      "denominator": 1
    }
  },
  {
    "action": "execute_pt",
    "unit": "005",
    "bar_index": 8,
    "pt_name": "trumpet_homophony_b56_1761517396877_02dc",
    "N": 1,
    "seeds": {
      "time": 4,
      "duration": 8,
      "pitch": 71,
      "velocity": 56,
      "numerator": 3,
      "denominator": 4
    },
    "sample_counts": {
      "time": 1,
      "duration": 1,
      "pitch": 1,
      "velocity": 1,
      "numerator": 1,
      "denominator": 1
    }
  },
  {
    "action": "execute_pt",
    "unit": "005",
    "bar_index": 8,
    "pt_name": "violin_homophony_b56_1761517396877_d58e",
    "N": 1,
    "seeds": {
      "time": 4,
      "duration": 8,
      "pitch": 67,
      "velocity": 48,
      "numerator": 3,
      "denominator": 4
    },
    "sample_counts": {
      "time": 1,
      "duration": 1,
      "pitch": 1,
      "velocity": 1,
      "numerator": 1,
      "denominator": 1
    }
  },
  {
    "action": "execute_pt",
    "unit": "005",
    "bar_index": 8,
    "pt_name": "cello_homophony_b56_1761517396877_2534",
    "N": 1,
    "seeds": {
      "time": 4,
      "duration": 8,
      "pitch": 55,
      "velocity": 46,
      "numerator": 3,
      "denominator": 4
    },
    "sample_counts": {
      "time": 1,
      "duration": 1,
      "pitch": 1,
      "velocity": 1,
      "numerator": 1,
      "denominator": 1
    }
  },
  {
    "action": "execute_pt",
    "unit": "005",
    "bar_index": 8,
    "pt_name": "double_bass_homophony_b56_1761517396877_ee93",
    "N": 1,
    "seeds": {
      "time": 4,
      "duration": 8,
      "pitch": 43,
      "velocity": 44,
      "numerator": 3,
      "denominator": 4
    },
    "sample_counts": {
      "time": 1,
      "duration": 1,
      "pitch": 1,
      "velocity": 1,
      "numerator": 1,
      "denominator": 1
    }
  },
  {
    "action": "execute_pt",
    "unit": "005",
    "bar_index": 9,
    "pt_name": "alto_flute_homophony_b57_1761517405318_0a65",
    "N": 2,
    "seeds": {
      "time": 0,
      "duration": 8,
      "pitch": 69,
      "velocity": 50,
      "numerator": 3,
      "denominator": 4
    },
    "sample_counts": {
      "time": 2,
      "duration": 2,
      "pitch": 2,
      "velocity": 2,
      "numerator": 2,
      "denominator": 2
    }
  },
  {
    "action": "execute_pt",
    "unit": "005",
    "bar_index": 9,
    "pt_name": "bass_clarinet_homophony_b57_1761517405318_6213",
    "N": 2,
    "seeds": {
      "time": 0,
      "duration": 8,
      "pitch": 54,
      "velocity": 48,
      "numerator": 3,
      "denominator": 4
    },
    "sample_counts": {
      "time": 2,
      "duration": 2,
      "pitch": 2,
      "velocity": 2,
      "numerator": 2,
      "denominator": 2
    }
  },
  {
    "action": "execute_pt",
    "unit": "005",
    "bar_index": 9,
    "pt_name": "trumpet_homophony_b57_1761517405318_f2a9",
    "N": 2,
    "seeds": {
      "time": 0,
      "duration": 8,
      "pitch": 71,
      "velocity": 54,
      "numerator": 3,
      "denominator": 4
    },
    "sample_counts": {
      "time": 2,
      "duration": 2,
      "pitch": 2,
      "velocity": 2,
      "numerator": 2,
      "denominator": 2
    }
  },
  {
    "action": "execute_pt",
    "unit": "005",
    "bar_index": 9,
    "pt_name": "violin_homophony_b57_1761517405318_2a47",
    "N": 2,
    "seeds": {
      "time": 0,
      "duration": 8,
      "pitch": 66,
      "velocity": 46,
      "numerator": 3,
      "denominator": 4
    },
    "sample_counts": {
      "time": 2,
      "duration": 2,
      "pitch": 2,
      "velocity": 2,
      "numerator": 2,
      "denominator": 2
    }
  },
  {
    "action": "execute_pt",
    "unit": "005",
    "bar_index": 9,
    "pt_name": "cello_homophony_b57_1761517405318_0c44",
    "N": 2,
    "seeds": {
      "time": 0,
      "duration": 8,
      "pitch": 59,
      "velocity": 44,
      "numerator": 3,
      "denominator": 4
    },
    "sample_counts": {
      "time": 2,
      "duration": 2,
      "pitch": 2,
      "velocity": 2,
      "numerator": 2,
      "denominator": 2
    }
  },
  {
    "action": "execute_pt",
    "unit": "005",
    "bar_index": 9,
    "pt_name": "double_bass_homophony_b57_1761517405318_c834",
    "N": 2,
    "seeds": {
      "time": 0,
      "duration": 8,
      "pitch": 47,
      "velocity": 42,
      "numerator": 3,
      "denominator": 4
    },
    "sample_counts": {
      "time": 2,
      "duration": 2,
      "pitch": 2,
      "velocity": 2,
      "numerator": 2,
      "denominator": 2
    }
  },
  {
    "action": "execute_pt",
    "unit": "005",
    "bar_index": 10,
    "pt_name": "alto_flute_homophony_b58_1761517413275_dff4",
    "N": 2,
    "seeds": {
      "time": 0,
      "duration": 4,
      "pitch": 67,
      "velocity": 48,
      "numerator": 3,
      "denominator": 4
    },
    "sample_counts": {
      "time": 2,
      "duration": 2,
      "pitch": 2,
      "velocity": 2,
      "numerator": 2,
      "denominator": 2
    }
  },
  {
    "action": "execute_pt",
    "unit": "005",
    "bar_index": 10,
    "pt_name": "bass_clarinet_homophony_b58_1761517413275_557b",
    "N": 2,
    "seeds": {
      "time": 0,
      "duration": 4,
      "pitch": 48,
      "velocity": 46,
      "numerator": 3,
      "denominator": 4
    },
    "sample_counts": {
      "time": 2,
      "duration": 2,
      "pitch": 2,
      "velocity": 2,
      "numerator": 2,
      "denominator": 2
    }
  },
  {
    "action": "execute_pt",
    "unit": "005",
    "bar_index": 10,
    "pt_name": "trumpet_homophony_b58_1761517413275_c53e",
    "N": 2,
    "seeds": {
      "time": 0,
      "duration": 4,
      "pitch": 72,
      "velocity": 52,
      "numerator": 3,
      "denominator": 4
    },
    "sample_counts": {
      "time": 2,
      "duration": 2,
      "pitch": 2,
      "velocity": 2,
      "numerator": 2,
      "denominator": 2
    }
  },
  {
    "action": "execute_pt",
    "unit": "005",
    "bar_index": 10,
    "pt_name": "violin_homophony_b58_1761517413275_7dfe",
    "N": 2,
    "seeds": {
      "time": 0,
      "duration": 4,
      "pitch": 60,
      "velocity": 44,
      "numerator": 3,
      "denominator": 4
    },
    "sample_counts": {
      "time": 2,
      "duration": 2,
      "pitch": 2,
      "velocity": 2,
      "numerator": 2,
      "denominator": 2
    }
  },
  {
    "action": "execute_pt",
    "unit": "005",
    "bar_index": 10,
    "pt_name": "cello_homophony_b58_1761517413275_cd23",
    "N": 2,
    "seeds": {
      "time": 0,
      "duration": 4,
      "pitch": 53,
      "velocity": 42,
      "numerator": 3,
      "denominator": 4
    },
    "sample_counts": {
      "time": 2,
      "duration": 2,
      "pitch": 2,
      "velocity": 2,
      "numerator": 2,
      "denominator": 2
    }
  },
  {
    "action": "execute_pt",
    "unit": "005",
    "bar_index": 10,
    "pt_name": "double_bass_homophony_b58_1761517413275_423c",
    "N": 2,
    "seeds": {
      "time": 0,
      "duration": 4,
      "pitch": 41,
      "velocity": 40,
      "numerator": 3,
      "denominator": 4
    },
    "sample_counts": {
      "time": 2,
      "duration": 2,
      "pitch": 2,
      "velocity": 2,
      "numerator": 2,
      "denominator": 2
    }
  },
  {
    "action": "execute_pt",
    "unit": "005",
    "bar_index": 11,
    "pt_name": "alto_flute_homophony_b59_1761517421182_30fa",
    "N": 1,
    "seeds": {
      "time": 0,
      "duration": 8,
      "pitch": 66,
      "velocity": 46,
      "numerator": 3,
      "denominator": 4
    },
    "sample_counts": {
      "time": 1,
      "duration": 1,
      "pitch": 1,
      "velocity": 1,
      "numerator": 1,
      "denominator": 1
    }
  },
  {
    "action": "execute_pt",
    "unit": "005",
    "bar_index": 11,
    "pt_name": "bass_clarinet_homophony_b59_1761517421182_9190",
    "N": 1,
    "seeds": {
      "time": 0,
      "duration": 8,
      "pitch": 47,
      "velocity": 44,
      "numerator": 3,
      "denominator": 4
    },
    "sample_counts": {
      "time": 1,
      "duration": 1,
      "pitch": 1,
      "velocity": 1,
      "numerator": 1,
      "denominator": 1
    }
  },
  {
    "action": "execute_pt",
    "unit": "005",
    "bar_index": 11,
    "pt_name": "trumpet_homophony_b59_1761517421182_4f23",
    "N": 1,
    "seeds": {
      "time": 0,
      "duration": 8,
      "pitch": 69,
      "velocity": 50,
      "numerator": 3,
      "denominator": 4
    },
    "sample_counts": {
      "time": 1,
      "duration": 1,
      "pitch": 1,
      "velocity": 1,
      "numerator": 1,
      "denominator": 1
    }
  },
  {
    "action": "execute_pt",
    "unit": "005",
    "bar_index": 11,
    "pt_name": "violin_homophony_b59_1761517421182_5904",
    "N": 1,
    "seeds": {
      "time": 0,
      "duration": 8,
      "pitch": 59,
      "velocity": 42,
      "numerator": 3,
      "denominator": 4
    },
    "sample_counts": {
      "time": 1,
      "duration": 1,
      "pitch": 1,
      "velocity": 1,
      "numerator": 1,
      "denominator": 1
    }
  },
  {
    "action": "execute_pt",
    "unit": "005",
    "bar_index": 11,
    "pt_name": "cello_homophony_b59_1761517421182_de22",
    "N": 1,
    "seeds": {
      "time": 0,
      "duration": 8,
      "pitch": 52,
      "velocity": 40,
      "numerator": 3,
      "denominator": 4
    },
    "sample_counts": {
      "time": 1,
      "duration": 1,
      "pitch": 1,
      "velocity": 1,
      "numerator": 1,
      "denominator": 1
    }
  },
  {
    "action": "execute_pt",
    "unit": "005",
    "bar_index": 11,
    "pt_name": "double_bass_homophony_b59_1761517421182_eee4",
    "N": 1,
    "seeds": {
      "time": 0,
      "duration": 8,
      "pitch": 40,
      "velocity": 38,
      "numerator": 3,
      "denominator": 4
    },
    "sample_counts": {
      "time": 1,
      "duration": 1,
      "pitch": 1,
      "velocity": 1,
      "numerator": 1,
      "denominator": 1
    }
  },
  {
    "action": "execute_pt",
    "unit": "005",
    "bar_index": 12,
    "pt_name": "alto_flute_homophony_b60_1761517429387_9d40",
    "N": 1,
    "seeds": {
      "time": 0,
      "duration": 12,
      "pitch": 67,
      "velocity": 44,
      "numerator": 3,
      "denominator": 4
    },
    "sample_counts": {
      "time": 1,
      "duration": 1,
      "pitch": 1,
      "velocity": 1,
      "numerator": 1,
      "denominator": 1
    }
  },
  {
    "action": "execute_pt",
    "unit": "005",
    "bar_index": 12,
    "pt_name": "bass_clarinet_homophony_b60_1761517429387_3bbe",
    "N": 1,
    "seeds": {
      "time": 0,
      "duration": 12,
      "pitch": 50,
      "velocity": 42,
      "numerator": 3,
      "denominator": 4
    },
    "sample_counts": {
      "time": 1,
      "duration": 1,
      "pitch": 1,
      "velocity": 1,
      "numerator": 1,
      "denominator": 1
    }
  },
  {
    "action": "execute_pt",
    "unit": "005",
    "bar_index": 12,
    "pt_name": "trumpet_homophony_b60_1761517429387_c179",
    "N": 1,
    "seeds": {
      "time": 0,
      "duration": 12,
      "pitch": 69,
      "velocity": 48,
      "numerator": 3,
      "denominator": 4
    },
    "sample_counts": {
      "time": 1,
      "duration": 1,
      "pitch": 1,
      "velocity": 1,
      "numerator": 1,
      "denominator": 1
    }
  },
  {
    "action": "execute_pt",
    "unit": "005",
    "bar_index": 12,
    "pt_name": "violin_homophony_b60_1761517429387_78c4",
    "N": 1,
    "seeds": {
      "time": 0,
      "duration": 12,
      "pitch": 62,
      "velocity": 40,
      "numerator": 3,
      "denominator": 4
    },
    "sample_counts": {
      "time": 1,
      "duration": 1,
      "pitch": 1,
      "velocity": 1,
      "numerator": 1,
      "denominator": 1
    }
  },
  {
    "action": "execute_pt",
    "unit": "005",
    "bar_index": 12,
    "pt_name": "cello_homophony_b60_1761517429387_c9b7",
    "N": 1,
    "seeds": {
      "time": 0,
      "duration": 12,
      "pitch": 55,
      "velocity": 38,
      "numerator": 3,
      "denominator": 4
    },
    "sample_counts": {
      "time": 1,
      "duration": 1,
      "pitch": 1,
      "velocity": 1,
      "numerator": 1,
      "denominator": 1
    }
  },
  {
    "action": "execute_pt",
    "unit": "005",
    "bar_index": 12,
    "pt_name": "double_bass_homophony_b60_1761517429387_611e",
    "N": 1,
    "seeds": {
      "time": 0,
      "duration": 12,
      "pitch": 43,
      "velocity": 36,
      "numerator": 3,
      "denominator": 4
    },
    "sample_counts": {
      "time": 1,
      "duration": 1,
      "pitch": 1,
      "velocity": 1,
      "numerator": 1,
      "denominator": 1
    }
  },
  {
    "action": "execute_pt",
    "unit": "005",
    "bar_index": 13,
    "pt_name": "alto_flute_homophony_b52_1761517437795_a14f",
    "N": 1,
    "seeds": {
      "time": 0,
      "duration": 1,
      "pitch": 60,
      "velocity": 1,
      "numerator": 3,
      "denominator": 4
    },
    "sample_counts": {
      "time": 1,
      "duration": 1,
      "pitch": 1,
      "velocity": 1,
      "numerator": 1,
      "denominator": 1
    }
  },
  {
    "action": "execute_pt",
    "unit": "005",
    "bar_index": 13,
    "pt_name": "bass_clarinet_homophony_b52_1761517437795_2172",
    "N": 1,
    "seeds": {
      "time": 0,
      "duration": 1,
      "pitch": 60,
      "velocity": 1,
      "numerator": 3,
      "denominator": 4
    },
    "sample_counts": {
      "time": 1,
      "duration": 1,
      "pitch": 1,
      "velocity": 1,
      "numerator": 1,
      "denominator": 1
    }
  },
  {
    "action": "execute_pt",
    "unit": "005",
    "bar_index": 13,
    "pt_name": "trumpet_homophony_b52_1761517437795_4f37",
    "N": 1,
    "seeds": {
      "time": 0,
      "duration": 1,
      "pitch": 60,
      "velocity": 1,
      "numerator": 3,
      "denominator": 4
    },
    "sample_counts": {
      "time": 1,
      "duration": 1,
      "pitch": 1,
      "velocity": 1,
      "numerator": 1,
      "denominator": 1
    }
  },
  {
    "action": "execute_pt",
    "unit": "005",
    "bar_index": 13,
    "pt_name": "violin_homophony_b52_1761517437795_f14b",
    "N": 1,
    "seeds": {
      "time": 0,
      "duration": 1,
      "pitch": 60,
      "velocity": 1,
      "numerator": 3,
      "denominator": 4
    },
    "sample_counts": {
      "time": 1,
      "duration": 1,
      "pitch": 1,
      "velocity": 1,
      "numerator": 1,
      "denominator": 1
    }
  },
  {
    "action": "execute_pt",
    "unit": "005",
    "bar_index": 13,
    "pt_name": "cello_homophony_b52_1761517437795_225a",
    "N": 1,
    "seeds": {
      "time": 0,
      "duration": 1,
      "pitch": 60,
      "velocity": 1,
      "numerator": 3,
      "denominator": 4
    },
    "sample_counts": {
      "time": 1,
      "duration": 1,
      "pitch": 1,
      "velocity": 1,
      "numerator": 1,
      "denominator": 1
    }
  },
  {
    "action": "execute_pt",
    "unit": "005",
    "bar_index": 13,
    "pt_name": "double_bass_homophony_b52_1761517437795_0fc5",
    "N": 1,
    "seeds": {
      "time": 0,
      "duration": 1,
      "pitch": 60,
      "velocity": 1,
      "numerator": 3,
      "denominator": 4
    },
    "sample_counts": {
      "time": 1,
      "duration": 1,
      "pitch": 1,
      "velocity": 1,
      "numerator": 1,
      "denominator": 1
    }
  },
  {
    "action": "execute_pt",
    "unit": "005",
    "bar_index": 14,
    "pt_name": "alto_flute_homophony_b53_1761517446596_2cec",
    "N": 1,
    "seeds": {
      "time": 0,
      "duration": 1,
      "pitch": 60,
      "velocity": 1,
      "numerator": 3,
      "denominator": 4
    },
    "sample_counts": {
      "time": 1,
      "duration": 1,
      "pitch": 1,
      "velocity": 1,
      "numerator": 1,
      "denominator": 1
    }
  },
  {
    "action": "execute_pt",
    "unit": "005",
    "bar_index": 14,
    "pt_name": "bass_clarinet_homophony_b53_1761517446596_6edf",
    "N": 1,
    "seeds": {
      "time": 0,
      "duration": 1,
      "pitch": 60,
      "velocity": 1,
      "numerator": 3,
      "denominator": 4
    },
    "sample_counts": {
      "time": 1,
      "duration": 1,
      "pitch": 1,
      "velocity": 1,
      "numerator": 1,
      "denominator": 1
    }
  },
  {
    "action": "execute_pt",
    "unit": "005",
    "bar_index": 14,
    "pt_name": "trumpet_homophony_b53_1761517446596_5b48",
    "N": 1,
    "seeds": {
      "time": 0,
      "duration": 1,
      "pitch": 60,
      "velocity": 1,
      "numerator": 3,
      "denominator": 4
    },
    "sample_counts": {
      "time": 1,
      "duration": 1,
      "pitch": 1,
      "velocity": 1,
      "numerator": 1,
      "denominator": 1
    }
  },
  {
    "action": "execute_pt",
    "unit": "005",
    "bar_index": 14,
    "pt_name": "violin_homophony_b53_1761517446596_a5cc",
    "N": 1,
    "seeds": {
      "time": 0,
      "duration": 1,
      "pitch": 60,
      "velocity": 1,
      "numerator": 3,
      "denominator": 4
    },
    "sample_counts": {
      "time": 1,
      "duration": 1,
      "pitch": 1,
      "velocity": 1,
      "numerator": 1,
      "denominator": 1
    }
  },
  {
    "action": "execute_pt",
    "unit": "005",
    "bar_index": 14,
    "pt_name": "cello_homophony_b53_1761517446596_0e20",
    "N": 1,
    "seeds": {
      "time": 0,
      "duration": 1,
      "pitch": 60,
      "velocity": 1,
      "numerator": 3,
      "denominator": 4
    },
    "sample_counts": {
      "time": 1,
      "duration": 1,
      "pitch": 1,
      "velocity": 1,
      "numerator": 1,
      "denominator": 1
    }
  },
  {
    "action": "execute_pt",
    "unit": "005",
    "bar_index": 14,
    "pt_name": "double_bass_homophony_b53_1761517446596_5865",
    "N": 1,
    "seeds": {
      "time": 0,
      "duration": 1,
      "pitch": 60,
      "velocity": 1,
      "numerator": 3,
      "denominator": 4
    },
    "sample_counts": {
      "time": 1,
      "duration": 1,
      "pitch": 1,
      "velocity": 1,
      "numerator": 1,
      "denominator": 1
    }
  }
]