[
  {
    "action": "execute_pt",
    "unit": "001",
    "bar_index": 1,
    "pt_name": "alto_flute_tacet_b1_1761584171718_208d",
    "N": 1,
    "seeds": {
      "time": 11,
      "duration": 1,
      "pitch": 60,
      "velocity": 0,
      "numerator": 3,
      "denominator": 4
    },
    "sample_counts": {
      "time": 1,
      "duration": 1,
      "pitch": 1,
      "velocity": 1,
      "numerator": 1,
      "denominator": 1
    }
  },
  {
    "action": "execute_pt",
    "unit": "001",
    "bar_index": 1,
    "pt_name": "violin_upper_voice_b1_1761584171718_13ad",
    "N": 2,
    "seeds": {
      "time": 0,
      "duration": 4,
      "pitch": 68,
      "velocity": 42,
      "numerator": 3,
      "denominator": 4
    },
    "sample_counts": {
      "time": 2,
      "duration": 2,
      "pitch": 2,
      "velocity": 2,
      "numerator": 2,
      "denominator": 2
    }
  },
  {
    "action": "execute_pt",
    "unit": "001",
    "bar_index": 1,
    "pt_name": "bass_clarinet_tacet_b1_1761584171718_c220",
    "N": 1,
    "seeds": {
      "time": 11,
      "duration": 1,
      "pitch": 60,
      "velocity": 0,
      "numerator": 3,
      "denominator": 4
    },
    "sample_counts": {
      "time": 1,
      "duration": 1,
      "pitch": 1,
      "velocity": 1,
      "numerator": 1,
      "denominator": 1
    }
  },
  {
    "action": "execute_pt",
    "unit": "001",
    "bar_index": 1,
    "pt_name": "trumpet_tacet_b1_1761584171718_c16f",
    "N": 1,
    "seeds": {
      "time": 11,
      "duration": 1,
      "pitch": 60,
      "velocity": 0,
      "numerator": 3,
      "denominator": 4
    },
    "sample_counts": {
      "time": 1,
      "duration": 1,
      "pitch": 1,
      "velocity": 1,
      "numerator": 1,
      "denominator": 1
    }
  },
  {
    "action": "execute_pt",
    "unit": "001",
    "bar_index": 1,
    "pt_name": "cello_inner_voice_b1_1761584171718_09e8",
    "N": 2,
    "seeds": {
      "time": 0,
      "duration": 4,
      "pitch": 59,
      "velocity": 40,
      "numerator": 3,
      "denominator": 4
    },
    "sample_counts": {
      "time": 2,
      "duration": 2,
      "pitch": 2,
      "velocity": 2,
      "numerator": 2,
      "denominator": 2
    }
  },
  {
    "action": "execute_pt",
    "unit": "001",
    "bar_index": 1,
    "pt_name": "double_bass_root_b1_1761584171718_293c",
    "N": 2,
    "seeds": {
      "time": 0,
      "duration": 4,
      "pitch": 40,
      "velocity": 38,
      "numerator": 3,
      "denominator": 4
    },
    "sample_counts": {
      "time": 2,
      "duration": 2,
      "pitch": 2,
      "velocity": 2,
      "numerator": 2,
      "denominator": 2
    }
  },
  {
    "action": "execute_pt",
    "unit": "001",
    "bar_index": 2,
    "pt_name": "alto_flute_tacet_b2_1761584179787_cb48",
    "N": 1,
    "seeds": {
      "time": 11,
      "duration": 1,
      "pitch": 60,
      "velocity": 0,
      "numerator": 3,
      "denominator": 4
    },
    "sample_counts": {
      "time": 1,
      "duration": 1,
      "pitch": 1,
      "velocity": 1,
      "numerator": 1,
      "denominator": 1
    }
  },
  {
    "action": "execute_pt",
    "unit": "001",
    "bar_index": 2,
    "pt_name": "violin_upper_voice_b2_1761584179787_07f3",
    "N": 2,
    "seeds": {
      "time": 0,
      "duration": 8,
      "pitch": 62,
      "velocity": 44,
      "numerator": 3,
      "denominator": 4
    },
    "sample_counts": {
      "time": 2,
      "duration": 2,
      "pitch": 2,
      "velocity": 2,
      "numerator": 2,
      "denominator": 2
    }
  },
  {
    "action": "execute_pt",
    "unit": "001",
    "bar_index": 2,
    "pt_name": "bass_clarinet_tacet_b2_1761584179787_b6ff",
    "N": 1,
    "seeds": {
      "time": 11,
      "duration": 1,
      "pitch": 60,
      "velocity": 0,
      "numerator": 3,
      "denominator": 4
    },
    "sample_counts": {
      "time": 1,
      "duration": 1,
      "pitch": 1,
      "velocity": 1,
      "numerator": 1,
      "denominator": 1
    }
  },
  {
    "action": "execute_pt",
    "unit": "001",
    "bar_index": 2,
    "pt_name": "trumpet_tacet_b2_1761584179787_1d7c",
    "N": 1,
    "seeds": {
      "time": 11,
      "duration": 1,
      "pitch": 60,
      "velocity": 0,
      "numerator": 3,
      "denominator": 4
    },
    "sample_counts": {
      "time": 1,
      "duration": 1,
      "pitch": 1,
      "velocity": 1,
      "numerator": 1,
      "denominator": 1
    }
  },
  {
    "action": "execute_pt",
    "unit": "001",
    "bar_index": 2,
    "pt_name": "cello_inner_voice_b2_1761584179787_0901",
    "N": 2,
    "seeds": {
      "time": 0,
      "duration": 8,
      "pitch": 53,
      "velocity": 42,
      "numerator": 3,
      "denominator": 4
    },
    "sample_counts": {
      "time": 2,
      "duration": 2,
      "pitch": 2,
      "velocity": 2,
      "numerator": 2,
      "denominator": 2
    }
  },
  {
    "action": "execute_pt",
    "unit": "001",
    "bar_index": 2,
    "pt_name": "double_bass_root_b2_1761584179787_eebe",
    "N": 2,
    "seeds": {
      "time": 0,
      "duration": 8,
      "pitch": 46,
      "velocity": 40,
      "numerator": 3,
      "denominator": 4
    },
    "sample_counts": {
      "time": 2,
      "duration": 2,
      "pitch": 2,
      "velocity": 2,
      "numerator": 2,
      "denominator": 2
    }
  },
  {
    "action": "execute_pt",
    "unit": "001",
    "bar_index": 3,
    "pt_name": "alto_flute_tacet_b3_1761584187641_1e2e",
    "N": 1,
    "seeds": {
      "time": 11,
      "duration": 1,
      "pitch": 60,
      "velocity": 0,
      "numerator": 3,
      "denominator": 4
    },
    "sample_counts": {
      "time": 1,
      "duration": 1,
      "pitch": 1,
      "velocity": 1,
      "numerator": 1,
      "denominator": 1
    }
  },
  {
    "action": "execute_pt",
    "unit": "001",
    "bar_index": 3,
    "pt_name": "violin_upper_voice_b3_1761584187641_f912",
    "N": 1,
    "seeds": {
      "time": 0,
      "duration": 12,
      "pitch": 64,
      "velocity": 42,
      "numerator": 3,
      "denominator": 4
    },
    "sample_counts": {
      "time": 1,
      "duration": 1,
      "pitch": 1,
      "velocity": 1,
      "numerator": 1,
      "denominator": 1
    }
  },
  {
    "action": "execute_pt",
    "unit": "001",
    "bar_index": 3,
    "pt_name": "bass_clarinet_tacet_b3_1761584187641_882a",
    "N": 1,
    "seeds": {
      "time": 11,
      "duration": 1,
      "pitch": 60,
      "velocity": 0,
      "numerator": 3,
      "denominator": 4
    },
    "sample_counts": {
      "time": 1,
      "duration": 1,
      "pitch": 1,
      "velocity": 1,
      "numerator": 1,
      "denominator": 1
    }
  },
  {
    "action": "execute_pt",
    "unit": "001",
    "bar_index": 3,
    "pt_name": "trumpet_tacet_b3_1761584187641_1832",
    "N": 1,
    "seeds": {
      "time": 11,
      "duration": 1,
      "pitch": 60,
      "velocity": 0,
      "numerator": 3,
      "denominator": 4
    },
    "sample_counts": {
      "time": 1,
      "duration": 1,
      "pitch": 1,
      "velocity": 1,
      "numerator": 1,
      "denominator": 1
    }
  },
  {
    "action": "execute_pt",
    "unit": "001",
    "bar_index": 3,
    "pt_name": "cello_inner_voice_b3_1761584187641_6b4c",
    "N": 1,
    "seeds": {
      "time": 0,
      "duration": 12,
      "pitch": 57,
      "velocity": 40,
      "numerator": 3,
      "denominator": 4
    },
    "sample_counts": {
      "time": 1,
      "duration": 1,
      "pitch": 1,
      "velocity": 1,
      "numerator": 1,
      "denominator": 1
    }
  },
  {
    "action": "execute_pt",
    "unit": "001",
    "bar_index": 3,
    "pt_name": "double_bass_root_b3_1761584187641_69ad",
    "N": 1,
    "seeds": {
      "time": 0,
      "duration": 12,
      "pitch": 38,
      "velocity": 38,
      "numerator": 3,
      "denominator": 4
    },
    "sample_counts": {
      "time": 1,
      "duration": 1,
      "pitch": 1,
      "velocity": 1,
      "numerator": 1,
      "denominator": 1
    }
  },
  {
    "action": "execute_pt",
    "unit": "001",
    "bar_index": 4,
    "pt_name": "alto_flute_tacet_b4_1761584194748_d837",
    "N": 1,
    "seeds": {
      "time": 11,
      "duration": 1,
      "pitch": 60,
      "velocity": 0,
      "numerator": 3,
      "denominator": 4
    },
    "sample_counts": {
      "time": 1,
      "duration": 1,
      "pitch": 1,
      "velocity": 1,
      "numerator": 1,
      "denominator": 1
    }
  },
  {
    "action": "execute_pt",
    "unit": "001",
    "bar_index": 4,
    "pt_name": "violin_upper_voice_b4_1761584194748_95e8",
    "N": 1,
    "seeds": {
      "time": 4,
      "duration": 8,
      "pitch": 69,
      "velocity": 40,
      "numerator": 3,
      "denominator": 4
    },
    "sample_counts": {
      "time": 1,
      "duration": 1,
      "pitch": 1,
      "velocity": 1,
      "numerator": 1,
      "denominator": 1
    }
  },
  {
    "action": "execute_pt",
    "unit": "001",
    "bar_index": 4,
    "pt_name": "bass_clarinet_tacet_b4_1761584194748_4018",
    "N": 1,
    "seeds": {
      "time": 11,
      "duration": 1,
      "pitch": 60,
      "velocity": 0,
      "numerator": 3,
      "denominator": 4
    },
    "sample_counts": {
      "time": 1,
      "duration": 1,
      "pitch": 1,
      "velocity": 1,
      "numerator": 1,
      "denominator": 1
    }
  },
  {
    "action": "execute_pt",
    "unit": "001",
    "bar_index": 4,
    "pt_name": "trumpet_tacet_b4_1761584194749_090a",
    "N": 1,
    "seeds": {
      "time": 11,
      "duration": 1,
      "pitch": 60,
      "velocity": 0,
      "numerator": 3,
      "denominator": 4
    },
    "sample_counts": {
      "time": 1,
      "duration": 1,
      "pitch": 1,
      "velocity": 1,
      "numerator": 1,
      "denominator": 1
    }
  },
  {
    "action": "execute_pt",
    "unit": "001",
    "bar_index": 4,
    "pt_name": "cello_inner_voice_b4_1761584194749_248f",
    "N": 1,
    "seeds": {
      "time": 4,
      "duration": 8,
      "pitch": 61,
      "velocity": 38,
      "numerator": 3,
      "denominator": 4
    },
    "sample_counts": {
      "time": 1,
      "duration": 1,
      "pitch": 1,
      "velocity": 1,
      "numerator": 1,
      "denominator": 1
    }
  },
  {
    "action": "execute_pt",
    "unit": "001",
    "bar_index": 4,
    "pt_name": "double_bass_root_b4_1761584194749_75c4",
    "N": 1,
    "seeds": {
      "time": 4,
      "duration": 8,
      "pitch": 42,
      "velocity": 36,
      "numerator": 3,
      "denominator": 4
    },
    "sample_counts": {
      "time": 1,
      "duration": 1,
      "pitch": 1,
      "velocity": 1,
      "numerator": 1,
      "denominator": 1
    }
  },
  {
    "action": "execute_pt",
    "unit": "001",
    "bar_index": 5,
    "pt_name": "alto_flute_tacet_b5_1761584201809_ea96",
    "N": 1,
    "seeds": {
      "time": 11,
      "duration": 1,
      "pitch": 60,
      "velocity": 0,
      "numerator": 3,
      "denominator": 4
    },
    "sample_counts": {
      "time": 1,
      "duration": 1,
      "pitch": 1,
      "velocity": 1,
      "numerator": 1,
      "denominator": 1
    }
  },
  {
    "action": "execute_pt",
    "unit": "001",
    "bar_index": 5,
    "pt_name": "violin_upper_voice_b5_1761584201809_69e6",
    "N": 1,
    "seeds": {
      "time": 0,
      "duration": 8,
      "pitch": 64,
      "velocity": 38,
      "numerator": 3,
      "denominator": 4
    },
    "sample_counts": {
      "time": 1,
      "duration": 1,
      "pitch": 1,
      "velocity": 1,
      "numerator": 1,
      "denominator": 1
    }
  },
  {
    "action": "execute_pt",
    "unit": "001",
    "bar_index": 5,
    "pt_name": "bass_clarinet_tacet_b5_1761584201809_5075",
    "N": 1,
    "seeds": {
      "time": 11,
      "duration": 1,
      "pitch": 60,
      "velocity": 0,
      "numerator": 3,
      "denominator": 4
    },
    "sample_counts": {
      "time": 1,
      "duration": 1,
      "pitch": 1,
      "velocity": 1,
      "numerator": 1,
      "denominator": 1
    }
  },
  {
    "action": "execute_pt",
    "unit": "001",
    "bar_index": 5,
    "pt_name": "trumpet_tacet_b5_1761584201809_d3c5",
    "N": 1,
    "seeds": {
      "time": 11,
      "duration": 1,
      "pitch": 60,
      "velocity": 0,
      "numerator": 3,
      "denominator": 4
    },
    "sample_counts": {
      "time": 1,
      "duration": 1,
      "pitch": 1,
      "velocity": 1,
      "numerator": 1,
      "denominator": 1
    }
  },
  {
    "action": "execute_pt",
    "unit": "001",
    "bar_index": 5,
    "pt_name": "cello_inner_voice_b5_1761584201809_3d30",
    "N": 1,
    "seeds": {
      "time": 0,
      "duration": 8,
      "pitch": 55,
      "velocity": 36,
      "numerator": 3,
      "denominator": 4
    },
    "sample_counts": {
      "time": 1,
      "duration": 1,
      "pitch": 1,
      "velocity": 1,
      "numerator": 1,
      "denominator": 1
    }
  },
  {
    "action": "execute_pt",
    "unit": "001",
    "bar_index": 5,
    "pt_name": "double_bass_root_b5_1761584201809_2d1e",
    "N": 1,
    "seeds": {
      "time": 0,
      "duration": 8,
      "pitch": 36,
      "velocity": 34,
      "numerator": 3,
      "denominator": 4
    },
    "sample_counts": {
      "time": 1,
      "duration": 1,
      "pitch": 1,
      "velocity": 1,
      "numerator": 1,
      "denominator": 1
    }
  },
  {
    "action": "execute_pt",
    "unit": "001",
    "bar_index": 6,
    "pt_name": "alto_flute_tacet_b6_1761584208750_b58e",
    "N": 1,
    "seeds": {
      "time": 11,
      "duration": 1,
      "pitch": 60,
      "velocity": 0,
      "numerator": 3,
      "denominator": 4
    },
    "sample_counts": {
      "time": 1,
      "duration": 1,
      "pitch": 1,
      "velocity": 1,
      "numerator": 1,
      "denominator": 1
    }
  },
  {
    "action": "execute_pt",
    "unit": "001",
    "bar_index": 6,
    "pt_name": "violin_upper_voice_b6_1761584208750_0d3d",
    "N": 2,
    "seeds": {
      "time": 0,
      "duration": 8,
      "pitch": 61,
      "velocity": 41,
      "numerator": 3,
      "denominator": 4
    },
    "sample_counts": {
      "time": 2,
      "duration": 2,
      "pitch": 2,
      "velocity": 2,
      "numerator": 2,
      "denominator": 2
    }
  },
  {
    "action": "execute_pt",
    "unit": "001",
    "bar_index": 6,
    "pt_name": "bass_clarinet_tacet_b6_1761584208750_8be9",
    "N": 1,
    "seeds": {
      "time": 11,
      "duration": 1,
      "pitch": 60,
      "velocity": 0,
      "numerator": 3,
      "denominator": 4
    },
    "sample_counts": {
      "time": 1,
      "duration": 1,
      "pitch": 1,
      "velocity": 1,
      "numerator": 1,
      "denominator": 1
    }
  },
  {
    "action": "execute_pt",
    "unit": "001",
    "bar_index": 6,
    "pt_name": "trumpet_tacet_b6_1761584208750_95d3",
    "N": 1,
    "seeds": {
      "time": 11,
      "duration": 1,
      "pitch": 60,
      "velocity": 0,
      "numerator": 3,
      "denominator": 4
    },
    "sample_counts": {
      "time": 1,
      "duration": 1,
      "pitch": 1,
      "velocity": 1,
      "numerator": 1,
      "denominator": 1
    }
  },
  {
    "action": "execute_pt",
    "unit": "001",
    "bar_index": 6,
    "pt_name": "cello_inner_voice_b6_1761584208750_6236",
    "N": 2,
    "seeds": {
      "time": 0,
      "duration": 8,
      "pitch": 52,
      "velocity": 39,
      "numerator": 3,
      "denominator": 4
    },
    "sample_counts": {
      "time": 2,
      "duration": 2,
      "pitch": 2,
      "velocity": 2,
      "numerator": 2,
      "denominator": 2
    }
  },
  {
    "action": "execute_pt",
    "unit": "001",
    "bar_index": 6,
    "pt_name": "double_bass_root_b6_1761584208750_611a",
    "N": 2,
    "seeds": {
      "time": 0,
      "duration": 8,
      "pitch": 45,
      "velocity": 37,
      "numerator": 3,
      "denominator": 4
    },
    "sample_counts": {
      "time": 2,
      "duration": 2,
      "pitch": 2,
      "velocity": 2,
      "numerator": 2,
      "denominator": 2
    }
  },
  {
    "action": "execute_pt",
    "unit": "001",
    "bar_index": 7,
    "pt_name": "alto_flute_tacet_b7_1761584215831_fd83",
    "N": 1,
    "seeds": {
      "time": 11,
      "duration": 1,
      "pitch": 60,
      "velocity": 0,
      "numerator": 3,
      "denominator": 4
    },
    "sample_counts": {
      "time": 1,
      "duration": 1,
      "pitch": 1,
      "velocity": 1,
      "numerator": 1,
      "denominator": 1
    }
  },
  {
    "action": "execute_pt",
    "unit": "001",
    "bar_index": 7,
    "pt_name": "violin_upper_voice_b7_1761584215831_26da",
    "N": 2,
    "seeds": {
      "time": 0,
      "duration": 4,
      "pitch": 67,
      "velocity": 40,
      "numerator": 3,
      "denominator": 4
    },
    "sample_counts": {
      "time": 2,
      "duration": 2,
      "pitch": 2,
      "velocity": 2,
      "numerator": 2,
      "denominator": 2
    }
  },
  {
    "action": "execute_pt",
    "unit": "001",
    "bar_index": 7,
    "pt_name": "bass_clarinet_tacet_b7_1761584215831_5f2e",
    "N": 1,
    "seeds": {
      "time": 11,
      "duration": 1,
      "pitch": 60,
      "velocity": 0,
      "numerator": 3,
      "denominator": 4
    },
    "sample_counts": {
      "time": 1,
      "duration": 1,
      "pitch": 1,
      "velocity": 1,
      "numerator": 1,
      "denominator": 1
    }
  },
  {
    "action": "execute_pt",
    "unit": "001",
    "bar_index": 7,
    "pt_name": "trumpet_tacet_b7_1761584215831_f822",
    "N": 1,
    "seeds": {
      "time": 11,
      "duration": 1,
      "pitch": 60,
      "velocity": 0,
      "numerator": 3,
      "denominator": 4
    },
    "sample_counts": {
      "time": 1,
      "duration": 1,
      "pitch": 1,
      "velocity": 1,
      "numerator": 1,
      "denominator": 1
    }
  },
  {
    "action": "execute_pt",
    "unit": "001",
    "bar_index": 7,
    "pt_name": "cello_inner_voice_b7_1761584215831_6c16",
    "N": 2,
    "seeds": {
      "time": 0,
      "duration": 4,
      "pitch": 58,
      "velocity": 38,
      "numerator": 3,
      "denominator": 4
    },
    "sample_counts": {
      "time": 2,
      "duration": 2,
      "pitch": 2,
      "velocity": 2,
      "numerator": 2,
      "denominator": 2
    }
  },
  {
    "action": "execute_pt",
    "unit": "001",
    "bar_index": 7,
    "pt_name": "double_bass_root_b7_1761584215831_b9f3",
    "N": 2,
    "seeds": {
      "time": 0,
      "duration": 4,
      "pitch": 39,
      "velocity": 36,
      "numerator": 3,
      "denominator": 4
    },
    "sample_counts": {
      "time": 2,
      "duration": 2,
      "pitch": 2,
      "velocity": 2,
      "numerator": 2,
      "denominator": 2
    }
  },
  {
    "action": "execute_pt",
    "unit": "001",
    "bar_index": 8,
    "pt_name": "alto_flute_tacet_b8_1761584223776_8f9f",
    "N": 1,
    "seeds": {
      "time": 11,
      "duration": 1,
      "pitch": 60,
      "velocity": 0,
      "numerator": 3,
      "denominator": 4
    },
    "sample_counts": {
      "time": 1,
      "duration": 1,
      "pitch": 1,
      "velocity": 1,
      "numerator": 1,
      "denominator": 1
    }
  },
  {
    "action": "execute_pt",
    "unit": "001",
    "bar_index": 8,
    "pt_name": "violin_upper_voice_b8_1761584223776_60d7",
    "N": 1,
    "seeds": {
      "time": 0,
      "duration": 12,
      "pitch": 69,
      "velocity": 43,
      "numerator": 3,
      "denominator": 4
    },
    "sample_counts": {
      "time": 1,
      "duration": 1,
      "pitch": 1,
      "velocity": 1,
      "numerator": 1,
      "denominator": 1
    }
  },
  {
    "action": "execute_pt",
    "unit": "001",
    "bar_index": 8,
    "pt_name": "bass_clarinet_tacet_b8_1761584223776_5c26",
    "N": 1,
    "seeds": {
      "time": 11,
      "duration": 1,
      "pitch": 60,
      "velocity": 0,
      "numerator": 3,
      "denominator": 4
    },
    "sample_counts": {
      "time": 1,
      "duration": 1,
      "pitch": 1,
      "velocity": 1,
      "numerator": 1,
      "denominator": 1
    }
  },
  {
    "action": "execute_pt",
    "unit": "001",
    "bar_index": 8,
    "pt_name": "trumpet_tacet_b8_1761584223776_1ed2",
    "N": 1,
    "seeds": {
      "time": 11,
      "duration": 1,
      "pitch": 60,
      "velocity": 0,
      "numerator": 3,
      "denominator": 4
    },
    "sample_counts": {
      "time": 1,
      "duration": 1,
      "pitch": 1,
      "velocity": 1,
      "numerator": 1,
      "denominator": 1
    }
  },
  {
    "action": "execute_pt",
    "unit": "001",
    "bar_index": 8,
    "pt_name": "cello_inner_voice_b8_1761584223776_b689",
    "N": 1,
    "seeds": {
      "time": 0,
      "duration": 12,
      "pitch": 59,
      "velocity": 41,
      "numerator": 3,
      "denominator": 4
    },
    "sample_counts": {
      "time": 1,
      "duration": 1,
      "pitch": 1,
      "velocity": 1,
      "numerator": 1,
      "denominator": 1
    }
  },
  {
    "action": "execute_pt",
    "unit": "001",
    "bar_index": 8,
    "pt_name": "double_bass_root_b8_1761584223776_2030",
    "N": 1,
    "seeds": {
      "time": 0,
      "duration": 12,
      "pitch": 43,
      "velocity": 39,
      "numerator": 3,
      "denominator": 4
    },
    "sample_counts": {
      "time": 1,
      "duration": 1,
      "pitch": 1,
      "velocity": 1,
      "numerator": 1,
      "denominator": 1
    }
  },
  {
    "action": "execute_pt",
    "unit": "001",
    "bar_index": 9,
    "pt_name": "alto_flute_tacet_b9_1761584231573_bbd2",
    "N": 1,
    "seeds": {
      "time": 11,
      "duration": 1,
      "pitch": 60,
      "velocity": 0,
      "numerator": 3,
      "denominator": 4
    },
    "sample_counts": {
      "time": 1,
      "duration": 1,
      "pitch": 1,
      "velocity": 1,
      "numerator": 1,
      "denominator": 1
    }
  },
  {
    "action": "execute_pt",
    "unit": "001",
    "bar_index": 9,
    "pt_name": "violin_upper_voice_b9_1761584231573_511c",
    "N": 1,
    "seeds": {
      "time": 4,
      "duration": 8,
      "pitch": 70,
      "velocity": 41,
      "numerator": 3,
      "denominator": 4
    },
    "sample_counts": {
      "time": 1,
      "duration": 1,
      "pitch": 1,
      "velocity": 1,
      "numerator": 1,
      "denominator": 1
    }
  },
  {
    "action": "execute_pt",
    "unit": "001",
    "bar_index": 9,
    "pt_name": "bass_clarinet_tacet_b9_1761584231573_f3ab",
    "N": 1,
    "seeds": {
      "time": 11,
      "duration": 1,
      "pitch": 60,
      "velocity": 0,
      "numerator": 3,
      "denominator": 4
    },
    "sample_counts": {
      "time": 1,
      "duration": 1,
      "pitch": 1,
      "velocity": 1,
      "numerator": 1,
      "denominator": 1
    }
  },
  {
    "action": "execute_pt",
    "unit": "001",
    "bar_index": 9,
    "pt_name": "trumpet_tacet_b9_1761584231573_3a69",
    "N": 1,
    "seeds": {
      "time": 11,
      "duration": 1,
      "pitch": 60,
      "velocity": 0,
      "numerator": 3,
      "denominator": 4
    },
    "sample_counts": {
      "time": 1,
      "duration": 1,
      "pitch": 1,
      "velocity": 1,
      "numerator": 1,
      "denominator": 1
    }
  },
  {
    "action": "execute_pt",
    "unit": "001",
    "bar_index": 9,
    "pt_name": "cello_inner_voice_b9_1761584231573_e732",
    "N": 1,
    "seeds": {
      "time": 4,
      "duration": 8,
      "pitch": 63,
      "velocity": 39,
      "numerator": 3,
      "denominator": 4
    },
    "sample_counts": {
      "time": 1,
      "duration": 1,
      "pitch": 1,
      "velocity": 1,
      "numerator": 1,
      "denominator": 1
    }
  },
  {
    "action": "execute_pt",
    "unit": "001",
    "bar_index": 9,
    "pt_name": "double_bass_root_b9_1761584231573_bfe9",
    "N": 1,
    "seeds": {
      "time": 4,
      "duration": 8,
      "pitch": 47,
      "velocity": 37,
      "numerator": 3,
      "denominator": 4
    },
    "sample_counts": {
      "time": 1,
      "duration": 1,
      "pitch": 1,
      "velocity": 1,
      "numerator": 1,
      "denominator": 1
    }
  },
  {
    "action": "execute_pt",
    "unit": "001",
    "bar_index": 10,
    "pt_name": "alto_flute_tacet_b10_1761584238822_59f2",
    "N": 1,
    "seeds": {
      "time": 11,
      "duration": 1,
      "pitch": 60,
      "velocity": 0,
      "numerator": 3,
      "denominator": 4
    },
    "sample_counts": {
      "time": 1,
      "duration": 1,
      "pitch": 1,
      "velocity": 1,
      "numerator": 1,
      "denominator": 1
    }
  },
  {
    "action": "execute_pt",
    "unit": "001",
    "bar_index": 10,
    "pt_name": "violin_upper_voice_b10_1761584238822_dae1",
    "N": 2,
    "seeds": {
      "time": 0,
      "duration": 8,
      "pitch": 64,
      "velocity": 42,
      "numerator": 3,
      "denominator": 4
    },
    "sample_counts": {
      "time": 2,
      "duration": 2,
      "pitch": 2,
      "velocity": 2,
      "numerator": 2,
      "denominator": 2
    }
  },
  {
    "action": "execute_pt",
    "unit": "001",
    "bar_index": 10,
    "pt_name": "bass_clarinet_tacet_b10_1761584238822_281c",
    "N": 1,
    "seeds": {
      "time": 11,
      "duration": 1,
      "pitch": 60,
      "velocity": 0,
      "numerator": 3,
      "denominator": 4
    },
    "sample_counts": {
      "time": 1,
      "duration": 1,
      "pitch": 1,
      "velocity": 1,
      "numerator": 1,
      "denominator": 1
    }
  },
  {
    "action": "execute_pt",
    "unit": "001",
    "bar_index": 10,
    "pt_name": "trumpet_tacet_b10_1761584238822_0a78",
    "N": 1,
    "seeds": {
      "time": 11,
      "duration": 1,
      "pitch": 60,
      "velocity": 0,
      "numerator": 3,
      "denominator": 4
    },
    "sample_counts": {
      "time": 1,
      "duration": 1,
      "pitch": 1,
      "velocity": 1,
      "numerator": 1,
      "denominator": 1
    }
  },
  {
    "action": "execute_pt",
    "unit": "001",
    "bar_index": 10,
    "pt_name": "cello_inner_voice_b10_1761584238822_3cd4",
    "N": 2,
    "seeds": {
      "time": 0,
      "duration": 8,
      "pitch": 56,
      "velocity": 40,
      "numerator": 3,
      "denominator": 4
    },
    "sample_counts": {
      "time": 2,
      "duration": 2,
      "pitch": 2,
      "velocity": 2,
      "numerator": 2,
      "denominator": 2
    }
  },
  {
    "action": "execute_pt",
    "unit": "001",
    "bar_index": 10,
    "pt_name": "double_bass_root_b10_1761584238822_137a",
    "N": 2,
    "seeds": {
      "time": 0,
      "duration": 8,
      "pitch": 37,
      "velocity": 38,
      "numerator": 3,
      "denominator": 4
    },
    "sample_counts": {
      "time": 2,
      "duration": 2,
      "pitch": 2,
      "velocity": 2,
      "numerator": 2,
      "denominator": 2
    }
  },
  {
    "action": "execute_pt",
    "unit": "001",
    "bar_index": 11,
    "pt_name": "alto_flute_tacet_b11_1761584246286_50af",
    "N": 1,
    "seeds": {
      "time": 11,
      "duration": 1,
      "pitch": 60,
      "velocity": 0,
      "numerator": 3,
      "denominator": 4
    },
    "sample_counts": {
      "time": 1,
      "duration": 1,
      "pitch": 1,
      "velocity": 1,
      "numerator": 1,
      "denominator": 1
    }
  },
  {
    "action": "execute_pt",
    "unit": "001",
    "bar_index": 11,
    "pt_name": "violin_upper_voice_b11_1761584246286_9023",
    "N": 1,
    "seeds": {
      "time": 0,
      "duration": 8,
      "pitch": 69,
      "velocity": 40,
      "numerator": 3,
      "denominator": 4
    },
    "sample_counts": {
      "time": 1,
      "duration": 1,
      "pitch": 1,
      "velocity": 1,
      "numerator": 1,
      "denominator": 1
    }
  },
  {
    "action": "execute_pt",
    "unit": "001",
    "bar_index": 11,
    "pt_name": "bass_clarinet_tacet_b11_1761584246286_a890",
    "N": 1,
    "seeds": {
      "time": 11,
      "duration": 1,
      "pitch": 60,
      "velocity": 0,
      "numerator": 3,
      "denominator": 4
    },
    "sample_counts": {
      "time": 1,
      "duration": 1,
      "pitch": 1,
      "velocity": 1,
      "numerator": 1,
      "denominator": 1
    }
  },
  {
    "action": "execute_pt",
    "unit": "001",
    "bar_index": 11,
    "pt_name": "trumpet_tacet_b11_1761584246286_9b2b",
    "N": 1,
    "seeds": {
      "time": 11,
      "duration": 1,
      "pitch": 60,
      "velocity": 0,
      "numerator": 3,
      "denominator": 4
    },
    "sample_counts": {
      "time": 1,
      "duration": 1,
      "pitch": 1,
      "velocity": 1,
      "numerator": 1,
      "denominator": 1
    }
  },
  {
    "action": "execute_pt",
    "unit": "001",
    "bar_index": 11,
    "pt_name": "cello_inner_voice_b11_1761584246286_124c",
    "N": 1,
    "seeds": {
      "time": 0,
      "duration": 8,
      "pitch": 60,
      "velocity": 38,
      "numerator": 3,
      "denominator": 4
    },
    "sample_counts": {
      "time": 1,
      "duration": 1,
      "pitch": 1,
      "velocity": 1,
      "numerator": 1,
      "denominator": 1
    }
  },
  {
    "action": "execute_pt",
    "unit": "001",
    "bar_index": 11,
    "pt_name": "double_bass_root_b11_1761584246286_3e7a",
    "N": 1,
    "seeds": {
      "time": 0,
      "duration": 8,
      "pitch": 41,
      "velocity": 36,
      "numerator": 3,
      "denominator": 4
    },
    "sample_counts": {
      "time": 1,
      "duration": 1,
      "pitch": 1,
      "velocity": 1,
      "numerator": 1,
      "denominator": 1
    }
  },
  {
    "action": "execute_pt",
    "unit": "001",
    "bar_index": 12,
    "pt_name": "alto_flute_tacet_b12_1761584253705_c3f3",
    "N": 1,
    "seeds": {
      "time": 11,
      "duration": 1,
      "pitch": 60,
      "velocity": 0,
      "numerator": 3,
      "denominator": 4
    },
    "sample_counts": {
      "time": 1,
      "duration": 1,
      "pitch": 1,
      "velocity": 1,
      "numerator": 1,
      "denominator": 1
    }
  },
  {
    "action": "execute_pt",
    "unit": "001",
    "bar_index": 12,
    "pt_name": "violin_upper_voice_b12_1761584253705_e6c5",
    "N": 2,
    "seeds": {
      "time": 0,
      "duration": 4,
      "pitch": 68,
      "velocity": 41,
      "numerator": 3,
      "denominator": 4
    },
    "sample_counts": {
      "time": 2,
      "duration": 2,
      "pitch": 2,
      "velocity": 2,
      "numerator": 2,
      "denominator": 2
    }
  },
  {
    "action": "execute_pt",
    "unit": "001",
    "bar_index": 12,
    "pt_name": "bass_clarinet_tacet_b12_1761584253705_e6bd",
    "N": 1,
    "seeds": {
      "time": 11,
      "duration": 1,
      "pitch": 60,
      "velocity": 0,
      "numerator": 3,
      "denominator": 4
    },
    "sample_counts": {
      "time": 1,
      "duration": 1,
      "pitch": 1,
      "velocity": 1,
      "numerator": 1,
      "denominator": 1
    }
  },
  {
    "action": "execute_pt",
    "unit": "001",
    "bar_index": 12,
    "pt_name": "trumpet_tacet_b12_1761584253705_15d0",
    "N": 1,
    "seeds": {
      "time": 11,
      "duration": 1,
      "pitch": 60,
      "velocity": 0,
      "numerator": 3,
      "denominator": 4
    },
    "sample_counts": {
      "time": 1,
      "duration": 1,
      "pitch": 1,
      "velocity": 1,
      "numerator": 1,
      "denominator": 1
    }
  },
  {
    "action": "execute_pt",
    "unit": "001",
    "bar_index": 12,
    "pt_name": "cello_inner_voice_b12_1761584253705_78c1",
    "N": 2,
    "seeds": {
      "time": 0,
      "duration": 4,
      "pitch": 59,
      "velocity": 39,
      "numerator": 3,
      "denominator": 4
    },
    "sample_counts": {
      "time": 2,
      "duration": 2,
      "pitch": 2,
      "velocity": 2,
      "numerator": 2,
      "denominator": 2
    }
  },
  {
    "action": "execute_pt",
    "unit": "001",
    "bar_index": 12,
    "pt_name": "double_bass_root_b12_1761584253705_658a",
    "N": 2,
    "seeds": {
      "time": 0,
      "duration": 4,
      "pitch": 40,
      "velocity": 37,
      "numerator": 3,
      "denominator": 4
    },
    "sample_counts": {
      "time": 2,
      "duration": 2,
      "pitch": 2,
      "velocity": 2,
      "numerator": 2,
      "denominator": 2
    }
  },
  {
    "action": "execute_pt",
    "unit": "001",
    "bar_index": 13,
    "pt_name": "alto_flute_tacet_b1_1761584261291_2738",
    "N": 1,
    "seeds": {
      "time": 11,
      "duration": 1,
      "pitch": 60,
      "velocity": 0,
      "numerator": 3,
      "denominator": 4
    },
    "sample_counts": {
      "time": 1,
      "duration": 1,
      "pitch": 1,
      "velocity": 1,
      "numerator": 1,
      "denominator": 1
    }
  },
  {
    "action": "execute_pt",
    "unit": "001",
    "bar_index": 13,
    "pt_name": "violin_upper_voice_b1_1761584261291_41ac",
    "N": 2,
    "seeds": {
      "time": 0,
      "duration": 8,
      "pitch": 62,
      "velocity": 44,
      "numerator": 3,
      "denominator": 4
    },
    "sample_counts": {
      "time": 2,
      "duration": 2,
      "pitch": 2,
      "velocity": 2,
      "numerator": 2,
      "denominator": 2
    }
  },
  {
    "action": "execute_pt",
    "unit": "001",
    "bar_index": 13,
    "pt_name": "bass_clarinet_tacet_b1_1761584261291_c0c9",
    "N": 1,
    "seeds": {
      "time": 11,
      "duration": 1,
      "pitch": 60,
      "velocity": 0,
      "numerator": 3,
      "denominator": 4
    },
    "sample_counts": {
      "time": 1,
      "duration": 1,
      "pitch": 1,
      "velocity": 1,
      "numerator": 1,
      "denominator": 1
    }
  },
  {
    "action": "execute_pt",
    "unit": "001",
    "bar_index": 13,
    "pt_name": "trumpet_tacet_b1_1761584261291_390b",
    "N": 1,
    "seeds": {
      "time": 11,
      "duration": 1,
      "pitch": 60,
      "velocity": 0,
      "numerator": 3,
      "denominator": 4
    },
    "sample_counts": {
      "time": 1,
      "duration": 1,
      "pitch": 1,
      "velocity": 1,
      "numerator": 1,
      "denominator": 1
    }
  },
  {
    "action": "execute_pt",
    "unit": "001",
    "bar_index": 13,
    "pt_name": "cello_inner_voice_b1_1761584261291_d922",
    "N": 2,
    "seeds": {
      "time": 0,
      "duration": 8,
      "pitch": 53,
      "velocity": 42,
      "numerator": 3,
      "denominator": 4
    },
    "sample_counts": {
      "time": 2,
      "duration": 2,
      "pitch": 2,
      "velocity": 2,
      "numerator": 2,
      "denominator": 2
    }
  },
  {
    "action": "execute_pt",
    "unit": "001",
    "bar_index": 13,
    "pt_name": "double_bass_root_b1_1761584261291_73e1",
    "N": 2,
    "seeds": {
      "time": 0,
      "duration": 8,
      "pitch": 46,
      "velocity": 40,
      "numerator": 3,
      "denominator": 4
    },
    "sample_counts": {
      "time": 2,
      "duration": 2,
      "pitch": 2,
      "velocity": 2,
      "numerator": 2,
      "denominator": 2
    }
  },
  {
    "action": "execute_pt",
    "unit": "001",
    "bar_index": 14,
    "pt_name": "alto_flute_tacet_b2_1761584268873_0c5f",
    "N": 1,
    "seeds": {
      "time": 11,
      "duration": 1,
      "pitch": 60,
      "velocity": 0,
      "numerator": 3,
      "denominator": 4
    },
    "sample_counts": {
      "time": 1,
      "duration": 1,
      "pitch": 1,
      "velocity": 1,
      "numerator": 1,
      "denominator": 1
    }
  },
  {
    "action": "execute_pt",
    "unit": "001",
    "bar_index": 14,
    "pt_name": "violin_upper_voice_b2_1761584268873_0af6",
    "N": 2,
    "seeds": {
      "time": 0,
      "duration": 4,
      "pitch": 67,
      "velocity": 42,
      "numerator": 3,
      "denominator": 4
    },
    "sample_counts": {
      "time": 2,
      "duration": 2,
      "pitch": 2,
      "velocity": 2,
      "numerator": 2,
      "denominator": 2
    }
  },
  {
    "action": "execute_pt",
    "unit": "001",
    "bar_index": 14,
    "pt_name": "bass_clarinet_tacet_b2_1761584268873_cb71",
    "N": 1,
    "seeds": {
      "time": 11,
      "duration": 1,
      "pitch": 60,
      "velocity": 0,
      "numerator": 3,
      "denominator": 4
    },
    "sample_counts": {
      "time": 1,
      "duration": 1,
      "pitch": 1,
      "velocity": 1,
      "numerator": 1,
      "denominator": 1
    }
  },
  {
    "action": "execute_pt",
    "unit": "001",
    "bar_index": 14,
    "pt_name": "trumpet_tacet_b2_1761584268873_55d3",
    "N": 1,
    "seeds": {
      "time": 11,
      "duration": 1,
      "pitch": 60,
      "velocity": 0,
      "numerator": 3,
      "denominator": 4
    },
    "sample_counts": {
      "time": 1,
      "duration": 1,
      "pitch": 1,
      "velocity": 1,
      "numerator": 1,
      "denominator": 1
    }
  },
  {
    "action": "execute_pt",
    "unit": "001",
    "bar_index": 14,
    "pt_name": "cello_inner_voice_b2_1761584268873_6d28",
    "N": 2,
    "seeds": {
      "time": 0,
      "duration": 4,
      "pitch": 58,
      "velocity": 40,
      "numerator": 3,
      "denominator": 4
    },
    "sample_counts": {
      "time": 2,
      "duration": 2,
      "pitch": 2,
      "velocity": 2,
      "numerator": 2,
      "denominator": 2
    }
  },
  {
    "action": "execute_pt",
    "unit": "001",
    "bar_index": 14,
    "pt_name": "double_bass_root_b2_1761584268873_0089",
    "N": 2,
    "seeds": {
      "time": 0,
      "duration": 4,
      "pitch": 39,
      "velocity": 38,
      "numerator": 3,
      "denominator": 4
    },
    "sample_counts": {
      "time": 2,
      "duration": 2,
      "pitch": 2,
      "velocity": 2,
      "numerator": 2,
      "denominator": 2
    }
  },
  {
    "action": "execute_pt",
    "unit": "001",
    "bar_index": 15,
    "pt_name": "alto_flute_tacet_b3_1761584276609_41b3",
    "N": 1,
    "seeds": {
      "time": 11,
      "duration": 1,
      "pitch": 60,
      "velocity": 0,
      "numerator": 3,
      "denominator": 4
    },
    "sample_counts": {
      "time": 1,
      "duration": 1,
      "pitch": 1,
      "velocity": 1,
      "numerator": 1,
      "denominator": 1
    }
  },
  {
    "action": "execute_pt",
    "unit": "001",
    "bar_index": 15,
    "pt_name": "violin_upper_voice_b3_1761584276609_9d06",
    "N": 1,
    "seeds": {
      "time": 0,
      "duration": 12,
      "pitch": 64,
      "velocity": 42,
      "numerator": 3,
      "denominator": 4
    },
    "sample_counts": {
      "time": 1,
      "duration": 1,
      "pitch": 1,
      "velocity": 1,
      "numerator": 1,
      "denominator": 1
    }
  },
  {
    "action": "execute_pt",
    "unit": "001",
    "bar_index": 15,
    "pt_name": "bass_clarinet_tacet_b3_1761584276609_7335",
    "N": 1,
    "seeds": {
      "time": 11,
      "duration": 1,
      "pitch": 60,
      "velocity": 0,
      "numerator": 3,
      "denominator": 4
    },
    "sample_counts": {
      "time": 1,
      "duration": 1,
      "pitch": 1,
      "velocity": 1,
      "numerator": 1,
      "denominator": 1
    }
  },
  {
    "action": "execute_pt",
    "unit": "001",
    "bar_index": 15,
    "pt_name": "trumpet_tacet_b3_1761584276609_3dd7",
    "N": 1,
    "seeds": {
      "time": 11,
      "duration": 1,
      "pitch": 60,
      "velocity": 0,
      "numerator": 3,
      "denominator": 4
    },
    "sample_counts": {
      "time": 1,
      "duration": 1,
      "pitch": 1,
      "velocity": 1,
      "numerator": 1,
      "denominator": 1
    }
  },
  {
    "action": "execute_pt",
    "unit": "001",
    "bar_index": 15,
    "pt_name": "cello_inner_voice_b3_1761584276609_0ffb",
    "N": 1,
    "seeds": {
      "time": 0,
      "duration": 12,
      "pitch": 57,
      "velocity": 40,
      "numerator": 3,
      "denominator": 4
    },
    "sample_counts": {
      "time": 1,
      "duration": 1,
      "pitch": 1,
      "velocity": 1,
      "numerator": 1,
      "denominator": 1
    }
  },
  {
    "action": "execute_pt",
    "unit": "001",
    "bar_index": 15,
    "pt_name": "double_bass_root_b3_1761584276609_7277",
    "N": 1,
    "seeds": {
      "time": 0,
      "duration": 12,
      "pitch": 38,
      "velocity": 38,
      "numerator": 3,
      "denominator": 4
    },
    "sample_counts": {
      "time": 1,
      "duration": 1,
      "pitch": 1,
      "velocity": 1,
      "numerator": 1,
      "denominator": 1
    }
  },
  {
    "action": "execute_pt",
    "unit": "001",
    "bar_index": 16,
    "pt_name": "alto_flute_tacet_b4_1761584283856_b555",
    "N": 1,
    "seeds": {
      "time": 11,
      "duration": 1,
      "pitch": 60,
      "velocity": 0,
      "numerator": 3,
      "denominator": 4
    },
    "sample_counts": {
      "time": 1,
      "duration": 1,
      "pitch": 1,
      "velocity": 1,
      "numerator": 1,
      "denominator": 1
    }
  },
  {
    "action": "execute_pt",
    "unit": "001",
    "bar_index": 16,
    "pt_name": "violin_upper_voice_b4_1761584283856_e8d6",
    "N": 1,
    "seeds": {
      "time": 0,
      "duration": 12,
      "pitch": 69,
      "velocity": 40,
      "numerator": 3,
      "denominator": 4
    },
    "sample_counts": {
      "time": 1,
      "duration": 1,
      "pitch": 1,
      "velocity": 1,
      "numerator": 1,
      "denominator": 1
    }
  },
  {
    "action": "execute_pt",
    "unit": "001",
    "bar_index": 16,
    "pt_name": "bass_clarinet_tacet_b4_1761584283856_760e",
    "N": 1,
    "seeds": {
      "time": 11,
      "duration": 1,
      "pitch": 60,
      "velocity": 0,
      "numerator": 3,
      "denominator": 4
    },
    "sample_counts": {
      "time": 1,
      "duration": 1,
      "pitch": 1,
      "velocity": 1,
      "numerator": 1,
      "denominator": 1
    }
  },
  {
    "action": "execute_pt",
    "unit": "001",
    "bar_index": 16,
    "pt_name": "trumpet_tacet_b4_1761584283856_b3b5",
    "N": 1,
    "seeds": {
      "time": 11,
      "duration": 1,
      "pitch": 60,
      "velocity": 0,
      "numerator": 3,
      "denominator": 4
    },
    "sample_counts": {
      "time": 1,
      "duration": 1,
      "pitch": 1,
      "velocity": 1,
      "numerator": 1,
      "denominator": 1
    }
  },
  {
    "action": "execute_pt",
    "unit": "001",
    "bar_index": 16,
    "pt_name": "cello_inner_voice_b4_1761584283856_a347",
    "N": 1,
    "seeds": {
      "time": 0,
      "duration": 12,
      "pitch": 59,
      "velocity": 38,
      "numerator": 3,
      "denominator": 4
    },
    "sample_counts": {
      "time": 1,
      "duration": 1,
      "pitch": 1,
      "velocity": 1,
      "numerator": 1,
      "denominator": 1
    }
  },
  {
    "action": "execute_pt",
    "unit": "001",
    "bar_index": 16,
    "pt_name": "double_bass_root_b4_1761584283856_7d32",
    "N": 1,
    "seeds": {
      "time": 0,
      "duration": 12,
      "pitch": 43,
      "velocity": 36,
      "numerator": 3,
      "denominator": 4
    },
    "sample_counts": {
      "time": 1,
      "duration": 1,
      "pitch": 1,
      "velocity": 1,
      "numerator": 1,
      "denominator": 1
    }
  },
  {
    "action": "execute_pt",
    "unit": "001",
    "bar_index": 17,
    "pt_name": "alto_flute_tacet_b5_1761584291594_97a7",
    "N": 1,
    "seeds": {
      "time": 11,
      "duration": 1,
      "pitch": 60,
      "velocity": 0,
      "numerator": 3,
      "denominator": 4
    },
    "sample_counts": {
      "time": 1,
      "duration": 1,
      "pitch": 1,
      "velocity": 1,
      "numerator": 1,
      "denominator": 1
    }
  },
  {
    "action": "execute_pt",
    "unit": "001",
    "bar_index": 17,
    "pt_name": "violin_upper_voice_b5_1761584291594_f1d5",
    "N": 1,
    "seeds": {
      "time": 0,
      "duration": 8,
      "pitch": 64,
      "velocity": 38,
      "numerator": 3,
      "denominator": 4
    },
    "sample_counts": {
      "time": 1,
      "duration": 1,
      "pitch": 1,
      "velocity": 1,
      "numerator": 1,
      "denominator": 1
    }
  },
  {
    "action": "execute_pt",
    "unit": "001",
    "bar_index": 17,
    "pt_name": "bass_clarinet_tacet_b5_1761584291594_e0c0",
    "N": 1,
    "seeds": {
      "time": 11,
      "duration": 1,
      "pitch": 60,
      "velocity": 0,
      "numerator": 3,
      "denominator": 4
    },
    "sample_counts": {
      "time": 1,
      "duration": 1,
      "pitch": 1,
      "velocity": 1,
      "numerator": 1,
      "denominator": 1
    }
  },
  {
    "action": "execute_pt",
    "unit": "001",
    "bar_index": 17,
    "pt_name": "trumpet_tacet_b5_1761584291594_1281",
    "N": 1,
    "seeds": {
      "time": 11,
      "duration": 1,
      "pitch": 60,
      "velocity": 0,
      "numerator": 3,
      "denominator": 4
    },
    "sample_counts": {
      "time": 1,
      "duration": 1,
      "pitch": 1,
      "velocity": 1,
      "numerator": 1,
      "denominator": 1
    }
  },
  {
    "action": "execute_pt",
    "unit": "001",
    "bar_index": 17,
    "pt_name": "cello_inner_voice_b5_1761584291594_8ff1",
    "N": 1,
    "seeds": {
      "time": 0,
      "duration": 8,
      "pitch": 55,
      "velocity": 36,
      "numerator": 3,
      "denominator": 4
    },
    "sample_counts": {
      "time": 1,
      "duration": 1,
      "pitch": 1,
      "velocity": 1,
      "numerator": 1,
      "denominator": 1
    }
  },
  {
    "action": "execute_pt",
    "unit": "001",
    "bar_index": 17,
    "pt_name": "double_bass_root_b5_1761584291594_3ff0",
    "N": 1,
    "seeds": {
      "time": 0,
      "duration": 8,
      "pitch": 36,
      "velocity": 34,
      "numerator": 3,
      "denominator": 4
    },
    "sample_counts": {
      "time": 1,
      "duration": 1,
      "pitch": 1,
      "velocity": 1,
      "numerator": 1,
      "denominator": 1
    }
  },
  {
    "action": "execute_pt",
    "unit": "001",
    "bar_index": 18,
    "pt_name": "alto_flute_tacet_b6_1761584298984_a839",
    "N": 1,
    "seeds": {
      "time": 11,
      "duration": 1,
      "pitch": 60,
      "velocity": 0,
      "numerator": 3,
      "denominator": 4
    },
    "sample_counts": {
      "time": 1,
      "duration": 1,
      "pitch": 1,
      "velocity": 1,
      "numerator": 1,
      "denominator": 1
    }
  },
  {
    "action": "execute_pt",
    "unit": "001",
    "bar_index": 18,
    "pt_name": "violin_upper_voice_b6_1761584298984_6730",
    "N": 2,
    "seeds": {
      "time": 0,
      "duration": 4,
      "pitch": 67,
      "velocity": 40,
      "numerator": 3,
      "denominator": 4
    },
    "sample_counts": {
      "time": 2,
      "duration": 2,
      "pitch": 2,
      "velocity": 2,
      "numerator": 2,
      "denominator": 2
    }
  },
  {
    "action": "execute_pt",
    "unit": "001",
    "bar_index": 18,
    "pt_name": "bass_clarinet_tacet_b6_1761584298984_a5aa",
    "N": 1,
    "seeds": {
      "time": 11,
      "duration": 1,
      "pitch": 60,
      "velocity": 0,
      "numerator": 3,
      "denominator": 4
    },
    "sample_counts": {
      "time": 1,
      "duration": 1,
      "pitch": 1,
      "velocity": 1,
      "numerator": 1,
      "denominator": 1
    }
  },
  {
    "action": "execute_pt",
    "unit": "001",
    "bar_index": 18,
    "pt_name": "trumpet_tacet_b6_1761584298984_13f7",
    "N": 1,
    "seeds": {
      "time": 11,
      "duration": 1,
      "pitch": 60,
      "velocity": 0,
      "numerator": 3,
      "denominator": 4
    },
    "sample_counts": {
      "time": 1,
      "duration": 1,
      "pitch": 1,
      "velocity": 1,
      "numerator": 1,
      "denominator": 1
    }
  },
  {
    "action": "execute_pt",
    "unit": "001",
    "bar_index": 18,
    "pt_name": "cello_inner_voice_b6_1761584298984_7991",
    "N": 2,
    "seeds": {
      "time": 0,
      "duration": 4,
      "pitch": 58,
      "velocity": 38,
      "numerator": 3,
      "denominator": 4
    },
    "sample_counts": {
      "time": 2,
      "duration": 2,
      "pitch": 2,
      "velocity": 2,
      "numerator": 2,
      "denominator": 2
    }
  },
  {
    "action": "execute_pt",
    "unit": "001",
    "bar_index": 18,
    "pt_name": "double_bass_root_b6_1761584298984_277f",
    "N": 2,
    "seeds": {
      "time": 0,
      "duration": 4,
      "pitch": 39,
      "velocity": 36,
      "numerator": 3,
      "denominator": 4
    },
    "sample_counts": {
      "time": 2,
      "duration": 2,
      "pitch": 2,
      "velocity": 2,
      "numerator": 2,
      "denominator": 2
    }
  },
  {
    "action": "execute_pt",
    "unit": "002",
    "bar_index": 1,
    "pt_name": "alto_flute_soprano_wind_b13_1761584573519_ae48",
    "N": 1,
    "seeds": {
      "time": 4,
      "duration": 8,
      "pitch": 74,
      "velocity": 52,
      "numerator": 3,
      "denominator": 4
    },
    "sample_counts": {
      "time": 1,
      "duration": 1,
      "pitch": 1,
      "velocity": 1,
      "numerator": 1,
      "denominator": 1
    }
  },
  {
    "action": "execute_pt",
    "unit": "002",
    "bar_index": 1,
    "pt_name": "bass_clarinet_bass_wind_b13_1761584573519_45ff",
    "N": 1,
    "seeds": {
      "time": 4,
      "duration": 8,
      "pitch": 55,
      "velocity": 48,
      "numerator": 3,
      "denominator": 4
    },
    "sample_counts": {
      "time": 1,
      "duration": 1,
      "pitch": 1,
      "velocity": 1,
      "numerator": 1,
      "denominator": 1
    }
  },
  {
    "action": "execute_pt",
    "unit": "002",
    "bar_index": 1,
    "pt_name": "trumpet_lead_brass_b13_1761584573519_beba",
    "N": 1,
    "seeds": {
      "time": 4,
      "duration": 8,
      "pitch": 66,
      "velocity": 56,
      "numerator": 3,
      "denominator": 4
    },
    "sample_counts": {
      "time": 1,
      "duration": 1,
      "pitch": 1,
      "velocity": 1,
      "numerator": 1,
      "denominator": 1
    }
  },
  {
    "action": "execute_pt",
    "unit": "002",
    "bar_index": 1,
    "pt_name": "violin_upper_voice_b13_1761584573519_dfb3",
    "N": 2,
    "seeds": {
      "time": 0,
      "duration": 4,
      "pitch": 68,
      "velocity": 42,
      "numerator": 3,
      "denominator": 4
    },
    "sample_counts": {
      "time": 2,
      "duration": 2,
      "pitch": 2,
      "velocity": 2,
      "numerator": 2,
      "denominator": 2
    }
  },
  {
    "action": "execute_pt",
    "unit": "002",
    "bar_index": 1,
    "pt_name": "cello_inner_voice_b13_1761584573519_7b58",
    "N": 2,
    "seeds": {
      "time": 0,
      "duration": 4,
      "pitch": 59,
      "velocity": 40,
      "numerator": 3,
      "denominator": 4
    },
    "sample_counts": {
      "time": 2,
      "duration": 2,
      "pitch": 2,
      "velocity": 2,
      "numerator": 2,
      "denominator": 2
    }
  },
  {
    "action": "execute_pt",
    "unit": "002",
    "bar_index": 1,
    "pt_name": "double_bass_root_b13_1761584573519_e9ed",
    "N": 2,
    "seeds": {
      "time": 0,
      "duration": 4,
      "pitch": 40,
      "velocity": 38,
      "numerator": 3,
      "denominator": 4
    },
    "sample_counts": {
      "time": 2,
      "duration": 2,
      "pitch": 2,
      "velocity": 2,
      "numerator": 2,
      "denominator": 2
    }
  },
  {
    "action": "execute_pt",
    "unit": "002",
    "bar_index": 2,
    "pt_name": "alto_flute_soprano_wind_b14_1761584581108_d1ee",
    "N": 1,
    "seeds": {
      "time": 0,
      "duration": 12,
      "pitch": 73,
      "velocity": 50,
      "numerator": 3,
      "denominator": 4
    },
    "sample_counts": {
      "time": 1,
      "duration": 1,
      "pitch": 1,
      "velocity": 1,
      "numerator": 1,
      "denominator": 1
    }
  },
  {
    "action": "execute_pt",
    "unit": "002",
    "bar_index": 2,
    "pt_name": "bass_clarinet_bass_wind_b14_1761584581108_313b",
    "N": 1,
    "seeds": {
      "time": 0,
      "duration": 12,
      "pitch": 57,
      "velocity": 46,
      "numerator": 3,
      "denominator": 4
    },
    "sample_counts": {
      "time": 1,
      "duration": 1,
      "pitch": 1,
      "velocity": 1,
      "numerator": 1,
      "denominator": 1
    }
  },
  {
    "action": "execute_pt",
    "unit": "002",
    "bar_index": 2,
    "pt_name": "trumpet_lead_brass_b14_1761584581108_4ee8",
    "N": 1,
    "seeds": {
      "time": 0,
      "duration": 12,
      "pitch": 69,
      "velocity": 54,
      "numerator": 3,
      "denominator": 4
    },
    "sample_counts": {
      "time": 1,
      "duration": 1,
      "pitch": 1,
      "velocity": 1,
      "numerator": 1,
      "denominator": 1
    }
  },
  {
    "action": "execute_pt",
    "unit": "002",
    "bar_index": 2,
    "pt_name": "violin_upper_voice_b14_1761584581108_dc68",
    "N": 2,
    "seeds": {
      "time": 0,
      "duration": 8,
      "pitch": 62,
      "velocity": 44,
      "numerator": 3,
      "denominator": 4
    },
    "sample_counts": {
      "time": 2,
      "duration": 2,
      "pitch": 2,
      "velocity": 2,
      "numerator": 2,
      "denominator": 2
    }
  },
  {
    "action": "execute_pt",
    "unit": "002",
    "bar_index": 2,
    "pt_name": "cello_inner_voice_b14_1761584581108_6c75",
    "N": 2,
    "seeds": {
      "time": 0,
      "duration": 8,
      "pitch": 53,
      "velocity": 42,
      "numerator": 3,
      "denominator": 4
    },
    "sample_counts": {
      "time": 2,
      "duration": 2,
      "pitch": 2,
      "velocity": 2,
      "numerator": 2,
      "denominator": 2
    }
  },
  {
    "action": "execute_pt",
    "unit": "002",
    "bar_index": 2,
    "pt_name": "double_bass_root_b14_1761584581108_96b0",
    "N": 2,
    "seeds": {
      "time": 0,
      "duration": 8,
      "pitch": 46,
      "velocity": 40,
      "numerator": 3,
      "denominator": 4
    },
    "sample_counts": {
      "time": 2,
      "duration": 2,
      "pitch": 2,
      "velocity": 2,
      "numerator": 2,
      "denominator": 2
    }
  },
  {
    "action": "execute_pt",
    "unit": "002",
    "bar_index": 3,
    "pt_name": "alto_flute_soprano_wind_b15_1761584590223_87d6",
    "N": 2,
    "seeds": {
      "time": 0,
      "duration": 8,
      "pitch": 71,
      "velocity": 52,
      "numerator": 3,
      "denominator": 4
    },
    "sample_counts": {
      "time": 2,
      "duration": 2,
      "pitch": 2,
      "velocity": 2,
      "numerator": 2,
      "denominator": 2
    }
  },
  {
    "action": "execute_pt",
    "unit": "002",
    "bar_index": 3,
    "pt_name": "bass_clarinet_bass_wind_b15_1761584590223_d8f9",
    "N": 2,
    "seeds": {
      "time": 0,
      "duration": 8,
      "pitch": 55,
      "velocity": 48,
      "numerator": 3,
      "denominator": 4
    },
    "sample_counts": {
      "time": 2,
      "duration": 2,
      "pitch": 2,
      "velocity": 2,
      "numerator": 2,
      "denominator": 2
    }
  },
  {
    "action": "execute_pt",
    "unit": "002",
    "bar_index": 3,
    "pt_name": "trumpet_lead_brass_b15_1761584590223_0343",
    "N": 2,
    "seeds": {
      "time": 0,
      "duration": 8,
      "pitch": 67,
      "velocity": 54,
      "numerator": 3,
      "denominator": 4
    },
    "sample_counts": {
      "time": 2,
      "duration": 2,
      "pitch": 2,
      "velocity": 2,
      "numerator": 2,
      "denominator": 2
    }
  },
  {
    "action": "execute_pt",
    "unit": "002",
    "bar_index": 3,
    "pt_name": "violin_upper_voice_b15_1761584590223_9fbe",
    "N": 1,
    "seeds": {
      "time": 0,
      "duration": 12,
      "pitch": 64,
      "velocity": 42,
      "numerator": 3,
      "denominator": 4
    },
    "sample_counts": {
      "time": 1,
      "duration": 1,
      "pitch": 1,
      "velocity": 1,
      "numerator": 1,
      "denominator": 1
    }
  },
  {
    "action": "execute_pt",
    "unit": "002",
    "bar_index": 3,
    "pt_name": "cello_inner_voice_b15_1761584590223_720c",
    "N": 1,
    "seeds": {
      "time": 0,
      "duration": 12,
      "pitch": 57,
      "velocity": 40,
      "numerator": 3,
      "denominator": 4
    },
    "sample_counts": {
      "time": 1,
      "duration": 1,
      "pitch": 1,
      "velocity": 1,
      "numerator": 1,
      "denominator": 1
    }
  },
  {
    "action": "execute_pt",
    "unit": "002",
    "bar_index": 3,
    "pt_name": "double_bass_root_b15_1761584590223_0df7",
    "N": 1,
    "seeds": {
      "time": 0,
      "duration": 12,
      "pitch": 38,
      "velocity": 38,
      "numerator": 3,
      "denominator": 4
    },
    "sample_counts": {
      "time": 1,
      "duration": 1,
      "pitch": 1,
      "velocity": 1,
      "numerator": 1,
      "denominator": 1
    }
  },
  {
    "action": "execute_pt",
    "unit": "002",
    "bar_index": 4,
    "pt_name": "alto_flute_soprano_wind_b16_1761584598957_ad92",
    "N": 1,
    "seeds": {
      "time": 0,
      "duration": 8,
      "pitch": 72,
      "velocity": 51,
      "numerator": 3,
      "denominator": 4
    },
    "sample_counts": {
      "time": 1,
      "duration": 1,
      "pitch": 1,
      "velocity": 1,
      "numerator": 1,
      "denominator": 1
    }
  },
  {
    "action": "execute_pt",
    "unit": "002",
    "bar_index": 4,
    "pt_name": "bass_clarinet_bass_wind_b16_1761584598957_e1b4",
    "N": 1,
    "seeds": {
      "time": 0,
      "duration": 8,
      "pitch": 52,
      "velocity": 47,
      "numerator": 3,
      "denominator": 4
    },
    "sample_counts": {
      "time": 1,
      "duration": 1,
      "pitch": 1,
      "velocity": 1,
      "numerator": 1,
      "denominator": 1
    }
  },
  {
    "action": "execute_pt",
    "unit": "002",
    "bar_index": 4,
    "pt_name": "trumpet_lead_brass_b16_1761584598957_c1fd",
    "N": 1,
    "seeds": {
      "time": 0,
      "duration": 8,
      "pitch": 64,
      "velocity": 55,
      "numerator": 3,
      "denominator": 4
    },
    "sample_counts": {
      "time": 1,
      "duration": 1,
      "pitch": 1,
      "velocity": 1,
      "numerator": 1,
      "denominator": 1
    }
  },
  {
    "action": "execute_pt",
    "unit": "002",
    "bar_index": 4,
    "pt_name": "violin_upper_voice_b16_1761584598957_a253",
    "N": 1,
    "seeds": {
      "time": 4,
      "duration": 8,
      "pitch": 69,
      "velocity": 40,
      "numerator": 3,
      "denominator": 4
    },
    "sample_counts": {
      "time": 1,
      "duration": 1,
      "pitch": 1,
      "velocity": 1,
      "numerator": 1,
      "denominator": 1
    }
  },
  {
    "action": "execute_pt",
    "unit": "002",
    "bar_index": 4,
    "pt_name": "cello_inner_voice_b16_1761584598957_8641",
    "N": 1,
    "seeds": {
      "time": 4,
      "duration": 8,
      "pitch": 61,
      "velocity": 38,
      "numerator": 3,
      "denominator": 4
    },
    "sample_counts": {
      "time": 1,
      "duration": 1,
      "pitch": 1,
      "velocity": 1,
      "numerator": 1,
      "denominator": 1
    }
  },
  {
    "action": "execute_pt",
    "unit": "002",
    "bar_index": 4,
    "pt_name": "double_bass_root_b16_1761584598957_7221",
    "N": 1,
    "seeds": {
      "time": 4,
      "duration": 8,
      "pitch": 42,
      "velocity": 36,
      "numerator": 3,
      "denominator": 4
    },
    "sample_counts": {
      "time": 1,
      "duration": 1,
      "pitch": 1,
      "velocity": 1,
      "numerator": 1,
      "denominator": 1
    }
  },
  {
    "action": "execute_pt",
    "unit": "002",
    "bar_index": 5,
    "pt_name": "alto_flute_soprano_wind_b17_1761584606953_83d0",
    "N": 2,
    "seeds": {
      "time": 0,
      "duration": 4,
      "pitch": 74,
      "velocity": 50,
      "numerator": 3,
      "denominator": 4
    },
    "sample_counts": {
      "time": 2,
      "duration": 2,
      "pitch": 2,
      "velocity": 2,
      "numerator": 2,
      "denominator": 2
    }
  },
  {
    "action": "execute_pt",
    "unit": "002",
    "bar_index": 5,
    "pt_name": "bass_clarinet_bass_wind_b17_1761584606953_e809",
    "N": 2,
    "seeds": {
      "time": 0,
      "duration": 4,
      "pitch": 57,
      "velocity": 46,
      "numerator": 3,
      "denominator": 4
    },
    "sample_counts": {
      "time": 2,
      "duration": 2,
      "pitch": 2,
      "velocity": 2,
      "numerator": 2,
      "denominator": 2
    }
  },
  {
    "action": "execute_pt",
    "unit": "002",
    "bar_index": 5,
    "pt_name": "trumpet_lead_brass_b17_1761584606953_268a",
    "N": 2,
    "seeds": {
      "time": 0,
      "duration": 4,
      "pitch": 69,
      "velocity": 54,
      "numerator": 3,
      "denominator": 4
    },
    "sample_counts": {
      "time": 2,
      "duration": 2,
      "pitch": 2,
      "velocity": 2,
      "numerator": 2,
      "denominator": 2
    }
  },
  {
    "action": "execute_pt",
    "unit": "002",
    "bar_index": 5,
    "pt_name": "violin_upper_voice_b17_1761584606953_489f",
    "N": 1,
    "seeds": {
      "time": 0,
      "duration": 8,
      "pitch": 64,
      "velocity": 38,
      "numerator": 3,
      "denominator": 4
    },
    "sample_counts": {
      "time": 1,
      "duration": 1,
      "pitch": 1,
      "velocity": 1,
      "numerator": 1,
      "denominator": 1
    }
  },
  {
    "action": "execute_pt",
    "unit": "002",
    "bar_index": 5,
    "pt_name": "cello_inner_voice_b17_1761584606953_526e",
    "N": 1,
    "seeds": {
      "time": 0,
      "duration": 8,
      "pitch": 55,
      "velocity": 36,
      "numerator": 3,
      "denominator": 4
    },
    "sample_counts": {
      "time": 1,
      "duration": 1,
      "pitch": 1,
      "velocity": 1,
      "numerator": 1,
      "denominator": 1
    }
  },
  {
    "action": "execute_pt",
    "unit": "002",
    "bar_index": 5,
    "pt_name": "double_bass_root_b17_1761584606953_c322",
    "N": 1,
    "seeds": {
      "time": 0,
      "duration": 8,
      "pitch": 36,
      "velocity": 34,
      "numerator": 3,
      "denominator": 4
    },
    "sample_counts": {
      "time": 1,
      "duration": 1,
      "pitch": 1,
      "velocity": 1,
      "numerator": 1,
      "denominator": 1
    }
  },
  {
    "action": "execute_pt",
    "unit": "002",
    "bar_index": 6,
    "pt_name": "alto_flute_soprano_wind_b18_1761584614786_9b3e",
    "N": 1,
    "seeds": {
      "time": 4,
      "duration": 8,
      "pitch": 73,
      "velocity": 51,
      "numerator": 3,
      "denominator": 4
    },
    "sample_counts": {
      "time": 1,
      "duration": 1,
      "pitch": 1,
      "velocity": 1,
      "numerator": 1,
      "denominator": 1
    }
  },
  {
    "action": "execute_pt",
    "unit": "002",
    "bar_index": 6,
    "pt_name": "bass_clarinet_bass_wind_b18_1761584614786_0962",
    "N": 1,
    "seeds": {
      "time": 4,
      "duration": 8,
      "pitch": 56,
      "velocity": 47,
      "numerator": 3,
      "denominator": 4
    },
    "sample_counts": {
      "time": 1,
      "duration": 1,
      "pitch": 1,
      "velocity": 1,
      "numerator": 1,
      "denominator": 1
    }
  },
  {
    "action": "execute_pt",
    "unit": "002",
    "bar_index": 6,
    "pt_name": "trumpet_lead_brass_b18_1761584614786_b23c",
    "N": 1,
    "seeds": {
      "time": 4,
      "duration": 8,
      "pitch": 68,
      "velocity": 55,
      "numerator": 3,
      "denominator": 4
    },
    "sample_counts": {
      "time": 1,
      "duration": 1,
      "pitch": 1,
      "velocity": 1,
      "numerator": 1,
      "denominator": 1
    }
  },
  {
    "action": "execute_pt",
    "unit": "002",
    "bar_index": 6,
    "pt_name": "violin_upper_voice_b18_1761584614786_e0e5",
    "N": 2,
    "seeds": {
      "time": 0,
      "duration": 8,
      "pitch": 61,
      "velocity": 41,
      "numerator": 3,
      "denominator": 4
    },
    "sample_counts": {
      "time": 2,
      "duration": 2,
      "pitch": 2,
      "velocity": 2,
      "numerator": 2,
      "denominator": 2
    }
  },
  {
    "action": "execute_pt",
    "unit": "002",
    "bar_index": 6,
    "pt_name": "cello_inner_voice_b18_1761584614786_9e93",
    "N": 2,
    "seeds": {
      "time": 0,
      "duration": 8,
      "pitch": 52,
      "velocity": 39,
      "numerator": 3,
      "denominator": 4
    },
    "sample_counts": {
      "time": 2,
      "duration": 2,
      "pitch": 2,
      "velocity": 2,
      "numerator": 2,
      "denominator": 2
    }
  },
  {
    "action": "execute_pt",
    "unit": "002",
    "bar_index": 6,
    "pt_name": "double_bass_root_b18_1761584614786_5bf1",
    "N": 2,
    "seeds": {
      "time": 0,
      "duration": 8,
      "pitch": 45,
      "velocity": 37,
      "numerator": 3,
      "denominator": 4
    },
    "sample_counts": {
      "time": 2,
      "duration": 2,
      "pitch": 2,
      "velocity": 2,
      "numerator": 2,
      "denominator": 2
    }
  },
  {
    "action": "execute_pt",
    "unit": "002",
    "bar_index": 7,
    "pt_name": "alto_flute_soprano_wind_b19_1761584622301_1482",
    "N": 1,
    "seeds": {
      "time": 0,
      "duration": 12,
      "pitch": 76,
      "velocity": 52,
      "numerator": 3,
      "denominator": 4
    },
    "sample_counts": {
      "time": 1,
      "duration": 1,
      "pitch": 1,
      "velocity": 1,
      "numerator": 1,
      "denominator": 1
    }
  },
  {
    "action": "execute_pt",
    "unit": "002",
    "bar_index": 7,
    "pt_name": "bass_clarinet_bass_wind_b19_1761584622301_21b9",
    "N": 1,
    "seeds": {
      "time": 0,
      "duration": 12,
      "pitch": 59,
      "velocity": 48,
      "numerator": 3,
      "denominator": 4
    },
    "sample_counts": {
      "time": 1,
      "duration": 1,
      "pitch": 1,
      "velocity": 1,
      "numerator": 1,
      "denominator": 1
    }
  },
  {
    "action": "execute_pt",
    "unit": "002",
    "bar_index": 7,
    "pt_name": "trumpet_lead_brass_b19_1761584622301_fcb4",
    "N": 1,
    "seeds": {
      "time": 0,
      "duration": 12,
      "pitch": 71,
      "velocity": 56,
      "numerator": 3,
      "denominator": 4
    },
    "sample_counts": {
      "time": 1,
      "duration": 1,
      "pitch": 1,
      "velocity": 1,
      "numerator": 1,
      "denominator": 1
    }
  },
  {
    "action": "execute_pt",
    "unit": "002",
    "bar_index": 7,
    "pt_name": "violin_upper_voice_b19_1761584622301_efbc",
    "N": 2,
    "seeds": {
      "time": 0,
      "duration": 4,
      "pitch": 67,
      "velocity": 40,
      "numerator": 3,
      "denominator": 4
    },
    "sample_counts": {
      "time": 2,
      "duration": 2,
      "pitch": 2,
      "velocity": 2,
      "numerator": 2,
      "denominator": 2
    }
  },
  {
    "action": "execute_pt",
    "unit": "002",
    "bar_index": 7,
    "pt_name": "cello_inner_voice_b19_1761584622301_bb50",
    "N": 2,
    "seeds": {
      "time": 0,
      "duration": 4,
      "pitch": 58,
      "velocity": 38,
      "numerator": 3,
      "denominator": 4
    },
    "sample_counts": {
      "time": 2,
      "duration": 2,
      "pitch": 2,
      "velocity": 2,
      "numerator": 2,
      "denominator": 2
    }
  },
  {
    "action": "execute_pt",
    "unit": "002",
    "bar_index": 7,
    "pt_name": "double_bass_root_b19_1761584622301_10e6",
    "N": 2,
    "seeds": {
      "time": 0,
      "duration": 4,
      "pitch": 39,
      "velocity": 36,
      "numerator": 3,
      "denominator": 4
    },
    "sample_counts": {
      "time": 2,
      "duration": 2,
      "pitch": 2,
      "velocity": 2,
      "numerator": 2,
      "denominator": 2
    }
  },
  {
    "action": "execute_pt",
    "unit": "002",
    "bar_index": 8,
    "pt_name": "alto_flute_soprano_wind_b20_1761584630803_33f1",
    "N": 2,
    "seeds": {
      "time": 0,
      "duration": 8,
      "pitch": 77,
      "velocity": 52,
      "numerator": 3,
      "denominator": 4
    },
    "sample_counts": {
      "time": 2,
      "duration": 2,
      "pitch": 2,
      "velocity": 2,
      "numerator": 2,
      "denominator": 2
    }
  },
  {
    "action": "execute_pt",
    "unit": "002",
    "bar_index": 8,
    "pt_name": "bass_clarinet_bass_wind_b20_1761584630803_ec56",
    "N": 2,
    "seeds": {
      "time": 0,
      "duration": 8,
      "pitch": 60,
      "velocity": 48,
      "numerator": 3,
      "denominator": 4
    },
    "sample_counts": {
      "time": 2,
      "duration": 2,
      "pitch": 2,
      "velocity": 2,
      "numerator": 2,
      "denominator": 2
    }
  },
  {
    "action": "execute_pt",
    "unit": "002",
    "bar_index": 8,
    "pt_name": "trumpet_lead_brass_b20_1761584630803_bacc",
    "N": 2,
    "seeds": {
      "time": 0,
      "duration": 8,
      "pitch": 72,
      "velocity": 56,
      "numerator": 3,
      "denominator": 4
    },
    "sample_counts": {
      "time": 2,
      "duration": 2,
      "pitch": 2,
      "velocity": 2,
      "numerator": 2,
      "denominator": 2
    }
  },
  {
    "action": "execute_pt",
    "unit": "002",
    "bar_index": 8,
    "pt_name": "violin_upper_voice_b20_1761584630803_3e90",
    "N": 1,
    "seeds": {
      "time": 0,
      "duration": 12,
      "pitch": 69,
      "velocity": 43,
      "numerator": 3,
      "denominator": 4
    },
    "sample_counts": {
      "time": 1,
      "duration": 1,
      "pitch": 1,
      "velocity": 1,
      "numerator": 1,
      "denominator": 1
    }
  },
  {
    "action": "execute_pt",
    "unit": "002",
    "bar_index": 8,
    "pt_name": "cello_inner_voice_b20_1761584630803_ef9b",
    "N": 1,
    "seeds": {
      "time": 0,
      "duration": 12,
      "pitch": 59,
      "velocity": 41,
      "numerator": 3,
      "denominator": 4
    },
    "sample_counts": {
      "time": 1,
      "duration": 1,
      "pitch": 1,
      "velocity": 1,
      "numerator": 1,
      "denominator": 1
    }
  },
  {
    "action": "execute_pt",
    "unit": "002",
    "bar_index": 8,
    "pt_name": "double_bass_root_b20_1761584630803_2c91",
    "N": 1,
    "seeds": {
      "time": 0,
      "duration": 12,
      "pitch": 43,
      "velocity": 39,
      "numerator": 3,
      "denominator": 4
    },
    "sample_counts": {
      "time": 1,
      "duration": 1,
      "pitch": 1,
      "velocity": 1,
      "numerator": 1,
      "denominator": 1
    }
  },
  {
    "action": "execute_pt",
    "unit": "002",
    "bar_index": 9,
    "pt_name": "alto_flute_soprano_wind_b21_1761584638159_1972",
    "N": 1,
    "seeds": {
      "time": 0,
      "duration": 8,
      "pitch": 74,
      "velocity": 51,
      "numerator": 3,
      "denominator": 4
    },
    "sample_counts": {
      "time": 1,
      "duration": 1,
      "pitch": 1,
      "velocity": 1,
      "numerator": 1,
      "denominator": 1
    }
  },
  {
    "action": "execute_pt",
    "unit": "002",
    "bar_index": 9,
    "pt_name": "bass_clarinet_bass_wind_b21_1761584638159_ad19",
    "N": 1,
    "seeds": {
      "time": 0,
      "duration": 8,
      "pitch": 57,
      "velocity": 47,
      "numerator": 3,
      "denominator": 4
    },
    "sample_counts": {
      "time": 1,
      "duration": 1,
      "pitch": 1,
      "velocity": 1,
      "numerator": 1,
      "denominator": 1
    }
  },
  {
    "action": "execute_pt",
    "unit": "002",
    "bar_index": 9,
    "pt_name": "trumpet_lead_brass_b21_1761584638159_456d",
    "N": 1,
    "seeds": {
      "time": 0,
      "duration": 8,
      "pitch": 69,
      "velocity": 55,
      "numerator": 3,
      "denominator": 4
    },
    "sample_counts": {
      "time": 1,
      "duration": 1,
      "pitch": 1,
      "velocity": 1,
      "numerator": 1,
      "denominator": 1
    }
  },
  {
    "action": "execute_pt",
    "unit": "002",
    "bar_index": 9,
    "pt_name": "violin_upper_voice_b21_1761584638159_78b5",
    "N": 1,
    "seeds": {
      "time": 4,
      "duration": 8,
      "pitch": 70,
      "velocity": 41,
      "numerator": 3,
      "denominator": 4
    },
    "sample_counts": {
      "time": 1,
      "duration": 1,
      "pitch": 1,
      "velocity": 1,
      "numerator": 1,
      "denominator": 1
    }
  },
  {
    "action": "execute_pt",
    "unit": "002",
    "bar_index": 9,
    "pt_name": "cello_inner_voice_b21_1761584638159_082f",
    "N": 1,
    "seeds": {
      "time": 4,
      "duration": 8,
      "pitch": 63,
      "velocity": 39,
      "numerator": 3,
      "denominator": 4
    },
    "sample_counts": {
      "time": 1,
      "duration": 1,
      "pitch": 1,
      "velocity": 1,
      "numerator": 1,
      "denominator": 1
    }
  },
  {
    "action": "execute_pt",
    "unit": "002",
    "bar_index": 9,
    "pt_name": "double_bass_root_b21_1761584638159_c734",
    "N": 1,
    "seeds": {
      "time": 4,
      "duration": 8,
      "pitch": 47,
      "velocity": 37,
      "numerator": 3,
      "denominator": 4
    },
    "sample_counts": {
      "time": 1,
      "duration": 1,
      "pitch": 1,
      "velocity": 1,
      "numerator": 1,
      "denominator": 1
    }
  },
  {
    "action": "execute_pt",
    "unit": "002",
    "bar_index": 10,
    "pt_name": "alto_flute_soprano_wind_b22_1761584645601_6acd",
    "N": 2,
    "seeds": {
      "time": 0,
      "duration": 4,
      "pitch": 73,
      "velocity": 52,
      "numerator": 3,
      "denominator": 4
    },
    "sample_counts": {
      "time": 2,
      "duration": 2,
      "pitch": 2,
      "velocity": 2,
      "numerator": 2,
      "denominator": 2
    }
  },
  {
    "action": "execute_pt",
    "unit": "002",
    "bar_index": 10,
    "pt_name": "bass_clarinet_bass_wind_b22_1761584645601_8725",
    "N": 2,
    "seeds": {
      "time": 0,
      "duration": 4,
      "pitch": 55,
      "velocity": 48,
      "numerator": 3,
      "denominator": 4
    },
    "sample_counts": {
      "time": 2,
      "duration": 2,
      "pitch": 2,
      "velocity": 2,
      "numerator": 2,
      "denominator": 2
    }
  },
  {
    "action": "execute_pt",
    "unit": "002",
    "bar_index": 10,
    "pt_name": "trumpet_lead_brass_b22_1761584645601_b672",
    "N": 2,
    "seeds": {
      "time": 0,
      "duration": 4,
      "pitch": 67,
      "velocity": 56,
      "numerator": 3,
      "denominator": 4
    },
    "sample_counts": {
      "time": 2,
      "duration": 2,
      "pitch": 2,
      "velocity": 2,
      "numerator": 2,
      "denominator": 2
    }
  },
  {
    "action": "execute_pt",
    "unit": "002",
    "bar_index": 10,
    "pt_name": "violin_upper_voice_b22_1761584645601_a0be",
    "N": 2,
    "seeds": {
      "time": 0,
      "duration": 8,
      "pitch": 64,
      "velocity": 42,
      "numerator": 3,
      "denominator": 4
    },
    "sample_counts": {
      "time": 2,
      "duration": 2,
      "pitch": 2,
      "velocity": 2,
      "numerator": 2,
      "denominator": 2
    }
  },
  {
    "action": "execute_pt",
    "unit": "002",
    "bar_index": 10,
    "pt_name": "cello_inner_voice_b22_1761584645601_81df",
    "N": 2,
    "seeds": {
      "time": 0,
      "duration": 8,
      "pitch": 56,
      "velocity": 40,
      "numerator": 3,
      "denominator": 4
    },
    "sample_counts": {
      "time": 2,
      "duration": 2,
      "pitch": 2,
      "velocity": 2,
      "numerator": 2,
      "denominator": 2
    }
  },
  {
    "action": "execute_pt",
    "unit": "002",
    "bar_index": 10,
    "pt_name": "double_bass_root_b22_1761584645601_7566",
    "N": 2,
    "seeds": {
      "time": 0,
      "duration": 8,
      "pitch": 37,
      "velocity": 38,
      "numerator": 3,
      "denominator": 4
    },
    "sample_counts": {
      "time": 2,
      "duration": 2,
      "pitch": 2,
      "velocity": 2,
      "numerator": 2,
      "denominator": 2
    }
  },
  {
    "action": "execute_pt",
    "unit": "002",
    "bar_index": 11,
    "pt_name": "alto_flute_soprano_wind_b23_1761584653870_9e24",
    "N": 1,
    "seeds": {
      "time": 4,
      "duration": 8,
      "pitch": 75,
      "velocity": 51,
      "numerator": 3,
      "denominator": 4
    },
    "sample_counts": {
      "time": 1,
      "duration": 1,
      "pitch": 1,
      "velocity": 1,
      "numerator": 1,
      "denominator": 1
    }
  },
  {
    "action": "execute_pt",
    "unit": "002",
    "bar_index": 11,
    "pt_name": "bass_clarinet_bass_wind_b23_1761584653870_6fe8",
    "N": 1,
    "seeds": {
      "time": 4,
      "duration": 8,
      "pitch": 59,
      "velocity": 47,
      "numerator": 3,
      "denominator": 4
    },
    "sample_counts": {
      "time": 1,
      "duration": 1,
      "pitch": 1,
      "velocity": 1,
      "numerator": 1,
      "denominator": 1
    }
  },
  {
    "action": "execute_pt",
    "unit": "002",
    "bar_index": 11,
    "pt_name": "trumpet_lead_brass_b23_1761584653870_a334",
    "N": 1,
    "seeds": {
      "time": 4,
      "duration": 8,
      "pitch": 71,
      "velocity": 55,
      "numerator": 3,
      "denominator": 4
    },
    "sample_counts": {
      "time": 1,
      "duration": 1,
      "pitch": 1,
      "velocity": 1,
      "numerator": 1,
      "denominator": 1
    }
  },
  {
    "action": "execute_pt",
    "unit": "002",
    "bar_index": 11,
    "pt_name": "violin_upper_voice_b23_1761584653870_edde",
    "N": 1,
    "seeds": {
      "time": 0,
      "duration": 8,
      "pitch": 69,
      "velocity": 40,
      "numerator": 3,
      "denominator": 4
    },
    "sample_counts": {
      "time": 1,
      "duration": 1,
      "pitch": 1,
      "velocity": 1,
      "numerator": 1,
      "denominator": 1
    }
  },
  {
    "action": "execute_pt",
    "unit": "002",
    "bar_index": 11,
    "pt_name": "cello_inner_voice_b23_1761584653870_2c07",
    "N": 1,
    "seeds": {
      "time": 0,
      "duration": 8,
      "pitch": 60,
      "velocity": 38,
      "numerator": 3,
      "denominator": 4
    },
    "sample_counts": {
      "time": 1,
      "duration": 1,
      "pitch": 1,
      "velocity": 1,
      "numerator": 1,
      "denominator": 1
    }
  },
  {
    "action": "execute_pt",
    "unit": "002",
    "bar_index": 11,
    "pt_name": "double_bass_root_b23_1761584653870_c655",
    "N": 1,
    "seeds": {
      "time": 0,
      "duration": 8,
      "pitch": 41,
      "velocity": 36,
      "numerator": 3,
      "denominator": 4
    },
    "sample_counts": {
      "time": 1,
      "duration": 1,
      "pitch": 1,
      "velocity": 1,
      "numerator": 1,
      "denominator": 1
    }
  },
  {
    "action": "execute_pt",
    "unit": "002",
    "bar_index": 12,
    "pt_name": "alto_flute_soprano_wind_b24_1761584661421_a85f",
    "N": 1,
    "seeds": {
      "time": 0,
      "duration": 12,
      "pitch": 74,
      "velocity": 50,
      "numerator": 3,
      "denominator": 4
    },
    "sample_counts": {
      "time": 1,
      "duration": 1,
      "pitch": 1,
      "velocity": 1,
      "numerator": 1,
      "denominator": 1
    }
  },
  {
    "action": "execute_pt",
    "unit": "002",
    "bar_index": 12,
    "pt_name": "bass_clarinet_bass_wind_b24_1761584661421_19d3",
    "N": 1,
    "seeds": {
      "time": 0,
      "duration": 12,
      "pitch": 57,
      "velocity": 46,
      "numerator": 3,
      "denominator": 4
    },
    "sample_counts": {
      "time": 1,
      "duration": 1,
      "pitch": 1,
      "velocity": 1,
      "numerator": 1,
      "denominator": 1
    }
  },
  {
    "action": "execute_pt",
    "unit": "002",
    "bar_index": 12,
    "pt_name": "trumpet_lead_brass_b24_1761584661421_bc78",
    "N": 1,
    "seeds": {
      "time": 0,
      "duration": 12,
      "pitch": 69,
      "velocity": 54,
      "numerator": 3,
      "denominator": 4
    },
    "sample_counts": {
      "time": 1,
      "duration": 1,
      "pitch": 1,
      "velocity": 1,
      "numerator": 1,
      "denominator": 1
    }
  },
  {
    "action": "execute_pt",
    "unit": "002",
    "bar_index": 12,
    "pt_name": "violin_upper_voice_b24_1761584661421_63e1",
    "N": 2,
    "seeds": {
      "time": 0,
      "duration": 4,
      "pitch": 68,
      "velocity": 41,
      "numerator": 3,
      "denominator": 4
    },
    "sample_counts": {
      "time": 2,
      "duration": 2,
      "pitch": 2,
      "velocity": 2,
      "numerator": 2,
      "denominator": 2
    }
  },
  {
    "action": "execute_pt",
    "unit": "002",
    "bar_index": 12,
    "pt_name": "cello_inner_voice_b24_1761584661421_c5c2",
    "N": 2,
    "seeds": {
      "time": 0,
      "duration": 4,
      "pitch": 59,
      "velocity": 39,
      "numerator": 3,
      "denominator": 4
    },
    "sample_counts": {
      "time": 2,
      "duration": 2,
      "pitch": 2,
      "velocity": 2,
      "numerator": 2,
      "denominator": 2
    }
  },
  {
    "action": "execute_pt",
    "unit": "002",
    "bar_index": 12,
    "pt_name": "double_bass_root_b24_1761584661421_5277",
    "N": 2,
    "seeds": {
      "time": 0,
      "duration": 4,
      "pitch": 40,
      "velocity": 37,
      "numerator": 3,
      "denominator": 4
    },
    "sample_counts": {
      "time": 2,
      "duration": 2,
      "pitch": 2,
      "velocity": 2,
      "numerator": 2,
      "denominator": 2
    }
  },
  {
    "action": "execute_pt",
    "unit": "003",
    "bar_index": 1,
    "pt_name": "alto_flute_soprano_wind_b25_1761584868460_ea5f",
    "N": 1,
    "seeds": {
      "time": 4,
      "duration": 8,
      "pitch": 74,
      "velocity": 52,
      "numerator": 3,
      "denominator": 4
    },
    "sample_counts": {
      "time": 1,
      "duration": 1,
      "pitch": 1,
      "velocity": 1,
      "numerator": 1,
      "denominator": 1
    }
  },
  {
    "action": "execute_pt",
    "unit": "003",
    "bar_index": 1,
    "pt_name": "bass_clarinet_bass_wind_b25_1761584868460_d4a1",
    "N": 1,
    "seeds": {
      "time": 4,
      "duration": 8,
      "pitch": 55,
      "velocity": 48,
      "numerator": 3,
      "denominator": 4
    },
    "sample_counts": {
      "time": 1,
      "duration": 1,
      "pitch": 1,
      "velocity": 1,
      "numerator": 1,
      "denominator": 1
    }
  },
  {
    "action": "execute_pt",
    "unit": "003",
    "bar_index": 1,
    "pt_name": "trumpet_lead_brass_b25_1761584868460_becb",
    "N": 1,
    "seeds": {
      "time": 4,
      "duration": 8,
      "pitch": 66,
      "velocity": 56,
      "numerator": 3,
      "denominator": 4
    },
    "sample_counts": {
      "time": 1,
      "duration": 1,
      "pitch": 1,
      "velocity": 1,
      "numerator": 1,
      "denominator": 1
    }
  },
  {
    "action": "execute_pt",
    "unit": "003",
    "bar_index": 1,
    "pt_name": "violin_upper_voice_b25_1761584868460_1f19",
    "N": 2,
    "seeds": {
      "time": 0,
      "duration": 8,
      "pitch": 69,
      "velocity": 42,
      "numerator": 3,
      "denominator": 4
    },
    "sample_counts": {
      "time": 2,
      "duration": 2,
      "pitch": 2,
      "velocity": 2,
      "numerator": 2,
      "denominator": 2
    }
  },
  {
    "action": "execute_pt",
    "unit": "003",
    "bar_index": 1,
    "pt_name": "cello_inner_voice_b25_1761584868460_8218",
    "N": 2,
    "seeds": {
      "time": 0,
      "duration": 8,
      "pitch": 64,
      "velocity": 40,
      "numerator": 3,
      "denominator": 4
    },
    "sample_counts": {
      "time": 2,
      "duration": 2,
      "pitch": 2,
      "velocity": 2,
      "numerator": 2,
      "denominator": 2
    }
  },
  {
    "action": "execute_pt",
    "unit": "003",
    "bar_index": 1,
    "pt_name": "double_bass_root_b25_1761584868460_13fc",
    "N": 2,
    "seeds": {
      "time": 0,
      "duration": 8,
      "pitch": 43,
      "velocity": 38,
      "numerator": 3,
      "denominator": 4
    },
    "sample_counts": {
      "time": 2,
      "duration": 2,
      "pitch": 2,
      "velocity": 2,
      "numerator": 2,
      "denominator": 2
    }
  },
  {
    "action": "execute_pt",
    "unit": "003",
    "bar_index": 2,
    "pt_name": "alto_flute_soprano_wind_b26_1761584876399_a622",
    "N": 1,
    "seeds": {
      "time": 0,
      "duration": 12,
      "pitch": 73,
      "velocity": 50,
      "numerator": 3,
      "denominator": 4
    },
    "sample_counts": {
      "time": 1,
      "duration": 1,
      "pitch": 1,
      "velocity": 1,
      "numerator": 1,
      "denominator": 1
    }
  },
  {
    "action": "execute_pt",
    "unit": "003",
    "bar_index": 2,
    "pt_name": "bass_clarinet_bass_wind_b26_1761584876399_72c5",
    "N": 1,
    "seeds": {
      "time": 0,
      "duration": 12,
      "pitch": 57,
      "velocity": 46,
      "numerator": 3,
      "denominator": 4
    },
    "sample_counts": {
      "time": 1,
      "duration": 1,
      "pitch": 1,
      "velocity": 1,
      "numerator": 1,
      "denominator": 1
    }
  },
  {
    "action": "execute_pt",
    "unit": "003",
    "bar_index": 2,
    "pt_name": "trumpet_lead_brass_b26_1761584876399_bf9b",
    "N": 1,
    "seeds": {
      "time": 0,
      "duration": 12,
      "pitch": 69,
      "velocity": 54,
      "numerator": 3,
      "denominator": 4
    },
    "sample_counts": {
      "time": 1,
      "duration": 1,
      "pitch": 1,
      "velocity": 1,
      "numerator": 1,
      "denominator": 1
    }
  },
  {
    "action": "execute_pt",
    "unit": "003",
    "bar_index": 2,
    "pt_name": "violin_upper_voice_b26_1761584876399_c78a",
    "N": 1,
    "seeds": {
      "time": 0,
      "duration": 12,
      "pitch": 66,
      "velocity": 41,
      "numerator": 3,
      "denominator": 4
    },
    "sample_counts": {
      "time": 1,
      "duration": 1,
      "pitch": 1,
      "velocity": 1,
      "numerator": 1,
      "denominator": 1
    }
  },
  {
    "action": "execute_pt",
    "unit": "003",
    "bar_index": 2,
    "pt_name": "cello_inner_voice_b26_1761584876399_049c",
    "N": 1,
    "seeds": {
      "time": 0,
      "duration": 12,
      "pitch": 61,
      "velocity": 39,
      "numerator": 3,
      "denominator": 4
    },
    "sample_counts": {
      "time": 1,
      "duration": 1,
      "pitch": 1,
      "velocity": 1,
      "numerator": 1,
      "denominator": 1
    }
  },
  {
    "action": "execute_pt",
    "unit": "003",
    "bar_index": 2,
    "pt_name": "double_bass_root_b26_1761584876399_ecb5",
    "N": 1,
    "seeds": {
      "time": 0,
      "duration": 12,
      "pitch": 44,
      "velocity": 37,
      "numerator": 3,
      "denominator": 4
    },
    "sample_counts": {
      "time": 1,
      "duration": 1,
      "pitch": 1,
      "velocity": 1,
      "numerator": 1,
      "denominator": 1
    }
  },
  {
    "action": "execute_pt",
    "unit": "003",
    "bar_index": 3,
    "pt_name": "alto_flute_soprano_wind_b27_1761584884413_be29",
    "N": 2,
    "seeds": {
      "time": 0,
      "duration": 8,
      "pitch": 71,
      "velocity": 52,
      "numerator": 3,
      "denominator": 4
    },
    "sample_counts": {
      "time": 2,
      "duration": 2,
      "pitch": 2,
      "velocity": 2,
      "numerator": 2,
      "denominator": 2
    }
  },
  {
    "action": "execute_pt",
    "unit": "003",
    "bar_index": 3,
    "pt_name": "bass_clarinet_bass_wind_b27_1761584884413_5223",
    "N": 2,
    "seeds": {
      "time": 0,
      "duration": 8,
      "pitch": 55,
      "velocity": 48,
      "numerator": 3,
      "denominator": 4
    },
    "sample_counts": {
      "time": 2,
      "duration": 2,
      "pitch": 2,
      "velocity": 2,
      "numerator": 2,
      "denominator": 2
    }
  },
  {
    "action": "execute_pt",
    "unit": "003",
    "bar_index": 3,
    "pt_name": "trumpet_lead_brass_b27_1761584884413_dd85",
    "N": 2,
    "seeds": {
      "time": 0,
      "duration": 8,
      "pitch": 67,
      "velocity": 54,
      "numerator": 3,
      "denominator": 4
    },
    "sample_counts": {
      "time": 2,
      "duration": 2,
      "pitch": 2,
      "velocity": 2,
      "numerator": 2,
      "denominator": 2
    }
  },
  {
    "action": "execute_pt",
    "unit": "003",
    "bar_index": 3,
    "pt_name": "violin_upper_voice_b27_1761584884413_9209",
    "N": 2,
    "seeds": {
      "time": 0,
      "duration": 4,
      "pitch": 72,
      "velocity": 43,
      "numerator": 3,
      "denominator": 4
    },
    "sample_counts": {
      "time": 2,
      "duration": 2,
      "pitch": 2,
      "velocity": 2,
      "numerator": 2,
      "denominator": 2
    }
  },
  {
    "action": "execute_pt",
    "unit": "003",
    "bar_index": 3,
    "pt_name": "cello_inner_voice_b27_1761584884413_61bd",
    "N": 2,
    "seeds": {
      "time": 0,
      "duration": 4,
      "pitch": 65,
      "velocity": 41,
      "numerator": 3,
      "denominator": 4
    },
    "sample_counts": {
      "time": 2,
      "duration": 2,
      "pitch": 2,
      "velocity": 2,
      "numerator": 2,
      "denominator": 2
    }
  },
  {
    "action": "execute_pt",
    "unit": "003",
    "bar_index": 3,
    "pt_name": "double_bass_root_b27_1761584884413_98f0",
    "N": 2,
    "seeds": {
      "time": 0,
      "duration": 4,
      "pitch": 50,
      "velocity": 39,
      "numerator": 3,
      "denominator": 4
    },
    "sample_counts": {
      "time": 2,
      "duration": 2,
      "pitch": 2,
      "velocity": 2,
      "numerator": 2,
      "denominator": 2
    }
  },
  {
    "action": "execute_pt",
    "unit": "003",
    "bar_index": 4,
    "pt_name": "alto_flute_soprano_wind_b28_1761584892375_3d4d",
    "N": 1,
    "seeds": {
      "time": 0,
      "duration": 8,
      "pitch": 72,
      "velocity": 51,
      "numerator": 3,
      "denominator": 4
    },
    "sample_counts": {
      "time": 1,
      "duration": 1,
      "pitch": 1,
      "velocity": 1,
      "numerator": 1,
      "denominator": 1
    }
  },
  {
    "action": "execute_pt",
    "unit": "003",
    "bar_index": 4,
    "pt_name": "bass_clarinet_bass_wind_b28_1761584892375_884a",
    "N": 1,
    "seeds": {
      "time": 0,
      "duration": 8,
      "pitch": 52,
      "velocity": 47,
      "numerator": 3,
      "denominator": 4
    },
    "sample_counts": {
      "time": 1,
      "duration": 1,
      "pitch": 1,
      "velocity": 1,
      "numerator": 1,
      "denominator": 1
    }
  },
  {
    "action": "execute_pt",
    "unit": "003",
    "bar_index": 4,
    "pt_name": "trumpet_lead_brass_b28_1761584892375_b53a",
    "N": 1,
    "seeds": {
      "time": 0,
      "duration": 8,
      "pitch": 64,
      "velocity": 55,
      "numerator": 3,
      "denominator": 4
    },
    "sample_counts": {
      "time": 1,
      "duration": 1,
      "pitch": 1,
      "velocity": 1,
      "numerator": 1,
      "denominator": 1
    }
  },
  {
    "action": "execute_pt",
    "unit": "003",
    "bar_index": 4,
    "pt_name": "violin_upper_voice_b28_1761584892375_b23d",
    "N": 1,
    "seeds": {
      "time": 0,
      "duration": 8,
      "pitch": 69,
      "velocity": 42,
      "numerator": 3,
      "denominator": 4
    },
    "sample_counts": {
      "time": 1,
      "duration": 1,
      "pitch": 1,
      "velocity": 1,
      "numerator": 1,
      "denominator": 1
    }
  },
  {
    "action": "execute_pt",
    "unit": "003",
    "bar_index": 4,
    "pt_name": "cello_inner_voice_b28_1761584892375_ab47",
    "N": 1,
    "seeds": {
      "time": 0,
      "duration": 8,
      "pitch": 64,
      "velocity": 40,
      "numerator": 3,
      "denominator": 4
    },
    "sample_counts": {
      "time": 1,
      "duration": 1,
      "pitch": 1,
      "velocity": 1,
      "numerator": 1,
      "denominator": 1
    }
  },
  {
    "action": "execute_pt",
    "unit": "003",
    "bar_index": 4,
    "pt_name": "double_bass_root_b28_1761584892375_a87b",
    "N": 1,
    "seeds": {
      "time": 0,
      "duration": 8,
      "pitch": 48,
      "velocity": 38,
      "numerator": 3,
      "denominator": 4
    },
    "sample_counts": {
      "time": 1,
      "duration": 1,
      "pitch": 1,
      "velocity": 1,
      "numerator": 1,
      "denominator": 1
    }
  },
  {
    "action": "execute_pt",
    "unit": "003",
    "bar_index": 5,
    "pt_name": "alto_flute_soprano_wind_b29_1761584899406_e116",
    "N": 2,
    "seeds": {
      "time": 0,
      "duration": 4,
      "pitch": 74,
      "velocity": 50,
      "numerator": 3,
      "denominator": 4
    },
    "sample_counts": {
      "time": 2,
      "duration": 2,
      "pitch": 2,
      "velocity": 2,
      "numerator": 2,
      "denominator": 2
    }
  },
  {
    "action": "execute_pt",
    "unit": "003",
    "bar_index": 5,
    "pt_name": "bass_clarinet_bass_wind_b29_1761584899406_51db",
    "N": 2,
    "seeds": {
      "time": 0,
      "duration": 4,
      "pitch": 57,
      "velocity": 46,
      "numerator": 3,
      "denominator": 4
    },
    "sample_counts": {
      "time": 2,
      "duration": 2,
      "pitch": 2,
      "velocity": 2,
      "numerator": 2,
      "denominator": 2
    }
  },
  {
    "action": "execute_pt",
    "unit": "003",
    "bar_index": 5,
    "pt_name": "trumpet_lead_brass_b29_1761584899406_3c0d",
    "N": 2,
    "seeds": {
      "time": 0,
      "duration": 4,
      "pitch": 69,
      "velocity": 54,
      "numerator": 3,
      "denominator": 4
    },
    "sample_counts": {
      "time": 2,
      "duration": 2,
      "pitch": 2,
      "velocity": 2,
      "numerator": 2,
      "denominator": 2
    }
  },
  {
    "action": "execute_pt",
    "unit": "003",
    "bar_index": 5,
    "pt_name": "violin_upper_voice_b29_1761584899406_adc3",
    "N": 1,
    "seeds": {
      "time": 4,
      "duration": 8,
      "pitch": 71,
      "velocity": 41,
      "numerator": 3,
      "denominator": 4
    },
    "sample_counts": {
      "time": 1,
      "duration": 1,
      "pitch": 1,
      "velocity": 1,
      "numerator": 1,
      "denominator": 1
    }
  },
  {
    "action": "execute_pt",
    "unit": "003",
    "bar_index": 5,
    "pt_name": "cello_inner_voice_b29_1761584899406_ac8f",
    "N": 1,
    "seeds": {
      "time": 4,
      "duration": 8,
      "pitch": 61,
      "velocity": 39,
      "numerator": 3,
      "denominator": 4
    },
    "sample_counts": {
      "time": 1,
      "duration": 1,
      "pitch": 1,
      "velocity": 1,
      "numerator": 1,
      "denominator": 1
    }
  },
  {
    "action": "execute_pt",
    "unit": "003",
    "bar_index": 5,
    "pt_name": "double_bass_root_b29_1761584899406_cdd9",
    "N": 1,
    "seeds": {
      "time": 4,
      "duration": 8,
      "pitch": 42,
      "velocity": 37,
      "numerator": 3,
      "denominator": 4
    },
    "sample_counts": {
      "time": 1,
      "duration": 1,
      "pitch": 1,
      "velocity": 1,
      "numerator": 1,
      "denominator": 1
    }
  },
  {
    "action": "execute_pt",
    "unit": "003",
    "bar_index": 6,
    "pt_name": "alto_flute_soprano_wind_b30_1761584907112_ef5a",
    "N": 1,
    "seeds": {
      "time": 4,
      "duration": 8,
      "pitch": 73,
      "velocity": 51,
      "numerator": 3,
      "denominator": 4
    },
    "sample_counts": {
      "time": 1,
      "duration": 1,
      "pitch": 1,
      "velocity": 1,
      "numerator": 1,
      "denominator": 1
    }
  },
  {
    "action": "execute_pt",
    "unit": "003",
    "bar_index": 6,
    "pt_name": "bass_clarinet_bass_wind_b30_1761584907112_78b6",
    "N": 1,
    "seeds": {
      "time": 4,
      "duration": 8,
      "pitch": 56,
      "velocity": 47,
      "numerator": 3,
      "denominator": 4
    },
    "sample_counts": {
      "time": 1,
      "duration": 1,
      "pitch": 1,
      "velocity": 1,
      "numerator": 1,
      "denominator": 1
    }
  },
  {
    "action": "execute_pt",
    "unit": "003",
    "bar_index": 6,
    "pt_name": "trumpet_lead_brass_b30_1761584907112_db50",
    "N": 1,
    "seeds": {
      "time": 4,
      "duration": 8,
      "pitch": 68,
      "velocity": 55,
      "numerator": 3,
      "denominator": 4
    },
    "sample_counts": {
      "time": 1,
      "duration": 1,
      "pitch": 1,
      "velocity": 1,
      "numerator": 1,
      "denominator": 1
    }
  },
  {
    "action": "execute_pt",
    "unit": "003",
    "bar_index": 6,
    "pt_name": "violin_upper_voice_b30_1761584907112_0374",
    "N": 2,
    "seeds": {
      "time": 0,
      "duration": 8,
      "pitch": 67,
      "velocity": 42,
      "numerator": 3,
      "denominator": 4
    },
    "sample_counts": {
      "time": 2,
      "duration": 2,
      "pitch": 2,
      "velocity": 2,
      "numerator": 2,
      "denominator": 2
    }
  },
  {
    "action": "execute_pt",
    "unit": "003",
    "bar_index": 6,
    "pt_name": "cello_inner_voice_b30_1761584907112_565e",
    "N": 2,
    "seeds": {
      "time": 0,
      "duration": 8,
      "pitch": 62,
      "velocity": 40,
      "numerator": 3,
      "denominator": 4
    },
    "sample_counts": {
      "time": 2,
      "duration": 2,
      "pitch": 2,
      "velocity": 2,
      "numerator": 2,
      "denominator": 2
    }
  },
  {
    "action": "execute_pt",
    "unit": "003",
    "bar_index": 6,
    "pt_name": "double_bass_root_b30_1761584907112_0956",
    "N": 2,
    "seeds": {
      "time": 0,
      "duration": 8,
      "pitch": 46,
      "velocity": 38,
      "numerator": 3,
      "denominator": 4
    },
    "sample_counts": {
      "time": 2,
      "duration": 2,
      "pitch": 2,
      "velocity": 2,
      "numerator": 2,
      "denominator": 2
    }
  },
  {
    "action": "execute_pt",
    "unit": "003",
    "bar_index": 7,
    "pt_name": "alto_flute_soprano_wind_b31_1761584914322_a62f",
    "N": 1,
    "seeds": {
      "time": 0,
      "duration": 12,
      "pitch": 76,
      "velocity": 52,
      "numerator": 3,
      "denominator": 4
    },
    "sample_counts": {
      "time": 1,
      "duration": 1,
      "pitch": 1,
      "velocity": 1,
      "numerator": 1,
      "denominator": 1
    }
  },
  {
    "action": "execute_pt",
    "unit": "003",
    "bar_index": 7,
    "pt_name": "bass_clarinet_bass_wind_b31_1761584914322_4300",
    "N": 1,
    "seeds": {
      "time": 0,
      "duration": 12,
      "pitch": 59,
      "velocity": 48,
      "numerator": 3,
      "denominator": 4
    },
    "sample_counts": {
      "time": 1,
      "duration": 1,
      "pitch": 1,
      "velocity": 1,
      "numerator": 1,
      "denominator": 1
    }
  },
  {
    "action": "execute_pt",
    "unit": "003",
    "bar_index": 7,
    "pt_name": "trumpet_lead_brass_b31_1761584914322_98d7",
    "N": 1,
    "seeds": {
      "time": 0,
      "duration": 12,
      "pitch": 71,
      "velocity": 56,
      "numerator": 3,
      "denominator": 4
    },
    "sample_counts": {
      "time": 1,
      "duration": 1,
      "pitch": 1,
      "velocity": 1,
      "numerator": 1,
      "denominator": 1
    }
  },
  {
    "action": "execute_pt",
    "unit": "003",
    "bar_index": 7,
    "pt_name": "violin_upper_voice_b31_1761584914322_b6b0",
    "N": 1,
    "seeds": {
      "time": 0,
      "duration": 12,
      "pitch": 71,
      "velocity": 42,
      "numerator": 3,
      "denominator": 4
    },
    "sample_counts": {
      "time": 1,
      "duration": 1,
      "pitch": 1,
      "velocity": 1,
      "numerator": 1,
      "denominator": 1
    }
  },
  {
    "action": "execute_pt",
    "unit": "003",
    "bar_index": 7,
    "pt_name": "cello_inner_voice_b31_1761584914322_1296",
    "N": 1,
    "seeds": {
      "time": 0,
      "duration": 12,
      "pitch": 64,
      "velocity": 40,
      "numerator": 3,
      "denominator": 4
    },
    "sample_counts": {
      "time": 1,
      "duration": 1,
      "pitch": 1,
      "velocity": 1,
      "numerator": 1,
      "denominator": 1
    }
  },
  {
    "action": "execute_pt",
    "unit": "003",
    "bar_index": 7,
    "pt_name": "double_bass_root_b31_1761584914323_b785",
    "N": 1,
    "seeds": {
      "time": 0,
      "duration": 12,
      "pitch": 45,
      "velocity": 38,
      "numerator": 3,
      "denominator": 4
    },
    "sample_counts": {
      "time": 1,
      "duration": 1,
      "pitch": 1,
      "velocity": 1,
      "numerator": 1,
      "denominator": 1
    }
  },
  {
    "action": "execute_pt",
    "unit": "003",
    "bar_index": 8,
    "pt_name": "alto_flute_soprano_wind_b32_1761584921404_6c0b",
    "N": 2,
    "seeds": {
      "time": 0,
      "duration": 8,
      "pitch": 77,
      "velocity": 52,
      "numerator": 3,
      "denominator": 4
    },
    "sample_counts": {
      "time": 2,
      "duration": 2,
      "pitch": 2,
      "velocity": 2,
      "numerator": 2,
      "denominator": 2
    }
  },
  {
    "action": "execute_pt",
    "unit": "003",
    "bar_index": 8,
    "pt_name": "bass_clarinet_bass_wind_b32_1761584921404_5d3c",
    "N": 2,
    "seeds": {
      "time": 0,
      "duration": 8,
      "pitch": 60,
      "velocity": 48,
      "numerator": 3,
      "denominator": 4
    },
    "sample_counts": {
      "time": 2,
      "duration": 2,
      "pitch": 2,
      "velocity": 2,
      "numerator": 2,
      "denominator": 2
    }
  },
  {
    "action": "execute_pt",
    "unit": "003",
    "bar_index": 8,
    "pt_name": "trumpet_lead_brass_b32_1761584921404_3864",
    "N": 2,
    "seeds": {
      "time": 0,
      "duration": 8,
      "pitch": 72,
      "velocity": 56,
      "numerator": 3,
      "denominator": 4
    },
    "sample_counts": {
      "time": 2,
      "duration": 2,
      "pitch": 2,
      "velocity": 2,
      "numerator": 2,
      "denominator": 2
    }
  },
  {
    "action": "execute_pt",
    "unit": "003",
    "bar_index": 8,
    "pt_name": "violin_upper_voice_b32_1761584921404_363d",
    "N": 2,
    "seeds": {
      "time": 0,
      "duration": 4,
      "pitch": 62,
      "velocity": 42,
      "numerator": 3,
      "denominator": 4
    },
    "sample_counts": {
      "time": 2,
      "duration": 2,
      "pitch": 2,
      "velocity": 2,
      "numerator": 2,
      "denominator": 2
    }
  },
  {
    "action": "execute_pt",
    "unit": "003",
    "bar_index": 8,
    "pt_name": "cello_inner_voice_b32_1761584921404_f340",
    "N": 2,
    "seeds": {
      "time": 0,
      "duration": 4,
      "pitch": 57,
      "velocity": 40,
      "numerator": 3,
      "denominator": 4
    },
    "sample_counts": {
      "time": 2,
      "duration": 2,
      "pitch": 2,
      "velocity": 2,
      "numerator": 2,
      "denominator": 2
    }
  },
  {
    "action": "execute_pt",
    "unit": "003",
    "bar_index": 8,
    "pt_name": "double_bass_root_b32_1761584921404_bdf7",
    "N": 2,
    "seeds": {
      "time": 0,
      "duration": 4,
      "pitch": 40,
      "velocity": 38,
      "numerator": 3,
      "denominator": 4
    },
    "sample_counts": {
      "time": 2,
      "duration": 2,
      "pitch": 2,
      "velocity": 2,
      "numerator": 2,
      "denominator": 2
    }
  },
  {
    "action": "execute_pt",
    "unit": "003",
    "bar_index": 9,
    "pt_name": "alto_flute_soprano_wind_b33_1761584928446_9f61",
    "N": 1,
    "seeds": {
      "time": 0,
      "duration": 8,
      "pitch": 74,
      "velocity": 51,
      "numerator": 3,
      "denominator": 4
    },
    "sample_counts": {
      "time": 1,
      "duration": 1,
      "pitch": 1,
      "velocity": 1,
      "numerator": 1,
      "denominator": 1
    }
  },
  {
    "action": "execute_pt",
    "unit": "003",
    "bar_index": 9,
    "pt_name": "bass_clarinet_bass_wind_b33_1761584928446_91f3",
    "N": 1,
    "seeds": {
      "time": 0,
      "duration": 8,
      "pitch": 57,
      "velocity": 47,
      "numerator": 3,
      "denominator": 4
    },
    "sample_counts": {
      "time": 1,
      "duration": 1,
      "pitch": 1,
      "velocity": 1,
      "numerator": 1,
      "denominator": 1
    }
  },
  {
    "action": "execute_pt",
    "unit": "003",
    "bar_index": 9,
    "pt_name": "trumpet_lead_brass_b33_1761584928446_6af6",
    "N": 1,
    "seeds": {
      "time": 0,
      "duration": 8,
      "pitch": 69,
      "velocity": 55,
      "numerator": 3,
      "denominator": 4
    },
    "sample_counts": {
      "time": 1,
      "duration": 1,
      "pitch": 1,
      "velocity": 1,
      "numerator": 1,
      "denominator": 1
    }
  },
  {
    "action": "execute_pt",
    "unit": "003",
    "bar_index": 9,
    "pt_name": "violin_upper_voice_b33_1761584928446_c628",
    "N": 1,
    "seeds": {
      "time": 0,
      "duration": 8,
      "pitch": 63,
      "velocity": 41,
      "numerator": 3,
      "denominator": 4
    },
    "sample_counts": {
      "time": 1,
      "duration": 1,
      "pitch": 1,
      "velocity": 1,
      "numerator": 1,
      "denominator": 1
    }
  },
  {
    "action": "execute_pt",
    "unit": "003",
    "bar_index": 9,
    "pt_name": "cello_inner_voice_b33_1761584928446_ce8c",
    "N": 1,
    "seeds": {
      "time": 0,
      "duration": 8,
      "pitch": 56,
      "velocity": 39,
      "numerator": 3,
      "denominator": 4
    },
    "sample_counts": {
      "time": 1,
      "duration": 1,
      "pitch": 1,
      "velocity": 1,
      "numerator": 1,
      "denominator": 1
    }
  },
  {
    "action": "execute_pt",
    "unit": "003",
    "bar_index": 9,
    "pt_name": "double_bass_root_b33_1761584928446_fae7",
    "N": 1,
    "seeds": {
      "time": 0,
      "duration": 8,
      "pitch": 49,
      "velocity": 37,
      "numerator": 3,
      "denominator": 4
    },
    "sample_counts": {
      "time": 1,
      "duration": 1,
      "pitch": 1,
      "velocity": 1,
      "numerator": 1,
      "denominator": 1
    }
  },
  {
    "action": "execute_pt",
    "unit": "003",
    "bar_index": 10,
    "pt_name": "alto_flute_soprano_wind_b34_1761584936435_4dbf",
    "N": 2,
    "seeds": {
      "time": 0,
      "duration": 4,
      "pitch": 73,
      "velocity": 52,
      "numerator": 3,
      "denominator": 4
    },
    "sample_counts": {
      "time": 2,
      "duration": 2,
      "pitch": 2,
      "velocity": 2,
      "numerator": 2,
      "denominator": 2
    }
  },
  {
    "action": "execute_pt",
    "unit": "003",
    "bar_index": 10,
    "pt_name": "bass_clarinet_bass_wind_b34_1761584936435_fa43",
    "N": 2,
    "seeds": {
      "time": 0,
      "duration": 4,
      "pitch": 55,
      "velocity": 48,
      "numerator": 3,
      "denominator": 4
    },
    "sample_counts": {
      "time": 2,
      "duration": 2,
      "pitch": 2,
      "velocity": 2,
      "numerator": 2,
      "denominator": 2
    }
  },
  {
    "action": "execute_pt",
    "unit": "003",
    "bar_index": 10,
    "pt_name": "trumpet_lead_brass_b34_1761584936435_e191",
    "N": 2,
    "seeds": {
      "time": 0,
      "duration": 4,
      "pitch": 67,
      "velocity": 56,
      "numerator": 3,
      "denominator": 4
    },
    "sample_counts": {
      "time": 2,
      "duration": 2,
      "pitch": 2,
      "velocity": 2,
      "numerator": 2,
      "denominator": 2
    }
  },
  {
    "action": "execute_pt",
    "unit": "003",
    "bar_index": 10,
    "pt_name": "violin_upper_voice_b34_1761584936435_7ce7",
    "N": 2,
    "seeds": {
      "time": 0,
      "duration": 8,
      "pitch": 70,
      "velocity": 41,
      "numerator": 3,
      "denominator": 4
    },
    "sample_counts": {
      "time": 2,
      "duration": 2,
      "pitch": 2,
      "velocity": 2,
      "numerator": 2,
      "denominator": 2
    }
  },
  {
    "action": "execute_pt",
    "unit": "003",
    "bar_index": 10,
    "pt_name": "cello_inner_voice_b34_1761584936435_a999",
    "N": 2,
    "seeds": {
      "time": 0,
      "duration": 8,
      "pitch": 67,
      "velocity": 39,
      "numerator": 3,
      "denominator": 4
    },
    "sample_counts": {
      "time": 2,
      "duration": 2,
      "pitch": 2,
      "velocity": 2,
      "numerator": 2,
      "denominator": 2
    }
  },
  {
    "action": "execute_pt",
    "unit": "003",
    "bar_index": 10,
    "pt_name": "double_bass_root_b34_1761584936435_c5db",
    "N": 2,
    "seeds": {
      "time": 0,
      "duration": 8,
      "pitch": 39,
      "velocity": 37,
      "numerator": 3,
      "denominator": 4
    },
    "sample_counts": {
      "time": 2,
      "duration": 2,
      "pitch": 2,
      "velocity": 2,
      "numerator": 2,
      "denominator": 2
    }
  },
  {
    "action": "execute_pt",
    "unit": "003",
    "bar_index": 11,
    "pt_name": "alto_flute_soprano_wind_b35_1761584943468_5b79",
    "N": 1,
    "seeds": {
      "time": 4,
      "duration": 8,
      "pitch": 75,
      "velocity": 51,
      "numerator": 3,
      "denominator": 4
    },
    "sample_counts": {
      "time": 1,
      "duration": 1,
      "pitch": 1,
      "velocity": 1,
      "numerator": 1,
      "denominator": 1
    }
  },
  {
    "action": "execute_pt",
    "unit": "003",
    "bar_index": 11,
    "pt_name": "bass_clarinet_bass_wind_b35_1761584943468_e8ca",
    "N": 1,
    "seeds": {
      "time": 4,
      "duration": 8,
      "pitch": 59,
      "velocity": 47,
      "numerator": 3,
      "denominator": 4
    },
    "sample_counts": {
      "time": 1,
      "duration": 1,
      "pitch": 1,
      "velocity": 1,
      "numerator": 1,
      "denominator": 1
    }
  },
  {
    "action": "execute_pt",
    "unit": "003",
    "bar_index": 11,
    "pt_name": "trumpet_lead_brass_b35_1761584943468_53a0",
    "N": 1,
    "seeds": {
      "time": 4,
      "duration": 8,
      "pitch": 71,
      "velocity": 55,
      "numerator": 3,
      "denominator": 4
    },
    "sample_counts": {
      "time": 1,
      "duration": 1,
      "pitch": 1,
      "velocity": 1,
      "numerator": 1,
      "denominator": 1
    }
  },
  {
    "action": "execute_pt",
    "unit": "003",
    "bar_index": 11,
    "pt_name": "violin_upper_voice_b35_1761584943468_8509",
    "N": 1,
    "seeds": {
      "time": 0,
      "duration": 12,
      "pitch": 64,
      "velocity": 41,
      "numerator": 3,
      "denominator": 4
    },
    "sample_counts": {
      "time": 1,
      "duration": 1,
      "pitch": 1,
      "velocity": 1,
      "numerator": 1,
      "denominator": 1
    }
  },
  {
    "action": "execute_pt",
    "unit": "003",
    "bar_index": 11,
    "pt_name": "cello_inner_voice_b35_1761584943468_b8e1",
    "N": 1,
    "seeds": {
      "time": 0,
      "duration": 12,
      "pitch": 60,
      "velocity": 39,
      "numerator": 3,
      "denominator": 4
    },
    "sample_counts": {
      "time": 1,
      "duration": 1,
      "pitch": 1,
      "velocity": 1,
      "numerator": 1,
      "denominator": 1
    }
  },
  {
    "action": "execute_pt",
    "unit": "003",
    "bar_index": 11,
    "pt_name": "double_bass_root_b35_1761584943468_e59e",
    "N": 1,
    "seeds": {
      "time": 0,
      "duration": 12,
      "pitch": 43,
      "velocity": 37,
      "numerator": 3,
      "denominator": 4
    },
    "sample_counts": {
      "time": 1,
      "duration": 1,
      "pitch": 1,
      "velocity": 1,
      "numerator": 1,
      "denominator": 1
    }
  },
  {
    "action": "execute_pt",
    "unit": "003",
    "bar_index": 12,
    "pt_name": "alto_flute_soprano_wind_b36_1761584951428_8a3c",
    "N": 1,
    "seeds": {
      "time": 0,
      "duration": 12,
      "pitch": 74,
      "velocity": 50,
      "numerator": 3,
      "denominator": 4
    },
    "sample_counts": {
      "time": 1,
      "duration": 1,
      "pitch": 1,
      "velocity": 1,
      "numerator": 1,
      "denominator": 1
    }
  },
  {
    "action": "execute_pt",
    "unit": "003",
    "bar_index": 12,
    "pt_name": "bass_clarinet_bass_wind_b36_1761584951428_8b26",
    "N": 1,
    "seeds": {
      "time": 0,
      "duration": 12,
      "pitch": 57,
      "velocity": 46,
      "numerator": 3,
      "denominator": 4
    },
    "sample_counts": {
      "time": 1,
      "duration": 1,
      "pitch": 1,
      "velocity": 1,
      "numerator": 1,
      "denominator": 1
    }
  },
  {
    "action": "execute_pt",
    "unit": "003",
    "bar_index": 12,
    "pt_name": "trumpet_lead_brass_b36_1761584951428_a7c8",
    "N": 1,
    "seeds": {
      "time": 0,
      "duration": 12,
      "pitch": 69,
      "velocity": 54,
      "numerator": 3,
      "denominator": 4
    },
    "sample_counts": {
      "time": 1,
      "duration": 1,
      "pitch": 1,
      "velocity": 1,
      "numerator": 1,
      "denominator": 1
    }
  },
  {
    "action": "execute_pt",
    "unit": "003",
    "bar_index": 12,
    "pt_name": "violin_upper_voice_b36_1761584951428_9994",
    "N": 2,
    "seeds": {
      "time": 0,
      "duration": 4,
      "pitch": 70,
      "velocity": 41,
      "numerator": 3,
      "denominator": 4
    },
    "sample_counts": {
      "time": 2,
      "duration": 2,
      "pitch": 2,
      "velocity": 2,
      "numerator": 2,
      "denominator": 2
    }
  },
  {
    "action": "execute_pt",
    "unit": "003",
    "bar_index": 12,
    "pt_name": "cello_inner_voice_b36_1761584951428_d2cf",
    "N": 2,
    "seeds": {
      "time": 0,
      "duration": 4,
      "pitch": 57,
      "velocity": 39,
      "numerator": 3,
      "denominator": 4
    },
    "sample_counts": {
      "time": 2,
      "duration": 2,
      "pitch": 2,
      "velocity": 2,
      "numerator": 2,
      "denominator": 2
    }
  },
  {
    "action": "execute_pt",
    "unit": "003",
    "bar_index": 12,
    "pt_name": "double_bass_root_b36_1761584951428_d2e8",
    "N": 2,
    "seeds": {
      "time": 0,
      "duration": 4,
      "pitch": 41,
      "velocity": 37,
      "numerator": 3,
      "denominator": 4
    },
    "sample_counts": {
      "time": 2,
      "duration": 2,
      "pitch": 2,
      "velocity": 2,
      "numerator": 2,
      "denominator": 2
    }
  },
  {
    "action": "execute_pt",
    "unit": "003",
    "bar_index": 13,
    "pt_name": "alto_flute_soprano_wind_b26_1761584959280_6874",
    "N": 1,
    "seeds": {
      "time": 0,
      "duration": 12,
      "pitch": 73,
      "velocity": 50,
      "numerator": 3,
      "denominator": 4
    },
    "sample_counts": {
      "time": 1,
      "duration": 1,
      "pitch": 1,
      "velocity": 1,
      "numerator": 1,
      "denominator": 1
    }
  },
  {
    "action": "execute_pt",
    "unit": "003",
    "bar_index": 13,
    "pt_name": "bass_clarinet_bass_wind_b26_1761584959280_ee73",
    "N": 1,
    "seeds": {
      "time": 0,
      "duration": 12,
      "pitch": 57,
      "velocity": 46,
      "numerator": 3,
      "denominator": 4
    },
    "sample_counts": {
      "time": 1,
      "duration": 1,
      "pitch": 1,
      "velocity": 1,
      "numerator": 1,
      "denominator": 1
    }
  },
  {
    "action": "execute_pt",
    "unit": "003",
    "bar_index": 13,
    "pt_name": "trumpet_lead_brass_b26_1761584959280_8250",
    "N": 1,
    "seeds": {
      "time": 0,
      "duration": 12,
      "pitch": 69,
      "velocity": 54,
      "numerator": 3,
      "denominator": 4
    },
    "sample_counts": {
      "time": 1,
      "duration": 1,
      "pitch": 1,
      "velocity": 1,
      "numerator": 1,
      "denominator": 1
    }
  },
  {
    "action": "execute_pt",
    "unit": "003",
    "bar_index": 13,
    "pt_name": "violin_upper_voice_b26_1761584959280_45cf",
    "N": 1,
    "seeds": {
      "time": 0,
      "duration": 12,
      "pitch": 66,
      "velocity": 41,
      "numerator": 3,
      "denominator": 4
    },
    "sample_counts": {
      "time": 1,
      "duration": 1,
      "pitch": 1,
      "velocity": 1,
      "numerator": 1,
      "denominator": 1
    }
  },
  {
    "action": "execute_pt",
    "unit": "003",
    "bar_index": 13,
    "pt_name": "cello_inner_voice_b26_1761584959280_4dd9",
    "N": 1,
    "seeds": {
      "time": 0,
      "duration": 12,
      "pitch": 61,
      "velocity": 39,
      "numerator": 3,
      "denominator": 4
    },
    "sample_counts": {
      "time": 1,
      "duration": 1,
      "pitch": 1,
      "velocity": 1,
      "numerator": 1,
      "denominator": 1
    }
  },
  {
    "action": "execute_pt",
    "unit": "003",
    "bar_index": 13,
    "pt_name": "double_bass_root_b26_1761584959280_5eca",
    "N": 1,
    "seeds": {
      "time": 0,
      "duration": 12,
      "pitch": 44,
      "velocity": 37,
      "numerator": 3,
      "denominator": 4
    },
    "sample_counts": {
      "time": 1,
      "duration": 1,
      "pitch": 1,
      "velocity": 1,
      "numerator": 1,
      "denominator": 1
    }
  },
  {
    "action": "execute_pt",
    "unit": "004",
    "bar_index": 1,
    "pt_name": "alto_flute_soprano_wind_b37_1761585160045_0af0",
    "N": 2,
    "seeds": {
      "time": 0,
      "duration": 4,
      "pitch": 74,
      "velocity": 52,
      "numerator": 3,
      "denominator": 4
    },
    "sample_counts": {
      "time": 2,
      "duration": 2,
      "pitch": 2,
      "velocity": 2,
      "numerator": 2,
      "denominator": 2
    }
  },
  {
    "action": "execute_pt",
    "unit": "004",
    "bar_index": 1,
    "pt_name": "bass_clarinet_bass_wind_b37_1761585160045_f733",
    "N": 2,
    "seeds": {
      "time": 0,
      "duration": 4,
      "pitch": 55,
      "velocity": 48,
      "numerator": 3,
      "denominator": 4
    },
    "sample_counts": {
      "time": 2,
      "duration": 2,
      "pitch": 2,
      "velocity": 2,
      "numerator": 2,
      "denominator": 2
    }
  },
  {
    "action": "execute_pt",
    "unit": "004",
    "bar_index": 1,
    "pt_name": "trumpet_lead_brass_b37_1761585160045_0d9c",
    "N": 2,
    "seeds": {
      "time": 0,
      "duration": 4,
      "pitch": 69,
      "velocity": 56,
      "numerator": 3,
      "denominator": 4
    },
    "sample_counts": {
      "time": 2,
      "duration": 2,
      "pitch": 2,
      "velocity": 2,
      "numerator": 2,
      "denominator": 2
    }
  },
  {
    "action": "execute_pt",
    "unit": "004",
    "bar_index": 1,
    "pt_name": "violin_upper_voice_b37_1761585160045_15ea",
    "N": 2,
    "seeds": {
      "time": 0,
      "duration": 8,
      "pitch": 69,
      "velocity": 42,
      "numerator": 3,
      "denominator": 4
    },
    "sample_counts": {
      "time": 2,
      "duration": 2,
      "pitch": 2,
      "velocity": 2,
      "numerator": 2,
      "denominator": 2
    }
  },
  {
    "action": "execute_pt",
    "unit": "004",
    "bar_index": 1,
    "pt_name": "cello_inner_voice_b37_1761585160045_ea55",
    "N": 2,
    "seeds": {
      "time": 0,
      "duration": 8,
      "pitch": 64,
      "velocity": 40,
      "numerator": 3,
      "denominator": 4
    },
    "sample_counts": {
      "time": 2,
      "duration": 2,
      "pitch": 2,
      "velocity": 2,
      "numerator": 2,
      "denominator": 2
    }
  },
  {
    "action": "execute_pt",
    "unit": "004",
    "bar_index": 1,
    "pt_name": "double_bass_root_b37_1761585160045_63c6",
    "N": 2,
    "seeds": {
      "time": 0,
      "duration": 8,
      "pitch": 43,
      "velocity": 38,
      "numerator": 3,
      "denominator": 4
    },
    "sample_counts": {
      "time": 2,
      "duration": 2,
      "pitch": 2,
      "velocity": 2,
      "numerator": 2,
      "denominator": 2
    }
  },
  {
    "action": "execute_pt",
    "unit": "004",
    "bar_index": 2,
    "pt_name": "alto_flute_soprano_wind_b38_1761585167614_78b7",
    "N": 1,
    "seeds": {
      "time": 0,
      "duration": 12,
      "pitch": 74,
      "velocity": 51,
      "numerator": 3,
      "denominator": 4
    },
    "sample_counts": {
      "time": 1,
      "duration": 1,
      "pitch": 1,
      "velocity": 1,
      "numerator": 1,
      "denominator": 1
    }
  },
  {
    "action": "execute_pt",
    "unit": "004",
    "bar_index": 2,
    "pt_name": "bass_clarinet_bass_wind_b38_1761585167614_a7d2",
    "N": 1,
    "seeds": {
      "time": 0,
      "duration": 12,
      "pitch": 52,
      "velocity": 47,
      "numerator": 3,
      "denominator": 4
    },
    "sample_counts": {
      "time": 1,
      "duration": 1,
      "pitch": 1,
      "velocity": 1,
      "numerator": 1,
      "denominator": 1
    }
  },
  {
    "action": "execute_pt",
    "unit": "004",
    "bar_index": 2,
    "pt_name": "trumpet_lead_brass_b38_1761585167614_fad4",
    "N": 1,
    "seeds": {
      "time": 0,
      "duration": 12,
      "pitch": 66,
      "velocity": 55,
      "numerator": 3,
      "denominator": 4
    },
    "sample_counts": {
      "time": 1,
      "duration": 1,
      "pitch": 1,
      "velocity": 1,
      "numerator": 1,
      "denominator": 1
    }
  },
  {
    "action": "execute_pt",
    "unit": "004",
    "bar_index": 2,
    "pt_name": "violin_upper_voice_b38_1761585167614_36f9",
    "N": 1,
    "seeds": {
      "time": 0,
      "duration": 12,
      "pitch": 66,
      "velocity": 41,
      "numerator": 3,
      "denominator": 4
    },
    "sample_counts": {
      "time": 1,
      "duration": 1,
      "pitch": 1,
      "velocity": 1,
      "numerator": 1,
      "denominator": 1
    }
  },
  {
    "action": "execute_pt",
    "unit": "004",
    "bar_index": 2,
    "pt_name": "cello_inner_voice_b38_1761585167614_9bb2",
    "N": 1,
    "seeds": {
      "time": 0,
      "duration": 12,
      "pitch": 61,
      "velocity": 39,
      "numerator": 3,
      "denominator": 4
    },
    "sample_counts": {
      "time": 1,
      "duration": 1,
      "pitch": 1,
      "velocity": 1,
      "numerator": 1,
      "denominator": 1
    }
  },
  {
    "action": "execute_pt",
    "unit": "004",
    "bar_index": 2,
    "pt_name": "double_bass_root_b38_1761585167614_a89b",
    "N": 1,
    "seeds": {
      "time": 0,
      "duration": 12,
      "pitch": 44,
      "velocity": 37,
      "numerator": 3,
      "denominator": 4
    },
    "sample_counts": {
      "time": 1,
      "duration": 1,
      "pitch": 1,
      "velocity": 1,
      "numerator": 1,
      "denominator": 1
    }
  },
  {
    "action": "execute_pt",
    "unit": "004",
    "bar_index": 3,
    "pt_name": "alto_flute_soprano_wind_b39_1761585174594_5717",
    "N": 2,
    "seeds": {
      "time": 0,
      "duration": 8,
      "pitch": 76,
      "velocity": 52,
      "numerator": 3,
      "denominator": 4
    },
    "sample_counts": {
      "time": 2,
      "duration": 2,
      "pitch": 2,
      "velocity": 2,
      "numerator": 2,
      "denominator": 2
    }
  },
  {
    "action": "execute_pt",
    "unit": "004",
    "bar_index": 3,
    "pt_name": "bass_clarinet_bass_wind_b39_1761585174594_fd51",
    "N": 2,
    "seeds": {
      "time": 0,
      "duration": 8,
      "pitch": 57,
      "velocity": 48,
      "numerator": 3,
      "denominator": 4
    },
    "sample_counts": {
      "time": 2,
      "duration": 2,
      "pitch": 2,
      "velocity": 2,
      "numerator": 2,
      "denominator": 2
    }
  },
  {
    "action": "execute_pt",
    "unit": "004",
    "bar_index": 3,
    "pt_name": "trumpet_lead_brass_b39_1761585174594_9ec8",
    "N": 2,
    "seeds": {
      "time": 0,
      "duration": 8,
      "pitch": 71,
      "velocity": 56,
      "numerator": 3,
      "denominator": 4
    },
    "sample_counts": {
      "time": 2,
      "duration": 2,
      "pitch": 2,
      "velocity": 2,
      "numerator": 2,
      "denominator": 2
    }
  },
  {
    "action": "execute_pt",
    "unit": "004",
    "bar_index": 3,
    "pt_name": "violin_upper_voice_b39_1761585174595_48c9",
    "N": 2,
    "seeds": {
      "time": 0,
      "duration": 4,
      "pitch": 72,
      "velocity": 43,
      "numerator": 3,
      "denominator": 4
    },
    "sample_counts": {
      "time": 2,
      "duration": 2,
      "pitch": 2,
      "velocity": 2,
      "numerator": 2,
      "denominator": 2
    }
  },
  {
    "action": "execute_pt",
    "unit": "004",
    "bar_index": 3,
    "pt_name": "cello_inner_voice_b39_1761585174595_a9e3",
    "N": 2,
    "seeds": {
      "time": 0,
      "duration": 4,
      "pitch": 65,
      "velocity": 41,
      "numerator": 3,
      "denominator": 4
    },
    "sample_counts": {
      "time": 2,
      "duration": 2,
      "pitch": 2,
      "velocity": 2,
      "numerator": 2,
      "denominator": 2
    }
  },
  {
    "action": "execute_pt",
    "unit": "004",
    "bar_index": 3,
    "pt_name": "double_bass_root_b39_1761585174595_6630",
    "N": 2,
    "seeds": {
      "time": 0,
      "duration": 4,
      "pitch": 50,
      "velocity": 39,
      "numerator": 3,
      "denominator": 4
    },
    "sample_counts": {
      "time": 2,
      "duration": 2,
      "pitch": 2,
      "velocity": 2,
      "numerator": 2,
      "denominator": 2
    }
  },
  {
    "action": "execute_pt",
    "unit": "004",
    "bar_index": 4,
    "pt_name": "alto_flute_soprano_wind_b40_1761585181562_44cf",
    "N": 1,
    "seeds": {
      "time": 4,
      "duration": 8,
      "pitch": 73,
      "velocity": 51,
      "numerator": 3,
      "denominator": 4
    },
    "sample_counts": {
      "time": 1,
      "duration": 1,
      "pitch": 1,
      "velocity": 1,
      "numerator": 1,
      "denominator": 1
    }
  },
  {
    "action": "execute_pt",
    "unit": "004",
    "bar_index": 4,
    "pt_name": "bass_clarinet_bass_wind_b40_1761585181562_3215",
    "N": 1,
    "seeds": {
      "time": 4,
      "duration": 8,
      "pitch": 50,
      "velocity": 47,
      "numerator": 3,
      "denominator": 4
    },
    "sample_counts": {
      "time": 1,
      "duration": 1,
      "pitch": 1,
      "velocity": 1,
      "numerator": 1,
      "denominator": 1
    }
  },
  {
    "action": "execute_pt",
    "unit": "004",
    "bar_index": 4,
    "pt_name": "trumpet_lead_brass_b40_1761585181562_8138",
    "N": 1,
    "seeds": {
      "time": 4,
      "duration": 8,
      "pitch": 69,
      "velocity": 55,
      "numerator": 3,
      "denominator": 4
    },
    "sample_counts": {
      "time": 1,
      "duration": 1,
      "pitch": 1,
      "velocity": 1,
      "numerator": 1,
      "denominator": 1
    }
  },
  {
    "action": "execute_pt",
    "unit": "004",
    "bar_index": 4,
    "pt_name": "violin_upper_voice_b40_1761585181562_19e1",
    "N": 1,
    "seeds": {
      "time": 0,
      "duration": 8,
      "pitch": 69,
      "velocity": 42,
      "numerator": 3,
      "denominator": 4
    },
    "sample_counts": {
      "time": 1,
      "duration": 1,
      "pitch": 1,
      "velocity": 1,
      "numerator": 1,
      "denominator": 1
    }
  },
  {
    "action": "execute_pt",
    "unit": "004",
    "bar_index": 4,
    "pt_name": "cello_inner_voice_b40_1761585181562_be5b",
    "N": 1,
    "seeds": {
      "time": 0,
      "duration": 8,
      "pitch": 64,
      "velocity": 40,
      "numerator": 3,
      "denominator": 4
    },
    "sample_counts": {
      "time": 1,
      "duration": 1,
      "pitch": 1,
      "velocity": 1,
      "numerator": 1,
      "denominator": 1
    }
  },
  {
    "action": "execute_pt",
    "unit": "004",
    "bar_index": 4,
    "pt_name": "double_bass_root_b40_1761585181562_08e0",
    "N": 1,
    "seeds": {
      "time": 0,
      "duration": 8,
      "pitch": 48,
      "velocity": 38,
      "numerator": 3,
      "denominator": 4
    },
    "sample_counts": {
      "time": 1,
      "duration": 1,
      "pitch": 1,
      "velocity": 1,
      "numerator": 1,
      "denominator": 1
    }
  },
  {
    "action": "execute_pt",
    "unit": "004",
    "bar_index": 5,
    "pt_name": "alto_flute_soprano_wind_b41_1761585192374_94ed",
    "N": 1,
    "seeds": {
      "time": 0,
      "duration": 8,
      "pitch": 77,
      "velocity": 52,
      "numerator": 3,
      "denominator": 4
    },
    "sample_counts": {
      "time": 1,
      "duration": 1,
      "pitch": 1,
      "velocity": 1,
      "numerator": 1,
      "denominator": 1
    }
  },
  {
    "action": "execute_pt",
    "unit": "004",
    "bar_index": 5,
    "pt_name": "bass_clarinet_bass_wind_b41_1761585192374_01f6",
    "N": 1,
    "seeds": {
      "time": 0,
      "duration": 8,
      "pitch": 53,
      "velocity": 48,
      "numerator": 3,
      "denominator": 4
    },
    "sample_counts": {
      "time": 1,
      "duration": 1,
      "pitch": 1,
      "velocity": 1,
      "numerator": 1,
      "denominator": 1
    }
  },
  {
    "action": "execute_pt",
    "unit": "004",
    "bar_index": 5,
    "pt_name": "trumpet_lead_brass_b41_1761585192374_8e88",
    "N": 1,
    "seeds": {
      "time": 0,
      "duration": 8,
      "pitch": 72,
      "velocity": 56,
      "numerator": 3,
      "denominator": 4
    },
    "sample_counts": {
      "time": 1,
      "duration": 1,
      "pitch": 1,
      "velocity": 1,
      "numerator": 1,
      "denominator": 1
    }
  },
  {
    "action": "execute_pt",
    "unit": "004",
    "bar_index": 5,
    "pt_name": "violin_upper_voice_b41_1761585192374_514b",
    "N": 1,
    "seeds": {
      "time": 4,
      "duration": 8,
      "pitch": 71,
      "velocity": 41,
      "numerator": 3,
      "denominator": 4
    },
    "sample_counts": {
      "time": 1,
      "duration": 1,
      "pitch": 1,
      "velocity": 1,
      "numerator": 1,
      "denominator": 1
    }
  },
  {
    "action": "execute_pt",
    "unit": "004",
    "bar_index": 5,
    "pt_name": "cello_inner_voice_b41_1761585192374_353f",
    "N": 1,
    "seeds": {
      "time": 4,
      "duration": 8,
      "pitch": 61,
      "velocity": 39,
      "numerator": 3,
      "denominator": 4
    },
    "sample_counts": {
      "time": 1,
      "duration": 1,
      "pitch": 1,
      "velocity": 1,
      "numerator": 1,
      "denominator": 1
    }
  },
  {
    "action": "execute_pt",
    "unit": "004",
    "bar_index": 5,
    "pt_name": "double_bass_root_b41_1761585192374_87b0",
    "N": 1,
    "seeds": {
      "time": 4,
      "duration": 8,
      "pitch": 42,
      "velocity": 37,
      "numerator": 3,
      "denominator": 4
    },
    "sample_counts": {
      "time": 1,
      "duration": 1,
      "pitch": 1,
      "velocity": 1,
      "numerator": 1,
      "denominator": 1
    }
  },
  {
    "action": "execute_pt",
    "unit": "004",
    "bar_index": 6,
    "pt_name": "alto_flute_soprano_wind_b42_1761585199639_74b1",
    "N": 2,
    "seeds": {
      "time": 0,
      "duration": 8,
      "pitch": 74,
      "velocity": 52,
      "numerator": 3,
      "denominator": 4
    },
    "sample_counts": {
      "time": 2,
      "duration": 2,
      "pitch": 2,
      "velocity": 2,
      "numerator": 2,
      "denominator": 2
    }
  },
  {
    "action": "execute_pt",
    "unit": "004",
    "bar_index": 6,
    "pt_name": "bass_clarinet_bass_wind_b42_1761585199639_ec07",
    "N": 2,
    "seeds": {
      "time": 0,
      "duration": 8,
      "pitch": 55,
      "velocity": 48,
      "numerator": 3,
      "denominator": 4
    },
    "sample_counts": {
      "time": 2,
      "duration": 2,
      "pitch": 2,
      "velocity": 2,
      "numerator": 2,
      "denominator": 2
    }
  },
  {
    "action": "execute_pt",
    "unit": "004",
    "bar_index": 6,
    "pt_name": "trumpet_lead_brass_b42_1761585199639_24c8",
    "N": 2,
    "seeds": {
      "time": 0,
      "duration": 8,
      "pitch": 68,
      "velocity": 56,
      "numerator": 3,
      "denominator": 4
    },
    "sample_counts": {
      "time": 2,
      "duration": 2,
      "pitch": 2,
      "velocity": 2,
      "numerator": 2,
      "denominator": 2
    }
  },
  {
    "action": "execute_pt",
    "unit": "004",
    "bar_index": 6,
    "pt_name": "violin_upper_voice_b42_1761585199639_b833",
    "N": 2,
    "seeds": {
      "time": 0,
      "duration": 8,
      "pitch": 67,
      "velocity": 42,
      "numerator": 3,
      "denominator": 4
    },
    "sample_counts": {
      "time": 2,
      "duration": 2,
      "pitch": 2,
      "velocity": 2,
      "numerator": 2,
      "denominator": 2
    }
  },
  {
    "action": "execute_pt",
    "unit": "004",
    "bar_index": 6,
    "pt_name": "cello_inner_voice_b42_1761585199639_3d20",
    "N": 2,
    "seeds": {
      "time": 0,
      "duration": 8,
      "pitch": 62,
      "velocity": 40,
      "numerator": 3,
      "denominator": 4
    },
    "sample_counts": {
      "time": 2,
      "duration": 2,
      "pitch": 2,
      "velocity": 2,
      "numerator": 2,
      "denominator": 2
    }
  },
  {
    "action": "execute_pt",
    "unit": "004",
    "bar_index": 6,
    "pt_name": "double_bass_root_b42_1761585199639_aaa1",
    "N": 2,
    "seeds": {
      "time": 0,
      "duration": 8,
      "pitch": 46,
      "velocity": 38,
      "numerator": 3,
      "denominator": 4
    },
    "sample_counts": {
      "time": 2,
      "duration": 2,
      "pitch": 2,
      "velocity": 2,
      "numerator": 2,
      "denominator": 2
    }
  },
  {
    "action": "execute_pt",
    "unit": "004",
    "bar_index": 7,
    "pt_name": "alto_flute_soprano_wind_b43_1761585207469_558a",
    "N": 1,
    "seeds": {
      "time": 0,
      "duration": 12,
      "pitch": 71,
      "velocity": 50,
      "numerator": 3,
      "denominator": 4
    },
    "sample_counts": {
      "time": 1,
      "duration": 1,
      "pitch": 1,
      "velocity": 1,
      "numerator": 1,
      "denominator": 1
    }
  },
  {
    "action": "execute_pt",
    "unit": "004",
    "bar_index": 7,
    "pt_name": "bass_clarinet_bass_wind_b43_1761585207469_937b",
    "N": 1,
    "seeds": {
      "time": 0,
      "duration": 12,
      "pitch": 48,
      "velocity": 46,
      "numerator": 3,
      "denominator": 4
    },
    "sample_counts": {
      "time": 1,
      "duration": 1,
      "pitch": 1,
      "velocity": 1,
      "numerator": 1,
      "denominator": 1
    }
  },
  {
    "action": "execute_pt",
    "unit": "004",
    "bar_index": 7,
    "pt_name": "trumpet_lead_brass_b43_1761585207469_db0d",
    "N": 1,
    "seeds": {
      "time": 0,
      "duration": 12,
      "pitch": 64,
      "velocity": 54,
      "numerator": 3,
      "denominator": 4
    },
    "sample_counts": {
      "time": 1,
      "duration": 1,
      "pitch": 1,
      "velocity": 1,
      "numerator": 1,
      "denominator": 1
    }
  },
  {
    "action": "execute_pt",
    "unit": "004",
    "bar_index": 7,
    "pt_name": "violin_upper_voice_b43_1761585207469_2b0a",
    "N": 1,
    "seeds": {
      "time": 0,
      "duration": 12,
      "pitch": 71,
      "velocity": 42,
      "numerator": 3,
      "denominator": 4
    },
    "sample_counts": {
      "time": 1,
      "duration": 1,
      "pitch": 1,
      "velocity": 1,
      "numerator": 1,
      "denominator": 1
    }
  },
  {
    "action": "execute_pt",
    "unit": "004",
    "bar_index": 7,
    "pt_name": "cello_inner_voice_b43_1761585207469_a819",
    "N": 1,
    "seeds": {
      "time": 0,
      "duration": 12,
      "pitch": 64,
      "velocity": 40,
      "numerator": 3,
      "denominator": 4
    },
    "sample_counts": {
      "time": 1,
      "duration": 1,
      "pitch": 1,
      "velocity": 1,
      "numerator": 1,
      "denominator": 1
    }
  },
  {
    "action": "execute_pt",
    "unit": "004",
    "bar_index": 7,
    "pt_name": "double_bass_root_b43_1761585207470_d8fd",
    "N": 1,
    "seeds": {
      "time": 0,
      "duration": 12,
      "pitch": 45,
      "velocity": 38,
      "numerator": 3,
      "denominator": 4
    },
    "sample_counts": {
      "time": 1,
      "duration": 1,
      "pitch": 1,
      "velocity": 1,
      "numerator": 1,
      "denominator": 1
    }
  },
  {
    "action": "execute_pt",
    "unit": "004",
    "bar_index": 8,
    "pt_name": "alto_flute_soprano_wind_b44_1761585214681_1127",
    "N": 2,
    "seeds": {
      "time": 0,
      "duration": 4,
      "pitch": 78,
      "velocity": 51,
      "numerator": 3,
      "denominator": 4
    },
    "sample_counts": {
      "time": 2,
      "duration": 2,
      "pitch": 2,
      "velocity": 2,
      "numerator": 2,
      "denominator": 2
    }
  },
  {
    "action": "execute_pt",
    "unit": "004",
    "bar_index": 8,
    "pt_name": "bass_clarinet_bass_wind_b44_1761585214681_710f",
    "N": 2,
    "seeds": {
      "time": 0,
      "duration": 4,
      "pitch": 59,
      "velocity": 47,
      "numerator": 3,
      "denominator": 4
    },
    "sample_counts": {
      "time": 2,
      "duration": 2,
      "pitch": 2,
      "velocity": 2,
      "numerator": 2,
      "denominator": 2
    }
  },
  {
    "action": "execute_pt",
    "unit": "004",
    "bar_index": 8,
    "pt_name": "trumpet_lead_brass_b44_1761585214681_5147",
    "N": 2,
    "seeds": {
      "time": 0,
      "duration": 4,
      "pitch": 74,
      "velocity": 55,
      "numerator": 3,
      "denominator": 4
    },
    "sample_counts": {
      "time": 2,
      "duration": 2,
      "pitch": 2,
      "velocity": 2,
      "numerator": 2,
      "denominator": 2
    }
  },
  {
    "action": "execute_pt",
    "unit": "004",
    "bar_index": 8,
    "pt_name": "violin_upper_voice_b44_1761585214681_fe74",
    "N": 2,
    "seeds": {
      "time": 0,
      "duration": 4,
      "pitch": 62,
      "velocity": 42,
      "numerator": 3,
      "denominator": 4
    },
    "sample_counts": {
      "time": 2,
      "duration": 2,
      "pitch": 2,
      "velocity": 2,
      "numerator": 2,
      "denominator": 2
    }
  },
  {
    "action": "execute_pt",
    "unit": "004",
    "bar_index": 8,
    "pt_name": "cello_inner_voice_b44_1761585214681_bcbe",
    "N": 2,
    "seeds": {
      "time": 0,
      "duration": 4,
      "pitch": 57,
      "velocity": 40,
      "numerator": 3,
      "denominator": 4
    },
    "sample_counts": {
      "time": 2,
      "duration": 2,
      "pitch": 2,
      "velocity": 2,
      "numerator": 2,
      "denominator": 2
    }
  },
  {
    "action": "execute_pt",
    "unit": "004",
    "bar_index": 8,
    "pt_name": "double_bass_root_b44_1761585214681_ceb9",
    "N": 2,
    "seeds": {
      "time": 0,
      "duration": 4,
      "pitch": 40,
      "velocity": 38,
      "numerator": 3,
      "denominator": 4
    },
    "sample_counts": {
      "time": 2,
      "duration": 2,
      "pitch": 2,
      "velocity": 2,
      "numerator": 2,
      "denominator": 2
    }
  },
  {
    "action": "execute_pt",
    "unit": "004",
    "bar_index": 9,
    "pt_name": "alto_flute_soprano_wind_b45_1761585222236_4ad3",
    "N": 2,
    "seeds": {
      "time": 0,
      "duration": 8,
      "pitch": 74,
      "velocity": 52,
      "numerator": 3,
      "denominator": 4
    },
    "sample_counts": {
      "time": 2,
      "duration": 2,
      "pitch": 2,
      "velocity": 2,
      "numerator": 2,
      "denominator": 2
    }
  },
  {
    "action": "execute_pt",
    "unit": "004",
    "bar_index": 9,
    "pt_name": "bass_clarinet_bass_wind_b45_1761585222236_d8d8",
    "N": 2,
    "seeds": {
      "time": 0,
      "duration": 8,
      "pitch": 54,
      "velocity": 48,
      "numerator": 3,
      "denominator": 4
    },
    "sample_counts": {
      "time": 2,
      "duration": 2,
      "pitch": 2,
      "velocity": 2,
      "numerator": 2,
      "denominator": 2
    }
  },
  {
    "action": "execute_pt",
    "unit": "004",
    "bar_index": 9,
    "pt_name": "trumpet_lead_brass_b45_1761585222236_5b16",
    "N": 2,
    "seeds": {
      "time": 0,
      "duration": 8,
      "pitch": 70,
      "velocity": 56,
      "numerator": 3,
      "denominator": 4
    },
    "sample_counts": {
      "time": 2,
      "duration": 2,
      "pitch": 2,
      "velocity": 2,
      "numerator": 2,
      "denominator": 2
    }
  },
  {
    "action": "execute_pt",
    "unit": "004",
    "bar_index": 9,
    "pt_name": "violin_upper_voice_b45_1761585222236_5cb8",
    "N": 1,
    "seeds": {
      "time": 0,
      "duration": 8,
      "pitch": 63,
      "velocity": 41,
      "numerator": 3,
      "denominator": 4
    },
    "sample_counts": {
      "time": 1,
      "duration": 1,
      "pitch": 1,
      "velocity": 1,
      "numerator": 1,
      "denominator": 1
    }
  },
  {
    "action": "execute_pt",
    "unit": "004",
    "bar_index": 9,
    "pt_name": "cello_inner_voice_b45_1761585222236_905c",
    "N": 1,
    "seeds": {
      "time": 0,
      "duration": 8,
      "pitch": 56,
      "velocity": 39,
      "numerator": 3,
      "denominator": 4
    },
    "sample_counts": {
      "time": 1,
      "duration": 1,
      "pitch": 1,
      "velocity": 1,
      "numerator": 1,
      "denominator": 1
    }
  },
  {
    "action": "execute_pt",
    "unit": "004",
    "bar_index": 9,
    "pt_name": "double_bass_root_b45_1761585222236_f066",
    "N": 1,
    "seeds": {
      "time": 0,
      "duration": 8,
      "pitch": 49,
      "velocity": 37,
      "numerator": 3,
      "denominator": 4
    },
    "sample_counts": {
      "time": 1,
      "duration": 1,
      "pitch": 1,
      "velocity": 1,
      "numerator": 1,
      "denominator": 1
    }
  },
  {
    "action": "execute_pt",
    "unit": "004",
    "bar_index": 10,
    "pt_name": "alto_flute_soprano_wind_b46_1761585229652_40cc",
    "N": 1,
    "seeds": {
      "time": 0,
      "duration": 12,
      "pitch": 70,
      "velocity": 50,
      "numerator": 3,
      "denominator": 4
    },
    "sample_counts": {
      "time": 1,
      "duration": 1,
      "pitch": 1,
      "velocity": 1,
      "numerator": 1,
      "denominator": 1
    }
  },
  {
    "action": "execute_pt",
    "unit": "004",
    "bar_index": 10,
    "pt_name": "bass_clarinet_bass_wind_b46_1761585229652_aed6",
    "N": 1,
    "seeds": {
      "time": 0,
      "duration": 12,
      "pitch": 47,
      "velocity": 46,
      "numerator": 3,
      "denominator": 4
    },
    "sample_counts": {
      "time": 1,
      "duration": 1,
      "pitch": 1,
      "velocity": 1,
      "numerator": 1,
      "denominator": 1
    }
  },
  {
    "action": "execute_pt",
    "unit": "004",
    "bar_index": 10,
    "pt_name": "trumpet_lead_brass_b46_1761585229652_ba4e",
    "N": 1,
    "seeds": {
      "time": 0,
      "duration": 12,
      "pitch": 63,
      "velocity": 54,
      "numerator": 3,
      "denominator": 4
    },
    "sample_counts": {
      "time": 1,
      "duration": 1,
      "pitch": 1,
      "velocity": 1,
      "numerator": 1,
      "denominator": 1
    }
  },
  {
    "action": "execute_pt",
    "unit": "004",
    "bar_index": 10,
    "pt_name": "violin_upper_voice_b46_1761585229652_d473",
    "N": 2,
    "seeds": {
      "time": 0,
      "duration": 8,
      "pitch": 70,
      "velocity": 41,
      "numerator": 3,
      "denominator": 4
    },
    "sample_counts": {
      "time": 2,
      "duration": 2,
      "pitch": 2,
      "velocity": 2,
      "numerator": 2,
      "denominator": 2
    }
  },
  {
    "action": "execute_pt",
    "unit": "004",
    "bar_index": 10,
    "pt_name": "cello_inner_voice_b46_1761585229652_7c91",
    "N": 2,
    "seeds": {
      "time": 0,
      "duration": 8,
      "pitch": 67,
      "velocity": 39,
      "numerator": 3,
      "denominator": 4
    },
    "sample_counts": {
      "time": 2,
      "duration": 2,
      "pitch": 2,
      "velocity": 2,
      "numerator": 2,
      "denominator": 2
    }
  },
  {
    "action": "execute_pt",
    "unit": "004",
    "bar_index": 10,
    "pt_name": "double_bass_root_b46_1761585229652_52b7",
    "N": 2,
    "seeds": {
      "time": 0,
      "duration": 8,
      "pitch": 39,
      "velocity": 37,
      "numerator": 3,
      "denominator": 4
    },
    "sample_counts": {
      "time": 2,
      "duration": 2,
      "pitch": 2,
      "velocity": 2,
      "numerator": 2,
      "denominator": 2
    }
  },
  {
    "action": "execute_pt",
    "unit": "004",
    "bar_index": 11,
    "pt_name": "alto_flute_soprano_wind_b47_1761585236502_4739",
    "N": 1,
    "seeds": {
      "time": 0,
      "duration": 8,
      "pitch": 74,
      "velocity": 51,
      "numerator": 3,
      "denominator": 4
    },
    "sample_counts": {
      "time": 1,
      "duration": 1,
      "pitch": 1,
      "velocity": 1,
      "numerator": 1,
      "denominator": 1
    }
  },
  {
    "action": "execute_pt",
    "unit": "004",
    "bar_index": 11,
    "pt_name": "bass_clarinet_bass_wind_b47_1761585236502_c839",
    "N": 1,
    "seeds": {
      "time": 0,
      "duration": 8,
      "pitch": 52,
      "velocity": 47,
      "numerator": 3,
      "denominator": 4
    },
    "sample_counts": {
      "time": 1,
      "duration": 1,
      "pitch": 1,
      "velocity": 1,
      "numerator": 1,
      "denominator": 1
    }
  },
  {
    "action": "execute_pt",
    "unit": "004",
    "bar_index": 11,
    "pt_name": "trumpet_lead_brass_b47_1761585236502_54dd",
    "N": 1,
    "seeds": {
      "time": 0,
      "duration": 8,
      "pitch": 67,
      "velocity": 55,
      "numerator": 3,
      "denominator": 4
    },
    "sample_counts": {
      "time": 1,
      "duration": 1,
      "pitch": 1,
      "velocity": 1,
      "numerator": 1,
      "denominator": 1
    }
  },
  {
    "action": "execute_pt",
    "unit": "004",
    "bar_index": 11,
    "pt_name": "violin_upper_voice_b47_1761585236502_b7fa",
    "N": 1,
    "seeds": {
      "time": 4,
      "duration": 12,
      "pitch": 64,
      "velocity": 41,
      "numerator": 3,
      "denominator": 4
    },
    "sample_counts": {
      "time": 1,
      "duration": 1,
      "pitch": 1,
      "velocity": 1,
      "numerator": 1,
      "denominator": 1
    }
  },
  {
    "action": "execute_pt",
    "unit": "004",
    "bar_index": 11,
    "pt_name": "cello_inner_voice_b47_1761585236502_02c2",
    "N": 1,
    "seeds": {
      "time": 0,
      "duration": 12,
      "pitch": 60,
      "velocity": 39,
      "numerator": 3,
      "denominator": 4
    },
    "sample_counts": {
      "time": 1,
      "duration": 1,
      "pitch": 1,
      "velocity": 1,
      "numerator": 1,
      "denominator": 1
    }
  },
  {
    "action": "execute_pt",
    "unit": "004",
    "bar_index": 11,
    "pt_name": "double_bass_root_b47_1761585236502_ae2a",
    "N": 1,
    "seeds": {
      "time": 0,
      "duration": 12,
      "pitch": 43,
      "velocity": 37,
      "numerator": 3,
      "denominator": 4
    },
    "sample_counts": {
      "time": 1,
      "duration": 1,
      "pitch": 1,
      "velocity": 1,
      "numerator": 1,
      "denominator": 1
    }
  },
  {
    "action": "execute_pt",
    "unit": "004",
    "bar_index": 12,
    "pt_name": "alto_flute_soprano_wind_b48_1761585243521_9fc4",
    "N": 1,
    "seeds": {
      "time": 4,
      "duration": 8,
      "pitch": 76,
      "velocity": 51,
      "numerator": 3,
      "denominator": 4
    },
    "sample_counts": {
      "time": 1,
      "duration": 1,
      "pitch": 1,
      "velocity": 1,
      "numerator": 1,
      "denominator": 1
    }
  },
  {
    "action": "execute_pt",
    "unit": "004",
    "bar_index": 12,
    "pt_name": "bass_clarinet_bass_wind_b48_1761585243521_6309",
    "N": 1,
    "seeds": {
      "time": 4,
      "duration": 8,
      "pitch": 55,
      "velocity": 47,
      "numerator": 3,
      "denominator": 4
    },
    "sample_counts": {
      "time": 1,
      "duration": 1,
      "pitch": 1,
      "velocity": 1,
      "numerator": 1,
      "denominator": 1
    }
  },
  {
    "action": "execute_pt",
    "unit": "004",
    "bar_index": 12,
    "pt_name": "trumpet_lead_brass_b48_1761585243521_6fa7",
    "N": 1,
    "seeds": {
      "time": 4,
      "duration": 8,
      "pitch": 71,
      "velocity": 55,
      "numerator": 3,
      "denominator": 4
    },
    "sample_counts": {
      "time": 1,
      "duration": 1,
      "pitch": 1,
      "velocity": 1,
      "numerator": 1,
      "denominator": 1
    }
  },
  {
    "action": "execute_pt",
    "unit": "004",
    "bar_index": 12,
    "pt_name": "violin_upper_voice_b48_1761585243521_bebc",
    "N": 2,
    "seeds": {
      "time": 0,
      "duration": 4,
      "pitch": 70,
      "velocity": 41,
      "numerator": 3,
      "denominator": 4
    },
    "sample_counts": {
      "time": 2,
      "duration": 2,
      "pitch": 2,
      "velocity": 2,
      "numerator": 2,
      "denominator": 2
    }
  },
  {
    "action": "execute_pt",
    "unit": "004",
    "bar_index": 12,
    "pt_name": "cello_inner_voice_b48_1761585243521_ae51",
    "N": 2,
    "seeds": {
      "time": 0,
      "duration": 4,
      "pitch": 57,
      "velocity": 39,
      "numerator": 3,
      "denominator": 4
    },
    "sample_counts": {
      "time": 2,
      "duration": 2,
      "pitch": 2,
      "velocity": 2,
      "numerator": 2,
      "denominator": 2
    }
  },
  {
    "action": "execute_pt",
    "unit": "004",
    "bar_index": 12,
    "pt_name": "double_bass_root_b48_1761585243521_f3ee",
    "N": 2,
    "seeds": {
      "time": 0,
      "duration": 4,
      "pitch": 41,
      "velocity": 37,
      "numerator": 3,
      "denominator": 4
    },
    "sample_counts": {
      "time": 2,
      "duration": 2,
      "pitch": 2,
      "velocity": 2,
      "numerator": 2,
      "denominator": 2
    }
  },
  {
    "action": "execute_pt",
    "unit": "004",
    "bar_index": 13,
    "pt_name": "alto_flute_soprano_wind_b42_1761585254930_edaf",
    "N": 1,
    "seeds": {
      "time": 0,
      "duration": 12,
      "pitch": 71,
      "velocity": 50,
      "numerator": 3,
      "denominator": 4
    },
    "sample_counts": {
      "time": 1,
      "duration": 1,
      "pitch": 1,
      "velocity": 1,
      "numerator": 1,
      "denominator": 1
    }
  },
  {
    "action": "execute_pt",
    "unit": "004",
    "bar_index": 13,
    "pt_name": "bass_clarinet_bass_wind_b42_1761585254930_1396",
    "N": 1,
    "seeds": {
      "time": 0,
      "duration": 12,
      "pitch": 48,
      "velocity": 46,
      "numerator": 3,
      "denominator": 4
    },
    "sample_counts": {
      "time": 1,
      "duration": 1,
      "pitch": 1,
      "velocity": 1,
      "numerator": 1,
      "denominator": 1
    }
  },
  {
    "action": "execute_pt",
    "unit": "004",
    "bar_index": 13,
    "pt_name": "trumpet_lead_brass_b42_1761585254930_f50f",
    "N": 1,
    "seeds": {
      "time": 0,
      "duration": 12,
      "pitch": 64,
      "velocity": 54,
      "numerator": 3,
      "denominator": 4
    },
    "sample_counts": {
      "time": 1,
      "duration": 1,
      "pitch": 1,
      "velocity": 1,
      "numerator": 1,
      "denominator": 1
    }
  },
  {
    "action": "execute_pt",
    "unit": "004",
    "bar_index": 13,
    "pt_name": "violin_upper_voice_b42_1761585254930_9e8d",
    "N": 1,
    "seeds": {
      "time": 0,
      "duration": 12,
      "pitch": 71,
      "velocity": 42,
      "numerator": 3,
      "denominator": 4
    },
    "sample_counts": {
      "time": 1,
      "duration": 1,
      "pitch": 1,
      "velocity": 1,
      "numerator": 1,
      "denominator": 1
    }
  },
  {
    "action": "execute_pt",
    "unit": "004",
    "bar_index": 13,
    "pt_name": "cello_inner_voice_b42_1761585254930_24cf",
    "N": 1,
    "seeds": {
      "time": 0,
      "duration": 12,
      "pitch": 64,
      "velocity": 40,
      "numerator": 3,
      "denominator": 4
    },
    "sample_counts": {
      "time": 1,
      "duration": 1,
      "pitch": 1,
      "velocity": 1,
      "numerator": 1,
      "denominator": 1
    }
  },
  {
    "action": "execute_pt",
    "unit": "004",
    "bar_index": 13,
    "pt_name": "double_bass_root_b42_1761585254930_69ba",
    "N": 1,
    "seeds": {
      "time": 0,
      "duration": 12,
      "pitch": 45,
      "velocity": 38,
      "numerator": 3,
      "denominator": 4
    },
    "sample_counts": {
      "time": 1,
      "duration": 1,
      "pitch": 1,
      "velocity": 1,
      "numerator": 1,
      "denominator": 1
    }
  },
  {
    "action": "execute_pt",
    "unit": "005",
    "bar_index": 1,
    "pt_name": "alto_flute_homophony_b49_1761585489946_3b30",
    "N": 2,
    "seeds": {
      "time": 0,
      "duration": 4,
      "pitch": 73,
      "velocity": 50,
      "numerator": 3,
      "denominator": 4
    },
    "sample_counts": {
      "time": 2,
      "duration": 2,
      "pitch": 2,
      "velocity": 2,
      "numerator": 2,
      "denominator": 2
    }
  },
  {
    "action": "execute_pt",
    "unit": "005",
    "bar_index": 1,
    "pt_name": "bass_clarinet_homophony_b49_1761585489946_6ee2",
    "N": 2,
    "seeds": {
      "time": 0,
      "duration": 4,
      "pitch": 54,
      "velocity": 46,
      "numerator": 3,
      "denominator": 4
    },
    "sample_counts": {
      "time": 2,
      "duration": 2,
      "pitch": 2,
      "velocity": 2,
      "numerator": 2,
      "denominator": 2
    }
  },
  {
    "action": "execute_pt",
    "unit": "005",
    "bar_index": 1,
    "pt_name": "trumpet_homophony_b49_1761585489947_2a00",
    "N": 2,
    "seeds": {
      "time": 0,
      "duration": 4,
      "pitch": 74,
      "velocity": 56,
      "numerator": 3,
      "denominator": 4
    },
    "sample_counts": {
      "time": 2,
      "duration": 2,
      "pitch": 2,
      "velocity": 2,
      "numerator": 2,
      "denominator": 2
    }
  },
  {
    "action": "execute_pt",
    "unit": "005",
    "bar_index": 1,
    "pt_name": "violin_homophony_b49_1761585489947_40ae",
    "N": 2,
    "seeds": {
      "time": 0,
      "duration": 4,
      "pitch": 69,
      "velocity": 42,
      "numerator": 3,
      "denominator": 4
    },
    "sample_counts": {
      "time": 2,
      "duration": 2,
      "pitch": 2,
      "velocity": 2,
      "numerator": 2,
      "denominator": 2
    }
  },
  {
    "action": "execute_pt",
    "unit": "005",
    "bar_index": 1,
    "pt_name": "cello_homophony_b49_1761585489947_6749",
    "N": 2,
    "seeds": {
      "time": 0,
      "duration": 4,
      "pitch": 52,
      "velocity": 40,
      "numerator": 3,
      "denominator": 4
    },
    "sample_counts": {
      "time": 2,
      "duration": 2,
      "pitch": 2,
      "velocity": 2,
      "numerator": 2,
      "denominator": 2
    }
  },
  {
    "action": "execute_pt",
    "unit": "005",
    "bar_index": 1,
    "pt_name": "double_bass_homophony_b49_1761585489947_a6cd",
    "N": 2,
    "seeds": {
      "time": 0,
      "duration": 4,
      "pitch": 45,
      "velocity": 38,
      "numerator": 3,
      "denominator": 4
    },
    "sample_counts": {
      "time": 2,
      "duration": 2,
      "pitch": 2,
      "velocity": 2,
      "numerator": 2,
      "denominator": 2
    }
  },
  {
    "action": "execute_pt",
    "unit": "005",
    "bar_index": 2,
    "pt_name": "alto_flute_homophony_b50_1761585497848_4f50",
    "N": 2,
    "seeds": {
      "time": 0,
      "duration": 8,
      "pitch": 76,
      "velocity": 52,
      "numerator": 3,
      "denominator": 4
    },
    "sample_counts": {
      "time": 2,
      "duration": 2,
      "pitch": 2,
      "velocity": 2,
      "numerator": 2,
      "denominator": 2
    }
  },
  {
    "action": "execute_pt",
    "unit": "005",
    "bar_index": 2,
    "pt_name": "bass_clarinet_homophony_b50_1761585497848_7e3a",
    "N": 2,
    "seeds": {
      "time": 0,
      "duration": 8,
      "pitch": 57,
      "velocity": 48,
      "numerator": 3,
      "denominator": 4
    },
    "sample_counts": {
      "time": 2,
      "duration": 2,
      "pitch": 2,
      "velocity": 2,
      "numerator": 2,
      "denominator": 2
    }
  },
  {
    "action": "execute_pt",
    "unit": "005",
    "bar_index": 2,
    "pt_name": "trumpet_homophony_b50_1761585497848_ed62",
    "N": 2,
    "seeds": {
      "time": 0,
      "duration": 8,
      "pitch": 72,
      "velocity": 58,
      "numerator": 3,
      "denominator": 4
    },
    "sample_counts": {
      "time": 2,
      "duration": 2,
      "pitch": 2,
      "velocity": 2,
      "numerator": 2,
      "denominator": 2
    }
  },
  {
    "action": "execute_pt",
    "unit": "005",
    "bar_index": 2,
    "pt_name": "violin_homophony_b50_1761585497848_9ec5",
    "N": 2,
    "seeds": {
      "time": 0,
      "duration": 8,
      "pitch": 69,
      "velocity": 44,
      "numerator": 3,
      "denominator": 4
    },
    "sample_counts": {
      "time": 2,
      "duration": 2,
      "pitch": 2,
      "velocity": 2,
      "numerator": 2,
      "denominator": 2
    }
  },
  {
    "action": "execute_pt",
    "unit": "005",
    "bar_index": 2,
    "pt_name": "cello_homophony_b50_1761585497848_f25e",
    "N": 2,
    "seeds": {
      "time": 0,
      "duration": 8,
      "pitch": 50,
      "velocity": 42,
      "numerator": 3,
      "denominator": 4
    },
    "sample_counts": {
      "time": 2,
      "duration": 2,
      "pitch": 2,
      "velocity": 2,
      "numerator": 2,
      "denominator": 2
    }
  },
  {
    "action": "execute_pt",
    "unit": "005",
    "bar_index": 2,
    "pt_name": "double_bass_homophony_b50_1761585497848_3e76",
    "N": 2,
    "seeds": {
      "time": 0,
      "duration": 8,
      "pitch": 43,
      "velocity": 40,
      "numerator": 3,
      "denominator": 4
    },
    "sample_counts": {
      "time": 2,
      "duration": 2,
      "pitch": 2,
      "velocity": 2,
      "numerator": 2,
      "denominator": 2
    }
  },
  {
    "action": "execute_pt",
    "unit": "005",
    "bar_index": 3,
    "pt_name": "alto_flute_homophony_b51_1761585505075_f79b",
    "N": 1,
    "seeds": {
      "time": 0,
      "duration": 12,
      "pitch": 69,
      "velocity": 53,
      "numerator": 3,
      "denominator": 4
    },
    "sample_counts": {
      "time": 1,
      "duration": 1,
      "pitch": 1,
      "velocity": 1,
      "numerator": 1,
      "denominator": 1
    }
  },
  {
    "action": "execute_pt",
    "unit": "005",
    "bar_index": 3,
    "pt_name": "bass_clarinet_homophony_b51_1761585505075_5b35",
    "N": 1,
    "seeds": {
      "time": 0,
      "duration": 12,
      "pitch": 52,
      "velocity": 49,
      "numerator": 3,
      "denominator": 4
    },
    "sample_counts": {
      "time": 1,
      "duration": 1,
      "pitch": 1,
      "velocity": 1,
      "numerator": 1,
      "denominator": 1
    }
  },
  {
    "action": "execute_pt",
    "unit": "005",
    "bar_index": 3,
    "pt_name": "trumpet_homophony_b51_1761585505075_ceb2",
    "N": 1,
    "seeds": {
      "time": 0,
      "duration": 12,
      "pitch": 67,
      "velocity": 59,
      "numerator": 3,
      "denominator": 4
    },
    "sample_counts": {
      "time": 1,
      "duration": 1,
      "pitch": 1,
      "velocity": 1,
      "numerator": 1,
      "denominator": 1
    }
  },
  {
    "action": "execute_pt",
    "unit": "005",
    "bar_index": 3,
    "pt_name": "violin_homophony_b51_1761585505075_aea8",
    "N": 1,
    "seeds": {
      "time": 0,
      "duration": 12,
      "pitch": 74,
      "velocity": 45,
      "numerator": 3,
      "denominator": 4
    },
    "sample_counts": {
      "time": 1,
      "duration": 1,
      "pitch": 1,
      "velocity": 1,
      "numerator": 1,
      "denominator": 1
    }
  },
  {
    "action": "execute_pt",
    "unit": "005",
    "bar_index": 3,
    "pt_name": "cello_homophony_b51_1761585505075_2bb3",
    "N": 1,
    "seeds": {
      "time": 0,
      "duration": 12,
      "pitch": 55,
      "velocity": 43,
      "numerator": 3,
      "denominator": 4
    },
    "sample_counts": {
      "time": 1,
      "duration": 1,
      "pitch": 1,
      "velocity": 1,
      "numerator": 1,
      "denominator": 1
    }
  },
  {
    "action": "execute_pt",
    "unit": "005",
    "bar_index": 3,
    "pt_name": "double_bass_homophony_b51_1761585505075_ec7d",
    "N": 1,
    "seeds": {
      "time": 0,
      "duration": 12,
      "pitch": 48,
      "velocity": 41,
      "numerator": 3,
      "denominator": 4
    },
    "sample_counts": {
      "time": 1,
      "duration": 1,
      "pitch": 1,
      "velocity": 1,
      "numerator": 1,
      "denominator": 1
    }
  },
  {
    "action": "execute_pt",
    "unit": "005",
    "bar_index": 4,
    "pt_name": "alto_flute_homophony_b52_1761585512894_503a",
    "N": 1,
    "seeds": {
      "time": 0,
      "duration": 8,
      "pitch": 76,
      "velocity": 54,
      "numerator": 3,
      "denominator": 4
    },
    "sample_counts": {
      "time": 1,
      "duration": 1,
      "pitch": 1,
      "velocity": 1,
      "numerator": 1,
      "denominator": 1
    }
  },
  {
    "action": "execute_pt",
    "unit": "005",
    "bar_index": 4,
    "pt_name": "bass_clarinet_homophony_b52_1761585512894_aaa8",
    "N": 1,
    "seeds": {
      "time": 0,
      "duration": 8,
      "pitch": 56,
      "velocity": 50,
      "numerator": 3,
      "denominator": 4
    },
    "sample_counts": {
      "time": 1,
      "duration": 1,
      "pitch": 1,
      "velocity": 1,
      "numerator": 1,
      "denominator": 1
    }
  },
  {
    "action": "execute_pt",
    "unit": "005",
    "bar_index": 4,
    "pt_name": "trumpet_homophony_b52_1761585512894_c25b",
    "N": 1,
    "seeds": {
      "time": 0,
      "duration": 8,
      "pitch": 71,
      "velocity": 60,
      "numerator": 3,
      "denominator": 4
    },
    "sample_counts": {
      "time": 1,
      "duration": 1,
      "pitch": 1,
      "velocity": 1,
      "numerator": 1,
      "denominator": 1
    }
  },
  {
    "action": "execute_pt",
    "unit": "005",
    "bar_index": 4,
    "pt_name": "violin_homophony_b52_1761585512894_4b17",
    "N": 1,
    "seeds": {
      "time": 0,
      "duration": 8,
      "pitch": 66,
      "velocity": 46,
      "numerator": 3,
      "denominator": 4
    },
    "sample_counts": {
      "time": 1,
      "duration": 1,
      "pitch": 1,
      "velocity": 1,
      "numerator": 1,
      "denominator": 1
    }
  },
  {
    "action": "execute_pt",
    "unit": "005",
    "bar_index": 4,
    "pt_name": "cello_homophony_b52_1761585512894_0b2f",
    "N": 1,
    "seeds": {
      "time": 0,
      "duration": 8,
      "pitch": 59,
      "velocity": 44,
      "numerator": 3,
      "denominator": 4
    },
    "sample_counts": {
      "time": 1,
      "duration": 1,
      "pitch": 1,
      "velocity": 1,
      "numerator": 1,
      "denominator": 1
    }
  },
  {
    "action": "execute_pt",
    "unit": "005",
    "bar_index": 4,
    "pt_name": "double_bass_homophony_b52_1761585512894_75de",
    "N": 1,
    "seeds": {
      "time": 0,
      "duration": 8,
      "pitch": 40,
      "velocity": 42,
      "numerator": 3,
      "denominator": 4
    },
    "sample_counts": {
      "time": 1,
      "duration": 1,
      "pitch": 1,
      "velocity": 1,
      "numerator": 1,
      "denominator": 1
    }
  },
  {
    "action": "execute_pt",
    "unit": "005",
    "bar_index": 5,
    "pt_name": "alto_flute_homophony_b53_1761585520836_91fc",
    "N": 1,
    "seeds": {
      "time": 4,
      "duration": 8,
      "pitch": 73,
      "velocity": 55,
      "numerator": 3,
      "denominator": 4
    },
    "sample_counts": {
      "time": 1,
      "duration": 1,
      "pitch": 1,
      "velocity": 1,
      "numerator": 1,
      "denominator": 1
    }
  },
  {
    "action": "execute_pt",
    "unit": "005",
    "bar_index": 5,
    "pt_name": "bass_clarinet_homophony_b53_1761585520836_9140",
    "N": 1,
    "seeds": {
      "time": 4,
      "duration": 8,
      "pitch": 50,
      "velocity": 51,
      "numerator": 3,
      "denominator": 4
    },
    "sample_counts": {
      "time": 1,
      "duration": 1,
      "pitch": 1,
      "velocity": 1,
      "numerator": 1,
      "denominator": 1
    }
  },
  {
    "action": "execute_pt",
    "unit": "005",
    "bar_index": 5,
    "pt_name": "trumpet_homophony_b53_1761585520836_c35e",
    "N": 1,
    "seeds": {
      "time": 4,
      "duration": 8,
      "pitch": 66,
      "velocity": 61,
      "numerator": 3,
      "denominator": 4
    },
    "sample_counts": {
      "time": 1,
      "duration": 1,
      "pitch": 1,
      "velocity": 1,
      "numerator": 1,
      "denominator": 1
    }
  },
  {
    "action": "execute_pt",
    "unit": "005",
    "bar_index": 5,
    "pt_name": "violin_homophony_b53_1761585520836_bcd8",
    "N": 1,
    "seeds": {
      "time": 4,
      "duration": 8,
      "pitch": 71,
      "velocity": 47,
      "numerator": 3,
      "denominator": 4
    },
    "sample_counts": {
      "time": 1,
      "duration": 1,
      "pitch": 1,
      "velocity": 1,
      "numerator": 1,
      "denominator": 1
    }
  },
  {
    "action": "execute_pt",
    "unit": "005",
    "bar_index": 5,
    "pt_name": "cello_homophony_b53_1761585520836_e19d",
    "N": 1,
    "seeds": {
      "time": 4,
      "duration": 8,
      "pitch": 52,
      "velocity": 45,
      "numerator": 3,
      "denominator": 4
    },
    "sample_counts": {
      "time": 1,
      "duration": 1,
      "pitch": 1,
      "velocity": 1,
      "numerator": 1,
      "denominator": 1
    }
  },
  {
    "action": "execute_pt",
    "unit": "005",
    "bar_index": 5,
    "pt_name": "double_bass_homophony_b53_1761585520836_b57f",
    "N": 1,
    "seeds": {
      "time": 4,
      "duration": 8,
      "pitch": 45,
      "velocity": 43,
      "numerator": 3,
      "denominator": 4
    },
    "sample_counts": {
      "time": 1,
      "duration": 1,
      "pitch": 1,
      "velocity": 1,
      "numerator": 1,
      "denominator": 1
    }
  },
  {
    "action": "execute_pt",
    "unit": "005",
    "bar_index": 6,
    "pt_name": "alto_flute_homophony_b54_1761585527890_1b7e",
    "N": 2,
    "seeds": {
      "time": 0,
      "duration": 8,
      "pitch": 74,
      "velocity": 56,
      "numerator": 3,
      "denominator": 4
    },
    "sample_counts": {
      "time": 2,
      "duration": 2,
      "pitch": 2,
      "velocity": 2,
      "numerator": 2,
      "denominator": 2
    }
  },
  {
    "action": "execute_pt",
    "unit": "005",
    "bar_index": 6,
    "pt_name": "bass_clarinet_homophony_b54_1761585527890_c860",
    "N": 2,
    "seeds": {
      "time": 0,
      "duration": 8,
      "pitch": 55,
      "velocity": 52,
      "numerator": 3,
      "denominator": 4
    },
    "sample_counts": {
      "time": 2,
      "duration": 2,
      "pitch": 2,
      "velocity": 2,
      "numerator": 2,
      "denominator": 2
    }
  },
  {
    "action": "execute_pt",
    "unit": "005",
    "bar_index": 6,
    "pt_name": "trumpet_homophony_b54_1761585527890_9050",
    "N": 2,
    "seeds": {
      "time": 0,
      "duration": 8,
      "pitch": 76,
      "velocity": 60,
      "numerator": 3,
      "denominator": 4
    },
    "sample_counts": {
      "time": 2,
      "duration": 2,
      "pitch": 2,
      "velocity": 2,
      "numerator": 2,
      "denominator": 2
    }
  },
  {
    "action": "execute_pt",
    "unit": "005",
    "bar_index": 6,
    "pt_name": "violin_homophony_b54_1761585527890_27b9",
    "N": 2,
    "seeds": {
      "time": 0,
      "duration": 8,
      "pitch": 72,
      "velocity": 48,
      "numerator": 3,
      "denominator": 4
    },
    "sample_counts": {
      "time": 2,
      "duration": 2,
      "pitch": 2,
      "velocity": 2,
      "numerator": 2,
      "denominator": 2
    }
  },
  {
    "action": "execute_pt",
    "unit": "005",
    "bar_index": 6,
    "pt_name": "cello_homophony_b54_1761585527890_330b",
    "N": 2,
    "seeds": {
      "time": 0,
      "duration": 8,
      "pitch": 53,
      "velocity": 46,
      "numerator": 3,
      "denominator": 4
    },
    "sample_counts": {
      "time": 2,
      "duration": 2,
      "pitch": 2,
      "velocity": 2,
      "numerator": 2,
      "denominator": 2
    }
  },
  {
    "action": "execute_pt",
    "unit": "005",
    "bar_index": 6,
    "pt_name": "double_bass_homophony_b54_1761585527890_b014",
    "N": 2,
    "seeds": {
      "time": 0,
      "duration": 8,
      "pitch": 46,
      "velocity": 44,
      "numerator": 3,
      "denominator": 4
    },
    "sample_counts": {
      "time": 2,
      "duration": 2,
      "pitch": 2,
      "velocity": 2,
      "numerator": 2,
      "denominator": 2
    }
  },
  {
    "action": "execute_pt",
    "unit": "005",
    "bar_index": 7,
    "pt_name": "alto_flute_homophony_b55_1761585534883_2506",
    "N": 2,
    "seeds": {
      "time": 0,
      "duration": 4,
      "pitch": 71,
      "velocity": 54,
      "numerator": 3,
      "denominator": 4
    },
    "sample_counts": {
      "time": 2,
      "duration": 2,
      "pitch": 2,
      "velocity": 2,
      "numerator": 2,
      "denominator": 2
    }
  },
  {
    "action": "execute_pt",
    "unit": "005",
    "bar_index": 7,
    "pt_name": "bass_clarinet_homophony_b55_1761585534883_c388",
    "N": 2,
    "seeds": {
      "time": 0,
      "duration": 4,
      "pitch": 52,
      "velocity": 50,
      "numerator": 3,
      "denominator": 4
    },
    "sample_counts": {
      "time": 2,
      "duration": 2,
      "pitch": 2,
      "velocity": 2,
      "numerator": 2,
      "denominator": 2
    }
  },
  {
    "action": "execute_pt",
    "unit": "005",
    "bar_index": 7,
    "pt_name": "trumpet_homophony_b55_1761585534883_fffe",
    "N": 2,
    "seeds": {
      "time": 0,
      "duration": 4,
      "pitch": 78,
      "velocity": 58,
      "numerator": 3,
      "denominator": 4
    },
    "sample_counts": {
      "time": 2,
      "duration": 2,
      "pitch": 2,
      "velocity": 2,
      "numerator": 2,
      "denominator": 2
    }
  },
  {
    "action": "execute_pt",
    "unit": "005",
    "bar_index": 7,
    "pt_name": "violin_homophony_b55_1761585534883_0710",
    "N": 2,
    "seeds": {
      "time": 0,
      "duration": 4,
      "pitch": 75,
      "velocity": 46,
      "numerator": 3,
      "denominator": 4
    },
    "sample_counts": {
      "time": 2,
      "duration": 2,
      "pitch": 2,
      "velocity": 2,
      "numerator": 2,
      "denominator": 2
    }
  },
  {
    "action": "execute_pt",
    "unit": "005",
    "bar_index": 7,
    "pt_name": "cello_homophony_b55_1761585534883_ceec",
    "N": 2,
    "seeds": {
      "time": 0,
      "duration": 4,
      "pitch": 56,
      "velocity": 44,
      "numerator": 3,
      "denominator": 4
    },
    "sample_counts": {
      "time": 2,
      "duration": 2,
      "pitch": 2,
      "velocity": 2,
      "numerator": 2,
      "denominator": 2
    }
  },
  {
    "action": "execute_pt",
    "unit": "005",
    "bar_index": 7,
    "pt_name": "double_bass_homophony_b55_1761585534883_5ab6",
    "N": 2,
    "seeds": {
      "time": 0,
      "duration": 4,
      "pitch": 49,
      "velocity": 42,
      "numerator": 3,
      "denominator": 4
    },
    "sample_counts": {
      "time": 2,
      "duration": 2,
      "pitch": 2,
      "velocity": 2,
      "numerator": 2,
      "denominator": 2
    }
  },
  {
    "action": "execute_pt",
    "unit": "005",
    "bar_index": 8,
    "pt_name": "alto_flute_homophony_b56_1761585542616_ded5",
    "N": 1,
    "seeds": {
      "time": 0,
      "duration": 12,
      "pitch": 72,
      "velocity": 52,
      "numerator": 3,
      "denominator": 4
    },
    "sample_counts": {
      "time": 1,
      "duration": 1,
      "pitch": 1,
      "velocity": 1,
      "numerator": 1,
      "denominator": 1
    }
  },
  {
    "action": "execute_pt",
    "unit": "005",
    "bar_index": 8,
    "pt_name": "bass_clarinet_homophony_b56_1761585542616_c1b6",
    "N": 1,
    "seeds": {
      "time": 0,
      "duration": 12,
      "pitch": 55,
      "velocity": 48,
      "numerator": 3,
      "denominator": 4
    },
    "sample_counts": {
      "time": 1,
      "duration": 1,
      "pitch": 1,
      "velocity": 1,
      "numerator": 1,
      "denominator": 1
    }
  },
  {
    "action": "execute_pt",
    "unit": "005",
    "bar_index": 8,
    "pt_name": "trumpet_homophony_b56_1761585542617_2721",
    "N": 1,
    "seeds": {
      "time": 0,
      "duration": 12,
      "pitch": 65,
      "velocity": 56,
      "numerator": 3,
      "denominator": 4
    },
    "sample_counts": {
      "time": 1,
      "duration": 1,
      "pitch": 1,
      "velocity": 1,
      "numerator": 1,
      "denominator": 1
    }
  },
  {
    "action": "execute_pt",
    "unit": "005",
    "bar_index": 8,
    "pt_name": "violin_homophony_b56_1761585542617_7c5d",
    "N": 1,
    "seeds": {
      "time": 0,
      "duration": 12,
      "pitch": 70,
      "velocity": 44,
      "numerator": 3,
      "denominator": 4
    },
    "sample_counts": {
      "time": 1,
      "duration": 1,
      "pitch": 1,
      "velocity": 1,
      "numerator": 1,
      "denominator": 1
    }
  },
  {
    "action": "execute_pt",
    "unit": "005",
    "bar_index": 8,
    "pt_name": "cello_homophony_b56_1761585542617_365d",
    "N": 1,
    "seeds": {
      "time": 0,
      "duration": 12,
      "pitch": 51,
      "velocity": 42,
      "numerator": 3,
      "denominator": 4
    },
    "sample_counts": {
      "time": 1,
      "duration": 1,
      "pitch": 1,
      "velocity": 1,
      "numerator": 1,
      "denominator": 1
    }
  },
  {
    "action": "execute_pt",
    "unit": "005",
    "bar_index": 8,
    "pt_name": "double_bass_homophony_b56_1761585542617_2c43",
    "N": 1,
    "seeds": {
      "time": 0,
      "duration": 12,
      "pitch": 44,
      "velocity": 40,
      "numerator": 3,
      "denominator": 4
    },
    "sample_counts": {
      "time": 1,
      "duration": 1,
      "pitch": 1,
      "velocity": 1,
      "numerator": 1,
      "denominator": 1
    }
  },
  {
    "action": "execute_pt",
    "unit": "005",
    "bar_index": 9,
    "pt_name": "alto_flute_homophony_b57_1761585549909_204d",
    "N": 2,
    "seeds": {
      "time": 0,
      "duration": 8,
      "pitch": 79,
      "velocity": 50,
      "numerator": 3,
      "denominator": 4
    },
    "sample_counts": {
      "time": 2,
      "duration": 2,
      "pitch": 2,
      "velocity": 2,
      "numerator": 2,
      "denominator": 2
    }
  },
  {
    "action": "execute_pt",
    "unit": "005",
    "bar_index": 9,
    "pt_name": "bass_clarinet_homophony_b57_1761585549909_4449",
    "N": 2,
    "seeds": {
      "time": 0,
      "duration": 8,
      "pitch": 53,
      "velocity": 46,
      "numerator": 3,
      "denominator": 4
    },
    "sample_counts": {
      "time": 2,
      "duration": 2,
      "pitch": 2,
      "velocity": 2,
      "numerator": 2,
      "denominator": 2
    }
  },
  {
    "action": "execute_pt",
    "unit": "005",
    "bar_index": 9,
    "pt_name": "trumpet_homophony_b57_1761585549909_06df",
    "N": 2,
    "seeds": {
      "time": 0,
      "duration": 8,
      "pitch": 72,
      "velocity": 54,
      "numerator": 3,
      "denominator": 4
    },
    "sample_counts": {
      "time": 2,
      "duration": 2,
      "pitch": 2,
      "velocity": 2,
      "numerator": 2,
      "denominator": 2
    }
  },
  {
    "action": "execute_pt",
    "unit": "005",
    "bar_index": 9,
    "pt_name": "violin_homophony_b57_1761585549909_478b",
    "N": 2,
    "seeds": {
      "time": 0,
      "duration": 8,
      "pitch": 76,
      "velocity": 42,
      "numerator": 3,
      "denominator": 4
    },
    "sample_counts": {
      "time": 2,
      "duration": 2,
      "pitch": 2,
      "velocity": 2,
      "numerator": 2,
      "denominator": 2
    }
  },
  {
    "action": "execute_pt",
    "unit": "005",
    "bar_index": 9,
    "pt_name": "cello_homophony_b57_1761585549909_0cd3",
    "N": 2,
    "seeds": {
      "time": 0,
      "duration": 8,
      "pitch": 57,
      "velocity": 40,
      "numerator": 3,
      "denominator": 4
    },
    "sample_counts": {
      "time": 2,
      "duration": 2,
      "pitch": 2,
      "velocity": 2,
      "numerator": 2,
      "denominator": 2
    }
  },
  {
    "action": "execute_pt",
    "unit": "005",
    "bar_index": 9,
    "pt_name": "double_bass_homophony_b57_1761585549909_be96",
    "N": 2,
    "seeds": {
      "time": 0,
      "duration": 8,
      "pitch": 50,
      "velocity": 38,
      "numerator": 3,
      "denominator": 4
    },
    "sample_counts": {
      "time": 2,
      "duration": 2,
      "pitch": 2,
      "velocity": 2,
      "numerator": 2,
      "denominator": 2
    }
  },
  {
    "action": "execute_pt",
    "unit": "005",
    "bar_index": 10,
    "pt_name": "alto_flute_homophony_b58_1761585557599_fcd7",
    "N": 2,
    "seeds": {
      "time": 0,
      "duration": 4,
      "pitch": 72,
      "velocity": 48,
      "numerator": 3,
      "denominator": 4
    },
    "sample_counts": {
      "time": 2,
      "duration": 2,
      "pitch": 2,
      "velocity": 2,
      "numerator": 2,
      "denominator": 2
    }
  },
  {
    "action": "execute_pt",
    "unit": "005",
    "bar_index": 10,
    "pt_name": "bass_clarinet_homophony_b58_1761585557599_e1bb",
    "N": 2,
    "seeds": {
      "time": 0,
      "duration": 4,
      "pitch": 54,
      "velocity": 44,
      "numerator": 3,
      "denominator": 4
    },
    "sample_counts": {
      "time": 2,
      "duration": 2,
      "pitch": 2,
      "velocity": 2,
      "numerator": 2,
      "denominator": 2
    }
  },
  {
    "action": "execute_pt",
    "unit": "005",
    "bar_index": 10,
    "pt_name": "trumpet_homophony_b58_1761585557599_3631",
    "N": 2,
    "seeds": {
      "time": 0,
      "duration": 4,
      "pitch": 68,
      "velocity": 52,
      "numerator": 3,
      "denominator": 4
    },
    "sample_counts": {
      "time": 2,
      "duration": 2,
      "pitch": 2,
      "velocity": 2,
      "numerator": 2,
      "denominator": 2
    }
  },
  {
    "action": "execute_pt",
    "unit": "005",
    "bar_index": 10,
    "pt_name": "violin_homophony_b58_1761585557600_8a30",
    "N": 2,
    "seeds": {
      "time": 0,
      "duration": 4,
      "pitch": 77,
      "velocity": 40,
      "numerator": 3,
      "denominator": 4
    },
    "sample_counts": {
      "time": 2,
      "duration": 2,
      "pitch": 2,
      "velocity": 2,
      "numerator": 2,
      "denominator": 2
    }
  },
  {
    "action": "execute_pt",
    "unit": "005",
    "bar_index": 10,
    "pt_name": "cello_homophony_b58_1761585557600_2e78",
    "N": 2,
    "seeds": {
      "time": 0,
      "duration": 4,
      "pitch": 58,
      "velocity": 38,
      "numerator": 3,
      "denominator": 4
    },
    "sample_counts": {
      "time": 2,
      "duration": 2,
      "pitch": 2,
      "velocity": 2,
      "numerator": 2,
      "denominator": 2
    }
  },
  {
    "action": "execute_pt",
    "unit": "005",
    "bar_index": 10,
    "pt_name": "double_bass_homophony_b58_1761585557600_ec64",
    "N": 2,
    "seeds": {
      "time": 0,
      "duration": 4,
      "pitch": 51,
      "velocity": 36,
      "numerator": 3,
      "denominator": 4
    },
    "sample_counts": {
      "time": 2,
      "duration": 2,
      "pitch": 2,
      "velocity": 2,
      "numerator": 2,
      "denominator": 2
    }
  },
  {
    "action": "execute_pt",
    "unit": "005",
    "bar_index": 11,
    "pt_name": "alto_flute_homophony_b59_1761585565400_1d46",
    "N": 1,
    "seeds": {
      "time": 0,
      "duration": 8,
      "pitch": 71,
      "velocity": 46,
      "numerator": 3,
      "denominator": 4
    },
    "sample_counts": {
      "time": 1,
      "duration": 1,
      "pitch": 1,
      "velocity": 1,
      "numerator": 1,
      "denominator": 1
    }
  },
  {
    "action": "execute_pt",
    "unit": "005",
    "bar_index": 11,
    "pt_name": "bass_clarinet_homophony_b59_1761585565400_c6de",
    "N": 1,
    "seeds": {
      "time": 0,
      "duration": 8,
      "pitch": 57,
      "velocity": 42,
      "numerator": 3,
      "denominator": 4
    },
    "sample_counts": {
      "time": 1,
      "duration": 1,
      "pitch": 1,
      "velocity": 1,
      "numerator": 1,
      "denominator": 1
    }
  },
  {
    "action": "execute_pt",
    "unit": "005",
    "bar_index": 11,
    "pt_name": "trumpet_homophony_b59_1761585565400_818b",
    "N": 1,
    "seeds": {
      "time": 0,
      "duration": 8,
      "pitch": 76,
      "velocity": 50,
      "numerator": 3,
      "denominator": 4
    },
    "sample_counts": {
      "time": 1,
      "duration": 1,
      "pitch": 1,
      "velocity": 1,
      "numerator": 1,
      "denominator": 1
    }
  },
  {
    "action": "execute_pt",
    "unit": "005",
    "bar_index": 11,
    "pt_name": "violin_homophony_b59_1761585565400_14eb",
    "N": 1,
    "seeds": {
      "time": 0,
      "duration": 8,
      "pitch": 69,
      "velocity": 38,
      "numerator": 3,
      "denominator": 4
    },
    "sample_counts": {
      "time": 1,
      "duration": 1,
      "pitch": 1,
      "velocity": 1,
      "numerator": 1,
      "denominator": 1
    }
  },
  {
    "action": "execute_pt",
    "unit": "005",
    "bar_index": 11,
    "pt_name": "cello_homophony_b59_1761585565400_1f94",
    "N": 1,
    "seeds": {
      "time": 0,
      "duration": 8,
      "pitch": 50,
      "velocity": 36,
      "numerator": 3,
      "denominator": 4
    },
    "sample_counts": {
      "time": 1,
      "duration": 1,
      "pitch": 1,
      "velocity": 1,
      "numerator": 1,
      "denominator": 1
    }
  },
  {
    "action": "execute_pt",
    "unit": "005",
    "bar_index": 11,
    "pt_name": "double_bass_homophony_b59_1761585565400_52e5",
    "N": 1,
    "seeds": {
      "time": 0,
      "duration": 8,
      "pitch": 43,
      "velocity": 34,
      "numerator": 3,
      "denominator": 4
    },
    "sample_counts": {
      "time": 1,
      "duration": 1,
      "pitch": 1,
      "velocity": 1,
      "numerator": 1,
      "denominator": 1
    }
  },
  {
    "action": "execute_pt",
    "unit": "005",
    "bar_index": 12,
    "pt_name": "alto_flute_homophony_b60_1761585572946_546e",
    "N": 1,
    "seeds": {
      "time": 0,
      "duration": 12,
      "pitch": 79,
      "velocity": 44,
      "numerator": 3,
      "denominator": 4
    },
    "sample_counts": {
      "time": 1,
      "duration": 1,
      "pitch": 1,
      "velocity": 1,
      "numerator": 1,
      "denominator": 1
    }
  },
  {
    "action": "execute_pt",
    "unit": "005",
    "bar_index": 12,
    "pt_name": "bass_clarinet_homophony_b60_1761585572946_d655",
    "N": 1,
    "seeds": {
      "time": 0,
      "duration": 12,
      "pitch": 61,
      "velocity": 40,
      "numerator": 3,
      "denominator": 4
    },
    "sample_counts": {
      "time": 1,
      "duration": 1,
      "pitch": 1,
      "velocity": 1,
      "numerator": 1,
      "denominator": 1
    }
  },
  {
    "action": "execute_pt",
    "unit": "005",
    "bar_index": 12,
    "pt_name": "trumpet_homophony_b60_1761585572946_8f25",
    "N": 1,
    "seeds": {
      "time": 0,
      "duration": 12,
      "pitch": 69,
      "velocity": 48,
      "numerator": 3,
      "denominator": 4
    },
    "sample_counts": {
      "time": 1,
      "duration": 1,
      "pitch": 1,
      "velocity": 1,
      "numerator": 1,
      "denominator": 1
    }
  },
  {
    "action": "execute_pt",
    "unit": "005",
    "bar_index": 12,
    "pt_name": "violin_homophony_b60_1761585572946_3200",
    "N": 1,
    "seeds": {
      "time": 0,
      "duration": 12,
      "pitch": 76,
      "velocity": 36,
      "numerator": 3,
      "denominator": 4
    },
    "sample_counts": {
      "time": 1,
      "duration": 1,
      "pitch": 1,
      "velocity": 1,
      "numerator": 1,
      "denominator": 1
    }
  },
  {
    "action": "execute_pt",
    "unit": "005",
    "bar_index": 12,
    "pt_name": "cello_homophony_b60_1761585572946_3e62",
    "N": 1,
    "seeds": {
      "time": 0,
      "duration": 12,
      "pitch": 57,
      "velocity": 34,
      "numerator": 3,
      "denominator": 4
    },
    "sample_counts": {
      "time": 1,
      "duration": 1,
      "pitch": 1,
      "velocity": 1,
      "numerator": 1,
      "denominator": 1
    }
  },
  {
    "action": "execute_pt",
    "unit": "005",
    "bar_index": 12,
    "pt_name": "double_bass_homophony_b60_1761585572946_ad56",
    "N": 1,
    "seeds": {
      "time": 0,
      "duration": 12,
      "pitch": 50,
      "velocity": 32,
      "numerator": 3,
      "denominator": 4
    },
    "sample_counts": {
      "time": 1,
      "duration": 1,
      "pitch": 1,
      "velocity": 1,
      "numerator": 1,
      "denominator": 1
    }
  },
  {
    "action": "execute_pt",
    "unit": "005",
    "bar_index": 13,
    "pt_name": "alto_flute_homophony_b57_1761585579941_e592",
    "N": 1,
    "seeds": {
      "time": 0,
      "duration": 12,
      "pitch": 72,
      "velocity": 52,
      "numerator": 3,
      "denominator": 4
    },
    "sample_counts": {
      "time": 1,
      "duration": 1,
      "pitch": 1,
      "velocity": 1,
      "numerator": 1,
      "denominator": 1
    }
  },
  {
    "action": "execute_pt",
    "unit": "005",
    "bar_index": 13,
    "pt_name": "bass_clarinet_homophony_b57_1761585579941_fa14",
    "N": 1,
    "seeds": {
      "time": 0,
      "duration": 12,
      "pitch": 55,
      "velocity": 48,
      "numerator": 3,
      "denominator": 4
    },
    "sample_counts": {
      "time": 1,
      "duration": 1,
      "pitch": 1,
      "velocity": 1,
      "numerator": 1,
      "denominator": 1
    }
  },
  {
    "action": "execute_pt",
    "unit": "005",
    "bar_index": 13,
    "pt_name": "trumpet_homophony_b57_1761585579941_6a76",
    "N": 1,
    "seeds": {
      "time": 0,
      "duration": 12,
      "pitch": 65,
      "velocity": 56,
      "numerator": 3,
      "denominator": 4
    },
    "sample_counts": {
      "time": 1,
      "duration": 1,
      "pitch": 1,
      "velocity": 1,
      "numerator": 1,
      "denominator": 1
    }
  },
  {
    "action": "execute_pt",
    "unit": "005",
    "bar_index": 13,
    "pt_name": "violin_homophony_b57_1761585579941_0a74",
    "N": 1,
    "seeds": {
      "time": 0,
      "duration": 12,
      "pitch": 70,
      "velocity": 44,
      "numerator": 3,
      "denominator": 4
    },
    "sample_counts": {
      "time": 1,
      "duration": 1,
      "pitch": 1,
      "velocity": 1,
      "numerator": 1,
      "denominator": 1
    }
  },
  {
    "action": "execute_pt",
    "unit": "005",
    "bar_index": 13,
    "pt_name": "cello_homophony_b57_1761585579941_45aa",
    "N": 1,
    "seeds": {
      "time": 0,
      "duration": 12,
      "pitch": 51,
      "velocity": 42,
      "numerator": 3,
      "denominator": 4
    },
    "sample_counts": {
      "time": 1,
      "duration": 1,
      "pitch": 1,
      "velocity": 1,
      "numerator": 1,
      "denominator": 1
    }
  },
  {
    "action": "execute_pt",
    "unit": "005",
    "bar_index": 13,
    "pt_name": "double_bass_homophony_b57_1761585579941_c92d",
    "N": 1,
    "seeds": {
      "time": 0,
      "duration": 12,
      "pitch": 44,
      "velocity": 40,
      "numerator": 3,
      "denominator": 4
    },
    "sample_counts": {
      "time": 1,
      "duration": 1,
      "pitch": 1,
      "velocity": 1,
      "numerator": 1,
      "denominator": 1
    }
  },
  {
    "action": "execute_pt",
    "unit": "005",
    "bar_index": 14,
    "pt_name": "alto_flute_homophony_b58_1761585587784_111e",
    "N": 1,
    "seeds": {
      "time": 0,
      "duration": 12,
      "pitch": 72,
      "velocity": 48,
      "numerator": 3,
      "denominator": 4
    },
    "sample_counts": {
      "time": 1,
      "duration": 1,
      "pitch": 1,
      "velocity": 1,
      "numerator": 1,
      "denominator": 1
    }
  },
  {
    "action": "execute_pt",
    "unit": "005",
    "bar_index": 14,
    "pt_name": "bass_clarinet_homophony_b58_1761585587784_49f0",
    "N": 1,
    "seeds": {
      "time": 0,
      "duration": 12,
      "pitch": 54,
      "velocity": 44,
      "numerator": 3,
      "denominator": 4
    },
    "sample_counts": {
      "time": 1,
      "duration": 1,
      "pitch": 1,
      "velocity": 1,
      "numerator": 1,
      "denominator": 1
    }
  },
  {
    "action": "execute_pt",
    "unit": "005",
    "bar_index": 14,
    "pt_name": "trumpet_homophony_b58_1761585587784_d45c",
    "N": 1,
    "seeds": {
      "time": 0,
      "duration": 12,
      "pitch": 68,
      "velocity": 52,
      "numerator": 3,
      "denominator": 4
    },
    "sample_counts": {
      "time": 1,
      "duration": 1,
      "pitch": 1,
      "velocity": 1,
      "numerator": 1,
      "denominator": 1
    }
  },
  {
    "action": "execute_pt",
    "unit": "005",
    "bar_index": 14,
    "pt_name": "violin_homophony_b58_1761585587784_ec59",
    "N": 1,
    "seeds": {
      "time": 0,
      "duration": 12,
      "pitch": 77,
      "velocity": 40,
      "numerator": 3,
      "denominator": 4
    },
    "sample_counts": {
      "time": 1,
      "duration": 1,
      "pitch": 1,
      "velocity": 1,
      "numerator": 1,
      "denominator": 1
    }
  },
  {
    "action": "execute_pt",
    "unit": "005",
    "bar_index": 14,
    "pt_name": "cello_homophony_b58_1761585587784_0a64",
    "N": 1,
    "seeds": {
      "time": 0,
      "duration": 12,
      "pitch": 58,
      "velocity": 38,
      "numerator": 3,
      "denominator": 4
    },
    "sample_counts": {
      "time": 1,
      "duration": 1,
      "pitch": 1,
      "velocity": 1,
      "numerator": 1,
      "denominator": 1
    }
  },
  {
    "action": "execute_pt",
    "unit": "005",
    "bar_index": 14,
    "pt_name": "double_bass_homophony_b58_1761585587784_4e8d",
    "N": 1,
    "seeds": {
      "time": 0,
      "duration": 12,
      "pitch": 51,
      "velocity": 36,
      "numerator": 3,
      "denominator": 4
    },
    "sample_counts": {
      "time": 1,
      "duration": 1,
      "pitch": 1,
      "velocity": 1,
      "numerator": 1,
      "denominator": 1
    }
  }
]