[
  {
    "action": "execute_pt",
    "unit": "001",
    "bar_index": 1,
    "pt_name": "alto_flute_tacet_b1_1761511649327_f60f",
    "N": 1,
    "seeds": {
      "time": 11,
      "duration": 1,
      "pitch": 60,
      "velocity": 0,
      "numerator": 3,
      "denominator": 4
    },
    "sample_counts": {
      "time": 1,
      "duration": 1,
      "pitch": 1,
      "velocity": 1,
      "numerator": 1,
      "denominator": 1
    }
  },
  {
    "action": "execute_pt",
    "unit": "001",
    "bar_index": 1,
    "pt_name": "violin_upper_b1_1761511649327_6afe",
    "N": 1,
    "seeds": {
      "time": 0,
      "duration": 12,
      "pitch": 65,
      "velocity": 48,
      "numerator": 3,
      "denominator": 4
    },
    "sample_counts": {
      "time": 1,
      "duration": 1,
      "pitch": 1,
      "velocity": 1,
      "numerator": 1,
      "denominator": 1
    }
  },
  {
    "action": "execute_pt",
    "unit": "001",
    "bar_index": 1,
    "pt_name": "bass_clarinet_tacet_b1_1761511649327_273e",
    "N": 1,
    "seeds": {
      "time": 11,
      "duration": 1,
      "pitch": 60,
      "velocity": 0,
      "numerator": 3,
      "denominator": 4
    },
    "sample_counts": {
      "time": 1,
      "duration": 1,
      "pitch": 1,
      "velocity": 1,
      "numerator": 1,
      "denominator": 1
    }
  },
  {
    "action": "execute_pt",
    "unit": "001",
    "bar_index": 1,
    "pt_name": "trumpet_tacet_b1_1761511649327_b572",
    "N": 1,
    "seeds": {
      "time": 11,
      "duration": 1,
      "pitch": 60,
      "velocity": 0,
      "numerator": 3,
      "denominator": 4
    },
    "sample_counts": {
      "time": 1,
      "duration": 1,
      "pitch": 1,
      "velocity": 1,
      "numerator": 1,
      "denominator": 1
    }
  },
  {
    "action": "execute_pt",
    "unit": "001",
    "bar_index": 1,
    "pt_name": "cello_middle_b1_1761511649327_0216",
    "N": 1,
    "seeds": {
      "time": 0,
      "duration": 12,
      "pitch": 55,
      "velocity": 46,
      "numerator": 3,
      "denominator": 4
    },
    "sample_counts": {
      "time": 1,
      "duration": 1,
      "pitch": 1,
      "velocity": 1,
      "numerator": 1,
      "denominator": 1
    }
  },
  {
    "action": "execute_pt",
    "unit": "001",
    "bar_index": 1,
    "pt_name": "double_bass_root_b1_1761511649327_fafe",
    "N": 1,
    "seeds": {
      "time": 0,
      "duration": 12,
      "pitch": 51,
      "velocity": 44,
      "numerator": 3,
      "denominator": 4
    },
    "sample_counts": {
      "time": 1,
      "duration": 1,
      "pitch": 1,
      "velocity": 1,
      "numerator": 1,
      "denominator": 1
    }
  },
  {
    "action": "execute_pt",
    "unit": "001",
    "bar_index": 2,
    "pt_name": "alto_flute_tacet_b2_1761511657045_a324",
    "N": 1,
    "seeds": {
      "time": 11,
      "duration": 1,
      "pitch": 60,
      "velocity": 0,
      "numerator": 3,
      "denominator": 4
    },
    "sample_counts": {
      "time": 1,
      "duration": 1,
      "pitch": 1,
      "velocity": 1,
      "numerator": 1,
      "denominator": 1
    }
  },
  {
    "action": "execute_pt",
    "unit": "001",
    "bar_index": 2,
    "pt_name": "violin_upper_b2_1761511657045_55b8",
    "N": 2,
    "seeds": {
      "time": 0,
      "duration": 8,
      "pitch": 64,
      "velocity": 48,
      "numerator": 3,
      "denominator": 4
    },
    "sample_counts": {
      "time": 2,
      "duration": 2,
      "pitch": 2,
      "velocity": 2,
      "numerator": 2,
      "denominator": 2
    }
  },
  {
    "action": "execute_pt",
    "unit": "001",
    "bar_index": 2,
    "pt_name": "bass_clarinet_tacet_b2_1761511657045_8e4e",
    "N": 1,
    "seeds": {
      "time": 11,
      "duration": 1,
      "pitch": 60,
      "velocity": 0,
      "numerator": 3,
      "denominator": 4
    },
    "sample_counts": {
      "time": 1,
      "duration": 1,
      "pitch": 1,
      "velocity": 1,
      "numerator": 1,
      "denominator": 1
    }
  },
  {
    "action": "execute_pt",
    "unit": "001",
    "bar_index": 2,
    "pt_name": "trumpet_tacet_b2_1761511657045_3a6b",
    "N": 1,
    "seeds": {
      "time": 11,
      "duration": 1,
      "pitch": 60,
      "velocity": 0,
      "numerator": 3,
      "denominator": 4
    },
    "sample_counts": {
      "time": 1,
      "duration": 1,
      "pitch": 1,
      "velocity": 1,
      "numerator": 1,
      "denominator": 1
    }
  },
  {
    "action": "execute_pt",
    "unit": "001",
    "bar_index": 2,
    "pt_name": "cello_middle_b2_1761511657045_bfaf",
    "N": 2,
    "seeds": {
      "time": 0,
      "duration": 8,
      "pitch": 52,
      "velocity": 46,
      "numerator": 3,
      "denominator": 4
    },
    "sample_counts": {
      "time": 2,
      "duration": 2,
      "pitch": 2,
      "velocity": 2,
      "numerator": 2,
      "denominator": 2
    }
  },
  {
    "action": "execute_pt",
    "unit": "001",
    "bar_index": 2,
    "pt_name": "double_bass_root_b2_1761511657045_c346",
    "N": 2,
    "seeds": {
      "time": 0,
      "duration": 8,
      "pitch": 45,
      "velocity": 44,
      "numerator": 3,
      "denominator": 4
    },
    "sample_counts": {
      "time": 2,
      "duration": 2,
      "pitch": 2,
      "velocity": 2,
      "numerator": 2,
      "denominator": 2
    }
  },
  {
    "action": "execute_pt",
    "unit": "001",
    "bar_index": 3,
    "pt_name": "alto_flute_tacet_b3_1761511664843_1723",
    "N": 1,
    "seeds": {
      "time": 11,
      "duration": 1,
      "pitch": 60,
      "velocity": 0,
      "numerator": 3,
      "denominator": 4
    },
    "sample_counts": {
      "time": 1,
      "duration": 1,
      "pitch": 1,
      "velocity": 1,
      "numerator": 1,
      "denominator": 1
    }
  },
  {
    "action": "execute_pt",
    "unit": "001",
    "bar_index": 3,
    "pt_name": "violin_upper_b3_1761511664843_9736",
    "N": 2,
    "seeds": {
      "time": 0,
      "duration": 4,
      "pitch": 67,
      "velocity": 48,
      "numerator": 3,
      "denominator": 4
    },
    "sample_counts": {
      "time": 2,
      "duration": 2,
      "pitch": 2,
      "velocity": 2,
      "numerator": 2,
      "denominator": 2
    }
  },
  {
    "action": "execute_pt",
    "unit": "001",
    "bar_index": 3,
    "pt_name": "bass_clarinet_tacet_b3_1761511664843_9357",
    "N": 1,
    "seeds": {
      "time": 11,
      "duration": 1,
      "pitch": 60,
      "velocity": 0,
      "numerator": 3,
      "denominator": 4
    },
    "sample_counts": {
      "time": 1,
      "duration": 1,
      "pitch": 1,
      "velocity": 1,
      "numerator": 1,
      "denominator": 1
    }
  },
  {
    "action": "execute_pt",
    "unit": "001",
    "bar_index": 3,
    "pt_name": "trumpet_tacet_b3_1761511664843_2f5a",
    "N": 1,
    "seeds": {
      "time": 11,
      "duration": 1,
      "pitch": 60,
      "velocity": 0,
      "numerator": 3,
      "denominator": 4
    },
    "sample_counts": {
      "time": 1,
      "duration": 1,
      "pitch": 1,
      "velocity": 1,
      "numerator": 1,
      "denominator": 1
    }
  },
  {
    "action": "execute_pt",
    "unit": "001",
    "bar_index": 3,
    "pt_name": "cello_middle_b3_1761511664843_31b4",
    "N": 2,
    "seeds": {
      "time": 0,
      "duration": 4,
      "pitch": 55,
      "velocity": 46,
      "numerator": 3,
      "denominator": 4
    },
    "sample_counts": {
      "time": 2,
      "duration": 2,
      "pitch": 2,
      "velocity": 2,
      "numerator": 2,
      "denominator": 2
    }
  },
  {
    "action": "execute_pt",
    "unit": "001",
    "bar_index": 3,
    "pt_name": "double_bass_root_b3_1761511664843_22c0",
    "N": 2,
    "seeds": {
      "time": 0,
      "duration": 4,
      "pitch": 48,
      "velocity": 44,
      "numerator": 3,
      "denominator": 4
    },
    "sample_counts": {
      "time": 2,
      "duration": 2,
      "pitch": 2,
      "velocity": 2,
      "numerator": 2,
      "denominator": 2
    }
  },
  {
    "action": "execute_pt",
    "unit": "001",
    "bar_index": 4,
    "pt_name": "alto_flute_tacet_b4_1761511672810_7a6f",
    "N": 1,
    "seeds": {
      "time": 11,
      "duration": 1,
      "pitch": 60,
      "velocity": 0,
      "numerator": 3,
      "denominator": 4
    },
    "sample_counts": {
      "time": 1,
      "duration": 1,
      "pitch": 1,
      "velocity": 1,
      "numerator": 1,
      "denominator": 1
    }
  },
  {
    "action": "execute_pt",
    "unit": "001",
    "bar_index": 4,
    "pt_name": "violin_upper_b4_1761511672810_f472",
    "N": 1,
    "seeds": {
      "time": 0,
      "duration": 8,
      "pitch": 61,
      "velocity": 48,
      "numerator": 3,
      "denominator": 4
    },
    "sample_counts": {
      "time": 1,
      "duration": 1,
      "pitch": 1,
      "velocity": 1,
      "numerator": 1,
      "denominator": 1
    }
  },
  {
    "action": "execute_pt",
    "unit": "001",
    "bar_index": 4,
    "pt_name": "bass_clarinet_tacet_b4_1761511672810_5d2e",
    "N": 1,
    "seeds": {
      "time": 11,
      "duration": 1,
      "pitch": 60,
      "velocity": 0,
      "numerator": 3,
      "denominator": 4
    },
    "sample_counts": {
      "time": 1,
      "duration": 1,
      "pitch": 1,
      "velocity": 1,
      "numerator": 1,
      "denominator": 1
    }
  },
  {
    "action": "execute_pt",
    "unit": "001",
    "bar_index": 4,
    "pt_name": "trumpet_tacet_b4_1761511672810_18e7",
    "N": 1,
    "seeds": {
      "time": 11,
      "duration": 1,
      "pitch": 60,
      "velocity": 0,
      "numerator": 3,
      "denominator": 4
    },
    "sample_counts": {
      "time": 1,
      "duration": 1,
      "pitch": 1,
      "velocity": 1,
      "numerator": 1,
      "denominator": 1
    }
  },
  {
    "action": "execute_pt",
    "unit": "001",
    "bar_index": 4,
    "pt_name": "cello_middle_b4_1761511672810_27c9",
    "N": 1,
    "seeds": {
      "time": 0,
      "duration": 8,
      "pitch": 57,
      "velocity": 46,
      "numerator": 3,
      "denominator": 4
    },
    "sample_counts": {
      "time": 1,
      "duration": 1,
      "pitch": 1,
      "velocity": 1,
      "numerator": 1,
      "denominator": 1
    }
  },
  {
    "action": "execute_pt",
    "unit": "001",
    "bar_index": 4,
    "pt_name": "double_bass_root_b4_1761511672810_cdd6",
    "N": 1,
    "seeds": {
      "time": 0,
      "duration": 8,
      "pitch": 54,
      "velocity": 44,
      "numerator": 3,
      "denominator": 4
    },
    "sample_counts": {
      "time": 1,
      "duration": 1,
      "pitch": 1,
      "velocity": 1,
      "numerator": 1,
      "denominator": 1
    }
  },
  {
    "action": "execute_pt",
    "unit": "001",
    "bar_index": 5,
    "pt_name": "alto_flute_tacet_b5_1761511681613_5b04",
    "N": 1,
    "seeds": {
      "time": 11,
      "duration": 1,
      "pitch": 60,
      "velocity": 0,
      "numerator": 3,
      "denominator": 4
    },
    "sample_counts": {
      "time": 1,
      "duration": 1,
      "pitch": 1,
      "velocity": 1,
      "numerator": 1,
      "denominator": 1
    }
  },
  {
    "action": "execute_pt",
    "unit": "001",
    "bar_index": 5,
    "pt_name": "violin_upper_b5_1761511681613_ae9a",
    "N": 1,
    "seeds": {
      "time": 4,
      "duration": 8,
      "pitch": 69,
      "velocity": 48,
      "numerator": 3,
      "denominator": 4
    },
    "sample_counts": {
      "time": 1,
      "duration": 1,
      "pitch": 1,
      "velocity": 1,
      "numerator": 1,
      "denominator": 1
    }
  },
  {
    "action": "execute_pt",
    "unit": "001",
    "bar_index": 5,
    "pt_name": "bass_clarinet_tacet_b5_1761511681613_e56c",
    "N": 1,
    "seeds": {
      "time": 11,
      "duration": 1,
      "pitch": 60,
      "velocity": 0,
      "numerator": 3,
      "denominator": 4
    },
    "sample_counts": {
      "time": 1,
      "duration": 1,
      "pitch": 1,
      "velocity": 1,
      "numerator": 1,
      "denominator": 1
    }
  },
  {
    "action": "execute_pt",
    "unit": "001",
    "bar_index": 5,
    "pt_name": "trumpet_tacet_b5_1761511681613_507d",
    "N": 1,
    "seeds": {
      "time": 11,
      "duration": 1,
      "pitch": 60,
      "velocity": 0,
      "numerator": 3,
      "denominator": 4
    },
    "sample_counts": {
      "time": 1,
      "duration": 1,
      "pitch": 1,
      "velocity": 1,
      "numerator": 1,
      "denominator": 1
    }
  },
  {
    "action": "execute_pt",
    "unit": "001",
    "bar_index": 5,
    "pt_name": "cello_middle_b5_1761511681613_e236",
    "N": 1,
    "seeds": {
      "time": 4,
      "duration": 8,
      "pitch": 54,
      "velocity": 46,
      "numerator": 3,
      "denominator": 4
    },
    "sample_counts": {
      "time": 1,
      "duration": 1,
      "pitch": 1,
      "velocity": 1,
      "numerator": 1,
      "denominator": 1
    }
  },
  {
    "action": "execute_pt",
    "unit": "001",
    "bar_index": 5,
    "pt_name": "double_bass_root_b5_1761511681613_e972",
    "N": 1,
    "seeds": {
      "time": 4,
      "duration": 8,
      "pitch": 50,
      "velocity": 44,
      "numerator": 3,
      "denominator": 4
    },
    "sample_counts": {
      "time": 1,
      "duration": 1,
      "pitch": 1,
      "velocity": 1,
      "numerator": 1,
      "denominator": 1
    }
  },
  {
    "action": "execute_pt",
    "unit": "001",
    "bar_index": 6,
    "pt_name": "alto_flute_tacet_b6_1761511689079_72b8",
    "N": 1,
    "seeds": {
      "time": 11,
      "duration": 1,
      "pitch": 60,
      "velocity": 0,
      "numerator": 3,
      "denominator": 4
    },
    "sample_counts": {
      "time": 1,
      "duration": 1,
      "pitch": 1,
      "velocity": 1,
      "numerator": 1,
      "denominator": 1
    }
  },
  {
    "action": "execute_pt",
    "unit": "001",
    "bar_index": 6,
    "pt_name": "violin_upper_b6_1761511689079_39ea",
    "N": 2,
    "seeds": {
      "time": 0,
      "duration": 8,
      "pitch": 65,
      "velocity": 48,
      "numerator": 3,
      "denominator": 4
    },
    "sample_counts": {
      "time": 2,
      "duration": 2,
      "pitch": 2,
      "velocity": 2,
      "numerator": 2,
      "denominator": 2
    }
  },
  {
    "action": "execute_pt",
    "unit": "001",
    "bar_index": 6,
    "pt_name": "bass_clarinet_tacet_b6_1761511689079_ea50",
    "N": 1,
    "seeds": {
      "time": 11,
      "duration": 1,
      "pitch": 60,
      "velocity": 0,
      "numerator": 3,
      "denominator": 4
    },
    "sample_counts": {
      "time": 1,
      "duration": 1,
      "pitch": 1,
      "velocity": 1,
      "numerator": 1,
      "denominator": 1
    }
  },
  {
    "action": "execute_pt",
    "unit": "001",
    "bar_index": 6,
    "pt_name": "trumpet_tacet_b6_1761511689079_1ff3",
    "N": 1,
    "seeds": {
      "time": 11,
      "duration": 1,
      "pitch": 60,
      "velocity": 0,
      "numerator": 3,
      "denominator": 4
    },
    "sample_counts": {
      "time": 1,
      "duration": 1,
      "pitch": 1,
      "velocity": 1,
      "numerator": 1,
      "denominator": 1
    }
  },
  {
    "action": "execute_pt",
    "unit": "001",
    "bar_index": 6,
    "pt_name": "cello_middle_b6_1761511689079_88de",
    "N": 2,
    "seeds": {
      "time": 0,
      "duration": 8,
      "pitch": 50,
      "velocity": 46,
      "numerator": 3,
      "denominator": 4
    },
    "sample_counts": {
      "time": 2,
      "duration": 2,
      "pitch": 2,
      "velocity": 2,
      "numerator": 2,
      "denominator": 2
    }
  },
  {
    "action": "execute_pt",
    "unit": "001",
    "bar_index": 6,
    "pt_name": "double_bass_root_b6_1761511689079_6ae1",
    "N": 2,
    "seeds": {
      "time": 0,
      "duration": 8,
      "pitch": 46,
      "velocity": 44,
      "numerator": 3,
      "denominator": 4
    },
    "sample_counts": {
      "time": 2,
      "duration": 2,
      "pitch": 2,
      "velocity": 2,
      "numerator": 2,
      "denominator": 2
    }
  },
  {
    "action": "execute_pt",
    "unit": "001",
    "bar_index": 7,
    "pt_name": "alto_flute_tacet_b7_1761511696833_8ba6",
    "N": 1,
    "seeds": {
      "time": 11,
      "duration": 1,
      "pitch": 60,
      "velocity": 0,
      "numerator": 3,
      "denominator": 4
    },
    "sample_counts": {
      "time": 1,
      "duration": 1,
      "pitch": 1,
      "velocity": 1,
      "numerator": 1,
      "denominator": 1
    }
  },
  {
    "action": "execute_pt",
    "unit": "001",
    "bar_index": 7,
    "pt_name": "violin_upper_b7_1761511696833_ab59",
    "N": 1,
    "seeds": {
      "time": 0,
      "duration": 12,
      "pitch": 74,
      "velocity": 48,
      "numerator": 3,
      "denominator": 4
    },
    "sample_counts": {
      "time": 1,
      "duration": 1,
      "pitch": 1,
      "velocity": 1,
      "numerator": 1,
      "denominator": 1
    }
  },
  {
    "action": "execute_pt",
    "unit": "001",
    "bar_index": 7,
    "pt_name": "bass_clarinet_tacet_b7_1761511696833_1d51",
    "N": 1,
    "seeds": {
      "time": 11,
      "duration": 1,
      "pitch": 60,
      "velocity": 0,
      "numerator": 3,
      "denominator": 4
    },
    "sample_counts": {
      "time": 1,
      "duration": 1,
      "pitch": 1,
      "velocity": 1,
      "numerator": 1,
      "denominator": 1
    }
  },
  {
    "action": "execute_pt",
    "unit": "001",
    "bar_index": 7,
    "pt_name": "trumpet_tacet_b7_1761511696833_9862",
    "N": 1,
    "seeds": {
      "time": 11,
      "duration": 1,
      "pitch": 60,
      "velocity": 0,
      "numerator": 3,
      "denominator": 4
    },
    "sample_counts": {
      "time": 1,
      "duration": 1,
      "pitch": 1,
      "velocity": 1,
      "numerator": 1,
      "denominator": 1
    }
  },
  {
    "action": "execute_pt",
    "unit": "001",
    "bar_index": 7,
    "pt_name": "cello_middle_b7_1761511696833_18ab",
    "N": 1,
    "seeds": {
      "time": 0,
      "duration": 12,
      "pitch": 56,
      "velocity": 46,
      "numerator": 3,
      "denominator": 4
    },
    "sample_counts": {
      "time": 1,
      "duration": 1,
      "pitch": 1,
      "velocity": 1,
      "numerator": 1,
      "denominator": 1
    }
  },
  {
    "action": "execute_pt",
    "unit": "001",
    "bar_index": 7,
    "pt_name": "double_bass_root_b7_1761511696833_52a2",
    "N": 1,
    "seeds": {
      "time": 0,
      "duration": 12,
      "pitch": 52,
      "velocity": 44,
      "numerator": 3,
      "denominator": 4
    },
    "sample_counts": {
      "time": 1,
      "duration": 1,
      "pitch": 1,
      "velocity": 1,
      "numerator": 1,
      "denominator": 1
    }
  },
  {
    "action": "execute_pt",
    "unit": "001",
    "bar_index": 8,
    "pt_name": "alto_flute_tacet_b8_1761511704884_826e",
    "N": 1,
    "seeds": {
      "time": 11,
      "duration": 1,
      "pitch": 60,
      "velocity": 0,
      "numerator": 3,
      "denominator": 4
    },
    "sample_counts": {
      "time": 1,
      "duration": 1,
      "pitch": 1,
      "velocity": 1,
      "numerator": 1,
      "denominator": 1
    }
  },
  {
    "action": "execute_pt",
    "unit": "001",
    "bar_index": 8,
    "pt_name": "violin_upper_b8_1761511704884_c7c7",
    "N": 2,
    "seeds": {
      "time": 0,
      "duration": 4,
      "pitch": 72,
      "velocity": 48,
      "numerator": 3,
      "denominator": 4
    },
    "sample_counts": {
      "time": 2,
      "duration": 2,
      "pitch": 2,
      "velocity": 2,
      "numerator": 2,
      "denominator": 2
    }
  },
  {
    "action": "execute_pt",
    "unit": "001",
    "bar_index": 8,
    "pt_name": "bass_clarinet_tacet_b8_1761511704884_de04",
    "N": 1,
    "seeds": {
      "time": 11,
      "duration": 1,
      "pitch": 60,
      "velocity": 0,
      "numerator": 3,
      "denominator": 4
    },
    "sample_counts": {
      "time": 1,
      "duration": 1,
      "pitch": 1,
      "velocity": 1,
      "numerator": 1,
      "denominator": 1
    }
  },
  {
    "action": "execute_pt",
    "unit": "001",
    "bar_index": 8,
    "pt_name": "trumpet_tacet_b8_1761511704884_90f1",
    "N": 1,
    "seeds": {
      "time": 11,
      "duration": 1,
      "pitch": 60,
      "velocity": 0,
      "numerator": 3,
      "denominator": 4
    },
    "sample_counts": {
      "time": 1,
      "duration": 1,
      "pitch": 1,
      "velocity": 1,
      "numerator": 1,
      "denominator": 1
    }
  },
  {
    "action": "execute_pt",
    "unit": "001",
    "bar_index": 8,
    "pt_name": "cello_middle_b8_1761511704884_1510",
    "N": 2,
    "seeds": {
      "time": 0,
      "duration": 4,
      "pitch": 59,
      "velocity": 46,
      "numerator": 3,
      "denominator": 4
    },
    "sample_counts": {
      "time": 2,
      "duration": 2,
      "pitch": 2,
      "velocity": 2,
      "numerator": 2,
      "denominator": 2
    }
  },
  {
    "action": "execute_pt",
    "unit": "001",
    "bar_index": 8,
    "pt_name": "double_bass_root_b8_1761511704884_bbd6",
    "N": 2,
    "seeds": {
      "time": 0,
      "duration": 4,
      "pitch": 55,
      "velocity": 44,
      "numerator": 3,
      "denominator": 4
    },
    "sample_counts": {
      "time": 2,
      "duration": 2,
      "pitch": 2,
      "velocity": 2,
      "numerator": 2,
      "denominator": 2
    }
  },
  {
    "action": "execute_pt",
    "unit": "001",
    "bar_index": 9,
    "pt_name": "alto_flute_tacet_b9_1761511713014_0d6d",
    "N": 1,
    "seeds": {
      "time": 11,
      "duration": 1,
      "pitch": 60,
      "velocity": 0,
      "numerator": 3,
      "denominator": 4
    },
    "sample_counts": {
      "time": 1,
      "duration": 1,
      "pitch": 1,
      "velocity": 1,
      "numerator": 1,
      "denominator": 1
    }
  },
  {
    "action": "execute_pt",
    "unit": "001",
    "bar_index": 9,
    "pt_name": "violin_upper_b9_1761511713014_e34e",
    "N": 1,
    "seeds": {
      "time": 4,
      "duration": 8,
      "pitch": 71,
      "velocity": 48,
      "numerator": 3,
      "denominator": 4
    },
    "sample_counts": {
      "time": 1,
      "duration": 1,
      "pitch": 1,
      "velocity": 1,
      "numerator": 1,
      "denominator": 1
    }
  },
  {
    "action": "execute_pt",
    "unit": "001",
    "bar_index": 9,
    "pt_name": "bass_clarinet_tacet_b9_1761511713014_9d63",
    "N": 1,
    "seeds": {
      "time": 11,
      "duration": 1,
      "pitch": 60,
      "velocity": 0,
      "numerator": 3,
      "denominator": 4
    },
    "sample_counts": {
      "time": 1,
      "duration": 1,
      "pitch": 1,
      "velocity": 1,
      "numerator": 1,
      "denominator": 1
    }
  },
  {
    "action": "execute_pt",
    "unit": "001",
    "bar_index": 9,
    "pt_name": "trumpet_tacet_b9_1761511713014_6ee9",
    "N": 1,
    "seeds": {
      "time": 11,
      "duration": 1,
      "pitch": 60,
      "velocity": 0,
      "numerator": 3,
      "denominator": 4
    },
    "sample_counts": {
      "time": 1,
      "duration": 1,
      "pitch": 1,
      "velocity": 1,
      "numerator": 1,
      "denominator": 1
    }
  },
  {
    "action": "execute_pt",
    "unit": "001",
    "bar_index": 9,
    "pt_name": "cello_middle_b9_1761511713014_61e9",
    "N": 1,
    "seeds": {
      "time": 4,
      "duration": 8,
      "pitch": 52,
      "velocity": 46,
      "numerator": 3,
      "denominator": 4
    },
    "sample_counts": {
      "time": 1,
      "duration": 1,
      "pitch": 1,
      "velocity": 1,
      "numerator": 1,
      "denominator": 1
    }
  },
  {
    "action": "execute_pt",
    "unit": "001",
    "bar_index": 9,
    "pt_name": "double_bass_root_b9_1761511713014_ff7b",
    "N": 1,
    "seeds": {
      "time": 4,
      "duration": 8,
      "pitch": 49,
      "velocity": 44,
      "numerator": 3,
      "denominator": 4
    },
    "sample_counts": {
      "time": 1,
      "duration": 1,
      "pitch": 1,
      "velocity": 1,
      "numerator": 1,
      "denominator": 1
    }
  },
  {
    "action": "execute_pt",
    "unit": "001",
    "bar_index": 10,
    "pt_name": "alto_flute_tacet_b10_1761511720844_ba41",
    "N": 1,
    "seeds": {
      "time": 11,
      "duration": 1,
      "pitch": 60,
      "velocity": 0,
      "numerator": 3,
      "denominator": 4
    },
    "sample_counts": {
      "time": 1,
      "duration": 1,
      "pitch": 1,
      "velocity": 1,
      "numerator": 1,
      "denominator": 1
    }
  },
  {
    "action": "execute_pt",
    "unit": "001",
    "bar_index": 10,
    "pt_name": "violin_upper_b10_1761511720844_3ff3",
    "N": 2,
    "seeds": {
      "time": 0,
      "duration": 8,
      "pitch": 64,
      "velocity": 47,
      "numerator": 3,
      "denominator": 4
    },
    "sample_counts": {
      "time": 2,
      "duration": 2,
      "pitch": 2,
      "velocity": 2,
      "numerator": 2,
      "denominator": 2
    }
  },
  {
    "action": "execute_pt",
    "unit": "001",
    "bar_index": 10,
    "pt_name": "bass_clarinet_tacet_b10_1761511720844_54e5",
    "N": 1,
    "seeds": {
      "time": 11,
      "duration": 1,
      "pitch": 60,
      "velocity": 0,
      "numerator": 3,
      "denominator": 4
    },
    "sample_counts": {
      "time": 1,
      "duration": 1,
      "pitch": 1,
      "velocity": 1,
      "numerator": 1,
      "denominator": 1
    }
  },
  {
    "action": "execute_pt",
    "unit": "001",
    "bar_index": 10,
    "pt_name": "trumpet_tacet_b10_1761511720844_aa2b",
    "N": 1,
    "seeds": {
      "time": 11,
      "duration": 1,
      "pitch": 60,
      "velocity": 0,
      "numerator": 3,
      "denominator": 4
    },
    "sample_counts": {
      "time": 1,
      "duration": 1,
      "pitch": 1,
      "velocity": 1,
      "numerator": 1,
      "denominator": 1
    }
  },
  {
    "action": "execute_pt",
    "unit": "001",
    "bar_index": 10,
    "pt_name": "cello_middle_b10_1761511720844_49a3",
    "N": 2,
    "seeds": {
      "time": 0,
      "duration": 8,
      "pitch": 57,
      "velocity": 45,
      "numerator": 3,
      "denominator": 4
    },
    "sample_counts": {
      "time": 2,
      "duration": 2,
      "pitch": 2,
      "velocity": 2,
      "numerator": 2,
      "denominator": 2
    }
  },
  {
    "action": "execute_pt",
    "unit": "001",
    "bar_index": 10,
    "pt_name": "double_bass_root_b10_1761511720844_29cd",
    "N": 2,
    "seeds": {
      "time": 0,
      "duration": 8,
      "pitch": 53,
      "velocity": 43,
      "numerator": 3,
      "denominator": 4
    },
    "sample_counts": {
      "time": 2,
      "duration": 2,
      "pitch": 2,
      "velocity": 2,
      "numerator": 2,
      "denominator": 2
    }
  },
  {
    "action": "execute_pt",
    "unit": "001",
    "bar_index": 11,
    "pt_name": "alto_flute_tacet_b11_1761511728870_7a90",
    "N": 1,
    "seeds": {
      "time": 11,
      "duration": 1,
      "pitch": 60,
      "velocity": 0,
      "numerator": 3,
      "denominator": 4
    },
    "sample_counts": {
      "time": 1,
      "duration": 1,
      "pitch": 1,
      "velocity": 1,
      "numerator": 1,
      "denominator": 1
    }
  },
  {
    "action": "execute_pt",
    "unit": "001",
    "bar_index": 11,
    "pt_name": "violin_upper_b11_1761511728870_cb9e",
    "N": 1,
    "seeds": {
      "time": 0,
      "duration": 8,
      "pitch": 69,
      "velocity": 48,
      "numerator": 3,
      "denominator": 4
    },
    "sample_counts": {
      "time": 1,
      "duration": 1,
      "pitch": 1,
      "velocity": 1,
      "numerator": 1,
      "denominator": 1
    }
  },
  {
    "action": "execute_pt",
    "unit": "001",
    "bar_index": 11,
    "pt_name": "bass_clarinet_tacet_b11_1761511728870_136c",
    "N": 1,
    "seeds": {
      "time": 11,
      "duration": 1,
      "pitch": 60,
      "velocity": 0,
      "numerator": 3,
      "denominator": 4
    },
    "sample_counts": {
      "time": 1,
      "duration": 1,
      "pitch": 1,
      "velocity": 1,
      "numerator": 1,
      "denominator": 1
    }
  },
  {
    "action": "execute_pt",
    "unit": "001",
    "bar_index": 11,
    "pt_name": "trumpet_tacet_b11_1761511728870_a009",
    "N": 1,
    "seeds": {
      "time": 11,
      "duration": 1,
      "pitch": 60,
      "velocity": 0,
      "numerator": 3,
      "denominator": 4
    },
    "sample_counts": {
      "time": 1,
      "duration": 1,
      "pitch": 1,
      "velocity": 1,
      "numerator": 1,
      "denominator": 1
    }
  },
  {
    "action": "execute_pt",
    "unit": "001",
    "bar_index": 11,
    "pt_name": "cello_middle_b11_1761511728870_d7d3",
    "N": 1,
    "seeds": {
      "time": 0,
      "duration": 8,
      "pitch": 51,
      "velocity": 46,
      "numerator": 3,
      "denominator": 4
    },
    "sample_counts": {
      "time": 1,
      "duration": 1,
      "pitch": 1,
      "velocity": 1,
      "numerator": 1,
      "denominator": 1
    }
  },
  {
    "action": "execute_pt",
    "unit": "001",
    "bar_index": 11,
    "pt_name": "double_bass_root_b11_1761511728871_8a29",
    "N": 1,
    "seeds": {
      "time": 0,
      "duration": 8,
      "pitch": 47,
      "velocity": 44,
      "numerator": 3,
      "denominator": 4
    },
    "sample_counts": {
      "time": 1,
      "duration": 1,
      "pitch": 1,
      "velocity": 1,
      "numerator": 1,
      "denominator": 1
    }
  },
  {
    "action": "execute_pt",
    "unit": "001",
    "bar_index": 12,
    "pt_name": "alto_flute_tacet_b12_1761511736914_27dd",
    "N": 1,
    "seeds": {
      "time": 11,
      "duration": 1,
      "pitch": 60,
      "velocity": 0,
      "numerator": 3,
      "denominator": 4
    },
    "sample_counts": {
      "time": 1,
      "duration": 1,
      "pitch": 1,
      "velocity": 1,
      "numerator": 1,
      "denominator": 1
    }
  },
  {
    "action": "execute_pt",
    "unit": "001",
    "bar_index": 12,
    "pt_name": "violin_upper_b12_1761511736914_b40f",
    "N": 1,
    "seeds": {
      "time": 0,
      "duration": 12,
      "pitch": 65,
      "velocity": 48,
      "numerator": 3,
      "denominator": 4
    },
    "sample_counts": {
      "time": 1,
      "duration": 1,
      "pitch": 1,
      "velocity": 1,
      "numerator": 1,
      "denominator": 1
    }
  },
  {
    "action": "execute_pt",
    "unit": "001",
    "bar_index": 12,
    "pt_name": "bass_clarinet_tacet_b12_1761511736914_92c6",
    "N": 1,
    "seeds": {
      "time": 11,
      "duration": 1,
      "pitch": 60,
      "velocity": 0,
      "numerator": 3,
      "denominator": 4
    },
    "sample_counts": {
      "time": 1,
      "duration": 1,
      "pitch": 1,
      "velocity": 1,
      "numerator": 1,
      "denominator": 1
    }
  },
  {
    "action": "execute_pt",
    "unit": "001",
    "bar_index": 12,
    "pt_name": "trumpet_tacet_b12_1761511736914_46d9",
    "N": 1,
    "seeds": {
      "time": 11,
      "duration": 1,
      "pitch": 60,
      "velocity": 0,
      "numerator": 3,
      "denominator": 4
    },
    "sample_counts": {
      "time": 1,
      "duration": 1,
      "pitch": 1,
      "velocity": 1,
      "numerator": 1,
      "denominator": 1
    }
  },
  {
    "action": "execute_pt",
    "unit": "001",
    "bar_index": 12,
    "pt_name": "cello_middle_b12_1761511736914_d86c",
    "N": 1,
    "seeds": {
      "time": 0,
      "duration": 12,
      "pitch": 55,
      "velocity": 46,
      "numerator": 3,
      "denominator": 4
    },
    "sample_counts": {
      "time": 1,
      "duration": 1,
      "pitch": 1,
      "velocity": 1,
      "numerator": 1,
      "denominator": 1
    }
  },
  {
    "action": "execute_pt",
    "unit": "001",
    "bar_index": 12,
    "pt_name": "double_bass_root_b12_1761511736914_655a",
    "N": 1,
    "seeds": {
      "time": 0,
      "duration": 12,
      "pitch": 51,
      "velocity": 44,
      "numerator": 3,
      "denominator": 4
    },
    "sample_counts": {
      "time": 1,
      "duration": 1,
      "pitch": 1,
      "velocity": 1,
      "numerator": 1,
      "denominator": 1
    }
  },
  {
    "action": "execute_pt",
    "unit": "001",
    "bar_index": 13,
    "pt_name": "alto_flute_tacet_b2_1761511745606_fe2c",
    "N": 1,
    "seeds": {
      "time": 11,
      "duration": 1,
      "pitch": 60,
      "velocity": 0,
      "numerator": 3,
      "denominator": 4
    },
    "sample_counts": {
      "time": 1,
      "duration": 1,
      "pitch": 1,
      "velocity": 1,
      "numerator": 1,
      "denominator": 1
    }
  },
  {
    "action": "execute_pt",
    "unit": "001",
    "bar_index": 13,
    "pt_name": "violin_upper_b2_1761511745607_f284",
    "N": 1,
    "seeds": {
      "time": 0,
      "duration": 12,
      "pitch": 65,
      "velocity": 48,
      "numerator": 3,
      "denominator": 4
    },
    "sample_counts": {
      "time": 1,
      "duration": 1,
      "pitch": 1,
      "velocity": 1,
      "numerator": 1,
      "denominator": 1
    }
  },
  {
    "action": "execute_pt",
    "unit": "001",
    "bar_index": 13,
    "pt_name": "bass_clarinet_tacet_b2_1761511745607_cf15",
    "N": 1,
    "seeds": {
      "time": 11,
      "duration": 1,
      "pitch": 60,
      "velocity": 0,
      "numerator": 3,
      "denominator": 4
    },
    "sample_counts": {
      "time": 1,
      "duration": 1,
      "pitch": 1,
      "velocity": 1,
      "numerator": 1,
      "denominator": 1
    }
  },
  {
    "action": "execute_pt",
    "unit": "001",
    "bar_index": 13,
    "pt_name": "trumpet_tacet_b2_1761511745607_6ba6",
    "N": 1,
    "seeds": {
      "time": 11,
      "duration": 1,
      "pitch": 60,
      "velocity": 0,
      "numerator": 3,
      "denominator": 4
    },
    "sample_counts": {
      "time": 1,
      "duration": 1,
      "pitch": 1,
      "velocity": 1,
      "numerator": 1,
      "denominator": 1
    }
  },
  {
    "action": "execute_pt",
    "unit": "001",
    "bar_index": 13,
    "pt_name": "cello_middle_b2_1761511745607_33fd",
    "N": 1,
    "seeds": {
      "time": 0,
      "duration": 12,
      "pitch": 55,
      "velocity": 46,
      "numerator": 3,
      "denominator": 4
    },
    "sample_counts": {
      "time": 1,
      "duration": 1,
      "pitch": 1,
      "velocity": 1,
      "numerator": 1,
      "denominator": 1
    }
  },
  {
    "action": "execute_pt",
    "unit": "001",
    "bar_index": 13,
    "pt_name": "double_bass_root_b2_1761511745607_0c8e",
    "N": 1,
    "seeds": {
      "time": 0,
      "duration": 12,
      "pitch": 51,
      "velocity": 44,
      "numerator": 3,
      "denominator": 4
    },
    "sample_counts": {
      "time": 1,
      "duration": 1,
      "pitch": 1,
      "velocity": 1,
      "numerator": 1,
      "denominator": 1
    }
  },
  {
    "action": "execute_pt",
    "unit": "001",
    "bar_index": 14,
    "pt_name": "alto_flute_tacet_b3_1761511754963_7bf4",
    "N": 1,
    "seeds": {
      "time": 11,
      "duration": 1,
      "pitch": 60,
      "velocity": 0,
      "numerator": 3,
      "denominator": 4
    },
    "sample_counts": {
      "time": 1,
      "duration": 1,
      "pitch": 1,
      "velocity": 1,
      "numerator": 1,
      "denominator": 1
    }
  },
  {
    "action": "execute_pt",
    "unit": "001",
    "bar_index": 14,
    "pt_name": "violin_upper_b3_1761511754963_9dda",
    "N": 2,
    "seeds": {
      "time": 0,
      "duration": 4,
      "pitch": 66,
      "velocity": 48,
      "numerator": 3,
      "denominator": 4
    },
    "sample_counts": {
      "time": 2,
      "duration": 2,
      "pitch": 2,
      "velocity": 2,
      "numerator": 2,
      "denominator": 2
    }
  },
  {
    "action": "execute_pt",
    "unit": "001",
    "bar_index": 14,
    "pt_name": "bass_clarinet_tacet_b3_1761511754963_7c69",
    "N": 1,
    "seeds": {
      "time": 11,
      "duration": 1,
      "pitch": 60,
      "velocity": 0,
      "numerator": 3,
      "denominator": 4
    },
    "sample_counts": {
      "time": 1,
      "duration": 1,
      "pitch": 1,
      "velocity": 1,
      "numerator": 1,
      "denominator": 1
    }
  },
  {
    "action": "execute_pt",
    "unit": "001",
    "bar_index": 14,
    "pt_name": "trumpet_tacet_b3_1761511754963_5519",
    "N": 1,
    "seeds": {
      "time": 11,
      "duration": 1,
      "pitch": 60,
      "velocity": 0,
      "numerator": 3,
      "denominator": 4
    },
    "sample_counts": {
      "time": 1,
      "duration": 1,
      "pitch": 1,
      "velocity": 1,
      "numerator": 1,
      "denominator": 1
    }
  },
  {
    "action": "execute_pt",
    "unit": "001",
    "bar_index": 14,
    "pt_name": "cello_middle_b3_1761511754963_6248",
    "N": 2,
    "seeds": {
      "time": 0,
      "duration": 4,
      "pitch": 53,
      "velocity": 46,
      "numerator": 3,
      "denominator": 4
    },
    "sample_counts": {
      "time": 2,
      "duration": 2,
      "pitch": 2,
      "velocity": 2,
      "numerator": 2,
      "denominator": 2
    }
  },
  {
    "action": "execute_pt",
    "unit": "001",
    "bar_index": 14,
    "pt_name": "double_bass_root_b3_1761511754963_c208",
    "N": 2,
    "seeds": {
      "time": 0,
      "duration": 4,
      "pitch": 48,
      "velocity": 44,
      "numerator": 3,
      "denominator": 4
    },
    "sample_counts": {
      "time": 2,
      "duration": 2,
      "pitch": 2,
      "velocity": 2,
      "numerator": 2,
      "denominator": 2
    }
  },
  {
    "action": "execute_pt",
    "unit": "001",
    "bar_index": 15,
    "pt_name": "alto_flute_tacet_b5_1761511763909_7d22",
    "N": 1,
    "seeds": {
      "time": 11,
      "duration": 1,
      "pitch": 60,
      "velocity": 0,
      "numerator": 3,
      "denominator": 4
    },
    "sample_counts": {
      "time": 1,
      "duration": 1,
      "pitch": 1,
      "velocity": 1,
      "numerator": 1,
      "denominator": 1
    }
  },
  {
    "action": "execute_pt",
    "unit": "001",
    "bar_index": 15,
    "pt_name": "violin_upper_b5_1761511763909_f451",
    "N": 1,
    "seeds": {
      "time": 0,
      "duration": 8,
      "pitch": 66,
      "velocity": 48,
      "numerator": 3,
      "denominator": 4
    },
    "sample_counts": {
      "time": 1,
      "duration": 1,
      "pitch": 1,
      "velocity": 1,
      "numerator": 1,
      "denominator": 1
    }
  },
  {
    "action": "execute_pt",
    "unit": "001",
    "bar_index": 15,
    "pt_name": "bass_clarinet_tacet_b5_1761511763909_ba55",
    "N": 1,
    "seeds": {
      "time": 11,
      "duration": 1,
      "pitch": 60,
      "velocity": 0,
      "numerator": 3,
      "denominator": 4
    },
    "sample_counts": {
      "time": 1,
      "duration": 1,
      "pitch": 1,
      "velocity": 1,
      "numerator": 1,
      "denominator": 1
    }
  },
  {
    "action": "execute_pt",
    "unit": "001",
    "bar_index": 15,
    "pt_name": "trumpet_tacet_b5_1761511763909_ec33",
    "N": 1,
    "seeds": {
      "time": 11,
      "duration": 1,
      "pitch": 60,
      "velocity": 0,
      "numerator": 3,
      "denominator": 4
    },
    "sample_counts": {
      "time": 1,
      "duration": 1,
      "pitch": 1,
      "velocity": 1,
      "numerator": 1,
      "denominator": 1
    }
  },
  {
    "action": "execute_pt",
    "unit": "001",
    "bar_index": 15,
    "pt_name": "cello_middle_b5_1761511763909_527a",
    "N": 1,
    "seeds": {
      "time": 0,
      "duration": 8,
      "pitch": 53,
      "velocity": 46,
      "numerator": 3,
      "denominator": 4
    },
    "sample_counts": {
      "time": 1,
      "duration": 1,
      "pitch": 1,
      "velocity": 1,
      "numerator": 1,
      "denominator": 1
    }
  },
  {
    "action": "execute_pt",
    "unit": "001",
    "bar_index": 15,
    "pt_name": "double_bass_root_b5_1761511763909_88a8",
    "N": 1,
    "seeds": {
      "time": 0,
      "duration": 8,
      "pitch": 50,
      "velocity": 44,
      "numerator": 3,
      "denominator": 4
    },
    "sample_counts": {
      "time": 1,
      "duration": 1,
      "pitch": 1,
      "velocity": 1,
      "numerator": 1,
      "denominator": 1
    }
  },
  {
    "action": "execute_pt",
    "unit": "001",
    "bar_index": 16,
    "pt_name": "alto_flute_tacet_b2_1761511772138_31a7",
    "N": 1,
    "seeds": {
      "time": 11,
      "duration": 1,
      "pitch": 60,
      "velocity": 0,
      "numerator": 3,
      "denominator": 4
    },
    "sample_counts": {
      "time": 1,
      "duration": 1,
      "pitch": 1,
      "velocity": 1,
      "numerator": 1,
      "denominator": 1
    }
  },
  {
    "action": "execute_pt",
    "unit": "001",
    "bar_index": 16,
    "pt_name": "violin_upper_b2_1761511772138_0229",
    "N": 2,
    "seeds": {
      "time": 0,
      "duration": 8,
      "pitch": 64,
      "velocity": 48,
      "numerator": 3,
      "denominator": 4
    },
    "sample_counts": {
      "time": 2,
      "duration": 2,
      "pitch": 2,
      "velocity": 2,
      "numerator": 2,
      "denominator": 2
    }
  },
  {
    "action": "execute_pt",
    "unit": "001",
    "bar_index": 16,
    "pt_name": "bass_clarinet_tacet_b2_1761511772138_d835",
    "N": 1,
    "seeds": {
      "time": 11,
      "duration": 1,
      "pitch": 60,
      "velocity": 0,
      "numerator": 3,
      "denominator": 4
    },
    "sample_counts": {
      "time": 1,
      "duration": 1,
      "pitch": 1,
      "velocity": 1,
      "numerator": 1,
      "denominator": 1
    }
  },
  {
    "action": "execute_pt",
    "unit": "001",
    "bar_index": 16,
    "pt_name": "trumpet_tacet_b2_1761511772138_a59b",
    "N": 1,
    "seeds": {
      "time": 11,
      "duration": 1,
      "pitch": 60,
      "velocity": 0,
      "numerator": 3,
      "denominator": 4
    },
    "sample_counts": {
      "time": 1,
      "duration": 1,
      "pitch": 1,
      "velocity": 1,
      "numerator": 1,
      "denominator": 1
    }
  },
  {
    "action": "execute_pt",
    "unit": "001",
    "bar_index": 16,
    "pt_name": "cello_middle_b2_1761511772138_7a01",
    "N": 2,
    "seeds": {
      "time": 0,
      "duration": 8,
      "pitch": 57,
      "velocity": 46,
      "numerator": 3,
      "denominator": 4
    },
    "sample_counts": {
      "time": 2,
      "duration": 2,
      "pitch": 2,
      "velocity": 2,
      "numerator": 2,
      "denominator": 2
    }
  },
  {
    "action": "execute_pt",
    "unit": "001",
    "bar_index": 16,
    "pt_name": "double_bass_root_b2_1761511772138_10ad",
    "N": 2,
    "seeds": {
      "time": 0,
      "duration": 8,
      "pitch": 53,
      "velocity": 44,
      "numerator": 3,
      "denominator": 4
    },
    "sample_counts": {
      "time": 2,
      "duration": 2,
      "pitch": 2,
      "velocity": 2,
      "numerator": 2,
      "denominator": 2
    }
  },
  {
    "action": "execute_pt",
    "unit": "001",
    "bar_index": 17,
    "pt_name": "alto_flute_tacet_b4_1761511780272_bc6a",
    "N": 1,
    "seeds": {
      "time": 11,
      "duration": 1,
      "pitch": 60,
      "velocity": 0,
      "numerator": 3,
      "denominator": 4
    },
    "sample_counts": {
      "time": 1,
      "duration": 1,
      "pitch": 1,
      "velocity": 1,
      "numerator": 1,
      "denominator": 1
    }
  },
  {
    "action": "execute_pt",
    "unit": "001",
    "bar_index": 17,
    "pt_name": "violin_upper_b4_1761511780272_4cc1",
    "N": 1,
    "seeds": {
      "time": 0,
      "duration": 8,
      "pitch": 61,
      "velocity": 48,
      "numerator": 3,
      "denominator": 4
    },
    "sample_counts": {
      "time": 1,
      "duration": 1,
      "pitch": 1,
      "velocity": 1,
      "numerator": 1,
      "denominator": 1
    }
  },
  {
    "action": "execute_pt",
    "unit": "001",
    "bar_index": 17,
    "pt_name": "bass_clarinet_tacet_b4_1761511780272_520a",
    "N": 1,
    "seeds": {
      "time": 11,
      "duration": 1,
      "pitch": 60,
      "velocity": 0,
      "numerator": 3,
      "denominator": 4
    },
    "sample_counts": {
      "time": 1,
      "duration": 1,
      "pitch": 1,
      "velocity": 1,
      "numerator": 1,
      "denominator": 1
    }
  },
  {
    "action": "execute_pt",
    "unit": "001",
    "bar_index": 17,
    "pt_name": "trumpet_tacet_b4_1761511780272_003b",
    "N": 1,
    "seeds": {
      "time": 11,
      "duration": 1,
      "pitch": 60,
      "velocity": 0,
      "numerator": 3,
      "denominator": 4
    },
    "sample_counts": {
      "time": 1,
      "duration": 1,
      "pitch": 1,
      "velocity": 1,
      "numerator": 1,
      "denominator": 1
    }
  },
  {
    "action": "execute_pt",
    "unit": "001",
    "bar_index": 17,
    "pt_name": "cello_middle_b4_1761511780272_259f",
    "N": 1,
    "seeds": {
      "time": 0,
      "duration": 8,
      "pitch": 57,
      "velocity": 46,
      "numerator": 3,
      "denominator": 4
    },
    "sample_counts": {
      "time": 1,
      "duration": 1,
      "pitch": 1,
      "velocity": 1,
      "numerator": 1,
      "denominator": 1
    }
  },
  {
    "action": "execute_pt",
    "unit": "001",
    "bar_index": 17,
    "pt_name": "double_bass_root_b4_1761511780272_8b0e",
    "N": 1,
    "seeds": {
      "time": 0,
      "duration": 8,
      "pitch": 54,
      "velocity": 44,
      "numerator": 3,
      "denominator": 4
    },
    "sample_counts": {
      "time": 1,
      "duration": 1,
      "pitch": 1,
      "velocity": 1,
      "numerator": 1,
      "denominator": 1
    }
  },
  {
    "action": "execute_pt",
    "unit": "001",
    "bar_index": 18,
    "pt_name": "alto_flute_tacet_b1_1761511788075_03f9",
    "N": 1,
    "seeds": {
      "time": 11,
      "duration": 1,
      "pitch": 60,
      "velocity": 0,
      "numerator": 3,
      "denominator": 4
    },
    "sample_counts": {
      "time": 1,
      "duration": 1,
      "pitch": 1,
      "velocity": 1,
      "numerator": 1,
      "denominator": 1
    }
  },
  {
    "action": "execute_pt",
    "unit": "001",
    "bar_index": 18,
    "pt_name": "violin_upper_b1_1761511788075_c544",
    "N": 2,
    "seeds": {
      "time": 0,
      "duration": 4,
      "pitch": 66,
      "velocity": 47,
      "numerator": 3,
      "denominator": 4
    },
    "sample_counts": {
      "time": 2,
      "duration": 2,
      "pitch": 2,
      "velocity": 2,
      "numerator": 2,
      "denominator": 2
    }
  },
  {
    "action": "execute_pt",
    "unit": "001",
    "bar_index": 18,
    "pt_name": "bass_clarinet_tacet_b1_1761511788075_1715",
    "N": 1,
    "seeds": {
      "time": 11,
      "duration": 1,
      "pitch": 60,
      "velocity": 0,
      "numerator": 3,
      "denominator": 4
    },
    "sample_counts": {
      "time": 1,
      "duration": 1,
      "pitch": 1,
      "velocity": 1,
      "numerator": 1,
      "denominator": 1
    }
  },
  {
    "action": "execute_pt",
    "unit": "001",
    "bar_index": 18,
    "pt_name": "trumpet_tacet_b1_1761511788075_0f67",
    "N": 1,
    "seeds": {
      "time": 11,
      "duration": 1,
      "pitch": 60,
      "velocity": 0,
      "numerator": 3,
      "denominator": 4
    },
    "sample_counts": {
      "time": 1,
      "duration": 1,
      "pitch": 1,
      "velocity": 1,
      "numerator": 1,
      "denominator": 1
    }
  },
  {
    "action": "execute_pt",
    "unit": "001",
    "bar_index": 18,
    "pt_name": "cello_middle_b1_1761511788075_831c",
    "N": 2,
    "seeds": {
      "time": 0,
      "duration": 4,
      "pitch": 57,
      "velocity": 45,
      "numerator": 3,
      "denominator": 4
    },
    "sample_counts": {
      "time": 2,
      "duration": 2,
      "pitch": 2,
      "velocity": 2,
      "numerator": 2,
      "denominator": 2
    }
  },
  {
    "action": "execute_pt",
    "unit": "001",
    "bar_index": 18,
    "pt_name": "double_bass_root_b1_1761511788075_f295",
    "N": 2,
    "seeds": {
      "time": 0,
      "duration": 4,
      "pitch": 51,
      "velocity": 43,
      "numerator": 3,
      "denominator": 4
    },
    "sample_counts": {
      "time": 2,
      "duration": 2,
      "pitch": 2,
      "velocity": 2,
      "numerator": 2,
      "denominator": 2
    }
  },
  {
    "action": "execute_pt",
    "unit": "002",
    "bar_index": 1,
    "pt_name": "alto_flute_winds_b13_1761512142662_2030",
    "N": 2,
    "seeds": {
      "time": 0,
      "duration": 4,
      "pitch": 74,
      "velocity": 52,
      "numerator": 3,
      "denominator": 4
    },
    "sample_counts": {
      "time": 2,
      "duration": 2,
      "pitch": 2,
      "velocity": 2,
      "numerator": 2,
      "denominator": 2
    }
  },
  {
    "action": "execute_pt",
    "unit": "002",
    "bar_index": 1,
    "pt_name": "bass_clarinet_winds_b13_1761512142662_7f30",
    "N": 2,
    "seeds": {
      "time": 0,
      "duration": 4,
      "pitch": 57,
      "velocity": 48,
      "numerator": 3,
      "denominator": 4
    },
    "sample_counts": {
      "time": 2,
      "duration": 2,
      "pitch": 2,
      "velocity": 2,
      "numerator": 2,
      "denominator": 2
    }
  },
  {
    "action": "execute_pt",
    "unit": "002",
    "bar_index": 1,
    "pt_name": "trumpet_winds_b13_1761512142662_9ea6",
    "N": 2,
    "seeds": {
      "time": 0,
      "duration": 4,
      "pitch": 66,
      "velocity": 54,
      "numerator": 3,
      "denominator": 4
    },
    "sample_counts": {
      "time": 2,
      "duration": 2,
      "pitch": 2,
      "velocity": 2,
      "numerator": 2,
      "denominator": 2
    }
  },
  {
    "action": "execute_pt",
    "unit": "002",
    "bar_index": 1,
    "pt_name": "violin_upper_b13_1761512142662_131d",
    "N": 1,
    "seeds": {
      "time": 0,
      "duration": 12,
      "pitch": 65,
      "velocity": 48,
      "numerator": 3,
      "denominator": 4
    },
    "sample_counts": {
      "time": 1,
      "duration": 1,
      "pitch": 1,
      "velocity": 1,
      "numerator": 1,
      "denominator": 1
    }
  },
  {
    "action": "execute_pt",
    "unit": "002",
    "bar_index": 1,
    "pt_name": "cello_middle_b13_1761512142662_781b",
    "N": 1,
    "seeds": {
      "time": 0,
      "duration": 12,
      "pitch": 55,
      "velocity": 46,
      "numerator": 3,
      "denominator": 4
    },
    "sample_counts": {
      "time": 1,
      "duration": 1,
      "pitch": 1,
      "velocity": 1,
      "numerator": 1,
      "denominator": 1
    }
  },
  {
    "action": "execute_pt",
    "unit": "002",
    "bar_index": 1,
    "pt_name": "double_bass_root_b13_1761512142662_20fb",
    "N": 1,
    "seeds": {
      "time": 0,
      "duration": 12,
      "pitch": 51,
      "velocity": 44,
      "numerator": 3,
      "denominator": 4
    },
    "sample_counts": {
      "time": 1,
      "duration": 1,
      "pitch": 1,
      "velocity": 1,
      "numerator": 1,
      "denominator": 1
    }
  },
  {
    "action": "execute_pt",
    "unit": "002",
    "bar_index": 2,
    "pt_name": "alto_flute_winds_b14_1761512150266_ee9c",
    "N": 2,
    "seeds": {
      "time": 0,
      "duration": 8,
      "pitch": 73,
      "velocity": 52,
      "numerator": 3,
      "denominator": 4
    },
    "sample_counts": {
      "time": 2,
      "duration": 2,
      "pitch": 2,
      "velocity": 2,
      "numerator": 2,
      "denominator": 2
    }
  },
  {
    "action": "execute_pt",
    "unit": "002",
    "bar_index": 2,
    "pt_name": "bass_clarinet_winds_b14_1761512150266_4a32",
    "N": 2,
    "seeds": {
      "time": 0,
      "duration": 8,
      "pitch": 59,
      "velocity": 48,
      "numerator": 3,
      "denominator": 4
    },
    "sample_counts": {
      "time": 2,
      "duration": 2,
      "pitch": 2,
      "velocity": 2,
      "numerator": 2,
      "denominator": 2
    }
  },
  {
    "action": "execute_pt",
    "unit": "002",
    "bar_index": 2,
    "pt_name": "trumpet_winds_b14_1761512150266_c3e8",
    "N": 2,
    "seeds": {
      "time": 0,
      "duration": 8,
      "pitch": 67,
      "velocity": 54,
      "numerator": 3,
      "denominator": 4
    },
    "sample_counts": {
      "time": 2,
      "duration": 2,
      "pitch": 2,
      "velocity": 2,
      "numerator": 2,
      "denominator": 2
    }
  },
  {
    "action": "execute_pt",
    "unit": "002",
    "bar_index": 2,
    "pt_name": "violin_upper_b14_1761512150266_25ef",
    "N": 2,
    "seeds": {
      "time": 0,
      "duration": 8,
      "pitch": 64,
      "velocity": 48,
      "numerator": 3,
      "denominator": 4
    },
    "sample_counts": {
      "time": 2,
      "duration": 2,
      "pitch": 2,
      "velocity": 2,
      "numerator": 2,
      "denominator": 2
    }
  },
  {
    "action": "execute_pt",
    "unit": "002",
    "bar_index": 2,
    "pt_name": "cello_middle_b14_1761512150266_78d5",
    "N": 2,
    "seeds": {
      "time": 0,
      "duration": 8,
      "pitch": 52,
      "velocity": 46,
      "numerator": 3,
      "denominator": 4
    },
    "sample_counts": {
      "time": 2,
      "duration": 2,
      "pitch": 2,
      "velocity": 2,
      "numerator": 2,
      "denominator": 2
    }
  },
  {
    "action": "execute_pt",
    "unit": "002",
    "bar_index": 2,
    "pt_name": "double_bass_root_b14_1761512150266_5266",
    "N": 2,
    "seeds": {
      "time": 0,
      "duration": 8,
      "pitch": 45,
      "velocity": 44,
      "numerator": 3,
      "denominator": 4
    },
    "sample_counts": {
      "time": 2,
      "duration": 2,
      "pitch": 2,
      "velocity": 2,
      "numerator": 2,
      "denominator": 2
    }
  },
  {
    "action": "execute_pt",
    "unit": "002",
    "bar_index": 3,
    "pt_name": "alto_flute_winds_b15_1761512158217_3415",
    "N": 1,
    "seeds": {
      "time": 0,
      "duration": 12,
      "pitch": 76,
      "velocity": 50,
      "numerator": 3,
      "denominator": 4
    },
    "sample_counts": {
      "time": 1,
      "duration": 1,
      "pitch": 1,
      "velocity": 1,
      "numerator": 1,
      "denominator": 1
    }
  },
  {
    "action": "execute_pt",
    "unit": "002",
    "bar_index": 3,
    "pt_name": "bass_clarinet_winds_b15_1761512158217_d383",
    "N": 1,
    "seeds": {
      "time": 0,
      "duration": 12,
      "pitch": 62,
      "velocity": 46,
      "numerator": 3,
      "denominator": 4
    },
    "sample_counts": {
      "time": 1,
      "duration": 1,
      "pitch": 1,
      "velocity": 1,
      "numerator": 1,
      "denominator": 1
    }
  },
  {
    "action": "execute_pt",
    "unit": "002",
    "bar_index": 3,
    "pt_name": "trumpet_winds_b15_1761512158217_bc69",
    "N": 1,
    "seeds": {
      "time": 0,
      "duration": 12,
      "pitch": 69,
      "velocity": 52,
      "numerator": 3,
      "denominator": 4
    },
    "sample_counts": {
      "time": 1,
      "duration": 1,
      "pitch": 1,
      "velocity": 1,
      "numerator": 1,
      "denominator": 1
    }
  },
  {
    "action": "execute_pt",
    "unit": "002",
    "bar_index": 3,
    "pt_name": "violin_upper_b15_1761512158217_1c93",
    "N": 2,
    "seeds": {
      "time": 0,
      "duration": 4,
      "pitch": 67,
      "velocity": 48,
      "numerator": 3,
      "denominator": 4
    },
    "sample_counts": {
      "time": 2,
      "duration": 2,
      "pitch": 2,
      "velocity": 2,
      "numerator": 2,
      "denominator": 2
    }
  },
  {
    "action": "execute_pt",
    "unit": "002",
    "bar_index": 3,
    "pt_name": "cello_middle_b15_1761512158217_e9ce",
    "N": 2,
    "seeds": {
      "time": 0,
      "duration": 4,
      "pitch": 55,
      "velocity": 46,
      "numerator": 3,
      "denominator": 4
    },
    "sample_counts": {
      "time": 2,
      "duration": 2,
      "pitch": 2,
      "velocity": 2,
      "numerator": 2,
      "denominator": 2
    }
  },
  {
    "action": "execute_pt",
    "unit": "002",
    "bar_index": 3,
    "pt_name": "double_bass_root_b15_1761512158217_9455",
    "N": 2,
    "seeds": {
      "time": 0,
      "duration": 4,
      "pitch": 48,
      "velocity": 44,
      "numerator": 3,
      "denominator": 4
    },
    "sample_counts": {
      "time": 2,
      "duration": 2,
      "pitch": 2,
      "velocity": 2,
      "numerator": 2,
      "denominator": 2
    }
  },
  {
    "action": "execute_pt",
    "unit": "002",
    "bar_index": 4,
    "pt_name": "alto_flute_winds_b16_1761512166312_04c8",
    "N": 1,
    "seeds": {
      "time": 0,
      "duration": 8,
      "pitch": 76,
      "velocity": 50,
      "numerator": 3,
      "denominator": 4
    },
    "sample_counts": {
      "time": 1,
      "duration": 1,
      "pitch": 1,
      "velocity": 1,
      "numerator": 1,
      "denominator": 1
    }
  },
  {
    "action": "execute_pt",
    "unit": "002",
    "bar_index": 4,
    "pt_name": "bass_clarinet_winds_b16_1761512166312_8d4c",
    "N": 1,
    "seeds": {
      "time": 0,
      "duration": 8,
      "pitch": 60,
      "velocity": 46,
      "numerator": 3,
      "denominator": 4
    },
    "sample_counts": {
      "time": 1,
      "duration": 1,
      "pitch": 1,
      "velocity": 1,
      "numerator": 1,
      "denominator": 1
    }
  },
  {
    "action": "execute_pt",
    "unit": "002",
    "bar_index": 4,
    "pt_name": "trumpet_winds_b16_1761512166312_f32a",
    "N": 1,
    "seeds": {
      "time": 0,
      "duration": 8,
      "pitch": 68,
      "velocity": 52,
      "numerator": 3,
      "denominator": 4
    },
    "sample_counts": {
      "time": 1,
      "duration": 1,
      "pitch": 1,
      "velocity": 1,
      "numerator": 1,
      "denominator": 1
    }
  },
  {
    "action": "execute_pt",
    "unit": "002",
    "bar_index": 4,
    "pt_name": "violin_upper_b16_1761512166312_133f",
    "N": 1,
    "seeds": {
      "time": 0,
      "duration": 8,
      "pitch": 61,
      "velocity": 48,
      "numerator": 3,
      "denominator": 4
    },
    "sample_counts": {
      "time": 1,
      "duration": 1,
      "pitch": 1,
      "velocity": 1,
      "numerator": 1,
      "denominator": 1
    }
  },
  {
    "action": "execute_pt",
    "unit": "002",
    "bar_index": 4,
    "pt_name": "cello_middle_b16_1761512166312_78cd",
    "N": 1,
    "seeds": {
      "time": 0,
      "duration": 8,
      "pitch": 57,
      "velocity": 46,
      "numerator": 3,
      "denominator": 4
    },
    "sample_counts": {
      "time": 1,
      "duration": 1,
      "pitch": 1,
      "velocity": 1,
      "numerator": 1,
      "denominator": 1
    }
  },
  {
    "action": "execute_pt",
    "unit": "002",
    "bar_index": 4,
    "pt_name": "double_bass_root_b16_1761512166313_390f",
    "N": 1,
    "seeds": {
      "time": 0,
      "duration": 8,
      "pitch": 54,
      "velocity": 44,
      "numerator": 3,
      "denominator": 4
    },
    "sample_counts": {
      "time": 1,
      "duration": 1,
      "pitch": 1,
      "velocity": 1,
      "numerator": 1,
      "denominator": 1
    }
  },
  {
    "action": "execute_pt",
    "unit": "002",
    "bar_index": 5,
    "pt_name": "alto_flute_winds_b17_1761512174357_a77e",
    "N": 1,
    "seeds": {
      "time": 4,
      "duration": 8,
      "pitch": 77,
      "velocity": 51,
      "numerator": 3,
      "denominator": 4
    },
    "sample_counts": {
      "time": 1,
      "duration": 1,
      "pitch": 1,
      "velocity": 1,
      "numerator": 1,
      "denominator": 1
    }
  },
  {
    "action": "execute_pt",
    "unit": "002",
    "bar_index": 5,
    "pt_name": "bass_clarinet_winds_b17_1761512174357_3fa7",
    "N": 1,
    "seeds": {
      "time": 4,
      "duration": 8,
      "pitch": 61,
      "velocity": 47,
      "numerator": 3,
      "denominator": 4
    },
    "sample_counts": {
      "time": 1,
      "duration": 1,
      "pitch": 1,
      "velocity": 1,
      "numerator": 1,
      "denominator": 1
    }
  },
  {
    "action": "execute_pt",
    "unit": "002",
    "bar_index": 5,
    "pt_name": "trumpet_winds_b17_1761512174357_078d",
    "N": 1,
    "seeds": {
      "time": 4,
      "duration": 8,
      "pitch": 70,
      "velocity": 53,
      "numerator": 3,
      "denominator": 4
    },
    "sample_counts": {
      "time": 1,
      "duration": 1,
      "pitch": 1,
      "velocity": 1,
      "numerator": 1,
      "denominator": 1
    }
  },
  {
    "action": "execute_pt",
    "unit": "002",
    "bar_index": 5,
    "pt_name": "violin_upper_b17_1761512174357_ecdb",
    "N": 1,
    "seeds": {
      "time": 0,
      "duration": 12,
      "pitch": 74,
      "velocity": 48,
      "numerator": 3,
      "denominator": 4
    },
    "sample_counts": {
      "time": 1,
      "duration": 1,
      "pitch": 1,
      "velocity": 1,
      "numerator": 1,
      "denominator": 1
    }
  },
  {
    "action": "execute_pt",
    "unit": "002",
    "bar_index": 5,
    "pt_name": "cello_middle_b17_1761512174357_d4d4",
    "N": 1,
    "seeds": {
      "time": 0,
      "duration": 12,
      "pitch": 56,
      "velocity": 46,
      "numerator": 3,
      "denominator": 4
    },
    "sample_counts": {
      "time": 1,
      "duration": 1,
      "pitch": 1,
      "velocity": 1,
      "numerator": 1,
      "denominator": 1
    }
  },
  {
    "action": "execute_pt",
    "unit": "002",
    "bar_index": 5,
    "pt_name": "double_bass_root_b17_1761512174357_9316",
    "N": 1,
    "seeds": {
      "time": 0,
      "duration": 12,
      "pitch": 52,
      "velocity": 44,
      "numerator": 3,
      "denominator": 4
    },
    "sample_counts": {
      "time": 1,
      "duration": 1,
      "pitch": 1,
      "velocity": 1,
      "numerator": 1,
      "denominator": 1
    }
  },
  {
    "action": "execute_pt",
    "unit": "002",
    "bar_index": 6,
    "pt_name": "alto_flute_winds_b18_1761512182274_1b9b",
    "N": 2,
    "seeds": {
      "time": 0,
      "duration": 4,
      "pitch": 75,
      "velocity": 51,
      "numerator": 3,
      "denominator": 4
    },
    "sample_counts": {
      "time": 2,
      "duration": 2,
      "pitch": 2,
      "velocity": 2,
      "numerator": 2,
      "denominator": 2
    }
  },
  {
    "action": "execute_pt",
    "unit": "002",
    "bar_index": 6,
    "pt_name": "bass_clarinet_winds_b18_1761512182274_2402",
    "N": 2,
    "seeds": {
      "time": 0,
      "duration": 4,
      "pitch": 63,
      "velocity": 47,
      "numerator": 3,
      "denominator": 4
    },
    "sample_counts": {
      "time": 2,
      "duration": 2,
      "pitch": 2,
      "velocity": 2,
      "numerator": 2,
      "denominator": 2
    }
  },
  {
    "action": "execute_pt",
    "unit": "002",
    "bar_index": 6,
    "pt_name": "trumpet_winds_b18_1761512182274_4c7e",
    "N": 2,
    "seeds": {
      "time": 0,
      "duration": 4,
      "pitch": 69,
      "velocity": 53,
      "numerator": 3,
      "denominator": 4
    },
    "sample_counts": {
      "time": 2,
      "duration": 2,
      "pitch": 2,
      "velocity": 2,
      "numerator": 2,
      "denominator": 2
    }
  },
  {
    "action": "execute_pt",
    "unit": "002",
    "bar_index": 6,
    "pt_name": "violin_upper_b18_1761512182274_de92",
    "N": 2,
    "seeds": {
      "time": 0,
      "duration": 4,
      "pitch": 72,
      "velocity": 48,
      "numerator": 3,
      "denominator": 4
    },
    "sample_counts": {
      "time": 2,
      "duration": 2,
      "pitch": 2,
      "velocity": 2,
      "numerator": 2,
      "denominator": 2
    }
  },
  {
    "action": "execute_pt",
    "unit": "002",
    "bar_index": 6,
    "pt_name": "cello_middle_b18_1761512182274_91aa",
    "N": 2,
    "seeds": {
      "time": 0,
      "duration": 4,
      "pitch": 59,
      "velocity": 46,
      "numerator": 3,
      "denominator": 4
    },
    "sample_counts": {
      "time": 2,
      "duration": 2,
      "pitch": 2,
      "velocity": 2,
      "numerator": 2,
      "denominator": 2
    }
  },
  {
    "action": "execute_pt",
    "unit": "002",
    "bar_index": 6,
    "pt_name": "double_bass_root_b18_1761512182274_96b6",
    "N": 2,
    "seeds": {
      "time": 0,
      "duration": 4,
      "pitch": 55,
      "velocity": 44,
      "numerator": 3,
      "denominator": 4
    },
    "sample_counts": {
      "time": 2,
      "duration": 2,
      "pitch": 2,
      "velocity": 2,
      "numerator": 2,
      "denominator": 2
    }
  },
  {
    "action": "execute_pt",
    "unit": "002",
    "bar_index": 7,
    "pt_name": "alto_flute_winds_b19_1761512190345_4bd0",
    "N": 2,
    "seeds": {
      "time": 0,
      "duration": 8,
      "pitch": 76,
      "velocity": 51,
      "numerator": 3,
      "denominator": 4
    },
    "sample_counts": {
      "time": 2,
      "duration": 2,
      "pitch": 2,
      "velocity": 2,
      "numerator": 2,
      "denominator": 2
    }
  },
  {
    "action": "execute_pt",
    "unit": "002",
    "bar_index": 7,
    "pt_name": "bass_clarinet_winds_b19_1761512190345_bdea",
    "N": 2,
    "seeds": {
      "time": 0,
      "duration": 8,
      "pitch": 62,
      "velocity": 47,
      "numerator": 3,
      "denominator": 4
    },
    "sample_counts": {
      "time": 2,
      "duration": 2,
      "pitch": 2,
      "velocity": 2,
      "numerator": 2,
      "denominator": 2
    }
  },
  {
    "action": "execute_pt",
    "unit": "002",
    "bar_index": 7,
    "pt_name": "trumpet_winds_b19_1761512190345_48d6",
    "N": 2,
    "seeds": {
      "time": 0,
      "duration": 8,
      "pitch": 70,
      "velocity": 53,
      "numerator": 3,
      "denominator": 4
    },
    "sample_counts": {
      "time": 2,
      "duration": 2,
      "pitch": 2,
      "velocity": 2,
      "numerator": 2,
      "denominator": 2
    }
  },
  {
    "action": "execute_pt",
    "unit": "002",
    "bar_index": 7,
    "pt_name": "violin_upper_b19_1761512190345_3066",
    "N": 1,
    "seeds": {
      "time": 4,
      "duration": 8,
      "pitch": 71,
      "velocity": 48,
      "numerator": 3,
      "denominator": 4
    },
    "sample_counts": {
      "time": 1,
      "duration": 1,
      "pitch": 1,
      "velocity": 1,
      "numerator": 1,
      "denominator": 1
    }
  },
  {
    "action": "execute_pt",
    "unit": "002",
    "bar_index": 7,
    "pt_name": "cello_middle_b19_1761512190345_44fb",
    "N": 1,
    "seeds": {
      "time": 4,
      "duration": 8,
      "pitch": 52,
      "velocity": 46,
      "numerator": 3,
      "denominator": 4
    },
    "sample_counts": {
      "time": 1,
      "duration": 1,
      "pitch": 1,
      "velocity": 1,
      "numerator": 1,
      "denominator": 1
    }
  },
  {
    "action": "execute_pt",
    "unit": "002",
    "bar_index": 7,
    "pt_name": "double_bass_root_b19_1761512190345_9934",
    "N": 1,
    "seeds": {
      "time": 4,
      "duration": 8,
      "pitch": 49,
      "velocity": 44,
      "numerator": 3,
      "denominator": 4
    },
    "sample_counts": {
      "time": 1,
      "duration": 1,
      "pitch": 1,
      "velocity": 1,
      "numerator": 1,
      "denominator": 1
    }
  },
  {
    "action": "execute_pt",
    "unit": "002",
    "bar_index": 8,
    "pt_name": "alto_flute_winds_b20_1761512198070_69ed",
    "N": 1,
    "seeds": {
      "time": 0,
      "duration": 8,
      "pitch": 74,
      "velocity": 50,
      "numerator": 3,
      "denominator": 4
    },
    "sample_counts": {
      "time": 1,
      "duration": 1,
      "pitch": 1,
      "velocity": 1,
      "numerator": 1,
      "denominator": 1
    }
  },
  {
    "action": "execute_pt",
    "unit": "002",
    "bar_index": 8,
    "pt_name": "bass_clarinet_winds_b20_1761512198070_0da7",
    "N": 1,
    "seeds": {
      "time": 0,
      "duration": 8,
      "pitch": 60,
      "velocity": 46,
      "numerator": 3,
      "denominator": 4
    },
    "sample_counts": {
      "time": 1,
      "duration": 1,
      "pitch": 1,
      "velocity": 1,
      "numerator": 1,
      "denominator": 1
    }
  },
  {
    "action": "execute_pt",
    "unit": "002",
    "bar_index": 8,
    "pt_name": "trumpet_winds_b20_1761512198070_86ca",
    "N": 1,
    "seeds": {
      "time": 0,
      "duration": 8,
      "pitch": 68,
      "velocity": 52,
      "numerator": 3,
      "denominator": 4
    },
    "sample_counts": {
      "time": 1,
      "duration": 1,
      "pitch": 1,
      "velocity": 1,
      "numerator": 1,
      "denominator": 1
    }
  },
  {
    "action": "execute_pt",
    "unit": "002",
    "bar_index": 8,
    "pt_name": "violin_upper_b20_1761512198070_693b",
    "N": 2,
    "seeds": {
      "time": 0,
      "duration": 8,
      "pitch": 64,
      "velocity": 47,
      "numerator": 3,
      "denominator": 4
    },
    "sample_counts": {
      "time": 2,
      "duration": 2,
      "pitch": 2,
      "velocity": 2,
      "numerator": 2,
      "denominator": 2
    }
  },
  {
    "action": "execute_pt",
    "unit": "002",
    "bar_index": 8,
    "pt_name": "cello_middle_b20_1761512198070_84e7",
    "N": 2,
    "seeds": {
      "time": 0,
      "duration": 8,
      "pitch": 57,
      "velocity": 45,
      "numerator": 3,
      "denominator": 4
    },
    "sample_counts": {
      "time": 2,
      "duration": 2,
      "pitch": 2,
      "velocity": 2,
      "numerator": 2,
      "denominator": 2
    }
  },
  {
    "action": "execute_pt",
    "unit": "002",
    "bar_index": 8,
    "pt_name": "double_bass_root_b20_1761512198070_a3a1",
    "N": 2,
    "seeds": {
      "time": 0,
      "duration": 8,
      "pitch": 53,
      "velocity": 43,
      "numerator": 3,
      "denominator": 4
    },
    "sample_counts": {
      "time": 2,
      "duration": 2,
      "pitch": 2,
      "velocity": 2,
      "numerator": 2,
      "denominator": 2
    }
  },
  {
    "action": "execute_pt",
    "unit": "002",
    "bar_index": 9,
    "pt_name": "alto_flute_winds_b21_1761512205456_e2a4",
    "N": 1,
    "seeds": {
      "time": 0,
      "duration": 12,
      "pitch": 73,
      "velocity": 48,
      "numerator": 3,
      "denominator": 4
    },
    "sample_counts": {
      "time": 1,
      "duration": 1,
      "pitch": 1,
      "velocity": 1,
      "numerator": 1,
      "denominator": 1
    }
  },
  {
    "action": "execute_pt",
    "unit": "002",
    "bar_index": 9,
    "pt_name": "bass_clarinet_winds_b21_1761512205456_fe10",
    "N": 1,
    "seeds": {
      "time": 0,
      "duration": 12,
      "pitch": 59,
      "velocity": 44,
      "numerator": 3,
      "denominator": 4
    },
    "sample_counts": {
      "time": 1,
      "duration": 1,
      "pitch": 1,
      "velocity": 1,
      "numerator": 1,
      "denominator": 1
    }
  },
  {
    "action": "execute_pt",
    "unit": "002",
    "bar_index": 9,
    "pt_name": "trumpet_winds_b21_1761512205456_8a1e",
    "N": 1,
    "seeds": {
      "time": 0,
      "duration": 12,
      "pitch": 67,
      "velocity": 50,
      "numerator": 3,
      "denominator": 4
    },
    "sample_counts": {
      "time": 1,
      "duration": 1,
      "pitch": 1,
      "velocity": 1,
      "numerator": 1,
      "denominator": 1
    }
  },
  {
    "action": "execute_pt",
    "unit": "002",
    "bar_index": 9,
    "pt_name": "violin_upper_b21_1761512205456_8b1e",
    "N": 1,
    "seeds": {
      "time": 4,
      "duration": 8,
      "pitch": 69,
      "velocity": 48,
      "numerator": 3,
      "denominator": 4
    },
    "sample_counts": {
      "time": 1,
      "duration": 1,
      "pitch": 1,
      "velocity": 1,
      "numerator": 1,
      "denominator": 1
    }
  },
  {
    "action": "execute_pt",
    "unit": "002",
    "bar_index": 9,
    "pt_name": "cello_middle_b21_1761512205456_d9ce",
    "N": 1,
    "seeds": {
      "time": 4,
      "duration": 8,
      "pitch": 51,
      "velocity": 46,
      "numerator": 3,
      "denominator": 4
    },
    "sample_counts": {
      "time": 1,
      "duration": 1,
      "pitch": 1,
      "velocity": 1,
      "numerator": 1,
      "denominator": 1
    }
  },
  {
    "action": "execute_pt",
    "unit": "002",
    "bar_index": 9,
    "pt_name": "double_bass_root_b21_1761512205456_ea7e",
    "N": 1,
    "seeds": {
      "time": 4,
      "duration": 8,
      "pitch": 47,
      "velocity": 44,
      "numerator": 3,
      "denominator": 4
    },
    "sample_counts": {
      "time": 1,
      "duration": 1,
      "pitch": 1,
      "velocity": 1,
      "numerator": 1,
      "denominator": 1
    }
  },
  {
    "action": "execute_pt",
    "unit": "002",
    "bar_index": 10,
    "pt_name": "alto_flute_winds_b22_1761512213385_3459",
    "N": 2,
    "seeds": {
      "time": 0,
      "duration": 4,
      "pitch": 71,
      "velocity": 50,
      "numerator": 3,
      "denominator": 4
    },
    "sample_counts": {
      "time": 2,
      "duration": 2,
      "pitch": 2,
      "velocity": 2,
      "numerator": 2,
      "denominator": 2
    }
  },
  {
    "action": "execute_pt",
    "unit": "002",
    "bar_index": 10,
    "pt_name": "bass_clarinet_winds_b22_1761512213385_c887",
    "N": 2,
    "seeds": {
      "time": 0,
      "duration": 4,
      "pitch": 57,
      "velocity": 46,
      "numerator": 3,
      "denominator": 4
    },
    "sample_counts": {
      "time": 2,
      "duration": 2,
      "pitch": 2,
      "velocity": 2,
      "numerator": 2,
      "denominator": 2
    }
  },
  {
    "action": "execute_pt",
    "unit": "002",
    "bar_index": 10,
    "pt_name": "trumpet_winds_b22_1761512213385_8bbc",
    "N": 2,
    "seeds": {
      "time": 0,
      "duration": 4,
      "pitch": 66,
      "velocity": 52,
      "numerator": 3,
      "denominator": 4
    },
    "sample_counts": {
      "time": 2,
      "duration": 2,
      "pitch": 2,
      "velocity": 2,
      "numerator": 2,
      "denominator": 2
    }
  },
  {
    "action": "execute_pt",
    "unit": "002",
    "bar_index": 10,
    "pt_name": "violin_upper_b22_1761512213385_7d10",
    "N": 1,
    "seeds": {
      "time": 0,
      "duration": 8,
      "pitch": 61,
      "velocity": 48,
      "numerator": 3,
      "denominator": 4
    },
    "sample_counts": {
      "time": 1,
      "duration": 1,
      "pitch": 1,
      "velocity": 1,
      "numerator": 1,
      "denominator": 1
    }
  },
  {
    "action": "execute_pt",
    "unit": "002",
    "bar_index": 10,
    "pt_name": "cello_middle_b22_1761512213385_9979",
    "N": 1,
    "seeds": {
      "time": 0,
      "duration": 8,
      "pitch": 57,
      "velocity": 46,
      "numerator": 3,
      "denominator": 4
    },
    "sample_counts": {
      "time": 1,
      "duration": 1,
      "pitch": 1,
      "velocity": 1,
      "numerator": 1,
      "denominator": 1
    }
  },
  {
    "action": "execute_pt",
    "unit": "002",
    "bar_index": 10,
    "pt_name": "double_bass_root_b22_1761512213385_0b4a",
    "N": 1,
    "seeds": {
      "time": 0,
      "duration": 8,
      "pitch": 54,
      "velocity": 44,
      "numerator": 3,
      "denominator": 4
    },
    "sample_counts": {
      "time": 1,
      "duration": 1,
      "pitch": 1,
      "velocity": 1,
      "numerator": 1,
      "denominator": 1
    }
  },
  {
    "action": "execute_pt",
    "unit": "002",
    "bar_index": 11,
    "pt_name": "alto_flute_winds_b23_1761512221371_7bf5",
    "N": 1,
    "seeds": {
      "time": 0,
      "duration": 8,
      "pitch": 72,
      "velocity": 50,
      "numerator": 3,
      "denominator": 4
    },
    "sample_counts": {
      "time": 1,
      "duration": 1,
      "pitch": 1,
      "velocity": 1,
      "numerator": 1,
      "denominator": 1
    }
  },
  {
    "action": "execute_pt",
    "unit": "002",
    "bar_index": 11,
    "pt_name": "bass_clarinet_winds_b23_1761512221371_6616",
    "N": 1,
    "seeds": {
      "time": 0,
      "duration": 8,
      "pitch": 58,
      "velocity": 46,
      "numerator": 3,
      "denominator": 4
    },
    "sample_counts": {
      "time": 1,
      "duration": 1,
      "pitch": 1,
      "velocity": 1,
      "numerator": 1,
      "denominator": 1
    }
  },
  {
    "action": "execute_pt",
    "unit": "002",
    "bar_index": 11,
    "pt_name": "trumpet_winds_b23_1761512221371_a9ff",
    "N": 1,
    "seeds": {
      "time": 0,
      "duration": 8,
      "pitch": 69,
      "velocity": 52,
      "numerator": 3,
      "denominator": 4
    },
    "sample_counts": {
      "time": 1,
      "duration": 1,
      "pitch": 1,
      "velocity": 1,
      "numerator": 1,
      "denominator": 1
    }
  },
  {
    "action": "execute_pt",
    "unit": "002",
    "bar_index": 11,
    "pt_name": "violin_upper_b23_1761512221371_4ec7",
    "N": 1,
    "seeds": {
      "time": 0,
      "duration": 8,
      "pitch": 69,
      "velocity": 48,
      "numerator": 3,
      "denominator": 4
    },
    "sample_counts": {
      "time": 1,
      "duration": 1,
      "pitch": 1,
      "velocity": 1,
      "numerator": 1,
      "denominator": 1
    }
  },
  {
    "action": "execute_pt",
    "unit": "002",
    "bar_index": 11,
    "pt_name": "cello_middle_b23_1761512221371_2814",
    "N": 1,
    "seeds": {
      "time": 0,
      "duration": 8,
      "pitch": 51,
      "velocity": 46,
      "numerator": 3,
      "denominator": 4
    },
    "sample_counts": {
      "time": 1,
      "duration": 1,
      "pitch": 1,
      "velocity": 1,
      "numerator": 1,
      "denominator": 1
    }
  },
  {
    "action": "execute_pt",
    "unit": "002",
    "bar_index": 11,
    "pt_name": "double_bass_root_b23_1761512221371_6d90",
    "N": 1,
    "seeds": {
      "time": 0,
      "duration": 8,
      "pitch": 47,
      "velocity": 44,
      "numerator": 3,
      "denominator": 4
    },
    "sample_counts": {
      "time": 1,
      "duration": 1,
      "pitch": 1,
      "velocity": 1,
      "numerator": 1,
      "denominator": 1
    }
  },
  {
    "action": "execute_pt",
    "unit": "002",
    "bar_index": 12,
    "pt_name": "alto_flute_winds_b24_1761512229435_865c",
    "N": 1,
    "seeds": {
      "time": 4,
      "duration": 8,
      "pitch": 74,
      "velocity": 50,
      "numerator": 3,
      "denominator": 4
    },
    "sample_counts": {
      "time": 1,
      "duration": 1,
      "pitch": 1,
      "velocity": 1,
      "numerator": 1,
      "denominator": 1
    }
  },
  {
    "action": "execute_pt",
    "unit": "002",
    "bar_index": 12,
    "pt_name": "bass_clarinet_winds_b24_1761512229435_24fa",
    "N": 1,
    "seeds": {
      "time": 4,
      "duration": 8,
      "pitch": 60,
      "velocity": 46,
      "numerator": 3,
      "denominator": 4
    },
    "sample_counts": {
      "time": 1,
      "duration": 1,
      "pitch": 1,
      "velocity": 1,
      "numerator": 1,
      "denominator": 1
    }
  },
  {
    "action": "execute_pt",
    "unit": "002",
    "bar_index": 12,
    "pt_name": "trumpet_winds_b24_1761512229435_a99d",
    "N": 1,
    "seeds": {
      "time": 4,
      "duration": 8,
      "pitch": 71,
      "velocity": 52,
      "numerator": 3,
      "denominator": 4
    },
    "sample_counts": {
      "time": 1,
      "duration": 1,
      "pitch": 1,
      "velocity": 1,
      "numerator": 1,
      "denominator": 1
    }
  },
  {
    "action": "execute_pt",
    "unit": "002",
    "bar_index": 12,
    "pt_name": "violin_upper_b24_1761512229435_385e",
    "N": 1,
    "seeds": {
      "time": 0,
      "duration": 12,
      "pitch": 65,
      "velocity": 48,
      "numerator": 3,
      "denominator": 4
    },
    "sample_counts": {
      "time": 1,
      "duration": 1,
      "pitch": 1,
      "velocity": 1,
      "numerator": 1,
      "denominator": 1
    }
  },
  {
    "action": "execute_pt",
    "unit": "002",
    "bar_index": 12,
    "pt_name": "cello_middle_b24_1761512229435_2ed1",
    "N": 1,
    "seeds": {
      "time": 0,
      "duration": 12,
      "pitch": 55,
      "velocity": 46,
      "numerator": 3,
      "denominator": 4
    },
    "sample_counts": {
      "time": 1,
      "duration": 1,
      "pitch": 1,
      "velocity": 1,
      "numerator": 1,
      "denominator": 1
    }
  },
  {
    "action": "execute_pt",
    "unit": "002",
    "bar_index": 12,
    "pt_name": "double_bass_root_b24_1761512229435_f475",
    "N": 1,
    "seeds": {
      "time": 0,
      "duration": 12,
      "pitch": 51,
      "velocity": 44,
      "numerator": 3,
      "denominator": 4
    },
    "sample_counts": {
      "time": 1,
      "duration": 1,
      "pitch": 1,
      "velocity": 1,
      "numerator": 1,
      "denominator": 1
    }
  },
  {
    "action": "execute_pt",
    "unit": "003",
    "bar_index": 1,
    "pt_name": "alto_flute_winds_b25_1761512558402_2f04",
    "N": 2,
    "seeds": {
      "time": 0,
      "duration": 4,
      "pitch": 74,
      "velocity": 52,
      "numerator": 3,
      "denominator": 4
    },
    "sample_counts": {
      "time": 2,
      "duration": 2,
      "pitch": 2,
      "velocity": 2,
      "numerator": 2,
      "denominator": 2
    }
  },
  {
    "action": "execute_pt",
    "unit": "003",
    "bar_index": 1,
    "pt_name": "bass_clarinet_winds_b25_1761512558402_a498",
    "N": 2,
    "seeds": {
      "time": 0,
      "duration": 4,
      "pitch": 57,
      "velocity": 48,
      "numerator": 3,
      "denominator": 4
    },
    "sample_counts": {
      "time": 2,
      "duration": 2,
      "pitch": 2,
      "velocity": 2,
      "numerator": 2,
      "denominator": 2
    }
  },
  {
    "action": "execute_pt",
    "unit": "003",
    "bar_index": 1,
    "pt_name": "trumpet_winds_b25_1761512558402_180e",
    "N": 2,
    "seeds": {
      "time": 0,
      "duration": 4,
      "pitch": 66,
      "velocity": 54,
      "numerator": 3,
      "denominator": 4
    },
    "sample_counts": {
      "time": 2,
      "duration": 2,
      "pitch": 2,
      "velocity": 2,
      "numerator": 2,
      "denominator": 2
    }
  },
  {
    "action": "execute_pt",
    "unit": "003",
    "bar_index": 1,
    "pt_name": "violin_upper_b25_1761512558402_a60a",
    "N": 1,
    "seeds": {
      "time": 0,
      "duration": 12,
      "pitch": 72,
      "velocity": 48,
      "numerator": 3,
      "denominator": 4
    },
    "sample_counts": {
      "time": 1,
      "duration": 1,
      "pitch": 1,
      "velocity": 1,
      "numerator": 1,
      "denominator": 1
    }
  },
  {
    "action": "execute_pt",
    "unit": "003",
    "bar_index": 1,
    "pt_name": "cello_middle_b25_1761512558402_ebd9",
    "N": 1,
    "seeds": {
      "time": 0,
      "duration": 12,
      "pitch": 55,
      "velocity": 46,
      "numerator": 3,
      "denominator": 4
    },
    "sample_counts": {
      "time": 1,
      "duration": 1,
      "pitch": 1,
      "velocity": 1,
      "numerator": 1,
      "denominator": 1
    }
  },
  {
    "action": "execute_pt",
    "unit": "003",
    "bar_index": 1,
    "pt_name": "double_bass_root_b25_1761512558402_eacd",
    "N": 1,
    "seeds": {
      "time": 0,
      "duration": 12,
      "pitch": 43,
      "velocity": 44,
      "numerator": 3,
      "denominator": 4
    },
    "sample_counts": {
      "time": 1,
      "duration": 1,
      "pitch": 1,
      "velocity": 1,
      "numerator": 1,
      "denominator": 1
    }
  },
  {
    "action": "execute_pt",
    "unit": "003",
    "bar_index": 2,
    "pt_name": "alto_flute_winds_b26_1761512565745_c830",
    "N": 2,
    "seeds": {
      "time": 0,
      "duration": 8,
      "pitch": 73,
      "velocity": 52,
      "numerator": 3,
      "denominator": 4
    },
    "sample_counts": {
      "time": 2,
      "duration": 2,
      "pitch": 2,
      "velocity": 2,
      "numerator": 2,
      "denominator": 2
    }
  },
  {
    "action": "execute_pt",
    "unit": "003",
    "bar_index": 2,
    "pt_name": "bass_clarinet_winds_b26_1761512565745_a7ff",
    "N": 2,
    "seeds": {
      "time": 0,
      "duration": 8,
      "pitch": 59,
      "velocity": 48,
      "numerator": 3,
      "denominator": 4
    },
    "sample_counts": {
      "time": 2,
      "duration": 2,
      "pitch": 2,
      "velocity": 2,
      "numerator": 2,
      "denominator": 2
    }
  },
  {
    "action": "execute_pt",
    "unit": "003",
    "bar_index": 2,
    "pt_name": "trumpet_winds_b26_1761512565745_01a6",
    "N": 2,
    "seeds": {
      "time": 0,
      "duration": 8,
      "pitch": 67,
      "velocity": 54,
      "numerator": 3,
      "denominator": 4
    },
    "sample_counts": {
      "time": 2,
      "duration": 2,
      "pitch": 2,
      "velocity": 2,
      "numerator": 2,
      "denominator": 2
    }
  },
  {
    "action": "execute_pt",
    "unit": "003",
    "bar_index": 2,
    "pt_name": "violin_upper_b26_1761512565745_120c",
    "N": 2,
    "seeds": {
      "time": 0,
      "duration": 8,
      "pitch": 74,
      "velocity": 50,
      "numerator": 3,
      "denominator": 4
    },
    "sample_counts": {
      "time": 2,
      "duration": 2,
      "pitch": 2,
      "velocity": 2,
      "numerator": 2,
      "denominator": 2
    }
  },
  {
    "action": "execute_pt",
    "unit": "003",
    "bar_index": 2,
    "pt_name": "cello_middle_b26_1761512565745_e467",
    "N": 2,
    "seeds": {
      "time": 0,
      "duration": 8,
      "pitch": 59,
      "velocity": 46,
      "numerator": 3,
      "denominator": 4
    },
    "sample_counts": {
      "time": 2,
      "duration": 2,
      "pitch": 2,
      "velocity": 2,
      "numerator": 2,
      "denominator": 2
    }
  },
  {
    "action": "execute_pt",
    "unit": "003",
    "bar_index": 2,
    "pt_name": "double_bass_root_b26_1761512565745_1ff0",
    "N": 2,
    "seeds": {
      "time": 0,
      "duration": 8,
      "pitch": 47,
      "velocity": 44,
      "numerator": 3,
      "denominator": 4
    },
    "sample_counts": {
      "time": 2,
      "duration": 2,
      "pitch": 2,
      "velocity": 2,
      "numerator": 2,
      "denominator": 2
    }
  },
  {
    "action": "execute_pt",
    "unit": "003",
    "bar_index": 3,
    "pt_name": "alto_flute_winds_b27_1761512573757_43db",
    "N": 1,
    "seeds": {
      "time": 0,
      "duration": 12,
      "pitch": 76,
      "velocity": 50,
      "numerator": 3,
      "denominator": 4
    },
    "sample_counts": {
      "time": 1,
      "duration": 1,
      "pitch": 1,
      "velocity": 1,
      "numerator": 1,
      "denominator": 1
    }
  },
  {
    "action": "execute_pt",
    "unit": "003",
    "bar_index": 3,
    "pt_name": "bass_clarinet_winds_b27_1761512573757_e8ee",
    "N": 1,
    "seeds": {
      "time": 0,
      "duration": 12,
      "pitch": 62,
      "velocity": 46,
      "numerator": 3,
      "denominator": 4
    },
    "sample_counts": {
      "time": 1,
      "duration": 1,
      "pitch": 1,
      "velocity": 1,
      "numerator": 1,
      "denominator": 1
    }
  },
  {
    "action": "execute_pt",
    "unit": "003",
    "bar_index": 3,
    "pt_name": "trumpet_winds_b27_1761512573757_b3cf",
    "N": 1,
    "seeds": {
      "time": 0,
      "duration": 12,
      "pitch": 69,
      "velocity": 52,
      "numerator": 3,
      "denominator": 4
    },
    "sample_counts": {
      "time": 1,
      "duration": 1,
      "pitch": 1,
      "velocity": 1,
      "numerator": 1,
      "denominator": 1
    }
  },
  {
    "action": "execute_pt",
    "unit": "003",
    "bar_index": 3,
    "pt_name": "violin_upper_b27_1761512573757_d0a2",
    "N": 2,
    "seeds": {
      "time": 0,
      "duration": 4,
      "pitch": 69,
      "velocity": 48,
      "numerator": 3,
      "denominator": 4
    },
    "sample_counts": {
      "time": 2,
      "duration": 2,
      "pitch": 2,
      "velocity": 2,
      "numerator": 2,
      "denominator": 2
    }
  },
  {
    "action": "execute_pt",
    "unit": "003",
    "bar_index": 3,
    "pt_name": "cello_middle_b27_1761512573758_9b7b",
    "N": 2,
    "seeds": {
      "time": 0,
      "duration": 4,
      "pitch": 57,
      "velocity": 46,
      "numerator": 3,
      "denominator": 4
    },
    "sample_counts": {
      "time": 2,
      "duration": 2,
      "pitch": 2,
      "velocity": 2,
      "numerator": 2,
      "denominator": 2
    }
  },
  {
    "action": "execute_pt",
    "unit": "003",
    "bar_index": 3,
    "pt_name": "double_bass_root_b27_1761512573758_ba85",
    "N": 2,
    "seeds": {
      "time": 0,
      "duration": 4,
      "pitch": 45,
      "velocity": 44,
      "numerator": 3,
      "denominator": 4
    },
    "sample_counts": {
      "time": 2,
      "duration": 2,
      "pitch": 2,
      "velocity": 2,
      "numerator": 2,
      "denominator": 2
    }
  },
  {
    "action": "execute_pt",
    "unit": "003",
    "bar_index": 4,
    "pt_name": "alto_flute_winds_b28_1761512581270_95fc",
    "N": 1,
    "seeds": {
      "time": 0,
      "duration": 8,
      "pitch": 76,
      "velocity": 50,
      "numerator": 3,
      "denominator": 4
    },
    "sample_counts": {
      "time": 1,
      "duration": 1,
      "pitch": 1,
      "velocity": 1,
      "numerator": 1,
      "denominator": 1
    }
  },
  {
    "action": "execute_pt",
    "unit": "003",
    "bar_index": 4,
    "pt_name": "bass_clarinet_winds_b28_1761512581270_df7f",
    "N": 1,
    "seeds": {
      "time": 0,
      "duration": 8,
      "pitch": 60,
      "velocity": 46,
      "numerator": 3,
      "denominator": 4
    },
    "sample_counts": {
      "time": 1,
      "duration": 1,
      "pitch": 1,
      "velocity": 1,
      "numerator": 1,
      "denominator": 1
    }
  },
  {
    "action": "execute_pt",
    "unit": "003",
    "bar_index": 4,
    "pt_name": "trumpet_winds_b28_1761512581270_ae85",
    "N": 1,
    "seeds": {
      "time": 0,
      "duration": 8,
      "pitch": 68,
      "velocity": 52,
      "numerator": 3,
      "denominator": 4
    },
    "sample_counts": {
      "time": 1,
      "duration": 1,
      "pitch": 1,
      "velocity": 1,
      "numerator": 1,
      "denominator": 1
    }
  },
  {
    "action": "execute_pt",
    "unit": "003",
    "bar_index": 4,
    "pt_name": "violin_upper_b28_1761512581270_a8a9",
    "N": 1,
    "seeds": {
      "time": 0,
      "duration": 8,
      "pitch": 76,
      "velocity": 47,
      "numerator": 3,
      "denominator": 4
    },
    "sample_counts": {
      "time": 1,
      "duration": 1,
      "pitch": 1,
      "velocity": 1,
      "numerator": 1,
      "denominator": 1
    }
  },
  {
    "action": "execute_pt",
    "unit": "003",
    "bar_index": 4,
    "pt_name": "cello_middle_b28_1761512581270_eb9d",
    "N": 1,
    "seeds": {
      "time": 0,
      "duration": 8,
      "pitch": 60,
      "velocity": 45,
      "numerator": 3,
      "denominator": 4
    },
    "sample_counts": {
      "time": 1,
      "duration": 1,
      "pitch": 1,
      "velocity": 1,
      "numerator": 1,
      "denominator": 1
    }
  },
  {
    "action": "execute_pt",
    "unit": "003",
    "bar_index": 4,
    "pt_name": "double_bass_root_b28_1761512581270_b869",
    "N": 1,
    "seeds": {
      "time": 0,
      "duration": 8,
      "pitch": 48,
      "velocity": 43,
      "numerator": 3,
      "denominator": 4
    },
    "sample_counts": {
      "time": 1,
      "duration": 1,
      "pitch": 1,
      "velocity": 1,
      "numerator": 1,
      "denominator": 1
    }
  },
  {
    "action": "execute_pt",
    "unit": "003",
    "bar_index": 5,
    "pt_name": "alto_flute_winds_b29_1761512588885_4b50",
    "N": 1,
    "seeds": {
      "time": 4,
      "duration": 8,
      "pitch": 77,
      "velocity": 51,
      "numerator": 3,
      "denominator": 4
    },
    "sample_counts": {
      "time": 1,
      "duration": 1,
      "pitch": 1,
      "velocity": 1,
      "numerator": 1,
      "denominator": 1
    }
  },
  {
    "action": "execute_pt",
    "unit": "003",
    "bar_index": 5,
    "pt_name": "bass_clarinet_winds_b29_1761512588885_088a",
    "N": 1,
    "seeds": {
      "time": 4,
      "duration": 8,
      "pitch": 61,
      "velocity": 47,
      "numerator": 3,
      "denominator": 4
    },
    "sample_counts": {
      "time": 1,
      "duration": 1,
      "pitch": 1,
      "velocity": 1,
      "numerator": 1,
      "denominator": 1
    }
  },
  {
    "action": "execute_pt",
    "unit": "003",
    "bar_index": 5,
    "pt_name": "trumpet_winds_b29_1761512588885_144b",
    "N": 1,
    "seeds": {
      "time": 4,
      "duration": 8,
      "pitch": 70,
      "velocity": 53,
      "numerator": 3,
      "denominator": 4
    },
    "sample_counts": {
      "time": 1,
      "duration": 1,
      "pitch": 1,
      "velocity": 1,
      "numerator": 1,
      "denominator": 1
    }
  },
  {
    "action": "execute_pt",
    "unit": "003",
    "bar_index": 5,
    "pt_name": "violin_upper_b29_1761512588885_813d",
    "N": 1,
    "seeds": {
      "time": 4,
      "duration": 8,
      "pitch": 67,
      "velocity": 46,
      "numerator": 3,
      "denominator": 4
    },
    "sample_counts": {
      "time": 1,
      "duration": 1,
      "pitch": 1,
      "velocity": 1,
      "numerator": 1,
      "denominator": 1
    }
  },
  {
    "action": "execute_pt",
    "unit": "003",
    "bar_index": 5,
    "pt_name": "cello_middle_b29_1761512588885_88b9",
    "N": 1,
    "seeds": {
      "time": 4,
      "duration": 8,
      "pitch": 55,
      "velocity": 44,
      "numerator": 3,
      "denominator": 4
    },
    "sample_counts": {
      "time": 1,
      "duration": 1,
      "pitch": 1,
      "velocity": 1,
      "numerator": 1,
      "denominator": 1
    }
  },
  {
    "action": "execute_pt",
    "unit": "003",
    "bar_index": 5,
    "pt_name": "double_bass_root_b29_1761512588885_692d",
    "N": 1,
    "seeds": {
      "time": 4,
      "duration": 8,
      "pitch": 43,
      "velocity": 42,
      "numerator": 3,
      "denominator": 4
    },
    "sample_counts": {
      "time": 1,
      "duration": 1,
      "pitch": 1,
      "velocity": 1,
      "numerator": 1,
      "denominator": 1
    }
  },
  {
    "action": "execute_pt",
    "unit": "003",
    "bar_index": 6,
    "pt_name": "alto_flute_winds_b30_1761512596886_bee9",
    "N": 2,
    "seeds": {
      "time": 0,
      "duration": 4,
      "pitch": 75,
      "velocity": 51,
      "numerator": 3,
      "denominator": 4
    },
    "sample_counts": {
      "time": 2,
      "duration": 2,
      "pitch": 2,
      "velocity": 2,
      "numerator": 2,
      "denominator": 2
    }
  },
  {
    "action": "execute_pt",
    "unit": "003",
    "bar_index": 6,
    "pt_name": "bass_clarinet_winds_b30_1761512596886_6260",
    "N": 2,
    "seeds": {
      "time": 0,
      "duration": 4,
      "pitch": 63,
      "velocity": 47,
      "numerator": 3,
      "denominator": 4
    },
    "sample_counts": {
      "time": 2,
      "duration": 2,
      "pitch": 2,
      "velocity": 2,
      "numerator": 2,
      "denominator": 2
    }
  },
  {
    "action": "execute_pt",
    "unit": "003",
    "bar_index": 6,
    "pt_name": "trumpet_winds_b30_1761512596886_cc76",
    "N": 2,
    "seeds": {
      "time": 0,
      "duration": 4,
      "pitch": 69,
      "velocity": 53,
      "numerator": 3,
      "denominator": 4
    },
    "sample_counts": {
      "time": 2,
      "duration": 2,
      "pitch": 2,
      "velocity": 2,
      "numerator": 2,
      "denominator": 2
    }
  },
  {
    "action": "execute_pt",
    "unit": "003",
    "bar_index": 6,
    "pt_name": "violin_upper_b30_1761512596886_1250",
    "N": 2,
    "seeds": {
      "time": 0,
      "duration": 8,
      "pitch": 71,
      "velocity": 48,
      "numerator": 3,
      "denominator": 4
    },
    "sample_counts": {
      "time": 2,
      "duration": 2,
      "pitch": 2,
      "velocity": 2,
      "numerator": 2,
      "denominator": 2
    }
  },
  {
    "action": "execute_pt",
    "unit": "003",
    "bar_index": 6,
    "pt_name": "cello_middle_b30_1761512596886_0da0",
    "N": 2,
    "seeds": {
      "time": 0,
      "duration": 8,
      "pitch": 59,
      "velocity": 46,
      "numerator": 3,
      "denominator": 4
    },
    "sample_counts": {
      "time": 2,
      "duration": 2,
      "pitch": 2,
      "velocity": 2,
      "numerator": 2,
      "denominator": 2
    }
  },
  {
    "action": "execute_pt",
    "unit": "003",
    "bar_index": 6,
    "pt_name": "double_bass_root_b30_1761512596886_5c22",
    "N": 2,
    "seeds": {
      "time": 0,
      "duration": 8,
      "pitch": 43,
      "velocity": 44,
      "numerator": 3,
      "denominator": 4
    },
    "sample_counts": {
      "time": 2,
      "duration": 2,
      "pitch": 2,
      "velocity": 2,
      "numerator": 2,
      "denominator": 2
    }
  },
  {
    "action": "execute_pt",
    "unit": "003",
    "bar_index": 7,
    "pt_name": "alto_flute_winds_b31_1761512604873_1626",
    "N": 2,
    "seeds": {
      "time": 0,
      "duration": 8,
      "pitch": 76,
      "velocity": 51,
      "numerator": 3,
      "denominator": 4
    },
    "sample_counts": {
      "time": 2,
      "duration": 2,
      "pitch": 2,
      "velocity": 2,
      "numerator": 2,
      "denominator": 2
    }
  },
  {
    "action": "execute_pt",
    "unit": "003",
    "bar_index": 7,
    "pt_name": "bass_clarinet_winds_b31_1761512604873_286d",
    "N": 2,
    "seeds": {
      "time": 0,
      "duration": 8,
      "pitch": 62,
      "velocity": 47,
      "numerator": 3,
      "denominator": 4
    },
    "sample_counts": {
      "time": 2,
      "duration": 2,
      "pitch": 2,
      "velocity": 2,
      "numerator": 2,
      "denominator": 2
    }
  },
  {
    "action": "execute_pt",
    "unit": "003",
    "bar_index": 7,
    "pt_name": "trumpet_winds_b31_1761512604873_b0ff",
    "N": 2,
    "seeds": {
      "time": 0,
      "duration": 8,
      "pitch": 70,
      "velocity": 53,
      "numerator": 3,
      "denominator": 4
    },
    "sample_counts": {
      "time": 2,
      "duration": 2,
      "pitch": 2,
      "velocity": 2,
      "numerator": 2,
      "denominator": 2
    }
  },
  {
    "action": "execute_pt",
    "unit": "003",
    "bar_index": 7,
    "pt_name": "violin_upper_b31_1761512604873_4e5c",
    "N": 1,
    "seeds": {
      "time": 0,
      "duration": 12,
      "pitch": 73,
      "velocity": 48,
      "numerator": 3,
      "denominator": 4
    },
    "sample_counts": {
      "time": 1,
      "duration": 1,
      "pitch": 1,
      "velocity": 1,
      "numerator": 1,
      "denominator": 1
    }
  },
  {
    "action": "execute_pt",
    "unit": "003",
    "bar_index": 7,
    "pt_name": "cello_middle_b31_1761512604873_5c83",
    "N": 1,
    "seeds": {
      "time": 0,
      "duration": 12,
      "pitch": 57,
      "velocity": 46,
      "numerator": 3,
      "denominator": 4
    },
    "sample_counts": {
      "time": 1,
      "duration": 1,
      "pitch": 1,
      "velocity": 1,
      "numerator": 1,
      "denominator": 1
    }
  },
  {
    "action": "execute_pt",
    "unit": "003",
    "bar_index": 7,
    "pt_name": "double_bass_root_b31_1761512604873_344b",
    "N": 1,
    "seeds": {
      "time": 0,
      "duration": 12,
      "pitch": 45,
      "velocity": 44,
      "numerator": 3,
      "denominator": 4
    },
    "sample_counts": {
      "time": 1,
      "duration": 1,
      "pitch": 1,
      "velocity": 1,
      "numerator": 1,
      "denominator": 1
    }
  },
  {
    "action": "execute_pt",
    "unit": "003",
    "bar_index": 8,
    "pt_name": "alto_flute_winds_b32_1761512613248_67c6",
    "N": 1,
    "seeds": {
      "time": 0,
      "duration": 8,
      "pitch": 74,
      "velocity": 50,
      "numerator": 3,
      "denominator": 4
    },
    "sample_counts": {
      "time": 1,
      "duration": 1,
      "pitch": 1,
      "velocity": 1,
      "numerator": 1,
      "denominator": 1
    }
  },
  {
    "action": "execute_pt",
    "unit": "003",
    "bar_index": 8,
    "pt_name": "bass_clarinet_winds_b32_1761512613248_8645",
    "N": 1,
    "seeds": {
      "time": 0,
      "duration": 8,
      "pitch": 60,
      "velocity": 46,
      "numerator": 3,
      "denominator": 4
    },
    "sample_counts": {
      "time": 1,
      "duration": 1,
      "pitch": 1,
      "velocity": 1,
      "numerator": 1,
      "denominator": 1
    }
  },
  {
    "action": "execute_pt",
    "unit": "003",
    "bar_index": 8,
    "pt_name": "trumpet_winds_b32_1761512613248_713e",
    "N": 1,
    "seeds": {
      "time": 0,
      "duration": 8,
      "pitch": 68,
      "velocity": 52,
      "numerator": 3,
      "denominator": 4
    },
    "sample_counts": {
      "time": 1,
      "duration": 1,
      "pitch": 1,
      "velocity": 1,
      "numerator": 1,
      "denominator": 1
    }
  },
  {
    "action": "execute_pt",
    "unit": "003",
    "bar_index": 8,
    "pt_name": "violin_upper_b32_1761512613248_1a6a",
    "N": 2,
    "seeds": {
      "time": 0,
      "duration": 4,
      "pitch": 79,
      "velocity": 47,
      "numerator": 3,
      "denominator": 4
    },
    "sample_counts": {
      "time": 2,
      "duration": 2,
      "pitch": 2,
      "velocity": 2,
      "numerator": 2,
      "denominator": 2
    }
  },
  {
    "action": "execute_pt",
    "unit": "003",
    "bar_index": 8,
    "pt_name": "cello_middle_b32_1761512613248_7e68",
    "N": 2,
    "seeds": {
      "time": 0,
      "duration": 4,
      "pitch": 64,
      "velocity": 45,
      "numerator": 3,
      "denominator": 4
    },
    "sample_counts": {
      "time": 2,
      "duration": 2,
      "pitch": 2,
      "velocity": 2,
      "numerator": 2,
      "denominator": 2
    }
  },
  {
    "action": "execute_pt",
    "unit": "003",
    "bar_index": 8,
    "pt_name": "double_bass_root_b32_1761512613248_990e",
    "N": 2,
    "seeds": {
      "time": 0,
      "duration": 4,
      "pitch": 50,
      "velocity": 43,
      "numerator": 3,
      "denominator": 4
    },
    "sample_counts": {
      "time": 2,
      "duration": 2,
      "pitch": 2,
      "velocity": 2,
      "numerator": 2,
      "denominator": 2
    }
  },
  {
    "action": "execute_pt",
    "unit": "003",
    "bar_index": 9,
    "pt_name": "alto_flute_winds_b33_1761512621081_74f4",
    "N": 1,
    "seeds": {
      "time": 0,
      "duration": 12,
      "pitch": 73,
      "velocity": 48,
      "numerator": 3,
      "denominator": 4
    },
    "sample_counts": {
      "time": 1,
      "duration": 1,
      "pitch": 1,
      "velocity": 1,
      "numerator": 1,
      "denominator": 1
    }
  },
  {
    "action": "execute_pt",
    "unit": "003",
    "bar_index": 9,
    "pt_name": "bass_clarinet_winds_b33_1761512621081_9c56",
    "N": 1,
    "seeds": {
      "time": 0,
      "duration": 12,
      "pitch": 59,
      "velocity": 44,
      "numerator": 3,
      "denominator": 4
    },
    "sample_counts": {
      "time": 1,
      "duration": 1,
      "pitch": 1,
      "velocity": 1,
      "numerator": 1,
      "denominator": 1
    }
  },
  {
    "action": "execute_pt",
    "unit": "003",
    "bar_index": 9,
    "pt_name": "trumpet_winds_b33_1761512621081_cf20",
    "N": 1,
    "seeds": {
      "time": 0,
      "duration": 12,
      "pitch": 67,
      "velocity": 50,
      "numerator": 3,
      "denominator": 4
    },
    "sample_counts": {
      "time": 1,
      "duration": 1,
      "pitch": 1,
      "velocity": 1,
      "numerator": 1,
      "denominator": 1
    }
  },
  {
    "action": "execute_pt",
    "unit": "003",
    "bar_index": 9,
    "pt_name": "violin_upper_b33_1761512621081_83d3",
    "N": 1,
    "seeds": {
      "time": 0,
      "duration": 8,
      "pitch": 74,
      "velocity": 47,
      "numerator": 3,
      "denominator": 4
    },
    "sample_counts": {
      "time": 1,
      "duration": 1,
      "pitch": 1,
      "velocity": 1,
      "numerator": 1,
      "denominator": 1
    }
  },
  {
    "action": "execute_pt",
    "unit": "003",
    "bar_index": 9,
    "pt_name": "cello_middle_b33_1761512621081_8d1a",
    "N": 1,
    "seeds": {
      "time": 0,
      "duration": 8,
      "pitch": 62,
      "velocity": 45,
      "numerator": 3,
      "denominator": 4
    },
    "sample_counts": {
      "time": 1,
      "duration": 1,
      "pitch": 1,
      "velocity": 1,
      "numerator": 1,
      "denominator": 1
    }
  },
  {
    "action": "execute_pt",
    "unit": "003",
    "bar_index": 9,
    "pt_name": "double_bass_root_b33_1761512621081_5d48",
    "N": 1,
    "seeds": {
      "time": 0,
      "duration": 8,
      "pitch": 50,
      "velocity": 43,
      "numerator": 3,
      "denominator": 4
    },
    "sample_counts": {
      "time": 1,
      "duration": 1,
      "pitch": 1,
      "velocity": 1,
      "numerator": 1,
      "denominator": 1
    }
  },
  {
    "action": "execute_pt",
    "unit": "003",
    "bar_index": 10,
    "pt_name": "alto_flute_winds_b34_1761512628934_b9e5",
    "N": 2,
    "seeds": {
      "time": 0,
      "duration": 4,
      "pitch": 71,
      "velocity": 50,
      "numerator": 3,
      "denominator": 4
    },
    "sample_counts": {
      "time": 2,
      "duration": 2,
      "pitch": 2,
      "velocity": 2,
      "numerator": 2,
      "denominator": 2
    }
  },
  {
    "action": "execute_pt",
    "unit": "003",
    "bar_index": 10,
    "pt_name": "bass_clarinet_winds_b34_1761512628934_1e86",
    "N": 2,
    "seeds": {
      "time": 0,
      "duration": 4,
      "pitch": 57,
      "velocity": 46,
      "numerator": 3,
      "denominator": 4
    },
    "sample_counts": {
      "time": 2,
      "duration": 2,
      "pitch": 2,
      "velocity": 2,
      "numerator": 2,
      "denominator": 2
    }
  },
  {
    "action": "execute_pt",
    "unit": "003",
    "bar_index": 10,
    "pt_name": "trumpet_winds_b34_1761512628934_7422",
    "N": 2,
    "seeds": {
      "time": 0,
      "duration": 4,
      "pitch": 66,
      "velocity": 52,
      "numerator": 3,
      "denominator": 4
    },
    "sample_counts": {
      "time": 2,
      "duration": 2,
      "pitch": 2,
      "velocity": 2,
      "numerator": 2,
      "denominator": 2
    }
  },
  {
    "action": "execute_pt",
    "unit": "003",
    "bar_index": 10,
    "pt_name": "violin_upper_b34_1761512628934_35aa",
    "N": 2,
    "seeds": {
      "time": 0,
      "duration": 8,
      "pitch": 76,
      "velocity": 47,
      "numerator": 3,
      "denominator": 4
    },
    "sample_counts": {
      "time": 2,
      "duration": 2,
      "pitch": 2,
      "velocity": 2,
      "numerator": 2,
      "denominator": 2
    }
  },
  {
    "action": "execute_pt",
    "unit": "003",
    "bar_index": 10,
    "pt_name": "cello_middle_b34_1761512628934_f755",
    "N": 2,
    "seeds": {
      "time": 0,
      "duration": 8,
      "pitch": 64,
      "velocity": 45,
      "numerator": 3,
      "denominator": 4
    },
    "sample_counts": {
      "time": 2,
      "duration": 2,
      "pitch": 2,
      "velocity": 2,
      "numerator": 2,
      "denominator": 2
    }
  },
  {
    "action": "execute_pt",
    "unit": "003",
    "bar_index": 10,
    "pt_name": "double_bass_root_b34_1761512628934_dc1c",
    "N": 2,
    "seeds": {
      "time": 0,
      "duration": 8,
      "pitch": 52,
      "velocity": 43,
      "numerator": 3,
      "denominator": 4
    },
    "sample_counts": {
      "time": 2,
      "duration": 2,
      "pitch": 2,
      "velocity": 2,
      "numerator": 2,
      "denominator": 2
    }
  },
  {
    "action": "execute_pt",
    "unit": "003",
    "bar_index": 11,
    "pt_name": "alto_flute_winds_b35_1761512636787_7055",
    "N": 1,
    "seeds": {
      "time": 0,
      "duration": 8,
      "pitch": 72,
      "velocity": 50,
      "numerator": 3,
      "denominator": 4
    },
    "sample_counts": {
      "time": 1,
      "duration": 1,
      "pitch": 1,
      "velocity": 1,
      "numerator": 1,
      "denominator": 1
    }
  },
  {
    "action": "execute_pt",
    "unit": "003",
    "bar_index": 11,
    "pt_name": "bass_clarinet_winds_b35_1761512636787_c55a",
    "N": 1,
    "seeds": {
      "time": 0,
      "duration": 8,
      "pitch": 58,
      "velocity": 46,
      "numerator": 3,
      "denominator": 4
    },
    "sample_counts": {
      "time": 1,
      "duration": 1,
      "pitch": 1,
      "velocity": 1,
      "numerator": 1,
      "denominator": 1
    }
  },
  {
    "action": "execute_pt",
    "unit": "003",
    "bar_index": 11,
    "pt_name": "trumpet_winds_b35_1761512636787_31dd",
    "N": 1,
    "seeds": {
      "time": 0,
      "duration": 8,
      "pitch": 69,
      "velocity": 52,
      "numerator": 3,
      "denominator": 4
    },
    "sample_counts": {
      "time": 1,
      "duration": 1,
      "pitch": 1,
      "velocity": 1,
      "numerator": 1,
      "denominator": 1
    }
  },
  {
    "action": "execute_pt",
    "unit": "003",
    "bar_index": 11,
    "pt_name": "violin_upper_b35_1761512636787_95c3",
    "N": 1,
    "seeds": {
      "time": 0,
      "duration": 12,
      "pitch": 71,
      "velocity": 48,
      "numerator": 3,
      "denominator": 4
    },
    "sample_counts": {
      "time": 1,
      "duration": 1,
      "pitch": 1,
      "velocity": 1,
      "numerator": 1,
      "denominator": 1
    }
  },
  {
    "action": "execute_pt",
    "unit": "003",
    "bar_index": 11,
    "pt_name": "cello_middle_b35_1761512636787_a53d",
    "N": 1,
    "seeds": {
      "time": 0,
      "duration": 12,
      "pitch": 59,
      "velocity": 46,
      "numerator": 3,
      "denominator": 4
    },
    "sample_counts": {
      "time": 1,
      "duration": 1,
      "pitch": 1,
      "velocity": 1,
      "numerator": 1,
      "denominator": 1
    }
  },
  {
    "action": "execute_pt",
    "unit": "003",
    "bar_index": 11,
    "pt_name": "double_bass_root_b35_1761512636787_e24e",
    "N": 1,
    "seeds": {
      "time": 0,
      "duration": 12,
      "pitch": 47,
      "velocity": 44,
      "numerator": 3,
      "denominator": 4
    },
    "sample_counts": {
      "time": 1,
      "duration": 1,
      "pitch": 1,
      "velocity": 1,
      "numerator": 1,
      "denominator": 1
    }
  },
  {
    "action": "execute_pt",
    "unit": "003",
    "bar_index": 12,
    "pt_name": "alto_flute_winds_b36_1761512644856_49f9",
    "N": 1,
    "seeds": {
      "time": 4,
      "duration": 8,
      "pitch": 74,
      "velocity": 50,
      "numerator": 3,
      "denominator": 4
    },
    "sample_counts": {
      "time": 1,
      "duration": 1,
      "pitch": 1,
      "velocity": 1,
      "numerator": 1,
      "denominator": 1
    }
  },
  {
    "action": "execute_pt",
    "unit": "003",
    "bar_index": 12,
    "pt_name": "bass_clarinet_winds_b36_1761512644856_ab5a",
    "N": 1,
    "seeds": {
      "time": 4,
      "duration": 8,
      "pitch": 60,
      "velocity": 46,
      "numerator": 3,
      "denominator": 4
    },
    "sample_counts": {
      "time": 1,
      "duration": 1,
      "pitch": 1,
      "velocity": 1,
      "numerator": 1,
      "denominator": 1
    }
  },
  {
    "action": "execute_pt",
    "unit": "003",
    "bar_index": 12,
    "pt_name": "trumpet_winds_b36_1761512644856_b59e",
    "N": 1,
    "seeds": {
      "time": 4,
      "duration": 8,
      "pitch": 71,
      "velocity": 52,
      "numerator": 3,
      "denominator": 4
    },
    "sample_counts": {
      "time": 1,
      "duration": 1,
      "pitch": 1,
      "velocity": 1,
      "numerator": 1,
      "denominator": 1
    }
  },
  {
    "action": "execute_pt",
    "unit": "003",
    "bar_index": 12,
    "pt_name": "violin_upper_b36_1761512644856_ca4a",
    "N": 2,
    "seeds": {
      "time": 0,
      "duration": 4,
      "pitch": 67,
      "velocity": 48,
      "numerator": 3,
      "denominator": 4
    },
    "sample_counts": {
      "time": 2,
      "duration": 2,
      "pitch": 2,
      "velocity": 2,
      "numerator": 2,
      "denominator": 2
    }
  },
  {
    "action": "execute_pt",
    "unit": "003",
    "bar_index": 12,
    "pt_name": "cello_middle_b36_1761512644856_249c",
    "N": 2,
    "seeds": {
      "time": 0,
      "duration": 4,
      "pitch": 55,
      "velocity": 46,
      "numerator": 3,
      "denominator": 4
    },
    "sample_counts": {
      "time": 2,
      "duration": 2,
      "pitch": 2,
      "velocity": 2,
      "numerator": 2,
      "denominator": 2
    }
  },
  {
    "action": "execute_pt",
    "unit": "003",
    "bar_index": 12,
    "pt_name": "double_bass_root_b36_1761512644856_ae59",
    "N": 2,
    "seeds": {
      "time": 0,
      "duration": 4,
      "pitch": 43,
      "velocity": 44,
      "numerator": 3,
      "denominator": 4
    },
    "sample_counts": {
      "time": 2,
      "duration": 2,
      "pitch": 2,
      "velocity": 2,
      "numerator": 2,
      "denominator": 2
    }
  },
  {
    "action": "execute_pt",
    "unit": "003",
    "bar_index": 13,
    "pt_name": "alto_flute_winds_b27_1761512653289_748a",
    "N": 1,
    "seeds": {
      "time": 0,
      "duration": 8,
      "pitch": 74,
      "velocity": 50,
      "numerator": 3,
      "denominator": 4
    },
    "sample_counts": {
      "time": 1,
      "duration": 1,
      "pitch": 1,
      "velocity": 1,
      "numerator": 1,
      "denominator": 1
    }
  },
  {
    "action": "execute_pt",
    "unit": "003",
    "bar_index": 13,
    "pt_name": "bass_clarinet_winds_b27_1761512653289_a827",
    "N": 1,
    "seeds": {
      "time": 0,
      "duration": 8,
      "pitch": 60,
      "velocity": 46,
      "numerator": 3,
      "denominator": 4
    },
    "sample_counts": {
      "time": 1,
      "duration": 1,
      "pitch": 1,
      "velocity": 1,
      "numerator": 1,
      "denominator": 1
    }
  },
  {
    "action": "execute_pt",
    "unit": "003",
    "bar_index": 13,
    "pt_name": "trumpet_winds_b27_1761512653289_1de6",
    "N": 1,
    "seeds": {
      "time": 0,
      "duration": 8,
      "pitch": 68,
      "velocity": 52,
      "numerator": 3,
      "denominator": 4
    },
    "sample_counts": {
      "time": 1,
      "duration": 1,
      "pitch": 1,
      "velocity": 1,
      "numerator": 1,
      "denominator": 1
    }
  },
  {
    "action": "execute_pt",
    "unit": "003",
    "bar_index": 13,
    "pt_name": "violin_upper_b27_1761512653289_ac19",
    "N": 2,
    "seeds": {
      "time": 0,
      "duration": 4,
      "pitch": 72,
      "velocity": 47,
      "numerator": 3,
      "denominator": 4
    },
    "sample_counts": {
      "time": 2,
      "duration": 2,
      "pitch": 2,
      "velocity": 2,
      "numerator": 2,
      "denominator": 2
    }
  },
  {
    "action": "execute_pt",
    "unit": "003",
    "bar_index": 13,
    "pt_name": "cello_middle_b27_1761512653289_afe4",
    "N": 2,
    "seeds": {
      "time": 0,
      "duration": 4,
      "pitch": 56,
      "velocity": 45,
      "numerator": 3,
      "denominator": 4
    },
    "sample_counts": {
      "time": 2,
      "duration": 2,
      "pitch": 2,
      "velocity": 2,
      "numerator": 2,
      "denominator": 2
    }
  },
  {
    "action": "execute_pt",
    "unit": "003",
    "bar_index": 13,
    "pt_name": "double_bass_root_b27_1761512653289_6ab7",
    "N": 2,
    "seeds": {
      "time": 0,
      "duration": 4,
      "pitch": 52,
      "velocity": 43,
      "numerator": 3,
      "denominator": 4
    },
    "sample_counts": {
      "time": 2,
      "duration": 2,
      "pitch": 2,
      "velocity": 2,
      "numerator": 2,
      "denominator": 2
    }
  },
  {
    "action": "execute_pt",
    "unit": "003",
    "bar_index": 14,
    "pt_name": "alto_flute_winds_b28_1761512661003_7e50",
    "N": 1,
    "seeds": {
      "time": 4,
      "duration": 8,
      "pitch": 74,
      "velocity": 50,
      "numerator": 3,
      "denominator": 4
    },
    "sample_counts": {
      "time": 1,
      "duration": 1,
      "pitch": 1,
      "velocity": 1,
      "numerator": 1,
      "denominator": 1
    }
  },
  {
    "action": "execute_pt",
    "unit": "003",
    "bar_index": 14,
    "pt_name": "bass_clarinet_winds_b28_1761512661003_6020",
    "N": 1,
    "seeds": {
      "time": 4,
      "duration": 8,
      "pitch": 60,
      "velocity": 46,
      "numerator": 3,
      "denominator": 4
    },
    "sample_counts": {
      "time": 1,
      "duration": 1,
      "pitch": 1,
      "velocity": 1,
      "numerator": 1,
      "denominator": 1
    }
  },
  {
    "action": "execute_pt",
    "unit": "003",
    "bar_index": 14,
    "pt_name": "trumpet_winds_b28_1761512661003_48a9",
    "N": 1,
    "seeds": {
      "time": 4,
      "duration": 8,
      "pitch": 71,
      "velocity": 52,
      "numerator": 3,
      "denominator": 4
    },
    "sample_counts": {
      "time": 1,
      "duration": 1,
      "pitch": 1,
      "velocity": 1,
      "numerator": 1,
      "denominator": 1
    }
  },
  {
    "action": "execute_pt",
    "unit": "003",
    "bar_index": 14,
    "pt_name": "violin_upper_b28_1761512661003_bad3",
    "N": 1,
    "seeds": {
      "time": 0,
      "duration": 12,
      "pitch": 65,
      "velocity": 48,
      "numerator": 3,
      "denominator": 4
    },
    "sample_counts": {
      "time": 1,
      "duration": 1,
      "pitch": 1,
      "velocity": 1,
      "numerator": 1,
      "denominator": 1
    }
  },
  {
    "action": "execute_pt",
    "unit": "003",
    "bar_index": 14,
    "pt_name": "cello_middle_b28_1761512661003_e5ff",
    "N": 1,
    "seeds": {
      "time": 0,
      "duration": 12,
      "pitch": 55,
      "velocity": 46,
      "numerator": 3,
      "denominator": 4
    },
    "sample_counts": {
      "time": 1,
      "duration": 1,
      "pitch": 1,
      "velocity": 1,
      "numerator": 1,
      "denominator": 1
    }
  },
  {
    "action": "execute_pt",
    "unit": "003",
    "bar_index": 14,
    "pt_name": "double_bass_root_b28_1761512661003_2564",
    "N": 1,
    "seeds": {
      "time": 0,
      "duration": 12,
      "pitch": 51,
      "velocity": 44,
      "numerator": 3,
      "denominator": 4
    },
    "sample_counts": {
      "time": 1,
      "duration": 1,
      "pitch": 1,
      "velocity": 1,
      "numerator": 1,
      "denominator": 1
    }
  },
  {
    "action": "execute_pt",
    "unit": "003",
    "bar_index": 15,
    "pt_name": "alto_flute_winds_b26_1761512669012_4b9e",
    "N": 1,
    "seeds": {
      "time": 4,
      "duration": 8,
      "pitch": 74,
      "velocity": 50,
      "numerator": 3,
      "denominator": 4
    },
    "sample_counts": {
      "time": 1,
      "duration": 1,
      "pitch": 1,
      "velocity": 1,
      "numerator": 1,
      "denominator": 1
    }
  },
  {
    "action": "execute_pt",
    "unit": "003",
    "bar_index": 15,
    "pt_name": "bass_clarinet_winds_b26_1761512669012_c631",
    "N": 1,
    "seeds": {
      "time": 4,
      "duration": 8,
      "pitch": 60,
      "velocity": 46,
      "numerator": 3,
      "denominator": 4
    },
    "sample_counts": {
      "time": 1,
      "duration": 1,
      "pitch": 1,
      "velocity": 1,
      "numerator": 1,
      "denominator": 1
    }
  },
  {
    "action": "execute_pt",
    "unit": "003",
    "bar_index": 15,
    "pt_name": "trumpet_winds_b26_1761512669012_ef19",
    "N": 1,
    "seeds": {
      "time": 4,
      "duration": 8,
      "pitch": 71,
      "velocity": 52,
      "numerator": 3,
      "denominator": 4
    },
    "sample_counts": {
      "time": 1,
      "duration": 1,
      "pitch": 1,
      "velocity": 1,
      "numerator": 1,
      "denominator": 1
    }
  },
  {
    "action": "execute_pt",
    "unit": "003",
    "bar_index": 15,
    "pt_name": "violin_upper_b26_1761512669012_86c6",
    "N": 2,
    "seeds": {
      "time": 0,
      "duration": 4,
      "pitch": 72,
      "velocity": 47,
      "numerator": 3,
      "denominator": 4
    },
    "sample_counts": {
      "time": 2,
      "duration": 2,
      "pitch": 2,
      "velocity": 2,
      "numerator": 2,
      "denominator": 2
    }
  },
  {
    "action": "execute_pt",
    "unit": "003",
    "bar_index": 15,
    "pt_name": "cello_middle_b26_1761512669012_d286",
    "N": 2,
    "seeds": {
      "time": 0,
      "duration": 4,
      "pitch": 60,
      "velocity": 45,
      "numerator": 3,
      "denominator": 4
    },
    "sample_counts": {
      "time": 2,
      "duration": 2,
      "pitch": 2,
      "velocity": 2,
      "numerator": 2,
      "denominator": 2
    }
  },
  {
    "action": "execute_pt",
    "unit": "003",
    "bar_index": 15,
    "pt_name": "double_bass_root_b26_1761512669012_a4e4",
    "N": 2,
    "seeds": {
      "time": 0,
      "duration": 4,
      "pitch": 52,
      "velocity": 43,
      "numerator": 3,
      "denominator": 4
    },
    "sample_counts": {
      "time": 2,
      "duration": 2,
      "pitch": 2,
      "velocity": 2,
      "numerator": 2,
      "denominator": 2
    }
  },
  {
    "action": "execute_pt",
    "unit": "003",
    "bar_index": 16,
    "pt_name": "alto_flute_winds_b33_1761512676863_e0a5",
    "N": 1,
    "seeds": {
      "time": 0,
      "duration": 8,
      "pitch": 72,
      "velocity": 50,
      "numerator": 3,
      "denominator": 4
    },
    "sample_counts": {
      "time": 1,
      "duration": 1,
      "pitch": 1,
      "velocity": 1,
      "numerator": 1,
      "denominator": 1
    }
  },
  {
    "action": "execute_pt",
    "unit": "003",
    "bar_index": 16,
    "pt_name": "bass_clarinet_winds_b33_1761512676863_7605",
    "N": 1,
    "seeds": {
      "time": 0,
      "duration": 8,
      "pitch": 58,
      "velocity": 46,
      "numerator": 3,
      "denominator": 4
    },
    "sample_counts": {
      "time": 1,
      "duration": 1,
      "pitch": 1,
      "velocity": 1,
      "numerator": 1,
      "denominator": 1
    }
  },
  {
    "action": "execute_pt",
    "unit": "003",
    "bar_index": 16,
    "pt_name": "trumpet_winds_b33_1761512676863_cb51",
    "N": 1,
    "seeds": {
      "time": 0,
      "duration": 8,
      "pitch": 69,
      "velocity": 52,
      "numerator": 3,
      "denominator": 4
    },
    "sample_counts": {
      "time": 1,
      "duration": 1,
      "pitch": 1,
      "velocity": 1,
      "numerator": 1,
      "denominator": 1
    }
  },
  {
    "action": "execute_pt",
    "unit": "003",
    "bar_index": 16,
    "pt_name": "violin_upper_b33_1761512676863_dca3",
    "N": 1,
    "seeds": {
      "time": 4,
      "duration": 8,
      "pitch": 69,
      "velocity": 48,
      "numerator": 3,
      "denominator": 4
    },
    "sample_counts": {
      "time": 1,
      "duration": 1,
      "pitch": 1,
      "velocity": 1,
      "numerator": 1,
      "denominator": 1
    }
  },
  {
    "action": "execute_pt",
    "unit": "003",
    "bar_index": 16,
    "pt_name": "cello_middle_b33_1761512676863_6c12",
    "N": 1,
    "seeds": {
      "time": 4,
      "duration": 8,
      "pitch": 51,
      "velocity": 46,
      "numerator": 3,
      "denominator": 4
    },
    "sample_counts": {
      "time": 1,
      "duration": 1,
      "pitch": 1,
      "velocity": 1,
      "numerator": 1,
      "denominator": 1
    }
  },
  {
    "action": "execute_pt",
    "unit": "003",
    "bar_index": 16,
    "pt_name": "double_bass_root_b33_1761512676863_1605",
    "N": 1,
    "seeds": {
      "time": 4,
      "duration": 8,
      "pitch": 47,
      "velocity": 44,
      "numerator": 3,
      "denominator": 4
    },
    "sample_counts": {
      "time": 1,
      "duration": 1,
      "pitch": 1,
      "velocity": 1,
      "numerator": 1,
      "denominator": 1
    }
  },
  {
    "action": "execute_pt",
    "unit": "004",
    "bar_index": 1,
    "pt_name": "alto_flute_winds_b37_1761513357938_6121",
    "N": 2,
    "seeds": {
      "time": 0,
      "duration": 8,
      "pitch": 74,
      "velocity": 52,
      "numerator": 3,
      "denominator": 4
    },
    "sample_counts": {
      "time": 2,
      "duration": 2,
      "pitch": 2,
      "velocity": 2,
      "numerator": 2,
      "denominator": 2
    }
  },
  {
    "action": "execute_pt",
    "unit": "004",
    "bar_index": 1,
    "pt_name": "bass_clarinet_winds_b37_1761513357938_7eb9",
    "N": 2,
    "seeds": {
      "time": 0,
      "duration": 8,
      "pitch": 55,
      "velocity": 48,
      "numerator": 3,
      "denominator": 4
    },
    "sample_counts": {
      "time": 2,
      "duration": 2,
      "pitch": 2,
      "velocity": 2,
      "numerator": 2,
      "denominator": 2
    }
  },
  {
    "action": "execute_pt",
    "unit": "004",
    "bar_index": 1,
    "pt_name": "trumpet_winds_b37_1761513357938_53c6",
    "N": 2,
    "seeds": {
      "time": 0,
      "duration": 8,
      "pitch": 79,
      "velocity": 54,
      "numerator": 3,
      "denominator": 4
    },
    "sample_counts": {
      "time": 2,
      "duration": 2,
      "pitch": 2,
      "velocity": 2,
      "numerator": 2,
      "denominator": 2
    }
  },
  {
    "action": "execute_pt",
    "unit": "004",
    "bar_index": 1,
    "pt_name": "violin_upper_b37_1761513357938_e752",
    "N": 1,
    "seeds": {
      "time": 0,
      "duration": 12,
      "pitch": 72,
      "velocity": 48,
      "numerator": 3,
      "denominator": 4
    },
    "sample_counts": {
      "time": 1,
      "duration": 1,
      "pitch": 1,
      "velocity": 1,
      "numerator": 1,
      "denominator": 1
    }
  },
  {
    "action": "execute_pt",
    "unit": "004",
    "bar_index": 1,
    "pt_name": "cello_middle_b37_1761513357938_2f43",
    "N": 1,
    "seeds": {
      "time": 0,
      "duration": 12,
      "pitch": 55,
      "velocity": 46,
      "numerator": 3,
      "denominator": 4
    },
    "sample_counts": {
      "time": 1,
      "duration": 1,
      "pitch": 1,
      "velocity": 1,
      "numerator": 1,
      "denominator": 1
    }
  },
  {
    "action": "execute_pt",
    "unit": "004",
    "bar_index": 1,
    "pt_name": "double_bass_root_b37_1761513357938_7029",
    "N": 1,
    "seeds": {
      "time": 0,
      "duration": 12,
      "pitch": 43,
      "velocity": 44,
      "numerator": 3,
      "denominator": 4
    },
    "sample_counts": {
      "time": 1,
      "duration": 1,
      "pitch": 1,
      "velocity": 1,
      "numerator": 1,
      "denominator": 1
    }
  },
  {
    "action": "execute_pt",
    "unit": "004",
    "bar_index": 2,
    "pt_name": "alto_flute_winds_b38_1761513370358_b153",
    "N": 2,
    "seeds": {
      "time": 0,
      "duration": 4,
      "pitch": 74,
      "velocity": 52,
      "numerator": 3,
      "denominator": 4
    },
    "sample_counts": {
      "time": 2,
      "duration": 2,
      "pitch": 2,
      "velocity": 2,
      "numerator": 2,
      "denominator": 2
    }
  },
  {
    "action": "execute_pt",
    "unit": "004",
    "bar_index": 2,
    "pt_name": "bass_clarinet_winds_b38_1761513370358_c771",
    "N": 2,
    "seeds": {
      "time": 0,
      "duration": 4,
      "pitch": 57,
      "velocity": 48,
      "numerator": 3,
      "denominator": 4
    },
    "sample_counts": {
      "time": 2,
      "duration": 2,
      "pitch": 2,
      "velocity": 2,
      "numerator": 2,
      "denominator": 2
    }
  },
  {
    "action": "execute_pt",
    "unit": "004",
    "bar_index": 2,
    "pt_name": "trumpet_winds_b38_1761513370358_e942",
    "N": 2,
    "seeds": {
      "time": 0,
      "duration": 4,
      "pitch": 76,
      "velocity": 54,
      "numerator": 3,
      "denominator": 4
    },
    "sample_counts": {
      "time": 2,
      "duration": 2,
      "pitch": 2,
      "velocity": 2,
      "numerator": 2,
      "denominator": 2
    }
  },
  {
    "action": "execute_pt",
    "unit": "004",
    "bar_index": 2,
    "pt_name": "violin_upper_b38_1761513370358_18ee",
    "N": 2,
    "seeds": {
      "time": 0,
      "duration": 8,
      "pitch": 74,
      "velocity": 50,
      "numerator": 3,
      "denominator": 4
    },
    "sample_counts": {
      "time": 2,
      "duration": 2,
      "pitch": 2,
      "velocity": 2,
      "numerator": 2,
      "denominator": 2
    }
  },
  {
    "action": "execute_pt",
    "unit": "004",
    "bar_index": 2,
    "pt_name": "cello_middle_b38_1761513370358_29a4",
    "N": 2,
    "seeds": {
      "time": 0,
      "duration": 8,
      "pitch": 59,
      "velocity": 46,
      "numerator": 3,
      "denominator": 4
    },
    "sample_counts": {
      "time": 2,
      "duration": 2,
      "pitch": 2,
      "velocity": 2,
      "numerator": 2,
      "denominator": 2
    }
  },
  {
    "action": "execute_pt",
    "unit": "004",
    "bar_index": 2,
    "pt_name": "double_bass_root_b38_1761513370358_7430",
    "N": 2,
    "seeds": {
      "time": 0,
      "duration": 8,
      "pitch": 47,
      "velocity": 44,
      "numerator": 3,
      "denominator": 4
    },
    "sample_counts": {
      "time": 2,
      "duration": 2,
      "pitch": 2,
      "velocity": 2,
      "numerator": 2,
      "denominator": 2
    }
  },
  {
    "action": "execute_pt",
    "unit": "004",
    "bar_index": 3,
    "pt_name": "alto_flute_winds_b39_1761513378359_354a",
    "N": 1,
    "seeds": {
      "time": 0,
      "duration": 12,
      "pitch": 78,
      "velocity": 52,
      "numerator": 3,
      "denominator": 4
    },
    "sample_counts": {
      "time": 1,
      "duration": 1,
      "pitch": 1,
      "velocity": 1,
      "numerator": 1,
      "denominator": 1
    }
  },
  {
    "action": "execute_pt",
    "unit": "004",
    "bar_index": 3,
    "pt_name": "bass_clarinet_winds_b39_1761513378359_0865",
    "N": 1,
    "seeds": {
      "time": 0,
      "duration": 12,
      "pitch": 52,
      "velocity": 48,
      "numerator": 3,
      "denominator": 4
    },
    "sample_counts": {
      "time": 1,
      "duration": 1,
      "pitch": 1,
      "velocity": 1,
      "numerator": 1,
      "denominator": 1
    }
  },
  {
    "action": "execute_pt",
    "unit": "004",
    "bar_index": 3,
    "pt_name": "trumpet_winds_b39_1761513378359_9fac",
    "N": 1,
    "seeds": {
      "time": 0,
      "duration": 12,
      "pitch": 71,
      "velocity": 54,
      "numerator": 3,
      "denominator": 4
    },
    "sample_counts": {
      "time": 1,
      "duration": 1,
      "pitch": 1,
      "velocity": 1,
      "numerator": 1,
      "denominator": 1
    }
  },
  {
    "action": "execute_pt",
    "unit": "004",
    "bar_index": 3,
    "pt_name": "violin_upper_b39_1761513378359_8d0d",
    "N": 2,
    "seeds": {
      "time": 0,
      "duration": 4,
      "pitch": 69,
      "velocity": 48,
      "numerator": 3,
      "denominator": 4
    },
    "sample_counts": {
      "time": 2,
      "duration": 2,
      "pitch": 2,
      "velocity": 2,
      "numerator": 2,
      "denominator": 2
    }
  },
  {
    "action": "execute_pt",
    "unit": "004",
    "bar_index": 3,
    "pt_name": "cello_middle_b39_1761513378359_3f02",
    "N": 2,
    "seeds": {
      "time": 0,
      "duration": 4,
      "pitch": 57,
      "velocity": 46,
      "numerator": 3,
      "denominator": 4
    },
    "sample_counts": {
      "time": 2,
      "duration": 2,
      "pitch": 2,
      "velocity": 2,
      "numerator": 2,
      "denominator": 2
    }
  },
  {
    "action": "execute_pt",
    "unit": "004",
    "bar_index": 3,
    "pt_name": "double_bass_root_b39_1761513378359_b88f",
    "N": 2,
    "seeds": {
      "time": 0,
      "duration": 4,
      "pitch": 45,
      "velocity": 44,
      "numerator": 3,
      "denominator": 4
    },
    "sample_counts": {
      "time": 2,
      "duration": 2,
      "pitch": 2,
      "velocity": 2,
      "numerator": 2,
      "denominator": 2
    }
  },
  {
    "action": "execute_pt",
    "unit": "004",
    "bar_index": 4,
    "pt_name": "alto_flute_winds_b40_1761513385453_62dc",
    "N": 1,
    "seeds": {
      "time": 0,
      "duration": 8,
      "pitch": 79,
      "velocity": 52,
      "numerator": 3,
      "denominator": 4
    },
    "sample_counts": {
      "time": 1,
      "duration": 1,
      "pitch": 1,
      "velocity": 1,
      "numerator": 1,
      "denominator": 1
    }
  },
  {
    "action": "execute_pt",
    "unit": "004",
    "bar_index": 4,
    "pt_name": "bass_clarinet_winds_b40_1761513385453_9098",
    "N": 1,
    "seeds": {
      "time": 0,
      "duration": 8,
      "pitch": 55,
      "velocity": 48,
      "numerator": 3,
      "denominator": 4
    },
    "sample_counts": {
      "time": 1,
      "duration": 1,
      "pitch": 1,
      "velocity": 1,
      "numerator": 1,
      "denominator": 1
    }
  },
  {
    "action": "execute_pt",
    "unit": "004",
    "bar_index": 4,
    "pt_name": "trumpet_winds_b40_1761513385453_22b8",
    "N": 1,
    "seeds": {
      "time": 0,
      "duration": 8,
      "pitch": 74,
      "velocity": 54,
      "numerator": 3,
      "denominator": 4
    },
    "sample_counts": {
      "time": 1,
      "duration": 1,
      "pitch": 1,
      "velocity": 1,
      "numerator": 1,
      "denominator": 1
    }
  },
  {
    "action": "execute_pt",
    "unit": "004",
    "bar_index": 4,
    "pt_name": "violin_upper_b40_1761513385453_348b",
    "N": 1,
    "seeds": {
      "time": 0,
      "duration": 8,
      "pitch": 76,
      "velocity": 47,
      "numerator": 3,
      "denominator": 4
    },
    "sample_counts": {
      "time": 1,
      "duration": 1,
      "pitch": 1,
      "velocity": 1,
      "numerator": 1,
      "denominator": 1
    }
  },
  {
    "action": "execute_pt",
    "unit": "004",
    "bar_index": 4,
    "pt_name": "cello_middle_b40_1761513385453_797d",
    "N": 1,
    "seeds": {
      "time": 0,
      "duration": 8,
      "pitch": 60,
      "velocity": 45,
      "numerator": 3,
      "denominator": 4
    },
    "sample_counts": {
      "time": 1,
      "duration": 1,
      "pitch": 1,
      "velocity": 1,
      "numerator": 1,
      "denominator": 1
    }
  },
  {
    "action": "execute_pt",
    "unit": "004",
    "bar_index": 4,
    "pt_name": "double_bass_root_b40_1761513385453_781d",
    "N": 1,
    "seeds": {
      "time": 0,
      "duration": 8,
      "pitch": 48,
      "velocity": 43,
      "numerator": 3,
      "denominator": 4
    },
    "sample_counts": {
      "time": 1,
      "duration": 1,
      "pitch": 1,
      "velocity": 1,
      "numerator": 1,
      "denominator": 1
    }
  },
  {
    "action": "execute_pt",
    "unit": "004",
    "bar_index": 5,
    "pt_name": "alto_flute_winds_b41_1761513393424_77c2",
    "N": 2,
    "seeds": {
      "time": 0,
      "duration": 4,
      "pitch": 73,
      "velocity": 50,
      "numerator": 3,
      "denominator": 4
    },
    "sample_counts": {
      "time": 2,
      "duration": 2,
      "pitch": 2,
      "velocity": 2,
      "numerator": 2,
      "denominator": 2
    }
  },
  {
    "action": "execute_pt",
    "unit": "004",
    "bar_index": 5,
    "pt_name": "bass_clarinet_winds_b41_1761513393424_8c1f",
    "N": 2,
    "seeds": {
      "time": 0,
      "duration": 4,
      "pitch": 59,
      "velocity": 46,
      "numerator": 3,
      "denominator": 4
    },
    "sample_counts": {
      "time": 2,
      "duration": 2,
      "pitch": 2,
      "velocity": 2,
      "numerator": 2,
      "denominator": 2
    }
  },
  {
    "action": "execute_pt",
    "unit": "004",
    "bar_index": 5,
    "pt_name": "trumpet_winds_b41_1761513393424_32d2",
    "N": 2,
    "seeds": {
      "time": 0,
      "duration": 4,
      "pitch": 69,
      "velocity": 52,
      "numerator": 3,
      "denominator": 4
    },
    "sample_counts": {
      "time": 2,
      "duration": 2,
      "pitch": 2,
      "velocity": 2,
      "numerator": 2,
      "denominator": 2
    }
  },
  {
    "action": "execute_pt",
    "unit": "004",
    "bar_index": 5,
    "pt_name": "violin_upper_b41_1761513393424_38ea",
    "N": 1,
    "seeds": {
      "time": 4,
      "duration": 8,
      "pitch": 67,
      "velocity": 46,
      "numerator": 3,
      "denominator": 4
    },
    "sample_counts": {
      "time": 1,
      "duration": 1,
      "pitch": 1,
      "velocity": 1,
      "numerator": 1,
      "denominator": 1
    }
  },
  {
    "action": "execute_pt",
    "unit": "004",
    "bar_index": 5,
    "pt_name": "cello_middle_b41_1761513393424_a989",
    "N": 1,
    "seeds": {
      "time": 4,
      "duration": 8,
      "pitch": 55,
      "velocity": 44,
      "numerator": 3,
      "denominator": 4
    },
    "sample_counts": {
      "time": 1,
      "duration": 1,
      "pitch": 1,
      "velocity": 1,
      "numerator": 1,
      "denominator": 1
    }
  },
  {
    "action": "execute_pt",
    "unit": "004",
    "bar_index": 5,
    "pt_name": "double_bass_root_b41_1761513393424_b6a5",
    "N": 1,
    "seeds": {
      "time": 4,
      "duration": 8,
      "pitch": 43,
      "velocity": 42,
      "numerator": 3,
      "denominator": 4
    },
    "sample_counts": {
      "time": 1,
      "duration": 1,
      "pitch": 1,
      "velocity": 1,
      "numerator": 1,
      "denominator": 1
    }
  },
  {
    "action": "execute_pt",
    "unit": "004",
    "bar_index": 6,
    "pt_name": "alto_flute_winds_b42_1761513400466_7670",
    "N": 1,
    "seeds": {
      "time": 4,
      "duration": 8,
      "pitch": 76,
      "velocity": 50,
      "numerator": 3,
      "denominator": 4
    },
    "sample_counts": {
      "time": 1,
      "duration": 1,
      "pitch": 1,
      "velocity": 1,
      "numerator": 1,
      "denominator": 1
    }
  },
  {
    "action": "execute_pt",
    "unit": "004",
    "bar_index": 6,
    "pt_name": "bass_clarinet_winds_b42_1761513400466_69c0",
    "N": 1,
    "seeds": {
      "time": 4,
      "duration": 8,
      "pitch": 62,
      "velocity": 46,
      "numerator": 3,
      "denominator": 4
    },
    "sample_counts": {
      "time": 1,
      "duration": 1,
      "pitch": 1,
      "velocity": 1,
      "numerator": 1,
      "denominator": 1
    }
  },
  {
    "action": "execute_pt",
    "unit": "004",
    "bar_index": 6,
    "pt_name": "trumpet_winds_b42_1761513400466_8d42",
    "N": 1,
    "seeds": {
      "time": 4,
      "duration": 8,
      "pitch": 74,
      "velocity": 52,
      "numerator": 3,
      "denominator": 4
    },
    "sample_counts": {
      "time": 1,
      "duration": 1,
      "pitch": 1,
      "velocity": 1,
      "numerator": 1,
      "denominator": 1
    }
  },
  {
    "action": "execute_pt",
    "unit": "004",
    "bar_index": 6,
    "pt_name": "violin_upper_b42_1761513400466_08b7",
    "N": 2,
    "seeds": {
      "time": 0,
      "duration": 8,
      "pitch": 71,
      "velocity": 48,
      "numerator": 3,
      "denominator": 4
    },
    "sample_counts": {
      "time": 2,
      "duration": 2,
      "pitch": 2,
      "velocity": 2,
      "numerator": 2,
      "denominator": 2
    }
  },
  {
    "action": "execute_pt",
    "unit": "004",
    "bar_index": 6,
    "pt_name": "cello_middle_b42_1761513400466_0192",
    "N": 2,
    "seeds": {
      "time": 0,
      "duration": 8,
      "pitch": 59,
      "velocity": 46,
      "numerator": 3,
      "denominator": 4
    },
    "sample_counts": {
      "time": 2,
      "duration": 2,
      "pitch": 2,
      "velocity": 2,
      "numerator": 2,
      "denominator": 2
    }
  },
  {
    "action": "execute_pt",
    "unit": "004",
    "bar_index": 6,
    "pt_name": "double_bass_root_b42_1761513400466_3452",
    "N": 2,
    "seeds": {
      "time": 0,
      "duration": 8,
      "pitch": 43,
      "velocity": 44,
      "numerator": 3,
      "denominator": 4
    },
    "sample_counts": {
      "time": 2,
      "duration": 2,
      "pitch": 2,
      "velocity": 2,
      "numerator": 2,
      "denominator": 2
    }
  },
  {
    "action": "execute_pt",
    "unit": "004",
    "bar_index": 7,
    "pt_name": "alto_flute_winds_b43_1761513408496_6007",
    "N": 2,
    "seeds": {
      "time": 0,
      "duration": 8,
      "pitch": 77,
      "velocity": 50,
      "numerator": 3,
      "denominator": 4
    },
    "sample_counts": {
      "time": 2,
      "duration": 2,
      "pitch": 2,
      "velocity": 2,
      "numerator": 2,
      "denominator": 2
    }
  },
  {
    "action": "execute_pt",
    "unit": "004",
    "bar_index": 7,
    "pt_name": "bass_clarinet_winds_b43_1761513408496_865d",
    "N": 2,
    "seeds": {
      "time": 0,
      "duration": 8,
      "pitch": 57,
      "velocity": 46,
      "numerator": 3,
      "denominator": 4
    },
    "sample_counts": {
      "time": 2,
      "duration": 2,
      "pitch": 2,
      "velocity": 2,
      "numerator": 2,
      "denominator": 2
    }
  },
  {
    "action": "execute_pt",
    "unit": "004",
    "bar_index": 7,
    "pt_name": "trumpet_winds_b43_1761513408496_b332",
    "N": 2,
    "seeds": {
      "time": 0,
      "duration": 8,
      "pitch": 79,
      "velocity": 52,
      "numerator": 3,
      "denominator": 4
    },
    "sample_counts": {
      "time": 2,
      "duration": 2,
      "pitch": 2,
      "velocity": 2,
      "numerator": 2,
      "denominator": 2
    }
  },
  {
    "action": "execute_pt",
    "unit": "004",
    "bar_index": 7,
    "pt_name": "violin_upper_b43_1761513408496_2748",
    "N": 1,
    "seeds": {
      "time": 0,
      "duration": 12,
      "pitch": 73,
      "velocity": 48,
      "numerator": 3,
      "denominator": 4
    },
    "sample_counts": {
      "time": 1,
      "duration": 1,
      "pitch": 1,
      "velocity": 1,
      "numerator": 1,
      "denominator": 1
    }
  },
  {
    "action": "execute_pt",
    "unit": "004",
    "bar_index": 7,
    "pt_name": "cello_middle_b43_1761513408496_4610",
    "N": 1,
    "seeds": {
      "time": 0,
      "duration": 12,
      "pitch": 57,
      "velocity": 46,
      "numerator": 3,
      "denominator": 4
    },
    "sample_counts": {
      "time": 1,
      "duration": 1,
      "pitch": 1,
      "velocity": 1,
      "numerator": 1,
      "denominator": 1
    }
  },
  {
    "action": "execute_pt",
    "unit": "004",
    "bar_index": 7,
    "pt_name": "double_bass_root_b43_1761513408496_4fd4",
    "N": 1,
    "seeds": {
      "time": 0,
      "duration": 12,
      "pitch": 45,
      "velocity": 44,
      "numerator": 3,
      "denominator": 4
    },
    "sample_counts": {
      "time": 1,
      "duration": 1,
      "pitch": 1,
      "velocity": 1,
      "numerator": 1,
      "denominator": 1
    }
  },
  {
    "action": "execute_pt",
    "unit": "004",
    "bar_index": 8,
    "pt_name": "alto_flute_winds_b44_1761513416223_c8a1",
    "N": 1,
    "seeds": {
      "time": 0,
      "duration": 12,
      "pitch": 74,
      "velocity": 50,
      "numerator": 3,
      "denominator": 4
    },
    "sample_counts": {
      "time": 1,
      "duration": 1,
      "pitch": 1,
      "velocity": 1,
      "numerator": 1,
      "denominator": 1
    }
  },
  {
    "action": "execute_pt",
    "unit": "004",
    "bar_index": 8,
    "pt_name": "bass_clarinet_winds_b44_1761513416224_2ffa",
    "N": 1,
    "seeds": {
      "time": 0,
      "duration": 12,
      "pitch": 50,
      "velocity": 46,
      "numerator": 3,
      "denominator": 4
    },
    "sample_counts": {
      "time": 1,
      "duration": 1,
      "pitch": 1,
      "velocity": 1,
      "numerator": 1,
      "denominator": 1
    }
  },
  {
    "action": "execute_pt",
    "unit": "004",
    "bar_index": 8,
    "pt_name": "trumpet_winds_b44_1761513416224_0d30",
    "N": 1,
    "seeds": {
      "time": 0,
      "duration": 12,
      "pitch": 78,
      "velocity": 52,
      "numerator": 3,
      "denominator": 4
    },
    "sample_counts": {
      "time": 1,
      "duration": 1,
      "pitch": 1,
      "velocity": 1,
      "numerator": 1,
      "denominator": 1
    }
  },
  {
    "action": "execute_pt",
    "unit": "004",
    "bar_index": 8,
    "pt_name": "violin_upper_b44_1761513416224_bb83",
    "N": 2,
    "seeds": {
      "time": 0,
      "duration": 4,
      "pitch": 79,
      "velocity": 47,
      "numerator": 3,
      "denominator": 4
    },
    "sample_counts": {
      "time": 2,
      "duration": 2,
      "pitch": 2,
      "velocity": 2,
      "numerator": 2,
      "denominator": 2
    }
  },
  {
    "action": "execute_pt",
    "unit": "004",
    "bar_index": 8,
    "pt_name": "cello_middle_b44_1761513416224_21b5",
    "N": 2,
    "seeds": {
      "time": 0,
      "duration": 4,
      "pitch": 64,
      "velocity": 45,
      "numerator": 3,
      "denominator": 4
    },
    "sample_counts": {
      "time": 2,
      "duration": 2,
      "pitch": 2,
      "velocity": 2,
      "numerator": 2,
      "denominator": 2
    }
  },
  {
    "action": "execute_pt",
    "unit": "004",
    "bar_index": 8,
    "pt_name": "double_bass_root_b44_1761513416224_04c9",
    "N": 2,
    "seeds": {
      "time": 0,
      "duration": 4,
      "pitch": 50,
      "velocity": 43,
      "numerator": 3,
      "denominator": 4
    },
    "sample_counts": {
      "time": 2,
      "duration": 2,
      "pitch": 2,
      "velocity": 2,
      "numerator": 2,
      "denominator": 2
    }
  },
  {
    "action": "execute_pt",
    "unit": "004",
    "bar_index": 9,
    "pt_name": "alto_flute_winds_b45_1761513423753_9dab",
    "N": 2,
    "seeds": {
      "time": 0,
      "duration": 4,
      "pitch": 69,
      "velocity": 50,
      "numerator": 3,
      "denominator": 4
    },
    "sample_counts": {
      "time": 2,
      "duration": 2,
      "pitch": 2,
      "velocity": 2,
      "numerator": 2,
      "denominator": 2
    }
  },
  {
    "action": "execute_pt",
    "unit": "004",
    "bar_index": 9,
    "pt_name": "bass_clarinet_winds_b45_1761513423753_1480",
    "N": 2,
    "seeds": {
      "time": 0,
      "duration": 4,
      "pitch": 55,
      "velocity": 46,
      "numerator": 3,
      "denominator": 4
    },
    "sample_counts": {
      "time": 2,
      "duration": 2,
      "pitch": 2,
      "velocity": 2,
      "numerator": 2,
      "denominator": 2
    }
  },
  {
    "action": "execute_pt",
    "unit": "004",
    "bar_index": 9,
    "pt_name": "trumpet_winds_b45_1761513423753_cb66",
    "N": 2,
    "seeds": {
      "time": 0,
      "duration": 4,
      "pitch": 70,
      "velocity": 52,
      "numerator": 3,
      "denominator": 4
    },
    "sample_counts": {
      "time": 2,
      "duration": 2,
      "pitch": 2,
      "velocity": 2,
      "numerator": 2,
      "denominator": 2
    }
  },
  {
    "action": "execute_pt",
    "unit": "004",
    "bar_index": 9,
    "pt_name": "violin_upper_b45_1761513423753_7139",
    "N": 1,
    "seeds": {
      "time": 0,
      "duration": 8,
      "pitch": 74,
      "velocity": 47,
      "numerator": 3,
      "denominator": 4
    },
    "sample_counts": {
      "time": 1,
      "duration": 1,
      "pitch": 1,
      "velocity": 1,
      "numerator": 1,
      "denominator": 1
    }
  },
  {
    "action": "execute_pt",
    "unit": "004",
    "bar_index": 9,
    "pt_name": "cello_middle_b45_1761513423753_990a",
    "N": 1,
    "seeds": {
      "time": 0,
      "duration": 8,
      "pitch": 62,
      "velocity": 45,
      "numerator": 3,
      "denominator": 4
    },
    "sample_counts": {
      "time": 1,
      "duration": 1,
      "pitch": 1,
      "velocity": 1,
      "numerator": 1,
      "denominator": 1
    }
  },
  {
    "action": "execute_pt",
    "unit": "004",
    "bar_index": 9,
    "pt_name": "double_bass_root_b45_1761513423753_fedf",
    "N": 1,
    "seeds": {
      "time": 0,
      "duration": 8,
      "pitch": 50,
      "velocity": 43,
      "numerator": 3,
      "denominator": 4
    },
    "sample_counts": {
      "time": 1,
      "duration": 1,
      "pitch": 1,
      "velocity": 1,
      "numerator": 1,
      "denominator": 1
    }
  },
  {
    "action": "execute_pt",
    "unit": "004",
    "bar_index": 10,
    "pt_name": "alto_flute_winds_b46_1761513431501_28bd",
    "N": 1,
    "seeds": {
      "time": 0,
      "duration": 8,
      "pitch": 81,
      "velocity": 50,
      "numerator": 3,
      "denominator": 4
    },
    "sample_counts": {
      "time": 1,
      "duration": 1,
      "pitch": 1,
      "velocity": 1,
      "numerator": 1,
      "denominator": 1
    }
  },
  {
    "action": "execute_pt",
    "unit": "004",
    "bar_index": 10,
    "pt_name": "bass_clarinet_winds_b46_1761513431501_7364",
    "N": 1,
    "seeds": {
      "time": 0,
      "duration": 8,
      "pitch": 62,
      "velocity": 46,
      "numerator": 3,
      "denominator": 4
    },
    "sample_counts": {
      "time": 1,
      "duration": 1,
      "pitch": 1,
      "velocity": 1,
      "numerator": 1,
      "denominator": 1
    }
  },
  {
    "action": "execute_pt",
    "unit": "004",
    "bar_index": 10,
    "pt_name": "trumpet_winds_b46_1761513431501_7dd1",
    "N": 1,
    "seeds": {
      "time": 0,
      "duration": 8,
      "pitch": 79,
      "velocity": 52,
      "numerator": 3,
      "denominator": 4
    },
    "sample_counts": {
      "time": 1,
      "duration": 1,
      "pitch": 1,
      "velocity": 1,
      "numerator": 1,
      "denominator": 1
    }
  },
  {
    "action": "execute_pt",
    "unit": "004",
    "bar_index": 10,
    "pt_name": "violin_upper_b46_1761513431501_2e00",
    "N": 2,
    "seeds": {
      "time": 0,
      "duration": 8,
      "pitch": 76,
      "velocity": 47,
      "numerator": 3,
      "denominator": 4
    },
    "sample_counts": {
      "time": 2,
      "duration": 2,
      "pitch": 2,
      "velocity": 2,
      "numerator": 2,
      "denominator": 2
    }
  },
  {
    "action": "execute_pt",
    "unit": "004",
    "bar_index": 10,
    "pt_name": "cello_middle_b46_1761513431501_ae5a",
    "N": 2,
    "seeds": {
      "time": 0,
      "duration": 8,
      "pitch": 64,
      "velocity": 45,
      "numerator": 3,
      "denominator": 4
    },
    "sample_counts": {
      "time": 2,
      "duration": 2,
      "pitch": 2,
      "velocity": 2,
      "numerator": 2,
      "denominator": 2
    }
  },
  {
    "action": "execute_pt",
    "unit": "004",
    "bar_index": 10,
    "pt_name": "double_bass_root_b46_1761513431501_f2e8",
    "N": 2,
    "seeds": {
      "time": 0,
      "duration": 8,
      "pitch": 52,
      "velocity": 43,
      "numerator": 3,
      "denominator": 4
    },
    "sample_counts": {
      "time": 2,
      "duration": 2,
      "pitch": 2,
      "velocity": 2,
      "numerator": 2,
      "denominator": 2
    }
  },
  {
    "action": "execute_pt",
    "unit": "004",
    "bar_index": 11,
    "pt_name": "alto_flute_winds_b47_1761513439279_d436",
    "N": 2,
    "seeds": {
      "time": 0,
      "duration": 8,
      "pitch": 76,
      "velocity": 50,
      "numerator": 3,
      "denominator": 4
    },
    "sample_counts": {
      "time": 2,
      "duration": 2,
      "pitch": 2,
      "velocity": 2,
      "numerator": 2,
      "denominator": 2
    }
  },
  {
    "action": "execute_pt",
    "unit": "004",
    "bar_index": 11,
    "pt_name": "bass_clarinet_winds_b47_1761513439279_3375",
    "N": 2,
    "seeds": {
      "time": 0,
      "duration": 8,
      "pitch": 58,
      "velocity": 46,
      "numerator": 3,
      "denominator": 4
    },
    "sample_counts": {
      "time": 2,
      "duration": 2,
      "pitch": 2,
      "velocity": 2,
      "numerator": 2,
      "denominator": 2
    }
  },
  {
    "action": "execute_pt",
    "unit": "004",
    "bar_index": 11,
    "pt_name": "trumpet_winds_b47_1761513439279_12ee",
    "N": 2,
    "seeds": {
      "time": 0,
      "duration": 8,
      "pitch": 74,
      "velocity": 52,
      "numerator": 3,
      "denominator": 4
    },
    "sample_counts": {
      "time": 2,
      "duration": 2,
      "pitch": 2,
      "velocity": 2,
      "numerator": 2,
      "denominator": 2
    }
  },
  {
    "action": "execute_pt",
    "unit": "004",
    "bar_index": 11,
    "pt_name": "violin_upper_b47_1761513439279_7a15",
    "N": 1,
    "seeds": {
      "time": 0,
      "duration": 12,
      "pitch": 71,
      "velocity": 48,
      "numerator": 3,
      "denominator": 4
    },
    "sample_counts": {
      "time": 1,
      "duration": 1,
      "pitch": 1,
      "velocity": 1,
      "numerator": 1,
      "denominator": 1
    }
  },
  {
    "action": "execute_pt",
    "unit": "004",
    "bar_index": 11,
    "pt_name": "cello_middle_b47_1761513439279_8566",
    "N": 1,
    "seeds": {
      "time": 0,
      "duration": 12,
      "pitch": 59,
      "velocity": 46,
      "numerator": 3,
      "denominator": 4
    },
    "sample_counts": {
      "time": 1,
      "duration": 1,
      "pitch": 1,
      "velocity": 1,
      "numerator": 1,
      "denominator": 1
    }
  },
  {
    "action": "execute_pt",
    "unit": "004",
    "bar_index": 11,
    "pt_name": "double_bass_root_b47_1761513439279_f6c1",
    "N": 1,
    "seeds": {
      "time": 0,
      "duration": 12,
      "pitch": 47,
      "velocity": 44,
      "numerator": 3,
      "denominator": 4
    },
    "sample_counts": {
      "time": 1,
      "duration": 1,
      "pitch": 1,
      "velocity": 1,
      "numerator": 1,
      "denominator": 1
    }
  },
  {
    "action": "execute_pt",
    "unit": "004",
    "bar_index": 12,
    "pt_name": "alto_flute_winds_b48_1761513446533_a067",
    "N": 1,
    "seeds": {
      "time": 0,
      "duration": 12,
      "pitch": 74,
      "velocity": 50,
      "numerator": 3,
      "denominator": 4
    },
    "sample_counts": {
      "time": 1,
      "duration": 1,
      "pitch": 1,
      "velocity": 1,
      "numerator": 1,
      "denominator": 1
    }
  },
  {
    "action": "execute_pt",
    "unit": "004",
    "bar_index": 12,
    "pt_name": "bass_clarinet_winds_b48_1761513446533_adea",
    "N": 1,
    "seeds": {
      "time": 0,
      "duration": 12,
      "pitch": 55,
      "velocity": 46,
      "numerator": 3,
      "denominator": 4
    },
    "sample_counts": {
      "time": 1,
      "duration": 1,
      "pitch": 1,
      "velocity": 1,
      "numerator": 1,
      "denominator": 1
    }
  },
  {
    "action": "execute_pt",
    "unit": "004",
    "bar_index": 12,
    "pt_name": "trumpet_winds_b48_1761513446533_91cb",
    "N": 1,
    "seeds": {
      "time": 0,
      "duration": 12,
      "pitch": 71,
      "velocity": 52,
      "numerator": 3,
      "denominator": 4
    },
    "sample_counts": {
      "time": 1,
      "duration": 1,
      "pitch": 1,
      "velocity": 1,
      "numerator": 1,
      "denominator": 1
    }
  },
  {
    "action": "execute_pt",
    "unit": "004",
    "bar_index": 12,
    "pt_name": "violin_upper_b48_1761513446533_fb01",
    "N": 2,
    "seeds": {
      "time": 0,
      "duration": 4,
      "pitch": 67,
      "velocity": 48,
      "numerator": 3,
      "denominator": 4
    },
    "sample_counts": {
      "time": 2,
      "duration": 2,
      "pitch": 2,
      "velocity": 2,
      "numerator": 2,
      "denominator": 2
    }
  },
  {
    "action": "execute_pt",
    "unit": "004",
    "bar_index": 12,
    "pt_name": "cello_middle_b48_1761513446533_808d",
    "N": 2,
    "seeds": {
      "time": 0,
      "duration": 4,
      "pitch": 55,
      "velocity": 46,
      "numerator": 3,
      "denominator": 4
    },
    "sample_counts": {
      "time": 2,
      "duration": 2,
      "pitch": 2,
      "velocity": 2,
      "numerator": 2,
      "denominator": 2
    }
  },
  {
    "action": "execute_pt",
    "unit": "004",
    "bar_index": 12,
    "pt_name": "double_bass_root_b48_1761513446533_1de8",
    "N": 2,
    "seeds": {
      "time": 0,
      "duration": 4,
      "pitch": 43,
      "velocity": 44,
      "numerator": 3,
      "denominator": 4
    },
    "sample_counts": {
      "time": 2,
      "duration": 2,
      "pitch": 2,
      "velocity": 2,
      "numerator": 2,
      "denominator": 2
    }
  },
  {
    "action": "execute_pt",
    "unit": "004",
    "bar_index": 13,
    "pt_name": "alto_flute_winds_b37_1761513454476_60d1",
    "N": 1,
    "seeds": {
      "time": 0,
      "duration": 12,
      "pitch": 0,
      "velocity": 0,
      "numerator": 3,
      "denominator": 4
    },
    "sample_counts": {
      "time": 1,
      "duration": 1,
      "pitch": 1,
      "velocity": 1,
      "numerator": 1,
      "denominator": 1
    }
  },
  {
    "action": "execute_pt",
    "unit": "004",
    "bar_index": 13,
    "pt_name": "bass_clarinet_winds_b37_1761513454476_1a89",
    "N": 1,
    "seeds": {
      "time": 0,
      "duration": 12,
      "pitch": 0,
      "velocity": 0,
      "numerator": 3,
      "denominator": 4
    },
    "sample_counts": {
      "time": 1,
      "duration": 1,
      "pitch": 1,
      "velocity": 1,
      "numerator": 1,
      "denominator": 1
    }
  },
  {
    "action": "execute_pt",
    "unit": "004",
    "bar_index": 13,
    "pt_name": "trumpet_winds_b37_1761513454477_e8ed",
    "N": 1,
    "seeds": {
      "time": 0,
      "duration": 12,
      "pitch": 0,
      "velocity": 0,
      "numerator": 3,
      "denominator": 4
    },
    "sample_counts": {
      "time": 1,
      "duration": 1,
      "pitch": 1,
      "velocity": 1,
      "numerator": 1,
      "denominator": 1
    }
  },
  {
    "action": "execute_pt",
    "unit": "004",
    "bar_index": 13,
    "pt_name": "violin_upper_b37_1761513454477_bf24",
    "N": 1,
    "seeds": {
      "time": 0,
      "duration": 12,
      "pitch": 72,
      "velocity": 48,
      "numerator": 3,
      "denominator": 4
    },
    "sample_counts": {
      "time": 1,
      "duration": 1,
      "pitch": 1,
      "velocity": 1,
      "numerator": 1,
      "denominator": 1
    }
  },
  {
    "action": "execute_pt",
    "unit": "004",
    "bar_index": 13,
    "pt_name": "cello_middle_b37_1761513454477_2b2c",
    "N": 1,
    "seeds": {
      "time": 0,
      "duration": 12,
      "pitch": 55,
      "velocity": 46,
      "numerator": 3,
      "denominator": 4
    },
    "sample_counts": {
      "time": 1,
      "duration": 1,
      "pitch": 1,
      "velocity": 1,
      "numerator": 1,
      "denominator": 1
    }
  },
  {
    "action": "execute_pt",
    "unit": "004",
    "bar_index": 13,
    "pt_name": "double_bass_root_b37_1761513454477_97b6",
    "N": 1,
    "seeds": {
      "time": 0,
      "duration": 12,
      "pitch": 43,
      "velocity": 44,
      "numerator": 3,
      "denominator": 4
    },
    "sample_counts": {
      "time": 1,
      "duration": 1,
      "pitch": 1,
      "velocity": 1,
      "numerator": 1,
      "denominator": 1
    }
  },
  {
    "action": "execute_pt",
    "unit": "004",
    "bar_index": 14,
    "pt_name": "alto_flute_winds_b38_1761513462299_87fe",
    "N": 1,
    "seeds": {
      "time": 0,
      "duration": 8,
      "pitch": 0,
      "velocity": 0,
      "numerator": 3,
      "denominator": 4
    },
    "sample_counts": {
      "time": 1,
      "duration": 1,
      "pitch": 1,
      "velocity": 1,
      "numerator": 1,
      "denominator": 1
    }
  },
  {
    "action": "execute_pt",
    "unit": "004",
    "bar_index": 14,
    "pt_name": "bass_clarinet_winds_b38_1761513462299_6362",
    "N": 1,
    "seeds": {
      "time": 0,
      "duration": 8,
      "pitch": 0,
      "velocity": 0,
      "numerator": 3,
      "denominator": 4
    },
    "sample_counts": {
      "time": 1,
      "duration": 1,
      "pitch": 1,
      "velocity": 1,
      "numerator": 1,
      "denominator": 1
    }
  },
  {
    "action": "execute_pt",
    "unit": "004",
    "bar_index": 14,
    "pt_name": "trumpet_winds_b38_1761513462299_57e8",
    "N": 1,
    "seeds": {
      "time": 0,
      "duration": 8,
      "pitch": 0,
      "velocity": 0,
      "numerator": 3,
      "denominator": 4
    },
    "sample_counts": {
      "time": 1,
      "duration": 1,
      "pitch": 1,
      "velocity": 1,
      "numerator": 1,
      "denominator": 1
    }
  },
  {
    "action": "execute_pt",
    "unit": "004",
    "bar_index": 14,
    "pt_name": "violin_upper_b38_1761513462299_b240",
    "N": 2,
    "seeds": {
      "time": 0,
      "duration": 8,
      "pitch": 74,
      "velocity": 50,
      "numerator": 3,
      "denominator": 4
    },
    "sample_counts": {
      "time": 2,
      "duration": 2,
      "pitch": 2,
      "velocity": 2,
      "numerator": 2,
      "denominator": 2
    }
  },
  {
    "action": "execute_pt",
    "unit": "004",
    "bar_index": 14,
    "pt_name": "cello_middle_b38_1761513462299_eab6",
    "N": 2,
    "seeds": {
      "time": 0,
      "duration": 8,
      "pitch": 59,
      "velocity": 46,
      "numerator": 3,
      "denominator": 4
    },
    "sample_counts": {
      "time": 2,
      "duration": 2,
      "pitch": 2,
      "velocity": 2,
      "numerator": 2,
      "denominator": 2
    }
  },
  {
    "action": "execute_pt",
    "unit": "004",
    "bar_index": 14,
    "pt_name": "double_bass_root_b38_1761513462299_c692",
    "N": 2,
    "seeds": {
      "time": 0,
      "duration": 8,
      "pitch": 47,
      "velocity": 44,
      "numerator": 3,
      "denominator": 4
    },
    "sample_counts": {
      "time": 2,
      "duration": 2,
      "pitch": 2,
      "velocity": 2,
      "numerator": 2,
      "denominator": 2
    }
  },
  {
    "action": "execute_pt",
    "unit": "004",
    "bar_index": 15,
    "pt_name": "alto_flute_winds_b39_1761513473253_1a78",
    "N": 1,
    "seeds": {
      "time": 0,
      "duration": 4,
      "pitch": 0,
      "velocity": 0,
      "numerator": 3,
      "denominator": 4
    },
    "sample_counts": {
      "time": 1,
      "duration": 1,
      "pitch": 1,
      "velocity": 1,
      "numerator": 1,
      "denominator": 1
    }
  },
  {
    "action": "execute_pt",
    "unit": "004",
    "bar_index": 15,
    "pt_name": "bass_clarinet_winds_b39_1761513473253_d4b6",
    "N": 1,
    "seeds": {
      "time": 0,
      "duration": 4,
      "pitch": 0,
      "velocity": 0,
      "numerator": 3,
      "denominator": 4
    },
    "sample_counts": {
      "time": 1,
      "duration": 1,
      "pitch": 1,
      "velocity": 1,
      "numerator": 1,
      "denominator": 1
    }
  },
  {
    "action": "execute_pt",
    "unit": "004",
    "bar_index": 15,
    "pt_name": "trumpet_winds_b39_1761513473253_577c",
    "N": 1,
    "seeds": {
      "time": 0,
      "duration": 4,
      "pitch": 0,
      "velocity": 0,
      "numerator": 3,
      "denominator": 4
    },
    "sample_counts": {
      "time": 1,
      "duration": 1,
      "pitch": 1,
      "velocity": 1,
      "numerator": 1,
      "denominator": 1
    }
  },
  {
    "action": "execute_pt",
    "unit": "004",
    "bar_index": 15,
    "pt_name": "violin_upper_b39_1761513473253_85e4",
    "N": 2,
    "seeds": {
      "time": 0,
      "duration": 4,
      "pitch": 69,
      "velocity": 48,
      "numerator": 3,
      "denominator": 4
    },
    "sample_counts": {
      "time": 2,
      "duration": 2,
      "pitch": 2,
      "velocity": 2,
      "numerator": 2,
      "denominator": 2
    }
  },
  {
    "action": "execute_pt",
    "unit": "004",
    "bar_index": 15,
    "pt_name": "cello_middle_b39_1761513473253_1d44",
    "N": 2,
    "seeds": {
      "time": 0,
      "duration": 4,
      "pitch": 57,
      "velocity": 46,
      "numerator": 3,
      "denominator": 4
    },
    "sample_counts": {
      "time": 2,
      "duration": 2,
      "pitch": 2,
      "velocity": 2,
      "numerator": 2,
      "denominator": 2
    }
  },
  {
    "action": "execute_pt",
    "unit": "004",
    "bar_index": 15,
    "pt_name": "double_bass_root_b39_1761513473253_9f02",
    "N": 2,
    "seeds": {
      "time": 0,
      "duration": 4,
      "pitch": 45,
      "velocity": 44,
      "numerator": 3,
      "denominator": 4
    },
    "sample_counts": {
      "time": 2,
      "duration": 2,
      "pitch": 2,
      "velocity": 2,
      "numerator": 2,
      "denominator": 2
    }
  },
  {
    "action": "execute_pt",
    "unit": "004",
    "bar_index": 16,
    "pt_name": "alto_flute_winds_b40_1761513480620_ea8d",
    "N": 1,
    "seeds": {
      "time": 0,
      "duration": 8,
      "pitch": 0,
      "velocity": 0,
      "numerator": 3,
      "denominator": 4
    },
    "sample_counts": {
      "time": 1,
      "duration": 1,
      "pitch": 1,
      "velocity": 1,
      "numerator": 1,
      "denominator": 1
    }
  },
  {
    "action": "execute_pt",
    "unit": "004",
    "bar_index": 16,
    "pt_name": "bass_clarinet_winds_b40_1761513480620_09a2",
    "N": 1,
    "seeds": {
      "time": 0,
      "duration": 8,
      "pitch": 0,
      "velocity": 0,
      "numerator": 3,
      "denominator": 4
    },
    "sample_counts": {
      "time": 1,
      "duration": 1,
      "pitch": 1,
      "velocity": 1,
      "numerator": 1,
      "denominator": 1
    }
  },
  {
    "action": "execute_pt",
    "unit": "004",
    "bar_index": 16,
    "pt_name": "trumpet_winds_b40_1761513480620_69fc",
    "N": 1,
    "seeds": {
      "time": 0,
      "duration": 8,
      "pitch": 0,
      "velocity": 0,
      "numerator": 3,
      "denominator": 4
    },
    "sample_counts": {
      "time": 1,
      "duration": 1,
      "pitch": 1,
      "velocity": 1,
      "numerator": 1,
      "denominator": 1
    }
  },
  {
    "action": "execute_pt",
    "unit": "004",
    "bar_index": 16,
    "pt_name": "violin_upper_b40_1761513480620_94d8",
    "N": 1,
    "seeds": {
      "time": 0,
      "duration": 8,
      "pitch": 76,
      "velocity": 47,
      "numerator": 3,
      "denominator": 4
    },
    "sample_counts": {
      "time": 1,
      "duration": 1,
      "pitch": 1,
      "velocity": 1,
      "numerator": 1,
      "denominator": 1
    }
  },
  {
    "action": "execute_pt",
    "unit": "004",
    "bar_index": 16,
    "pt_name": "cello_middle_b40_1761513480620_9b60",
    "N": 1,
    "seeds": {
      "time": 0,
      "duration": 8,
      "pitch": 60,
      "velocity": 45,
      "numerator": 3,
      "denominator": 4
    },
    "sample_counts": {
      "time": 1,
      "duration": 1,
      "pitch": 1,
      "velocity": 1,
      "numerator": 1,
      "denominator": 1
    }
  },
  {
    "action": "execute_pt",
    "unit": "004",
    "bar_index": 16,
    "pt_name": "double_bass_root_b40_1761513480620_1e33",
    "N": 1,
    "seeds": {
      "time": 0,
      "duration": 8,
      "pitch": 48,
      "velocity": 43,
      "numerator": 3,
      "denominator": 4
    },
    "sample_counts": {
      "time": 1,
      "duration": 1,
      "pitch": 1,
      "velocity": 1,
      "numerator": 1,
      "denominator": 1
    }
  },
  {
    "action": "execute_pt",
    "unit": "004",
    "bar_index": 17,
    "pt_name": "alto_flute_winds_b41_1761513488571_3537",
    "N": 1,
    "seeds": {
      "time": 4,
      "duration": 8,
      "pitch": 0,
      "velocity": 0,
      "numerator": 3,
      "denominator": 4
    },
    "sample_counts": {
      "time": 1,
      "duration": 1,
      "pitch": 1,
      "velocity": 1,
      "numerator": 1,
      "denominator": 1
    }
  },
  {
    "action": "execute_pt",
    "unit": "004",
    "bar_index": 17,
    "pt_name": "bass_clarinet_winds_b41_1761513488571_d293",
    "N": 1,
    "seeds": {
      "time": 4,
      "duration": 8,
      "pitch": 0,
      "velocity": 0,
      "numerator": 3,
      "denominator": 4
    },
    "sample_counts": {
      "time": 1,
      "duration": 1,
      "pitch": 1,
      "velocity": 1,
      "numerator": 1,
      "denominator": 1
    }
  },
  {
    "action": "execute_pt",
    "unit": "004",
    "bar_index": 17,
    "pt_name": "trumpet_winds_b41_1761513488571_fafe",
    "N": 1,
    "seeds": {
      "time": 4,
      "duration": 8,
      "pitch": 0,
      "velocity": 0,
      "numerator": 3,
      "denominator": 4
    },
    "sample_counts": {
      "time": 1,
      "duration": 1,
      "pitch": 1,
      "velocity": 1,
      "numerator": 1,
      "denominator": 1
    }
  },
  {
    "action": "execute_pt",
    "unit": "004",
    "bar_index": 17,
    "pt_name": "violin_upper_b41_1761513488571_0e26",
    "N": 1,
    "seeds": {
      "time": 4,
      "duration": 8,
      "pitch": 67,
      "velocity": 46,
      "numerator": 3,
      "denominator": 4
    },
    "sample_counts": {
      "time": 1,
      "duration": 1,
      "pitch": 1,
      "velocity": 1,
      "numerator": 1,
      "denominator": 1
    }
  },
  {
    "action": "execute_pt",
    "unit": "004",
    "bar_index": 17,
    "pt_name": "cello_middle_b41_1761513488571_2c96",
    "N": 1,
    "seeds": {
      "time": 4,
      "duration": 8,
      "pitch": 55,
      "velocity": 44,
      "numerator": 3,
      "denominator": 4
    },
    "sample_counts": {
      "time": 1,
      "duration": 1,
      "pitch": 1,
      "velocity": 1,
      "numerator": 1,
      "denominator": 1
    }
  },
  {
    "action": "execute_pt",
    "unit": "004",
    "bar_index": 17,
    "pt_name": "double_bass_root_b41_1761513488571_e242",
    "N": 1,
    "seeds": {
      "time": 4,
      "duration": 8,
      "pitch": 43,
      "velocity": 42,
      "numerator": 3,
      "denominator": 4
    },
    "sample_counts": {
      "time": 1,
      "duration": 1,
      "pitch": 1,
      "velocity": 1,
      "numerator": 1,
      "denominator": 1
    }
  },
  {
    "action": "execute_pt",
    "unit": "004",
    "bar_index": 18,
    "pt_name": "alto_flute_winds_b42_1761513496563_b1e3",
    "N": 1,
    "seeds": {
      "time": 0,
      "duration": 12,
      "pitch": 0,
      "velocity": 0,
      "numerator": 3,
      "denominator": 4
    },
    "sample_counts": {
      "time": 1,
      "duration": 1,
      "pitch": 1,
      "velocity": 1,
      "numerator": 1,
      "denominator": 1
    }
  },
  {
    "action": "execute_pt",
    "unit": "004",
    "bar_index": 18,
    "pt_name": "bass_clarinet_winds_b42_1761513496563_e3ae",
    "N": 1,
    "seeds": {
      "time": 0,
      "duration": 12,
      "pitch": 0,
      "velocity": 0,
      "numerator": 3,
      "denominator": 4
    },
    "sample_counts": {
      "time": 1,
      "duration": 1,
      "pitch": 1,
      "velocity": 1,
      "numerator": 1,
      "denominator": 1
    }
  },
  {
    "action": "execute_pt",
    "unit": "004",
    "bar_index": 18,
    "pt_name": "trumpet_winds_b42_1761513496563_d188",
    "N": 1,
    "seeds": {
      "time": 0,
      "duration": 12,
      "pitch": 0,
      "velocity": 0,
      "numerator": 3,
      "denominator": 4
    },
    "sample_counts": {
      "time": 1,
      "duration": 1,
      "pitch": 1,
      "velocity": 1,
      "numerator": 1,
      "denominator": 1
    }
  },
  {
    "action": "execute_pt",
    "unit": "004",
    "bar_index": 18,
    "pt_name": "violin_upper_b42_1761513496563_7b07",
    "N": 2,
    "seeds": {
      "time": 0,
      "duration": 8,
      "pitch": 71,
      "velocity": 48,
      "numerator": 3,
      "denominator": 4
    },
    "sample_counts": {
      "time": 2,
      "duration": 2,
      "pitch": 2,
      "velocity": 2,
      "numerator": 2,
      "denominator": 2
    }
  },
  {
    "action": "execute_pt",
    "unit": "004",
    "bar_index": 18,
    "pt_name": "cello_middle_b42_1761513496563_3e52",
    "N": 2,
    "seeds": {
      "time": 0,
      "duration": 8,
      "pitch": 59,
      "velocity": 46,
      "numerator": 3,
      "denominator": 4
    },
    "sample_counts": {
      "time": 2,
      "duration": 2,
      "pitch": 2,
      "velocity": 2,
      "numerator": 2,
      "denominator": 2
    }
  },
  {
    "action": "execute_pt",
    "unit": "004",
    "bar_index": 18,
    "pt_name": "double_bass_root_b42_1761513496563_5e65",
    "N": 2,
    "seeds": {
      "time": 0,
      "duration": 8,
      "pitch": 43,
      "velocity": 44,
      "numerator": 3,
      "denominator": 4
    },
    "sample_counts": {
      "time": 2,
      "duration": 2,
      "pitch": 2,
      "velocity": 2,
      "numerator": 2,
      "denominator": 2
    }
  },
  {
    "action": "execute_pt",
    "unit": "004",
    "bar_index": 19,
    "pt_name": "alto_flute_winds_b43_1761513504412_a8dc",
    "N": 1,
    "seeds": {
      "time": 0,
      "duration": 8,
      "pitch": 0,
      "velocity": 0,
      "numerator": 3,
      "denominator": 4
    },
    "sample_counts": {
      "time": 1,
      "duration": 1,
      "pitch": 1,
      "velocity": 1,
      "numerator": 1,
      "denominator": 1
    }
  },
  {
    "action": "execute_pt",
    "unit": "004",
    "bar_index": 19,
    "pt_name": "bass_clarinet_winds_b43_1761513504412_7fd0",
    "N": 1,
    "seeds": {
      "time": 0,
      "duration": 8,
      "pitch": 0,
      "velocity": 0,
      "numerator": 3,
      "denominator": 4
    },
    "sample_counts": {
      "time": 1,
      "duration": 1,
      "pitch": 1,
      "velocity": 1,
      "numerator": 1,
      "denominator": 1
    }
  },
  {
    "action": "execute_pt",
    "unit": "004",
    "bar_index": 19,
    "pt_name": "trumpet_winds_b43_1761513504412_e868",
    "N": 1,
    "seeds": {
      "time": 0,
      "duration": 8,
      "pitch": 0,
      "velocity": 0,
      "numerator": 3,
      "denominator": 4
    },
    "sample_counts": {
      "time": 1,
      "duration": 1,
      "pitch": 1,
      "velocity": 1,
      "numerator": 1,
      "denominator": 1
    }
  },
  {
    "action": "execute_pt",
    "unit": "004",
    "bar_index": 19,
    "pt_name": "violin_upper_b43_1761513504412_fb77",
    "N": 1,
    "seeds": {
      "time": 0,
      "duration": 12,
      "pitch": 73,
      "velocity": 48,
      "numerator": 3,
      "denominator": 4
    },
    "sample_counts": {
      "time": 1,
      "duration": 1,
      "pitch": 1,
      "velocity": 1,
      "numerator": 1,
      "denominator": 1
    }
  },
  {
    "action": "execute_pt",
    "unit": "004",
    "bar_index": 19,
    "pt_name": "cello_middle_b43_1761513504412_0cd9",
    "N": 1,
    "seeds": {
      "time": 0,
      "duration": 12,
      "pitch": 57,
      "velocity": 46,
      "numerator": 3,
      "denominator": 4
    },
    "sample_counts": {
      "time": 1,
      "duration": 1,
      "pitch": 1,
      "velocity": 1,
      "numerator": 1,
      "denominator": 1
    }
  },
  {
    "action": "execute_pt",
    "unit": "004",
    "bar_index": 19,
    "pt_name": "double_bass_root_b43_1761513504412_d038",
    "N": 1,
    "seeds": {
      "time": 0,
      "duration": 12,
      "pitch": 45,
      "velocity": 44,
      "numerator": 3,
      "denominator": 4
    },
    "sample_counts": {
      "time": 1,
      "duration": 1,
      "pitch": 1,
      "velocity": 1,
      "numerator": 1,
      "denominator": 1
    }
  },
  {
    "action": "execute_pt",
    "unit": "004",
    "bar_index": 20,
    "pt_name": "alto_flute_winds_b44_1761513512689_b588",
    "N": 1,
    "seeds": {
      "time": 0,
      "duration": 12,
      "pitch": 0,
      "velocity": 0,
      "numerator": 3,
      "denominator": 4
    },
    "sample_counts": {
      "time": 1,
      "duration": 1,
      "pitch": 1,
      "velocity": 1,
      "numerator": 1,
      "denominator": 1
    }
  },
  {
    "action": "execute_pt",
    "unit": "004",
    "bar_index": 20,
    "pt_name": "bass_clarinet_winds_b44_1761513512689_4664",
    "N": 1,
    "seeds": {
      "time": 0,
      "duration": 12,
      "pitch": 0,
      "velocity": 0,
      "numerator": 3,
      "denominator": 4
    },
    "sample_counts": {
      "time": 1,
      "duration": 1,
      "pitch": 1,
      "velocity": 1,
      "numerator": 1,
      "denominator": 1
    }
  },
  {
    "action": "execute_pt",
    "unit": "004",
    "bar_index": 20,
    "pt_name": "trumpet_winds_b44_1761513512689_93fd",
    "N": 1,
    "seeds": {
      "time": 0,
      "duration": 12,
      "pitch": 0,
      "velocity": 0,
      "numerator": 3,
      "denominator": 4
    },
    "sample_counts": {
      "time": 1,
      "duration": 1,
      "pitch": 1,
      "velocity": 1,
      "numerator": 1,
      "denominator": 1
    }
  },
  {
    "action": "execute_pt",
    "unit": "004",
    "bar_index": 20,
    "pt_name": "violin_upper_b44_1761513512689_6325",
    "N": 2,
    "seeds": {
      "time": 0,
      "duration": 4,
      "pitch": 79,
      "velocity": 47,
      "numerator": 3,
      "denominator": 4
    },
    "sample_counts": {
      "time": 2,
      "duration": 2,
      "pitch": 2,
      "velocity": 2,
      "numerator": 2,
      "denominator": 2
    }
  },
  {
    "action": "execute_pt",
    "unit": "004",
    "bar_index": 20,
    "pt_name": "cello_middle_b44_1761513512689_eb1f",
    "N": 2,
    "seeds": {
      "time": 0,
      "duration": 4,
      "pitch": 64,
      "velocity": 45,
      "numerator": 3,
      "denominator": 4
    },
    "sample_counts": {
      "time": 2,
      "duration": 2,
      "pitch": 2,
      "velocity": 2,
      "numerator": 2,
      "denominator": 2
    }
  },
  {
    "action": "execute_pt",
    "unit": "004",
    "bar_index": 20,
    "pt_name": "double_bass_root_b44_1761513512689_caa5",
    "N": 2,
    "seeds": {
      "time": 0,
      "duration": 4,
      "pitch": 50,
      "velocity": 43,
      "numerator": 3,
      "denominator": 4
    },
    "sample_counts": {
      "time": 2,
      "duration": 2,
      "pitch": 2,
      "velocity": 2,
      "numerator": 2,
      "denominator": 2
    }
  },
  {
    "action": "execute_pt",
    "unit": "004",
    "bar_index": 21,
    "pt_name": "alto_flute_winds_b45_1761513520586_ff1a",
    "N": 1,
    "seeds": {
      "time": 0,
      "duration": 12,
      "pitch": 0,
      "velocity": 0,
      "numerator": 3,
      "denominator": 4
    },
    "sample_counts": {
      "time": 1,
      "duration": 1,
      "pitch": 1,
      "velocity": 1,
      "numerator": 1,
      "denominator": 1
    }
  },
  {
    "action": "execute_pt",
    "unit": "004",
    "bar_index": 21,
    "pt_name": "bass_clarinet_winds_b45_1761513520586_f4f0",
    "N": 1,
    "seeds": {
      "time": 0,
      "duration": 12,
      "pitch": 0,
      "velocity": 0,
      "numerator": 3,
      "denominator": 4
    },
    "sample_counts": {
      "time": 1,
      "duration": 1,
      "pitch": 1,
      "velocity": 1,
      "numerator": 1,
      "denominator": 1
    }
  },
  {
    "action": "execute_pt",
    "unit": "004",
    "bar_index": 21,
    "pt_name": "trumpet_winds_b45_1761513520586_634c",
    "N": 1,
    "seeds": {
      "time": 0,
      "duration": 12,
      "pitch": 0,
      "velocity": 0,
      "numerator": 3,
      "denominator": 4
    },
    "sample_counts": {
      "time": 1,
      "duration": 1,
      "pitch": 1,
      "velocity": 1,
      "numerator": 1,
      "denominator": 1
    }
  },
  {
    "action": "execute_pt",
    "unit": "004",
    "bar_index": 21,
    "pt_name": "violin_upper_b45_1761513520586_59cb",
    "N": 1,
    "seeds": {
      "time": 0,
      "duration": 8,
      "pitch": 74,
      "velocity": 47,
      "numerator": 3,
      "denominator": 4
    },
    "sample_counts": {
      "time": 1,
      "duration": 1,
      "pitch": 1,
      "velocity": 1,
      "numerator": 1,
      "denominator": 1
    }
  },
  {
    "action": "execute_pt",
    "unit": "004",
    "bar_index": 21,
    "pt_name": "cello_middle_b45_1761513520586_71d2",
    "N": 1,
    "seeds": {
      "time": 0,
      "duration": 8,
      "pitch": 62,
      "velocity": 45,
      "numerator": 3,
      "denominator": 4
    },
    "sample_counts": {
      "time": 1,
      "duration": 1,
      "pitch": 1,
      "velocity": 1,
      "numerator": 1,
      "denominator": 1
    }
  },
  {
    "action": "execute_pt",
    "unit": "004",
    "bar_index": 21,
    "pt_name": "double_bass_root_b45_1761513520586_f89f",
    "N": 1,
    "seeds": {
      "time": 0,
      "duration": 8,
      "pitch": 50,
      "velocity": 43,
      "numerator": 3,
      "denominator": 4
    },
    "sample_counts": {
      "time": 1,
      "duration": 1,
      "pitch": 1,
      "velocity": 1,
      "numerator": 1,
      "denominator": 1
    }
  },
  {
    "action": "execute_pt",
    "unit": "004",
    "bar_index": 22,
    "pt_name": "alto_flute_winds_b46_1761513528394_1e29",
    "N": 1,
    "seeds": {
      "time": 0,
      "duration": 8,
      "pitch": 0,
      "velocity": 0,
      "numerator": 3,
      "denominator": 4
    },
    "sample_counts": {
      "time": 1,
      "duration": 1,
      "pitch": 1,
      "velocity": 1,
      "numerator": 1,
      "denominator": 1
    }
  },
  {
    "action": "execute_pt",
    "unit": "004",
    "bar_index": 22,
    "pt_name": "bass_clarinet_winds_b46_1761513528394_2459",
    "N": 1,
    "seeds": {
      "time": 0,
      "duration": 8,
      "pitch": 0,
      "velocity": 0,
      "numerator": 3,
      "denominator": 4
    },
    "sample_counts": {
      "time": 1,
      "duration": 1,
      "pitch": 1,
      "velocity": 1,
      "numerator": 1,
      "denominator": 1
    }
  },
  {
    "action": "execute_pt",
    "unit": "004",
    "bar_index": 22,
    "pt_name": "trumpet_winds_b46_1761513528394_12b7",
    "N": 1,
    "seeds": {
      "time": 0,
      "duration": 8,
      "pitch": 0,
      "velocity": 0,
      "numerator": 3,
      "denominator": 4
    },
    "sample_counts": {
      "time": 1,
      "duration": 1,
      "pitch": 1,
      "velocity": 1,
      "numerator": 1,
      "denominator": 1
    }
  },
  {
    "action": "execute_pt",
    "unit": "004",
    "bar_index": 22,
    "pt_name": "violin_upper_b46_1761513528394_1057",
    "N": 2,
    "seeds": {
      "time": 0,
      "duration": 8,
      "pitch": 76,
      "velocity": 47,
      "numerator": 3,
      "denominator": 4
    },
    "sample_counts": {
      "time": 2,
      "duration": 2,
      "pitch": 2,
      "velocity": 2,
      "numerator": 2,
      "denominator": 2
    }
  },
  {
    "action": "execute_pt",
    "unit": "004",
    "bar_index": 22,
    "pt_name": "cello_middle_b46_1761513528394_5feb",
    "N": 2,
    "seeds": {
      "time": 0,
      "duration": 8,
      "pitch": 64,
      "velocity": 45,
      "numerator": 3,
      "denominator": 4
    },
    "sample_counts": {
      "time": 2,
      "duration": 2,
      "pitch": 2,
      "velocity": 2,
      "numerator": 2,
      "denominator": 2
    }
  },
  {
    "action": "execute_pt",
    "unit": "004",
    "bar_index": 22,
    "pt_name": "double_bass_root_b46_1761513528394_1092",
    "N": 2,
    "seeds": {
      "time": 0,
      "duration": 8,
      "pitch": 52,
      "velocity": 43,
      "numerator": 3,
      "denominator": 4
    },
    "sample_counts": {
      "time": 2,
      "duration": 2,
      "pitch": 2,
      "velocity": 2,
      "numerator": 2,
      "denominator": 2
    }
  },
  {
    "action": "execute_pt",
    "unit": "004",
    "bar_index": 23,
    "pt_name": "alto_flute_winds_b47_1761513535752_ed8a",
    "N": 1,
    "seeds": {
      "time": 0,
      "duration": 8,
      "pitch": 0,
      "velocity": 0,
      "numerator": 3,
      "denominator": 4
    },
    "sample_counts": {
      "time": 1,
      "duration": 1,
      "pitch": 1,
      "velocity": 1,
      "numerator": 1,
      "denominator": 1
    }
  },
  {
    "action": "execute_pt",
    "unit": "004",
    "bar_index": 23,
    "pt_name": "bass_clarinet_winds_b47_1761513535752_dc46",
    "N": 1,
    "seeds": {
      "time": 0,
      "duration": 8,
      "pitch": 0,
      "velocity": 0,
      "numerator": 3,
      "denominator": 4
    },
    "sample_counts": {
      "time": 1,
      "duration": 1,
      "pitch": 1,
      "velocity": 1,
      "numerator": 1,
      "denominator": 1
    }
  },
  {
    "action": "execute_pt",
    "unit": "004",
    "bar_index": 23,
    "pt_name": "trumpet_winds_b47_1761513535752_c4ba",
    "N": 1,
    "seeds": {
      "time": 0,
      "duration": 8,
      "pitch": 0,
      "velocity": 0,
      "numerator": 3,
      "denominator": 4
    },
    "sample_counts": {
      "time": 1,
      "duration": 1,
      "pitch": 1,
      "velocity": 1,
      "numerator": 1,
      "denominator": 1
    }
  },
  {
    "action": "execute_pt",
    "unit": "004",
    "bar_index": 23,
    "pt_name": "violin_upper_b47_1761513535752_eaa2",
    "N": 1,
    "seeds": {
      "time": 0,
      "duration": 12,
      "pitch": 71,
      "velocity": 48,
      "numerator": 3,
      "denominator": 4
    },
    "sample_counts": {
      "time": 1,
      "duration": 1,
      "pitch": 1,
      "velocity": 1,
      "numerator": 1,
      "denominator": 1
    }
  },
  {
    "action": "execute_pt",
    "unit": "004",
    "bar_index": 23,
    "pt_name": "cello_middle_b47_1761513535752_4c50",
    "N": 1,
    "seeds": {
      "time": 0,
      "duration": 12,
      "pitch": 59,
      "velocity": 46,
      "numerator": 3,
      "denominator": 4
    },
    "sample_counts": {
      "time": 1,
      "duration": 1,
      "pitch": 1,
      "velocity": 1,
      "numerator": 1,
      "denominator": 1
    }
  },
  {
    "action": "execute_pt",
    "unit": "004",
    "bar_index": 23,
    "pt_name": "double_bass_root_b47_1761513535752_cacc",
    "N": 1,
    "seeds": {
      "time": 0,
      "duration": 12,
      "pitch": 47,
      "velocity": 44,
      "numerator": 3,
      "denominator": 4
    },
    "sample_counts": {
      "time": 1,
      "duration": 1,
      "pitch": 1,
      "velocity": 1,
      "numerator": 1,
      "denominator": 1
    }
  },
  {
    "action": "execute_pt",
    "unit": "004",
    "bar_index": 24,
    "pt_name": "alto_flute_winds_b48_1761513543646_f0f6",
    "N": 1,
    "seeds": {
      "time": 4,
      "duration": 8,
      "pitch": 0,
      "velocity": 0,
      "numerator": 3,
      "denominator": 4
    },
    "sample_counts": {
      "time": 1,
      "duration": 1,
      "pitch": 1,
      "velocity": 1,
      "numerator": 1,
      "denominator": 1
    }
  },
  {
    "action": "execute_pt",
    "unit": "004",
    "bar_index": 24,
    "pt_name": "bass_clarinet_winds_b48_1761513543646_73de",
    "N": 1,
    "seeds": {
      "time": 4,
      "duration": 8,
      "pitch": 0,
      "velocity": 0,
      "numerator": 3,
      "denominator": 4
    },
    "sample_counts": {
      "time": 1,
      "duration": 1,
      "pitch": 1,
      "velocity": 1,
      "numerator": 1,
      "denominator": 1
    }
  },
  {
    "action": "execute_pt",
    "unit": "004",
    "bar_index": 24,
    "pt_name": "trumpet_winds_b48_1761513543646_99df",
    "N": 1,
    "seeds": {
      "time": 4,
      "duration": 8,
      "pitch": 0,
      "velocity": 0,
      "numerator": 3,
      "denominator": 4
    },
    "sample_counts": {
      "time": 1,
      "duration": 1,
      "pitch": 1,
      "velocity": 1,
      "numerator": 1,
      "denominator": 1
    }
  },
  {
    "action": "execute_pt",
    "unit": "004",
    "bar_index": 24,
    "pt_name": "violin_upper_b48_1761513543646_ca6f",
    "N": 2,
    "seeds": {
      "time": 0,
      "duration": 4,
      "pitch": 67,
      "velocity": 48,
      "numerator": 3,
      "denominator": 4
    },
    "sample_counts": {
      "time": 2,
      "duration": 2,
      "pitch": 2,
      "velocity": 2,
      "numerator": 2,
      "denominator": 2
    }
  },
  {
    "action": "execute_pt",
    "unit": "004",
    "bar_index": 24,
    "pt_name": "cello_middle_b48_1761513543646_f11f",
    "N": 2,
    "seeds": {
      "time": 0,
      "duration": 4,
      "pitch": 55,
      "velocity": 46,
      "numerator": 3,
      "denominator": 4
    },
    "sample_counts": {
      "time": 2,
      "duration": 2,
      "pitch": 2,
      "velocity": 2,
      "numerator": 2,
      "denominator": 2
    }
  },
  {
    "action": "execute_pt",
    "unit": "004",
    "bar_index": 24,
    "pt_name": "double_bass_root_b48_1761513543646_6df6",
    "N": 2,
    "seeds": {
      "time": 0,
      "duration": 4,
      "pitch": 43,
      "velocity": 44,
      "numerator": 3,
      "denominator": 4
    },
    "sample_counts": {
      "time": 2,
      "duration": 2,
      "pitch": 2,
      "velocity": 2,
      "numerator": 2,
      "denominator": 2
    }
  },
  {
    "action": "execute_pt",
    "unit": "005",
    "bar_index": 1,
    "pt_name": "alto_flute_homophony_b49_1761513896465_9854",
    "N": 2,
    "seeds": {
      "time": 0,
      "duration": 4,
      "pitch": 66,
      "velocity": 50,
      "numerator": 3,
      "denominator": 4
    },
    "sample_counts": {
      "time": 2,
      "duration": 2,
      "pitch": 2,
      "velocity": 2,
      "numerator": 2,
      "denominator": 2
    }
  },
  {
    "action": "execute_pt",
    "unit": "005",
    "bar_index": 1,
    "pt_name": "bass_clarinet_homophony_b49_1761513896465_132a",
    "N": 2,
    "seeds": {
      "time": 0,
      "duration": 4,
      "pitch": 57,
      "velocity": 48,
      "numerator": 3,
      "denominator": 4
    },
    "sample_counts": {
      "time": 2,
      "duration": 2,
      "pitch": 2,
      "velocity": 2,
      "numerator": 2,
      "denominator": 2
    }
  },
  {
    "action": "execute_pt",
    "unit": "005",
    "bar_index": 1,
    "pt_name": "trumpet_homophony_b49_1761513896465_532e",
    "N": 2,
    "seeds": {
      "time": 0,
      "duration": 4,
      "pitch": 73,
      "velocity": 54,
      "numerator": 3,
      "denominator": 4
    },
    "sample_counts": {
      "time": 2,
      "duration": 2,
      "pitch": 2,
      "velocity": 2,
      "numerator": 2,
      "denominator": 2
    }
  },
  {
    "action": "execute_pt",
    "unit": "005",
    "bar_index": 1,
    "pt_name": "violin_homophony_b49_1761513896465_97f2",
    "N": 2,
    "seeds": {
      "time": 0,
      "duration": 4,
      "pitch": 62,
      "velocity": 49,
      "numerator": 3,
      "denominator": 4
    },
    "sample_counts": {
      "time": 2,
      "duration": 2,
      "pitch": 2,
      "velocity": 2,
      "numerator": 2,
      "denominator": 2
    }
  },
  {
    "action": "execute_pt",
    "unit": "005",
    "bar_index": 1,
    "pt_name": "cello_homophony_b49_1761513896465_af5a",
    "N": 2,
    "seeds": {
      "time": 0,
      "duration": 4,
      "pitch": 52,
      "velocity": 47,
      "numerator": 3,
      "denominator": 4
    },
    "sample_counts": {
      "time": 2,
      "duration": 2,
      "pitch": 2,
      "velocity": 2,
      "numerator": 2,
      "denominator": 2
    }
  },
  {
    "action": "execute_pt",
    "unit": "005",
    "bar_index": 1,
    "pt_name": "double_bass_homophony_b49_1761513896465_5bc0",
    "N": 2,
    "seeds": {
      "time": 0,
      "duration": 4,
      "pitch": 45,
      "velocity": 45,
      "numerator": 3,
      "denominator": 4
    },
    "sample_counts": {
      "time": 2,
      "duration": 2,
      "pitch": 2,
      "velocity": 2,
      "numerator": 2,
      "denominator": 2
    }
  },
  {
    "action": "execute_pt",
    "unit": "005",
    "bar_index": 2,
    "pt_name": "alto_flute_homophony_b50_1761513904010_a87a",
    "N": 2,
    "seeds": {
      "time": 0,
      "duration": 8,
      "pitch": 65,
      "velocity": 52,
      "numerator": 3,
      "denominator": 4
    },
    "sample_counts": {
      "time": 2,
      "duration": 2,
      "pitch": 2,
      "velocity": 2,
      "numerator": 2,
      "denominator": 2
    }
  },
  {
    "action": "execute_pt",
    "unit": "005",
    "bar_index": 2,
    "pt_name": "bass_clarinet_homophony_b50_1761513904010_fed6",
    "N": 2,
    "seeds": {
      "time": 0,
      "duration": 8,
      "pitch": 50,
      "velocity": 50,
      "numerator": 3,
      "denominator": 4
    },
    "sample_counts": {
      "time": 2,
      "duration": 2,
      "pitch": 2,
      "velocity": 2,
      "numerator": 2,
      "denominator": 2
    }
  },
  {
    "action": "execute_pt",
    "unit": "005",
    "bar_index": 2,
    "pt_name": "trumpet_homophony_b50_1761513904010_30a5",
    "N": 2,
    "seeds": {
      "time": 0,
      "duration": 8,
      "pitch": 74,
      "velocity": 56,
      "numerator": 3,
      "denominator": 4
    },
    "sample_counts": {
      "time": 2,
      "duration": 2,
      "pitch": 2,
      "velocity": 2,
      "numerator": 2,
      "denominator": 2
    }
  },
  {
    "action": "execute_pt",
    "unit": "005",
    "bar_index": 2,
    "pt_name": "violin_homophony_b50_1761513904010_9309",
    "N": 2,
    "seeds": {
      "time": 0,
      "duration": 8,
      "pitch": 62,
      "velocity": 51,
      "numerator": 3,
      "denominator": 4
    },
    "sample_counts": {
      "time": 2,
      "duration": 2,
      "pitch": 2,
      "velocity": 2,
      "numerator": 2,
      "denominator": 2
    }
  },
  {
    "action": "execute_pt",
    "unit": "005",
    "bar_index": 2,
    "pt_name": "cello_homophony_b50_1761513904010_1b9b",
    "N": 2,
    "seeds": {
      "time": 0,
      "duration": 8,
      "pitch": 50,
      "velocity": 49,
      "numerator": 3,
      "denominator": 4
    },
    "sample_counts": {
      "time": 2,
      "duration": 2,
      "pitch": 2,
      "velocity": 2,
      "numerator": 2,
      "denominator": 2
    }
  },
  {
    "action": "execute_pt",
    "unit": "005",
    "bar_index": 2,
    "pt_name": "double_bass_homophony_b50_1761513904010_3f44",
    "N": 2,
    "seeds": {
      "time": 0,
      "duration": 8,
      "pitch": 43,
      "velocity": 47,
      "numerator": 3,
      "denominator": 4
    },
    "sample_counts": {
      "time": 2,
      "duration": 2,
      "pitch": 2,
      "velocity": 2,
      "numerator": 2,
      "denominator": 2
    }
  },
  {
    "action": "execute_pt",
    "unit": "005",
    "bar_index": 3,
    "pt_name": "alto_flute_homophony_b51_1761513911941_3c07",
    "N": 1,
    "seeds": {
      "time": 0,
      "duration": 12,
      "pitch": 67,
      "velocity": 54,
      "numerator": 3,
      "denominator": 4
    },
    "sample_counts": {
      "time": 1,
      "duration": 1,
      "pitch": 1,
      "velocity": 1,
      "numerator": 1,
      "denominator": 1
    }
  },
  {
    "action": "execute_pt",
    "unit": "005",
    "bar_index": 3,
    "pt_name": "bass_clarinet_homophony_b51_1761513911941_85f5",
    "N": 1,
    "seeds": {
      "time": 0,
      "duration": 12,
      "pitch": 59,
      "velocity": 52,
      "numerator": 3,
      "denominator": 4
    },
    "sample_counts": {
      "time": 1,
      "duration": 1,
      "pitch": 1,
      "velocity": 1,
      "numerator": 1,
      "denominator": 1
    }
  },
  {
    "action": "execute_pt",
    "unit": "005",
    "bar_index": 3,
    "pt_name": "trumpet_homophony_b51_1761513911941_a7be",
    "N": 1,
    "seeds": {
      "time": 0,
      "duration": 12,
      "pitch": 71,
      "velocity": 58,
      "numerator": 3,
      "denominator": 4
    },
    "sample_counts": {
      "time": 1,
      "duration": 1,
      "pitch": 1,
      "velocity": 1,
      "numerator": 1,
      "denominator": 1
    }
  },
  {
    "action": "execute_pt",
    "unit": "005",
    "bar_index": 3,
    "pt_name": "violin_homophony_b51_1761513911941_36de",
    "N": 1,
    "seeds": {
      "time": 0,
      "duration": 12,
      "pitch": 64,
      "velocity": 53,
      "numerator": 3,
      "denominator": 4
    },
    "sample_counts": {
      "time": 1,
      "duration": 1,
      "pitch": 1,
      "velocity": 1,
      "numerator": 1,
      "denominator": 1
    }
  },
  {
    "action": "execute_pt",
    "unit": "005",
    "bar_index": 3,
    "pt_name": "cello_homophony_b51_1761513911941_6316",
    "N": 1,
    "seeds": {
      "time": 0,
      "duration": 12,
      "pitch": 52,
      "velocity": 51,
      "numerator": 3,
      "denominator": 4
    },
    "sample_counts": {
      "time": 1,
      "duration": 1,
      "pitch": 1,
      "velocity": 1,
      "numerator": 1,
      "denominator": 1
    }
  },
  {
    "action": "execute_pt",
    "unit": "005",
    "bar_index": 3,
    "pt_name": "double_bass_homophony_b51_1761513911941_ec71",
    "N": 1,
    "seeds": {
      "time": 0,
      "duration": 12,
      "pitch": 40,
      "velocity": 49,
      "numerator": 3,
      "denominator": 4
    },
    "sample_counts": {
      "time": 1,
      "duration": 1,
      "pitch": 1,
      "velocity": 1,
      "numerator": 1,
      "denominator": 1
    }
  },
  {
    "action": "execute_pt",
    "unit": "005",
    "bar_index": 4,
    "pt_name": "alto_flute_homophony_b52_1761513919944_70bc",
    "N": 1,
    "seeds": {
      "time": 0,
      "duration": 8,
      "pitch": 66,
      "velocity": 56,
      "numerator": 3,
      "denominator": 4
    },
    "sample_counts": {
      "time": 1,
      "duration": 1,
      "pitch": 1,
      "velocity": 1,
      "numerator": 1,
      "denominator": 1
    }
  },
  {
    "action": "execute_pt",
    "unit": "005",
    "bar_index": 4,
    "pt_name": "bass_clarinet_homophony_b52_1761513919944_5287",
    "N": 1,
    "seeds": {
      "time": 0,
      "duration": 8,
      "pitch": 50,
      "velocity": 54,
      "numerator": 3,
      "denominator": 4
    },
    "sample_counts": {
      "time": 1,
      "duration": 1,
      "pitch": 1,
      "velocity": 1,
      "numerator": 1,
      "denominator": 1
    }
  },
  {
    "action": "execute_pt",
    "unit": "005",
    "bar_index": 4,
    "pt_name": "trumpet_homophony_b52_1761513919944_35f3",
    "N": 1,
    "seeds": {
      "time": 0,
      "duration": 8,
      "pitch": 74,
      "velocity": 60,
      "numerator": 3,
      "denominator": 4
    },
    "sample_counts": {
      "time": 1,
      "duration": 1,
      "pitch": 1,
      "velocity": 1,
      "numerator": 1,
      "denominator": 1
    }
  },
  {
    "action": "execute_pt",
    "unit": "005",
    "bar_index": 4,
    "pt_name": "violin_homophony_b52_1761513919944_7cea",
    "N": 1,
    "seeds": {
      "time": 0,
      "duration": 8,
      "pitch": 71,
      "velocity": 55,
      "numerator": 3,
      "denominator": 4
    },
    "sample_counts": {
      "time": 1,
      "duration": 1,
      "pitch": 1,
      "velocity": 1,
      "numerator": 1,
      "denominator": 1
    }
  },
  {
    "action": "execute_pt",
    "unit": "005",
    "bar_index": 4,
    "pt_name": "cello_homophony_b52_1761513919944_d491",
    "N": 1,
    "seeds": {
      "time": 0,
      "duration": 8,
      "pitch": 59,
      "velocity": 53,
      "numerator": 3,
      "denominator": 4
    },
    "sample_counts": {
      "time": 1,
      "duration": 1,
      "pitch": 1,
      "velocity": 1,
      "numerator": 1,
      "denominator": 1
    }
  },
  {
    "action": "execute_pt",
    "unit": "005",
    "bar_index": 4,
    "pt_name": "double_bass_homophony_b52_1761513919944_6229",
    "N": 1,
    "seeds": {
      "time": 0,
      "duration": 8,
      "pitch": 47,
      "velocity": 51,
      "numerator": 3,
      "denominator": 4
    },
    "sample_counts": {
      "time": 1,
      "duration": 1,
      "pitch": 1,
      "velocity": 1,
      "numerator": 1,
      "denominator": 1
    }
  },
  {
    "action": "execute_pt",
    "unit": "005",
    "bar_index": 5,
    "pt_name": "alto_flute_homophony_b53_1761513927930_1d64",
    "N": 1,
    "seeds": {
      "time": 4,
      "duration": 8,
      "pitch": 65,
      "velocity": 58,
      "numerator": 3,
      "denominator": 4
    },
    "sample_counts": {
      "time": 1,
      "duration": 1,
      "pitch": 1,
      "velocity": 1,
      "numerator": 1,
      "denominator": 1
    }
  },
  {
    "action": "execute_pt",
    "unit": "005",
    "bar_index": 5,
    "pt_name": "bass_clarinet_homophony_b53_1761513927930_5b93",
    "N": 1,
    "seeds": {
      "time": 4,
      "duration": 8,
      "pitch": 50,
      "velocity": 56,
      "numerator": 3,
      "denominator": 4
    },
    "sample_counts": {
      "time": 1,
      "duration": 1,
      "pitch": 1,
      "velocity": 1,
      "numerator": 1,
      "denominator": 1
    }
  },
  {
    "action": "execute_pt",
    "unit": "005",
    "bar_index": 5,
    "pt_name": "trumpet_homophony_b53_1761513927930_914d",
    "N": 1,
    "seeds": {
      "time": 4,
      "duration": 8,
      "pitch": 69,
      "velocity": 62,
      "numerator": 3,
      "denominator": 4
    },
    "sample_counts": {
      "time": 1,
      "duration": 1,
      "pitch": 1,
      "velocity": 1,
      "numerator": 1,
      "denominator": 1
    }
  },
  {
    "action": "execute_pt",
    "unit": "005",
    "bar_index": 5,
    "pt_name": "violin_homophony_b53_1761513927930_99d3",
    "N": 1,
    "seeds": {
      "time": 4,
      "duration": 8,
      "pitch": 62,
      "velocity": 57,
      "numerator": 3,
      "denominator": 4
    },
    "sample_counts": {
      "time": 1,
      "duration": 1,
      "pitch": 1,
      "velocity": 1,
      "numerator": 1,
      "denominator": 1
    }
  },
  {
    "action": "execute_pt",
    "unit": "005",
    "bar_index": 5,
    "pt_name": "cello_homophony_b53_1761513927930_575d",
    "N": 1,
    "seeds": {
      "time": 4,
      "duration": 8,
      "pitch": 55,
      "velocity": 55,
      "numerator": 3,
      "denominator": 4
    },
    "sample_counts": {
      "time": 1,
      "duration": 1,
      "pitch": 1,
      "velocity": 1,
      "numerator": 1,
      "denominator": 1
    }
  },
  {
    "action": "execute_pt",
    "unit": "005",
    "bar_index": 5,
    "pt_name": "double_bass_homophony_b53_1761513927930_4599",
    "N": 1,
    "seeds": {
      "time": 4,
      "duration": 8,
      "pitch": 43,
      "velocity": 53,
      "numerator": 3,
      "denominator": 4
    },
    "sample_counts": {
      "time": 1,
      "duration": 1,
      "pitch": 1,
      "velocity": 1,
      "numerator": 1,
      "denominator": 1
    }
  },
  {
    "action": "execute_pt",
    "unit": "005",
    "bar_index": 6,
    "pt_name": "alto_flute_homophony_b54_1761513939483_27a8",
    "N": 2,
    "seeds": {
      "time": 0,
      "duration": 4,
      "pitch": 69,
      "velocity": 60,
      "numerator": 3,
      "denominator": 4
    },
    "sample_counts": {
      "time": 2,
      "duration": 2,
      "pitch": 2,
      "velocity": 2,
      "numerator": 2,
      "denominator": 2
    }
  },
  {
    "action": "execute_pt",
    "unit": "005",
    "bar_index": 6,
    "pt_name": "bass_clarinet_homophony_b54_1761513939483_119d",
    "N": 2,
    "seeds": {
      "time": 0,
      "duration": 4,
      "pitch": 52,
      "velocity": 58,
      "numerator": 3,
      "denominator": 4
    },
    "sample_counts": {
      "time": 2,
      "duration": 2,
      "pitch": 2,
      "velocity": 2,
      "numerator": 2,
      "denominator": 2
    }
  },
  {
    "action": "execute_pt",
    "unit": "005",
    "bar_index": 6,
    "pt_name": "trumpet_homophony_b54_1761513939483_0820",
    "N": 2,
    "seeds": {
      "time": 0,
      "duration": 4,
      "pitch": 67,
      "velocity": 64,
      "numerator": 3,
      "denominator": 4
    },
    "sample_counts": {
      "time": 2,
      "duration": 2,
      "pitch": 2,
      "velocity": 2,
      "numerator": 2,
      "denominator": 2
    }
  },
  {
    "action": "execute_pt",
    "unit": "005",
    "bar_index": 6,
    "pt_name": "violin_homophony_b54_1761513939483_ce92",
    "N": 2,
    "seeds": {
      "time": 0,
      "duration": 4,
      "pitch": 60,
      "velocity": 59,
      "numerator": 3,
      "denominator": 4
    },
    "sample_counts": {
      "time": 2,
      "duration": 2,
      "pitch": 2,
      "velocity": 2,
      "numerator": 2,
      "denominator": 2
    }
  },
  {
    "action": "execute_pt",
    "unit": "005",
    "bar_index": 6,
    "pt_name": "cello_homophony_b54_1761513939483_b453",
    "N": 2,
    "seeds": {
      "time": 0,
      "duration": 4,
      "pitch": 55,
      "velocity": 57,
      "numerator": 3,
      "denominator": 4
    },
    "sample_counts": {
      "time": 2,
      "duration": 2,
      "pitch": 2,
      "velocity": 2,
      "numerator": 2,
      "denominator": 2
    }
  },
  {
    "action": "execute_pt",
    "unit": "005",
    "bar_index": 6,
    "pt_name": "double_bass_homophony_b54_1761513939483_7df0",
    "N": 2,
    "seeds": {
      "time": 0,
      "duration": 4,
      "pitch": 48,
      "velocity": 55,
      "numerator": 3,
      "denominator": 4
    },
    "sample_counts": {
      "time": 2,
      "duration": 2,
      "pitch": 2,
      "velocity": 2,
      "numerator": 2,
      "denominator": 2
    }
  },
  {
    "action": "execute_pt",
    "unit": "005",
    "bar_index": 7,
    "pt_name": "alto_flute_homophony_b55_1761513946958_1d44",
    "N": 2,
    "seeds": {
      "time": 0,
      "duration": 8,
      "pitch": 69,
      "velocity": 58,
      "numerator": 3,
      "denominator": 4
    },
    "sample_counts": {
      "time": 2,
      "duration": 2,
      "pitch": 2,
      "velocity": 2,
      "numerator": 2,
      "denominator": 2
    }
  },
  {
    "action": "execute_pt",
    "unit": "005",
    "bar_index": 7,
    "pt_name": "bass_clarinet_homophony_b55_1761513946958_baac",
    "N": 2,
    "seeds": {
      "time": 0,
      "duration": 8,
      "pitch": 55,
      "velocity": 56,
      "numerator": 3,
      "denominator": 4
    },
    "sample_counts": {
      "time": 2,
      "duration": 2,
      "pitch": 2,
      "velocity": 2,
      "numerator": 2,
      "denominator": 2
    }
  },
  {
    "action": "execute_pt",
    "unit": "005",
    "bar_index": 7,
    "pt_name": "trumpet_homophony_b55_1761513946958_30aa",
    "N": 2,
    "seeds": {
      "time": 0,
      "duration": 8,
      "pitch": 74,
      "velocity": 62,
      "numerator": 3,
      "denominator": 4
    },
    "sample_counts": {
      "time": 2,
      "duration": 2,
      "pitch": 2,
      "velocity": 2,
      "numerator": 2,
      "denominator": 2
    }
  },
  {
    "action": "execute_pt",
    "unit": "005",
    "bar_index": 7,
    "pt_name": "violin_homophony_b55_1761513946958_e7b9",
    "N": 2,
    "seeds": {
      "time": 0,
      "duration": 8,
      "pitch": 62,
      "velocity": 57,
      "numerator": 3,
      "denominator": 4
    },
    "sample_counts": {
      "time": 2,
      "duration": 2,
      "pitch": 2,
      "velocity": 2,
      "numerator": 2,
      "denominator": 2
    }
  },
  {
    "action": "execute_pt",
    "unit": "005",
    "bar_index": 7,
    "pt_name": "cello_homophony_b55_1761513946958_7298",
    "N": 2,
    "seeds": {
      "time": 0,
      "duration": 8,
      "pitch": 57,
      "velocity": 55,
      "numerator": 3,
      "denominator": 4
    },
    "sample_counts": {
      "time": 2,
      "duration": 2,
      "pitch": 2,
      "velocity": 2,
      "numerator": 2,
      "denominator": 2
    }
  },
  {
    "action": "execute_pt",
    "unit": "005",
    "bar_index": 7,
    "pt_name": "double_bass_homophony_b55_1761513946958_9555",
    "N": 2,
    "seeds": {
      "time": 0,
      "duration": 8,
      "pitch": 50,
      "velocity": 53,
      "numerator": 3,
      "denominator": 4
    },
    "sample_counts": {
      "time": 2,
      "duration": 2,
      "pitch": 2,
      "velocity": 2,
      "numerator": 2,
      "denominator": 2
    }
  },
  {
    "action": "execute_pt",
    "unit": "005",
    "bar_index": 8,
    "pt_name": "alto_flute_homophony_b56_1761513958141_8423",
    "N": 1,
    "seeds": {
      "time": 0,
      "duration": 12,
      "pitch": 69,
      "velocity": 56,
      "numerator": 3,
      "denominator": 4
    },
    "sample_counts": {
      "time": 1,
      "duration": 1,
      "pitch": 1,
      "velocity": 1,
      "numerator": 1,
      "denominator": 1
    }
  },
  {
    "action": "execute_pt",
    "unit": "005",
    "bar_index": 8,
    "pt_name": "bass_clarinet_homophony_b56_1761513958141_d274",
    "N": 1,
    "seeds": {
      "time": 0,
      "duration": 12,
      "pitch": 55,
      "velocity": 54,
      "numerator": 3,
      "denominator": 4
    },
    "sample_counts": {
      "time": 1,
      "duration": 1,
      "pitch": 1,
      "velocity": 1,
      "numerator": 1,
      "denominator": 1
    }
  },
  {
    "action": "execute_pt",
    "unit": "005",
    "bar_index": 8,
    "pt_name": "trumpet_homophony_b56_1761513958141_a7d5",
    "N": 1,
    "seeds": {
      "time": 0,
      "duration": 12,
      "pitch": 67,
      "velocity": 60,
      "numerator": 3,
      "denominator": 4
    },
    "sample_counts": {
      "time": 1,
      "duration": 1,
      "pitch": 1,
      "velocity": 1,
      "numerator": 1,
      "denominator": 1
    }
  },
  {
    "action": "execute_pt",
    "unit": "005",
    "bar_index": 8,
    "pt_name": "violin_homophony_b56_1761513958141_8602",
    "N": 1,
    "seeds": {
      "time": 0,
      "duration": 12,
      "pitch": 62,
      "velocity": 55,
      "numerator": 3,
      "denominator": 4
    },
    "sample_counts": {
      "time": 1,
      "duration": 1,
      "pitch": 1,
      "velocity": 1,
      "numerator": 1,
      "denominator": 1
    }
  },
  {
    "action": "execute_pt",
    "unit": "005",
    "bar_index": 8,
    "pt_name": "cello_homophony_b56_1761513958141_0349",
    "N": 1,
    "seeds": {
      "time": 0,
      "duration": 12,
      "pitch": 50,
      "velocity": 53,
      "numerator": 3,
      "denominator": 4
    },
    "sample_counts": {
      "time": 1,
      "duration": 1,
      "pitch": 1,
      "velocity": 1,
      "numerator": 1,
      "denominator": 1
    }
  },
  {
    "action": "execute_pt",
    "unit": "005",
    "bar_index": 8,
    "pt_name": "double_bass_homophony_b56_1761513958141_a649",
    "N": 1,
    "seeds": {
      "time": 0,
      "duration": 12,
      "pitch": 43,
      "velocity": 51,
      "numerator": 3,
      "denominator": 4
    },
    "sample_counts": {
      "time": 1,
      "duration": 1,
      "pitch": 1,
      "velocity": 1,
      "numerator": 1,
      "denominator": 1
    }
  },
  {
    "action": "execute_pt",
    "unit": "005",
    "bar_index": 9,
    "pt_name": "alto_flute_homophony_b57_1761513969859_d41b",
    "N": 2,
    "seeds": {
      "time": 0,
      "duration": 4,
      "pitch": 66,
      "velocity": 54,
      "numerator": 3,
      "denominator": 4
    },
    "sample_counts": {
      "time": 2,
      "duration": 2,
      "pitch": 2,
      "velocity": 2,
      "numerator": 2,
      "denominator": 2
    }
  },
  {
    "action": "execute_pt",
    "unit": "005",
    "bar_index": 9,
    "pt_name": "bass_clarinet_homophony_b57_1761513969859_cf59",
    "N": 2,
    "seeds": {
      "time": 0,
      "duration": 4,
      "pitch": 57,
      "velocity": 52,
      "numerator": 3,
      "denominator": 4
    },
    "sample_counts": {
      "time": 2,
      "duration": 2,
      "pitch": 2,
      "velocity": 2,
      "numerator": 2,
      "denominator": 2
    }
  },
  {
    "action": "execute_pt",
    "unit": "005",
    "bar_index": 9,
    "pt_name": "trumpet_homophony_b57_1761513969859_6e28",
    "N": 2,
    "seeds": {
      "time": 0,
      "duration": 4,
      "pitch": 73,
      "velocity": 58,
      "numerator": 3,
      "denominator": 4
    },
    "sample_counts": {
      "time": 2,
      "duration": 2,
      "pitch": 2,
      "velocity": 2,
      "numerator": 2,
      "denominator": 2
    }
  },
  {
    "action": "execute_pt",
    "unit": "005",
    "bar_index": 9,
    "pt_name": "violin_homophony_b57_1761513969859_8721",
    "N": 2,
    "seeds": {
      "time": 0,
      "duration": 4,
      "pitch": 69,
      "velocity": 53,
      "numerator": 3,
      "denominator": 4
    },
    "sample_counts": {
      "time": 2,
      "duration": 2,
      "pitch": 2,
      "velocity": 2,
      "numerator": 2,
      "denominator": 2
    }
  },
  {
    "action": "execute_pt",
    "unit": "005",
    "bar_index": 9,
    "pt_name": "cello_homophony_b57_1761513969859_a6a4",
    "N": 2,
    "seeds": {
      "time": 0,
      "duration": 4,
      "pitch": 52,
      "velocity": 51,
      "numerator": 3,
      "denominator": 4
    },
    "sample_counts": {
      "time": 2,
      "duration": 2,
      "pitch": 2,
      "velocity": 2,
      "numerator": 2,
      "denominator": 2
    }
  },
  {
    "action": "execute_pt",
    "unit": "005",
    "bar_index": 9,
    "pt_name": "double_bass_homophony_b57_1761513969859_6556",
    "N": 2,
    "seeds": {
      "time": 0,
      "duration": 4,
      "pitch": 45,
      "velocity": 49,
      "numerator": 3,
      "denominator": 4
    },
    "sample_counts": {
      "time": 2,
      "duration": 2,
      "pitch": 2,
      "velocity": 2,
      "numerator": 2,
      "denominator": 2
    }
  },
  {
    "action": "execute_pt",
    "unit": "005",
    "bar_index": 10,
    "pt_name": "alto_flute_homophony_b58_1761513977875_a63a",
    "N": 2,
    "seeds": {
      "time": 0,
      "duration": 8,
      "pitch": 62,
      "velocity": 52,
      "numerator": 3,
      "denominator": 4
    },
    "sample_counts": {
      "time": 2,
      "duration": 2,
      "pitch": 2,
      "velocity": 2,
      "numerator": 2,
      "denominator": 2
    }
  },
  {
    "action": "execute_pt",
    "unit": "005",
    "bar_index": 10,
    "pt_name": "bass_clarinet_homophony_b58_1761513977875_4d8c",
    "N": 2,
    "seeds": {
      "time": 0,
      "duration": 8,
      "pitch": 50,
      "velocity": 50,
      "numerator": 3,
      "denominator": 4
    },
    "sample_counts": {
      "time": 2,
      "duration": 2,
      "pitch": 2,
      "velocity": 2,
      "numerator": 2,
      "denominator": 2
    }
  },
  {
    "action": "execute_pt",
    "unit": "005",
    "bar_index": 10,
    "pt_name": "trumpet_homophony_b58_1761513977875_0b6d",
    "N": 2,
    "seeds": {
      "time": 0,
      "duration": 8,
      "pitch": 69,
      "velocity": 56,
      "numerator": 3,
      "denominator": 4
    },
    "sample_counts": {
      "time": 2,
      "duration": 2,
      "pitch": 2,
      "velocity": 2,
      "numerator": 2,
      "denominator": 2
    }
  },
  {
    "action": "execute_pt",
    "unit": "005",
    "bar_index": 10,
    "pt_name": "violin_homophony_b58_1761513977875_fc6e",
    "N": 2,
    "seeds": {
      "time": 0,
      "duration": 8,
      "pitch": 65,
      "velocity": 51,
      "numerator": 3,
      "denominator": 4
    },
    "sample_counts": {
      "time": 2,
      "duration": 2,
      "pitch": 2,
      "velocity": 2,
      "numerator": 2,
      "denominator": 2
    }
  },
  {
    "action": "execute_pt",
    "unit": "005",
    "bar_index": 10,
    "pt_name": "cello_homophony_b58_1761513977875_cd6b",
    "N": 2,
    "seeds": {
      "time": 0,
      "duration": 8,
      "pitch": 53,
      "velocity": 49,
      "numerator": 3,
      "denominator": 4
    },
    "sample_counts": {
      "time": 2,
      "duration": 2,
      "pitch": 2,
      "velocity": 2,
      "numerator": 2,
      "denominator": 2
    }
  },
  {
    "action": "execute_pt",
    "unit": "005",
    "bar_index": 10,
    "pt_name": "double_bass_homophony_b58_1761513977875_ab55",
    "N": 2,
    "seeds": {
      "time": 0,
      "duration": 8,
      "pitch": 41,
      "velocity": 47,
      "numerator": 3,
      "denominator": 4
    },
    "sample_counts": {
      "time": 2,
      "duration": 2,
      "pitch": 2,
      "velocity": 2,
      "numerator": 2,
      "denominator": 2
    }
  },
  {
    "action": "execute_pt",
    "unit": "005",
    "bar_index": 11,
    "pt_name": "alto_flute_homophony_b59_1761513984925_3541",
    "N": 1,
    "seeds": {
      "time": 0,
      "duration": 8,
      "pitch": 66,
      "velocity": 48,
      "numerator": 3,
      "denominator": 4
    },
    "sample_counts": {
      "time": 1,
      "duration": 1,
      "pitch": 1,
      "velocity": 1,
      "numerator": 1,
      "denominator": 1
    }
  },
  {
    "action": "execute_pt",
    "unit": "005",
    "bar_index": 11,
    "pt_name": "bass_clarinet_homophony_b59_1761513984926_79ca",
    "N": 1,
    "seeds": {
      "time": 0,
      "duration": 8,
      "pitch": 50,
      "velocity": 46,
      "numerator": 3,
      "denominator": 4
    },
    "sample_counts": {
      "time": 1,
      "duration": 1,
      "pitch": 1,
      "velocity": 1,
      "numerator": 1,
      "denominator": 1
    }
  },
  {
    "action": "execute_pt",
    "unit": "005",
    "bar_index": 11,
    "pt_name": "trumpet_homophony_b59_1761513984926_a0f7",
    "N": 1,
    "seeds": {
      "time": 0,
      "duration": 8,
      "pitch": 69,
      "velocity": 52,
      "numerator": 3,
      "denominator": 4
    },
    "sample_counts": {
      "time": 1,
      "duration": 1,
      "pitch": 1,
      "velocity": 1,
      "numerator": 1,
      "denominator": 1
    }
  },
  {
    "action": "execute_pt",
    "unit": "005",
    "bar_index": 11,
    "pt_name": "violin_homophony_b59_1761513984926_d794",
    "N": 1,
    "seeds": {
      "time": 0,
      "duration": 8,
      "pitch": 62,
      "velocity": 47,
      "numerator": 3,
      "denominator": 4
    },
    "sample_counts": {
      "time": 1,
      "duration": 1,
      "pitch": 1,
      "velocity": 1,
      "numerator": 1,
      "denominator": 1
    }
  },
  {
    "action": "execute_pt",
    "unit": "005",
    "bar_index": 11,
    "pt_name": "cello_homophony_b59_1761513984926_64ec",
    "N": 1,
    "seeds": {
      "time": 0,
      "duration": 8,
      "pitch": 57,
      "velocity": 45,
      "numerator": 3,
      "denominator": 4
    },
    "sample_counts": {
      "time": 1,
      "duration": 1,
      "pitch": 1,
      "velocity": 1,
      "numerator": 1,
      "denominator": 1
    }
  },
  {
    "action": "execute_pt",
    "unit": "005",
    "bar_index": 11,
    "pt_name": "double_bass_homophony_b59_1761513984926_c6c0",
    "N": 1,
    "seeds": {
      "time": 0,
      "duration": 8,
      "pitch": 38,
      "velocity": 43,
      "numerator": 3,
      "denominator": 4
    },
    "sample_counts": {
      "time": 1,
      "duration": 1,
      "pitch": 1,
      "velocity": 1,
      "numerator": 1,
      "denominator": 1
    }
  },
  {
    "action": "execute_pt",
    "unit": "005",
    "bar_index": 12,
    "pt_name": "alto_flute_homophony_b60_1761513991977_5aba",
    "N": 1,
    "seeds": {
      "time": 0,
      "duration": 12,
      "pitch": 65,
      "velocity": 48,
      "numerator": 3,
      "denominator": 4
    },
    "sample_counts": {
      "time": 1,
      "duration": 1,
      "pitch": 1,
      "velocity": 1,
      "numerator": 1,
      "denominator": 1
    }
  },
  {
    "action": "execute_pt",
    "unit": "005",
    "bar_index": 12,
    "pt_name": "bass_clarinet_homophony_b60_1761513991977_8904",
    "N": 1,
    "seeds": {
      "time": 0,
      "duration": 12,
      "pitch": 57,
      "velocity": 46,
      "numerator": 3,
      "denominator": 4
    },
    "sample_counts": {
      "time": 1,
      "duration": 1,
      "pitch": 1,
      "velocity": 1,
      "numerator": 1,
      "denominator": 1
    }
  },
  {
    "action": "execute_pt",
    "unit": "005",
    "bar_index": 12,
    "pt_name": "trumpet_homophony_b60_1761513991977_ea21",
    "N": 1,
    "seeds": {
      "time": 0,
      "duration": 12,
      "pitch": 74,
      "velocity": 48,
      "numerator": 3,
      "denominator": 4
    },
    "sample_counts": {
      "time": 1,
      "duration": 1,
      "pitch": 1,
      "velocity": 1,
      "numerator": 1,
      "denominator": 1
    }
  },
  {
    "action": "execute_pt",
    "unit": "005",
    "bar_index": 12,
    "pt_name": "violin_homophony_b60_1761513991977_cc0a",
    "N": 1,
    "seeds": {
      "time": 0,
      "duration": 12,
      "pitch": 69,
      "velocity": 43,
      "numerator": 3,
      "denominator": 4
    },
    "sample_counts": {
      "time": 1,
      "duration": 1,
      "pitch": 1,
      "velocity": 1,
      "numerator": 1,
      "denominator": 1
    }
  },
  {
    "action": "execute_pt",
    "unit": "005",
    "bar_index": 12,
    "pt_name": "cello_homophony_b60_1761513991977_f186",
    "N": 1,
    "seeds": {
      "time": 0,
      "duration": 12,
      "pitch": 50,
      "velocity": 41,
      "numerator": 3,
      "denominator": 4
    },
    "sample_counts": {
      "time": 1,
      "duration": 1,
      "pitch": 1,
      "velocity": 1,
      "numerator": 1,
      "denominator": 1
    }
  },
  {
    "action": "execute_pt",
    "unit": "005",
    "bar_index": 12,
    "pt_name": "double_bass_homophony_b60_1761513991977_1765",
    "N": 1,
    "seeds": {
      "time": 0,
      "duration": 12,
      "pitch": 43,
      "velocity": 39,
      "numerator": 3,
      "denominator": 4
    },
    "sample_counts": {
      "time": 1,
      "duration": 1,
      "pitch": 1,
      "velocity": 1,
      "numerator": 1,
      "denominator": 1
    }
  },
  {
    "action": "execute_pt",
    "unit": "005",
    "bar_index": 13,
    "pt_name": "alto_flute_homophony_b49_1761513999830_82ad",
    "N": 2,
    "seeds": {
      "time": 0,
      "duration": 4,
      "pitch": 66,
      "velocity": 50,
      "numerator": 3,
      "denominator": 4
    },
    "sample_counts": {
      "time": 2,
      "duration": 2,
      "pitch": 2,
      "velocity": 2,
      "numerator": 2,
      "denominator": 2
    }
  },
  {
    "action": "execute_pt",
    "unit": "005",
    "bar_index": 13,
    "pt_name": "bass_clarinet_homophony_b49_1761513999830_fdee",
    "N": 2,
    "seeds": {
      "time": 0,
      "duration": 4,
      "pitch": 57,
      "velocity": 48,
      "numerator": 3,
      "denominator": 4
    },
    "sample_counts": {
      "time": 2,
      "duration": 2,
      "pitch": 2,
      "velocity": 2,
      "numerator": 2,
      "denominator": 2
    }
  },
  {
    "action": "execute_pt",
    "unit": "005",
    "bar_index": 13,
    "pt_name": "trumpet_homophony_b49_1761513999830_479e",
    "N": 2,
    "seeds": {
      "time": 0,
      "duration": 4,
      "pitch": 73,
      "velocity": 54,
      "numerator": 3,
      "denominator": 4
    },
    "sample_counts": {
      "time": 2,
      "duration": 2,
      "pitch": 2,
      "velocity": 2,
      "numerator": 2,
      "denominator": 2
    }
  },
  {
    "action": "execute_pt",
    "unit": "005",
    "bar_index": 13,
    "pt_name": "violin_homophony_b49_1761513999830_370b",
    "N": 2,
    "seeds": {
      "time": 0,
      "duration": 4,
      "pitch": 62,
      "velocity": 49,
      "numerator": 3,
      "denominator": 4
    },
    "sample_counts": {
      "time": 2,
      "duration": 2,
      "pitch": 2,
      "velocity": 2,
      "numerator": 2,
      "denominator": 2
    }
  },
  {
    "action": "execute_pt",
    "unit": "005",
    "bar_index": 13,
    "pt_name": "cello_homophony_b49_1761513999830_98e1",
    "N": 2,
    "seeds": {
      "time": 0,
      "duration": 4,
      "pitch": 52,
      "velocity": 47,
      "numerator": 3,
      "denominator": 4
    },
    "sample_counts": {
      "time": 2,
      "duration": 2,
      "pitch": 2,
      "velocity": 2,
      "numerator": 2,
      "denominator": 2
    }
  },
  {
    "action": "execute_pt",
    "unit": "005",
    "bar_index": 13,
    "pt_name": "double_bass_homophony_b49_1761513999830_7c7d",
    "N": 2,
    "seeds": {
      "time": 0,
      "duration": 4,
      "pitch": 45,
      "velocity": 45,
      "numerator": 3,
      "denominator": 4
    },
    "sample_counts": {
      "time": 2,
      "duration": 2,
      "pitch": 2,
      "velocity": 2,
      "numerator": 2,
      "denominator": 2
    }
  },
  {
    "action": "execute_pt",
    "unit": "005",
    "bar_index": 14,
    "pt_name": "alto_flute_homophony_b50_1761514008015_a2cc",
    "N": 2,
    "seeds": {
      "time": 0,
      "duration": 8,
      "pitch": 65,
      "velocity": 52,
      "numerator": 3,
      "denominator": 4
    },
    "sample_counts": {
      "time": 2,
      "duration": 2,
      "pitch": 2,
      "velocity": 2,
      "numerator": 2,
      "denominator": 2
    }
  },
  {
    "action": "execute_pt",
    "unit": "005",
    "bar_index": 14,
    "pt_name": "bass_clarinet_homophony_b50_1761514008015_cdc2",
    "N": 2,
    "seeds": {
      "time": 0,
      "duration": 8,
      "pitch": 50,
      "velocity": 50,
      "numerator": 3,
      "denominator": 4
    },
    "sample_counts": {
      "time": 2,
      "duration": 2,
      "pitch": 2,
      "velocity": 2,
      "numerator": 2,
      "denominator": 2
    }
  },
  {
    "action": "execute_pt",
    "unit": "005",
    "bar_index": 14,
    "pt_name": "trumpet_homophony_b50_1761514008015_e0d4",
    "N": 2,
    "seeds": {
      "time": 0,
      "duration": 8,
      "pitch": 74,
      "velocity": 56,
      "numerator": 3,
      "denominator": 4
    },
    "sample_counts": {
      "time": 2,
      "duration": 2,
      "pitch": 2,
      "velocity": 2,
      "numerator": 2,
      "denominator": 2
    }
  },
  {
    "action": "execute_pt",
    "unit": "005",
    "bar_index": 14,
    "pt_name": "violin_homophony_b50_1761514008015_2629",
    "N": 2,
    "seeds": {
      "time": 0,
      "duration": 8,
      "pitch": 62,
      "velocity": 51,
      "numerator": 3,
      "denominator": 4
    },
    "sample_counts": {
      "time": 2,
      "duration": 2,
      "pitch": 2,
      "velocity": 2,
      "numerator": 2,
      "denominator": 2
    }
  },
  {
    "action": "execute_pt",
    "unit": "005",
    "bar_index": 14,
    "pt_name": "cello_homophony_b50_1761514008015_5754",
    "N": 2,
    "seeds": {
      "time": 0,
      "duration": 8,
      "pitch": 50,
      "velocity": 49,
      "numerator": 3,
      "denominator": 4
    },
    "sample_counts": {
      "time": 2,
      "duration": 2,
      "pitch": 2,
      "velocity": 2,
      "numerator": 2,
      "denominator": 2
    }
  },
  {
    "action": "execute_pt",
    "unit": "005",
    "bar_index": 14,
    "pt_name": "double_bass_homophony_b50_1761514008015_0500",
    "N": 2,
    "seeds": {
      "time": 0,
      "duration": 8,
      "pitch": 43,
      "velocity": 47,
      "numerator": 3,
      "denominator": 4
    },
    "sample_counts": {
      "time": 2,
      "duration": 2,
      "pitch": 2,
      "velocity": 2,
      "numerator": 2,
      "denominator": 2
    }
  },
  {
    "action": "execute_pt",
    "unit": "005",
    "bar_index": 15,
    "pt_name": "alto_flute_homophony_b51_1761514020776_494e",
    "N": 1,
    "seeds": {
      "time": 0,
      "duration": 12,
      "pitch": 67,
      "velocity": 54,
      "numerator": 3,
      "denominator": 4
    },
    "sample_counts": {
      "time": 1,
      "duration": 1,
      "pitch": 1,
      "velocity": 1,
      "numerator": 1,
      "denominator": 1
    }
  },
  {
    "action": "execute_pt",
    "unit": "005",
    "bar_index": 15,
    "pt_name": "bass_clarinet_homophony_b51_1761514020776_994b",
    "N": 1,
    "seeds": {
      "time": 0,
      "duration": 12,
      "pitch": 59,
      "velocity": 52,
      "numerator": 3,
      "denominator": 4
    },
    "sample_counts": {
      "time": 1,
      "duration": 1,
      "pitch": 1,
      "velocity": 1,
      "numerator": 1,
      "denominator": 1
    }
  },
  {
    "action": "execute_pt",
    "unit": "005",
    "bar_index": 15,
    "pt_name": "trumpet_homophony_b51_1761514020776_e7bd",
    "N": 1,
    "seeds": {
      "time": 0,
      "duration": 12,
      "pitch": 71,
      "velocity": 58,
      "numerator": 3,
      "denominator": 4
    },
    "sample_counts": {
      "time": 1,
      "duration": 1,
      "pitch": 1,
      "velocity": 1,
      "numerator": 1,
      "denominator": 1
    }
  },
  {
    "action": "execute_pt",
    "unit": "005",
    "bar_index": 15,
    "pt_name": "violin_homophony_b51_1761514020776_654b",
    "N": 1,
    "seeds": {
      "time": 0,
      "duration": 12,
      "pitch": 64,
      "velocity": 53,
      "numerator": 3,
      "denominator": 4
    },
    "sample_counts": {
      "time": 1,
      "duration": 1,
      "pitch": 1,
      "velocity": 1,
      "numerator": 1,
      "denominator": 1
    }
  },
  {
    "action": "execute_pt",
    "unit": "005",
    "bar_index": 15,
    "pt_name": "cello_homophony_b51_1761514020776_81e6",
    "N": 1,
    "seeds": {
      "time": 0,
      "duration": 12,
      "pitch": 52,
      "velocity": 51,
      "numerator": 3,
      "denominator": 4
    },
    "sample_counts": {
      "time": 1,
      "duration": 1,
      "pitch": 1,
      "velocity": 1,
      "numerator": 1,
      "denominator": 1
    }
  },
  {
    "action": "execute_pt",
    "unit": "005",
    "bar_index": 15,
    "pt_name": "double_bass_homophony_b51_1761514020776_8aa8",
    "N": 1,
    "seeds": {
      "time": 0,
      "duration": 12,
      "pitch": 40,
      "velocity": 49,
      "numerator": 3,
      "denominator": 4
    },
    "sample_counts": {
      "time": 1,
      "duration": 1,
      "pitch": 1,
      "velocity": 1,
      "numerator": 1,
      "denominator": 1
    }
  },
  {
    "action": "execute_pt",
    "unit": "005",
    "bar_index": 16,
    "pt_name": "alto_flute_homophony_b52_1761514029420_a11f",
    "N": 1,
    "seeds": {
      "time": 0,
      "duration": 8,
      "pitch": 66,
      "velocity": 56,
      "numerator": 3,
      "denominator": 4
    },
    "sample_counts": {
      "time": 1,
      "duration": 1,
      "pitch": 1,
      "velocity": 1,
      "numerator": 1,
      "denominator": 1
    }
  },
  {
    "action": "execute_pt",
    "unit": "005",
    "bar_index": 16,
    "pt_name": "bass_clarinet_homophony_b52_1761514029420_4af9",
    "N": 1,
    "seeds": {
      "time": 0,
      "duration": 8,
      "pitch": 50,
      "velocity": 54,
      "numerator": 3,
      "denominator": 4
    },
    "sample_counts": {
      "time": 1,
      "duration": 1,
      "pitch": 1,
      "velocity": 1,
      "numerator": 1,
      "denominator": 1
    }
  },
  {
    "action": "execute_pt",
    "unit": "005",
    "bar_index": 16,
    "pt_name": "trumpet_homophony_b52_1761514029420_491b",
    "N": 1,
    "seeds": {
      "time": 0,
      "duration": 8,
      "pitch": 74,
      "velocity": 60,
      "numerator": 3,
      "denominator": 4
    },
    "sample_counts": {
      "time": 1,
      "duration": 1,
      "pitch": 1,
      "velocity": 1,
      "numerator": 1,
      "denominator": 1
    }
  },
  {
    "action": "execute_pt",
    "unit": "005",
    "bar_index": 16,
    "pt_name": "violin_homophony_b52_1761514029420_bf5b",
    "N": 1,
    "seeds": {
      "time": 0,
      "duration": 8,
      "pitch": 71,
      "velocity": 55,
      "numerator": 3,
      "denominator": 4
    },
    "sample_counts": {
      "time": 1,
      "duration": 1,
      "pitch": 1,
      "velocity": 1,
      "numerator": 1,
      "denominator": 1
    }
  },
  {
    "action": "execute_pt",
    "unit": "005",
    "bar_index": 16,
    "pt_name": "cello_homophony_b52_1761514029420_ec7b",
    "N": 1,
    "seeds": {
      "time": 0,
      "duration": 8,
      "pitch": 59,
      "velocity": 53,
      "numerator": 3,
      "denominator": 4
    },
    "sample_counts": {
      "time": 1,
      "duration": 1,
      "pitch": 1,
      "velocity": 1,
      "numerator": 1,
      "denominator": 1
    }
  },
  {
    "action": "execute_pt",
    "unit": "005",
    "bar_index": 16,
    "pt_name": "double_bass_homophony_b52_1761514029420_a5af",
    "N": 1,
    "seeds": {
      "time": 0,
      "duration": 8,
      "pitch": 47,
      "velocity": 51,
      "numerator": 3,
      "denominator": 4
    },
    "sample_counts": {
      "time": 1,
      "duration": 1,
      "pitch": 1,
      "velocity": 1,
      "numerator": 1,
      "denominator": 1
    }
  },
  {
    "action": "execute_pt",
    "unit": "005",
    "bar_index": 17,
    "pt_name": "alto_flute_homophony_b53_1761514040600_e2cf",
    "N": 1,
    "seeds": {
      "time": 4,
      "duration": 8,
      "pitch": 65,
      "velocity": 58,
      "numerator": 3,
      "denominator": 4
    },
    "sample_counts": {
      "time": 1,
      "duration": 1,
      "pitch": 1,
      "velocity": 1,
      "numerator": 1,
      "denominator": 1
    }
  },
  {
    "action": "execute_pt",
    "unit": "005",
    "bar_index": 17,
    "pt_name": "bass_clarinet_homophony_b53_1761514040600_a443",
    "N": 1,
    "seeds": {
      "time": 4,
      "duration": 8,
      "pitch": 50,
      "velocity": 56,
      "numerator": 3,
      "denominator": 4
    },
    "sample_counts": {
      "time": 1,
      "duration": 1,
      "pitch": 1,
      "velocity": 1,
      "numerator": 1,
      "denominator": 1
    }
  },
  {
    "action": "execute_pt",
    "unit": "005",
    "bar_index": 17,
    "pt_name": "trumpet_homophony_b53_1761514040600_cb15",
    "N": 1,
    "seeds": {
      "time": 4,
      "duration": 8,
      "pitch": 69,
      "velocity": 62,
      "numerator": 3,
      "denominator": 4
    },
    "sample_counts": {
      "time": 1,
      "duration": 1,
      "pitch": 1,
      "velocity": 1,
      "numerator": 1,
      "denominator": 1
    }
  },
  {
    "action": "execute_pt",
    "unit": "005",
    "bar_index": 17,
    "pt_name": "violin_homophony_b53_1761514040600_a462",
    "N": 1,
    "seeds": {
      "time": 4,
      "duration": 8,
      "pitch": 62,
      "velocity": 57,
      "numerator": 3,
      "denominator": 4
    },
    "sample_counts": {
      "time": 1,
      "duration": 1,
      "pitch": 1,
      "velocity": 1,
      "numerator": 1,
      "denominator": 1
    }
  },
  {
    "action": "execute_pt",
    "unit": "005",
    "bar_index": 17,
    "pt_name": "cello_homophony_b53_1761514040600_c83e",
    "N": 1,
    "seeds": {
      "time": 4,
      "duration": 8,
      "pitch": 55,
      "velocity": 55,
      "numerator": 3,
      "denominator": 4
    },
    "sample_counts": {
      "time": 1,
      "duration": 1,
      "pitch": 1,
      "velocity": 1,
      "numerator": 1,
      "denominator": 1
    }
  },
  {
    "action": "execute_pt",
    "unit": "005",
    "bar_index": 17,
    "pt_name": "double_bass_homophony_b53_1761514040600_d4e4",
    "N": 1,
    "seeds": {
      "time": 4,
      "duration": 8,
      "pitch": 43,
      "velocity": 53,
      "numerator": 3,
      "denominator": 4
    },
    "sample_counts": {
      "time": 1,
      "duration": 1,
      "pitch": 1,
      "velocity": 1,
      "numerator": 1,
      "denominator": 1
    }
  }
]